<?xml version="1.0" encoding="utf-8"?>
<!-- Generator: Adobe Illustrator 23.0.1, SVG Export Plug-In . SVG Version: 6.00 Build 0)  -->
<svg version="1.1" id="Layer_1" xmlns="http://www.w3.org/2000/svg" xmlns:xlink="http://www.w3.org/1999/xlink" x="0px" y="0px"
	 viewBox="0 0 100 24.6" style="enable-background:new 0 0 100 24.6;" xml:space="preserve">
<style type="text/css">
	.st0{fill:none;stroke:#000000;stroke-width:2;stroke-linecap:round;stroke-linejoin:round;stroke-miterlimit:10;}
</style>
<line class="st0" x1="11.8" y1="8.9" x2="11.8" y2="15.3"/>
<line class="st0" x1="15.8" y1="8.9" x2="15.8" y2="15.3"/>
<line class="st0" x1="19.8" y1="8.9" x2="19.8" y2="15.3"/>
<line class="st0" x1="23.8" y1="8.9" x2="23.8" y2="15.3"/>
<line class="st0" x1="27.8" y1="8.9" x2="27.8" y2="15.3"/>
<line class="st0" x1="31.8" y1="8.9" x2="31.8" y2="15.3"/>
<line class="st0" x1="35.8" y1="8.9" x2="35.8" y2="15.3"/>
<line class="st0" x1="39.8" y1="8.9" x2="39.8" y2="15.3"/>
<line class="st0" x1="43.8" y1="8.9" x2="43.8" y2="15.3"/>
<line class="st0" x1="47.8" y1="8.9" x2="47.8" y2="15.3"/>
<line class="st0" x1="51.8" y1="8.9" x2="51.8" y2="15.3"/>
<line class="st0" x1="55.8" y1="8.9" x2="55.8" y2="15.3"/>
<line class="st0" x1="59.8" y1="8.9" x2="59.8" y2="15.3"/>
<line class="st0" x1="63.8" y1="8.9" x2="63.8" y2="15.3"/>
<line class="st0" x1="67.8" y1="8.9" x2="67.8" y2="15.3"/>
<line class="st0" x1="71.8" y1="8.9" x2="71.8" y2="15.3"/>
<line class="st0" x1="75.8" y1="8.9" x2="75.8" y2="15.3"/>
<line class="st0" x1="79.8" y1="8.9" x2="79.8" y2="15.3"/>
<line class="st0" x1="83.8" y1="8.9" x2="83.8" y2="15.3"/>
<line class="st0" x1="87.8" y1="8.9" x2="87.8" y2="15.3"/>
</svg>
