<?xml version="1.0" encoding="utf-8"?>
<!-- Generator: Adobe Illustrator 23.0.1, SVG Export Plug-In . SVG Version: 6.00 Build 0)  -->
<svg version="1.1" id="Layer_1" xmlns="http://www.w3.org/2000/svg" xmlns:xlink="http://www.w3.org/1999/xlink" x="0px" y="0px"
	 viewBox="0 0 637.5 487.5" style="enable-background:new 0 0 637.5 487.5;" xml:space="preserve">
<style type="text/css">
	.st0{clip-path:url(#SVGID_2_);}
	.st1{clip-path:url(#SVGID_4_);fill:none;stroke:#E8E8E8;stroke-width:0.75;stroke-miterlimit:10;}
	.st2{clip-path:url(#SVGID_4_);fill:#C71E1D;}
	.st3{clip-path:url(#SVGID_4_);fill:#C71E1D;fill-opacity:0.6;stroke:#000000;stroke-width:0.5;stroke-miterlimit:10;}
	.st4{clip-path:url(#SVGID_4_);fill:none;stroke:#333333;stroke-width:0.75;stroke-miterlimit:10;}
	.st5{fill:#A6A6A6;}
	.st6{font-family:'Roboto-Regular';}
	.st7{font-size:9px;}
	.st8{fill:#333333;}
</style>
<g>
	<defs>
		<rect id="SVGID_1_" width="637.5" height="487.5"/>
	</defs>
	<clipPath id="SVGID_2_">
		<use xlink:href="#SVGID_1_"  style="overflow:visible;"/>
	</clipPath>
	<g class="st0">
		<defs>
			<polyline id="SVGID_3_" points="0,483 0,0 637.5,0 637.5,483 			"/>
		</defs>
		<clipPath id="SVGID_4_">
			<use xlink:href="#SVGID_3_"  style="overflow:visible;"/>
		</clipPath>
		<line class="st1" x1="26.2" y1="3.8" x2="637.5" y2="3.8"/>
		<line class="st1" x1="26.2" y1="61.5" x2="637.5" y2="61.5"/>
		<line class="st1" x1="26.2" y1="118.5" x2="637.5" y2="118.5"/>
		<line class="st1" x1="26.2" y1="176.2" x2="637.5" y2="176.2"/>
		<line class="st1" x1="26.2" y1="234" x2="637.5" y2="234"/>
		<line class="st1" x1="26.2" y1="291" x2="637.5" y2="291"/>
		<line class="st1" x1="26.2" y1="348.8" x2="637.5" y2="348.8"/>
		<line class="st1" x1="26.2" y1="405.8" x2="637.5" y2="405.8"/>
		<rect x="26.2" y="463.5" class="st2" width="7.2" height="0.4"/>
		<rect x="33.4" y="463.5" class="st2" width="7.2" height="0.4"/>
		<polygon class="st3" points="629,0 629,14.2 621.8,14.2 621.8,36 614.8,36 614.8,46.5 607.6,46.5 607.6,60.8 600.4,60.8 
			600.4,74.2 593.2,74.2 593.2,87.8 586.2,87.8 586.2,102.8 579,102.8 579,108.8 571.8,108.8 571.8,117 564.6,117 564.6,123 
			557.5,123 557.5,132 550.4,132 550.4,141 543.2,141 543.2,150 536,150 536,176.2 528.9,176.2 528.9,180.8 521.7,180.8 521.7,186 
			514.5,186 514.5,189.8 507.3,189.8 507.3,200.2 500.1,200.2 500.1,207 492.9,207 492.9,212.9 485.8,212.9 485.8,219.7 
			478.6,219.7 478.6,224.2 471.4,224.2 471.4,230.9 464.2,230.9 464.2,233.2 457.1,233.2 457.1,234.8 449.9,234.8 449.9,248.2 
			442.7,248.2 442.7,251.2 435.5,251.2 435.5,255.8 428.5,255.8 428.5,261 421.3,261 421.3,264 414.1,264 414.1,266.2 406.9,266.2 
			406.9,270 399.9,270 399.9,273 392.7,273 392.7,275.2 385.5,275.2 385.5,279 378.3,279 378.3,283.5 371.1,283.5 371.1,287.2 
			364,287.2 364,291 356.8,291 356.8,296.2 349.6,296.2 349.6,302.2 342.4,302.2 342.4,314.3 335.3,314.3 335.3,326.3 328.1,326.3 
			328.1,333.8 320.9,333.8 320.9,350.3 313.7,350.3 313.7,361.5 306.6,361.5 299.4,361.5 299.4,366 292.2,366 292.2,370.5 
			285.1,370.5 285.1,372 277.9,372 277.9,377.2 270.8,377.2 270.8,378.8 263.6,378.8 263.6,390 256.4,390 256.4,393 249.2,393 
			249.2,394.5 242,394.5 242,397.5 234.8,397.5 234.8,401.2 227.6,401.2 227.6,406.5 220.4,406.5 220.4,410.2 213.2,410.2 
			213.2,414.8 206,414.8 206,420.8 198.8,420.8 191.6,420.8 191.6,424.5 184.5,424.5 184.5,427.5 177.3,427.5 177.3,431.2 
			170.1,431.2 170.1,434.2 162.9,434.2 162.9,438 155.7,438 155.7,440.2 148.5,440.2 148.5,441 141.3,441 141.3,443.2 134.1,443.2 
			134.1,445.5 126.9,445.5 126.9,450 119.7,450 119.7,452.2 112.5,452.2 112.5,453.8 105.4,453.8 105.4,456.8 98.2,456.8 
			98.2,457.5 91,457.5 91,459.8 83.8,459.8 83.8,461.2 76.6,461.2 76.6,462 69.4,462 62.2,462 62.2,462.8 55,462.8 47.8,462.8 
			40.6,462.8 40.6,463.5 47.8,463.5 55,463.5 62.2,463.5 69.4,463.5 76.6,463.5 83.8,463.5 91,463.5 98.2,463.5 105.4,463.5 
			112.5,463.5 119.7,463.5 126.9,463.5 134.1,463.5 141.3,463.5 148.5,463.5 155.7,463.5 162.9,463.5 170.1,463.5 177.3,463.5 
			184.5,463.5 191.6,463.5 198.8,463.5 206,463.5 213.2,463.5 220.4,463.5 227.6,463.5 234.8,463.5 242,463.5 249.2,463.5 
			256.4,463.5 263.6,463.5 270.8,463.5 277.9,463.5 285.1,463.5 285.1,463.5 292.2,463.5 299.4,463.5 306.6,463.5 313.7,463.5 
			313.7,463.5 320.9,463.5 328.1,463.5 335.3,463.5 342.5,463.5 342.5,463.5 349.6,463.5 356.8,463.5 364,463.5 371.1,463.5 
			371.2,463.5 378.3,463.5 385.5,463.5 392.7,463.5 399.9,463.5 406.9,463.5 407.1,463.5 414.1,463.5 421.3,463.5 428.5,463.5 
			435.5,463.5 435.7,463.5 442.7,463.5 449.9,463.5 457.1,463.5 464.3,463.5 464.3,463.4 471.4,463.4 478.6,463.4 485.8,463.4 
			492.9,463.4 492.9,463.5 500.1,463.5 507.3,463.5 514.5,463.5 521.7,463.5 528.9,463.5 536,463.5 536.1,463.5 543.2,463.5 
			550.4,463.5 557.5,463.5 564.6,463.5 564.7,463.5 571.8,463.5 579,463.5 586.2,463.5 593.2,463.5 593.4,463.5 600.4,463.5 
			607.6,463.5 614.8,463.5 621.8,463.5 622,463.5 629,463.5 636.2,463.5 636.2,0 		"/>
		<line class="st4" x1="26.2" y1="463.5" x2="637.5" y2="463.5"/>
	</g>
	<g class="st0">
		<text transform="matrix(1 0 0 1 0.7852 408.8496)" class="st5 st6 st7">1000</text>
	</g>
	<g class="st0">
		<text transform="matrix(1 0 0 1 0.7852 351.8496)" class="st5 st6 st7">2000</text>
	</g>
	<g class="st0">
		<text transform="matrix(1 0 0 1 0.7852 294.0996)" class="st5 st6 st7">3000</text>
	</g>
	<g class="st0">
		<text transform="matrix(1 0 0 1 0.7852 237.0996)" class="st5 st6 st7">4000</text>
	</g>
	<g class="st0">
		<text transform="matrix(1 0 0 1 0.7852 179.3496)" class="st5 st6 st7">5000</text>
	</g>
	<g class="st0">
		<text transform="matrix(1 0 0 1 0.7852 121.5996)" class="st5 st6 st7">6000</text>
	</g>
	<g class="st0">
		<text transform="matrix(1 0 0 1 0.7852 64.5996)" class="st5 st6 st7">7000</text>
	</g>
	<g class="st0">
		<text transform="matrix(1 0 0 1 0.7852 6.8496)" class="st5 st6 st7">8000</text>
	</g>
</g>
<g>
	<text transform="matrix(1 0 0 1 622.5989 477.937)" class="st8 st6 st7">6/3</text>
</g>
<g>
	<text transform="matrix(1 0 0 1 33.8803 477.9372)" class="st8 st6 st7">3/11</text>
</g>
</svg>
