<?xml version="1.0" encoding="utf-8"?>
<!-- Generator: Adobe Illustrator 23.0.1, SVG Export Plug-In . SVG Version: 6.00 Build 0)  -->
<svg version="1.1" id="Layer_1" xmlns="http://www.w3.org/2000/svg" xmlns:xlink="http://www.w3.org/1999/xlink" x="0px" y="0px"
	 viewBox="0 0 637.5 487.5" style="enable-background:new 0 0 637.5 487.5;" xml:space="preserve">
<style type="text/css">
	.st0{enable-background:new    ;}
	.st1{fill:none;stroke:#E8E8E8;stroke-width:0.75;stroke-miterlimit:10;}
	.st2{fill:#C71E1D;}
	.st3{fill:#C71E1D;fill-opacity:0.6;stroke:#000000;stroke-width:0.5;stroke-miterlimit:10;}
	.st4{fill:none;stroke:#333333;stroke-width:0.75;stroke-miterlimit:10;}
	.st5{fill:#A6A6A6;}
	.st6{font-family:'Roboto-Regular';}
	.st7{font-size:9px;}
	.st8{fill:#333333;}
</style>
<g>
	<g class="st0">
		<g>
			<line class="st1" x1="26.2" y1="25.5" x2="637.5" y2="25.5"/>
			<line class="st1" x1="26.2" y1="80.2" x2="637.5" y2="80.2"/>
			<line class="st1" x1="26.2" y1="135" x2="637.5" y2="135"/>
			<line class="st1" x1="26.2" y1="189.8" x2="637.5" y2="189.8"/>
			<line class="st1" x1="26.2" y1="244.5" x2="637.5" y2="244.5"/>
			<line class="st1" x1="26.2" y1="299.2" x2="637.5" y2="299.2"/>
			<line class="st1" x1="26.2" y1="354" x2="637.5" y2="354"/>
			<line class="st1" x1="26.2" y1="408.8" x2="637.5" y2="408.8"/>
			<rect x="26.2" y="463.5" class="st2" width="9.6" height="0.4"/>
			<polygon class="st3" points="627.9,0 627.9,8.2 618.4,8.2 618.4,21 608.8,21 608.8,24.8 599.3,24.8 599.3,27.8 589.7,27.8 
				589.7,53.2 580.2,53.2 580.2,59.2 570.6,59.2 570.6,68.2 561.1,68.2 561.1,78 551.5,78 551.5,84 542,84 542,87.8 532.4,87.8 
				532.4,94.5 522.9,94.5 522.9,101.2 513.3,101.2 513.3,104.2 503.8,104.2 503.8,112.5 494.2,112.5 494.2,121.5 484.7,121.5 
				484.7,127.5 475.1,127.5 475.1,135 465.6,135 465.6,145.5 456,145.5 456,156 446.5,156 446.5,179.2 436.9,179.2 436.9,201.8 
				427.4,201.8 427.4,216 417.8,216 417.8,247.5 408.3,247.5 408.3,268.5 398.7,268.5 398.7,269.2 389.2,269.2 389.2,278.2 
				379.6,278.2 379.6,286.5 370.1,286.5 370.1,288.8 360.5,288.8 360.5,299.2 351,299.2 351,302.2 341.4,302.2 341.4,323.2 
				331.9,323.2 331.9,329.2 322.3,329.2 322.3,332.2 312.8,332.2 312.8,338.2 303.2,338.2 303.2,345.8 293.7,345.8 293.7,354.8 
				284.1,354.8 284.1,362.2 274.6,362.2 274.6,370.5 265,370.5 265,382.5 255.5,382.5 245.9,382.5 245.9,388.5 236.4,388.5 
				236.4,395.2 226.8,395.2 226.8,402 217.3,402 217.3,408 207.7,408 207.7,414 198.2,414 198.2,418.5 188.6,418.5 188.6,421.5 
				179.1,421.5 179.1,425.2 169.5,425.2 169.5,429.8 160,429.8 160,438 150.4,438 150.4,441.8 140.9,441.8 140.9,445.5 131.3,445.5 
				131.3,450 121.8,450 121.8,452.2 112.2,452.2 112.2,456.8 102.7,456.8 102.7,459.8 93.1,459.8 93.1,461.2 83.6,461.2 74,461.2 
				74,462 64.5,462 54.9,462 54.9,462.8 45.4,462.8 35.8,462.8 35.8,463.5 45.4,463.5 54.9,463.5 64.5,463.5 74,463.5 83.6,463.5 
				93.1,463.5 102.7,463.5 112.2,463.5 121.8,463.5 131.3,463.5 140.9,463.5 150.4,463.5 160,463.5 169.5,463.5 179.1,463.5 
				188.6,463.5 198.2,463.5 207.7,463.5 217.3,463.5 226.8,463.5 236.4,463.5 245.9,463.5 255.5,463.5 265,463.5 265,463.5 
				274.6,463.5 274.6,463.5 284.1,463.5 284.1,463.5 293.7,463.5 293.7,463.5 303.2,463.5 303.2,463.5 312.8,463.5 312.8,463.5 
				322.3,463.5 322.3,463.5 331.9,463.5 331.9,463.5 341.4,463.5 341.4,463.5 351,463.5 351,463.5 360.5,463.5 360.5,463.5 
				370.1,463.5 370.1,463.5 379.6,463.5 379.6,463.5 389.2,463.5 389.2,463.5 398.7,463.5 398.7,463.5 408.3,463.5 408.3,463.5 
				417.8,463.5 417.8,463.5 427.4,463.5 427.4,463.5 436.9,463.5 436.9,463.5 446.5,463.5 446.5,463.5 456,463.5 456,463.5 
				465.6,463.5 465.6,463.5 475.1,463.5 475.1,463.5 484.7,463.5 484.7,463.5 494.2,463.5 494.2,463.5 503.8,463.5 503.8,463.5 
				513.3,463.5 522.9,463.5 532.4,463.5 542,463.5 551.5,463.5 561.1,463.5 570.6,463.5 580.2,463.5 589.7,463.5 599.3,463.5 
				608.8,463.5 618.4,463.5 627.9,463.5 637.5,463.5 637.5,0 			"/>
			<line class="st4" x1="26.2" y1="463.5" x2="637.5" y2="463.5"/>
			<text transform="matrix(1 0 0 1 5.8389 411.0996)" class="st5 st6 st7">500</text>
			<text transform="matrix(1 0 0 1 7.031250e-02 356.3496)" class="st5 st6 st7">1000</text>
			<text transform="matrix(1 0 0 1 7.031250e-02 301.5996)" class="st5 st6 st7">1500</text>
			<text transform="matrix(1 0 0 1 7.031250e-02 246.8496)" class="st5 st6 st7">2000</text>
			<text transform="matrix(1 0 0 1 7.031250e-02 192.0996)" class="st5 st6 st7">2500</text>
			<text transform="matrix(1 0 0 1 7.031250e-02 137.3496)" class="st5 st6 st7">3000</text>
			<text transform="matrix(1 0 0 1 7.031250e-02 82.5996)" class="st5 st6 st7">3500</text>
			<text transform="matrix(1 0 0 1 7.031250e-02 27.8496)" class="st5 st6 st7">4000</text>
		</g>
	</g>
</g>
<g>
	<text transform="matrix(1 0 0 1 618.5151 478.043)" class="st8 st6 st7">5/13</text>
</g>
<g>
	<text transform="matrix(1 0 0 1 35.3796 478.0429)" class="st8 st6 st7">3/11</text>
</g>
</svg>
