<?xml version="1.0" encoding="utf-8"?>
<!-- Generator: Adobe Illustrator 23.0.1, SVG Export Plug-In . SVG Version: 6.00 Build 0)  -->
<svg version="1.1" id="Layer_1" xmlns="http://www.w3.org/2000/svg" xmlns:xlink="http://www.w3.org/1999/xlink" x="0px" y="0px"
	 viewBox="0 0 637.5 487.5" style="enable-background:new 0 0 637.5 487.5;" xml:space="preserve">
<style type="text/css">
	.st0{clip-path:url(#SVGID_2_);}
	.st1{clip-path:url(#SVGID_4_);fill:none;stroke:#E8E8E8;stroke-width:0.75;stroke-miterlimit:10;}
	.st2{clip-path:url(#SVGID_4_);fill:#C71E1D;}
	.st3{clip-path:url(#SVGID_4_);fill:#C71E1D;fill-opacity:0.6;stroke:#000000;stroke-width:0.5;stroke-miterlimit:10;}
	.st4{clip-path:url(#SVGID_4_);fill:none;stroke:#333333;stroke-width:0.75;stroke-miterlimit:10;}
	.st5{fill:#A6A6A6;}
	.st6{font-family:'Roboto-Regular';}
	.st7{font-size:9px;}
	.st8{fill:#333333;}
</style>
<g>
	<defs>
		<rect id="SVGID_1_" width="637.5" height="487.5"/>
	</defs>
	<clipPath id="SVGID_2_">
		<use xlink:href="#SVGID_1_"  style="overflow:visible;"/>
	</clipPath>
	<g class="st0">
		<defs>
			<polyline id="SVGID_3_" points="0,483 0,0 637.5,0 637.5,483 			"/>
		</defs>
		<clipPath id="SVGID_4_">
			<use xlink:href="#SVGID_3_"  style="overflow:visible;"/>
		</clipPath>
		<line class="st1" x1="26.2" y1="25.5" x2="637.5" y2="25.5"/>
		<line class="st1" x1="26.2" y1="74.2" x2="637.5" y2="74.2"/>
		<line class="st1" x1="26.2" y1="122.2" x2="637.5" y2="122.2"/>
		<line class="st1" x1="26.2" y1="171" x2="637.5" y2="171"/>
		<line class="st1" x1="26.2" y1="219.8" x2="637.5" y2="219.8"/>
		<line class="st1" x1="26.2" y1="268.5" x2="637.5" y2="268.5"/>
		<line class="st1" x1="26.2" y1="317.2" x2="637.5" y2="317.2"/>
		<line class="st1" x1="26.2" y1="366" x2="637.5" y2="366"/>
		<line class="st1" x1="26.2" y1="414.8" x2="637.5" y2="414.8"/>
		<rect x="26.2" y="463.5" class="st2" width="9" height="0.4"/>
		<polygon class="st3" points="627.9,0 627.9,18 619.1,18 619.1,28.5 610.1,28.5 610.1,38.2 601.1,38.2 601.1,51 592.1,51 
			592.1,57.8 583.3,57.8 583.3,69.8 574.3,69.8 574.3,72.8 565.3,72.8 565.3,75.8 556.4,75.8 556.4,98.2 547.4,98.2 547.4,103.5 
			538.4,103.5 538.4,111.8 529.5,111.8 529.5,120 520.6,120 520.6,126 511.6,126 511.6,129 502.6,129 502.6,135 493.6,135 
			493.6,141 484.6,141 484.6,144 475.6,144 475.6,151.5 466.6,151.5 466.6,159 457.6,159 457.6,164.2 448.6,164.2 448.6,171 
			439.7,171 439.7,180 430.7,180 430.7,189.8 421.7,189.8 421.7,210 412.7,210 412.7,230.2 403.7,230.2 403.7,243 394.7,243 
			394.7,271.5 385.7,271.5 385.7,290.2 376.7,290.2 367.7,290.2 367.7,298.5 358.8,298.5 358.8,306 349.8,306 349.8,307.5 
			340.8,307.5 340.8,317.2 331.8,317.2 331.8,319.5 322.8,319.5 322.8,339 313.8,339 313.8,344.2 304.8,344.2 304.8,346.5 
			295.8,346.5 295.8,351.8 286.8,351.8 286.8,358.5 277.9,358.5 277.9,366.8 268.9,366.8 268.9,373.5 259.9,373.5 259.9,380.2 
			250.9,380.2 250.9,391.5 241.9,391.5 232.9,391.5 232.9,396.8 223.9,396.8 223.9,402.8 214.9,402.8 214.9,408.8 205.9,408.8 
			205.9,414 197,414 197,420 188,420 188,423.8 179,423.8 179,426 170,426 170,429.8 161,429.8 161,433.5 152.1,433.5 152.1,441 
			143.1,441 143.1,444 134.1,444 134.1,447.8 125.1,447.8 125.1,451.5 116.1,451.5 116.1,453.8 107.2,453.8 107.2,457.5 98.2,457.5 
			98.2,460.5 89.2,460.5 89.2,461.2 80.2,461.2 71.2,461.2 71.2,462 62.2,462 53.2,462 53.2,462.8 44.2,462.8 35.2,462.8 
			35.2,463.5 44.2,463.5 53.2,463.5 62.2,463.5 71.2,463.5 80.2,463.5 89.2,463.5 98.2,463.5 107.2,463.5 116.1,463.5 125.1,463.5 
			134.1,463.5 143.1,463.5 152.1,463.5 161,463.5 161.1,463.5 170,463.5 179,463.5 188,463.5 197,463.5 205.9,463.5 214.9,463.5 
			223.9,463.5 232.9,463.5 241.9,463.5 250.9,463.5 259.9,463.5 268.9,463.5 277.9,463.5 277.9,463.5 286.8,463.5 295.8,463.5 
			304.8,463.5 304.8,463.5 313.8,463.5 322.8,463.5 331.8,463.5 340.8,463.5 349.8,463.5 358.8,463.5 367.7,463.5 367.7,463.5 
			376.7,463.5 385.7,463.5 394.7,463.5 394.7,463.5 403.7,463.5 412.7,463.5 421.7,463.5 430.7,463.5 430.7,463.5 439.7,463.5 
			448.6,463.5 457.6,463.5 457.6,463.5 466.6,463.5 475.6,463.5 484.6,463.5 493.6,463.5 502.6,463.5 511.6,463.5 520.6,463.5 
			529.5,463.5 538.4,463.5 538.5,463.5 547.4,463.5 556.4,463.5 565.3,463.5 565.4,463.5 574.3,463.5 583.3,463.5 592.1,463.5 
			592.2,463.5 601.1,463.5 610.1,463.5 619.1,463.5 627.9,463.5 628.1,463.5 636.9,463.5 636.9,0 		"/>
		<line class="st4" x1="26.2" y1="463.5" x2="637.5" y2="463.5"/>
	</g>
	<g class="st0">
		<text transform="matrix(1 0 0 1 5.2529 417.0996)" class="st5 st6 st7">500</text>
	</g>
	<g class="st0">
		<text transform="matrix(1 0 0 1 3.515625e-02 368.3496)" class="st5 st6 st7">1000</text>
	</g>
	<g class="st0">
		<text transform="matrix(1 0 0 1 3.515625e-02 319.5996)" class="st5 st6 st7">1500</text>
	</g>
	<g class="st0">
		<text transform="matrix(1 0 0 1 3.515625e-02 270.8496)" class="st5 st6 st7">2000</text>
	</g>
	<g class="st0">
		<text transform="matrix(1 0 0 1 3.515625e-02 222.0996)" class="st5 st6 st7">2500</text>
	</g>
	<g class="st0">
		<text transform="matrix(1 0 0 1 3.515625e-02 173.3496)" class="st5 st6 st7">3000</text>
	</g>
	<g class="st0">
		<text transform="matrix(1 0 0 1 3.515625e-02 124.5996)" class="st5 st6 st7">3500</text>
	</g>
	<g class="st0">
		<text transform="matrix(1 0 0 1 3.515625e-02 76.5996)" class="st5 st6 st7">4000</text>
	</g>
	<g class="st0">
		<text transform="matrix(1 0 0 1 3.515625e-02 27.8496)" class="st5 st6 st7">4500</text>
	</g>
</g>
<g>
	<text transform="matrix(1 0 0 1 618.1504 477.7554)" class="st8 st6 st7">5/17</text>
</g>
<g>
	<text transform="matrix(1 0 0 1 31.361 477.7556)" class="st8 st6 st7">3/11</text>
</g>
</svg>
