<?xml version="1.0" encoding="utf-8"?>
<!-- Generator: Adobe Illustrator 23.0.1, SVG Export Plug-In . SVG Version: 6.00 Build 0)  -->
<svg version="1.1" id="Layer_1" xmlns="http://www.w3.org/2000/svg" xmlns:xlink="http://www.w3.org/1999/xlink" x="0px" y="0px"
	 viewBox="0 0 637.5 487.5" style="enable-background:new 0 0 637.5 487.5;" xml:space="preserve">
<style type="text/css">
	.st0{clip-path:url(#SVGID_2_);}
	.st1{clip-path:url(#SVGID_4_);fill:none;stroke:#E8E8E8;stroke-width:0.75;stroke-miterlimit:10;}
	.st2{clip-path:url(#SVGID_4_);fill:#C71E1D;}
	.st3{clip-path:url(#SVGID_4_);fill:#C71E1D;fill-opacity:0.6;stroke:#000000;stroke-width:0.5;stroke-miterlimit:10;}
	.st4{clip-path:url(#SVGID_4_);fill:none;stroke:#333333;stroke-width:0.75;stroke-miterlimit:10;}
	.st5{fill:#A6A6A6;}
	.st6{font-family:'Roboto-Regular';}
	.st7{font-size:9px;}
	.st8{fill:#333333;}
</style>
<g>
	<defs>
		<rect id="SVGID_1_" width="637.5" height="487.5"/>
	</defs>
	<clipPath id="SVGID_2_">
		<use xlink:href="#SVGID_1_"  style="overflow:visible;"/>
	</clipPath>
	<g class="st0">
		<defs>
			<polyline id="SVGID_3_" points="0,483 0,0 637.5,0 637.5,483 			"/>
		</defs>
		<clipPath id="SVGID_4_">
			<use xlink:href="#SVGID_3_"  style="overflow:visible;"/>
		</clipPath>
		<line class="st1" x1="26.2" y1="21" x2="637.5" y2="21"/>
		<line class="st1" x1="26.2" y1="69.8" x2="637.5" y2="69.8"/>
		<line class="st1" x1="26.2" y1="119.2" x2="637.5" y2="119.2"/>
		<line class="st1" x1="26.2" y1="168.8" x2="637.5" y2="168.8"/>
		<line class="st1" x1="26.2" y1="217.5" x2="637.5" y2="217.5"/>
		<line class="st1" x1="26.2" y1="267" x2="637.5" y2="267"/>
		<line class="st1" x1="26.2" y1="315.8" x2="637.5" y2="315.8"/>
		<line class="st1" x1="26.2" y1="365.2" x2="637.5" y2="365.2"/>
		<line class="st1" x1="26.2" y1="414" x2="637.5" y2="414"/>
		<rect x="26.2" y="463.5" class="st2" width="6.9" height="0.4"/>
		<rect x="33.1" y="463.5" class="st2" width="6.9" height="0.4"/>
		<polygon class="st3" points="630.5,0 630.5,15.8 623.7,15.8 623.7,38.2 616.8,38.2 616.8,49.5 609.9,49.5 609.9,66.8 603.1,66.8 
			603.1,78.8 596.2,78.8 596.2,97.5 589.3,97.5 589.3,106.5 582.5,106.5 582.5,118.5 575.6,118.5 575.6,130.5 568.7,130.5 
			568.7,141.8 561.9,141.8 561.9,154.5 555,154.5 555,159.8 548.1,159.8 548.1,167.2 541.3,167.2 541.3,172.5 534.4,172.5 
			534.4,179.2 527.5,179.2 527.5,187.5 520.7,187.5 520.7,195 513.8,195 513.8,217.5 506.9,217.5 506.9,221.2 500,221.2 500,225.8 
			493.2,225.8 493.2,229.5 486.3,229.5 486.3,238.5 479.4,238.5 479.4,243.8 472.6,243.8 472.6,249 465.7,249 465.7,255 458.8,255 
			458.8,258.8 452,258.8 452,264.8 445.1,264.8 445.1,266.2 438.2,266.2 438.2,267.8 431.4,267.8 431.4,279 424.5,279 424.5,282 
			417.6,282 417.6,285.8 410.8,285.8 410.8,290.2 403.9,290.2 403.9,293.2 397,293.2 397,294.8 390.2,294.8 390.2,297.8 
			383.3,297.8 383.3,300.8 376.4,300.8 376.4,302.2 369.6,302.2 369.6,306 362.7,306 362.7,309.8 355.8,309.8 355.8,312.8 
			349,312.8 349,315.8 342.1,315.8 342.1,320.2 335.2,320.2 335.2,325.5 328.3,325.5 328.3,336 321.5,336 321.5,345.8 314.6,345.8 
			314.6,352.5 307.7,352.5 307.7,366.8 300.9,366.8 300.9,375.8 294,375.8 287.1,375.8 287.1,380.2 280.3,380.2 280.3,384 
			273.4,384 273.4,384.8 266.5,384.8 266.5,390 259.7,390 259.7,390.8 252.8,390.8 252.8,400.5 245.9,400.5 245.9,402.8 
			239.1,402.8 239.1,404.2 232.2,404.2 232.2,407.2 225.3,407.2 225.3,410.2 218.5,410.2 218.5,414.8 211.6,414.8 211.6,417.8 
			204.7,417.8 204.7,421.5 197.9,421.5 197.9,426.8 191,426.8 191,427.5 184.1,427.5 184.1,429.8 177.3,429.8 177.3,432.8 
			170.4,432.8 170.4,435.8 163.5,435.8 163.5,438.8 156.7,438.8 156.7,441.8 149.8,441.8 149.8,443.2 142.9,443.2 142.9,444.8 
			136,444.8 136,446.2 129.2,446.2 129.2,448.5 122.3,448.5 122.3,452.2 115.4,452.2 115.4,453.8 108.6,453.8 108.6,455.2 
			101.7,455.2 101.7,457.5 94.8,457.5 94.8,458.2 88,458.2 88,460.5 81.2,460.5 81.2,462 74.3,462 74.3,462.8 67.5,462.8 
			60.6,462.8 53.7,462.8 46.9,462.8 40,462.8 40,463.5 46.9,463.5 53.7,463.5 60.6,463.5 67.5,463.5 74.3,463.5 81.2,463.5 
			88,463.5 88.1,463.5 94.8,463.5 101.7,463.5 108.6,463.5 115.4,463.5 122.3,463.5 129.2,463.5 136,463.5 142.9,463.5 149.8,463.5 
			156.7,463.5 163.5,463.5 170.4,463.5 177.3,463.5 184.1,463.5 191,463.5 197.9,463.5 204.7,463.5 211.6,463.5 218.5,463.5 
			225.3,463.5 225.3,463.5 232.2,463.5 239.1,463.5 245.9,463.5 252.8,463.5 259.7,463.5 266.5,463.5 273.4,463.5 280.3,463.5 
			287.1,463.5 294,463.5 300.9,463.5 307.7,463.5 314.6,463.5 321.5,463.5 328.3,463.5 335.2,463.5 342.1,463.5 349,463.5 
			355.8,463.5 362.7,463.5 362.7,463.5 369.6,463.5 376.4,463.5 383.3,463.5 390.2,463.5 397,463.5 403.9,463.5 410.8,463.5 
			417.6,463.5 424.5,463.5 431.4,463.5 438.2,463.5 445.1,463.5 452,463.5 458.8,463.5 465.7,463.5 472.6,463.5 479.4,463.5 
			486.3,463.5 486.3,463.5 493.2,463.5 500,463.5 506.9,463.5 513.8,463.5 520.7,463.5 527.5,463.5 534.4,463.5 541.3,463.5 
			548.1,463.5 555,463.5 561.9,463.5 568.7,463.5 575.6,463.5 582.5,463.5 582.5,463.5 589.3,463.5 596.2,463.5 603.1,463.5 
			609.9,463.5 616.8,463.5 623.7,463.5 630.5,463.5 637.4,463.5 637.4,0 		"/>
		<line class="st4" x1="26.2" y1="463.5" x2="637.5" y2="463.5"/>
	</g>
	<g class="st0">
		<text transform="matrix(1 0 0 1 0.7852 417.0996)" class="st5 st6 st7">1000</text>
	</g>
	<g class="st0">
		<text transform="matrix(1 0 0 1 0.7852 368.3496)" class="st5 st6 st7">2000</text>
	</g>
	<g class="st0">
		<text transform="matrix(1 0 0 1 0.7852 318.8496)" class="st5 st6 st7">3000</text>
	</g>
	<g class="st0">
		<text transform="matrix(1 0 0 1 0.7852 270.0996)" class="st5 st6 st7">4000</text>
	</g>
	<g class="st0">
		<text transform="matrix(1 0 0 1 0.7852 220.5996)" class="st5 st6 st7">5000</text>
	</g>
	<g class="st0">
		<text transform="matrix(1 0 0 1 0.7852 171.8496)" class="st5 st6 st7">6000</text>
	</g>
	<g class="st0">
		<text transform="matrix(1 0 0 1 0.7852 122.3496)" class="st5 st6 st7">7000</text>
	</g>
	<g class="st0">
		<text transform="matrix(1 0 0 1 0.7852 72.8496)" class="st5 st6 st7">8000</text>
	</g>
	<g class="st0">
		<text transform="matrix(1 0 0 1 0.7852 24.0996)" class="st5 st6 st7">9000</text>
	</g>
</g>
<g>
	<text transform="matrix(1 0 0 1 622.295 479.1155)" class="st8 st6 st7">6/7</text>
</g>
<g>
	<text transform="matrix(1 0 0 1 35.5111 479.1159)" class="st8 st6 st7">3/11</text>
</g>
</svg>
