<?xml version="1.0" encoding="utf-8"?>
<!-- Generator: Adobe Illustrator 23.0.1, SVG Export Plug-In . SVG Version: 6.00 Build 0)  -->
<svg version="1.1" id="Layer_1" xmlns="http://www.w3.org/2000/svg" xmlns:xlink="http://www.w3.org/1999/xlink" x="0px" y="0px"
	 viewBox="0 0 637.5 487.5" style="enable-background:new 0 0 637.5 487.5;" xml:space="preserve">
<style type="text/css">
	.st0{clip-path:url(#SVGID_2_);}
	.st1{clip-path:url(#SVGID_4_);fill:none;stroke:#E8E8E8;stroke-width:0.75;stroke-miterlimit:10;}
	.st2{clip-path:url(#SVGID_4_);fill:#C71E1D;}
	.st3{clip-path:url(#SVGID_4_);fill:#C71E1D;fill-opacity:0.6;stroke:#000000;stroke-width:0.5;stroke-miterlimit:10;}
	.st4{clip-path:url(#SVGID_4_);fill:none;stroke:#333333;stroke-width:0.75;stroke-miterlimit:10;}
	.st5{fill:#A6A6A6;}
	.st6{font-family:'Roboto-Regular';}
	.st7{font-size:9px;}
	.st8{fill:#333333;}
</style>
<g>
	<defs>
		<rect id="SVGID_1_" width="637.5" height="487.5"/>
	</defs>
	<clipPath id="SVGID_2_">
		<use xlink:href="#SVGID_1_"  style="overflow:visible;"/>
	</clipPath>
	<g class="st0">
		<defs>
			<rect id="SVGID_3_" width="637.5" height="483"/>
		</defs>
		<clipPath id="SVGID_4_">
			<use xlink:href="#SVGID_3_"  style="overflow:visible;"/>
		</clipPath>
		<line class="st1" x1="26.2" y1="35.2" x2="637.5" y2="35.2"/>
		<line class="st1" x1="26.2" y1="82.5" x2="637.5" y2="82.5"/>
		<line class="st1" x1="26.2" y1="130.5" x2="637.5" y2="130.5"/>
		<line class="st1" x1="26.2" y1="177.8" x2="637.5" y2="177.8"/>
		<line class="st1" x1="26.2" y1="225.8" x2="637.5" y2="225.8"/>
		<line class="st1" x1="26.2" y1="273" x2="637.5" y2="273"/>
		<line class="st1" x1="26.2" y1="321" x2="637.5" y2="321"/>
		<line class="st1" x1="26.2" y1="368.2" x2="637.5" y2="368.2"/>
		<line class="st1" x1="26.2" y1="416.2" x2="637.5" y2="416.2"/>
		<rect x="26.2" y="463.5" class="st2" width="6.8" height="0.4"/>
		<rect x="33" y="463.5" class="st2" width="6.8" height="0.4"/>
		<polygon class="st3" points="628.9,-0.1 628.9,14.9 622.1,14.9 622.1,30.7 615.3,30.7 615.3,51.7 608.5,51.7 608.5,62.2 
			601.7,62.2 601.7,79.4 594.9,79.4 594.9,91.4 588.1,91.4 588.1,109.4 581.3,109.4 581.3,118.4 574.5,118.4 574.5,129.7 
			567.7,129.7 567.7,140.9 561,140.9 561,152.2 554.2,152.2 554.2,164.9 547.4,164.9 547.4,169.4 540.6,169.4 540.6,176.2 
			533.8,176.2 533.8,181.4 527,181.4 527,188.9 520.2,188.9 520.2,196.4 513.4,196.4 513.4,203.9 506.6,203.9 506.6,225.8 
			500,225.8 500,229.5 493.2,229.5 493.2,233.2 486.4,233.2 486.4,237.1 479.8,237.1 479.8,246.1 473,246.1 473,251.3 466.2,251.3 
			466.2,255.8 459.6,255.8 459.6,261.8 452.8,261.8 452.8,265.5 446,265.5 446,270.8 439.3,270.8 439.3,272.2 432.5,272.2 
			432.5,273.8 425.8,273.8 425.8,284.9 419.1,284.9 419.1,287.9 412.3,287.9 412.3,291.7 405.5,291.7 405.5,295.5 398.9,295.5 
			398.9,298.5 392.1,298.5 392.1,300 385.3,300 385.3,303 378.6,303 378.6,306 371.8,306 371.8,307.5 365.1,307.5 365.1,311.2 
			358.4,311.2 358.4,315 351.6,315 351.6,317.2 344.8,317.2 344.8,320.9 338.2,320.9 338.2,324.7 331.4,324.7 331.4,329.9 
			324.6,329.9 324.6,339.8 317.9,339.8 317.9,349.5 311.1,349.5 311.1,355.5 304.4,355.5 304.4,369.8 297.7,369.8 297.7,378.8 
			290.9,378.8 284.1,378.8 284.1,382.6 277.4,382.6 277.4,386.3 270.6,386.3 270.6,387.8 263.8,387.8 263.8,392.2 257.2,392.2 
			257.2,393 250.4,393 250.4,402.8 243.6,402.8 243.6,405 236.8,405 236.8,406.5 230,406.5 230,408.8 223.2,408.8 223.2,412.5 
			216.4,412.5 216.4,416.2 209.6,416.2 209.6,419.2 202.8,419.2 202.8,423 196,423 196,428.2 189.2,428.2 182.5,428.2 182.5,431.2 
			175.7,431.2 175.7,433.5 168.9,433.5 168.9,436.5 162.1,436.5 162.1,439.5 155.3,439.5 155.3,442.5 148.5,442.5 148.5,444 
			141.7,444 141.7,445.5 134.9,445.5 134.9,447 128.1,447 128.1,448.5 121.3,448.5 121.3,452.2 114.5,452.2 114.5,453.8 
			107.8,453.8 107.8,456 101,456 101,457.5 94.2,457.5 94.2,459 87.4,459 87.4,460.5 80.6,460.5 80.6,462 73.8,462 73.8,462.8 
			67,462.8 60.2,462.8 53.4,462.8 46.6,462.8 39.8,462.8 39.8,463.5 46.6,463.5 53.4,463.5 60.2,463.5 67,463.5 73.8,463.5 
			80.6,463.5 87.4,463.5 94.2,463.5 101,463.5 107.8,463.5 114.5,463.5 121.3,463.5 128.1,463.5 134.9,463.5 141.7,463.5 
			141.7,463.5 148.5,463.5 155.3,463.5 162.1,463.5 162.1,463.5 168.9,463.5 175.7,463.5 182.5,463.5 182.5,463.5 189.2,463.5 
			196,463.5 202.8,463.5 202.8,463.5 209.6,463.5 216.4,463.5 223.2,463.5 223.2,463.5 230,463.5 236.8,463.5 243.6,463.5 
			243.6,463.5 250.4,463.5 257.2,463.5 263.8,463.5 263.8,463.6 270.6,463.6 277.4,463.6 284.2,463.6 284.2,463.5 290.9,463.5 
			297.7,463.5 304.4,463.5 304.5,463.5 311.1,463.5 317.9,463.5 324.7,463.5 324.7,463.4 331.4,463.4 338.2,463.4 344.8,463.4 
			344.8,463.5 351.6,463.5 358.4,463.5 365.1,463.5 365.2,463.5 371.8,463.5 378.6,463.5 385.3,463.5 385.4,463.5 392.1,463.5 
			398.9,463.5 405.7,463.5 405.7,463.4 412.3,463.4 419.1,463.4 425.8,463.4 425.8,463.5 432.5,463.5 439.3,463.5 446,463.5 
			446.1,463.5 452.8,463.5 459.6,463.5 466.2,463.5 466.2,463.6 473,463.6 479.8,463.6 486.6,463.6 486.6,463.5 493.2,463.5 
			500,463.5 506.8,463.5 506.8,463.4 513.4,463.4 520.2,463.4 527,463.4 527,463.4 533.8,463.4 540.6,463.4 547.4,463.4 
			547.4,463.4 554.2,463.4 561,463.4 567.7,463.4 567.7,463.4 574.5,463.4 581.3,463.4 588.1,463.4 588.1,463.4 594.9,463.4 
			601.7,463.4 608.5,463.4 608.5,463.4 615.3,463.4 622.1,463.4 628.9,463.4 628.9,463.4 635.7,463.4 635.7,-0.1 		"/>
		<line class="st4" x1="26.2" y1="463.5" x2="637.5" y2="463.5"/>
	</g>
	<g class="st0">
		<text transform="matrix(1 0 0 1 0.7852 419.3496)" class="st5 st6 st7">1000</text>
	</g>
	<g class="st0">
		<text transform="matrix(1 0 0 1 0.7852 371.3496)" class="st5 st6 st7">2000</text>
	</g>
	<g class="st0">
		<text transform="matrix(1 0 0 1 0.7852 324.0996)" class="st5 st6 st7">3000</text>
	</g>
	<g class="st0">
		<text transform="matrix(1 0 0 1 0.7852 276.0996)" class="st5 st6 st7">4000</text>
	</g>
	<g class="st0">
		<text transform="matrix(1 0 0 1 0.7852 228.8496)" class="st5 st6 st7">5000</text>
	</g>
	<g class="st0">
		<text transform="matrix(1 0 0 1 0.7852 180.8496)" class="st5 st6 st7">6000</text>
	</g>
	<g class="st0">
		<text transform="matrix(1 0 0 1 0.7852 133.5996)" class="st5 st6 st7">7000</text>
	</g>
	<g class="st0">
		<text transform="matrix(1 0 0 1 0.7852 85.5996)" class="st5 st6 st7">8000</text>
	</g>
	<g class="st0">
		<text transform="matrix(1 0 0 1 0.7852 38.3496)" class="st5 st6 st7">9000</text>
	</g>
</g>
<g>
	<text transform="matrix(1 0 0 1 622.4909 478.8771)" class="st8 st6 st7">6/8</text>
</g>
<g>
	<text transform="matrix(1 0 0 1 32.6904 478.8769)" class="st8 st6 st7">3/11</text>
</g>
</svg>
