<?xml version="1.0" encoding="utf-8"?>
<!-- Generator: Adobe Illustrator 23.0.1, SVG Export Plug-In . SVG Version: 6.00 Build 0)  -->
<svg version="1.1" id="Layer_1" xmlns="http://www.w3.org/2000/svg" xmlns:xlink="http://www.w3.org/1999/xlink" x="0px" y="0px"
	 viewBox="0 0 637.5 487.5" style="enable-background:new 0 0 637.5 487.5;" xml:space="preserve">
<style type="text/css">
	.st0{clip-path:url(#SVGID_2_);}
	.st1{fill:none;stroke:#E8E8E8;stroke-width:0.75;stroke-miterlimit:10;}
	.st2{fill:#C71E1D;}
	.st3{fill:#C71E1D;fill-opacity:0.6;stroke:#000000;stroke-width:0.5;stroke-miterlimit:10;}
	.st4{fill:none;stroke:#333333;stroke-width:0.75;stroke-miterlimit:10;}
	.st5{fill:#A6A6A6;}
	.st6{font-family:'Roboto-Regular';}
	.st7{font-size:9px;}
	.st8{fill:#333333;}
</style>
<g>
	<defs>
		<rect id="SVGID_1_" width="637.5" height="487.5"/>
	</defs>
	<clipPath id="SVGID_2_">
		<use xlink:href="#SVGID_1_"  style="overflow:visible;"/>
	</clipPath>
	<g class="st0">
		<line class="st1" x1="26.2" y1="20.2" x2="637.5" y2="20.2"/>
		<line class="st1" x1="26.2" y1="94.5" x2="637.5" y2="94.5"/>
		<line class="st1" x1="26.2" y1="168" x2="637.5" y2="168"/>
		<line class="st1" x1="26.2" y1="242.2" x2="637.5" y2="242.2"/>
		<line class="st1" x1="26.2" y1="315.8" x2="637.5" y2="315.8"/>
		<line class="st1" x1="26.2" y1="390" x2="637.5" y2="390"/>
		<rect x="26.2" y="463.5" class="st2" width="7.8" height="0.4"/>
		<polygon class="st3" points="628.3,0 628.3,7.5 620.4,7.5 620.4,18 612.6,18 612.6,26.2 604.8,26.2 604.8,36.8 596.9,36.8 
			596.9,48.8 589.1,48.8 589.1,60.8 581.3,60.8 581.3,93.8 573.4,93.8 573.4,99.8 565.6,99.8 565.6,106.5 557.7,106.5 557.7,111.8 
			549.9,111.8 549.9,125.2 542.1,125.2 542.1,134.2 534.2,134.2 534.2,141 526.4,141 526.4,150.8 518.6,150.8 518.6,156 510.7,156 
			510.7,165 502.9,165 502.9,167.2 495.1,167.2 495.1,169.5 487.2,169.5 487.2,186.8 479.4,186.8 479.4,190.5 471.5,190.5 
			471.5,196.5 463.7,196.5 463.7,203.2 456,203.2 456,207 448.3,207 448.3,210 440.5,210 440.5,214.5 432.6,214.5 432.6,219 
			424.8,219 424.8,221.2 417,221.2 417,226.5 409.3,226.5 409.3,232.5 401.6,232.5 401.6,237 393.8,237 393.8,242.2 385.9,242.2 
			385.9,249 378.1,249 378.1,255.8 370.3,255.8 370.3,271.5 362.4,271.5 362.4,286.5 354.6,286.5 354.6,296.2 346.9,296.2 
			346.9,318 339,318 339,332.2 331.2,332.2 323.3,332.2 323.3,338.2 315.5,338.2 315.5,344.2 307.7,344.2 307.7,345.8 299.9,345.8 
			299.9,353.2 292.1,353.2 292.1,354.8 284.2,354.8 284.2,369 276.4,369 276.4,372.8 268.6,372.8 268.6,375 260.7,375 260.7,378.8 
			253,378.8 253,384 245.2,384 245.2,390 237.3,390 237.3,395.2 229.5,395.2 229.5,400.5 221.6,400.5 221.6,408.8 213.8,408.8 
			206,408.8 206,413.2 198.2,413.2 198.2,417.8 190.4,417.8 190.4,421.5 182.5,421.5 182.5,426 174.7,426 174.7,430.5 166.9,430.5 
			166.9,433.5 159,433.5 159,435 151.2,435 151.2,438 143.4,438 143.4,441 135.5,441 135.5,446.2 127.7,446.2 127.7,448.5 
			119.9,448.5 119.9,451.5 112,451.5 112,454.5 104.2,454.5 104.2,456 96.4,456 96.4,459 88.7,459 88.7,461.2 80.8,461.2 80.8,462 
			73,462 65.2,462 57.3,462 57.3,462.8 49.7,462.8 49.5,462.8 41.9,462.8 41.8,462.8 34.1,462.8 34.1,463.5 41.8,463.5 41.9,463.5 
			49.5,463.5 49.7,463.5 57.3,463.5 65.2,463.5 73,463.5 80.8,463.5 88.7,463.5 96.4,463.5 96.5,463.5 104.2,463.5 104.3,463.5 
			112,463.5 119.9,463.5 127.7,463.5 135.5,463.5 143.4,463.5 151.2,463.5 159,463.5 159,463.5 166.9,463.5 174.7,463.5 
			182.5,463.5 190.4,463.5 198.2,463.5 206,463.5 206,463.5 213.8,463.5 221.6,463.5 229.5,463.5 237.3,463.5 245.2,463.5 
			253,463.5 260.7,463.5 260.8,463.5 268.6,463.5 276.4,463.5 284.2,463.5 292.1,463.5 299.9,463.5 307.7,463.5 307.7,463.5 
			315.5,463.5 315.6,463.5 323.3,463.5 331.2,463.5 339,463.5 346.9,463.5 354.6,463.5 354.7,463.5 362.4,463.5 362.5,463.5 
			370.3,463.5 378.1,463.5 385.9,463.5 393.8,463.5 401.6,463.5 409.3,463.5 409.4,463.5 417,463.5 417.1,463.5 424.8,463.5 
			432.6,463.5 440.5,463.5 448.3,463.5 456,463.5 456.2,463.5 463.7,463.5 463.8,463.5 471.5,463.5 479.4,463.5 487.2,463.5 
			495.1,463.5 502.9,463.5 510.7,463.5 518.6,463.5 526.4,463.5 534.2,463.5 542.1,463.5 549.9,463.5 557.7,463.5 565.6,463.5 
			565.6,463.5 573.4,463.5 581.3,463.5 589.1,463.5 596.9,463.5 604.8,463.5 612.6,463.5 612.6,463.5 620.4,463.5 628.3,463.5 
			636.1,463.5 636.1,0 		"/>
		<line class="st4" x1="26.2" y1="463.5" x2="637.5" y2="463.5"/>
	</g>
	<g class="st0">
		<text transform="matrix(1 0 0 1 3.515625e-02 392.3496)" class="st5 st6 st7">1000</text>
	</g>
	<g class="st0">
		<text transform="matrix(1 0 0 1 3.515625e-02 318.0996)" class="st5 st6 st7">2000</text>
	</g>
	<g class="st0">
		<text transform="matrix(1 0 0 1 3.515625e-02 244.5996)" class="st5 st6 st7">3000</text>
	</g>
	<g class="st0">
		<text transform="matrix(1 0 0 1 3.515625e-02 170.3496)" class="st5 st6 st7">4000</text>
	</g>
	<g class="st0">
		<text transform="matrix(1 0 0 1 3.515625e-02 96.8496)" class="st5 st6 st7">5000</text>
	</g>
	<g class="st0">
		<text transform="matrix(1 0 0 1 3.515625e-02 22.5996)" class="st5 st6 st7">6000</text>
	</g>
</g>
<g>
	<text transform="matrix(1 0 0 1 617.6415 477.0929)" class="st8 st6 st7">5/27</text>
</g>
<g>
	<text transform="matrix(1 0 0 1 28.1428 477.0927)" class="st8 st6 st7">3/11</text>
</g>
</svg>
