<?xml version="1.0" encoding="utf-8"?>
<!-- Generator: Adobe Illustrator 23.0.1, SVG Export Plug-In . SVG Version: 6.00 Build 0)  -->
<svg version="1.1" id="Layer_1" xmlns="http://www.w3.org/2000/svg" xmlns:xlink="http://www.w3.org/1999/xlink" x="0px" y="0px"
	 viewBox="0 0 637.5 487.5" style="enable-background:new 0 0 637.5 487.5;" xml:space="preserve">
<style type="text/css">
	.st0{clip-path:url(#SVGID_2_);}
	.st1{clip-path:url(#SVGID_4_);fill:none;stroke:#E8E8E8;stroke-width:0.75;stroke-miterlimit:10;}
	.st2{clip-path:url(#SVGID_4_);fill:#C71E1D;}
	.st3{clip-path:url(#SVGID_4_);fill:#C71E1D;fill-opacity:0.6;stroke:#000000;stroke-width:0.5;stroke-miterlimit:10;}
	.st4{clip-path:url(#SVGID_4_);fill:none;stroke:#333333;stroke-width:0.75;stroke-miterlimit:10;}
	.st5{fill:#A6A6A6;}
	.st6{font-family:'Roboto-Regular';}
	.st7{font-size:9px;}
	.st8{fill:#333333;}
</style>
<g>
	<defs>
		<rect id="SVGID_1_" width="637.5" height="487.5"/>
	</defs>
	<clipPath id="SVGID_2_">
		<use xlink:href="#SVGID_1_"  style="overflow:visible;"/>
	</clipPath>
	<g class="st0">
		<defs>
			<rect id="SVGID_3_" width="637.5" height="483"/>
		</defs>
		<clipPath id="SVGID_4_">
			<use xlink:href="#SVGID_3_"  style="overflow:visible;"/>
		</clipPath>
		<line class="st1" x1="26.2" y1="53.2" x2="637.5" y2="53.2"/>
		<line class="st1" x1="26.2" y1="121.5" x2="637.5" y2="121.5"/>
		<line class="st1" x1="26.2" y1="189.8" x2="637.5" y2="189.8"/>
		<line class="st1" x1="26.2" y1="258" x2="637.5" y2="258"/>
		<line class="st1" x1="26.2" y1="327" x2="637.5" y2="327"/>
		<line class="st1" x1="26.2" y1="395.2" x2="637.5" y2="395.2"/>
		<rect x="26.2" y="463.5" class="st2" width="7.6" height="0.4"/>
		<polygon class="st3" points="629.9,0 629.9,16.5 622.2,16.5 622.2,34.5 614.6,34.5 614.6,40.5 606.9,40.5 606.9,51 599.3,51 
			599.3,58.5 591.7,58.5 591.7,68.2 584,68.2 584,79.5 576.4,79.5 576.4,90 568.7,90 568.7,121.5 561.1,121.5 561.1,126.8 
			553.5,126.8 553.5,132.8 545.8,132.8 545.8,138 538.2,138 538.2,150.8 530.5,150.8 530.5,158.2 522.9,158.2 522.9,165 515.2,165 
			515.2,174 507.6,174 507.6,178.5 500,178.5 500,186.8 492.3,186.8 492.3,189 484.7,189 484.7,191.2 477,191.2 477,207 469.4,207 
			469.4,210.8 461.8,210.8 461.8,216.8 454.1,216.8 454.1,222.8 446.5,222.8 446.5,226.5 438.8,226.5 438.8,228.8 431.2,228.8 
			431.2,233.2 423.6,233.2 423.6,237 415.9,237 415.9,239.2 408.3,239.2 408.3,244.5 400.6,244.5 400.6,249.8 393,249.8 393,253.5 
			385.4,253.5 385.4,258 377.7,258 377.7,264.8 370.1,264.8 370.1,271.5 362.4,271.5 362.4,285.8 354.8,285.8 354.8,300 347.2,300 
			347.2,309 339.5,309 339.5,328.5 331.9,328.5 331.9,342 324.2,342 316.6,342 316.6,347.2 309,347.2 309,352.5 301.3,352.5 
			301.3,354 293.7,354 293.7,360.8 286,360.8 286,362.2 278.4,362.2 278.4,375.8 270.8,375.8 270.8,379.5 263.1,379.5 263.1,381 
			255.5,381 255.5,384.8 247.8,384.8 247.8,390 240.2,390 240.2,395.2 232.5,395.2 232.5,399.8 224.9,399.8 224.9,405 217.3,405 
			217.3,412.5 209.6,412.5 209.6,413.2 202,413.2 202,417 194.3,417 194.3,420.8 186.7,420.8 186.7,425.2 179.1,425.2 179.1,429 
			171.4,429 171.4,432.8 163.8,432.8 163.8,435.8 156.1,435.8 156.1,437.2 148.5,437.2 148.5,439.5 140.9,439.5 140.9,442.5 
			133.2,442.5 133.2,447.8 125.6,447.8 125.6,450 117.9,450 117.9,452.2 110.3,452.2 110.3,455.2 102.7,455.2 102.7,456.8 95,456.8 
			95,459 87.4,459 87.4,461.2 79.7,461.2 79.7,462 72.1,462 64.5,462 64.5,462.8 56.8,462.8 49.2,462.8 41.5,462.8 33.9,462.8 
			33.9,463.5 41.5,463.5 49.2,463.5 56.8,463.5 64.5,463.5 72.1,463.5 79.7,463.5 87.4,463.5 95,463.5 102.7,463.5 110.3,463.5 
			117.9,463.5 125.6,463.5 133.2,463.5 140.9,463.5 148.5,463.5 156.1,463.5 163.8,463.5 171.4,463.5 179.1,463.5 186.7,463.5 
			194.3,463.5 202,463.5 209.6,463.5 217.3,463.5 224.9,463.5 232.5,463.5 240.2,463.5 247.8,463.5 255.5,463.5 263.1,463.5 
			270.8,463.5 278.4,463.5 286,463.5 293.7,463.5 301.3,463.5 309,463.5 316.6,463.5 324.2,463.5 331.9,463.5 339.5,463.5 
			347.2,463.5 354.8,463.5 362.4,463.5 370.1,463.5 377.7,463.5 385.4,463.5 393,463.5 400.6,463.5 408.3,463.5 415.9,463.5 
			423.6,463.5 431.2,463.5 438.8,463.5 446.5,463.5 454.1,463.5 461.8,463.5 469.4,463.5 477,463.5 484.7,463.5 492.3,463.5 
			500,463.5 507.6,463.5 515.2,463.5 522.9,463.5 530.5,463.5 538.2,463.5 545.8,463.5 553.5,463.5 561.1,463.5 568.7,463.5 
			576.4,463.5 584,463.5 591.7,463.5 599.3,463.5 606.9,463.5 614.6,463.5 622.2,463.5 629.9,463.5 637.5,463.5 637.5,0 		"/>
		<line class="st4" x1="26.2" y1="463.5" x2="637.5" y2="463.5"/>
	</g>
	<g class="st0">
		<text transform="matrix(1 0 0 1 3.515625e-02 397.5996)" class="st5 st6 st7">1000</text>
	</g>
	<g class="st0">
		<text transform="matrix(1 0 0 1 3.515625e-02 329.3496)" class="st5 st6 st7">2000</text>
	</g>
	<g class="st0">
		<text transform="matrix(1 0 0 1 3.515625e-02 260.3496)" class="st5 st6 st7">3000</text>
	</g>
	<g class="st0">
		<text transform="matrix(1 0 0 1 3.515625e-02 192.0996)" class="st5 st6 st7">4000</text>
	</g>
	<g class="st0">
		<text transform="matrix(1 0 0 1 3.515625e-02 123.8496)" class="st5 st6 st7">5000</text>
	</g>
	<g class="st0">
		<text transform="matrix(1 0 0 1 3.515625e-02 55.5996)" class="st5 st6 st7">6000</text>
	</g>
</g>
<g>
	<text transform="matrix(1 0 0 1 616.8771 477.1661)" class="st8 st6 st7">5/29</text>
</g>
<g>
	<text transform="matrix(1 0 0 1 28.0268 477.1659)" class="st8 st6 st7">3/11</text>
</g>
</svg>
