<?xml version="1.0" encoding="utf-8"?>
<!-- Generator: Adobe Illustrator 23.0.1, SVG Export Plug-In . SVG Version: 6.00 Build 0)  -->
<svg version="1.1" id="Layer_1" xmlns="http://www.w3.org/2000/svg" xmlns:xlink="http://www.w3.org/1999/xlink" x="0px" y="0px"
	 viewBox="0 0 637.5 487.5" style="enable-background:new 0 0 637.5 487.5;" xml:space="preserve">
<style type="text/css">
	.st0{clip-path:url(#SVGID_2_);enable-background:new    ;}
	.st1{clip-path:url(#SVGID_4_);fill:none;stroke:#E8E8E8;stroke-width:0.75;stroke-miterlimit:10;}
	.st2{clip-path:url(#SVGID_4_);fill:#C71E1D;}
	.st3{clip-path:url(#SVGID_4_);fill:#C71E1D;fill-opacity:0.6;stroke:#000000;stroke-width:0.5;stroke-miterlimit:10;}
	.st4{clip-path:url(#SVGID_4_);fill:none;stroke:#333333;stroke-width:0.75;stroke-miterlimit:10;}
	.st5{clip-path:url(#SVGID_4_);}
	.st6{fill:#A6A6A6;}
	.st7{font-family:'Roboto-Regular';}
	.st8{font-size:9px;}
	.st9{fill:#333333;}
</style>
<g>
	<defs>
		<rect id="SVGID_1_" width="637.5" height="487.5"/>
	</defs>
	<clipPath id="SVGID_2_">
		<use xlink:href="#SVGID_1_"  style="overflow:visible;"/>
	</clipPath>
	<g class="st0">
		<g>
			<defs>
				<rect id="SVGID_3_" width="637.5" height="487.5"/>
			</defs>
			<clipPath id="SVGID_4_">
				<use xlink:href="#SVGID_3_"  style="overflow:visible;"/>
			</clipPath>
			<line class="st1" x1="26.2" y1="24" x2="637.5" y2="24"/>
			<line class="st1" x1="26.2" y1="87" x2="637.5" y2="87"/>
			<line class="st1" x1="26.2" y1="150" x2="637.5" y2="150"/>
			<line class="st1" x1="26.2" y1="212.2" x2="637.5" y2="212.2"/>
			<line class="st1" x1="26.2" y1="275.2" x2="637.5" y2="275.2"/>
			<line class="st1" x1="26.2" y1="338.2" x2="637.5" y2="338.2"/>
			<line class="st1" x1="26.2" y1="400.5" x2="637.5" y2="400.5"/>
			<rect x="26.2" y="463.5" class="st2" width="10.5" height="0.4"/>
			<polygon class="st3" points="626.7,0 626.7,10.5 616.2,10.5 616.2,21 605.7,21 605.7,28.5 595.2,28.5 595.2,33 584.7,33 
				584.7,40.5 574.2,40.5 574.2,48 563.7,48 563.7,51.8 553.2,51.8 553.2,60.8 542.6,60.8 542.6,71.3 532.1,71.3 532.1,78.8 
				521.6,78.8 521.6,87 511.1,87 511.1,98.3 500.5,98.3 500.5,111 490,111 490,137.3 479.4,137.3 479.4,163.5 468.9,163.5 
				468.9,180 458.4,180 458.4,216 447.8,216 447.8,240 437.4,240 437.4,240.8 426.8,240.8 426.8,250.5 416.3,250.5 416.3,260.2 
				405.7,260.2 405.7,262.5 395.2,262.5 395.2,275.2 384.7,275.2 384.7,278.2 374.1,278.2 374.1,303 363.6,303 363.6,309.8 
				353.1,309.8 353.1,312.8 342.6,312.8 342.6,319.5 332,319.5 332,328.5 321.5,328.5 321.5,338.2 311,338.2 311,347.2 300.4,347.2 
				300.4,356.2 289.9,356.2 289.9,370.5 279.4,370.5 279.4,371.2 268.8,371.2 268.8,378 258.3,378 258.3,385.5 247.8,385.5 
				247.8,393 237.2,393 237.2,399.7 226.7,399.7 226.7,407.2 216.2,407.2 216.2,412.5 205.7,412.5 205.7,414.8 195.2,414.8 
				195.2,420 184.6,420 184.6,424.5 174.1,424.5 174.1,434.2 163.6,434.2 163.6,438 153,438 153,442.5 142.5,442.5 142.5,448.5 
				132.1,448.5 132.1,450.8 121.5,450.8 121.5,456 111,456 111,459 100.4,459 100.4,460.5 90,460.5 89.9,460.5 79.4,460.5 
				79.4,461.2 68.9,461.2 68.9,462 58.4,462 58.3,462 47.9,462 47.9,462.8 37.3,462.8 37.3,463.5 47.9,463.5 58.3,463.5 58.4,463.5 
				68.9,463.5 79.4,463.5 89.9,463.5 90,463.5 100.4,463.5 111,463.5 121.5,463.5 132.1,463.5 142.5,463.5 142.6,463.5 153,463.5 
				163.6,463.5 174.1,463.5 184.6,463.5 195.2,463.5 205.7,463.5 216.3,463.5 216.3,463.4 226.7,463.4 237.2,463.4 237.2,463.5 
				247.8,463.5 258.3,463.5 268.8,463.5 279.4,463.5 279.4,463.5 289.9,463.5 300.4,463.5 311,463.5 321.5,463.5 321.5,463.5 
				332,463.5 342.6,463.5 353.1,463.5 353.1,463.5 363.6,463.5 374.1,463.5 384.7,463.5 395.2,463.5 395.2,463.5 405.7,463.5 
				405.7,463.5 416.3,463.5 426.8,463.5 426.8,463.5 437.4,463.5 447.8,463.5 447.8,463.5 458.4,463.5 468.9,463.5 479.4,463.5 
				490,463.5 500.5,463.5 511.1,463.5 521.6,463.5 521.6,463.5 532.1,463.5 542.7,463.5 542.7,463.5 553.2,463.5 563.7,463.5 
				563.7,463.5 574.2,463.5 584.7,463.5 584.7,463.5 595.2,463.5 605.7,463.5 605.8,463.5 616.2,463.5 616.2,463.5 626.8,463.5 
				626.8,463.5 637.3,463.5 637.3,0 			"/>
			<line class="st4" x1="26.2" y1="463.5" x2="637.5" y2="463.5"/>
			<g class="st5">
				<text transform="matrix(1 0 0 1 5.8389 402.8496)" class="st6 st7 st8">500</text>
			</g>
			<g class="st5">
				<text transform="matrix(1 0 0 1 7.031250e-02 340.5996)" class="st6 st7 st8">1000</text>
			</g>
			<g class="st5">
				<text transform="matrix(1 0 0 1 7.031250e-02 277.5996)" class="st6 st7 st8">1500</text>
			</g>
			<g class="st5">
				<text transform="matrix(1 0 0 1 7.031250e-02 214.5996)" class="st6 st7 st8">2000</text>
			</g>
			<g class="st5">
				<text transform="matrix(1 0 0 1 7.031250e-02 152.3496)" class="st6 st7 st8">2500</text>
			</g>
			<g class="st5">
				<text transform="matrix(1 0 0 1 7.031250e-02 89.3496)" class="st6 st7 st8">3000</text>
			</g>
			<g class="st5">
				<text transform="matrix(1 0 0 1 7.031250e-02 26.3496)" class="st6 st7 st8">3500</text>
			</g>
		</g>
	</g>
</g>
<g>
	<text transform="matrix(1 0 0 1 33.315 477.0524)" class="st9 st7 st8">3/11</text>
</g>
<text transform="matrix(1 0 0 1 623.1556 477.0529)" class="st9 st7 st8">5/7</text>
</svg>
