<?xml version="1.0" encoding="utf-8"?>
<!-- Generator: Adobe Illustrator 23.0.1, SVG Export Plug-In . SVG Version: 6.00 Build 0)  -->
<svg version="1.1" id="Layer_1" xmlns="http://www.w3.org/2000/svg" xmlns:xlink="http://www.w3.org/1999/xlink" x="0px" y="0px"
	 viewBox="0 0 637.5 487.5" style="enable-background:new 0 0 637.5 487.5;" xml:space="preserve">
<style type="text/css">
	.st0{clip-path:url(#SVGID_2_);}
	.st1{clip-path:url(#SVGID_4_);fill:none;stroke:#E8E8E8;stroke-width:0.75;stroke-miterlimit:10;}
	.st2{clip-path:url(#SVGID_4_);fill:#C71E1D;}
	.st3{clip-path:url(#SVGID_4_);}
	.st4{fill:#C71E1D;}
	.st5{fill:#C71E1D;fill-opacity:0.6;stroke:#000000;stroke-width:0.5;stroke-miterlimit:10;}
	.st6{clip-path:url(#SVGID_4_);fill:none;stroke:#333333;stroke-width:0.75;stroke-miterlimit:10;}
	.st7{fill:#A6A6A6;}
	.st8{font-family:'Roboto-Regular';}
	.st9{font-size:9px;}
	.st10{fill:#333333;}
</style>
<g>
	<defs>
		<polyline id="SVGID_1_" points="0,487.5 0,0 637.5,0 637.5,487.5 		"/>
	</defs>
	<clipPath id="SVGID_2_">
		<use xlink:href="#SVGID_1_"  style="overflow:visible;"/>
	</clipPath>
	<g class="st0">
		<defs>
			<polyline id="SVGID_3_" points="0,483 0,0 637.5,0 637.5,483 			"/>
		</defs>
		<clipPath id="SVGID_4_">
			<use xlink:href="#SVGID_3_"  style="overflow:visible;"/>
		</clipPath>
		<line class="st1" x1="30.8" y1="64.5" x2="637.5" y2="64.5"/>
		<line class="st1" x1="30.8" y1="130.5" x2="637.5" y2="130.5"/>
		<line class="st1" x1="30.8" y1="197.2" x2="637.5" y2="197.2"/>
		<line class="st1" x1="30.8" y1="264" x2="637.5" y2="264"/>
		<line class="st1" x1="30.8" y1="330.8" x2="637.5" y2="330.8"/>
		<line class="st1" x1="30.8" y1="396.8" x2="637.5" y2="396.8"/>
		<rect x="30.8" y="463.5" class="st2" width="6.1" height="0.4"/>
		<rect x="36.8" y="463.5" class="st2" width="6.1" height="0.4"/>
		<rect x="42.9" y="463.5" class="st2" width="6.1" height="0.4"/>
		<g class="st3">
			<polygon class="st4" points="61.1,462.8 55,462.8 49,462.8 49,463.5 55,463.5 61.1,463.5 67.2,463.5 73.2,463.5 73.2,462.8 
				67.2,462.8 			"/>
			<polygon class="st5" points="631.4,0 631.4,10.5 625.3,10.5 625.3,24.8 619.3,24.8 619.3,33.8 613.2,33.8 613.2,47.2 607.1,47.2 
				607.1,60.8 601.1,60.8 601.1,79.5 595,79.5 595,103.5 588.9,103.5 588.9,118.5 582.9,118.5 582.9,128.2 576.8,128.2 576.8,139.5 
				570.7,139.5 570.7,150 564.7,150 564.7,160.5 558.6,160.5 558.6,175.5 552.5,175.5 552.5,183 546.5,183 546.5,195 540.4,195 
				540.4,203.2 534.3,203.2 534.3,216 528.3,216 528.3,222 522.2,222 522.2,230.2 516.1,230.2 516.1,237.8 510.1,237.8 510.1,246 
				504,246 504,254.2 497.9,254.2 497.9,258 491.9,258 491.9,262.5 485.8,262.5 485.8,266.2 479.7,266.2 479.7,271.5 473.7,271.5 
				473.7,276.8 467.6,276.8 467.6,282 461.5,282 461.5,297 455.5,297 455.5,300 449.4,300 449.4,303 443.3,303 443.3,305.2 
				437.3,305.2 437.3,311.2 431.2,311.2 431.2,315 425.1,315 425.1,318 419.1,318 419.1,322.5 413,322.5 413,324.8 406.9,324.8 
				406.9,329.2 400.9,329.2 400.9,330 394.8,330 394.8,330.8 388.7,330.8 388.7,339 382.7,339 382.7,340.5 376.6,340.5 376.6,343.5 
				370.5,343.5 370.5,346.5 364.5,346.5 364.5,348 358.4,348 358.4,349.5 352.3,349.5 352.3,351 346.3,351 346.3,353.2 340.2,353.2 
				340.2,354 334.1,354 334.1,357 328.1,357 328.1,359.2 322,359.2 322,361.5 315.9,361.5 315.9,363.8 309.9,363.8 309.9,366.8 
				303.8,366.8 303.8,369.8 297.7,369.8 297.7,377.2 291.7,377.2 291.7,384 285.6,384 285.6,388.5 279.5,388.5 279.5,398.2 
				273.5,398.2 273.5,404.2 267.4,404.2 261.3,404.2 261.3,407.2 255.2,407.2 255.2,409.5 249.2,409.5 249.2,410.2 243.1,410.2 
				243.1,414 237,414 237,414.8 231,414.8 231,420.8 224.9,420.8 224.9,423 218.8,423 218.8,423.8 212.8,423.8 212.8,425.2 
				206.7,425.2 206.7,427.5 200.6,427.5 200.6,430.5 194.6,430.5 194.6,432.8 188.5,432.8 188.5,435 182.4,435 182.4,438.8 
				176.4,438.8 170.3,438.8 170.3,441 164.2,441 164.2,442.5 158.2,442.5 158.2,444.8 152.1,444.8 152.1,446.2 146,446.2 146,448.5 
				140,448.5 140,450 133.9,450 133.9,450.8 127.8,450.8 127.8,452.2 121.8,452.2 121.8,453 115.7,453 115.7,456 109.6,456 
				109.6,456.8 103.6,456.8 103.6,458.2 97.5,458.2 97.5,459.8 91.4,459.8 91.4,460.5 85.4,460.5 85.4,461.2 79.3,461.2 79.3,462.8 
				73.2,462.8 73.2,463.5 79.3,463.5 85.4,463.5 91.4,463.5 97.5,463.5 103.6,463.5 109.6,463.5 115.7,463.5 121.8,463.5 
				127.8,463.5 133.9,463.5 140,463.5 146,463.5 152.1,463.5 158.2,463.5 158.2,463.5 164.2,463.5 170.3,463.5 176.4,463.5 
				182.4,463.5 188.5,463.5 194.6,463.5 200.6,463.5 206.7,463.5 212.8,463.5 218.8,463.5 224.9,463.5 231,463.5 231,463.5 
				237,463.5 243.1,463.5 249.2,463.5 255.2,463.5 261.3,463.5 267.4,463.5 273.5,463.5 279.5,463.5 285.6,463.5 291.7,463.5 
				297.7,463.5 303.8,463.5 309.9,463.5 315.9,463.5 315.9,463.5 322,463.5 328.1,463.5 334.1,463.5 340.2,463.5 346.3,463.5 
				352.3,463.5 358.4,463.5 364.5,463.5 370.5,463.5 376.6,463.5 382.7,463.5 388.7,463.5 394.8,463.5 394.8,463.5 400.9,463.5 
				406.9,463.5 413,463.5 419.1,463.5 425.1,463.5 431.2,463.5 437.3,463.5 443.3,463.5 449.4,463.5 455.5,463.5 461.5,463.5 
				467.6,463.5 467.6,463.5 473.7,463.5 479.7,463.5 485.8,463.5 491.9,463.5 497.9,463.5 504,463.5 510.1,463.5 516.1,463.5 
				516.1,463.5 522.2,463.5 528.3,463.5 528.3,463.5 534.3,463.5 540.4,463.5 546.5,463.5 552.5,463.5 558.6,463.5 564.7,463.5 
				570.7,463.5 576.8,463.5 582.9,463.5 588.9,463.5 595,463.5 601.1,463.5 601.1,463.5 607.1,463.5 613.2,463.5 619.3,463.5 
				625.3,463.5 631.4,463.5 637.5,463.5 637.5,0 			"/>
		</g>
		<line class="st6" x1="30.8" y1="463.5" x2="637.5" y2="463.5"/>
	</g>
	<g class="st0">
		<text transform="matrix(1 0 0 1 5.2852 399.8496)" class="st7 st8 st9">2000</text>
	</g>
	<g class="st0">
		<text transform="matrix(1 0 0 1 5.2852 333.8496)" class="st7 st8 st9">4000</text>
	</g>
	<g class="st0">
		<text transform="matrix(1 0 0 1 5.2852 267.0996)" class="st7 st8 st9">6000</text>
	</g>
	<g class="st0">
		<text transform="matrix(1 0 0 1 5.2852 200.3496)" class="st7 st8 st9">8000</text>
	</g>
	<g class="st0">
		<text transform="matrix(1 0 0 1 0.9814 133.5996)" class="st7 st8 st9">10000</text>
	</g>
	<g class="st0">
		<text transform="matrix(1 0 0 1 0.9814 67.5996)" class="st7 st8 st9">12000</text>
	</g>
</g>
<g>
	<text transform="matrix(1 0 0 1 618.1354 476.9983)" class="st10 st8 st9">6/18</text>
</g>
<g>
	<text transform="matrix(1 0 0 1 44.8307 476.9979)" class="st10 st8 st9">3/11</text>
</g>
</svg>
