<?xml version="1.0" encoding="utf-8"?>
<!-- Generator: Adobe Illustrator 23.0.1, SVG Export Plug-In . SVG Version: 6.00 Build 0)  -->
<svg version="1.1" id="Layer_1" xmlns="http://www.w3.org/2000/svg" xmlns:xlink="http://www.w3.org/1999/xlink" x="0px" y="0px"
	 viewBox="0 0 637.5 487.5" style="enable-background:new 0 0 637.5 487.5;" xml:space="preserve">
<style type="text/css">
	.st0{clip-path:url(#SVGID_2_);}
	.st1{clip-path:url(#SVGID_4_);fill:none;stroke:#E8E8E8;stroke-width:0.75;stroke-miterlimit:10;}
	.st2{clip-path:url(#SVGID_4_);fill:#C71E1D;}
	.st3{clip-path:url(#SVGID_4_);fill:#C71E1D;fill-opacity:0.6;stroke:#000000;stroke-width:0.5;stroke-miterlimit:10;}
	.st4{clip-path:url(#SVGID_4_);fill:none;stroke:#333333;stroke-width:0.75;stroke-miterlimit:10;}
	.st5{fill:#A6A6A6;}
	.st6{font-family:'Roboto-Regular';}
	.st7{font-size:9px;}
	.st8{fill:#333333;}
</style>
<g>
	<defs>
		<rect id="SVGID_1_" width="637.5" height="487.5"/>
	</defs>
	<clipPath id="SVGID_2_">
		<use xlink:href="#SVGID_1_"  style="overflow:visible;"/>
	</clipPath>
	<g class="st0">
		<defs>
			<rect id="SVGID_3_" width="637.5" height="483"/>
		</defs>
		<clipPath id="SVGID_4_">
			<use xlink:href="#SVGID_3_"  style="overflow:visible;"/>
		</clipPath>
		<line class="st1" x1="26.2" y1="9" x2="637.5" y2="9"/>
		<line class="st1" x1="26.2" y1="50.2" x2="637.5" y2="50.2"/>
		<line class="st1" x1="26.2" y1="91.5" x2="637.5" y2="91.5"/>
		<line class="st1" x1="26.2" y1="133.5" x2="637.5" y2="133.5"/>
		<line class="st1" x1="26.2" y1="174.8" x2="637.5" y2="174.8"/>
		<line class="st1" x1="26.2" y1="216" x2="637.5" y2="216"/>
		<line class="st1" x1="26.2" y1="257.2" x2="637.5" y2="257.2"/>
		<line class="st1" x1="26.2" y1="298.5" x2="637.5" y2="298.5"/>
		<line class="st1" x1="26.2" y1="339.8" x2="637.5" y2="339.8"/>
		<line class="st1" x1="26.2" y1="381" x2="637.5" y2="381"/>
		<line class="st1" x1="26.2" y1="422.2" x2="637.5" y2="422.2"/>
		<rect x="26.2" y="463.5" class="st2" width="8.4" height="0.4"/>
		<polygon class="st3" points="629.1,0 629.1,12.8 620.8,12.8 620.8,50.2 612.4,50.2 612.4,57 604,57 604,64.5 595.6,64.5 
			595.6,70.5 587.3,70.5 587.3,85.5 578.9,85.5 578.9,95.2 570.5,95.2 570.5,102.8 562.1,102.8 562.1,114 553.8,114 553.8,119.2 
			545.4,119.2 545.4,129.8 537,129.8 537,132 528.6,132 528.6,134.2 520.3,134.2 520.3,153.8 511.9,153.8 511.9,158.2 503.5,158.2 
			503.5,165 495.2,165 495.2,172.5 486.8,172.5 486.8,177 478.4,177 478.4,180 470,180 470,185.2 461.7,185.2 461.7,189.8 
			453.3,189.8 453.3,192.8 444.9,192.8 444.9,198.8 436.5,198.8 436.5,205.5 428.2,205.5 428.2,210 419.8,210 419.8,216 411.4,216 
			411.4,223.5 403,223.5 403,231.8 394.7,231.8 394.7,249 386.3,249 386.3,266.2 377.9,266.2 377.9,276.8 369.6,276.8 369.6,300.8 
			361.2,300.8 361.2,316.5 352.8,316.5 344.4,316.5 344.4,323.2 336.1,323.2 336.1,330 327.7,330 327.7,331.5 319.3,331.5 
			319.3,339.8 310.9,339.8 310.9,342 302.6,342 302.6,357.8 294.2,357.8 294.2,362.2 285.8,362.2 285.8,364.5 277.4,364.5 
			277.4,369 269.1,369 269.1,374.2 260.7,374.2 260.7,381 252.3,381 252.3,387 244,387 244,393 235.6,393 235.6,402 227.2,402 
			227.2,402.8 218.8,402.8 218.8,407.2 210.5,407.2 210.5,411.8 202.1,411.8 202.1,417 193.7,417 193.7,421.5 185.3,421.5 
			185.3,426.8 177,426.8 177,429.8 168.6,429.8 168.6,431.2 160.2,431.2 160.2,435 151.8,435 151.8,438 143.5,438 143.5,444 
			135.1,444 135.1,447 126.7,447 126.7,450 118.4,450 118.4,453.8 110,453.8 110,455.2 101.6,455.2 101.6,458.2 93.2,458.2 
			93.2,460.5 84.9,460.5 84.9,462 76.5,462 68.1,462 59.7,462 59.7,462.8 51.4,462.8 43,462.8 34.6,462.8 34.6,463.5 43,463.5 
			51.4,463.5 59.7,463.5 68.1,463.5 76.5,463.5 84.9,463.5 93.2,463.5 101.6,463.5 110,463.5 118.4,463.5 118.4,463.5 126.7,463.5 
			126.7,463.5 135.1,463.5 135.1,463.5 143.5,463.5 143.5,463.5 151.8,463.5 151.8,463.5 160.2,463.5 160.2,463.5 168.6,463.5 
			168.6,463.5 177,463.5 185.3,463.5 193.7,463.5 202.1,463.5 210.5,463.5 218.8,463.5 227.2,463.5 235.6,463.5 244,463.5 
			252.3,463.5 260.7,463.5 269.1,463.5 277.4,463.5 285.8,463.5 294.2,463.5 294.2,463.5 302.6,463.5 310.9,463.5 319.3,463.5 
			327.7,463.5 336.1,463.5 344.4,463.5 352.8,463.5 361.2,463.5 369.6,463.5 377.9,463.5 386.3,463.5 394.7,463.5 403,463.5 
			411.4,463.5 419.8,463.5 428.2,463.5 436.5,463.5 444.9,463.5 453.3,463.5 453.3,463.5 461.7,463.5 470,463.5 478.4,463.5 
			486.8,463.5 495.2,463.5 503.5,463.5 511.9,463.5 520.3,463.5 528.6,463.5 537,463.5 545.4,463.5 553.8,463.5 562.1,463.5 
			562.1,463.5 570.5,463.5 578.9,463.5 587.3,463.5 595.6,463.5 604,463.5 612.4,463.5 620.8,463.5 629.1,463.5 637.5,463.5 
			637.5,0 		"/>
		<line class="st4" x1="26.2" y1="463.5" x2="637.5" y2="463.5"/>
	</g>
	<g class="st0">
		<text transform="matrix(1 0 0 1 5.2529 424.5996)" class="st5 st6 st7">500</text>
	</g>
	<g class="st0">
		<text transform="matrix(1 0 0 1 3.515625e-02 383.3496)" class="st5 st6 st7">1000</text>
	</g>
	<g class="st0">
		<text transform="matrix(1 0 0 1 3.515625e-02 342.0996)" class="st5 st6 st7">1500</text>
	</g>
	<g class="st0">
		<text transform="matrix(1 0 0 1 3.515625e-02 300.8496)" class="st5 st6 st7">2000</text>
	</g>
	<g class="st0">
		<text transform="matrix(1 0 0 1 3.515625e-02 259.5996)" class="st5 st6 st7">2500</text>
	</g>
	<g class="st0">
		<text transform="matrix(1 0 0 1 3.515625e-02 218.3496)" class="st5 st6 st7">3000</text>
	</g>
	<g class="st0">
		<text transform="matrix(1 0 0 1 3.515625e-02 177.0996)" class="st5 st6 st7">3500</text>
	</g>
	<g class="st0">
		<text transform="matrix(1 0 0 1 3.515625e-02 135.8496)" class="st5 st6 st7">4000</text>
	</g>
	<g class="st0">
		<text transform="matrix(1 0 0 1 3.515625e-02 93.8496)" class="st5 st6 st7">4500</text>
	</g>
	<g class="st0">
		<text transform="matrix(1 0 0 1 3.515625e-02 52.5996)" class="st5 st6 st7">5000</text>
	</g>
	<g class="st0">
		<text transform="matrix(1 0 0 1 3.515625e-02 11.3496)" class="st5 st6 st7">5500</text>
	</g>
</g>
<g>
	<text transform="matrix(1 0 0 1 617.7855 477.6209)" class="st8 st6 st7">5/22</text>
</g>
<g>
	<text transform="matrix(1 0 0 1 31.3513 477.6205)" class="st8 st6 st7">3/11</text>
</g>
</svg>
