<?xml version="1.0" encoding="utf-8"?>
<!-- Generator: Adobe Illustrator 23.0.1, SVG Export Plug-In . SVG Version: 6.00 Build 0)  -->
<svg version="1.1" id="Layer_1" xmlns="http://www.w3.org/2000/svg" xmlns:xlink="http://www.w3.org/1999/xlink" x="0px" y="0px"
	 viewBox="0 0 637.5 487.5" style="enable-background:new 0 0 637.5 487.5;" xml:space="preserve">
<style type="text/css">
	.st0{clip-path:url(#SVGID_2_);}
	.st1{clip-path:url(#SVGID_4_);fill:none;stroke:#E8E8E8;stroke-width:0.75;stroke-miterlimit:10;}
	.st2{clip-path:url(#SVGID_4_);fill:#C71E1D;}
	.st3{clip-path:url(#SVGID_4_);fill:#C71E1D;fill-opacity:0.5;stroke:#000000;stroke-width:0.5;stroke-miterlimit:10;}
	.st4{clip-path:url(#SVGID_4_);fill:none;stroke:#333333;stroke-width:0.75;stroke-miterlimit:10;}
	.st5{fill:#A6A6A6;}
	.st6{font-family:'Roboto-Regular';}
	.st7{font-size:9px;}
	.st8{fill:#333333;}
</style>
<g>
	<defs>
		<rect id="SVGID_1_" width="637.5" height="487.5"/>
	</defs>
	<clipPath id="SVGID_2_">
		<use xlink:href="#SVGID_1_"  style="overflow:visible;"/>
	</clipPath>
	<g class="st0">
		<defs>
			<polyline id="SVGID_3_" points="0,483 0,0 637.5,0 637.5,483 			"/>
		</defs>
		<clipPath id="SVGID_4_">
			<use xlink:href="#SVGID_3_"  style="overflow:visible;"/>
		</clipPath>
		<line class="st1" x1="26.2" y1="27.8" x2="637.5" y2="27.8"/>
		<line class="st1" x1="26.2" y1="90" x2="637.5" y2="90"/>
		<line class="st1" x1="26.2" y1="152.2" x2="637.5" y2="152.2"/>
		<line class="st1" x1="26.2" y1="214.5" x2="637.5" y2="214.5"/>
		<line class="st1" x1="26.2" y1="276.8" x2="637.5" y2="276.8"/>
		<line class="st1" x1="26.2" y1="339" x2="637.5" y2="339"/>
		<line class="st1" x1="26.2" y1="401.2" x2="637.5" y2="401.2"/>
		<rect x="26.2" y="463.5" class="st2" width="7.4" height="0.4"/>
		<rect x="33.6" y="463.5" class="st2" width="7.4" height="0.4"/>
		<polygon class="st3" points="636.8,0 629.5,0 629.5,12.1 622.3,12.1 622.3,27.1 614.9,27.1 614.9,41.3 607.6,41.3 607.6,56.3 
			600.2,56.3 600.2,72.8 592.9,72.8 592.9,78.8 585.6,78.8 585.6,87.8 578.2,87.8 578.2,94.5 570.8,94.5 570.8,103.5 563.7,103.5 
			563.7,114 556.3,114 556.3,123.8 548.9,123.8 548.9,152.2 541.7,152.2 541.7,156.8 534.3,156.8 534.3,162.8 526.9,162.8 
			526.9,167.2 519.6,167.2 519.6,178.5 512.3,178.5 512.3,185.2 504.9,185.2 504.9,191.2 497.6,191.2 497.6,199.5 490.2,199.5 
			490.2,204 482.8,204 482.8,211.5 475.5,211.5 475.5,213.8 468.1,213.8 468.1,215.2 460.8,215.2 460.8,230.2 453.4,230.2 
			453.4,233.2 446,233.2 446,238.5 438.7,238.5 438.7,243.8 431.3,243.8 431.3,247.5 423.9,247.5 423.9,249.8 416.6,249.8 
			416.6,253.5 409.2,253.5 409.2,257.2 401.8,257.2 401.8,259.5 394.5,259.5 394.5,264 387.1,264 387.1,268.5 379.7,268.5 
			379.7,272.2 372.4,272.2 372.4,276.8 365,276.8 365,282 357.7,282 357.7,288.8 350.3,288.8 350.3,301.5 342.9,301.5 342.9,314.2 
			335.6,314.2 335.6,322.5 328.2,322.5 328.2,340.5 320.8,340.5 320.8,352.5 313.5,352.5 306.1,352.5 306.1,357.8 298.7,357.8 
			298.7,362.2 291.4,362.2 291.4,363.8 284,363.8 284,370.5 276.6,370.5 276.6,372 269.3,372 269.3,384 261.9,384 261.9,387 
			254.5,387 254.5,388.5 247.2,388.5 247.2,392.2 239.8,392.2 239.8,396.8 232.5,396.8 232.5,401.2 225.1,401.2 225.1,405.8 
			217.7,405.8 217.7,410.2 210.4,410.2 210.4,417 203,417 203,417.8 195.6,417.8 195.6,420.8 188.3,420.8 188.3,424.5 180.9,424.5 
			180.9,428.2 173.5,428.2 173.5,432 166.2,432 166.2,435.8 158.8,435.8 158.8,438 151.4,438 151.4,439.5 144.1,439.5 144.1,441.8 
			136.7,441.8 136.7,444 129.4,444 129.4,449.2 122,449.2 122,450.8 114.6,450.8 114.6,453 107.3,453 107.3,456 99.9,456 
			99.9,457.5 92.5,457.5 92.5,459.8 85.2,459.8 85.2,461.2 77.8,461.2 77.8,462 70.4,462 63.1,462 63.1,462.8 55.7,462.8 
			48.3,462.8 41,462.8 41,463.5 48.3,463.5 55.7,463.5 63.1,463.5 70.4,463.5 77.8,463.5 85.2,463.5 92.5,463.5 99.9,463.5 
			107.3,463.5 114.6,463.5 122,463.5 129.4,463.5 136.7,463.5 144.1,463.5 151.4,463.5 158.8,463.5 166.2,463.5 173.5,463.5 
			180.9,463.5 188.3,463.5 195.6,463.5 203,463.5 210.4,463.5 217.7,463.5 225.1,463.5 232.5,463.5 239.8,463.5 247.2,463.5 
			254.5,463.5 261.9,463.5 269.3,463.5 269.3,463.5 276.6,463.5 284,463.5 291.4,463.5 298.7,463.5 306.1,463.5 313.5,463.5 
			320.8,463.5 320.8,463.5 328.2,463.5 335.6,463.5 342.9,463.5 350.3,463.5 350.3,463.5 357.7,463.5 365,463.5 372.4,463.5 
			379.7,463.5 387.1,463.5 394.5,463.5 401.8,463.5 401.8,463.5 409.2,463.5 416.6,463.5 423.9,463.5 431.3,463.5 431.3,463.5 
			438.7,463.5 446,463.5 453.4,463.5 453.4,463.5 460.8,463.5 468.1,463.5 475.5,463.5 482.8,463.5 482.8,463.5 490.2,463.5 
			497.6,463.5 504.9,463.5 512.3,463.5 519.6,463.5 519.7,463.5 526.9,463.5 534.3,463.5 541.7,463.5 548.9,463.5 549,463.5 
			556.3,463.5 563.7,463.5 570.8,463.5 571,463.5 578.2,463.5 585.6,463.5 592.9,463.5 600.2,463.5 600.2,463.6 607.6,463.6 
			614.9,463.6 622.3,463.6 629.7,463.6 629.7,463.5 636.8,463.5 		"/>
		<line class="st4" x1="26.2" y1="463.5" x2="637.5" y2="463.5"/>
	</g>
	<g class="st0">
		<text transform="matrix(1 0 0 1 3.515625e-02 403.5996)" class="st5 st6 st7">1000</text>
	</g>
	<g class="st0">
		<text transform="matrix(1 0 0 1 3.515625e-02 341.3496)" class="st5 st6 st7">2000</text>
	</g>
	<g class="st0">
		<text transform="matrix(1 0 0 1 3.515625e-02 279.0996)" class="st5 st6 st7">3000</text>
	</g>
	<g class="st0">
		<text transform="matrix(1 0 0 1 3.515625e-02 216.8496)" class="st5 st6 st7">4000</text>
	</g>
	<g class="st0">
		<text transform="matrix(1 0 0 1 3.515625e-02 154.5996)" class="st5 st6 st7">5000</text>
	</g>
	<g class="st0">
		<text transform="matrix(1 0 0 1 3.515625e-02 92.3496)" class="st5 st6 st7">6000</text>
	</g>
	<g class="st0">
		<text transform="matrix(1 0 0 1 3.515625e-02 30.0996)" class="st5 st6 st7">7000</text>
	</g>
</g>
<g>
	<text transform="matrix(1 0 0 1 624.5422 476.9387)" class="st8 st6 st7">6/1</text>
</g>
<g>
	<text transform="matrix(1 0 0 1 36.7285 476.9387)" class="st8 st6 st7">3/11</text>
</g>
</svg>
