<?xml version="1.0" encoding="utf-8"?>
<!-- Generator: Adobe Illustrator 23.0.1, SVG Export Plug-In . SVG Version: 6.00 Build 0)  -->
<svg version="1.1" id="Layer_1" xmlns="http://www.w3.org/2000/svg" xmlns:xlink="http://www.w3.org/1999/xlink" x="0px" y="0px"
	 viewBox="0 0 637.5 487.5" style="enable-background:new 0 0 637.5 487.5;" xml:space="preserve">
<style type="text/css">
	.st0{clip-path:url(#SVGID_2_);enable-background:new    ;}
	.st1{clip-path:url(#SVGID_4_);fill:none;stroke:#E8E8E8;stroke-width:0.75;stroke-miterlimit:10;}
	.st2{clip-path:url(#SVGID_4_);fill:#C71E1D;}
	.st3{clip-path:url(#SVGID_4_);fill:#C71E1D;fill-opacity:0.6;stroke:#000000;stroke-width:0.5;stroke-miterlimit:10;}
	.st4{clip-path:url(#SVGID_4_);fill:none;stroke:#333333;stroke-width:0.75;stroke-miterlimit:10;}
	.st5{clip-path:url(#SVGID_4_);}
	.st6{fill:#A6A6A6;}
	.st7{font-family:'Roboto-Regular';}
	.st8{font-size:9px;}
	.st9{fill:#333333;}
</style>
<g>
	<defs>
		<rect id="SVGID_1_" width="637.5" height="487.5"/>
	</defs>
	<clipPath id="SVGID_2_">
		<use xlink:href="#SVGID_1_"  style="overflow:visible;"/>
	</clipPath>
	<g class="st0">
		<g>
			<defs>
				<rect id="SVGID_3_" width="637.5" height="487.5"/>
			</defs>
			<clipPath id="SVGID_4_">
				<use xlink:href="#SVGID_3_"  style="overflow:visible;"/>
			</clipPath>
			<line class="st1" x1="26.2" y1="39" x2="637.5" y2="39"/>
			<line class="st1" x1="26.2" y1="92.2" x2="637.5" y2="92.2"/>
			<line class="st1" x1="26.2" y1="144.8" x2="637.5" y2="144.8"/>
			<line class="st1" x1="26.2" y1="198" x2="637.5" y2="198"/>
			<line class="st1" x1="26.2" y1="251.2" x2="637.5" y2="251.2"/>
			<line class="st1" x1="26.2" y1="304.5" x2="637.5" y2="304.5"/>
			<line class="st1" x1="26.2" y1="357" x2="637.5" y2="357"/>
			<line class="st1" x1="26.2" y1="410.2" x2="637.5" y2="410.2"/>
			<rect x="26.2" y="463.5" class="st2" width="9.4" height="0.4"/>
			<polygon class="st3" points="628,0 628,13.5 618.6,13.5 618.6,21.8 609.2,21.8 609.2,34.5 599.9,34.5 599.9,37.5 590.5,37.5 
				590.5,40.5 581.1,40.5 581.1,66 571.7,66 571.7,71.2 562.2,71.2 562.2,80.2 552.8,80.2 552.8,89.2 543.5,89.2 543.5,95.2 
				534.1,95.2 534.1,99 524.7,99 524.7,105.8 515.2,105.8 515.2,111.8 505.8,111.8 505.8,115.5 496.4,115.5 496.4,123 487,123 
				487,131.2 477.6,131.2 477.6,138 468.2,138 468.2,144.8 458.8,144.8 458.8,154.5 449.4,154.5 449.4,165 440,165 440,187.5 
				430.6,187.5 430.6,209.2 421.2,209.2 421.2,223.5 411.8,223.5 411.8,254.2 402.4,254.2 402.4,274.5 393,274.5 393,274.5 
				383.6,274.5 383.6,283.5 374.2,283.5 374.2,291.8 364.8,291.8 364.8,294 355.4,294 355.4,304.5 346,304.5 346,306.8 336.6,306.8 
				336.6,327.8 327.2,327.8 327.2,333 317.8,333 317.8,336 308.4,336 308.4,342 299,342 299,349.5 289.6,349.5 289.6,357.8 
				280.2,357.8 280.2,365.2 270.8,365.2 270.8,372.8 261.3,372.8 261.3,384.8 251.9,384.8 251.9,385.5 242.5,385.5 242.5,390.8 
				233.1,390.8 233.1,397.5 223.7,397.5 223.7,403.5 214.3,403.5 214.3,409.5 204.9,409.5 204.9,415.5 195.5,415.5 195.5,420 
				186.1,420 186.1,422.2 176.7,422.2 176.7,426.8 167.3,426.8 167.3,430.5 157.9,430.5 157.9,438.8 148.5,438.8 148.5,442.5 
				139.1,442.5 139.1,446.2 129.7,446.2 129.7,450.8 120.3,450.8 120.3,453 110.9,453 110.9,456.8 101.5,456.8 101.5,459.8 
				92.1,459.8 92.1,461.2 82.7,461.2 73.3,461.2 73.3,462 63.9,462 63.9,462 54.5,462 54.5,462.8 45.1,462.8 45.1,462.8 35.7,462.8 
				35.7,463.5 45.1,463.5 45.1,463.5 54.5,463.5 63.9,463.5 63.9,463.5 73.3,463.5 73.3,463.5 82.7,463.5 92.1,463.5 92.1,463.5 
				101.5,463.5 101.5,463.5 110.9,463.5 120.3,463.5 120.3,463.5 129.7,463.5 139.1,463.5 139.1,463.5 148.5,463.5 157.9,463.5 
				167.3,463.5 167.3,463.5 176.7,463.5 186.1,463.5 186.1,463.5 195.5,463.5 204.9,463.5 214.3,463.5 214.3,463.5 223.7,463.5 
				233.1,463.5 242.5,463.5 242.5,463.5 251.9,463.5 261.3,463.5 270.8,463.5 270.8,463.5 280.2,463.5 289.6,463.5 299,463.5 
				299,463.5 308.4,463.5 317.8,463.5 317.8,463.5 327.2,463.5 336.6,463.5 346,463.5 346,463.5 355.4,463.5 364.8,463.5 
				364.8,463.5 374.2,463.5 383.6,463.5 393,463.5 393,463.5 402.4,463.5 411.8,463.5 411.8,463.5 421.2,463.5 430.6,463.5 
				440,463.5 440,463.5 449.4,463.5 458.8,463.5 468.2,463.5 468.2,463.5 477.6,463.5 487,463.5 496.4,463.5 496.4,463.5 
				505.8,463.5 515.2,463.5 515.3,463.5 524.7,463.5 524.7,463.5 534.1,463.5 543.5,463.5 543.5,463.5 552.8,463.5 552.9,463.5 
				562.2,463.5 562.2,463.5 571.7,463.5 581.1,463.5 581.1,463.5 590.5,463.5 599.9,463.5 599.9,463.5 609.2,463.5 609.3,463.5 
				618.6,463.5 618.6,463.5 628,463.5 637.4,463.5 637.4,0 			"/>
			<line class="st4" x1="26.2" y1="463.5" x2="637.5" y2="463.5"/>
			<g class="st5">
				<text transform="matrix(1 0 0 1 5.8389 412.5996)" class="st6 st7 st8">500</text>
			</g>
			<g class="st5">
				<text transform="matrix(1 0 0 1 7.031250e-02 359.3496)" class="st6 st7 st8">1000</text>
			</g>
			<g class="st5">
				<text transform="matrix(1 0 0 1 7.031250e-02 306.8496)" class="st6 st7 st8">1500</text>
			</g>
			<g class="st5">
				<text transform="matrix(1 0 0 1 7.031250e-02 253.5996)" class="st6 st7 st8">2000</text>
			</g>
			<g class="st5">
				<text transform="matrix(1 0 0 1 7.031250e-02 200.3496)" class="st6 st7 st8">2500</text>
			</g>
			<g class="st5">
				<text transform="matrix(1 0 0 1 7.031250e-02 147.0996)" class="st6 st7 st8">3000</text>
			</g>
			<g class="st5">
				<text transform="matrix(1 0 0 1 7.031250e-02 94.5996)" class="st6 st7 st8">3500</text>
			</g>
			<g class="st5">
				<text transform="matrix(1 0 0 1 7.031250e-02 41.3496)" class="st6 st7 st8">4000</text>
			</g>
		</g>
	</g>
</g>
<g>
	<text transform="matrix(1 0 0 1 617.9294 477.9848)" class="st9 st7 st8">5/14</text>
</g>
<g>
	<text transform="matrix(1 0 0 1 30.8764 477.9848)" class="st9 st7 st8">3/11</text>
</g>
</svg>
