<?xml version="1.0" encoding="utf-8"?>
<!-- Generator: Adobe Illustrator 23.0.1, SVG Export Plug-In . SVG Version: 6.00 Build 0)  -->
<svg version="1.1" id="Layer_1" xmlns="http://www.w3.org/2000/svg" xmlns:xlink="http://www.w3.org/1999/xlink" x="0px" y="0px"
	 viewBox="0 0 637.5 487.5" style="enable-background:new 0 0 637.5 487.5;" xml:space="preserve">
<style type="text/css">
	.st0{clip-path:url(#SVGID_2_);}
	.st1{clip-path:url(#SVGID_4_);fill:none;stroke:#E8E8E8;stroke-width:0.75;stroke-miterlimit:10;}
	.st2{clip-path:url(#SVGID_4_);fill:#C71E1D;}
	.st3{clip-path:url(#SVGID_4_);fill:#C71E1D;fill-opacity:0.6;stroke:#000000;stroke-width:0.5;stroke-miterlimit:10;}
	.st4{clip-path:url(#SVGID_4_);fill:none;stroke:#333333;stroke-width:0.75;stroke-miterlimit:10;}
	.st5{fill:#A6A6A6;}
	.st6{font-family:'Roboto-Regular';}
	.st7{font-size:9px;}
	.st8{clip-path:url(#SVGID_2_);fill:#333333;}
	.st9{fill:#333333;}
</style>
<g>
	<defs>
		<rect id="SVGID_1_" width="637.5" height="487.5"/>
	</defs>
	<clipPath id="SVGID_2_">
		<use xlink:href="#SVGID_1_"  style="overflow:visible;"/>
	</clipPath>
	<g class="st0">
		<defs>
			<rect id="SVGID_3_" width="637.5" height="483"/>
		</defs>
		<clipPath id="SVGID_4_">
			<use xlink:href="#SVGID_3_"  style="overflow:visible;"/>
		</clipPath>
		<line class="st1" x1="26.2" y1="38.2" x2="637.5" y2="38.2"/>
		<line class="st1" x1="26.2" y1="108.8" x2="637.5" y2="108.8"/>
		<line class="st1" x1="26.2" y1="180" x2="637.5" y2="180"/>
		<line class="st1" x1="26.2" y1="250.5" x2="637.5" y2="250.5"/>
		<line class="st1" x1="26.2" y1="321.8" x2="637.5" y2="321.8"/>
		<line class="st1" x1="26.2" y1="392.2" x2="637.5" y2="392.2"/>
		<rect x="26.2" y="463.5" class="st2" width="7.7" height="0.4"/>
		<polygon class="st3" points="629.8,0 629.8,18.8 622,18.8 622,25.5 614.3,25.5 614.3,36 606.6,36 606.6,43.5 598.8,43.5 598.8,54 
			591.1,54 591.1,66 583.3,66 583.3,76.5 575.6,76.5 575.6,108.8 567.9,108.8 567.9,114.8 560.1,114.8 560.1,120.8 552.4,120.8 
			552.4,126 544.7,126 544.7,138.8 536.9,138.8 536.9,147 529.2,147 529.2,153.8 521.4,153.8 521.4,163.5 513.7,163.5 513.7,168 
			506,168 506,177 498.2,177 498.2,179.2 490.5,179.2 490.5,180.8 482.8,180.8 482.8,198 475,198 475,201.8 467.3,201.8 
			467.3,207.8 459.5,207.8 459.5,213.8 451.8,213.8 451.8,217.5 444.1,217.5 444.1,220.5 436.3,220.5 436.3,224.2 428.6,224.2 
			428.6,228.8 420.9,228.8 420.9,231 413.1,231 413.1,236.2 405.4,236.2 405.4,241.5 397.6,241.5 397.6,246 389.9,246 389.9,250.5 
			382.2,250.5 382.2,257.2 374.4,257.2 374.4,264 366.7,264 366.7,279 359,279 359,294 351.2,294 351.2,303 343.5,303 343.5,324 
			335.7,324 335.7,337.5 328,337.5 320.3,337.5 320.3,343.5 312.5,343.5 312.5,348.8 304.8,348.8 304.8,350.2 297.1,350.2 
			297.1,357 289.3,357 289.3,359.2 281.6,359.2 281.6,372.8 273.8,372.8 273.8,376.5 266.1,376.5 266.1,378 258.4,378 258.4,382.5 
			250.6,382.5 250.6,387 242.9,387 242.9,393 235.2,393 235.2,397.5 227.4,397.5 227.4,402.8 219.7,402.8 219.7,411 211.9,411 
			204.2,411 204.2,414.8 196.5,414.8 196.5,419.2 188.7,419.2 188.7,423.8 181,423.8 181,427.5 173.3,427.5 173.3,432 165.5,432 
			165.5,434.2 157.8,434.2 157.8,436.5 150,436.5 150,438.8 142.3,438.8 142.3,441.8 134.6,441.8 134.6,447 126.8,447 126.8,449.2 
			119.1,449.2 119.1,451.5 111.4,451.5 111.4,454.5 103.6,454.5 103.6,456.8 95.9,456.8 95.9,459 88.1,459 88.1,461.2 80.4,461.2 
			80.4,462 72.7,462 64.9,462 64.9,462 57.2,462 57.2,462.8 49.5,462.8 41.7,462.8 41.7,462.8 34,462.8 34,463.5 41.7,463.5 
			41.7,463.5 49.5,463.5 57.2,463.5 57.2,463.5 64.9,463.5 64.9,463.5 72.7,463.5 80.4,463.5 80.4,463.5 88.1,463.5 95.9,463.5 
			103.6,463.5 103.6,463.5 111.4,463.5 119.1,463.5 119.1,463.5 126.8,463.5 134.6,463.5 142.3,463.5 142.3,463.5 150,463.5 
			157.8,463.5 157.8,463.5 165.5,463.5 165.5,463.5 173.3,463.5 181,463.5 181,463.5 188.7,463.5 188.7,463.5 196.5,463.5 
			196.5,463.5 204.2,463.5 204.2,463.5 211.9,463.5 219.7,463.5 219.7,463.5 227.4,463.5 227.4,463.5 235.2,463.5 242.9,463.5 
			242.9,463.5 250.6,463.5 258.4,463.5 258.4,463.5 266.1,463.5 273.8,463.5 281.6,463.5 281.6,463.5 289.3,463.5 297.1,463.5 
			304.8,463.5 304.8,463.5 312.5,463.5 320.3,463.5 320.3,463.5 328,463.5 335.7,463.5 343.5,463.5 343.5,463.5 351.2,463.5 
			359,463.5 359,463.5 366.7,463.5 374.4,463.5 382.2,463.5 382.2,463.5 389.9,463.5 397.6,463.5 397.6,463.5 405.4,463.5 
			413.1,463.5 420.9,463.5 420.9,463.5 428.6,463.5 436.3,463.5 436.3,463.5 444.1,463.5 451.8,463.5 459.5,463.5 459.5,463.5 
			467.3,463.5 475,463.5 475,463.5 482.8,463.5 490.5,463.5 498.2,463.5 498.2,463.5 506,463.5 513.7,463.5 513.7,463.5 
			521.4,463.5 529.2,463.5 529.2,463.5 536.9,463.5 544.7,463.5 552.4,463.5 552.4,463.5 560.1,463.5 567.9,463.5 575.6,463.5 
			575.6,463.5 583.3,463.5 591.1,463.5 591.1,463.5 598.8,463.5 606.6,463.5 614.3,463.5 614.3,463.5 622,463.5 629.8,463.5 
			629.8,463.5 637.5,463.5 637.5,0 		"/>
		<line class="st4" x1="26.2" y1="463.5" x2="637.5" y2="463.5"/>
	</g>
	<g class="st0">
		<text transform="matrix(1 0 0 1 3.515625e-02 394.5996)" class="st5 st6 st7">1000</text>
	</g>
	<g class="st0">
		<text transform="matrix(1 0 0 1 3.515625e-02 324.0996)" class="st5 st6 st7">2000</text>
	</g>
	<g class="st0">
		<text transform="matrix(1 0 0 1 3.515625e-02 252.8496)" class="st5 st6 st7">3000</text>
	</g>
	<g class="st0">
		<text transform="matrix(1 0 0 1 3.515625e-02 182.3496)" class="st5 st6 st7">4000</text>
	</g>
	<g class="st0">
		<text transform="matrix(1 0 0 1 3.515625e-02 111.0996)" class="st5 st6 st7">5000</text>
	</g>
	<g class="st0">
		<text transform="matrix(1 0 0 1 3.515625e-02 40.5996)" class="st5 st6 st7">6000</text>
	</g>
	<path class="st8" d="M303.9,477.7c-0.1,0.7-0.3,1.2-0.7,1.6c-0.4,0.4-1,0.6-1.7,0.6c-0.8,0-1.4-0.3-1.8-0.8
		c-0.5-0.5-0.7-1.3-0.7-2.2v-0.6c0-0.6,0.1-1.1,0.3-1.6c0.2-0.5,0.5-0.8,0.9-1c0.4-0.2,0.8-0.4,1.4-0.4c0.7,0,1.2,0.2,1.6,0.6
		c0.4,0.4,0.6,0.9,0.7,1.6H303c-0.1-0.5-0.2-0.9-0.5-1.1c-0.2-0.2-0.6-0.3-1-0.3c-0.5,0-1,0.2-1.3,0.6c-0.3,0.4-0.5,1-0.5,1.7v0.6
		c0,0.7,0.1,1.2,0.4,1.7c0.3,0.4,0.7,0.6,1.2,0.6c0.5,0,0.8-0.1,1.1-0.3c0.3-0.2,0.4-0.6,0.5-1.1H303.9z M304.7,477.3
		c0-0.5,0.1-0.9,0.3-1.3c0.2-0.4,0.4-0.7,0.8-0.9c0.3-0.2,0.7-0.3,1.1-0.3c0.6,0,1.2,0.2,1.6,0.7s0.6,1,0.6,1.8v0.1
		c0,0.5-0.1,0.9-0.3,1.2c-0.2,0.4-0.4,0.7-0.8,0.9c-0.3,0.2-0.7,0.3-1.1,0.3c-0.6,0-1.2-0.2-1.6-0.7S304.7,478.1,304.7,477.3
		L304.7,477.3z M305.5,477.4c0,0.5,0.1,1,0.4,1.3c0.2,0.3,0.6,0.5,1,0.5c0.4,0,0.7-0.2,1-0.5c0.2-0.3,0.4-0.8,0.4-1.4
		c0-0.5-0.1-0.9-0.4-1.3c-0.2-0.3-0.6-0.5-1-0.5c-0.4,0-0.7,0.2-1,0.5C305.6,476.3,305.5,476.8,305.5,477.4z M310.8,475l0,0.6
		c0.4-0.5,0.8-0.7,1.4-0.7c1,0,1.5,0.6,1.5,1.7v3.1H313v-3.1c0-0.3-0.1-0.6-0.2-0.8c-0.2-0.2-0.4-0.2-0.7-0.2
		c-0.3,0-0.5,0.1-0.7,0.2c-0.2,0.1-0.4,0.3-0.5,0.6v3.4H310V475H310.8z M315.3,479.7v-4.1h-0.8V475h0.8v-0.4c0-0.5,0.2-0.9,0.5-1.2
		c0.3-0.3,0.7-0.4,1.3-0.4c0.3,0,0.7,0.1,1.2,0.3l-0.1,0.7c-0.4-0.1-0.7-0.2-1-0.2c-0.3,0-0.6,0.1-0.8,0.2c-0.2,0.2-0.2,0.4-0.2,0.7
		v0.4h1v0.6h-1v4.1H315.3z M318.7,479.7h-0.8V475h0.8V479.7z M322.3,475.7c-0.1,0-0.3,0-0.4,0c-0.5,0-0.9,0.2-1.1,0.7v3.4H320V475
		h0.8l0,0.5c0.3-0.4,0.6-0.6,1.1-0.6c0.2,0,0.3,0,0.4,0.1V475.7z M323.8,475l0,0.5c0.3-0.4,0.8-0.6,1.4-0.6c0.7,0,1.1,0.3,1.4,0.8
		c0.2-0.2,0.4-0.4,0.6-0.6c0.3-0.1,0.6-0.2,0.9-0.2c1,0,1.6,0.6,1.6,1.7v3.2h-0.8v-3.1c0-0.3-0.1-0.6-0.2-0.8
		c-0.2-0.2-0.4-0.3-0.8-0.3c-0.3,0-0.6,0.1-0.8,0.3c-0.2,0.2-0.3,0.4-0.3,0.7v3.2H326v-3.1c0-0.7-0.3-1-1-1c-0.5,0-0.9,0.2-1.1,0.7
		v3.5H323V475H323.8z M334.7,478.9c-0.4,0.6-1,0.9-1.8,0.9c-0.6,0-1.2-0.2-1.6-0.6c-0.4-0.4-0.6-1-0.6-1.7v-0.1
		c0-0.5,0.1-0.9,0.3-1.3c0.2-0.4,0.4-0.7,0.8-0.9c0.3-0.2,0.7-0.3,1.1-0.3c0.6,0,1.1,0.2,1.4,0.6c0.3,0.4,0.5,1,0.5,1.7v0.3h-3.2
		c0,0.5,0.1,0.8,0.4,1.1c0.3,0.3,0.6,0.4,1,0.4c0.3,0,0.5-0.1,0.7-0.2c0.2-0.1,0.4-0.3,0.5-0.5L334.7,478.9L334.7,478.9z
		 M332.8,475.5c-0.3,0-0.6,0.1-0.8,0.4c-0.2,0.2-0.4,0.6-0.4,1h2.4v-0.1c0-0.4-0.1-0.7-0.3-1C333.4,475.7,333.1,475.5,332.8,475.5z
		 M335.5,477.3c0-0.7,0.2-1.3,0.5-1.8c0.3-0.4,0.8-0.7,1.4-0.7c0.6,0,1,0.2,1.3,0.6V473h0.8v6.8h-0.7l0-0.5
		c-0.3,0.4-0.8,0.6-1.4,0.6c-0.6,0-1-0.2-1.3-0.7C335.7,478.7,335.5,478.1,335.5,477.3L335.5,477.3z M336.3,477.4
		c0,0.5,0.1,1,0.3,1.3c0.2,0.3,0.5,0.5,0.9,0.5c0.5,0,0.9-0.2,1.1-0.7v-2.2c-0.2-0.4-0.6-0.7-1.1-0.7c-0.4,0-0.7,0.2-0.9,0.5
		C336.4,476.3,336.3,476.8,336.3,477.4z M344.9,479.1c0.3,0,0.5-0.1,0.8-0.3c0.2-0.2,0.3-0.4,0.4-0.7h0.8c0,0.3-0.1,0.5-0.3,0.8
		c-0.2,0.2-0.4,0.4-0.7,0.6c-0.3,0.1-0.6,0.2-0.9,0.2c-0.6,0-1.2-0.2-1.5-0.6c-0.4-0.4-0.6-1-0.6-1.8v-0.1c0-0.5,0.1-0.9,0.3-1.2
		c0.2-0.4,0.4-0.6,0.7-0.8c0.3-0.2,0.7-0.3,1.1-0.3c0.5,0,1,0.2,1.3,0.5c0.4,0.3,0.5,0.7,0.6,1.2H346c0-0.3-0.1-0.6-0.3-0.8
		c-0.2-0.2-0.5-0.3-0.8-0.3c-0.4,0-0.7,0.1-1,0.4c-0.2,0.3-0.3,0.7-0.3,1.3v0.2c0,0.5,0.1,1,0.3,1.3
		C344.2,479,344.5,479.1,344.9,479.1z M350.7,479.7c0-0.1-0.1-0.3-0.1-0.5c-0.4,0.4-0.8,0.6-1.4,0.6c-0.5,0-0.9-0.1-1.2-0.4
		c-0.3-0.3-0.5-0.6-0.5-1c0-0.5,0.2-0.9,0.6-1.2c0.4-0.3,0.9-0.4,1.6-0.4h0.8v-0.4c0-0.3-0.1-0.5-0.3-0.7c-0.2-0.2-0.4-0.3-0.8-0.3
		c-0.3,0-0.5,0.1-0.7,0.2c-0.2,0.1-0.3,0.3-0.3,0.5h-0.8c0-0.2,0.1-0.5,0.3-0.7c0.2-0.2,0.4-0.4,0.7-0.5c0.3-0.1,0.6-0.2,1-0.2
		c0.5,0,1,0.1,1.3,0.4c0.3,0.3,0.5,0.7,0.5,1.1v2.2c0,0.4,0.1,0.8,0.2,1v0.1H350.7z M349.3,479.1c0.3,0,0.5-0.1,0.7-0.2
		s0.4-0.3,0.5-0.5v-1h-0.6c-1,0-1.5,0.3-1.5,0.9c0,0.3,0.1,0.5,0.3,0.6C348.8,479,349,479.1,349.3,479.1z M355.4,478.5
		c0-0.2-0.1-0.4-0.2-0.5c-0.2-0.1-0.5-0.2-0.9-0.3c-0.4-0.1-0.7-0.2-1-0.3s-0.4-0.3-0.5-0.4c-0.1-0.2-0.2-0.4-0.2-0.6
		c0-0.4,0.2-0.7,0.5-1c0.3-0.3,0.8-0.4,1.3-0.4c0.5,0,1,0.1,1.3,0.4c0.3,0.3,0.5,0.6,0.5,1.1h-0.8c0-0.2-0.1-0.4-0.3-0.6
		c-0.2-0.2-0.4-0.2-0.7-0.2c-0.3,0-0.5,0.1-0.7,0.2c-0.2,0.1-0.3,0.3-0.3,0.5c0,0.2,0.1,0.3,0.2,0.4c0.2,0.1,0.4,0.2,0.8,0.3
		c0.4,0.1,0.7,0.2,1,0.3c0.3,0.1,0.4,0.3,0.6,0.5c0.1,0.2,0.2,0.4,0.2,0.6c0,0.4-0.2,0.8-0.5,1c-0.3,0.3-0.8,0.4-1.3,0.4
		c-0.4,0-0.7-0.1-1-0.2c-0.3-0.1-0.5-0.3-0.7-0.6c-0.2-0.2-0.2-0.5-0.2-0.8h0.8c0,0.3,0.1,0.5,0.3,0.6c0.2,0.2,0.5,0.2,0.8,0.2
		c0.3,0,0.6-0.1,0.7-0.2C355.3,478.8,355.4,478.7,355.4,478.5z M361,478.9c-0.4,0.6-1,0.9-1.8,0.9c-0.6,0-1.2-0.2-1.6-0.6
		c-0.4-0.4-0.6-1-0.6-1.7v-0.1c0-0.5,0.1-0.9,0.3-1.3c0.2-0.4,0.4-0.7,0.8-0.9c0.3-0.2,0.7-0.3,1.1-0.3c0.6,0,1.1,0.2,1.4,0.6
		c0.3,0.4,0.5,1,0.5,1.7v0.3h-3.2c0,0.5,0.1,0.8,0.4,1.1c0.3,0.3,0.6,0.4,1,0.4c0.3,0,0.5-0.1,0.7-0.2c0.2-0.1,0.4-0.3,0.5-0.5
		L361,478.9L361,478.9z M359.1,475.5c-0.3,0-0.6,0.1-0.8,0.4c-0.2,0.2-0.4,0.6-0.4,1h2.4v-0.1c0-0.4-0.1-0.7-0.3-1
		C359.7,475.7,359.5,475.5,359.1,475.5z M364.8,478.5c0-0.2-0.1-0.4-0.2-0.5c-0.2-0.1-0.5-0.2-0.9-0.3c-0.4-0.1-0.7-0.2-1-0.3
		s-0.4-0.3-0.5-0.4c-0.1-0.2-0.2-0.4-0.2-0.6c0-0.4,0.2-0.7,0.5-1c0.3-0.3,0.8-0.4,1.3-0.4c0.5,0,1,0.1,1.3,0.4
		c0.3,0.3,0.5,0.6,0.5,1.1h-0.8c0-0.2-0.1-0.4-0.3-0.6c-0.2-0.2-0.4-0.2-0.7-0.2c-0.3,0-0.5,0.1-0.7,0.2c-0.2,0.1-0.3,0.3-0.3,0.5
		c0,0.2,0.1,0.3,0.2,0.4c0.2,0.1,0.4,0.2,0.8,0.3c0.4,0.1,0.7,0.2,1,0.3c0.3,0.1,0.4,0.3,0.6,0.5c0.1,0.2,0.2,0.4,0.2,0.6
		c0,0.4-0.2,0.8-0.5,1c-0.3,0.3-0.8,0.4-1.3,0.4c-0.4,0-0.7-0.1-1-0.2c-0.3-0.1-0.5-0.3-0.7-0.6c-0.2-0.2-0.2-0.5-0.2-0.8h0.8
		c0,0.3,0.1,0.5,0.3,0.6c0.2,0.2,0.5,0.2,0.8,0.2c0.3,0,0.6-0.1,0.7-0.2C364.7,478.8,364.8,478.7,364.8,478.5z"/>
</g>
<g>
	<text transform="matrix(1 0 0 1 616.7595 476.228)" class="st9 st6 st7">5/28</text>
</g>
<g>
	<text transform="matrix(1 0 0 1 30.052 476.2278)" class="st9 st6 st7">3/11</text>
</g>
</svg>
