<?xml version="1.0" encoding="utf-8"?>
<!-- Generator: Adobe Illustrator 23.0.1, SVG Export Plug-In . SVG Version: 6.00 Build 0)  -->
<svg version="1.1" id="Layer_1" xmlns="http://www.w3.org/2000/svg" xmlns:xlink="http://www.w3.org/1999/xlink" x="0px" y="0px"
	 viewBox="0 0 637.5 487.5" style="enable-background:new 0 0 637.5 487.5;" xml:space="preserve">
<style type="text/css">
	.st0{clip-path:url(#SVGID_2_);}
	.st1{clip-path:url(#SVGID_4_);fill:none;stroke:#E8E8E8;stroke-width:0.75;stroke-miterlimit:10;}
	.st2{clip-path:url(#SVGID_4_);fill:#C71E1D;}
	.st3{clip-path:url(#SVGID_4_);fill:#C71E1D;fill-opacity:0.6;stroke:#000000;stroke-width:0.5;stroke-miterlimit:10;}
	.st4{clip-path:url(#SVGID_4_);fill:none;stroke:#333333;stroke-width:0.75;stroke-miterlimit:10;}
	.st5{fill:#A6A6A6;}
	.st6{font-family:'Roboto-Regular';}
	.st7{font-size:9px;}
	.st8{fill:#333333;}
</style>
<g>
	<defs>
		<rect id="SVGID_1_" width="637.5" height="487.5"/>
	</defs>
	<clipPath id="SVGID_2_">
		<use xlink:href="#SVGID_1_"  style="overflow:visible;"/>
	</clipPath>
	<g class="st0">
		<defs>
			<rect id="SVGID_3_" width="637.5" height="483"/>
		</defs>
		<clipPath id="SVGID_4_">
			<use xlink:href="#SVGID_3_"  style="overflow:visible;"/>
		</clipPath>
		<line class="st1" x1="30.8" y1="16.5" x2="637.5" y2="16.5"/>
		<line class="st1" x1="30.8" y1="61.5" x2="637.5" y2="61.5"/>
		<line class="st1" x1="30.8" y1="105.8" x2="637.5" y2="105.8"/>
		<line class="st1" x1="30.8" y1="150.8" x2="637.5" y2="150.8"/>
		<line class="st1" x1="30.8" y1="195" x2="637.5" y2="195"/>
		<line class="st1" x1="30.8" y1="240" x2="637.5" y2="240"/>
		<line class="st1" x1="30.8" y1="285" x2="637.5" y2="285"/>
		<line class="st1" x1="30.8" y1="329.2" x2="637.5" y2="329.2"/>
		<line class="st1" x1="30.8" y1="374.2" x2="637.5" y2="374.2"/>
		<line class="st1" x1="30.8" y1="418.5" x2="637.5" y2="418.5"/>
		<rect x="30.8" y="463.5" class="st2" width="6.6" height="0.4"/>
		<rect x="37.3" y="463.5" class="st2" width="6.6" height="0.4"/>
		<polygon class="st3" points="630,0 630,12.6 623.7,12.6 623.7,27.6 617.1,27.6 617.1,41.9 610.5,41.9 610.5,56.9 603.9,56.9 
			603.9,76.5 597.4,76.5 597.4,87 590.8,87 590.8,102.8 584.2,102.8 584.2,114 577.6,114 577.6,130.5 571.2,130.5 571.2,139.5 
			564.6,139.5 564.6,150 558,150 558,160.5 551.4,160.5 551.4,171 545,171 545,183 538.4,183 538.4,187.5 531.9,187.5 531.9,194.2 
			525.3,194.2 525.3,198.8 518.8,198.8 518.8,205.5 512.2,205.5 512.2,212.2 505.6,212.2 505.6,219.8 499,219.8 499,240 492.4,240 
			492.4,243.8 485.8,243.8 485.8,247.5 479.2,247.5 479.2,250.5 472.6,250.5 472.6,258.8 466,258.8 466,264 459.4,264 459.4,268.5 
			452.8,268.5 452.8,274.5 446.2,274.5 446.2,277.5 439.6,277.5 439.6,282.8 433.1,282.8 433.1,284.2 426.5,284.2 426.5,285.8 
			419.9,285.8 419.9,296.2 413.3,296.2 413.3,298.5 406.7,298.5 406.7,302.2 400.1,302.2 400.1,306 393.5,306 393.5,308.2 
			386.9,308.2 386.9,309.8 380.3,309.8 380.3,312.8 373.7,312.8 373.7,315.8 367.1,315.8 367.1,316.5 360.5,316.5 360.5,320.2 
			353.9,320.2 353.9,324 347.3,324 347.3,326.2 340.7,326.2 340.7,329.2 334.1,329.2 334.1,333.8 327.5,333.8 327.5,338.2 
			320.9,338.2 320.9,347.2 314.3,347.2 314.3,356.2 307.7,356.2 307.7,362.2 301.1,362.2 301.1,375.8 294.6,375.8 294.6,384 
			288,384 288,384 281.4,384 281.4,387.8 274.8,387.8 274.8,390.8 268.2,390.8 268.2,392.2 261.6,392.2 261.6,396.8 255,396.8 
			255,397.5 248.4,397.5 248.4,406.5 241.8,406.5 241.8,408.8 235.2,408.8 235.2,409.5 228.6,409.5 228.6,412.5 222,412.5 
			222,415.5 215.4,415.5 215.4,419.2 208.8,419.2 208.8,422.2 202.2,422.2 202.2,425.2 195.6,425.2 195.6,430.5 189,430.5 
			182.4,430.5 182.4,432.8 175.8,432.8 175.8,435.8 169.2,435.8 169.2,438 162.7,438 162.7,441 156.1,441 156.1,443.2 149.5,443.2 
			149.5,445.5 142.9,445.5 142.9,446.2 136.3,446.2 136.3,447.8 129.7,447.8 129.7,450 123.1,450 123.1,453 116.5,453 116.5,454.5 
			109.9,454.5 109.9,456 103.3,456 103.3,458.2 96.7,458.2 96.7,459 90.1,459 90.1,460.5 83.5,460.5 83.5,462 76.9,462 76.9,462.8 
			70.3,462.8 63.7,462.8 57.1,462.8 50.5,462.8 43.9,462.8 43.9,463.5 50.5,463.5 57.1,463.5 63.7,463.5 70.3,463.5 76.9,463.5 
			83.5,463.5 90.1,463.5 96.7,463.5 103.3,463.5 109.9,463.5 116.5,463.5 123.1,463.5 129.7,463.5 136.3,463.5 142.9,463.5 
			149.5,463.5 156.1,463.5 162.7,463.5 169.2,463.5 175.8,463.5 182.4,463.5 189,463.5 195.6,463.5 202.2,463.5 208.8,463.5 
			215.4,463.5 222,463.5 228.6,463.5 235.2,463.5 241.8,463.5 248.4,463.5 255,463.5 261.6,463.5 261.6,463.5 268.2,463.5 
			274.8,463.5 281.4,463.5 288,463.5 288,463.5 294.6,463.5 301.1,463.5 307.7,463.5 314.3,463.5 314.3,463.5 320.9,463.5 
			327.5,463.5 334.1,463.5 340.7,463.5 347.3,463.5 353.9,463.5 360.5,463.5 360.5,463.5 367.1,463.5 373.7,463.5 380.3,463.5 
			386.9,463.5 386.9,463.5 393.5,463.5 400.1,463.5 406.7,463.5 413.3,463.5 413.3,463.5 419.9,463.5 426.5,463.5 433.1,463.5 
			439.6,463.5 439.6,463.5 446.2,463.5 452.8,463.5 459.4,463.5 466,463.5 466,463.5 472.6,463.5 479.2,463.5 485.8,463.5 
			492.4,463.5 499,463.5 505.6,463.5 512.2,463.5 518.8,463.5 525.3,463.5 525.4,463.5 531.9,463.5 538.4,463.5 545,463.5 
			551.4,463.5 551.6,463.5 558,463.5 564.6,463.5 571.2,463.5 577.6,463.5 577.8,463.5 584.2,463.5 590.8,463.5 597.4,463.5 
			604,463.5 604,463.4 610.5,463.4 617.1,463.4 623.7,463.4 630,463.4 630,463.5 636.6,463.5 636.6,0 		"/>
		<line class="st4" x1="30.8" y1="463.5" x2="637.5" y2="463.5"/>
	</g>
	<g class="st0">
		<text transform="matrix(1 0 0 1 5.2852 421.5996)" class="st5 st6 st7">1000</text>
	</g>
	<g class="st0">
		<text transform="matrix(1 0 0 1 5.2852 377.3496)" class="st5 st6 st7">2000</text>
	</g>
	<g class="st0">
		<text transform="matrix(1 0 0 1 5.2852 332.3496)" class="st5 st6 st7">3000</text>
	</g>
	<g class="st0">
		<text transform="matrix(1 0 0 1 5.2852 288.0996)" class="st5 st6 st7">4000</text>
	</g>
	<g class="st0">
		<text transform="matrix(1 0 0 1 5.2852 243.0996)" class="st5 st6 st7">5000</text>
	</g>
	<g class="st0">
		<text transform="matrix(1 0 0 1 5.2852 198.0996)" class="st5 st6 st7">6000</text>
	</g>
	<g class="st0">
		<text transform="matrix(1 0 0 1 5.2852 153.8496)" class="st5 st6 st7">7000</text>
	</g>
	<g class="st0">
		<text transform="matrix(1 0 0 1 5.2852 108.8496)" class="st5 st6 st7">8000</text>
	</g>
	<g class="st0">
		<text transform="matrix(1 0 0 1 5.2852 64.5996)" class="st5 st6 st7">9000</text>
	</g>
	<g class="st0">
		<text transform="matrix(1 0 0 1 0.9814 19.5996)" class="st5 st6 st7">10000</text>
	</g>
</g>
<g>
	<text transform="matrix(1 0 0 1 617.785 477.5635)" class="st8 st6 st7">6/10</text>
</g>
<g>
	<text transform="matrix(1 0 0 1 38.2501 477.5635)" class="st8 st6 st7">3/11</text>
</g>
</svg>
