<?xml version="1.0" encoding="utf-8"?>
<!-- Generator: Adobe Illustrator 23.0.1, SVG Export Plug-In . SVG Version: 6.00 Build 0)  -->
<svg version="1.1" id="Layer_1" xmlns="http://www.w3.org/2000/svg" xmlns:xlink="http://www.w3.org/1999/xlink" x="0px" y="0px"
	 viewBox="0 0 637.5 487.5" style="enable-background:new 0 0 637.5 487.5;" xml:space="preserve">
<style type="text/css">
	.st0{clip-path:url(#SVGID_2_);}
	.st1{clip-path:url(#SVGID_4_);fill:none;stroke:#E8E8E8;stroke-width:0.75;stroke-miterlimit:10;}
	.st2{clip-path:url(#SVGID_4_);fill:#C71E1D;}
	.st3{clip-path:url(#SVGID_4_);fill:#C71E1D;fill-opacity:0.6;stroke:#000000;stroke-width:0.5;stroke-miterlimit:10;}
	.st4{clip-path:url(#SVGID_4_);fill:none;stroke:#333333;stroke-width:0.75;stroke-miterlimit:10;}
	.st5{fill:#A6A6A6;}
	.st6{font-family:'Roboto-Regular';}
	.st7{font-size:9px;}
	.st8{fill:#333333;}
</style>
<g>
	<defs>
		<rect id="SVGID_1_" width="637.5" height="487.5"/>
	</defs>
	<clipPath id="SVGID_2_">
		<use xlink:href="#SVGID_1_"  style="overflow:visible;"/>
	</clipPath>
	<g class="st0">
		<defs>
			<polyline id="SVGID_3_" points="0,483 0,0 637.5,0 637.5,483 			"/>
		</defs>
		<clipPath id="SVGID_4_">
			<use xlink:href="#SVGID_3_"  style="overflow:visible;"/>
		</clipPath>
		<line class="st1" x1="26.2" y1="23.2" x2="637.5" y2="23.2"/>
		<line class="st1" x1="26.2" y1="78.8" x2="637.5" y2="78.8"/>
		<line class="st1" x1="26.2" y1="133.5" x2="637.5" y2="133.5"/>
		<line class="st1" x1="26.2" y1="188.2" x2="637.5" y2="188.2"/>
		<line class="st1" x1="26.2" y1="243.8" x2="637.5" y2="243.8"/>
		<line class="st1" x1="26.2" y1="298.5" x2="637.5" y2="298.5"/>
		<line class="st1" x1="26.2" y1="353.2" x2="637.5" y2="353.2"/>
		<line class="st1" x1="26.2" y1="408.8" x2="637.5" y2="408.8"/>
		<rect x="26.2" y="463.5" class="st2" width="7.1" height="0.4"/>
		<rect x="33.4" y="463.5" class="st2" width="7.1" height="0.4"/>
		<polygon class="st3" points="627.9,0 627.9,19.5 620.8,19.5 620.8,33.8 613.9,33.8 613.9,54 606.8,54 606.8,64.5 599.7,64.5 
			599.7,78 592.6,78 592.6,90.8 585.6,90.8 585.6,103.5 578.5,103.5 578.5,118.5 571.4,118.5 571.4,123.8 564.3,123.8 564.3,132 
			557.3,132 557.3,138 550.2,138 550.2,145.5 543.1,145.5 543.1,154.5 536,154.5 536,163.5 528.9,163.5 528.9,188.2 521.9,188.2 
			521.9,192.8 514.8,192.8 514.8,198 507.7,198 507.7,201.8 500.6,201.8 500.6,211.5 493.5,211.5 493.5,218.2 486.7,218.2 
			486.7,223.5 479.5,223.5 479.5,230.2 472.4,230.2 472.4,234.8 465.3,234.8 465.3,240.8 458.5,240.8 458.5,243 451.4,243 
			451.4,244.5 444.3,244.5 444.3,257.2 437.2,257.2 437.2,260.2 430.1,260.2 430.1,264.8 423.1,264.8 423.1,269.2 416,269.2 
			416,273 408.9,273 408.9,274.5 401.8,274.5 401.8,278.2 394.9,278.2 394.9,281.2 387.8,281.2 387.8,282.8 380.7,282.8 
			380.7,287.2 373.6,287.2 373.6,291.8 366.8,291.8 366.8,294.8 359.6,294.8 359.6,298.5 352.5,298.5 352.5,303.8 345.4,303.8 
			345.4,309 338.5,309 338.5,320.2 331.3,320.2 331.3,332.2 324.2,332.2 324.2,339 317.1,339 317.1,354.8 310,354.8 310,365.2 
			303.2,365.2 303.2,366 296.1,366 296.1,370.5 289,370.5 289,374.2 281.9,374.2 281.9,375.8 275,375.8 275,381 267.9,381 
			267.9,382.5 260.8,382.5 260.8,393 253.7,393 253.7,396 246.6,396 246.6,397.5 239.5,397.5 239.5,400.5 232.4,400.5 232.4,404.2 
			225.3,404.2 225.3,408.8 218.2,408.8 218.2,412.5 211,412.5 211,416.2 203.9,416.2 203.9,422.2 196.8,422.2 196.8,423 189.7,423 
			189.7,426 182.6,426 182.6,429 175.5,429 175.5,432.8 168.4,432.8 168.4,435.8 161.3,435.8 161.3,438.8 154.2,438.8 154.2,441 
			147.1,441 147.1,442.5 140,442.5 140,444 132.9,444 132.9,446.2 125.8,446.2 125.8,450.8 118.6,450.8 118.6,452.2 111.5,452.2 
			111.5,454.5 104.4,454.5 104.4,456.8 97.3,456.8 97.3,458.2 90.2,458.2 90.2,459.8 83.1,459.8 83.1,462 76,462 68.9,462 61.8,462 
			61.8,462.8 54.7,462.8 47.6,462.8 40.5,462.8 40.5,463.5 47.6,463.5 54.7,463.5 61.8,463.5 68.9,463.5 76,463.5 83.1,463.5 
			90.2,463.5 97.3,463.5 104.4,463.5 111.5,463.5 118.6,463.5 125.8,463.5 132.9,463.5 140,463.5 147.1,463.5 154.2,463.5 
			161.3,463.5 168.4,463.5 175.5,463.5 182.6,463.5 189.7,463.5 196.8,463.5 203.9,463.5 211,463.5 218.2,463.5 225.3,463.5 
			232.4,463.5 239.5,463.5 246.6,463.5 253.7,463.5 260.8,463.5 267.9,463.5 275,463.5 281.9,463.5 282.1,463.5 289,463.5 
			296.1,463.5 303.2,463.5 310,463.5 310.3,463.5 317.1,463.5 324.2,463.5 331.3,463.5 338.5,463.5 345.4,463.5 345.6,463.5 
			352.5,463.5 359.6,463.5 366.8,463.5 373.6,463.5 373.9,463.5 380.7,463.5 387.8,463.5 394.9,463.5 401.8,463.5 402,463.5 
			408.9,463.5 416,463.5 423.1,463.5 430.1,463.5 430.2,463.5 437.2,463.5 444.3,463.5 451.4,463.5 458.5,463.5 465.3,463.5 
			465.6,463.5 472.4,463.5 479.5,463.5 486.7,463.5 493.5,463.5 493.8,463.5 500.6,463.5 507.7,463.5 514.8,463.5 521.9,463.5 
			528.9,463.5 529,463.5 536,463.5 543.1,463.5 550.2,463.5 557.3,463.5 564.3,463.5 564.4,463.5 571.4,463.5 578.5,463.5 
			585.6,463.5 592.6,463.5 592.7,463.5 599.7,463.5 606.8,463.5 613.9,463.5 620.8,463.5 621,463.5 627.9,463.5 635,463.5 635,0 		
			"/>
		<line class="st4" x1="26.2" y1="463.5" x2="637.5" y2="463.5"/>
	</g>
	<g class="st0">
		<text transform="matrix(1 0 0 1 0.7852 411.8496)" class="st5 st6 st7">1000</text>
	</g>
	<g class="st0">
		<text transform="matrix(1 0 0 1 0.7852 356.3496)" class="st5 st6 st7">2000</text>
	</g>
	<g class="st0">
		<text transform="matrix(1 0 0 1 0.7852 301.5996)" class="st5 st6 st7">3000</text>
	</g>
	<g class="st0">
		<text transform="matrix(1 0 0 1 0.7852 246.8496)" class="st5 st6 st7">4000</text>
	</g>
	<g class="st0">
		<text transform="matrix(1 0 0 1 0.7852 191.3496)" class="st5 st6 st7">5000</text>
	</g>
	<g class="st0">
		<text transform="matrix(1 0 0 1 0.7852 136.5996)" class="st5 st6 st7">6000</text>
	</g>
	<g class="st0">
		<text transform="matrix(1 0 0 1 0.7852 81.8496)" class="st5 st6 st7">7000</text>
	</g>
	<g class="st0">
		<text transform="matrix(1 0 0 1 0.7852 26.3496)" class="st5 st6 st7">8000</text>
	</g>
</g>
<g>
	<text transform="matrix(1 0 0 1 623.5371 478.2855)" class="st8 st6 st7">6/4</text>
</g>
<g>
	<text transform="matrix(1 0 0 1 34.8213 478.2855)" class="st8 st6 st7">3/11</text>
</g>
</svg>
