<?xml version="1.0" encoding="utf-8"?>
<!-- Generator: Adobe Illustrator 23.0.1, SVG Export Plug-In . SVG Version: 6.00 Build 0)  -->
<svg version="1.1" id="Layer_1" xmlns="http://www.w3.org/2000/svg" xmlns:xlink="http://www.w3.org/1999/xlink" x="0px" y="0px"
	 viewBox="0 0 637.5 487.5" style="enable-background:new 0 0 637.5 487.5;" xml:space="preserve">
<style type="text/css">
	.st0{clip-path:url(#SVGID_2_);}
	.st1{clip-path:url(#SVGID_4_);fill:none;stroke:#E8E8E8;stroke-width:0.75;stroke-miterlimit:10;}
	.st2{clip-path:url(#SVGID_4_);fill:#C71E1D;}
	.st3{clip-path:url(#SVGID_4_);fill:#C71E1D;fill-opacity:0.6;stroke:#000000;stroke-width:0.5;stroke-miterlimit:10;}
	.st4{clip-path:url(#SVGID_4_);fill:none;stroke:#333333;stroke-width:0.75;stroke-miterlimit:10;}
	.st5{fill:#A6A6A6;}
	.st6{font-family:'Roboto-Regular';}
	.st7{font-size:9px;}
	.st8{fill:#333333;}
</style>
<g>
	<defs>
		<rect id="SVGID_1_" width="637.5" height="487.5"/>
	</defs>
	<clipPath id="SVGID_2_">
		<use xlink:href="#SVGID_1_"  style="overflow:visible;"/>
	</clipPath>
	<g class="st0">
		<defs>
			<rect id="SVGID_3_" width="637.5" height="483"/>
		</defs>
		<clipPath id="SVGID_4_">
			<use xlink:href="#SVGID_3_"  style="overflow:visible;"/>
		</clipPath>
		<line class="st1" x1="26.2" y1="39" x2="637.5" y2="39"/>
		<line class="st1" x1="26.2" y1="81" x2="637.5" y2="81"/>
		<line class="st1" x1="26.2" y1="123.8" x2="637.5" y2="123.8"/>
		<line class="st1" x1="26.2" y1="166.5" x2="637.5" y2="166.5"/>
		<line class="st1" x1="26.2" y1="208.5" x2="637.5" y2="208.5"/>
		<line class="st1" x1="26.2" y1="251.2" x2="637.5" y2="251.2"/>
		<line class="st1" x1="26.2" y1="294" x2="637.5" y2="294"/>
		<line class="st1" x1="26.2" y1="336" x2="637.5" y2="336"/>
		<line class="st1" x1="26.2" y1="378.8" x2="637.5" y2="378.8"/>
		<line class="st1" x1="26.2" y1="420.8" x2="637.5" y2="420.8"/>
		<rect x="26.2" y="463.5" class="st2" width="8.5" height="0.4"/>
		<polygon class="st3" points="637.2,-0.1 628.7,-0.1 628.7,39 620.3,39 620.3,45.7 611.8,45.7 611.8,53.2 603.3,53.2 603.3,59.2 
			594.8,59.2 594.8,75 586.3,75 586.3,84.8 577.9,84.8 577.9,93 569.4,93 569.4,103.5 560.9,103.5 560.9,110.2 552.4,110.2 
			552.4,120 544,120 544,123 535.5,123 535.5,125.2 527,125.2 527,145.5 518.5,145.5 518.5,150 510.1,150 510.1,156.8 501.6,156.8 
			501.6,164.2 493.1,164.2 493.1,168.8 484.6,168.8 484.6,172.5 476.1,172.5 476.1,177 467.6,177 467.6,182.2 459.2,182.2 
			459.2,184.5 450.7,184.5 450.7,191.2 442.2,191.2 442.2,197.9 433.8,197.9 433.8,203.1 425.3,203.1 425.3,208.4 416.8,208.4 
			416.8,216.8 408.4,216.8 408.4,225 399.9,225 399.9,243 391.4,243 391.4,260.2 382.9,260.2 382.9,271.5 374.5,271.5 374.5,296.2 
			366,296.2 366,312 357.5,312 357.5,312.7 349,312.7 349,319.5 340.5,319.5 340.5,326.2 332.1,326.2 332.1,327.8 323.6,327.8 
			323.6,336 315.1,336 315.1,338.2 306.6,338.2 306.6,354.8 298.1,354.8 298.1,359.2 289.6,359.2 289.6,361.5 281.2,361.5 
			281.2,366 272.7,366 272.7,372 264.2,372 264.2,378.8 255.7,378.8 255.7,384.8 247.2,384.8 247.2,390.8 238.8,390.8 238.8,400.5 
			230.3,400.5 221.8,400.5 221.8,405.8 213.3,405.8 213.3,410.3 204.8,410.3 204.8,415.5 196.3,415.5 196.3,420 187.9,420 
			187.9,425.2 179.4,425.2 179.4,429 170.9,429 170.9,430.5 162.4,430.5 162.4,433.5 153.9,433.5 153.9,437.2 145.4,437.2 
			145.4,444 137,444 137,446.2 128.5,446.2 128.5,449.2 120,449.2 120,453 111.5,453 111.5,455.2 103,455.2 103,458.2 94.6,458.2 
			94.6,460.5 86.1,460.5 86.1,462 77.6,462 77.6,462 69.1,462 69.1,462 60.7,462 60.7,462.8 52.2,462.8 43.7,462.8 43.7,462.8 
			35.2,462.8 35.2,463.5 43.7,463.5 43.7,463.5 52.2,463.5 60.7,463.5 69.1,463.5 69.1,463.5 77.6,463.5 77.6,463.5 86.1,463.5 
			94.6,463.5 94.6,463.5 103,463.5 103,463.5 111.5,463.5 120,463.5 120,463.5 128.5,463.5 137,463.5 145.4,463.5 145.4,463.5 
			153.9,463.5 162.4,463.5 170.9,463.5 170.9,463.5 179.4,463.5 187.9,463.5 196.3,463.5 196.3,463.5 204.8,463.5 213.3,463.5 
			221.8,463.5 221.8,463.5 230.3,463.5 238.8,463.5 247.2,463.5 247.3,463.5 255.7,463.5 264.2,463.5 264.2,463.5 272.7,463.5 
			281.2,463.5 289.6,463.5 289.6,463.5 298.1,463.5 306.6,463.5 315.1,463.5 315.1,463.5 323.6,463.5 332.1,463.5 340.5,463.5 
			340.5,463.5 349,463.5 357.5,463.5 366,463.5 366,463.5 374.5,463.5 382.9,463.5 391.4,463.5 391.4,463.5 399.9,463.5 
			408.4,463.5 416.9,463.5 416.9,463.4 425.3,463.4 433.8,463.4 442.2,463.4 442.2,463.5 450.7,463.5 459.2,463.5 467.6,463.5 
			467.7,463.5 476.1,463.5 484.6,463.5 493.1,463.5 493.1,463.5 501.6,463.5 510.1,463.5 518.5,463.5 527,463.5 527,463.5 
			535.5,463.5 544,463.5 552.4,463.5 552.5,463.5 560.9,463.5 569.4,463.5 577.9,463.5 577.9,463.5 586.3,463.5 594.8,463.5 
			603.3,463.5 603.3,463.5 611.8,463.5 620.3,463.5 628.8,463.5 628.8,463.4 637.2,463.4 		"/>
		<line class="st4" x1="26.2" y1="463.5" x2="637.5" y2="463.5"/>
	</g>
	<g class="st0">
		<text transform="matrix(1 0 0 1 5.2529 423.0996)" class="st5 st6 st7">500</text>
	</g>
	<g class="st0">
		<text transform="matrix(1 0 0 1 3.515625e-02 381.0996)" class="st5 st6 st7">1000</text>
	</g>
	<g class="st0">
		<text transform="matrix(1 0 0 1 3.515625e-02 338.3496)" class="st5 st6 st7">1500</text>
	</g>
	<g class="st0">
		<text transform="matrix(1 0 0 1 3.515625e-02 296.3496)" class="st5 st6 st7">2000</text>
	</g>
	<g class="st0">
		<text transform="matrix(1 0 0 1 3.515625e-02 253.5996)" class="st5 st6 st7">2500</text>
	</g>
	<g class="st0">
		<text transform="matrix(1 0 0 1 3.515625e-02 210.8496)" class="st5 st6 st7">3000</text>
	</g>
	<g class="st0">
		<text transform="matrix(1 0 0 1 3.515625e-02 168.8496)" class="st5 st6 st7">3500</text>
	</g>
	<g class="st0">
		<text transform="matrix(1 0 0 1 3.515625e-02 126.0996)" class="st5 st6 st7">4000</text>
	</g>
	<g class="st0">
		<text transform="matrix(1 0 0 1 3.515625e-02 83.3496)" class="st5 st6 st7">4500</text>
	</g>
	<g class="st0">
		<text transform="matrix(1 0 0 1 3.515625e-02 41.3496)" class="st5 st6 st7">5000</text>
	</g>
</g>
<g>
	<text transform="matrix(1 0 0 1 618.8042 477.3254)" class="st8 st6 st7">5/21</text>
</g>
<g>
	<text transform="matrix(1 0 0 1 29.9974 477.3251)" class="st8 st6 st7">3/11</text>
</g>
</svg>
