<?xml version="1.0" encoding="utf-8"?>
<!-- Generator: Adobe Illustrator 23.0.1, SVG Export Plug-In . SVG Version: 6.00 Build 0)  -->
<svg version="1.1" id="Layer_1" xmlns="http://www.w3.org/2000/svg" xmlns:xlink="http://www.w3.org/1999/xlink" x="0px" y="0px"
	 viewBox="0 0 637.5 487.5" style="enable-background:new 0 0 637.5 487.5;" xml:space="preserve">
<style type="text/css">
	.st0{clip-path:url(#SVGID_2_);}
	.st1{clip-path:url(#SVGID_4_);fill:none;stroke:#E8E8E8;stroke-width:0.75;stroke-miterlimit:10;}
	.st2{clip-path:url(#SVGID_4_);fill:#C71E1D;}
	.st3{clip-path:url(#SVGID_4_);fill:#C71E1D;fill-opacity:0.6;stroke:#000000;stroke-width:0.5;stroke-miterlimit:10;}
	.st4{clip-path:url(#SVGID_4_);fill:none;stroke:#333333;stroke-width:0.75;stroke-miterlimit:10;}
	.st5{fill:#A6A6A6;}
	.st6{font-family:'Roboto-Regular';}
	.st7{font-size:9px;}
	.st8{fill:#333333;}
</style>
<g>
	<defs>
		<polyline id="SVGID_1_" points="0,487.5 0,0 637.5,0 637.5,487.5 		"/>
	</defs>
	<clipPath id="SVGID_2_">
		<use xlink:href="#SVGID_1_"  style="overflow:visible;"/>
	</clipPath>
	<g class="st0">
		<defs>
			<polyline id="SVGID_3_" points="0,483 0,0 637.5,0 637.5,483 			"/>
		</defs>
		<clipPath id="SVGID_4_">
			<use xlink:href="#SVGID_3_"  style="overflow:visible;"/>
		</clipPath>
		<line class="st1" x1="30.8" y1="33" x2="637.5" y2="33"/>
		<line class="st1" x1="30.8" y1="105" x2="637.5" y2="105"/>
		<line class="st1" x1="30.8" y1="176.2" x2="637.5" y2="176.2"/>
		<line class="st1" x1="30.8" y1="248.2" x2="637.5" y2="248.2"/>
		<line class="st1" x1="30.8" y1="320.2" x2="637.5" y2="320.2"/>
		<line class="st1" x1="30.8" y1="391.5" x2="637.5" y2="391.5"/>
		<rect x="30.8" y="463.5" class="st2" width="6.3" height="0.4"/>
		<rect x="37" y="463.5" class="st2" width="6.3" height="0.4"/>
		<rect x="43.3" y="463.5" class="st2" width="6.3" height="0.4"/>
		<polygon class="st3" points="631.2,0 631.2,15 625,15 625,29.2 618.7,29.2 618.7,49.5 612.5,49.5 612.5,75.8 606.2,75.8 
			606.2,91.5 600,91.5 600,102 593.7,102 593.7,114 587.5,114 587.5,125.2 581.2,125.2 581.2,137.2 574.9,137.2 574.9,153 
			568.7,153 568.7,161.2 562.4,161.2 562.4,174 556.2,174 556.2,183 549.9,183 549.9,196.5 543.7,196.5 543.7,203.2 537.4,203.2 
			537.4,211.5 531.2,211.5 531.2,220.5 524.9,220.5 524.9,228.8 518.7,228.8 518.7,238.5 512.4,238.5 512.4,241.5 506.1,241.5 
			506.1,247.5 499.9,247.5 499.9,251.2 493.6,251.2 493.6,256.5 487.4,256.5 487.4,261.8 481.1,261.8 481.1,267.8 474.9,267.8 
			474.9,284.2 468.6,284.2 468.6,286.5 462.4,286.5 462.4,290.2 456.1,290.2 456.1,292.5 449.8,292.5 449.8,299.2 443.6,299.2 
			443.6,303 437.3,303 437.3,306.8 431.1,306.8 431.1,311.2 424.8,311.2 424.8,314.2 418.6,314.2 418.6,318.8 412.3,318.8 
			412.3,319.5 406.1,319.5 406.1,320.2 399.8,320.2 399.8,329.2 393.5,329.2 393.5,330.8 387.3,330.8 387.3,333.8 381,333.8 
			381,336.8 374.8,336.8 374.8,339 368.5,339 368.5,340.5 362.3,340.5 362.3,342.8 356,342.8 356,345 349.8,345 349.8,345.8 
			343.5,345.8 343.5,348.8 337.3,348.8 337.3,351 331,351 331,353.2 324.7,353.2 324.7,355.5 318.5,355.5 318.5,359.2 312.2,359.2 
			312.2,363 306,363 306,370.5 299.7,370.5 299.7,378 293.5,378 293.5,382.5 287.2,382.5 287.2,393 281,393 281,399.8 274.7,399.8 
			268.4,399.8 268.4,402.8 262.2,402.8 262.2,405 255.9,405 255.9,405.8 249.7,405.8 249.7,409.5 243.4,409.5 243.4,410.2 
			237.2,410.2 237.2,417.8 230.9,417.8 230.9,419.2 224.7,419.2 224.7,420 218.4,420 218.4,422.2 212.1,422.2 212.1,424.5 
			205.9,424.5 205.9,427.5 199.6,427.5 199.6,430.5 193.4,430.5 193.4,432.8 187.1,432.8 187.1,436.5 180.9,436.5 180.9,437.2 
			174.6,437.2 174.6,438.8 168.4,438.8 168.4,441 162.1,441 162.1,443.2 155.9,443.2 155.9,445.5 149.6,445.5 149.6,447.8 
			143.3,447.8 143.3,448.5 137.1,448.5 137.1,450 130.8,450 130.8,450.8 124.6,450.8 124.6,452.2 118.3,452.2 118.3,455.2 
			112.1,455.2 112.1,456 105.8,456 105.8,457.5 99.6,457.5 99.6,459 93.3,459 93.3,459.8 87,459.8 87,461.2 80.8,461.2 80.8,462 
			74.5,462 74.5,462.8 68.3,462.8 62,462.8 55.8,462.8 49.5,462.8 49.5,463.5 55.8,463.5 62,463.5 68.3,463.5 74.5,463.5 
			80.8,463.5 87,463.5 93.3,463.5 99.6,463.5 105.8,463.5 112.1,463.5 118.3,463.5 124.6,463.5 130.8,463.5 137.1,463.5 
			143.3,463.5 149.6,463.5 155.9,463.5 162.1,463.5 168.4,463.5 174.6,463.5 180.9,463.5 187.1,463.5 187.1,463.5 193.4,463.5 
			199.6,463.5 205.9,463.5 212.1,463.5 218.4,463.5 224.7,463.5 230.9,463.5 237.2,463.5 243.4,463.5 249.7,463.5 255.9,463.5 
			262.2,463.5 268.4,463.5 268.4,463.5 274.7,463.5 281,463.5 287.2,463.5 293.5,463.5 299.7,463.5 306,463.5 312.2,463.5 
			318.5,463.5 324.7,463.5 331,463.5 337.3,463.5 337.3,463.5 343.5,463.5 349.8,463.5 356,463.5 362.3,463.5 368.5,463.5 
			374.8,463.5 381,463.5 387.3,463.5 393.5,463.5 399.8,463.5 406.1,463.5 406.1,463.5 412.3,463.5 418.6,463.5 424.8,463.5 
			431.1,463.5 437.3,463.5 443.6,463.5 449.8,463.5 456.1,463.5 462.4,463.5 468.6,463.5 474.9,463.5 474.9,463.5 481.1,463.5 
			487.4,463.5 493.6,463.5 499.9,463.5 506.1,463.5 512.4,463.5 518.7,463.5 518.7,463.5 524.9,463.5 531.2,463.5 531.2,463.5 
			537.4,463.5 543.7,463.5 543.7,463.5 549.9,463.5 556.2,463.5 556.2,463.5 562.4,463.5 568.7,463.5 568.7,463.5 574.9,463.5 
			574.9,463.5 581.2,463.5 587.5,463.5 587.5,463.5 593.7,463.5 600,463.5 600,463.5 606.2,463.5 612.5,463.5 612.5,463.5 
			618.7,463.5 625,463.5 625,463.5 631.2,463.5 637.5,463.5 637.5,0 		"/>
		<line class="st4" x1="30.8" y1="463.5" x2="637.5" y2="463.5"/>
	</g>
	<g class="st0">
		<text transform="matrix(1 0 0 1 5.2852 394.5996)" class="st5 st6 st7">2000</text>
	</g>
	<g class="st0">
		<text transform="matrix(1 0 0 1 5.2852 323.3496)" class="st5 st6 st7">4000</text>
	</g>
	<g class="st0">
		<text transform="matrix(1 0 0 1 5.2852 251.3496)" class="st5 st6 st7">6000</text>
	</g>
	<g class="st0">
		<text transform="matrix(1 0 0 1 5.2852 179.3496)" class="st5 st6 st7">8000</text>
	</g>
	<g class="st0">
		<text transform="matrix(1 0 0 1 0.9814 108.0996)" class="st5 st6 st7">10000</text>
	</g>
	<g class="st0">
		<text transform="matrix(1 0 0 1 0.9814 36.0996)" class="st5 st6 st7">12000</text>
	</g>
</g>
<g>
	<text transform="matrix(1 0 0 1 618.6587 477.767)" class="st8 st6 st7">6/15</text>
</g>
<g>
	<text transform="matrix(1 0 0 1 41.7213 477.7673)" class="st8 st6 st7">3/11</text>
</g>
</svg>
