<?xml version="1.0" encoding="utf-8"?>
<!-- Generator: Adobe Illustrator 23.0.1, SVG Export Plug-In . SVG Version: 6.00 Build 0)  -->
<svg version="1.1" id="Layer_1" xmlns="http://www.w3.org/2000/svg" xmlns:xlink="http://www.w3.org/1999/xlink" x="0px" y="0px"
	 viewBox="0 0 637.5 487.5" style="enable-background:new 0 0 637.5 487.5;" xml:space="preserve">
<style type="text/css">
	.st0{clip-path:url(#SVGID_2_);}
	.st1{clip-path:url(#SVGID_4_);fill:none;stroke:#E8E8E8;stroke-width:0.75;stroke-miterlimit:10;}
	.st2{clip-path:url(#SVGID_4_);fill:#C71E1D;}
	.st3{clip-path:url(#SVGID_4_);fill:#C71E1D;fill-opacity:0.6;stroke:#000000;stroke-width:0.5;stroke-miterlimit:10;}
	.st4{clip-path:url(#SVGID_4_);fill:none;stroke:#333333;stroke-width:0.75;stroke-miterlimit:10;}
	.st5{fill:#A6A6A6;}
	.st6{font-family:'Roboto-Regular';}
	.st7{font-size:9px;}
	.st8{fill:#333333;}
</style>
<g>
	<defs>
		<rect id="SVGID_1_" width="637.5" height="487.5"/>
	</defs>
	<clipPath id="SVGID_2_">
		<use xlink:href="#SVGID_1_"  style="overflow:visible;"/>
	</clipPath>
	<g class="st0">
		<defs>
			<rect id="SVGID_3_" width="637.5" height="483"/>
		</defs>
		<clipPath id="SVGID_4_">
			<use xlink:href="#SVGID_3_"  style="overflow:visible;"/>
		</clipPath>
		<line class="st1" x1="26.2" y1="72" x2="637.5" y2="72"/>
		<line class="st1" x1="26.2" y1="150.8" x2="637.5" y2="150.8"/>
		<line class="st1" x1="26.2" y1="228.8" x2="637.5" y2="228.8"/>
		<line class="st1" x1="26.2" y1="306.8" x2="637.5" y2="306.8"/>
		<line class="st1" x1="26.2" y1="385.5" x2="637.5" y2="385.5"/>
		<rect x="26.2" y="463.5" class="st2" width="8.2" height="0.4"/>
		<polygon class="st3" points="629.3,0 629.3,11.2 621.2,11.2 621.2,24 613,24 613,36 604.9,36 604.9,72 596.8,72 596.8,78 
			588.6,78 588.6,85.5 580.5,85.5 580.5,90.8 572.3,90.8 572.3,105 564.2,105 564.2,114 556,114 556,121.5 547.8,121.5 547.8,132 
			539.7,132 539.7,137.2 531.5,137.2 531.5,147 523.4,147 523.4,149.2 515.2,149.2 515.2,151.5 507.1,151.5 507.1,170.2 499,170.2 
			499,174.8 490.8,174.8 490.8,180.8 482.7,180.8 482.7,187.5 474.5,187.5 474.5,192 466.4,192 466.4,195 458.2,195 458.2,199.5 
			450,199.5 450,204.8 441.9,204.8 441.9,207 433.8,207 433.8,212.2 425.6,212.2 425.6,219 417.5,219 417.5,223.5 409.3,223.5 
			409.3,228.8 401.2,228.8 401.2,235.5 393,235.5 393,243.8 384.9,243.8 384.9,260.2 376.7,260.2 376.7,276 368.5,276 368.5,286.5 
			360.4,286.5 360.4,309 352.2,309 352.2,324 344.1,324 344.1,324.8 336,324.8 336,330.8 327.8,330.8 327.8,336.8 319.7,336.8 
			319.7,338.2 311.5,338.2 311.5,346.5 303.4,346.5 303.4,348 295.2,348 295.2,363 287,363 287,367.5 278.9,367.5 278.9,369.8 
			270.8,369.8 270.8,373.5 262.6,373.5 262.6,379.5 254.5,379.5 254.5,385.5 246.3,385.5 246.3,390.8 238.2,390.8 238.2,396.8 
			230,396.8 230,405 221.9,405 221.9,405.8 213.7,405.8 213.7,410.2 205.5,410.2 205.5,414.8 197.4,414.8 197.4,419.2 189.2,419.2 
			189.2,423.8 181.1,423.8 181.1,428.2 173,428.2 173,431.2 164.8,431.2 164.8,433.5 156.7,433.5 156.7,436.5 148.5,436.5 
			148.5,439.5 140.4,439.5 140.4,445.5 132.2,445.5 132.2,447.8 124,447.8 124,450.8 115.9,450.8 115.9,453.8 107.8,453.8 
			107.8,456 99.6,456 99.6,459 91.5,459 91.5,461.2 83.3,461.2 83.3,462 75.2,462 67,462 58.8,462 58.8,462.8 50.7,462.8 
			42.6,462.8 42.5,462.8 34.4,462.8 34.4,463.5 42.5,463.5 42.6,463.5 50.7,463.5 58.8,463.5 58.9,463.5 67,463.5 75.2,463.5 
			83.3,463.5 83.3,463.5 91.5,463.5 99.6,463.5 99.6,463.5 107.8,463.5 115.9,463.5 124,463.5 124.1,463.5 132.2,463.5 140.4,463.5 
			148.5,463.5 148.5,463.5 156.7,463.5 164.8,463.5 164.8,463.5 173,463.5 181.1,463.5 189.2,463.5 189.3,463.5 197.4,463.5 
			205.5,463.5 205.6,463.5 213.7,463.5 221.9,463.5 230,463.5 230,463.5 238.2,463.5 246.3,463.5 246.3,463.5 254.5,463.5 
			262.6,463.5 270.8,463.5 270.8,463.5 278.9,463.5 287,463.5 287.1,463.5 295.2,463.5 303.4,463.5 311.5,463.5 311.5,463.5 
			319.7,463.5 327.8,463.5 327.8,463.5 336,463.5 344.1,463.5 352.2,463.5 352.3,463.5 360.4,463.5 368.5,463.5 368.6,463.5 
			376.7,463.5 384.9,463.5 393,463.5 393,463.5 401.2,463.5 409.3,463.5 409.3,463.5 417.5,463.5 425.6,463.5 433.8,463.5 
			433.8,463.5 441.9,463.5 450,463.5 450.1,463.5 458.2,463.5 466.4,463.5 474.5,463.5 474.5,463.5 482.7,463.5 490.8,463.5 
			490.8,463.5 499,463.5 507.1,463.5 515.2,463.5 515.3,463.5 523.4,463.5 531.5,463.5 531.6,463.5 539.7,463.5 547.8,463.5 
			547.9,463.5 556,463.5 564.2,463.5 572.3,463.5 572.3,463.5 580.5,463.5 588.6,463.5 588.6,463.5 596.8,463.5 604.9,463.5 
			613,463.5 613.1,463.5 621.2,463.5 629.3,463.5 629.4,463.5 637.5,463.5 637.5,0 		"/>
		<line class="st4" x1="26.2" y1="463.5" x2="637.5" y2="463.5"/>
	</g>
	<g class="st0">
		<text transform="matrix(1 0 0 1 3.515625e-02 387.8496)" class="st5 st6 st7">1000</text>
	</g>
	<g class="st0">
		<text transform="matrix(1 0 0 1 3.515625e-02 309.0996)" class="st5 st6 st7">2000</text>
	</g>
	<g class="st0">
		<text transform="matrix(1 0 0 1 3.515625e-02 231.0996)" class="st5 st6 st7">3000</text>
	</g>
	<g class="st0">
		<text transform="matrix(1 0 0 1 3.515625e-02 153.0996)" class="st5 st6 st7">4000</text>
	</g>
	<g class="st0">
		<text transform="matrix(1 0 0 1 3.515625e-02 74.3496)" class="st5 st6 st7">5000</text>
	</g>
</g>
<g>
	<text transform="matrix(1 0 0 1 617.2762 477.9846)" class="st8 st6 st7">5/24</text>
</g>
<g>
	<text transform="matrix(1 0 0 1 29.5325 477.9849)" class="st8 st6 st7">3/11</text>
</g>
</svg>
