<?xml version="1.0" encoding="utf-8"?>
<!-- Generator: Adobe Illustrator 23.0.1, SVG Export Plug-In . SVG Version: 6.00 Build 0)  -->
<svg version="1.1" id="Layer_1" xmlns="http://www.w3.org/2000/svg" xmlns:xlink="http://www.w3.org/1999/xlink" x="0px" y="0px"
	 viewBox="0 0 600 450" style="enable-background:new 0 0 600 450;" xml:space="preserve">
<style type="text/css">
	.st0{clip-path:url(#SVGID_2_);enable-background:new    ;}
	.st1{clip-path:url(#SVGID_4_);fill:none;stroke:#E8E8E8;stroke-width:0.75;stroke-miterlimit:10;}
	.st2{clip-path:url(#SVGID_4_);fill:#C71E1D;}
	.st3{clip-path:url(#SVGID_4_);fill:#C71E1D;fill-opacity:0.6;stroke:#000000;stroke-width:0.75;stroke-miterlimit:10;}
	.st4{clip-path:url(#SVGID_4_);fill:none;stroke:#333333;stroke-width:0.75;stroke-miterlimit:10;}
	.st5{clip-path:url(#SVGID_4_);}
	.st6{fill:#A6A6A6;}
	.st7{font-family:'Roboto-Regular';}
	.st8{font-size:9px;}
	.st9{fill:#333333;}
</style>
<g>
	<defs>
		<rect id="SVGID_1_" width="600" height="450"/>
	</defs>
	<clipPath id="SVGID_2_">
		<use xlink:href="#SVGID_1_"  style="overflow:visible;"/>
	</clipPath>
	<g class="st0">
		<g>
			<defs>
				<rect id="SVGID_3_" width="600" height="450"/>
			</defs>
			<clipPath id="SVGID_4_">
				<use xlink:href="#SVGID_3_"  style="overflow:visible;"/>
			</clipPath>
			<line class="st1" x1="26.2" y1="69.8" x2="600" y2="69.8"/>
			<line class="st1" x1="26.2" y1="129.8" x2="600" y2="129.8"/>
			<line class="st1" x1="26.2" y1="189" x2="600" y2="189"/>
			<line class="st1" x1="26.2" y1="248.2" x2="600" y2="248.2"/>
			<line class="st1" x1="26.2" y1="307.5" x2="600" y2="307.5"/>
			<line class="st1" x1="26.2" y1="366.8" x2="600" y2="366.8"/>
			<rect x="26.2" y="426" class="st2" width="10.4" height="0.4"/>
			<polygon class="st3" points="589.3,15.8 589.3,18.8 578.9,18.8 578.9,26.2 568.5,26.2 568.5,33 558,33 558,36.8 547.7,36.8 
				547.7,45.8 537.3,45.8 537.3,54.7 526.9,54.7 526.9,62.2 516.4,62.2 516.4,69.7 506,69.7 506,81 495.6,81 495.6,93 485.2,93 
				485.2,117.8 474.8,117.8 474.8,142.5 464.4,142.5 464.4,157.5 454,157.5 454,192 443.5,192 443.5,214.5 433.1,214.5 433.1,215.2 
				422.7,215.2 422.7,225 412.2,225 412.2,234 401.8,234 401.8,236.2 391.4,236.2 391.4,248.2 380.9,248.2 380.9,251.2 370.5,251.2 
				370.5,274.5 360.1,274.5 360.1,280.5 349.6,280.5 349.6,283.5 339.2,283.5 339.2,290.2 328.8,290.2 328.8,298.5 318.3,298.5 
				318.3,307.5 307.9,307.5 307.9,315.8 297.5,315.8 297.5,324.8 287,324.8 287,337.5 276.6,337.5 276.6,338.2 266.2,338.2 
				266.2,345 255.8,345 255.8,351.8 245.3,351.8 245.3,359.2 234.9,359.2 234.9,366 224.5,366 224.5,372.8 214,372.8 214,377.2 
				203.6,377.2 203.6,380.2 193.2,380.2 193.2,384.8 182.7,384.8 182.7,389.2 172.3,389.2 172.3,398.2 161.9,398.2 161.9,402 
				151.4,402 151.4,406.5 141,406.5 141,411.8 130.6,411.8 130.6,414 120.1,414 120.1,418.5 109.7,418.5 109.7,422.2 99.3,422.2 
				99.3,423.8 88.8,423.8 88.8,423.8 78.4,423.8 68,423.8 68,424.5 57.5,424.5 57.5,425.2 47.1,425.2 36.7,425.2 36.7,426 47.1,426 
				57.5,426 68,426 78.4,426 88.8,426 88.8,426 99.3,426 109.7,426 120.1,426 130.6,426 141,426 151.4,426 161.9,426 172.3,426 
				182.7,426 193.2,426 203.6,426 214,426 224.5,426 234.9,426 234.9,426 245.3,426 255.8,426 266.2,426 276.6,426 287,426 
				297.5,426 307.9,426 318.3,426 328.8,426 339.2,426 349.6,426 360.1,426 360.1,426 370.5,426 380.9,426 391.4,426 401.8,426 
				412.2,426 422.7,426 433.1,426 443.5,426 454,426 454,426 464.4,426 464.4,426 474.8,426 474.8,426 485.2,426 495.7,426 
				495.7,426 506,426 506,426 516.4,426 526.9,426 526.9,426 537.3,426 537.3,426 547.7,426 547.7,426 558,426 558.1,426 568.5,426 
				568.5,426 578.9,426 589.3,426 599.8,426 599.8,15.8 			"/>
			<line class="st4" x1="26.2" y1="426" x2="600" y2="426"/>
			<g class="st5">
				<text transform="matrix(1 0 0 1 5.8389 369.0996)" class="st6 st7 st8">500</text>
			</g>
			<g class="st5">
				<text transform="matrix(1 0 0 1 7.031250e-02 309.8496)" class="st6 st7 st8">1000</text>
			</g>
			<g class="st5">
				<text transform="matrix(1 0 0 1 7.031250e-02 250.5996)" class="st6 st7 st8">1500</text>
			</g>
			<g class="st5">
				<text transform="matrix(1 0 0 1 7.031250e-02 191.3496)" class="st6 st7 st8">2000</text>
			</g>
			<g class="st5">
				<text transform="matrix(1 0 0 1 7.031250e-02 132.0996)" class="st6 st7 st8">2500</text>
			</g>
			<g class="st5">
				<text transform="matrix(1 0 0 1 7.031250e-02 72.0996)" class="st6 st7 st8">3000</text>
			</g>
		</g>
	</g>
</g>
<text transform="matrix(1 0 0 1 33.9206 437.8443)" class="st9 st7 st8">3/11</text>
</svg>
