<?xml version="1.0" encoding="utf-8"?>
<!-- Generator: Adobe Illustrator 23.0.1, SVG Export Plug-In . SVG Version: 6.00 Build 0)  -->
<svg version="1.1" id="Layer_1" xmlns="http://www.w3.org/2000/svg" xmlns:xlink="http://www.w3.org/1999/xlink" x="0px" y="0px"
	 viewBox="0 0 637.5 487.5" style="enable-background:new 0 0 637.5 487.5;" xml:space="preserve">
<style type="text/css">
	.st0{clip-path:url(#SVGID_2_);}
	.st1{clip-path:url(#SVGID_4_);fill:none;stroke:#E8E8E8;stroke-width:0.75;stroke-miterlimit:10;}
	.st2{clip-path:url(#SVGID_4_);fill:#C71E1D;}
	.st3{clip-path:url(#SVGID_4_);fill:#C71E1D;fill-opacity:0.6;stroke:#000000;stroke-width:0.5;stroke-miterlimit:10;}
	.st4{clip-path:url(#SVGID_4_);fill:none;stroke:#333333;stroke-width:0.75;stroke-miterlimit:10;}
	.st5{fill:#A6A6A6;}
	.st6{font-family:'Roboto-Regular';}
	.st7{font-size:9px;}
	.st8{fill:#333333;}
</style>
<g>
	<defs>
		<rect id="SVGID_1_" width="637.5" height="487.5"/>
	</defs>
	<clipPath id="SVGID_2_">
		<use xlink:href="#SVGID_1_"  style="overflow:visible;"/>
	</clipPath>
	<g class="st0">
		<defs>
			<polyline id="SVGID_3_" points="0,483 0,0 637.5,0 637.5,483 			"/>
		</defs>
		<clipPath id="SVGID_4_">
			<use xlink:href="#SVGID_3_"  style="overflow:visible;"/>
		</clipPath>
		<line class="st1" x1="30.8" y1="54.8" x2="637.5" y2="54.8"/>
		<line class="st1" x1="30.8" y1="123" x2="637.5" y2="123"/>
		<line class="st1" x1="30.8" y1="191.2" x2="637.5" y2="191.2"/>
		<line class="st1" x1="30.8" y1="258.8" x2="637.5" y2="258.8"/>
		<line class="st1" x1="30.8" y1="327" x2="637.5" y2="327"/>
		<line class="st1" x1="30.8" y1="395.2" x2="637.5" y2="395.2"/>
		<rect x="30.8" y="463.5" class="st2" width="6.1" height="0.4"/>
		<rect x="36.9" y="463.5" class="st2" width="6.1" height="0.4"/>
		<rect x="43" y="463.5" class="st2" width="6.1" height="0.4"/>
		<polygon class="st3" points="631,0 631,14.2 624.9,14.2 624.9,23.2 618.7,23.2 618.7,37.5 612.6,37.5 612.6,51.8 606.5,51.8 
			606.5,70.5 600.4,70.5 600.4,95.2 594.2,95.2 594.2,110.2 588.1,110.2 588.1,120 582.1,120 582.1,132 576,132 576,142.5 
			569.8,142.5 569.8,153.8 563.7,153.8 563.7,168.8 557.6,168.8 557.6,176.2 551.5,176.2 551.5,189 545.3,189 545.3,197.2 
			539.2,197.2 539.2,210 533.1,210 533.1,216.8 526.9,216.8 526.9,224.2 520.8,224.2 520.8,232.5 514.7,232.5 514.7,240.8 
			508.6,240.8 508.6,249.8 502.4,249.8 502.4,252.8 496.3,252.8 496.3,258 490.2,258 490.2,261.8 484,261.8 484,267 477.9,267 
			477.9,272.2 471.8,272.2 471.8,277.5 465.7,277.5 465.7,293.2 459.5,293.2 459.5,295.5 453.5,295.5 453.5,299.2 447.4,299.2 
			447.4,301.5 441.3,301.5 441.3,307.5 435.1,307.5 435.1,311.2 429,311.2 429,315 422.9,315 422.9,319.5 416.8,319.5 416.8,321.8 
			410.6,321.8 410.6,325.5 404.5,325.5 404.5,327 398.4,327 398.4,327.8 392.2,327.8 392.2,336 386.1,336 386.1,337.5 380,337.5 
			380,340.5 373.8,340.5 373.8,343.5 367.7,343.5 367.7,345 361.6,345 361.6,346.5 355.5,346.5 355.5,348.8 349.4,348.8 349.4,351 
			343.2,351 343.2,351.8 337.1,351.8 337.1,354 331,354 331,357 324.9,357 324.9,359.2 318.7,359.2 318.7,361.5 312.6,361.5 
			312.6,364.5 306.5,364.5 306.5,367.5 300.3,367.5 300.3,375 294.2,375 294.2,381.8 288.1,381.8 288.1,386.2 282,386.2 282,396 
			275.8,396 275.8,402.8 269.7,402.8 263.6,402.8 263.6,405.8 257.4,405.8 257.4,408 251.3,408 251.3,408.8 245.2,408.8 
			245.2,412.5 239.1,412.5 239.1,413.2 232.9,413.2 232.9,420 226.8,420 226.8,421.5 220.7,421.5 220.7,422.2 214.5,422.2 
			214.5,424.5 208.4,424.5 208.4,426.8 202.3,426.8 202.3,429.8 196.2,429.8 196.2,432 190,432 190,434.2 183.9,434.2 183.9,438 
			177.8,438 171.6,438 171.6,440.2 165.6,440.2 165.6,442.5 159.5,442.5 159.5,444 153.3,444 153.3,446.2 147.2,446.2 147.2,448.5 
			141.1,448.5 141.1,449.2 134.9,449.2 134.9,450 128.8,450 128.8,451.5 122.7,451.5 122.7,453 116.6,453 116.6,455.2 110.4,455.2 
			110.4,456.8 104.3,456.8 104.3,458.2 98.2,458.2 98.2,459 92,459 92,459.8 85.9,459.8 85.9,461.2 79.8,461.2 79.8,462.8 
			73.7,462.8 73.7,462.8 67.5,462.8 61.4,462.8 55.3,462.8 49.1,462.8 49.1,463.5 55.3,463.5 61.4,463.5 67.5,463.5 73.7,463.5 
			73.7,463.5 79.8,463.5 85.9,463.5 92,463.5 98.2,463.5 104.3,463.5 110.4,463.5 116.6,463.5 122.7,463.5 128.8,463.5 134.9,463.5 
			141.1,463.5 147.2,463.5 153.3,463.5 159.5,463.5 165.6,463.5 171.6,463.5 171.7,463.5 177.8,463.5 183.9,463.5 190,463.5 
			196.2,463.5 202.3,463.5 208.4,463.5 214.5,463.5 220.7,463.5 226.8,463.5 232.9,463.5 239.1,463.5 245.2,463.5 251.3,463.5 
			257.4,463.5 263.6,463.5 269.7,463.5 275.8,463.5 282,463.5 288.1,463.5 294.2,463.5 300.3,463.5 306.5,463.5 312.6,463.5 
			318.7,463.5 324.9,463.5 331,463.5 337.1,463.5 343.2,463.5 349.4,463.5 355.5,463.5 361.6,463.5 361.6,463.5 367.7,463.5 
			373.8,463.5 380,463.5 386.1,463.5 392.2,463.5 398.4,463.5 404.5,463.5 410.6,463.5 416.8,463.5 422.9,463.5 429,463.5 
			435.1,463.5 441.3,463.5 447.4,463.5 453.5,463.5 459.5,463.5 459.7,463.5 465.7,463.5 471.8,463.5 477.9,463.5 484,463.5 
			490.2,463.5 496.3,463.5 502.4,463.5 508.6,463.5 514.7,463.5 520.8,463.5 526.9,463.5 533.1,463.5 539.2,463.5 545.3,463.5 
			551.5,463.5 557.6,463.5 563.7,463.5 569.8,463.5 576,463.5 582.1,463.5 588.1,463.5 588.2,463.5 594.2,463.5 600.4,463.5 
			606.5,463.5 612.6,463.5 618.7,463.5 624.9,463.5 631,463.5 637.1,463.5 637.1,0 		"/>
		<line class="st4" x1="30.8" y1="463.5" x2="637.5" y2="463.5"/>
	</g>
	<g class="st0">
		<text transform="matrix(1 0 0 1 5.2852 398.3496)" class="st5 st6 st7">2000</text>
	</g>
	<g class="st0">
		<text transform="matrix(1 0 0 1 5.2852 330.0996)" class="st5 st6 st7">4000</text>
	</g>
	<g class="st0">
		<text transform="matrix(1 0 0 1 5.2852 261.8496)" class="st5 st6 st7">6000</text>
	</g>
	<g class="st0">
		<text transform="matrix(1 0 0 1 5.2852 194.3496)" class="st5 st6 st7">8000</text>
	</g>
	<g class="st0">
		<text transform="matrix(1 0 0 1 0.9814 126.0996)" class="st5 st6 st7">10000</text>
	</g>
	<g class="st0">
		<text transform="matrix(1 0 0 1 0.9814 57.8496)" class="st5 st6 st7">12000</text>
	</g>
</g>
<g>
	<text transform="matrix(1 0 0 1 617.5582 477.7777)" class="st8 st6 st7">6/17</text>
</g>
<g>
	<text transform="matrix(1 0 0 1 43.8657 477.7777)" class="st8 st6 st7">3/11</text>
</g>
</svg>
