<?xml version="1.0" encoding="utf-8"?>
<!-- Generator: Adobe Illustrator 23.0.1, SVG Export Plug-In . SVG Version: 6.00 Build 0)  -->
<svg version="1.1" id="Layer_1" xmlns="http://www.w3.org/2000/svg" xmlns:xlink="http://www.w3.org/1999/xlink" x="0px" y="0px"
	 viewBox="0 0 637.5 487.5" style="enable-background:new 0 0 637.5 487.5;" xml:space="preserve">
<style type="text/css">
	.st0{clip-path:url(#SVGID_2_);}
	.st1{clip-path:url(#SVGID_4_);fill:none;stroke:#E8E8E8;stroke-width:0.75;stroke-miterlimit:10;}
	.st2{clip-path:url(#SVGID_4_);fill:#C71E1D;}
	.st3{clip-path:url(#SVGID_4_);fill:#C71E1D;fill-opacity:0.6;stroke:#000000;stroke-width:0.5;stroke-miterlimit:10;}
	.st4{clip-path:url(#SVGID_4_);fill:none;stroke:#333333;stroke-width:0.75;stroke-miterlimit:10;}
	.st5{fill:#A6A6A6;}
	.st6{font-family:'Roboto-Regular';}
	.st7{font-size:9px;}
	.st8{fill:#333333;}
</style>
<g>
	<defs>
		<rect id="SVGID_1_" width="637.5" height="487.5"/>
	</defs>
	<clipPath id="SVGID_2_">
		<use xlink:href="#SVGID_1_"  style="overflow:visible;"/>
	</clipPath>
	<g class="st0">
		<defs>
			<rect id="SVGID_3_" width="637.5" height="483"/>
		</defs>
		<clipPath id="SVGID_4_">
			<use xlink:href="#SVGID_3_"  style="overflow:visible;"/>
		</clipPath>
		<line class="st1" x1="30.8" y1="42" x2="637.5" y2="42"/>
		<line class="st1" x1="30.8" y1="111.8" x2="637.5" y2="111.8"/>
		<line class="st1" x1="30.8" y1="182.2" x2="637.5" y2="182.2"/>
		<line class="st1" x1="30.8" y1="252.8" x2="637.5" y2="252.8"/>
		<line class="st1" x1="30.8" y1="323.2" x2="637.5" y2="323.2"/>
		<line class="st1" x1="30.8" y1="393" x2="637.5" y2="393"/>
		<rect x="30.8" y="463.5" class="st2" width="6.2" height="0.4"/>
		<rect x="36.9" y="463.5" class="st2" width="6.2" height="0.4"/>
		<rect x="43.1" y="463.5" class="st2" width="6.2" height="0.4"/>
		<polygon class="st3" points="630.5,0 630.5,9.7 624.4,9.7 624.4,24 618.2,24 618.2,38.2 612,38.2 612,57.7 605.8,57.7 605.8,83.2 
			599.6,83.2 599.6,99 593.4,99 593.4,109.5 587.2,109.5 587.2,121.5 581,121.5 581,132 574.8,132 574.8,144 568.6,144 568.6,159.7 
			562.4,159.7 562.4,167.2 556.3,167.2 556.3,180 550.1,180 550.1,189 543.9,189 543.9,201.7 537.7,201.7 537.7,208.5 531.5,208.5 
			531.5,216.7 525.3,216.7 525.3,225 519.1,225 519.1,234 512.9,234 512.9,243 506.7,243 506.7,246 500.6,246 500.6,252 494.4,252 
			494.4,255.8 488.2,255.8 488.2,260.2 482.1,260.2 482.1,266.2 475.9,266.2 475.9,271.5 469.7,271.5 469.7,288 463.6,288 
			463.6,290.3 457.4,290.3 457.4,294 451.2,294 451.2,296.3 445,296.3 445,303 438.8,303 438.8,306.8 432.7,306.8 432.7,309.8 
			426.5,309.8 426.5,315 420.3,315 420.3,317.2 414.1,317.2 414.1,321.8 408,321.8 408,322.5 401.9,322.5 401.9,323.2 395.7,323.2 
			395.7,331.5 389.5,331.5 389.5,333.7 383.3,333.7 383.3,336.7 377.1,336.7 377.1,339.7 370.9,339.7 370.9,341.2 364.7,341.2 
			364.7,342.7 358.5,342.7 358.5,345 352.3,345 352.3,347.2 346.2,347.2 346.2,348 340,348 340,351 333.9,351 333.9,353.2 
			327.7,353.2 327.7,355.5 321.6,355.5 321.6,357.8 315.4,357.8 315.4,361.5 309.2,361.5 309.2,364.5 303,364.5 303,372 296.8,372 
			296.8,379.5 290.6,379.5 290.6,384 284.4,384 284.4,394.5 278.2,394.5 278.2,401.2 272,401.2 265.8,401.2 265.8,404.2 
			259.8,404.2 259.8,406.5 253.6,406.5 253.6,407.2 247.4,407.2 247.4,411 241.2,411 241.2,411.8 235,411.8 235,418.5 228.8,418.5 
			228.8,420 222.6,420 222.6,421.5 216.4,421.5 216.4,423 210.2,423 210.2,426 204,426 204,428.2 197.8,428.2 197.8,431.2 
			191.7,431.2 191.7,433.5 185.5,433.5 185.5,437.2 179.3,437.2 173.1,437.2 173.1,439.5 166.9,439.5 166.9,441.8 160.7,441.8 
			160.7,444 154.5,444 154.5,445.5 148.3,445.5 148.3,447.8 142.1,447.8 142.1,449.2 135.9,449.2 135.9,450 129.7,450 129.7,451.5 
			123.5,451.5 123.5,453 117.4,453 117.4,455.2 111.2,455.2 111.2,456.8 105,456.8 105,457.5 98.8,457.5 98.8,459 92.6,459 
			92.6,459.8 86.4,459.8 86.4,461.2 80.2,461.2 80.2,462 74,462 74,462.8 67.8,462.8 61.7,462.8 61.6,462.8 55.5,462.8 49.3,462.8 
			49.3,463.5 55.5,463.5 61.6,463.5 61.7,463.5 67.8,463.5 74,463.5 80.2,463.5 86.4,463.5 92.6,463.5 98.8,463.5 105,463.5 
			111.2,463.5 117.4,463.5 123.5,463.5 129.7,463.5 135.9,463.5 142.1,463.5 148.3,463.5 154.5,463.5 160.7,463.5 166.9,463.5 
			173.1,463.5 179.3,463.5 185.5,463.5 185.5,463.5 191.7,463.5 197.8,463.5 204,463.5 210.2,463.5 216.4,463.5 222.6,463.5 
			228.8,463.5 235,463.5 241.2,463.5 247.4,463.5 253.6,463.5 259.8,463.5 265.8,463.5 265.9,463.5 272,463.5 278.2,463.5 
			284.4,463.5 290.6,463.5 296.8,463.5 303,463.5 309.2,463.5 315.4,463.5 321.6,463.5 327.7,463.5 327.7,463.5 333.9,463.5 
			340,463.5 346.2,463.5 346.2,463.5 352.3,463.5 358.5,463.5 364.7,463.5 370.9,463.5 377.1,463.5 383.3,463.5 389.5,463.5 
			395.7,463.5 401.9,463.5 408,463.5 408,463.5 414.1,463.5 420.3,463.5 426.5,463.5 426.5,463.5 432.7,463.5 438.8,463.5 
			445,463.5 451.2,463.5 457.4,463.5 463.6,463.5 469.8,463.5 469.8,463.5 475.9,463.5 482.1,463.5 488.2,463.5 488.2,463.5 
			494.4,463.5 500.6,463.5 506.8,463.5 506.8,463.5 512.9,463.5 519.1,463.5 525.3,463.5 531.5,463.5 531.5,463.5 537.7,463.5 
			543.9,463.5 550.1,463.5 550.1,463.5 556.3,463.5 562.4,463.5 568.6,463.5 568.6,463.5 574.8,463.5 581,463.5 587.2,463.5 
			587.2,463.5 593.4,463.5 599.6,463.5 605.8,463.5 612,463.5 612,463.5 618.2,463.5 624.4,463.5 630.5,463.5 630.5,463.5 
			636.7,463.5 636.7,0 		"/>
		<line class="st4" x1="30.8" y1="463.5" x2="637.5" y2="463.5"/>
	</g>
	<g class="st0">
		<text transform="matrix(1 0 0 1 5.2852 396.0996)" class="st5 st6 st7">2000</text>
	</g>
	<g class="st0">
		<text transform="matrix(1 0 0 1 5.2852 326.3496)" class="st5 st6 st7">4000</text>
	</g>
	<g class="st0">
		<text transform="matrix(1 0 0 1 5.2852 255.8496)" class="st5 st6 st7">6000</text>
	</g>
	<g class="st0">
		<text transform="matrix(1 0 0 1 5.2852 185.3496)" class="st5 st6 st7">8000</text>
	</g>
	<g class="st0">
		<text transform="matrix(1 0 0 1 0.9814 114.8496)" class="st5 st6 st7">10000</text>
	</g>
	<g class="st0">
		<text transform="matrix(1 0 0 1 0.9814 45.0996)" class="st5 st6 st7">12000</text>
	</g>
</g>
<g>
	<text transform="matrix(1 0 0 1 618.0679 478.0588)" class="st8 st6 st7">6/16</text>
</g>
<g>
	<text transform="matrix(1 0 0 1 44.8502 478.0586)" class="st8 st6 st7">3/11</text>
</g>
</svg>
