<?xml version="1.0" encoding="utf-8"?>
<!-- Generator: Adobe Illustrator 23.0.1, SVG Export Plug-In . SVG Version: 6.00 Build 0)  -->
<svg version="1.1" id="Layer_1" xmlns="http://www.w3.org/2000/svg" xmlns:xlink="http://www.w3.org/1999/xlink" x="0px" y="0px"
	 viewBox="0 0 637.5 487.5" style="enable-background:new 0 0 637.5 487.5;" xml:space="preserve">
<style type="text/css">
	.st0{clip-path:url(#SVGID_2_);}
	.st1{clip-path:url(#SVGID_4_);fill:none;stroke:#E8E8E8;stroke-width:0.75;stroke-miterlimit:10;}
	.st2{clip-path:url(#SVGID_4_);fill:#C71E1D;}
	.st3{clip-path:url(#SVGID_4_);fill:#C71E1D;fill-opacity:0.6;stroke:#000000;stroke-width:0.5;stroke-miterlimit:10;}
	.st4{clip-path:url(#SVGID_4_);fill:none;stroke:#333333;stroke-width:0.75;stroke-miterlimit:10;}
	.st5{fill:#A6A6A6;}
	.st6{font-family:'Roboto-Regular';}
	.st7{font-size:9px;}
	.st8{fill:#333333;}
</style>
<g>
	<defs>
		<rect id="SVGID_1_" width="637.5" height="487.5"/>
	</defs>
	<clipPath id="SVGID_2_">
		<use xlink:href="#SVGID_1_"  style="overflow:visible;"/>
	</clipPath>
	<g class="st0">
		<defs>
			<rect id="SVGID_3_" width="637.5" height="483"/>
		</defs>
		<clipPath id="SVGID_4_">
			<use xlink:href="#SVGID_3_"  style="overflow:visible;"/>
		</clipPath>
		<line class="st1" x1="26.2" y1="2.2" x2="637.5" y2="2.2"/>
		<line class="st1" x1="26.2" y1="78.8" x2="637.5" y2="78.8"/>
		<line class="st1" x1="26.2" y1="156" x2="637.5" y2="156"/>
		<line class="st1" x1="26.2" y1="232.5" x2="637.5" y2="232.5"/>
		<line class="st1" x1="26.2" y1="309.8" x2="637.5" y2="309.8"/>
		<line class="st1" x1="26.2" y1="386.2" x2="637.5" y2="386.2"/>
		<rect x="26.2" y="463.5" class="st2" width="8" height="0.4"/>
		<polygon class="st3" points="629.5,0 629.5,8.2 621.4,8.2 621.4,19.5 613.4,19.5 613.4,32.2 605.3,32.2 605.3,44.2 597.3,44.2 
			597.3,78.8 589.2,78.8 589.2,84.8 581.2,84.8 581.2,92.2 573.2,92.2 573.2,97.5 565.1,97.5 565.1,111.8 557.1,111.8 557.1,120.8 
			549,120.8 549,127.5 541,127.5 541,138 532.9,138 532.9,143.2 524.9,143.2 524.9,153 516.9,153 516.9,155.2 508.8,155.2 
			508.8,157.5 500.8,157.5 500.8,175.5 492.7,175.5 492.7,179.2 484.7,179.2 484.7,186 476.6,186 476.6,192.8 468.6,192.8 
			468.6,196.5 460.6,196.5 460.6,199.5 452.5,199.5 452.5,204 444.5,204 444.5,209.2 436.4,209.2 436.4,211.5 428.4,211.5 
			428.4,216.8 420.3,216.8 420.3,222.8 412.3,222.8 412.3,227.2 404.3,227.2 404.3,232.5 396.2,232.5 396.2,240 388.2,240 
			388.2,247.5 380.1,247.5 380.1,264 372.1,264 372.1,279.8 364,279.8 364,289.5 356,289.5 356,312 348,312 348,326.2 339.9,326.2 
			339.9,327 331.9,327 331.9,333 323.8,333 323.8,339 315.8,339 315.8,340.5 307.7,340.5 307.7,348 299.7,348 299.7,350.2 
			291.7,350.2 291.7,365.2 283.6,365.2 283.6,369 275.6,369 275.6,371.2 267.5,371.2 267.5,375.8 259.5,375.8 259.5,381 251.4,381 
			251.4,387 243.4,387 243.4,392.2 235.4,392.2 235.4,398.2 227.3,398.2 227.3,406.5 219.3,406.5 211.2,406.5 211.2,411 203.2,411 
			203.2,415.5 195.1,415.5 195.1,420 187.1,420 187.1,424.5 179.1,424.5 179.1,429 171,429 171,432 163,432 163,433.5 154.9,433.5 
			154.9,436.5 146.9,436.5 146.9,439.5 138.8,439.5 138.8,445.5 130.8,445.5 130.8,447.8 122.8,447.8 122.8,450.8 114.7,450.8 
			114.7,453.8 106.7,453.8 106.7,456 98.6,456 98.6,459 90.6,459 90.6,461.2 82.5,461.2 82.5,462 74.5,462 66.5,462 58.4,462 
			58.4,462.8 50.4,462.8 42.3,462.8 34.3,462.8 34.3,463.5 42.3,463.5 50.4,463.5 58.4,463.5 66.5,463.5 74.5,463.5 82.5,463.5 
			82.5,463.5 90.6,463.5 98.6,463.5 106.7,463.5 106.7,463.5 114.7,463.5 122.8,463.5 130.8,463.5 130.8,463.5 138.8,463.5 
			146.9,463.5 154.9,463.5 163,463.5 171,463.5 171,463.5 179.1,463.5 187.1,463.5 195.1,463.5 195.1,463.5 203.2,463.5 
			211.2,463.5 219.3,463.5 227.3,463.5 235.4,463.5 243.4,463.5 251.4,463.5 259.5,463.5 267.5,463.5 267.5,463.5 275.6,463.5 
			283.6,463.5 283.6,463.5 291.7,463.5 299.7,463.5 307.7,463.5 307.7,463.5 315.8,463.5 323.8,463.5 331.9,463.5 331.9,463.5 
			339.9,463.5 348,463.5 356,463.5 356,463.5 364,463.5 372.1,463.5 372.1,463.5 380.1,463.5 388.2,463.5 396.2,463.5 396.2,463.5 
			404.3,463.5 412.3,463.5 420.3,463.5 420.3,463.5 428.4,463.5 436.4,463.5 436.4,463.5 444.5,463.5 452.5,463.5 460.6,463.5 
			460.6,463.5 468.6,463.5 476.6,463.5 484.7,463.5 484.7,463.5 492.7,463.5 500.8,463.5 508.8,463.5 508.8,463.5 516.9,463.5 
			524.9,463.5 524.9,463.5 532.9,463.5 541,463.5 541,463.5 549,463.5 557.1,463.5 565.1,463.5 565.1,463.5 573.2,463.5 
			581.2,463.5 589.2,463.5 589.2,463.5 597.3,463.5 605.3,463.5 605.3,463.5 613.4,463.5 621.4,463.5 629.5,463.5 629.5,463.5 
			637.5,463.5 637.5,0 		"/>
		<line class="st4" x1="26.2" y1="463.5" x2="637.5" y2="463.5"/>
	</g>
	<g class="st0">
		<text transform="matrix(1 0 0 1 3.515625e-02 388.5996)" class="st5 st6 st7">1000</text>
	</g>
	<g class="st0">
		<text transform="matrix(1 0 0 1 3.515625e-02 312.0996)" class="st5 st6 st7">2000</text>
	</g>
	<g class="st0">
		<text transform="matrix(1 0 0 1 3.515625e-02 234.8496)" class="st5 st6 st7">3000</text>
	</g>
	<g class="st0">
		<text transform="matrix(1 0 0 1 3.515625e-02 158.3496)" class="st5 st6 st7">4000</text>
	</g>
	<g class="st0">
		<text transform="matrix(1 0 0 1 3.515625e-02 81.0996)" class="st5 st6 st7">5000</text>
	</g>
	<g class="st0">
		<text transform="matrix(1 0 0 1 3.515625e-02 6.5996)" class="st5 st6 st7">6000</text>
	</g>
</g>
<g>
	<text transform="matrix(1 0 0 1 618.3755 478.0599)" class="st8 st6 st7">5/25</text>
</g>
<g>
	<text transform="matrix(1 0 0 1 30.1628 478.0599)" class="st8 st6 st7">3/11</text>
</g>
</svg>
