<?xml version="1.0" encoding="utf-8"?>
<!-- Generator: Adobe Illustrator 23.0.1, SVG Export Plug-In . SVG Version: 6.00 Build 0)  -->
<svg version="1.1" id="Layer_1" xmlns="http://www.w3.org/2000/svg" xmlns:xlink="http://www.w3.org/1999/xlink" x="0px" y="0px"
	 viewBox="0 0 637.5 487.5" style="enable-background:new 0 0 637.5 487.5;" xml:space="preserve">
<style type="text/css">
	.st0{clip-path:url(#SVGID_2_);}
	.st1{clip-path:url(#SVGID_4_);fill:none;stroke:#E8E8E8;stroke-width:0.75;stroke-miterlimit:10;}
	.st2{clip-path:url(#SVGID_4_);fill:#C71E1D;}
	.st3{clip-path:url(#SVGID_4_);fill:#C71E1D;fill-opacity:0.6;stroke:#000000;stroke-width:0.5;stroke-miterlimit:10;}
	.st4{clip-path:url(#SVGID_4_);fill:none;stroke:#333333;stroke-width:0.75;stroke-miterlimit:10;}
	.st5{fill:#A6A6A6;}
	.st6{font-family:'Roboto-Regular';}
	.st7{font-size:9px;}
	.st8{fill:#333333;}
</style>
<g>
	<defs>
		<rect id="SVGID_1_" width="637.5" height="487.5"/>
	</defs>
	<clipPath id="SVGID_2_">
		<use xlink:href="#SVGID_1_"  style="overflow:visible;"/>
	</clipPath>
	<g class="st0">
		<defs>
			<rect id="SVGID_3_" width="637.5" height="483"/>
		</defs>
		<clipPath id="SVGID_4_">
			<use xlink:href="#SVGID_3_"  style="overflow:visible;"/>
		</clipPath>
		<line class="st1" x1="26.2" y1="13.5" x2="637.5" y2="13.5"/>
		<line class="st1" x1="26.2" y1="88.5" x2="637.5" y2="88.5"/>
		<line class="st1" x1="26.2" y1="163.5" x2="637.5" y2="163.5"/>
		<line class="st1" x1="26.2" y1="238.5" x2="637.5" y2="238.5"/>
		<line class="st1" x1="26.2" y1="313.5" x2="637.5" y2="313.5"/>
		<line class="st1" x1="26.2" y1="388.5" x2="637.5" y2="388.5"/>
		<rect x="26.2" y="463.5" class="st2" width="7.9" height="0.4"/>
		<polygon class="st3" points="626.8,0 626.8,11.2 618.9,11.2 618.9,19.5 611,19.5 611,30 603.1,30 603.1,42.8 595.1,42.8 595.1,54 
			587.3,54 587.3,88.5 579.4,88.5 579.4,94.5 571.4,94.5 571.4,101.2 563.7,101.2 563.7,106.5 555.7,106.5 555.7,120 547.8,120 
			547.8,129 540.1,129 540.1,135.8 532.1,135.8 532.1,145.5 524.2,145.5 524.2,151.5 516.2,151.5 516.2,160.5 508.4,160.5 
			508.4,162.8 500.5,162.8 500.5,165 492.5,165 492.5,182.2 484.6,182.2 484.6,186.8 476.9,186.8 476.9,192.8 468.9,192.8 
			468.9,198.8 461,198.8 461,203.2 453.1,203.2 453.1,206.2 445.2,206.2 445.2,210.8 437.3,210.8 437.3,215.2 429.4,215.2 
			429.4,217.5 421.5,217.5 421.5,222.8 413.5,222.8 413.5,228.8 405.6,228.8 405.6,233.2 397.8,233.2 397.8,238.5 389.8,238.5 
			389.8,245.2 381.9,245.2 381.9,252.8 374.1,252.8 374.1,268.6 366.2,268.6 366.2,284.3 358.3,284.3 358.3,294 350.5,294 
			350.5,315.8 342.6,315.8 342.6,330 334.7,330 326.7,330 326.7,336 318.9,336 318.9,342 310.9,342 310.9,343.5 303,343.5 
			303,351.1 295.3,351.1 295.3,352.6 287.3,352.6 287.3,367.6 279.4,367.6 279.4,371.3 271.4,371.3 271.4,373.5 263.7,373.5 
			263.7,377.2 255.8,377.2 255.8,382.5 247.8,382.5 247.8,388.5 239.9,388.5 239.9,393.8 232,393.8 232,399.8 224,399.8 224,408.1 
			216.2,408.1 208.2,408.1 208.2,412.6 200.3,412.6 200.3,417 192.5,417 192.5,421.5 184.5,421.5 184.5,425.2 176.6,425.2 
			176.6,429.8 168.8,429.8 168.8,432.8 160.8,432.8 160.8,434.2 152.9,434.2 152.9,437.2 145,437.2 145,440.2 137.2,440.2 
			137.2,446.2 129.2,446.2 129.2,448.5 121.3,448.5 121.3,450.8 113.4,450.8 113.4,454.5 105.5,454.5 105.5,456 97.5,456 97.5,459 
			89.6,459 89.6,461.2 81.7,461.2 81.7,462 73.7,462 65.8,462 65.8,462 57.9,462 57.9,462.8 49.9,462.8 42.1,462.8 42,462.8 
			34.2,462.8 34.2,463.5 42,463.5 42.1,463.5 49.9,463.5 57.9,463.5 65.8,463.5 65.8,463.5 73.7,463.5 81.7,463.5 89.6,463.5 
			97.5,463.5 105.5,463.5 113.4,463.5 121.3,463.5 121.4,463.5 129.2,463.5 137.2,463.5 145,463.5 145.1,463.5 152.9,463.5 
			160.8,463.5 168.8,463.5 176.6,463.5 176.7,463.5 184.5,463.5 192.5,463.5 200.3,463.5 200.3,463.6 208.2,463.6 216.2,463.6 
			224.1,463.6 224.1,463.5 232,463.5 239.9,463.5 247.8,463.5 255.8,463.5 263.7,463.5 271.4,463.5 271.4,463.6 279.4,463.6 
			287.3,463.6 295.3,463.6 303.2,463.6 303.2,463.5 310.9,463.5 318.9,463.5 326.7,463.5 326.8,463.5 334.7,463.5 342.6,463.5 
			350.5,463.5 358.3,463.5 358.3,463.6 366.2,463.6 374.1,463.6 382.1,463.6 382.1,463.5 389.8,463.5 397.8,463.5 405.6,463.5 
			405.7,463.5 413.5,463.5 421.5,463.5 429.4,463.5 437.3,463.5 437.4,463.5 445.2,463.5 453.1,463.5 461,463.5 461,463.6 
			468.9,463.6 476.9,463.6 484.8,463.6 484.8,463.5 492.5,463.5 500.5,463.5 508.4,463.5 516.2,463.5 516.3,463.5 524.2,463.5 
			532.1,463.5 540.1,463.5 547.8,463.5 548,463.5 555.7,463.5 563.7,463.5 571.4,463.5 571.6,463.5 579.4,463.5 587.3,463.5 
			595.1,463.5 595.2,463.5 603.1,463.5 611,463.5 618.9,463.5 626.8,463.5 626.9,463.5 634.7,463.5 634.7,0 		"/>
		<line class="st4" x1="26.2" y1="463.5" x2="637.5" y2="463.5"/>
	</g>
	<g class="st0">
		<text transform="matrix(1 0 0 1 3.515625e-02 390.8496)" class="st5 st6 st7">1000</text>
	</g>
	<g class="st0">
		<text transform="matrix(1 0 0 1 3.515625e-02 315.8496)" class="st5 st6 st7">2000</text>
	</g>
	<g class="st0">
		<text transform="matrix(1 0 0 1 3.515625e-02 240.8496)" class="st5 st6 st7">3000</text>
	</g>
	<g class="st0">
		<text transform="matrix(1 0 0 1 3.515625e-02 165.8496)" class="st5 st6 st7">4000</text>
	</g>
	<g class="st0">
		<text transform="matrix(1 0 0 1 3.515625e-02 90.8496)" class="st5 st6 st7">5000</text>
	</g>
	<g class="st0">
		<text transform="matrix(1 0 0 1 3.515625e-02 15.8496)" class="st5 st6 st7">6000</text>
	</g>
</g>
<g>
	<text transform="matrix(1 0 0 1 617.3654 478.4714)" class="st8 st6 st7">5/26</text>
</g>
<g>
	<text transform="matrix(1 0 0 1 30.0915 478.4716)" class="st8 st6 st7">3/11</text>
</g>
</svg>
