<?xml version="1.0" encoding="utf-8"?>
<!-- Generator: Adobe Illustrator 23.0.1, SVG Export Plug-In . SVG Version: 6.00 Build 0)  -->
<svg version="1.1" id="Layer_1" xmlns="http://www.w3.org/2000/svg" xmlns:xlink="http://www.w3.org/1999/xlink" x="0px" y="0px"
	 viewBox="0 0 637.5 487.5" style="enable-background:new 0 0 637.5 487.5;" xml:space="preserve">
<style type="text/css">
	.st0{clip-path:url(#SVGID_2_);}
	.st1{clip-path:url(#SVGID_4_);fill:none;stroke:#E8E8E8;stroke-width:0.75;stroke-miterlimit:10;}
	.st2{clip-path:url(#SVGID_4_);fill:#C71E1D;}
	.st3{clip-path:url(#SVGID_4_);fill:#C71E1D;fill-opacity:0.6;stroke:#000000;stroke-width:0.5;stroke-miterlimit:10;}
	.st4{clip-path:url(#SVGID_4_);fill:none;stroke:#333333;stroke-width:0.75;stroke-miterlimit:10;}
	.st5{fill:#A6A6A6;}
	.st6{font-family:'Roboto-Regular';}
	.st7{font-size:9px;}
	.st8{fill:#333333;}
</style>
<g>
	<defs>
		<rect id="SVGID_1_" width="637.5" height="487.5"/>
	</defs>
	<clipPath id="SVGID_2_">
		<use xlink:href="#SVGID_1_"  style="overflow:visible;"/>
	</clipPath>
	<g class="st0">
		<defs>
			<polyline id="SVGID_3_" points="0,483 0,0 637.5,0 637.5,483 			"/>
		</defs>
		<clipPath id="SVGID_4_">
			<use xlink:href="#SVGID_3_"  style="overflow:visible;"/>
		</clipPath>
		<line class="st1" x1="30.8" y1="3.8" x2="637.5" y2="3.8"/>
		<line class="st1" x1="30.8" y1="80.2" x2="637.5" y2="80.2"/>
		<line class="st1" x1="30.8" y1="156.8" x2="637.5" y2="156.8"/>
		<line class="st1" x1="30.8" y1="233.2" x2="637.5" y2="233.2"/>
		<line class="st1" x1="30.8" y1="310.5" x2="637.5" y2="310.5"/>
		<line class="st1" x1="30.8" y1="387" x2="637.5" y2="387"/>
		<rect x="30.8" y="463.5" class="st2" width="6.4" height="0.4"/>
		<rect x="37.1" y="463.5" class="st2" width="6.4" height="0.4"/>
		<rect x="43.5" y="463.5" class="st2" width="6.4" height="0.4"/>
		<polygon class="st3" points="631,0 631,21 624.6,21 624.6,48.8 618.2,48.8 618.2,66 611.8,66 611.8,77.2 605.5,77.2 605.5,90 
			599.1,90 599.1,102 592.7,102 592.7,114.8 586.3,114.8 586.3,132 579.9,132 579.9,141 573.5,141 573.5,154.5 567.1,154.5 
			567.1,164.2 560.7,164.2 560.7,178.5 554.4,178.5 554.4,185.2 548,185.2 548,195 541.6,195 541.6,204 535.2,204 535.2,213 
			528.8,213 528.8,222.8 522.4,222.8 522.4,226.5 516,226.5 516,232.5 509.7,232.5 509.7,236.2 503.3,236.2 503.3,242.2 
			496.9,242.2 496.9,248.2 490.5,248.2 490.5,254.2 484.1,254.2 484.1,271.5 477.7,271.5 477.7,274.5 471.3,274.5 471.3,278.2 
			464.9,278.2 464.9,281.2 458.6,281.2 458.6,288 452.2,288 452.2,292.5 445.8,292.5 445.8,296.2 439.4,296.2 439.4,301.5 
			433,301.5 433,303.8 426.6,303.8 426.6,308.2 420.2,308.2 420.2,309.8 413.9,309.8 413.9,310.5 407.5,310.5 407.5,320.2 
			401.1,320.2 401.1,321.8 394.8,321.8 394.8,324.8 388.4,324.8 388.4,328.5 382,328.5 382,330.8 375.6,330.8 375.6,332.2 
			369.2,332.2 369.2,334.5 362.8,334.5 362.8,336.8 356.4,336.8 356.4,337.5 350,337.5 350,340.5 343.7,340.5 343.7,343.5 
			337.3,343.5 337.3,345.8 330.9,345.8 330.9,348.8 324.5,348.8 324.5,351.8 318.1,351.8 318.1,355.5 311.7,355.5 311.7,363.8 
			305.3,363.8 305.3,372 299,372 299,376.5 292.6,376.5 292.6,387.8 286.2,387.8 286.2,395.2 279.8,395.2 273.4,395.2 273.4,398.2 
			267,398.2 267,401.2 260.6,401.2 260.6,402 254.2,402 254.2,405.8 247.9,405.8 247.9,407.2 241.5,407.2 241.5,414.8 235.1,414.8 
			235.1,416.2 228.7,416.2 228.7,417.8 222.3,417.8 222.3,419.2 215.9,419.2 215.9,422.2 209.5,422.2 209.5,425.2 203.1,425.2 
			203.1,428.2 196.8,428.2 196.8,430.5 190.4,430.5 190.4,435 184,435 177.6,435 177.6,437.2 171.2,437.2 171.2,439.5 164.8,439.5 
			164.8,441.8 158.4,441.8 158.4,444 152.1,444 152.1,446.2 145.7,446.2 145.7,447.8 139.3,447.8 139.3,448.5 132.9,448.5 
			132.9,450 126.6,450 126.6,451.5 120.2,451.5 120.2,454.5 113.8,454.5 113.8,456 107.4,456 107.4,457.5 101,457.5 101,459 
			94.6,459 94.6,459.8 88.2,459.8 88.2,461.2 81.8,461.2 81.8,462 75.5,462 75.5,462.8 69.1,462.8 62.7,462.8 56.3,462.8 
			49.9,462.8 49.9,463.5 56.3,463.5 62.7,463.5 69.1,463.5 75.5,463.5 81.8,463.5 88.2,463.5 94.6,463.5 101,463.5 107.4,463.5 
			113.8,463.5 120.2,463.5 126.6,463.5 132.9,463.5 132.9,463.5 139.3,463.5 145.7,463.5 145.7,463.5 152.1,463.5 158.4,463.5 
			164.8,463.5 171.2,463.5 177.6,463.5 184,463.5 190.4,463.5 196.8,463.5 203.1,463.5 209.5,463.5 215.9,463.5 222.3,463.5 
			228.7,463.5 235.1,463.5 241.5,463.5 247.9,463.5 254.2,463.5 260.6,463.5 267,463.5 273.4,463.5 279.8,463.5 286.2,463.5 
			292.6,463.5 299,463.5 305.3,463.5 311.7,463.5 318.1,463.5 324.5,463.5 330.9,463.5 337.3,463.5 343.7,463.5 350,463.5 
			356.4,463.5 362.8,463.5 369.2,463.5 375.6,463.5 382,463.5 388.4,463.5 394.8,463.5 401.1,463.5 407.5,463.5 413.9,463.5 
			413.9,463.5 420.2,463.5 426.6,463.5 433,463.5 439.4,463.5 445.8,463.5 452.2,463.5 458.6,463.5 464.9,463.5 471.3,463.5 
			477.7,463.5 484.1,463.5 490.5,463.5 496.9,463.5 503.3,463.5 509.7,463.5 516,463.5 522.4,463.5 528.8,463.5 535.2,463.5 
			541.6,463.5 548,463.5 554.4,463.5 560.7,463.5 567.1,463.5 573.5,463.5 579.9,463.5 586.3,463.5 592.7,463.5 599.1,463.5 
			605.5,463.5 611.8,463.5 618.2,463.5 624.6,463.5 631,463.5 637.4,463.5 637.4,0 		"/>
		<line class="st4" x1="30.8" y1="463.5" x2="637.5" y2="463.5"/>
	</g>
	<g class="st0">
		<text transform="matrix(1 0 0 1 5.2852 390.0996)" class="st5 st6 st7">2000</text>
	</g>
	<g class="st0">
		<text transform="matrix(1 0 0 1 5.2852 313.5996)" class="st5 st6 st7">4000</text>
	</g>
	<g class="st0">
		<text transform="matrix(1 0 0 1 5.2852 236.3496)" class="st5 st6 st7">6000</text>
	</g>
	<g class="st0">
		<text transform="matrix(1 0 0 1 5.2852 159.8496)" class="st5 st6 st7">8000</text>
	</g>
	<g class="st0">
		<text transform="matrix(1 0 0 1 0.9814 83.3496)" class="st5 st6 st7">10000</text>
	</g>
	<g class="st0">
		<text transform="matrix(1 0 0 1 0.9814 6.8496)" class="st5 st6 st7">12000</text>
	</g>
</g>
<g>
	<text transform="matrix(1 0 0 1 618.29 477.9106)" class="st8 st6 st7">6/13</text>
</g>
<g>
	<text transform="matrix(1 0 0 1 42.8557 477.9111)" class="st8 st6 st7">3/11</text>
</g>
</svg>
