<?xml version="1.0" encoding="utf-8"?>
<!-- Generator: Adobe Illustrator 23.0.1, SVG Export Plug-In . SVG Version: 6.00 Build 0)  -->
<svg version="1.1" id="Layer_1" xmlns="http://www.w3.org/2000/svg" xmlns:xlink="http://www.w3.org/1999/xlink" x="0px" y="0px"
	 viewBox="0 0 637.5 487.5" style="enable-background:new 0 0 637.5 487.5;" xml:space="preserve">
<style type="text/css">
	.st0{clip-path:url(#SVGID_2_);enable-background:new    ;}
	.st1{clip-path:url(#SVGID_4_);fill:none;stroke:#E8E8E8;stroke-width:0.75;stroke-miterlimit:10;}
	.st2{clip-path:url(#SVGID_4_);fill:#C71E1D;}
	.st3{clip-path:url(#SVGID_4_);fill:#C71E1D;fill-opacity:0.6;stroke:#000000;stroke-width:0.5;stroke-miterlimit:10;}
	.st4{clip-path:url(#SVGID_4_);fill:none;stroke:#333333;stroke-width:0.75;stroke-miterlimit:10;}
	.st5{clip-path:url(#SVGID_4_);}
	.st6{fill:#A6A6A6;}
	.st7{font-family:'Roboto-Regular';}
	.st8{font-size:9px;}
	.st9{fill:#333333;}
</style>
<g>
	<defs>
		<polyline id="SVGID_1_" points="0,487.5 0,0 637.5,0 637.5,487.5 		"/>
	</defs>
	<clipPath id="SVGID_2_">
		<use xlink:href="#SVGID_1_"  style="overflow:visible;"/>
	</clipPath>
	<g class="st0">
		<g>
			<defs>
				<polyline id="SVGID_3_" points="0,487.5 0,0 637.5,0 637.5,487.5 				"/>
			</defs>
			<clipPath id="SVGID_4_">
				<use xlink:href="#SVGID_3_"  style="overflow:visible;"/>
			</clipPath>
			<line class="st1" x1="26.2" y1="18" x2="637.5" y2="18"/>
			<line class="st1" x1="26.2" y1="74.2" x2="637.5" y2="74.2"/>
			<line class="st1" x1="26.2" y1="129.8" x2="637.5" y2="129.8"/>
			<line class="st1" x1="26.2" y1="185.2" x2="637.5" y2="185.2"/>
			<line class="st1" x1="26.2" y1="240.8" x2="637.5" y2="240.8"/>
			<line class="st1" x1="26.2" y1="296.2" x2="637.5" y2="296.2"/>
			<line class="st1" x1="26.2" y1="352.5" x2="637.5" y2="352.5"/>
			<line class="st1" x1="26.2" y1="408" x2="637.5" y2="408"/>
			<rect x="26.2" y="463.5" class="st2" width="9.7" height="0.4"/>
			<polygon class="st3" points="627.3,0 627.3,13.5 617.6,13.5 617.6,17.2 607.9,17.2 607.9,20.2 598.2,20.2 598.2,46.5 588.5,46.5 
				588.5,52.5 578.8,52.5 578.8,61.5 569.1,61.5 569.1,71.2 559.4,71.2 559.4,77.2 549.8,77.2 549.8,81.8 540.1,81.8 540.1,88.5 
				530.4,88.5 530.4,95.2 520.7,95.2 520.7,98.2 511,98.2 511,106.5 501.3,106.5 501.3,115.5 491.6,115.5 491.6,122.2 481.9,122.2 
				481.9,129.8 472.2,129.8 472.2,139.5 462.5,139.5 462.5,150.8 452.8,150.8 452.8,174 443.1,174 443.1,197.2 433.4,197.2 
				433.4,211.5 423.7,211.5 423.7,243.8 414.1,243.8 414.1,265.5 404.4,265.5 404.4,265.5 394.7,265.5 394.7,274.5 385,274.5 
				385,283.5 375.3,283.5 375.3,285.8 365.6,285.8 365.6,297 355.9,297 355.9,299.2 346.3,299.2 346.3,321 336.6,321 336.6,327 
				326.9,327 326.9,330 317.2,330 317.2,336 307.5,336 307.5,343.5 297.8,343.5 297.8,352.5 288.1,352.5 288.1,360 278.4,360 
				278.4,368.3 268.7,368.3 268.7,381 259,381 259,381 249.4,381 249.4,387.8 239.7,387.8 239.7,393.8 230,393.8 230,400.5 
				220.3,400.5 220.3,407.3 210.6,407.3 210.6,413.3 200.9,413.3 200.9,417.8 191.2,417.8 191.2,420.8 181.5,420.8 181.5,424.5 
				171.8,424.5 171.8,429 162.1,429 162.1,438 152.4,438 152.4,441 142.7,441 142.7,445.5 133,445.5 133,450 123.3,450 123.3,452.2 
				113.6,452.2 113.6,456.8 103.9,456.8 103.9,459.8 94.2,459.8 94.2,461.2 84.5,461.2 74.8,461.2 74.8,462 65.1,462 55.4,462 
				55.4,462.8 45.7,462.8 36,462.8 36,463.5 45.7,463.5 55.4,463.5 65.1,463.5 74.8,463.5 84.5,463.5 94.2,463.5 103.9,463.5 
				113.6,463.5 123.3,463.5 133,463.5 142.7,463.5 152.4,463.5 162.1,463.5 162.1,463.5 171.8,463.5 181.5,463.5 191.2,463.5 
				200.9,463.5 210.6,463.5 220.3,463.5 230,463.5 239.7,463.5 249.4,463.5 259.1,463.5 259.1,463.5 268.7,463.5 278.4,463.5 
				288.1,463.5 297.8,463.5 297.8,463.5 307.5,463.5 317.2,463.5 317.2,463.5 326.9,463.5 336.6,463.5 346.3,463.5 355.9,463.5 
				356,463.5 365.6,463.5 375.3,463.5 375.3,463.5 385,463.5 394.7,463.5 404.4,463.5 404.4,463.5 414.1,463.5 414.1,463.5 
				423.7,463.5 423.8,463.5 433.4,463.5 443.1,463.5 452.8,463.5 452.8,463.5 462.5,463.5 472.2,463.5 481.9,463.5 491.6,463.5 
				501.3,463.5 511,463.5 520.7,463.5 530.4,463.5 540.1,463.5 549.8,463.5 549.8,463.5 559.4,463.5 559.5,463.5 569.1,463.5 
				578.8,463.5 578.8,463.5 588.5,463.5 598.2,463.5 607.9,463.5 617.6,463.5 627.3,463.5 627.3,463.5 637,463.5 637,0 			"/>
			<line class="st4" x1="26.2" y1="463.5" x2="637.5" y2="463.5"/>
			<g class="st5">
				<text transform="matrix(1 0 0 1 5.8389 410.3496)" class="st6 st7 st8">500</text>
			</g>
			<g class="st5">
				<text transform="matrix(1 0 0 1 7.031250e-02 354.8496)" class="st6 st7 st8">1000</text>
			</g>
			<g class="st5">
				<text transform="matrix(1 0 0 1 7.031250e-02 298.5996)" class="st6 st7 st8">1500</text>
			</g>
			<g class="st5">
				<text transform="matrix(1 0 0 1 7.031250e-02 243.0996)" class="st6 st7 st8">2000</text>
			</g>
			<g class="st5">
				<text transform="matrix(1 0 0 1 7.031250e-02 187.5996)" class="st6 st7 st8">2500</text>
			</g>
			<g class="st5">
				<text transform="matrix(1 0 0 1 7.031250e-02 132.0996)" class="st6 st7 st8">3000</text>
			</g>
			<g class="st5">
				<text transform="matrix(1 0 0 1 7.031250e-02 76.5996)" class="st6 st7 st8">3500</text>
			</g>
			<g class="st5">
				<text transform="matrix(1 0 0 1 7.031250e-02 20.3496)" class="st6 st7 st8">4000</text>
			</g>
		</g>
	</g>
</g>
<g>
	<text transform="matrix(1 0 0 1 618.3472 478.5789)" class="st9 st7 st8">5/12</text>
</g>
<g>
	<text transform="matrix(1 0 0 1 29.9629 478.5792)" class="st9 st7 st8">3/11</text>
</g>
</svg>
