<?xml version="1.0" encoding="utf-8"?>
<!-- Generator: Adobe Illustrator 23.0.1, SVG Export Plug-In . SVG Version: 6.00 Build 0)  -->
<svg version="1.1" id="Layer_1" xmlns="http://www.w3.org/2000/svg" xmlns:xlink="http://www.w3.org/1999/xlink" x="0px" y="0px"
	 viewBox="0 0 637.5 487.5" style="enable-background:new 0 0 637.5 487.5;" xml:space="preserve">
<style type="text/css">
	.st0{clip-path:url(#SVGID_2_);}
	.st1{clip-path:url(#SVGID_4_);fill:none;stroke:#E8E8E8;stroke-width:0.75;stroke-miterlimit:10;}
	.st2{clip-path:url(#SVGID_4_);fill:#C71E1D;}
	.st3{clip-path:url(#SVGID_4_);fill:#C71E1D;fill-opacity:0.6;stroke:#000000;stroke-width:0.5;stroke-miterlimit:10;}
	.st4{clip-path:url(#SVGID_4_);fill:none;stroke:#333333;stroke-width:0.75;stroke-miterlimit:10;}
	.st5{fill:#A6A6A6;}
	.st6{font-family:'Roboto-Regular';}
	.st7{font-size:9px;}
	.st8{fill:#333333;}
</style>
<g>
	<defs>
		<rect id="SVGID_1_" width="637.5" height="487.5"/>
	</defs>
	<clipPath id="SVGID_2_">
		<use xlink:href="#SVGID_1_"  style="overflow:visible;"/>
	</clipPath>
	<g class="st0">
		<defs>
			<polyline id="SVGID_3_" points="0,483 0,0 637.5,0 637.5,483 			"/>
		</defs>
		<clipPath id="SVGID_4_">
			<use xlink:href="#SVGID_3_"  style="overflow:visible;"/>
		</clipPath>
		<line class="st1" x1="26.2" y1="31.5" x2="637.5" y2="31.5"/>
		<line class="st1" x1="26.2" y1="79.5" x2="637.5" y2="79.5"/>
		<line class="st1" x1="26.2" y1="127.5" x2="637.5" y2="127.5"/>
		<line class="st1" x1="26.2" y1="175.5" x2="637.5" y2="175.5"/>
		<line class="st1" x1="26.2" y1="223.5" x2="637.5" y2="223.5"/>
		<line class="st1" x1="26.2" y1="271.5" x2="637.5" y2="271.5"/>
		<line class="st1" x1="26.2" y1="319.5" x2="637.5" y2="319.5"/>
		<line class="st1" x1="26.2" y1="367.5" x2="637.5" y2="367.5"/>
		<line class="st1" x1="26.2" y1="415.5" x2="637.5" y2="415.5"/>
		<rect x="26.2" y="463.5" class="st2" width="8.9" height="0.4"/>
		<polygon class="st3" points="628.6,0 628.6,6.8 619.8,6.8 619.8,24 610.9,24 610.9,35.2 602.1,35.2 602.1,44.2 593.2,44.2 
			593.2,57 584.3,57 584.3,63.8 575.5,63.8 575.5,75.8 566.6,75.8 566.6,78.8 557.8,78.8 557.8,81 548.9,81 548.9,104.2 
			540.1,104.2 540.1,108.8 531.2,108.8 531.2,117 522.3,117 522.3,125.2 513.5,125.2 513.5,130.5 504.6,130.5 504.6,134.2 
			495.8,134.2 495.8,140.2 486.9,140.2 486.9,146.2 478,146.2 478,148.5 469.2,148.5 469.2,156 460.3,156 460.3,163.5 451.5,163.5 
			451.5,168.8 442.6,168.8 442.6,175.5 433.8,175.5 433.8,184.5 424.9,184.5 424.9,194.2 416,194.2 416,214.5 407.2,214.5 
			407.2,234 398.3,234 398.3,246.8 389.5,246.8 389.5,274.5 380.6,274.5 380.6,292.5 371.7,292.5 371.7,293.2 362.9,293.2 
			362.9,300.8 354,300.8 354,308.2 345.2,308.2 345.2,309.8 336.3,309.8 336.3,319.5 327.4,319.5 327.4,321.8 318.6,321.8 
			318.6,340.5 309.7,340.5 309.7,345.8 300.9,345.8 300.9,348 292,348 292,353.2 283.2,353.2 283.2,360 274.3,360 274.3,367.5 
			265.4,367.5 265.4,374.2 256.6,374.2 256.6,381.8 247.7,381.8 247.7,392.2 238.9,392.2 238.9,393 230,393 230,398.2 221.1,398.2 
			221.1,403.5 212.3,403.5 212.3,409.5 203.4,409.5 203.4,414.8 194.6,414.8 194.6,420.8 185.7,420.8 185.7,424.5 176.8,424.5 
			176.8,426.8 168,426.8 168,429.8 159.1,429.8 159.1,434.2 150.3,434.2 150.3,441 141.4,441 141.4,444 132.6,444 132.6,447.8 
			123.7,447.8 123.7,451.5 114.8,451.5 114.8,453.8 106,453.8 106,457.5 97.1,457.5 97.1,460.5 88.3,460.5 88.3,461.2 79.4,461.2 
			70.5,461.2 70.5,462 61.7,462 52.8,462 52.8,462.8 44,462.8 35.1,462.8 35.1,463.5 44,463.5 52.8,463.5 61.7,463.5 70.5,463.5 
			70.5,463.5 79.4,463.5 88.3,463.5 97.1,463.5 106,463.5 114.8,463.5 123.7,463.5 132.6,463.5 141.4,463.5 141.4,463.5 
			150.3,463.5 159.1,463.5 168,463.5 176.8,463.5 185.7,463.5 194.6,463.5 203.4,463.5 212.3,463.5 212.3,463.5 221.1,463.5 
			230,463.5 238.9,463.5 247.7,463.5 256.6,463.5 265.4,463.5 274.3,463.5 283.2,463.5 283.2,463.5 292,463.5 300.9,463.5 
			309.7,463.5 318.6,463.5 327.4,463.5 336.3,463.5 345.2,463.5 354,463.5 354,463.5 362.9,463.5 371.7,463.5 380.6,463.5 
			389.5,463.5 398.3,463.5 407.2,463.5 416,463.5 424.9,463.5 424.9,463.5 433.8,463.5 442.6,463.5 451.5,463.5 460.3,463.5 
			469.2,463.5 478,463.5 486.9,463.5 486.9,463.5 495.8,463.5 504.6,463.5 513.5,463.5 522.3,463.5 531.2,463.5 540.1,463.5 
			540.1,463.5 548.9,463.5 557.8,463.5 566.6,463.5 575.5,463.5 584.3,463.5 593.2,463.5 602.1,463.5 610.9,463.5 610.9,463.5 
			619.8,463.5 628.6,463.5 637.5,463.5 637.5,0 		"/>
		<line class="st4" x1="26.2" y1="463.5" x2="637.5" y2="463.5"/>
	</g>
	<g class="st0">
		<text transform="matrix(1 0 0 1 5.2529 417.8496)" class="st5 st6 st7">500</text>
	</g>
	<g class="st0">
		<text transform="matrix(1 0 0 1 3.515625e-02 369.8496)" class="st5 st6 st7">1000</text>
	</g>
	<g class="st0">
		<text transform="matrix(1 0 0 1 3.515625e-02 321.8496)" class="st5 st6 st7">1500</text>
	</g>
	<g class="st0">
		<text transform="matrix(1 0 0 1 3.515625e-02 273.8496)" class="st5 st6 st7">2000</text>
	</g>
	<g class="st0">
		<text transform="matrix(1 0 0 1 3.515625e-02 225.8496)" class="st5 st6 st7">2500</text>
	</g>
	<g class="st0">
		<text transform="matrix(1 0 0 1 3.515625e-02 177.8496)" class="st5 st6 st7">3000</text>
	</g>
	<g class="st0">
		<text transform="matrix(1 0 0 1 3.515625e-02 129.8496)" class="st5 st6 st7">3500</text>
	</g>
	<g class="st0">
		<text transform="matrix(1 0 0 1 3.515625e-02 81.8496)" class="st5 st6 st7">4000</text>
	</g>
	<g class="st0">
		<text transform="matrix(1 0 0 1 3.515625e-02 33.8496)" class="st5 st6 st7">4500</text>
	</g>
</g>
<g>
	<text transform="matrix(1 0 0 1 617.7258 478.4522)" class="st8 st6 st7">5/18</text>
</g>
<g>
	<text transform="matrix(1 0 0 1 31.624 478.4523)" class="st8 st6 st7">3/11</text>
</g>
</svg>
