<?xml version="1.0" encoding="utf-8"?>
<!-- Generator: Adobe Illustrator 23.0.1, SVG Export Plug-In . SVG Version: 6.00 Build 0)  -->
<svg version="1.1" id="Layer_1" xmlns="http://www.w3.org/2000/svg" xmlns:xlink="http://www.w3.org/1999/xlink" x="0px" y="0px"
	 viewBox="0 0 637.5 487.5" style="enable-background:new 0 0 637.5 487.5;" xml:space="preserve">
<style type="text/css">
	.st0{clip-path:url(#SVGID_2_);}
	.st1{clip-path:url(#SVGID_4_);fill:none;stroke:#E8E8E8;stroke-width:0.75;stroke-miterlimit:10;}
	.st2{clip-path:url(#SVGID_4_);fill:#C71E1D;}
	.st3{clip-path:url(#SVGID_4_);}
	.st4{fill:#C71E1D;}
	.st5{fill:#C71E1D;fill-opacity:0.6;stroke:#000000;stroke-width:0.5;stroke-miterlimit:10;}
	.st6{clip-path:url(#SVGID_4_);fill:none;stroke:#333333;stroke-width:0.75;stroke-miterlimit:10;}
	.st7{fill:#A6A6A6;}
	.st8{font-family:'Roboto-Regular';}
	.st9{font-size:9px;}
	.st10{fill:#333333;}
</style>
<g>
	<defs>
		<rect id="SVGID_1_" width="637.5" height="487.5"/>
	</defs>
	<clipPath id="SVGID_2_">
		<use xlink:href="#SVGID_1_"  style="overflow:visible;"/>
	</clipPath>
	<g class="st0">
		<defs>
			<polyline id="SVGID_3_" points="0,483 0,0 637.5,0 637.5,483 			"/>
		</defs>
		<clipPath id="SVGID_4_">
			<use xlink:href="#SVGID_3_"  style="overflow:visible;"/>
		</clipPath>
		<line class="st1" x1="26.2" y1="16.5" x2="637.5" y2="16.5"/>
		<line class="st1" x1="26.2" y1="80.2" x2="637.5" y2="80.2"/>
		<line class="st1" x1="26.2" y1="144" x2="637.5" y2="144"/>
		<line class="st1" x1="26.2" y1="207.8" x2="637.5" y2="207.8"/>
		<line class="st1" x1="26.2" y1="271.5" x2="637.5" y2="271.5"/>
		<line class="st1" x1="26.2" y1="336" x2="637.5" y2="336"/>
		<line class="st1" x1="26.2" y1="399.8" x2="637.5" y2="399.8"/>
		<rect x="26.2" y="463.5" class="st2" width="7.5" height="0.4"/>
		<g class="st3">
			<rect x="33.7" y="462.8" class="st4" width="7.5" height="0.8"/>
			<polygon class="st5" points="629.3,0.1 629.3,15.1 621.9,15.1 621.9,30.8 614.4,30.8 614.4,45.8 607,45.8 607,62.3 599.5,62.3 
				599.5,68.3 592,68.3 592,78.1 584.6,78.1 584.6,84.8 577.1,84.8 577.1,94.6 569.7,94.6 569.7,105.1 562.2,105.1 562.2,114.8 
				554.8,114.8 554.8,144.1 547.3,144.1 547.3,149.3 539.9,149.3 539.9,154.6 532.4,154.6 532.4,159.8 525,159.8 525,171.1 
				517.5,171.1 517.5,178.6 510.1,178.6 510.1,184.6 502.6,184.6 502.6,192.8 495.1,192.8 495.1,197.3 487.7,197.3 487.7,205.5 
				480.3,205.5 480.3,207 472.9,207 472.9,209.2 465.4,209.2 465.4,224.2 458,224.2 458,227.3 450.6,227.3 450.6,232.6 443.1,232.6 
				443.1,238.6 435.7,238.6 435.7,241.6 428.2,241.6 428.2,244.6 420.8,244.6 420.8,248.3 413.3,248.3 413.3,252.1 405.8,252.1 
				405.8,253.5 398.4,253.5 398.4,258.8 391,258.8 391,264 383.5,264 383.5,267.8 376.1,267.8 376.1,271.6 368.7,271.6 368.7,277.6 
				361.2,277.6 361.2,284.3 353.8,284.3 353.8,297.8 346.3,297.8 346.3,310.6 338.9,310.6 338.9,318.8 331.5,318.8 331.5,337.6 
				324,337.6 324,349.5 316.7,349.5 316.7,350.2 309.2,350.2 309.2,355.5 301.7,355.5 301.7,360 294.3,360 294.3,361.5 286.9,361.5 
				286.9,367.5 279.5,367.5 279.5,369 272,369 272,381.8 264.6,381.8 264.6,384.8 257.2,384.8 257.2,387 249.8,387 249.8,390 
				242.3,390 242.3,394.5 234.9,394.5 234.9,399.8 227.4,399.8 227.4,404.2 219.9,404.2 219.9,408.8 212.5,408.8 212.5,416.2 
				205,416.2 197.6,416.2 197.6,420 190.1,420 190.1,423.8 182.7,423.8 182.7,427.5 175.2,427.5 175.2,431.2 167.8,431.2 167.8,435 
				160.3,435 160.3,437.2 152.9,437.2 152.9,438.8 145.4,438.8 145.4,441 138,441 138,444 130.5,444 130.5,448.5 123,448.5 
				123,450.7 115.6,450.7 115.6,453 108.2,453 108.2,456 100.7,456 100.7,456.7 93.3,456.7 93.3,459.7 85.8,459.7 85.8,461.2 
				78.4,461.2 78.4,462 70.9,462 63.5,462 63.5,462.7 56,462.7 48.6,462.7 41.1,462.7 41.1,463.5 48.6,463.5 56,463.5 63.5,463.5 
				70.9,463.5 78.4,463.5 85.8,463.5 93.3,463.5 100.7,463.5 108.2,463.5 115.6,463.5 123,463.5 123,463.5 130.5,463.5 138,463.5 
				145.4,463.5 152.9,463.5 160.3,463.5 167.8,463.5 175.2,463.5 182.7,463.5 182.7,463.5 190.1,463.5 197.6,463.5 205,463.5 
				212.5,463.5 219.9,463.5 227.4,463.5 234.9,463.5 242.3,463.5 249.8,463.5 257.2,463.5 264.6,463.5 264.7,463.5 272,463.5 
				279.5,463.5 286.9,463.5 294.3,463.5 294.4,463.5 301.7,463.5 309.2,463.5 316.7,463.5 324,463.5 324,463.6 331.5,463.6 
				338.9,463.6 346.3,463.6 346.4,463.6 353.8,463.6 361.2,463.6 368.7,463.6 376.1,463.6 376.1,463.5 383.5,463.5 391,463.5 
				398.4,463.5 405.8,463.5 405.8,463.6 413.3,463.6 420.8,463.6 428.2,463.6 435.7,463.6 443.1,463.6 450.6,463.6 458,463.6 
				458,463.5 465.4,463.5 472.9,463.5 480.3,463.5 487.7,463.5 487.7,463.6 495.1,463.6 502.6,463.6 510.1,463.6 517.5,463.6 
				525,463.6 532.4,463.6 539.9,463.6 539.9,463.6 547.3,463.6 554.8,463.6 562.2,463.6 569.7,463.6 569.7,463.6 577.1,463.6 
				584.6,463.6 592,463.6 599.5,463.6 599.5,463.6 607,463.6 614.4,463.6 621.9,463.6 629.3,463.6 629.3,463.6 636.8,463.6 
				636.8,0.1 			"/>
		</g>
		<line class="st6" x1="26.2" y1="463.5" x2="637.5" y2="463.5"/>
	</g>
	<g class="st0">
		<text transform="matrix(1 0 0 1 3.515625e-02 402.0996)" class="st7 st8 st9">1000</text>
	</g>
	<g class="st0">
		<text transform="matrix(1 0 0 1 3.515625e-02 338.3496)" class="st7 st8 st9">2000</text>
	</g>
	<g class="st0">
		<text transform="matrix(1 0 0 1 3.515625e-02 273.8496)" class="st7 st8 st9">3000</text>
	</g>
	<g class="st0">
		<text transform="matrix(1 0 0 1 3.515625e-02 210.0996)" class="st7 st8 st9">4000</text>
	</g>
	<g class="st0">
		<text transform="matrix(1 0 0 1 3.515625e-02 146.3496)" class="st7 st8 st9">5000</text>
	</g>
	<g class="st0">
		<text transform="matrix(1 0 0 1 3.515625e-02 82.5996)" class="st7 st8 st9">6000</text>
	</g>
	<g class="st0">
		<text transform="matrix(1 0 0 1 3.515625e-02 18.8496)" class="st7 st8 st9">7000</text>
	</g>
</g>
<g>
	<text transform="matrix(1 0 0 1 619.4985 477.0166)" class="st10 st8 st9">5/31</text>
</g>
<g>
	<text transform="matrix(1 0 0 1 28.3362 477.0171)" class="st10 st8 st9">3/11</text>
</g>
</svg>
