<?xml version="1.0" encoding="utf-8"?>
<!-- Generator: Adobe Illustrator 23.0.1, SVG Export Plug-In . SVG Version: 6.00 Build 0)  -->
<svg version="1.1" id="Layer_1" xmlns="http://www.w3.org/2000/svg" xmlns:xlink="http://www.w3.org/1999/xlink" x="0px" y="0px"
	 viewBox="0 0 637.5 487.5" style="enable-background:new 0 0 637.5 487.5;" xml:space="preserve">
<style type="text/css">
	.st0{clip-path:url(#SVGID_2_);enable-background:new    ;}
	.st1{clip-path:url(#SVGID_4_);fill:none;stroke:#E8E8E8;stroke-width:0.75;stroke-miterlimit:10;}
	.st2{clip-path:url(#SVGID_4_);fill:#C71E1D;}
	.st3{clip-path:url(#SVGID_4_);fill:#C71E1D;fill-opacity:0.6;stroke:#000000;stroke-width:0.5;stroke-miterlimit:10;}
	.st4{clip-path:url(#SVGID_4_);fill:none;stroke:#333333;stroke-width:0.75;stroke-miterlimit:10;}
	.st5{clip-path:url(#SVGID_4_);}
	.st6{fill:#A6A6A6;}
	.st7{font-family:'Roboto-Regular';}
	.st8{font-size:9px;}
	.st9{fill:#333333;}
</style>
<g>
	<defs>
		<rect id="SVGID_1_" width="637.5" height="487.5"/>
	</defs>
	<clipPath id="SVGID_2_">
		<use xlink:href="#SVGID_1_"  style="overflow:visible;"/>
	</clipPath>
	<g class="st0">
		<g>
			<defs>
				<rect id="SVGID_3_" width="637.5" height="487.5"/>
			</defs>
			<clipPath id="SVGID_4_">
				<use xlink:href="#SVGID_3_"  style="overflow:visible;"/>
			</clipPath>
			<line class="st1" x1="26.2" y1="5.2" x2="637.5" y2="5.2"/>
			<line class="st1" x1="26.2" y1="62.2" x2="637.5" y2="62.2"/>
			<line class="st1" x1="26.2" y1="119.2" x2="637.5" y2="119.2"/>
			<line class="st1" x1="26.2" y1="177" x2="637.5" y2="177"/>
			<line class="st1" x1="26.2" y1="234" x2="637.5" y2="234"/>
			<line class="st1" x1="26.2" y1="291.8" x2="637.5" y2="291.8"/>
			<line class="st1" x1="26.2" y1="348.8" x2="637.5" y2="348.8"/>
			<line class="st1" x1="26.2" y1="406.5" x2="637.5" y2="406.5"/>
			<rect x="26.2" y="463.5" class="st2" width="9.9" height="0.4"/>
			<polygon class="st3" points="627.4,0 627.4,3.8 617.6,3.8 617.6,6.8 607.7,6.8 607.7,33.8 597.9,33.8 597.9,39.8 588,39.8 
				588,49.5 578.2,49.5 578.2,59.2 568.3,59.2 568.3,66 558.4,66 558.4,70.5 548.6,70.5 548.6,77.2 538.7,77.2 538.7,84 528.9,84 
				528.9,87 519,87 519,96 509.1,96 509.1,105 499.4,105 499.4,111.8 489.5,111.8 489.5,119.2 479.7,119.2 479.7,129.8 469.8,129.8 
				469.8,141 459.9,141 459.9,165.8 450.1,165.8 450.1,189 440.2,189 440.2,204 430.4,204 430.4,237.8 420.5,237.8 420.5,259.5 
				410.7,259.5 410.7,259.5 400.9,259.5 400.9,269.2 391,269.2 391,277.5 381.2,277.5 381.2,280.5 371.3,280.5 371.3,291.8 
				361.5,291.8 361.5,294.8 351.6,294.8 351.6,316.5 341.7,316.5 341.7,322.5 331.9,322.5 331.9,325.5 322,325.5 322,332.2 
				312.2,332.2 312.2,339.8 302.3,339.8 302.3,349.5 292.4,349.5 292.4,357 282.6,357 282.6,366 272.7,366 272.7,378 262.9,378 
				262.9,378.8 253,378.8 253,385.5 243.1,385.5 243.1,392.2 233.3,392.2 233.3,399 223.4,399 223.4,405 213.6,405 213.6,411.8 
				203.7,411.8 203.7,416.2 193.9,416.2 193.9,419.2 184,419.2 184,423.8 174.1,423.8 174.1,428.2 164.3,428.2 164.3,437.2 
				154.4,437.2 154.4,440.2 144.6,440.2 144.6,444.8 134.7,444.8 134.7,449.2 124.8,449.2 124.8,452.2 115,452.2 115,456.8 
				105.1,456.8 105.1,459.8 95.3,459.8 95.3,461.2 85.4,461.2 85.4,461.2 75.5,461.2 75.5,462 65.7,462 65.7,462 55.8,462 
				55.8,462.8 46,462.8 46,462.8 36.1,462.8 36.1,463.5 46,463.5 46,463.5 55.8,463.5 55.8,463.5 65.7,463.5 65.7,463.5 75.5,463.5 
				85.4,463.5 85.4,463.5 95.3,463.5 95.3,463.5 105.1,463.5 115,463.5 124.8,463.5 134.7,463.5 134.7,463.5 144.6,463.5 
				154.4,463.5 164.3,463.5 174.1,463.5 174.1,463.5 184,463.5 193.9,463.5 203.7,463.5 213.6,463.5 213.6,463.5 223.4,463.5 
				233.3,463.5 243.1,463.5 243.1,463.5 253,463.5 253,463.5 262.9,463.5 262.9,463.5 272.7,463.5 282.6,463.5 292.4,463.5 
				292.4,463.5 302.3,463.5 312.2,463.5 322,463.5 322,463.5 331.9,463.5 341.7,463.5 351.6,463.5 361.5,463.5 361.5,463.5 
				371.3,463.5 381.2,463.5 391,463.5 400.9,463.5 400.9,463.5 410.7,463.5 410.7,463.5 420.5,463.5 420.5,463.5 430.4,463.5 
				430.4,463.5 440.2,463.5 440.3,463.5 450.1,463.5 450.1,463.5 459.9,463.5 469.8,463.5 479.7,463.5 489.5,463.5 489.5,463.5 
				499.4,463.5 499.4,463.5 509.1,463.5 509.2,463.5 519,463.5 519,463.5 528.9,463.5 538.7,463.5 548.6,463.5 548.6,463.5 
				558.4,463.5 568.3,463.5 578.2,463.5 578.2,463.5 588,463.5 597.9,463.5 607.7,463.5 617.6,463.5 617.6,463.5 627.4,463.5 
				627.4,463.5 637.2,463.5 637.2,0 			"/>
			<line class="st4" x1="26.2" y1="463.5" x2="637.5" y2="463.5"/>
			<g class="st5">
				<text transform="matrix(1 0 0 1 5.8389 408.8496)" class="st6 st7 st8">500</text>
			</g>
			<g class="st5">
				<text transform="matrix(1 0 0 1 7.031250e-02 351.0996)" class="st6 st7 st8">1000</text>
			</g>
			<g class="st5">
				<text transform="matrix(1 0 0 1 7.031250e-02 294.0996)" class="st6 st7 st8">1500</text>
			</g>
			<g class="st5">
				<text transform="matrix(1 0 0 1 7.031250e-02 236.3496)" class="st6 st7 st8">2000</text>
			</g>
			<g class="st5">
				<text transform="matrix(1 0 0 1 7.031250e-02 179.3496)" class="st6 st7 st8">2500</text>
			</g>
			<g class="st5">
				<text transform="matrix(1 0 0 1 7.031250e-02 121.5996)" class="st6 st7 st8">3000</text>
			</g>
			<g class="st5">
				<text transform="matrix(1 0 0 1 7.031250e-02 64.5996)" class="st6 st7 st8">3500</text>
			</g>
			<g class="st5">
				<text transform="matrix(1 0 0 1 7.031250e-02 7.5996)" class="st6 st7 st8">4000</text>
			</g>
		</g>
	</g>
</g>
<g>
	<text transform="matrix(1 0 0 1 619.1167 478.5259)" class="st9 st7 st8">5/11</text>
</g>
<g>
	<text transform="matrix(1 0 0 1 29.3798 478.526)" class="st9 st7 st8">3/11</text>
</g>
</svg>
