<?xml version="1.0" encoding="utf-8"?>
<!-- Generator: Adobe Illustrator 23.0.1, SVG Export Plug-In . SVG Version: 6.00 Build 0)  -->
<svg version="1.1" id="Layer_1" xmlns="http://www.w3.org/2000/svg" xmlns:xlink="http://www.w3.org/1999/xlink" x="0px" y="0px"
	 viewBox="0 0 637.5 487.5" style="enable-background:new 0 0 637.5 487.5;" xml:space="preserve">
<style type="text/css">
	.st0{clip-path:url(#SVGID_2_);}
	.st1{clip-path:url(#SVGID_4_);fill:none;stroke:#E8E8E8;stroke-width:0.75;stroke-miterlimit:10;}
	.st2{clip-path:url(#SVGID_4_);fill:#C71E1D;}
	.st3{clip-path:url(#SVGID_4_);fill:#C71E1D;fill-opacity:0.6;stroke:#000000;stroke-width:0.5;stroke-miterlimit:10;}
	.st4{clip-path:url(#SVGID_4_);fill:none;stroke:#333333;stroke-width:0.75;stroke-miterlimit:10;}
	.st5{fill:#A6A6A6;}
	.st6{font-family:'Roboto-Regular';}
	.st7{font-size:9px;}
	.st8{fill:#333333;}
</style>
<g>
	<defs>
		<rect id="SVGID_1_" width="637.5" height="487.5"/>
	</defs>
	<clipPath id="SVGID_2_">
		<use xlink:href="#SVGID_1_"  style="overflow:visible;"/>
	</clipPath>
	<g class="st0">
		<defs>
			<polyline id="SVGID_3_" points="0,483 0,0 637.5,0 637.5,483 			"/>
		</defs>
		<clipPath id="SVGID_4_">
			<use xlink:href="#SVGID_3_"  style="overflow:visible;"/>
		</clipPath>
		<line class="st1" x1="26.2" y1="62.2" x2="637.5" y2="62.2"/>
		<line class="st1" x1="26.2" y1="142.5" x2="637.5" y2="142.5"/>
		<line class="st1" x1="26.2" y1="222.8" x2="637.5" y2="222.8"/>
		<line class="st1" x1="26.2" y1="303" x2="637.5" y2="303"/>
		<line class="st1" x1="26.2" y1="383.2" x2="637.5" y2="383.2"/>
		<rect x="26.2" y="463.5" class="st2" width="8.3" height="0.4"/>
		<polygon class="st3" points="629,0 629,12.8 620.8,12.8 620.8,25.5 612.5,25.5 612.5,62.2 604.2,62.2 604.2,68.2 596,68.2 
			596,75.8 587.7,75.8 587.7,81.8 579.5,81.8 579.5,96 571.2,96 571.2,105 562.9,105 562.9,113.2 554.7,113.2 554.7,123.8 
			546.5,123.8 546.5,129 538.2,129 538.2,138.8 529.9,138.8 529.9,141.8 521.7,141.8 521.7,144 513.4,144 513.4,162.8 505.2,162.8 
			505.2,167.2 496.9,167.2 496.9,174 488.6,174 488.6,180.8 480.4,180.8 480.4,185.2 472.1,185.2 472.1,188.2 463.9,188.2 
			463.9,192.8 455.6,192.8 455.6,198 447.3,198 447.3,200.2 439.1,200.2 439.1,206.2 430.8,206.2 430.8,212.2 422.5,212.2 
			422.5,217.5 414.3,217.5 414.3,222.8 406,222.8 406,230.2 397.8,230.2 397.8,237.8 389.5,237.8 389.5,255 381.2,255 381.2,271.5 
			373,271.5 373,282 364.8,282 364.8,305.2 356.5,305.2 356.5,320.2 348.3,320.2 348.3,321 340,321 340,327.8 331.7,327.8 
			331.7,333.8 323.5,333.8 323.5,335.2 315.2,335.2 315.2,343.5 307,343.5 307,345 298.7,345 298.7,360.8 290.4,360.8 290.4,365.2 
			282.2,365.2 282.2,366.8 273.9,366.8 273.9,371.2 265.7,371.2 265.7,377.2 257.4,377.2 257.4,383.2 249.1,383.2 249.1,389.2 
			240.9,389.2 240.9,395.2 232.7,395.2 232.7,403.5 224.4,403.5 224.4,404.2 216.2,404.2 216.2,408.8 207.9,408.8 207.9,413.2 
			199.6,413.2 199.6,418.5 191.4,418.5 191.4,423 183.1,423 183.1,427.5 174.9,427.5 174.9,430.5 166.6,430.5 166.6,432.8 
			158.3,432.8 158.3,435.8 150.1,435.8 150.1,438.8 141.8,438.8 141.8,444.8 133.6,444.8 133.6,447 125.3,447 125.3,450 117,450 
			117,453.8 108.8,453.8 108.8,455.2 100.6,455.2 100.6,458.2 92.3,458.2 92.3,460.5 84.1,460.5 84.1,462 75.8,462 67.6,462 
			59.3,462 59.3,462.8 51,462.8 42.8,462.8 34.5,462.8 34.5,463.5 42.8,463.5 51,463.5 59.3,463.5 67.6,463.5 75.8,463.5 
			84.1,463.5 92.3,463.5 100.6,463.5 100.6,463.5 108.8,463.5 108.8,463.5 117,463.5 117.1,463.5 125.3,463.5 133.6,463.5 
			141.8,463.5 150.1,463.5 158.3,463.5 166.6,463.5 174.9,463.5 183.1,463.5 191.4,463.5 199.6,463.5 207.9,463.5 216.2,463.5 
			224.4,463.5 232.7,463.5 240.9,463.5 240.9,463.5 249.1,463.5 257.4,463.5 265.7,463.5 273.9,463.5 282.2,463.5 290.4,463.5 
			298.7,463.5 307,463.5 315.2,463.5 323.5,463.5 331.7,463.5 340,463.5 348.3,463.5 356.5,463.5 364.8,463.5 373,463.5 373,463.5 
			381.2,463.5 389.5,463.5 397.8,463.5 406,463.5 414.3,463.5 422.5,463.5 430.8,463.5 439.1,463.5 447.3,463.5 455.6,463.5 
			463.9,463.5 472.1,463.5 480.4,463.5 488.6,463.5 496.9,463.5 505.2,463.5 513.4,463.5 521.7,463.5 529.9,463.5 538.2,463.5 
			546.5,463.5 554.7,463.5 562.9,463.5 563,463.5 571.2,463.5 579.5,463.5 587.7,463.5 596,463.5 604.2,463.5 612.5,463.5 
			620.8,463.5 629,463.5 637.3,463.5 637.3,0 		"/>
		<line class="st4" x1="26.2" y1="463.5" x2="637.5" y2="463.5"/>
	</g>
	<g class="st0">
		<text transform="matrix(1 0 0 1 3.515625e-02 385.5996)" class="st5 st6 st7">1000</text>
	</g>
	<g class="st0">
		<text transform="matrix(1 0 0 1 3.515625e-02 305.3496)" class="st5 st6 st7">2000</text>
	</g>
	<g class="st0">
		<text transform="matrix(1 0 0 1 3.515625e-02 225.0996)" class="st5 st6 st7">3000</text>
	</g>
	<g class="st0">
		<text transform="matrix(1 0 0 1 3.515625e-02 144.8496)" class="st5 st6 st7">4000</text>
	</g>
	<g class="st0">
		<text transform="matrix(1 0 0 1 3.515625e-02 64.5996)" class="st5 st6 st7">5000</text>
	</g>
</g>
<g>
	<text transform="matrix(1 0 0 1 617.7473 477.4781)" class="st8 st6 st7">5/23</text>
</g>
<g>
	<text transform="matrix(1 0 0 1 30.5319 477.4779)" class="st8 st6 st7">3/11</text>
</g>
</svg>
