<?xml version="1.0" encoding="utf-8"?>
<!-- Generator: Adobe Illustrator 23.0.1, SVG Export Plug-In . SVG Version: 6.00 Build 0)  -->
<svg version="1.1" id="Layer_1" xmlns="http://www.w3.org/2000/svg" xmlns:xlink="http://www.w3.org/1999/xlink" x="0px" y="0px"
	 viewBox="0 0 637.5 487.5" style="enable-background:new 0 0 637.5 487.5;" xml:space="preserve">
<style type="text/css">
	.st0{clip-path:url(#SVGID_2_);enable-background:new    ;}
	.st1{clip-path:url(#SVGID_4_);fill:none;stroke:#E8E8E8;stroke-width:0.75;stroke-miterlimit:10;}
	.st2{clip-path:url(#SVGID_4_);fill:#C71E1D;}
	.st3{clip-path:url(#SVGID_4_);fill:#C71E1D;fill-opacity:0.6;stroke:#000000;stroke-width:0.5;stroke-miterlimit:10;}
	.st4{clip-path:url(#SVGID_4_);fill:none;stroke:#333333;stroke-width:0.75;stroke-miterlimit:10;}
	.st5{clip-path:url(#SVGID_4_);}
	.st6{fill:#A6A6A6;}
	.st7{font-family:'Roboto-Regular';}
	.st8{font-size:9px;}
	.st9{fill:#333333;}
</style>
<g>
	<defs>
		<rect id="SVGID_1_" width="637.5" height="487.5"/>
	</defs>
	<clipPath id="SVGID_2_">
		<use xlink:href="#SVGID_1_"  style="overflow:visible;"/>
	</clipPath>
	<g class="st0">
		<g>
			<defs>
				<rect id="SVGID_3_" width="637.5" height="487.5"/>
			</defs>
			<clipPath id="SVGID_4_">
				<use xlink:href="#SVGID_3_"  style="overflow:visible;"/>
			</clipPath>
			<line class="st1" x1="26.2" y1="1.5" x2="637.5" y2="1.5"/>
			<line class="st1" x1="26.2" y1="59.2" x2="637.5" y2="59.2"/>
			<line class="st1" x1="26.2" y1="117" x2="637.5" y2="117"/>
			<line class="st1" x1="26.2" y1="174.8" x2="637.5" y2="174.8"/>
			<line class="st1" x1="26.2" y1="232.5" x2="637.5" y2="232.5"/>
			<line class="st1" x1="26.2" y1="290.2" x2="637.5" y2="290.2"/>
			<line class="st1" x1="26.2" y1="348" x2="637.5" y2="348"/>
			<line class="st1" x1="26.2" y1="405.8" x2="637.5" y2="405.8"/>
			<rect x="26.2" y="463.5" class="st2" width="10" height="0.4"/>
			<polygon class="st3" points="627.5,0 627.5,3 617.5,3 617.5,30.8 607.4,30.8 607.4,36.8 597.4,36.8 597.4,46.5 587.4,46.5 
				587.4,56.2 577.4,56.2 577.4,63 567.4,63 567.4,66.8 557.3,66.8 557.3,74.2 547.3,74.2 547.3,81 537.3,81 537.3,84.8 527.3,84.8 
				527.3,93 517.3,93 517.3,102 507.2,102 507.2,108.8 497.2,108.8 497.2,117 487.2,117 487.2,127.5 477.2,127.5 477.2,138.8 
				467.2,138.8 467.2,163.5 457.1,163.5 457.1,187.5 447.1,187.5 447.1,202.5 437.1,202.5 437.1,235.5 427.1,235.5 427.1,258 
				417,258 407,258 407,267.8 397,267.8 397,276 387,276 387,279 377,279 377,290.2 366.9,290.2 366.9,293.2 356.9,293.2 
				356.9,315.8 346.9,315.8 346.9,321.8 336.9,321.8 336.9,324.8 326.9,324.8 326.9,330.8 316.8,330.8 316.8,339 306.8,339 
				306.8,348 296.8,348 296.8,356.2 286.8,356.2 286.8,365.2 276.8,365.2 276.8,378 266.7,378 266.7,378 256.7,378 256.7,384.8 
				246.7,384.8 246.7,391.5 236.7,391.5 236.7,398.2 226.7,398.2 226.7,405 216.6,405 216.6,411.8 206.6,411.8 206.6,416.2 
				196.6,416.2 196.6,419.2 186.6,419.2 186.6,423 176.6,423 176.6,428.2 166.5,428.2 166.5,436.5 156.5,436.5 156.5,440.2 
				146.5,440.2 146.5,444.8 136.5,444.8 136.5,449.2 126.5,449.2 126.5,452.2 116.4,452.2 116.4,456 106.4,456 106.4,459.8 
				96.4,459.8 96.4,461.2 86.4,461.2 86.4,461.2 76.4,461.2 76.4,462 66.3,462 66.3,462 56.3,462 56.3,462.8 46.3,462.8 46.3,462.8 
				36.3,462.8 36.3,463.5 46.3,463.5 46.3,463.5 56.3,463.5 56.3,463.5 66.3,463.5 66.3,463.5 76.4,463.5 86.4,463.5 86.4,463.5 
				96.4,463.5 96.4,463.5 106.4,463.5 106.4,463.5 116.4,463.5 126.5,463.5 126.5,463.5 136.5,463.5 136.5,463.5 146.5,463.5 
				156.5,463.5 166.5,463.5 166.5,463.5 176.6,463.5 176.6,463.5 186.6,463.5 196.6,463.5 206.6,463.5 206.6,463.5 216.6,463.5 
				226.7,463.5 236.7,463.5 246.7,463.5 246.7,463.5 256.7,463.5 256.7,463.5 266.7,463.5 266.7,463.5 276.8,463.5 286.8,463.5 
				286.8,463.5 296.8,463.5 296.8,463.5 306.8,463.5 306.8,463.5 316.8,463.5 326.9,463.5 326.9,463.5 336.9,463.5 336.9,463.5 
				346.9,463.5 346.9,463.5 356.9,463.5 366.9,463.5 366.9,463.5 377,463.5 377,463.5 387,463.5 387,463.5 397,463.5 397,463.5 
				407,463.5 407,463.5 417,463.5 427.1,463.5 427.1,463.5 437.1,463.5 437.1,463.5 447.1,463.5 447.1,463.5 457.1,463.5 
				467.2,463.5 477.2,463.5 477.2,463.5 487.2,463.5 487.2,463.5 497.2,463.5 497.2,463.5 507.2,463.5 517.3,463.5 517.3,463.5 
				527.3,463.5 537.3,463.5 537.3,463.5 547.3,463.5 557.3,463.5 567.4,463.5 577.4,463.5 587.4,463.5 587.4,463.5 597.4,463.5 
				607.4,463.5 617.5,463.5 627.5,463.5 627.5,463.5 637.5,463.5 637.5,0 			"/>
			<line class="st4" x1="26.2" y1="463.5" x2="637.5" y2="463.5"/>
			<g class="st5">
				<text transform="matrix(1 0 0 1 5.8389 408.0996)" class="st6 st7 st8">500</text>
			</g>
			<g class="st5">
				<text transform="matrix(1 0 0 1 7.031250e-02 350.3496)" class="st6 st7 st8">1000</text>
			</g>
			<g class="st5">
				<text transform="matrix(1 0 0 1 7.031250e-02 292.5996)" class="st6 st7 st8">1500</text>
			</g>
			<g class="st5">
				<text transform="matrix(1 0 0 1 7.031250e-02 234.8496)" class="st6 st7 st8">2000</text>
			</g>
			<g class="st5">
				<text transform="matrix(1 0 0 1 7.031250e-02 177.0996)" class="st6 st7 st8">2500</text>
			</g>
			<g class="st5">
				<text transform="matrix(1 0 0 1 7.031250e-02 119.3496)" class="st6 st7 st8">3000</text>
			</g>
			<g class="st5">
				<text transform="matrix(1 0 0 1 7.031250e-02 61.5996)" class="st6 st7 st8">3500</text>
			</g>
			<g class="st5">
				<text transform="matrix(1 0 0 1 7.031250e-02 3.8496)" class="st6 st7 st8">4000</text>
			</g>
		</g>
	</g>
</g>
<g>
	<text transform="matrix(1 0 0 1 618.4069 478.3937)" class="st9 st7 st8">5/10</text>
</g>
<g>
	<text transform="matrix(1 0 0 1 32.828 478.3934)" class="st9 st7 st8">3/11</text>
</g>
</svg>
