<?xml version="1.0" encoding="utf-8"?>
<!-- Generator: Adobe Illustrator 23.0.1, SVG Export Plug-In . SVG Version: 6.00 Build 0)  -->
<svg version="1.1" id="Layer_1" xmlns="http://www.w3.org/2000/svg" xmlns:xlink="http://www.w3.org/1999/xlink" x="0px" y="0px"
	 viewBox="0 0 637.5 487.5" style="enable-background:new 0 0 637.5 487.5;" xml:space="preserve">
<style type="text/css">
	.st0{clip-path:url(#SVGID_2_);}
	.st1{clip-path:url(#SVGID_4_);fill:none;stroke:#E8E8E8;stroke-width:0.75;stroke-miterlimit:10;}
	.st2{clip-path:url(#SVGID_4_);fill:#C71E1D;}
	.st3{clip-path:url(#SVGID_4_);fill:#C71E1D;fill-opacity:0.6;stroke:#000000;stroke-width:0.5;stroke-miterlimit:10;}
	.st4{clip-path:url(#SVGID_4_);fill:none;stroke:#333333;stroke-width:0.75;stroke-miterlimit:10;}
	.st5{fill:#A6A6A6;}
	.st6{font-family:'Roboto-Regular';}
	.st7{font-size:9px;}
	.st8{fill:#333333;}
</style>
<g>
	<defs>
		<rect id="SVGID_1_" width="637.5" height="487.5"/>
	</defs>
	<clipPath id="SVGID_2_">
		<use xlink:href="#SVGID_1_"  style="overflow:visible;"/>
	</clipPath>
	<g class="st0">
		<defs>
			<rect id="SVGID_3_" width="637.5" height="483"/>
		</defs>
		<clipPath id="SVGID_4_">
			<use xlink:href="#SVGID_3_"  style="overflow:visible;"/>
		</clipPath>
		<line class="st1" x1="26.2" y1="48" x2="637.5" y2="48"/>
		<line class="st1" x1="26.2" y1="99.8" x2="637.5" y2="99.8"/>
		<line class="st1" x1="26.2" y1="152.2" x2="637.5" y2="152.2"/>
		<line class="st1" x1="26.2" y1="204" x2="637.5" y2="204"/>
		<line class="st1" x1="26.2" y1="255.8" x2="637.5" y2="255.8"/>
		<line class="st1" x1="26.2" y1="307.5" x2="637.5" y2="307.5"/>
		<line class="st1" x1="26.2" y1="360" x2="637.5" y2="360"/>
		<line class="st1" x1="26.2" y1="411.8" x2="637.5" y2="411.8"/>
		<rect x="26.2" y="463.5" class="st2" width="9.3" height="0.4"/>
		<polygon class="st3" points="628.2,0 628.2,9.8 619,9.8 619,23.2 609.7,23.2 609.7,30.8 600.4,30.8 600.4,43.5 591.2,43.5 
			591.2,46.5 581.9,46.5 581.9,49.5 572.7,49.5 572.7,74.2 563.4,74.2 563.4,79.5 554.1,79.5 554.1,88.5 544.9,88.5 544.9,97.5 
			535.6,97.5 535.6,103.5 526.4,103.5 526.4,107.2 517.1,107.2 517.1,113.2 507.8,113.2 507.8,120 498.6,120 498.6,123 489.3,123 
			489.3,130.5 480.1,130.5 480.1,138.8 470.8,138.8 470.8,144.8 461.5,144.8 461.5,151.5 452.3,151.5 452.3,161.2 443,161.2 
			443,171.8 433.8,171.8 433.8,193.5 424.5,193.5 424.5,215.2 415.2,215.2 415.2,228.8 406,228.8 406,258.8 396.7,258.8 
			396.7,278.2 387.4,278.2 387.4,279 378.2,279 378.2,287.2 368.9,287.2 368.9,295.5 359.7,295.5 359.7,297.8 350.4,297.8 
			350.4,308.2 341.1,308.2 341.1,310.5 331.9,310.5 331.9,330.8 322.6,330.8 322.6,336 313.4,336 313.4,339 304.1,339 304.1,344.2 
			294.8,344.2 294.8,351.8 285.6,351.8 285.6,360 276.3,360 276.3,367.5 267,367.5 267,375 257.8,375 257.8,386.2 248.5,386.2 
			248.5,387 239.3,387 239.3,392.2 230,392.2 230,399 220.7,399 220.7,405 211.5,405 211.5,411 202.2,411 202.2,417 193,417 
			193,420.8 183.7,420.8 183.7,423.8 174.4,423.8 174.4,427.5 165.2,427.5 165.2,431.2 155.9,431.2 155.9,439.5 146.6,439.5 
			146.6,442.5 137.4,442.5 137.4,446.2 128.1,446.2 128.1,450.8 118.9,450.8 118.9,453 109.6,453 109.6,456.8 100.3,456.8 
			100.3,459.8 91.1,459.8 91.1,461.2 81.8,461.2 72.6,461.2 72.6,462 63.3,462 54,462 54,462.8 44.8,462.8 44.8,462.8 35.5,462.8 
			35.5,463.5 44.8,463.5 44.8,463.5 54,463.5 63.3,463.5 72.6,463.5 81.8,463.5 91.1,463.5 91.1,463.5 100.3,463.5 109.6,463.5 
			118.9,463.5 128.1,463.5 137.4,463.5 137.4,463.5 146.6,463.5 146.6,463.5 155.9,463.5 165.2,463.5 174.4,463.5 183.7,463.5 
			183.7,463.5 193,463.5 193,463.5 202.2,463.5 211.5,463.5 220.7,463.5 230,463.5 239.3,463.5 239.3,463.5 248.5,463.5 
			248.5,463.5 257.8,463.5 267,463.5 276.3,463.5 285.6,463.5 285.6,463.5 294.8,463.5 304.1,463.5 313.4,463.5 322.6,463.5 
			331.9,463.5 331.9,463.5 341.1,463.5 341.1,463.5 350.4,463.5 359.7,463.5 368.9,463.5 378.2,463.5 387.4,463.5 387.4,463.5 
			396.7,463.5 406,463.5 415.2,463.5 424.5,463.5 433.8,463.5 433.8,463.5 443,463.5 443,463.5 452.3,463.5 461.5,463.5 
			470.8,463.5 480.1,463.5 489.3,463.5 489.3,463.5 498.6,463.5 507.8,463.5 517.1,463.5 526.4,463.5 535.6,463.5 544.9,463.5 
			554.1,463.5 563.4,463.5 563.4,463.5 572.7,463.5 581.9,463.5 591.2,463.5 600.4,463.5 609.7,463.5 619,463.5 619,463.5 
			628.2,463.5 637.5,463.5 637.5,0 		"/>
		<line class="st4" x1="26.2" y1="463.5" x2="637.5" y2="463.5"/>
	</g>
	<g class="st0">
		<text transform="matrix(1 0 0 1 5.2529 414.0996)" class="st5 st6 st7">500</text>
	</g>
	<g class="st0">
		<text transform="matrix(1 0 0 1 3.515625e-02 362.3496)" class="st5 st6 st7">1000</text>
	</g>
	<g class="st0">
		<text transform="matrix(1 0 0 1 3.515625e-02 309.8496)" class="st5 st6 st7">1500</text>
	</g>
	<g class="st0">
		<text transform="matrix(1 0 0 1 3.515625e-02 258.0996)" class="st5 st6 st7">2000</text>
	</g>
	<g class="st0">
		<text transform="matrix(1 0 0 1 3.515625e-02 206.3496)" class="st5 st6 st7">2500</text>
	</g>
	<g class="st0">
		<text transform="matrix(1 0 0 1 3.515625e-02 154.5996)" class="st5 st6 st7">3000</text>
	</g>
	<g class="st0">
		<text transform="matrix(1 0 0 1 3.515625e-02 102.0996)" class="st5 st6 st7">3500</text>
	</g>
	<g class="st0">
		<text transform="matrix(1 0 0 1 3.515625e-02 50.3496)" class="st5 st6 st7">4000</text>
	</g>
</g>
<g>
	<text transform="matrix(1 0 0 1 30.5508 477.9583)" class="st8 st6 st7">3/11</text>
</g>
<g>
	<text transform="matrix(1 0 0 1 617.9727 477.9579)" class="st8 st6 st7">5/15</text>
</g>
</svg>
