<?xml version="1.0" encoding="utf-8"?>
<!-- Generator: Adobe Illustrator 23.0.1, SVG Export Plug-In . SVG Version: 6.00 Build 0)  -->
<svg version="1.1" id="Layer_1" xmlns="http://www.w3.org/2000/svg" xmlns:xlink="http://www.w3.org/1999/xlink" x="0px" y="0px"
	 viewBox="0 0 637.5 487.5" style="enable-background:new 0 0 637.5 487.5;" xml:space="preserve">
<style type="text/css">
	.st0{clip-path:url(#SVGID_2_);}
	.st1{clip-path:url(#SVGID_4_);fill:none;stroke:#E8E8E8;stroke-width:0.75;stroke-miterlimit:10;}
	.st2{clip-path:url(#SVGID_4_);fill:#C71E1D;}
	.st3{clip-path:url(#SVGID_4_);fill:#C71E1D;fill-opacity:0.6;stroke:#000000;stroke-width:0.5;stroke-miterlimit:10;}
	.st4{clip-path:url(#SVGID_4_);fill:none;stroke:#333333;stroke-width:0.75;stroke-miterlimit:10;}
	.st5{fill:#A6A6A6;}
	.st6{font-family:'Roboto-Regular';}
	.st7{font-size:9px;}
	.st8{fill:#333333;}
</style>
<g>
	<defs>
		<rect id="SVGID_1_" width="637.5" height="487.5"/>
	</defs>
	<clipPath id="SVGID_2_">
		<use xlink:href="#SVGID_1_"  style="overflow:visible;"/>
	</clipPath>
	<g class="st0">
		<defs>
			<polyline id="SVGID_3_" points="0,483 0,0 637.5,0 637.5,483 			"/>
		</defs>
		<clipPath id="SVGID_4_">
			<use xlink:href="#SVGID_3_"  style="overflow:visible;"/>
		</clipPath>
		<line class="st1" x1="26.2" y1="39.8" x2="637.5" y2="39.8"/>
		<line class="st1" x1="26.2" y1="87" x2="637.5" y2="87"/>
		<line class="st1" x1="26.2" y1="134.2" x2="637.5" y2="134.2"/>
		<line class="st1" x1="26.2" y1="180.8" x2="637.5" y2="180.8"/>
		<line class="st1" x1="26.2" y1="228" x2="637.5" y2="228"/>
		<line class="st1" x1="26.2" y1="275.2" x2="637.5" y2="275.2"/>
		<line class="st1" x1="26.2" y1="322.5" x2="637.5" y2="322.5"/>
		<line class="st1" x1="26.2" y1="369" x2="637.5" y2="369"/>
		<line class="st1" x1="26.2" y1="416.2" x2="637.5" y2="416.2"/>
		<rect x="26.2" y="463.5" class="st2" width="8.7" height="0.4"/>
		<polygon class="st3" points="628.8,0 628.8,9 620,9 620,15.8 611.3,15.8 611.3,32.2 602.6,32.2 602.6,43.5 593.8,43.5 593.8,52.5 
			585.1,52.5 585.1,64.5 576.4,64.5 576.4,71.2 567.6,71.2 567.6,82.5 558.9,82.5 558.9,85.5 550.2,85.5 550.2,88.5 541.4,88.5 
			541.4,111 532.7,111 532.7,115.5 524,115.5 524,123.8 515.2,123.8 515.2,131.2 506.5,131.2 506.5,137.2 497.8,137.2 497.8,140.2 
			489.1,140.2 489.1,146.2 480.3,146.2 480.3,151.5 471.6,151.5 471.6,154.5 462.9,154.5 462.9,161.2 454.1,161.2 454.1,168.8 
			445.4,168.8 445.4,174.8 436.7,174.8 436.7,180.8 427.9,180.8 427.9,189.8 419.2,189.8 419.2,198.8 410.5,198.8 410.5,219 
			401.7,219 401.7,238.5 393,238.5 393,250.5 384.3,250.5 384.3,278.2 375.5,278.2 375.5,295.5 366.8,295.5 366.8,296.2 
			358.1,296.2 358.1,303.8 349.3,303.8 349.3,311.2 340.6,311.2 340.6,312.8 331.9,312.8 331.9,322.5 323.1,322.5 323.1,324.8 
			314.4,324.8 314.4,342.8 305.7,342.8 305.7,348 296.9,348 296.9,350.2 288.2,350.2 288.2,355.5 279.5,355.5 279.5,362.2 
			270.8,362.2 270.8,369.8 262,369.8 262,376.5 253.3,376.5 253.3,383.2 244.6,383.2 244.6,393.8 235.8,393.8 235.8,393.8 
			227.1,393.8 227.1,399 218.4,399 218.4,405 209.6,405 209.6,410.2 200.9,410.2 200.9,415.5 192.2,415.5 192.2,421.5 183.4,421.5 
			183.4,425.2 174.7,425.2 174.7,427.5 166,427.5 166,430.5 157.2,430.5 157.2,434.2 148.5,434.2 148.5,441.8 139.8,441.8 
			139.8,444.8 131,444.8 131,447.8 122.3,447.8 122.3,452.2 113.6,452.2 113.6,453.8 104.8,453.8 104.8,457.5 96.1,457.5 
			96.1,460.5 87.4,460.5 87.4,461.2 78.6,461.2 69.9,461.2 69.9,462 61.2,462 52.4,462 52.4,462.8 43.7,462.8 35,462.8 35,463.5 
			43.7,463.5 52.4,463.5 52.4,463.5 61.2,463.5 69.9,463.5 69.9,463.5 78.6,463.5 87.4,463.5 87.4,463.5 96.1,463.5 96.1,463.5 
			104.8,463.5 113.6,463.5 113.6,463.5 122.3,463.5 131,463.5 131,463.5 139.8,463.5 148.5,463.5 148.5,463.5 157.2,463.5 
			166,463.5 166,463.5 174.7,463.5 174.7,463.5 183.4,463.5 192.2,463.5 192.2,463.5 200.9,463.5 209.6,463.5 209.6,463.5 
			218.4,463.5 227.1,463.5 227.1,463.5 235.8,463.5 235.8,463.5 244.6,463.5 253.3,463.5 253.3,463.5 262,463.5 270.8,463.5 
			270.8,463.5 279.5,463.5 288.2,463.5 288.2,463.5 296.9,463.5 305.7,463.5 305.7,463.5 314.4,463.5 314.4,463.5 323.1,463.5 
			331.9,463.5 331.9,463.5 340.6,463.5 349.3,463.5 349.3,463.5 358.1,463.5 366.8,463.5 366.8,463.5 375.5,463.5 375.5,463.5 
			384.3,463.5 393,463.5 393,463.5 401.7,463.5 410.5,463.5 410.5,463.5 419.2,463.5 427.9,463.5 427.9,463.5 436.7,463.5 
			436.7,463.5 445.4,463.5 454.1,463.5 454.1,463.5 462.9,463.5 471.6,463.5 471.6,463.5 480.3,463.5 489.1,463.5 489.1,463.5 
			497.8,463.5 497.8,463.5 506.5,463.5 515.2,463.5 524,463.5 524,463.5 532.7,463.5 541.4,463.5 541.4,463.5 550.2,463.5 
			558.9,463.5 558.9,463.5 567.6,463.5 576.4,463.5 576.4,463.5 585.1,463.5 585.1,463.5 593.8,463.5 602.6,463.5 602.6,463.5 
			611.3,463.5 620,463.5 620,463.5 628.8,463.5 637.5,463.5 637.5,0 		"/>
		<line class="st4" x1="26.2" y1="463.5" x2="637.5" y2="463.5"/>
	</g>
	<g class="st0">
		<text transform="matrix(1 0 0 1 5.2529 418.5996)" class="st5 st6 st7">500</text>
	</g>
	<g class="st0">
		<text transform="matrix(1 0 0 1 3.515625e-02 371.3496)" class="st5 st6 st7">1000</text>
	</g>
	<g class="st0">
		<text transform="matrix(1 0 0 1 3.515625e-02 324.8496)" class="st5 st6 st7">1500</text>
	</g>
	<g class="st0">
		<text transform="matrix(1 0 0 1 3.515625e-02 277.5996)" class="st5 st6 st7">2000</text>
	</g>
	<g class="st0">
		<text transform="matrix(1 0 0 1 3.515625e-02 230.3496)" class="st5 st6 st7">2500</text>
	</g>
	<g class="st0">
		<text transform="matrix(1 0 0 1 3.515625e-02 183.0996)" class="st5 st6 st7">3000</text>
	</g>
	<g class="st0">
		<text transform="matrix(1 0 0 1 3.515625e-02 136.5996)" class="st5 st6 st7">3500</text>
	</g>
	<g class="st0">
		<text transform="matrix(1 0 0 1 3.515625e-02 89.3496)" class="st5 st6 st7">4000</text>
	</g>
	<g class="st0">
		<text transform="matrix(1 0 0 1 3.515625e-02 42.0996)" class="st5 st6 st7">4500</text>
	</g>
</g>
<g>
	<text transform="matrix(1 0 0 1 617.961 478.1967)" class="st8 st6 st7">5/19</text>
</g>
<g>
	<text transform="matrix(1 0 0 1 29.4273 478.1966)" class="st8 st6 st7">3/11</text>
</g>
</svg>
