<svg id="f46dfc7d-f929-4e19-9d47-d471f6a48021" data-name="Layer 1" xmlns="http://www.w3.org/2000/svg" xmlns:xlink="http://www.w3.org/1999/xlink" viewBox="0 0 636.88 481.53">
  <defs>
    <style>
      .b9a65d12-c54e-408a-951e-4c5b60345ece, .ead04c18-90e9-46d6-9cf6-56f8741b6efd, .f7ace96a-8167-4368-97f7-beebf6aeb974 {
        fill: none;
      }

      .b8d8e02b-9476-4842-af60-145643fcd4da {
        clip-path: url(#bb348f87-cc0a-41d2-8793-f9baabb37ac8);
      }

      .ee451237-c5ea-4538-99fe-5004f630926e {
        clip-path: url(#bd6caa1b-5844-4f45-821b-5d68f38d6053);
      }

      .b9a65d12-c54e-408a-951e-4c5b60345ece {
        stroke: #e8e8e8;
      }

      .b9a65d12-c54e-408a-951e-4c5b60345ece, .f6a66d3b-c091-4997-9e29-808948d296d1, .f7ace96a-8167-4368-97f7-beebf6aeb974 {
        stroke-miterlimit: 10;
      }

      .b9a65d12-c54e-408a-951e-4c5b60345ece, .f7ace96a-8167-4368-97f7-beebf6aeb974 {
        stroke-width: 0.75px;
      }

      .e84fb302-2dd2-48a0-bc3d-a04f71580541, .f6a66d3b-c091-4997-9e29-808948d296d1 {
        fill: #c71e1d;
      }

      .f6a66d3b-c091-4997-9e29-808948d296d1 {
        fill-opacity: 0.6;
        stroke: #000;
        stroke-width: 0.5px;
      }

      .f7ace96a-8167-4368-97f7-beebf6aeb974 {
        stroke: #333;
      }

      .b1f0ac9a-5d04-487d-aa53-9475813fa562, .f1dd294a-9fd4-474f-b167-47a839f5d860 {
        font-size: 9px;
        font-family: Roboto-Regular, Roboto;
      }

      .f1dd294a-9fd4-474f-b167-47a839f5d860 {
        fill: #a6a6a6;
      }

      .b1f0ac9a-5d04-487d-aa53-9475813fa562 {
        isolation: isolate;
        fill: #333;
      }
    </style>
    <clipPath id="bb348f87-cc0a-41d2-8793-f9baabb37ac8" transform="translate(-0.98 0.25)">
      <rect class="ead04c18-90e9-46d6-9cf6-56f8741b6efd" width="637.5" height="487.5"/>
    </clipPath>
    <clipPath id="bd6caa1b-5844-4f45-821b-5d68f38d6053" transform="translate(-0.98 0.25)">
      <polyline class="ead04c18-90e9-46d6-9cf6-56f8741b6efd" points="0 483 0 0 637.5 0 637.5 483"/>
    </clipPath>
  </defs>
  <title>cases</title>
  <g class="b8d8e02b-9476-4842-af60-145643fcd4da">
    <g class="ee451237-c5ea-4538-99fe-5004f630926e">
      <line class="b9a65d12-c54e-408a-951e-4c5b60345ece" x1="29.77" y1="35.5" x2="636.52" y2="35.5"/>
      <line class="b9a65d12-c54e-408a-951e-4c5b60345ece" x1="29.77" y1="78.25" x2="636.52" y2="78.25"/>
      <line class="b9a65d12-c54e-408a-951e-4c5b60345ece" x1="29.77" y1="121" x2="636.52" y2="121"/>
      <line class="b9a65d12-c54e-408a-951e-4c5b60345ece" x1="29.77" y1="163.75" x2="636.52" y2="163.75"/>
      <line class="b9a65d12-c54e-408a-951e-4c5b60345ece" x1="29.77" y1="206.5" x2="636.52" y2="206.5"/>
      <line class="b9a65d12-c54e-408a-951e-4c5b60345ece" x1="29.77" y1="249.25" x2="636.52" y2="249.25"/>
      <line class="b9a65d12-c54e-408a-951e-4c5b60345ece" x1="29.77" y1="292" x2="636.52" y2="292"/>
      <line class="b9a65d12-c54e-408a-951e-4c5b60345ece" x1="29.77" y1="335.5" x2="636.52" y2="335.5"/>
      <line class="b9a65d12-c54e-408a-951e-4c5b60345ece" x1="29.77" y1="378.25" x2="636.52" y2="378.25"/>
      <line class="b9a65d12-c54e-408a-951e-4c5b60345ece" x1="29.77" y1="421" x2="636.52" y2="421"/>
      <rect class="e84fb302-2dd2-48a0-bc3d-a04f71580541" x="29.77" y="463.75" width="6.52" height="0.38"/>
      <rect class="e84fb302-2dd2-48a0-bc3d-a04f71580541" x="36.29" y="463.75" width="6.52" height="0.38"/>
      <polygon class="f6a66d3b-c091-4997-9e29-808948d296d1" points="629.58 0.25 629.58 19.75 623.13 19.75 623.13 31.75 616.61 31.75 616.61 46 610.13 46 610.13 59.5 603.61 59.5 603.61 73.75 597.08 73.75 597.08 93.25 590.6 93.25 590.6 103 584.07 103 584.07 118 577.55 118 577.55 128.5 571.07 128.5 571.07 145 564.54 145 564.54 153.25 558.1 153.25 558.1 163 551.58 163 551.58 173.5 545.05 173.5 545.05 183.25 538.61 183.25 538.61 194.5 532.09 194.5 532.09 199 525.61 199 525.61 205.75 519.08 205.75 519.08 210.25 512.56 210.25 512.56 216.25 506.04 216.25 506.04 223 499.51 223 499.51 229.75 492.99 229.75 492.99 249.25 486.46 249.25 486.46 253 479.94 253 479.94 256.75 473.41 256.75 473.41 259.75 466.89 259.75 466.89 267.25 460.37 267.25 460.37 272.5 453.84 272.5 453.84 277 447.32 277 447.32 282.25 440.79 282.25 440.79 285.25 434.27 285.25 434.27 290.5 427.74 290.5 427.74 292 421.22 292 421.22 292.75 414.7 292.75 414.7 303.25 408.17 303.25 408.17 305.5 401.65 305.5 401.65 309.25 395.12 309.25 395.12 313 388.6 313 388.6 315.25 382.07 315.25 382.07 316.75 375.55 316.75 375.55 319 369.03 319 369.03 322 362.5 322 362.5 323.5 355.98 323.5 355.98 326.5 349.45 326.5 349.45 329.5 342.93 329.5 342.93 332.5 336.41 332.5 336.41 335.5 329.88 335.5 329.88 339.25 323.36 339.25 323.36 343 316.83 343 316.83 352 310.31 352 310.31 361 303.79 361 303.79 367 297.26 367 297.26 379 290.74 379 290.74 387.25 284.21 387.25 277.69 387.25 277.69 391 271.16 391 271.16 394 264.64 394 264.64 395.5 258.12 395.5 258.12 399.25 251.59 399.25 251.59 400.75 245.07 400.75 245.07 409 238.54 409 238.54 411.25 232.02 411.25 232.02 412 225.49 412 225.49 415 218.97 415 218.97 417.25 212.45 417.25 212.45 421 205.92 421 205.92 424 199.4 424 199.4 427 192.87 427 192.87 432.25 186.35 432.25 186.35 432.25 179.82 432.25 179.82 434.5 173.3 434.5 173.3 436.75 166.78 436.75 166.78 439.75 160.25 439.75 160.25 442 153.73 442 153.73 444.25 147.2 444.25 147.2 446.5 140.68 446.5 140.68 447.25 134.16 447.25 134.16 448.75 127.63 448.75 127.63 450.25 121.11 450.25 121.11 454 114.58 454 114.58 455.5 108.06 455.5 108.06 457 101.53 457 101.53 458.5 95.01 458.5 95.01 459.25 88.49 459.25 88.49 460.75 81.96 460.75 81.96 462.25 75.44 462.25 75.44 463 68.91 463 62.39 463 55.87 463 49.34 463 42.82 463 42.82 463.75 49.34 463.75 55.87 463.75 62.39 463.75 68.91 463.75 75.44 463.75 81.96 463.75 88.49 463.75 95.01 463.75 101.53 463.75 108.06 463.75 114.58 463.75 121.11 463.75 121.11 463.75 127.63 463.75 134.16 463.75 140.68 463.75 147.2 463.75 153.73 463.75 153.73 463.75 160.25 463.75 166.78 463.75 173.3 463.75 179.82 463.75 186.35 463.75 186.35 463.75 192.87 463.75 199.4 463.75 205.92 463.75 212.45 463.75 218.97 463.75 225.49 463.75 232.02 463.75 238.54 463.75 245.07 463.75 251.59 463.75 258.12 463.75 264.64 463.75 271.16 463.75 277.69 463.75 284.21 463.75 290.74 463.75 297.26 463.75 303.79 463.75 310.31 463.75 316.83 463.75 323.36 463.75 329.88 463.75 336.41 463.75 336.41 463.75 342.93 463.75 349.45 463.75 355.98 463.75 362.5 463.75 369.03 463.75 375.55 463.75 382.07 463.75 388.6 463.75 395.12 463.75 401.65 463.75 408.17 463.75 414.7 463.75 421.22 463.75 421.22 463.75 427.74 463.75 434.27 463.75 440.79 463.75 447.32 463.75 453.84 463.75 453.84 463.75 460.37 463.75 466.89 463.75 473.41 463.75 479.94 463.75 486.46 463.75 492.99 463.75 499.51 463.75 506.04 463.75 512.56 463.75 519.08 463.75 525.61 463.75 532.09 463.75 532.13 463.75 538.61 463.75 545.05 463.75 545.14 463.75 551.58 463.75 558.1 463.75 564.54 463.75 564.63 463.75 571.07 463.75 577.55 463.75 577.59 463.75 584.07 463.75 590.6 463.75 597.08 463.75 597.12 463.75 603.61 463.75 610.13 463.75 616.61 463.75 616.65 463.75 623.13 463.75 629.58 463.75 629.66 463.75 636.1 463.75 636.1 0.25 629.58 0.25"/>
      <line class="f7ace96a-8167-4368-97f7-beebf6aeb974" x1="29.77" y1="463.75" x2="636.52" y2="463.75"/>
    </g>
    <text class="f1dd294a-9fd4-474f-b167-47a839f5d860" transform="translate(4.3 424.1)">1000</text>
    <text class="f1dd294a-9fd4-474f-b167-47a839f5d860" transform="translate(4.3 381.35)">2000</text>
    <text class="f1dd294a-9fd4-474f-b167-47a839f5d860" transform="translate(4.3 338.6)">3000</text>
    <text class="f1dd294a-9fd4-474f-b167-47a839f5d860" transform="translate(4.3 295.1)">4000</text>
    <text class="f1dd294a-9fd4-474f-b167-47a839f5d860" transform="translate(4.3 252.35)">5000</text>
    <text class="f1dd294a-9fd4-474f-b167-47a839f5d860" transform="translate(4.3 209.6)">6000</text>
    <text class="f1dd294a-9fd4-474f-b167-47a839f5d860" transform="translate(4.3 166.85)">7000</text>
    <text class="f1dd294a-9fd4-474f-b167-47a839f5d860" transform="translate(4.3 124.1)">8000</text>
    <text class="f1dd294a-9fd4-474f-b167-47a839f5d860" transform="translate(4.3 81.35)">9000</text>
    <text class="f1dd294a-9fd4-474f-b167-47a839f5d860" transform="translate(0 38.6)">10000</text>
  </g>
  <text class="b1f0ac9a-5d04-487d-aa53-9475813fa562" transform="translate(618.01 479.09)">6/11</text>
  <text class="b1f0ac9a-5d04-487d-aa53-9475813fa562" transform="translate(39 479.09)">3/11</text>
</svg>
