<?xml version="1.0" encoding="utf-8"?>
<!-- Generator: Adobe Illustrator 23.0.1, SVG Export Plug-In . SVG Version: 6.00 Build 0)  -->
<svg version="1.1" id="Layer_1" xmlns="http://www.w3.org/2000/svg" xmlns:xlink="http://www.w3.org/1999/xlink" x="0px" y="0px"
	 viewBox="0 0 637.5 487.5" style="enable-background:new 0 0 637.5 487.5;" xml:space="preserve">
<style type="text/css">
	.st0{clip-path:url(#SVGID_2_);}
	.st1{clip-path:url(#SVGID_4_);fill:none;stroke:#E8E8E8;stroke-width:0.75;stroke-miterlimit:10;}
	.st2{clip-path:url(#SVGID_4_);fill:#C71E1D;}
	.st3{clip-path:url(#SVGID_4_);fill:#C71E1D;fill-opacity:0.6;stroke:#000000;stroke-width:0.5;stroke-miterlimit:10;}
	.st4{clip-path:url(#SVGID_4_);fill:none;stroke:#333333;stroke-width:0.75;stroke-miterlimit:10;}
	.st5{fill:#A6A6A6;}
	.st6{font-family:'Roboto-Regular';}
	.st7{font-size:9px;}
	.st8{fill:#333333;}
</style>
<g>
	<defs>
		<rect id="SVGID_1_" width="637.5" height="487.5"/>
	</defs>
	<clipPath id="SVGID_2_">
		<use xlink:href="#SVGID_1_"  style="overflow:visible;"/>
	</clipPath>
	<g class="st0">
		<defs>
			<polyline id="SVGID_3_" points="0,483 0,0 637.5,0 637.5,483 			"/>
		</defs>
		<clipPath id="SVGID_4_">
			<use xlink:href="#SVGID_3_"  style="overflow:visible;"/>
		</clipPath>
		<line class="st1" x1="26.2" y1="48.8" x2="637.5" y2="48.8"/>
		<line class="st1" x1="26.2" y1="108" x2="637.5" y2="108"/>
		<line class="st1" x1="26.2" y1="167.2" x2="637.5" y2="167.2"/>
		<line class="st1" x1="26.2" y1="226.5" x2="637.5" y2="226.5"/>
		<line class="st1" x1="26.2" y1="285.8" x2="637.5" y2="285.8"/>
		<line class="st1" x1="26.2" y1="345" x2="637.5" y2="345"/>
		<line class="st1" x1="26.2" y1="404.2" x2="637.5" y2="404.2"/>
		<rect x="26.2" y="463.5" class="st2" width="7.3" height="0.4"/>
		<rect x="33.5" y="463.5" class="st2" width="7.3" height="0.4"/>
		<polygon class="st3" points="629.9,0 629.9,22.5 622.6,22.5 622.6,33.8 615.3,33.8 615.3,48 608,48 608,61.5 600.8,61.5 
			600.8,75.8 593.5,75.8 593.5,91.5 586.2,91.5 586.2,96.8 578.9,96.8 578.9,105.8 571.7,105.8 571.7,112.5 564.4,112.5 
			564.4,120.8 557.1,120.8 557.1,130.5 549.8,130.5 549.8,140.2 542.6,140.2 542.6,167.2 535.3,167.2 535.3,171.8 528,171.8 
			528,177 520.7,177 520.7,181.5 513.4,181.5 513.4,192 506.2,192 506.2,198.8 498.9,198.8 498.9,204.8 491.6,204.8 491.6,212.2 
			484.3,212.2 484.3,216.8 477.1,216.8 477.1,223.5 469.8,223.5 469.8,225.8 462.5,225.8 462.5,227.2 455.2,227.2 455.2,241.5 
			448,241.5 448,244.5 440.7,244.5 440.7,249.8 433.4,249.8 433.4,254.2 426.1,254.2 426.1,258 418.9,258 418.9,260.2 411.6,260.2 
			411.6,263.2 404.3,263.2 404.3,267 397,267 397,269.2 389.7,269.2 389.7,273 382.5,273 382.5,278.2 375.2,278.2 375.2,281.2 
			367.9,281.2 367.9,285.8 360.6,285.8 360.6,291 353.4,291 353.4,297 346.1,297 346.1,309.8 338.8,309.8 338.8,321.8 331.5,321.8 
			331.5,329.2 324.3,329.2 324.3,346.5 317,346.5 317,357.8 309.7,357.8 309.7,358.5 302.4,358.5 302.4,363 295.1,363 295.1,367.5 
			287.9,367.5 287.9,369 280.6,369 280.6,375 273.3,375 273.3,375.8 266,375.8 266,387.8 258.8,387.8 258.8,390.8 251.5,390.8 
			251.5,392.2 244.2,392.2 244.2,395.2 236.9,395.2 236.9,399.8 229.7,399.8 229.7,404.2 222.4,404.2 222.4,408.8 215.1,408.8 
			215.1,413.2 207.8,413.2 207.8,419.2 200.7,419.2 200.7,420 193.4,420 193.4,423 186.2,423 186.2,426.8 178.9,426.8 178.9,429.8 
			171.6,429.8 171.6,433.5 164.3,433.5 164.3,437.2 157.1,437.2 157.1,439.5 150,439.5 150,440.2 142.7,440.2 142.7,442.5 
			135.4,442.5 135.4,445.5 128.1,445.5 128.1,450 120.8,450 120.8,451.5 113.6,451.5 113.6,453.8 106.3,453.8 106.3,456 99,456 
			99,457.5 91.7,457.5 91.7,459.8 84.5,459.8 84.5,461.2 77.2,461.2 77.2,462 69.9,462 62.6,462 62.6,462.8 55.4,462.8 48.1,462.8 
			40.8,462.8 40.8,463.5 48.1,463.5 55.4,463.5 62.6,463.5 69.9,463.5 77.2,463.5 84.5,463.5 91.7,463.5 99,463.5 106.3,463.5 
			106.3,463.5 113.6,463.5 120.8,463.5 128.1,463.5 135.4,463.5 142.7,463.5 150,463.5 157.1,463.5 157.2,463.5 164.3,463.5 
			171.6,463.5 178.9,463.5 186.2,463.5 193.4,463.5 200.7,463.5 207.8,463.5 208,463.5 215.1,463.5 222.4,463.5 229.7,463.5 
			236.9,463.5 244.2,463.5 251.5,463.5 258.8,463.5 266,463.5 273.3,463.5 273.3,463.5 280.6,463.5 287.9,463.5 295.1,463.5 
			302.4,463.5 309.7,463.5 317,463.5 324.3,463.5 324.3,463.5 331.5,463.5 338.8,463.5 346.1,463.5 353.4,463.5 360.6,463.5 
			367.9,463.5 375.2,463.5 375.2,463.5 382.5,463.5 389.7,463.5 397,463.5 404.3,463.5 411.6,463.5 418.9,463.5 426.1,463.5 
			426.1,463.5 433.4,463.5 440.7,463.5 448,463.5 455.2,463.5 462.5,463.5 469.8,463.5 477.1,463.5 477.1,463.5 484.3,463.5 
			491.6,463.5 498.9,463.5 506.2,463.5 513.4,463.5 520.7,463.5 528,463.5 535.3,463.5 542.6,463.5 549.8,463.5 557.1,463.5 
			564.4,463.5 564.4,463.5 571.7,463.5 578.9,463.5 586.2,463.5 593.5,463.5 600.8,463.5 608,463.5 615.3,463.5 615.3,463.5 
			622.6,463.5 629.9,463.5 637.2,463.5 637.2,0 		"/>
		<line class="st4" x1="26.2" y1="463.5" x2="637.5" y2="463.5"/>
	</g>
	<g class="st0">
		<text transform="matrix(1 0 0 1 3.515625e-02 406.5996)" class="st5 st6 st7">1000</text>
	</g>
	<g class="st0">
		<text transform="matrix(1 0 0 1 3.515625e-02 347.3496)" class="st5 st6 st7">2000</text>
	</g>
	<g class="st0">
		<text transform="matrix(1 0 0 1 3.515625e-02 288.0996)" class="st5 st6 st7">3000</text>
	</g>
	<g class="st0">
		<text transform="matrix(1 0 0 1 3.515625e-02 228.8496)" class="st5 st6 st7">4000</text>
	</g>
	<g class="st0">
		<text transform="matrix(1 0 0 1 3.515625e-02 169.5996)" class="st5 st6 st7">5000</text>
	</g>
	<g class="st0">
		<text transform="matrix(1 0 0 1 3.515625e-02 110.3496)" class="st5 st6 st7">6000</text>
	</g>
	<g class="st0">
		<text transform="matrix(1 0 0 1 3.515625e-02 51.0996)" class="st5 st6 st7">7000</text>
	</g>
</g>
<g>
	<text transform="matrix(1 0 0 1 622.6814 477.6921)" class="st8 st6 st7">6/2</text>
</g>
<g>
	<text transform="matrix(1 0 0 1 33.9903 477.692)" class="st8 st6 st7">3/11</text>
</g>
</svg>
