<?xml version="1.0" encoding="utf-8"?>
<!-- Generator: Adobe Illustrator 23.0.1, SVG Export Plug-In . SVG Version: 6.00 Build 0)  -->
<svg version="1.1" id="Layer_1" xmlns="http://www.w3.org/2000/svg" xmlns:xlink="http://www.w3.org/1999/xlink" x="0px" y="0px"
	 viewBox="0 0 637.5 487.5" style="enable-background:new 0 0 637.5 487.5;" xml:space="preserve">
<style type="text/css">
	.st0{clip-path:url(#SVGID_2_);}
	.st1{clip-path:url(#SVGID_4_);fill:none;stroke:#E8E8E8;stroke-width:0.75;stroke-miterlimit:10;}
	.st2{clip-path:url(#SVGID_4_);fill:#C71E1D;}
	.st3{clip-path:url(#SVGID_4_);fill:#C71E1D;fill-opacity:0.6;stroke:#000000;stroke-width:0.5;stroke-miterlimit:10;}
	.st4{clip-path:url(#SVGID_4_);fill:none;stroke:#333333;stroke-width:0.75;stroke-miterlimit:10;}
	.st5{fill:#A6A6A6;}
	.st6{font-family:'Roboto-Regular';}
	.st7{font-size:9px;}
	.st8{fill:#333333;}
</style>
<g>
	<defs>
		<rect id="SVGID_1_" width="637.5" height="487.5"/>
	</defs>
	<clipPath id="SVGID_2_">
		<use xlink:href="#SVGID_1_"  style="overflow:visible;"/>
	</clipPath>
	<g class="st0">
		<defs>
			<rect id="SVGID_3_" width="637.5" height="483"/>
		</defs>
		<clipPath id="SVGID_4_">
			<use xlink:href="#SVGID_3_"  style="overflow:visible;"/>
		</clipPath>
		<line class="st1" x1="30.8" y1="3.8" x2="637.5" y2="3.8"/>
		<line class="st1" x1="30.8" y1="49.5" x2="637.5" y2="49.5"/>
		<line class="st1" x1="30.8" y1="96" x2="637.5" y2="96"/>
		<line class="st1" x1="30.8" y1="141.8" x2="637.5" y2="141.8"/>
		<line class="st1" x1="30.8" y1="187.5" x2="637.5" y2="187.5"/>
		<line class="st1" x1="30.8" y1="233.2" x2="637.5" y2="233.2"/>
		<line class="st1" x1="30.8" y1="279.8" x2="637.5" y2="279.8"/>
		<line class="st1" x1="30.8" y1="325.5" x2="637.5" y2="325.5"/>
		<line class="st1" x1="30.8" y1="371.2" x2="637.5" y2="371.2"/>
		<line class="st1" x1="30.8" y1="417.8" x2="637.5" y2="417.8"/>
		<rect x="30.8" y="463.5" class="st2" width="6.7" height="0.4"/>
		<rect x="37.4" y="463.5" class="st2" width="6.7" height="0.4"/>
		<polygon class="st3" points="630.6,0.1 630.6,15.8 623.9,15.8 623.9,30.1 617.3,30.1 617.3,45.1 610.6,45.1 610.6,66.1 
			603.9,66.1 603.9,75.8 597.3,75.8 597.3,92.3 590.6,92.3 590.6,104.3 583.9,104.3 583.9,121.6 577.3,121.6 577.3,129.8 
			570.6,129.8 570.6,141.1 563.9,141.1 563.9,152.3 557.3,152.3 557.3,162.8 550.6,162.8 550.6,174.8 543.9,174.8 543.9,179.3 
			537.3,179.3 537.3,186.1 530.6,186.1 530.6,191.3 523.9,191.3 523.9,198.1 517.3,198.1 517.3,205.6 510.6,205.6 510.6,212.3 
			504,212.3 504,233.3 497.3,233.3 497.3,237.1 490.7,237.1 490.7,241.5 484.1,241.5 484.1,244.5 477.5,244.5 477.5,252.8 
			470.8,252.8 470.8,258 464.1,258 464.1,262.5 457.5,262.5 457.5,268.5 450.8,268.5 450.8,272.2 444.1,272.2 444.1,277.5 
			437.5,277.5 437.5,279 430.8,279 430.8,280.5 424.1,280.5 424.1,291 417.5,291 417.5,294 410.8,294 410.8,297.8 404.1,297.8 
			404.1,301.5 397.5,301.5 397.5,303.8 390.8,303.8 390.8,306 384.1,306 384.1,308.2 377.5,308.2 377.5,311.2 370.8,311.2 
			370.8,312.8 364.1,312.8 364.1,315.8 357.5,315.8 357.5,319.5 350.8,319.5 350.8,322.5 344.1,322.5 344.1,325.5 337.5,325.5 
			337.5,330 330.8,330 330.8,334.5 324.1,334.5 324.1,344.2 317.5,344.2 317.5,353.2 310.8,353.2 310.8,359.2 304.1,359.2 
			304.1,372.8 297.5,372.8 297.5,381.8 290.8,381.8 284.1,381.8 284.1,385.5 277.5,385.5 277.5,389.2 270.8,389.2 270.8,390 
			264.1,390 264.1,394.5 257.4,394.5 257.4,396 250.8,396 250.8,405 244.1,405 244.1,407.2 237.4,407.2 237.4,408 230.8,408 
			230.8,411 224.1,411 224.1,414 217.4,414 217.4,417.8 210.8,417.8 210.8,420.8 204.1,420.8 204.1,424.5 197.4,424.5 197.4,429 
			190.8,429 190.8,429.8 184.1,429.8 184.1,432 177.4,432 177.4,435 170.8,435 170.8,437.2 164.1,437.2 164.1,440.2 157.4,440.2 
			157.4,442.5 150.8,442.5 150.8,444.8 144.1,444.8 144.1,445.5 137.4,445.5 137.4,447.8 130.8,447.8 130.8,449.2 124.1,449.2 
			124.1,453 117.4,453 117.4,454.5 110.8,454.5 110.8,456 104.1,456 104.1,458.2 97.4,458.2 97.4,459 90.8,459 90.8,460.5 
			84.1,460.5 84.1,462 77.4,462 77.4,462.8 70.8,462.8 64.1,462.8 57.4,462.8 50.8,462.8 44.1,462.8 44.1,463.5 50.8,463.5 
			57.4,463.5 64.1,463.5 70.8,463.5 77.4,463.5 84.1,463.5 90.8,463.5 97.4,463.5 104.1,463.5 110.8,463.5 117.4,463.5 124.1,463.5 
			130.8,463.5 137.4,463.5 144.1,463.5 150.8,463.5 157.4,463.5 164.1,463.5 170.8,463.5 177.4,463.5 184.1,463.5 190.8,463.5 
			197.4,463.5 204.1,463.5 210.8,463.5 217.4,463.5 224.1,463.5 230.8,463.5 237.4,463.5 244.1,463.5 250.8,463.5 257.4,463.5 
			264.1,463.5 270.8,463.5 277.5,463.5 284.1,463.5 290.8,463.5 297.5,463.5 304.1,463.5 310.8,463.5 317.5,463.5 324.1,463.5 
			330.8,463.5 337.5,463.5 344.1,463.5 350.8,463.5 357.5,463.5 364.1,463.5 370.8,463.5 377.5,463.5 384.1,463.5 390.8,463.5 
			397.5,463.5 404.1,463.5 410.8,463.5 417.5,463.5 424.1,463.5 430.8,463.5 437.5,463.5 444.1,463.5 450.8,463.5 457.5,463.5 
			464.1,463.5 470.8,463.5 477.5,463.5 484.1,463.5 490.7,463.5 490.7,463.6 497.3,463.6 504,463.6 510.6,463.6 510.7,463.6 
			517.3,463.6 523.9,463.6 530.6,463.6 530.6,463.6 537.3,463.6 543.9,463.6 550.6,463.6 550.6,463.6 557.3,463.6 563.9,463.6 
			570.6,463.6 570.6,463.6 577.3,463.6 583.9,463.6 590.6,463.6 590.6,463.6 597.3,463.6 603.9,463.6 610.6,463.6 610.6,463.6 
			617.3,463.6 623.9,463.6 630.6,463.6 630.6,463.6 637.3,463.6 637.3,0.1 		"/>
		<line class="st4" x1="30.8" y1="463.5" x2="637.5" y2="463.5"/>
	</g>
	<g class="st0">
		<text transform="matrix(1 0 0 1 5.2852 420.8496)" class="st5 st6 st7">1000</text>
	</g>
	<g class="st0">
		<text transform="matrix(1 0 0 1 5.2852 374.3496)" class="st5 st6 st7">2000</text>
	</g>
	<g class="st0">
		<text transform="matrix(1 0 0 1 5.2852 328.5996)" class="st5 st6 st7">3000</text>
	</g>
	<g class="st0">
		<text transform="matrix(1 0 0 1 5.2852 282.8496)" class="st5 st6 st7">4000</text>
	</g>
	<g class="st0">
		<text transform="matrix(1 0 0 1 5.2852 236.3496)" class="st5 st6 st7">5000</text>
	</g>
	<g class="st0">
		<text transform="matrix(1 0 0 1 5.2852 190.5996)" class="st5 st6 st7">6000</text>
	</g>
	<g class="st0">
		<text transform="matrix(1 0 0 1 5.2852 144.8496)" class="st5 st6 st7">7000</text>
	</g>
	<g class="st0">
		<text transform="matrix(1 0 0 1 5.2852 99.0996)" class="st5 st6 st7">8000</text>
	</g>
	<g class="st0">
		<text transform="matrix(1 0 0 1 5.2852 52.5996)" class="st5 st6 st7">9000</text>
	</g>
	<g class="st0">
		<text transform="matrix(1 0 0 1 0.9814 6.8496)" class="st5 st6 st7">10000</text>
	</g>
</g>
<g>
	<text transform="matrix(1 0 0 1 623.1147 478.8903)" class="st8 st6 st7">6/9</text>
</g>
<g>
	<text transform="matrix(1 0 0 1 38.956 478.8905)" class="st8 st6 st7">3/11</text>
</g>
</svg>
