<?xml version="1.0" encoding="utf-8"?>
<!-- Generator: Adobe Illustrator 23.0.1, SVG Export Plug-In . SVG Version: 6.00 Build 0)  -->
<svg version="1.1" id="Layer_1" xmlns="http://www.w3.org/2000/svg" xmlns:xlink="http://www.w3.org/1999/xlink" x="0px" y="0px"
	 viewBox="0 0 637.5 487.5" style="enable-background:new 0 0 637.5 487.5;" xml:space="preserve">
<style type="text/css">
	.st0{clip-path:url(#SVGID_2_);}
	.st1{clip-path:url(#SVGID_4_);fill:none;stroke:#E8E8E8;stroke-width:0.75;stroke-miterlimit:10;}
	.st2{clip-path:url(#SVGID_4_);fill:#C71E1D;}
	.st3{clip-path:url(#SVGID_4_);fill:#C71E1D;fill-opacity:0.6;stroke:#000000;stroke-width:0.5;stroke-miterlimit:10;}
	.st4{clip-path:url(#SVGID_4_);fill:none;stroke:#333333;stroke-width:0.75;stroke-miterlimit:10;}
	.st5{fill:#A6A6A6;}
	.st6{font-family:'Roboto-Regular';}
	.st7{font-size:9px;}
	.st8{fill:#333333;}
</style>
<g>
	<defs>
		<rect id="SVGID_1_" width="637.5" height="487.5"/>
	</defs>
	<clipPath id="SVGID_2_">
		<use xlink:href="#SVGID_1_"  style="overflow:visible;"/>
	</clipPath>
	<g class="st0">
		<defs>
			<polyline id="SVGID_3_" points="0,483 0,0 637.5,0 637.5,483 			"/>
		</defs>
		<clipPath id="SVGID_4_">
			<use xlink:href="#SVGID_3_"  style="overflow:visible;"/>
		</clipPath>
		<line class="st1" x1="26.2" y1="35.2" x2="637.5" y2="35.2"/>
		<line class="st1" x1="26.2" y1="88.5" x2="637.5" y2="88.5"/>
		<line class="st1" x1="26.2" y1="141.8" x2="637.5" y2="141.8"/>
		<line class="st1" x1="26.2" y1="195.8" x2="637.5" y2="195.8"/>
		<line class="st1" x1="26.2" y1="249" x2="637.5" y2="249"/>
		<line class="st1" x1="26.2" y1="303" x2="637.5" y2="303"/>
		<line class="st1" x1="26.2" y1="356.2" x2="637.5" y2="356.2"/>
		<line class="st1" x1="26.2" y1="410.2" x2="637.5" y2="410.2"/>
		<rect x="26.2" y="463.5" class="st2" width="7" height="0.4"/>
		<rect x="33.3" y="463.5" class="st2" width="7" height="0.4"/>
		<polygon class="st3" points="630.5,0 630.5,12 623.4,12 623.4,31.5 616.4,31.5 616.4,45 609.4,45 609.4,64.5 602.4,64.5 602.4,75 
			595.3,75 595.3,87.8 588.3,87.8 588.3,100.5 581.3,100.5 581.3,113.2 574.3,113.2 574.3,127.5 567.2,127.5 567.2,132.8 
			560.2,132.8 560.2,140.2 553.2,140.2 553.2,146.2 546.2,146.2 546.2,153.8 539.1,153.8 539.1,162.8 532.1,162.8 532.1,171 
			525.1,171 525.1,195.8 518.1,195.8 518.1,199.5 511,199.5 511,204.8 504,204.8 504,208.5 497,208.5 497,218.2 490,218.2 
			490,224.2 482.9,224.2 482.9,229.5 475.9,229.5 475.9,236.2 468.9,236.2 468.9,240.8 461.9,240.8 461.9,246.8 454.8,246.8 
			454.8,248.2 447.8,248.2 447.8,249.8 440.8,249.8 440.8,262.5 433.8,262.5 433.8,265.5 426.7,265.5 426.7,270 419.7,270 
			419.7,274.5 412.7,274.5 412.7,277.5 405.6,277.5 405.6,279.8 398.6,279.8 398.6,282.8 391.6,282.8 391.6,286.5 384.6,286.5 
			384.6,288 377.5,288 377.5,291.8 370.5,291.8 370.5,296.2 363.5,296.2 363.5,299.2 356.5,299.2 356.5,303 349.4,303 349.4,307.5 
			342.4,307.5 342.4,312.8 335.4,312.8 335.4,324 328.4,324 328.4,335.2 321.3,335.2 321.3,342 314.3,342 314.3,357.8 307.3,357.8 
			307.3,368.2 300.3,368.2 300.3,368.2 293.2,368.2 293.2,372.8 286.2,372.8 286.2,376.5 279.2,376.5 279.2,378 272.2,378 
			272.2,383.2 265.1,383.2 265.1,384.8 258.1,384.8 258.1,395.2 251.1,395.2 251.1,397.5 244.1,397.5 244.1,399 237,399 237,402 
			230,402 230,405.8 223,405.8 223,410.2 215.9,410.2 215.9,414 208.9,414 208.9,417.8 201.9,417.8 201.9,423.8 194.9,423.8 
			187.8,423.8 187.8,426.8 180.8,426.8 180.8,429.8 173.8,429.8 173.8,433.5 166.8,433.5 166.8,436.5 159.7,436.5 159.7,439.5 
			152.7,439.5 152.7,441.8 145.7,441.8 145.7,442.5 138.7,442.5 138.7,444.8 131.6,444.8 131.6,447 124.6,447 124.6,450.8 
			117.6,450.8 117.6,453 110.6,453 110.6,454.5 103.5,454.5 103.5,456.8 96.5,456.8 96.5,458.2 89.5,458.2 89.5,460.5 82.5,460.5 
			82.5,462 75.4,462 68.4,462 61.4,462 61.4,462.8 54.4,462.8 47.3,462.8 40.3,462.8 40.3,463.5 47.3,463.5 54.4,463.5 61.4,463.5 
			68.4,463.5 75.4,463.5 82.5,463.5 89.5,463.5 96.5,463.5 103.5,463.5 110.6,463.5 117.6,463.5 117.6,463.5 124.6,463.5 
			131.6,463.5 138.7,463.5 145.7,463.5 152.7,463.5 159.7,463.5 166.8,463.5 173.8,463.5 180.8,463.5 187.8,463.5 194.9,463.5 
			201.9,463.5 208.9,463.5 215.9,463.5 223,463.5 230,463.5 237,463.5 244.1,463.5 251.1,463.5 258.1,463.5 265.1,463.5 
			272.2,463.5 279.2,463.5 279.2,463.5 286.2,463.5 293.2,463.5 300.3,463.5 300.3,463.5 307.3,463.5 314.3,463.5 321.3,463.5 
			328.4,463.5 328.4,463.5 335.4,463.5 342.4,463.5 349.4,463.5 356.5,463.5 356.5,463.5 363.5,463.5 370.5,463.5 377.5,463.5 
			377.5,463.5 384.6,463.5 391.6,463.5 398.6,463.5 405.6,463.5 405.6,463.5 412.7,463.5 419.7,463.5 426.7,463.5 433.8,463.5 
			433.8,463.5 440.8,463.5 447.8,463.5 454.8,463.5 454.8,463.5 461.9,463.5 468.9,463.5 475.9,463.5 482.9,463.5 482.9,463.5 
			490,463.5 497,463.5 504,463.5 504,463.5 511,463.5 518.1,463.5 525.1,463.5 525.1,463.5 532.1,463.5 539.1,463.5 546.2,463.5 
			553.2,463.5 553.2,463.5 560.2,463.5 567.2,463.5 574.3,463.5 574.3,463.5 581.3,463.5 588.3,463.5 595.3,463.5 602.4,463.5 
			602.4,463.5 609.4,463.5 616.4,463.5 623.4,463.5 630.5,463.5 630.5,463.5 637.5,463.5 637.5,0 		"/>
		<line class="st4" x1="26.2" y1="463.5" x2="637.5" y2="463.5"/>
	</g>
	<g class="st0">
		<text transform="matrix(1 0 0 1 0.7852 413.3496)" class="st5 st6 st7">1000</text>
	</g>
	<g class="st0">
		<text transform="matrix(1 0 0 1 0.7852 359.3496)" class="st5 st6 st7">2000</text>
	</g>
	<g class="st0">
		<text transform="matrix(1 0 0 1 0.7852 306.0996)" class="st5 st6 st7">3000</text>
	</g>
	<g class="st0">
		<text transform="matrix(1 0 0 1 0.7852 252.0996)" class="st5 st6 st7">4000</text>
	</g>
	<g class="st0">
		<text transform="matrix(1 0 0 1 0.7852 198.8496)" class="st5 st6 st7">5000</text>
	</g>
	<g class="st0">
		<text transform="matrix(1 0 0 1 0.7852 144.8496)" class="st5 st6 st7">6000</text>
	</g>
	<g class="st0">
		<text transform="matrix(1 0 0 1 0.7852 91.5996)" class="st5 st6 st7">7000</text>
	</g>
	<g class="st0">
		<text transform="matrix(1 0 0 1 0.7852 38.3496)" class="st5 st6 st7">8000</text>
	</g>
</g>
<g>
	<text transform="matrix(1 0 0 1 623.5867 477.6046)" class="st8 st6 st7">6/5</text>
</g>
<g>
	<text transform="matrix(1 0 0 1 35.8191 477.6047)" class="st8 st6 st7">3/11</text>
</g>
</svg>
