<?xml version="1.0" encoding="utf-8"?>
<!-- Generator: Adobe Illustrator 23.0.1, SVG Export Plug-In . SVG Version: 6.00 Build 0)  -->
<svg version="1.1" id="Layer_1" xmlns="http://www.w3.org/2000/svg" xmlns:xlink="http://www.w3.org/1999/xlink" x="0px" y="0px"
	 viewBox="0 0 637.5 487.5" style="enable-background:new 0 0 637.5 487.5;" xml:space="preserve">
<style type="text/css">
	.st0{clip-path:url(#SVGID_2_);enable-background:new    ;}
	.st1{clip-path:url(#SVGID_4_);fill:none;stroke:#E8E8E8;stroke-width:0.75;stroke-miterlimit:10;}
	.st2{clip-path:url(#SVGID_4_);fill:#C71E1D;}
	.st3{clip-path:url(#SVGID_4_);fill:#C71E1D;fill-opacity:0.6;stroke:#000000;stroke-width:0.5;stroke-miterlimit:10;}
	.st4{clip-path:url(#SVGID_4_);fill:none;stroke:#333333;stroke-width:0.75;stroke-miterlimit:10;}
	.st5{clip-path:url(#SVGID_4_);}
	.st6{fill:#A6A6A6;}
	.st7{font-family:'Roboto-Regular';}
	.st8{font-size:9px;}
	.st9{fill:#333333;}
</style>
<g>
	<defs>
		<rect id="SVGID_1_" width="637.5" height="487.5"/>
	</defs>
	<clipPath id="SVGID_2_">
		<use xlink:href="#SVGID_1_"  style="overflow:visible;"/>
	</clipPath>
	<g class="st0">
		<g>
			<defs>
				<rect id="SVGID_3_" width="637.5" height="487.5"/>
			</defs>
			<clipPath id="SVGID_4_">
				<use xlink:href="#SVGID_3_"  style="overflow:visible;"/>
			</clipPath>
			<line class="st1" x1="26.2" y1="30.8" x2="637.5" y2="30.8"/>
			<line class="st1" x1="26.2" y1="92.2" x2="637.5" y2="92.2"/>
			<line class="st1" x1="26.2" y1="154.5" x2="637.5" y2="154.5"/>
			<line class="st1" x1="26.2" y1="216" x2="637.5" y2="216"/>
			<line class="st1" x1="26.2" y1="278.2" x2="637.5" y2="278.2"/>
			<line class="st1" x1="26.2" y1="339.8" x2="637.5" y2="339.8"/>
			<line class="st1" x1="26.2" y1="402" x2="637.5" y2="402"/>
			<rect x="26.2" y="463.5" class="st2" width="10.4" height="0.4"/>
			<polygon class="st3" points="627.1,0 627.1,6.8 616.8,6.8 616.8,16.5 606.4,16.5 606.4,27.8 596.1,27.8 596.1,34.5 585.7,34.5 
				585.7,39 575.3,39 575.3,46.5 565,46.5 565,54 554.6,54 554.6,57.8 544.3,57.8 544.3,66.8 533.9,66.8 533.9,76.5 523.5,76.5 
				523.5,84 513.2,84 513.2,92.2 502.8,92.2 502.8,103.5 492.5,103.5 492.5,116.2 482.1,116.2 482.1,141.8 471.7,141.8 471.7,167.2 
				461.4,167.2 461.4,183.8 451,183.8 451,219.8 440.7,219.8 440.7,243 430.3,243 430.3,243.8 419.9,243.8 419.9,253.5 409.6,253.5 
				409.6,263.2 399.2,263.2 399.2,265.5 388.9,265.5 388.9,278.2 378.5,278.2 378.5,281.2 368.1,281.2 368.1,305.2 357.8,305.2 
				357.8,311.2 347.4,311.2 347.4,315 337.1,315 337.1,321.8 326.7,321.8 326.7,330 316.3,330 316.3,340.5 306,340.5 306,348.8 
				295.6,348.8 295.6,357.8 285.3,357.8 285.3,371.2 274.9,371.2 274.9,372 264.5,372 264.5,378.8 254.2,378.8 254.2,386.2 
				243.8,386.2 243.8,393.8 233.5,393.8 233.5,400.5 223.1,400.5 223.1,408 212.7,408 212.7,413.2 202.4,413.2 202.4,415.5 
				192,415.5 192,420 181.7,420 181.7,425.2 171.3,425.2 171.3,435 160.9,435 160.9,438.8 150.6,438.8 150.6,443.2 140.2,443.2 
				140.2,448.5 129.9,448.5 129.9,451.5 119.5,451.5 119.5,456 109.1,456 109.1,459.8 98.8,459.8 98.8,460.5 88.4,460.5 88.4,460.5 
				78.1,460.5 78.1,461.2 67.7,461.2 67.7,462 57.3,462 57.3,462.8 47,462.8 47,462.8 36.6,462.8 36.6,463.5 47,463.5 47,463.5 
				57.3,463.5 57.3,463.5 67.7,463.5 67.7,463.5 78.1,463.5 78.1,463.5 88.4,463.5 88.4,463.5 98.8,463.5 98.8,463.5 109.1,463.5 
				109.1,463.5 119.5,463.5 119.5,463.5 129.9,463.5 129.9,463.5 140.2,463.5 140.2,463.5 150.6,463.5 150.6,463.5 160.9,463.5 
				160.9,463.5 171.3,463.5 171.3,463.5 181.7,463.5 181.7,463.5 192,463.5 192,463.5 202.4,463.5 202.4,463.5 212.7,463.5 
				212.7,463.5 223.1,463.5 233.5,463.5 233.5,463.5 243.8,463.5 243.8,463.5 254.2,463.5 264.5,463.5 274.9,463.5 285.3,463.5 
				295.6,463.5 306,463.5 316.3,463.5 326.7,463.5 337.1,463.5 347.4,463.5 357.8,463.5 368.1,463.5 378.5,463.5 388.9,463.5 
				388.9,463.5 399.2,463.5 409.6,463.5 419.9,463.5 430.3,463.5 430.3,463.5 440.7,463.5 440.7,463.5 451,463.5 461.4,463.5 
				461.4,463.5 471.7,463.5 471.7,463.5 482.1,463.5 492.5,463.5 492.5,463.5 502.8,463.5 513.2,463.5 523.5,463.5 523.5,463.5 
				533.9,463.5 533.9,463.5 544.3,463.5 544.3,463.5 554.6,463.5 554.6,463.5 565,463.5 565,463.5 575.3,463.5 575.3,463.5 
				585.7,463.5 585.7,463.5 596.1,463.5 596.1,463.5 606.4,463.5 606.4,463.5 616.8,463.5 616.8,463.5 627.1,463.5 627.1,463.5 
				637.5,463.5 637.5,0 			"/>
			<line class="st4" x1="26.2" y1="463.5" x2="637.5" y2="463.5"/>
			<g class="st5">
				<text transform="matrix(1 0 0 1 5.8389 404.3496)" class="st6 st7 st8">500</text>
			</g>
			<g class="st5">
				<text transform="matrix(1 0 0 1 7.031250e-02 342.0996)" class="st6 st7 st8">1000</text>
			</g>
			<g class="st5">
				<text transform="matrix(1 0 0 1 7.031250e-02 280.5996)" class="st6 st7 st8">1500</text>
			</g>
			<g class="st5">
				<text transform="matrix(1 0 0 1 7.031250e-02 218.3496)" class="st6 st7 st8">2000</text>
			</g>
			<g class="st5">
				<text transform="matrix(1 0 0 1 7.031250e-02 156.8496)" class="st6 st7 st8">2500</text>
			</g>
			<g class="st5">
				<text transform="matrix(1 0 0 1 7.031250e-02 94.5996)" class="st6 st7 st8">3000</text>
			</g>
			<g class="st5">
				<text transform="matrix(1 0 0 1 7.031250e-02 33.0996)" class="st6 st7 st8">3500</text>
			</g>
		</g>
	</g>
</g>
<g>
	<text transform="matrix(1 0 0 1 623.6189 478.5632)" class="st9 st7 st8">5/8</text>
</g>
<g>
	<text transform="matrix(1 0 0 1 32.159 478.563)" class="st9 st7 st8">3/11</text>
</g>
</svg>
