<?xml version="1.0" encoding="utf-8"?>
<!-- Generator: Adobe Illustrator 23.0.1, SVG Export Plug-In . SVG Version: 6.00 Build 0)  -->
<svg version="1.1" id="Layer_1" xmlns="http://www.w3.org/2000/svg" xmlns:xlink="http://www.w3.org/1999/xlink" x="0px" y="0px"
	 viewBox="0 0 637.5 487.5" style="enable-background:new 0 0 637.5 487.5;" xml:space="preserve">
<style type="text/css">
	.st0{clip-path:url(#SVGID_2_);enable-background:new    ;}
	.st1{clip-path:url(#SVGID_4_);fill:none;stroke:#E8E8E8;stroke-width:0.75;stroke-miterlimit:10;}
	.st2{clip-path:url(#SVGID_4_);fill:#C71E1D;}
	.st3{clip-path:url(#SVGID_4_);fill:#C71E1D;fill-opacity:0.6;stroke:#000000;stroke-width:0.5;stroke-miterlimit:10;}
	.st4{clip-path:url(#SVGID_4_);fill:none;stroke:#333333;stroke-width:0.75;stroke-miterlimit:10;}
	.st5{clip-path:url(#SVGID_4_);}
	.st6{fill:#A6A6A6;}
	.st7{font-family:'Roboto-Regular';}
	.st8{font-size:9px;}
	.st9{fill:#333333;}
</style>
<g>
	<defs>
		<polyline id="SVGID_1_" points="0,487.5 0,0 637.5,0 637.5,487.5 		"/>
	</defs>
	<clipPath id="SVGID_2_">
		<use xlink:href="#SVGID_1_"  style="overflow:visible;"/>
	</clipPath>
	<g class="st0">
		<g>
			<defs>
				<polyline id="SVGID_3_" points="0,487.5 0,0 637.5,0 637.5,487.5 				"/>
			</defs>
			<clipPath id="SVGID_4_">
				<use xlink:href="#SVGID_3_"  style="overflow:visible;"/>
			</clipPath>
			<line class="st1" x1="26.2" y1="29.2" x2="637.5" y2="29.2"/>
			<line class="st1" x1="26.2" y1="91.5" x2="637.5" y2="91.5"/>
			<line class="st1" x1="26.2" y1="153.8" x2="637.5" y2="153.8"/>
			<line class="st1" x1="26.2" y1="215.2" x2="637.5" y2="215.2"/>
			<line class="st1" x1="26.2" y1="277.5" x2="637.5" y2="277.5"/>
			<line class="st1" x1="26.2" y1="339.8" x2="637.5" y2="339.8"/>
			<line class="st1" x1="26.2" y1="401.2" x2="637.5" y2="401.2"/>
			<rect x="26.2" y="463.5" class="st2" width="10.7" height="0.4"/>
			<polygon class="st3" points="626.5,15.8 626.5,26.3 615.9,26.3 615.9,33.1 605.2,33.1 605.2,38.3 594.5,38.3 594.5,45.8 
				583.8,45.8 583.8,53.2 573.1,53.2 573.1,57 562.5,57 562.5,66 551.8,66 551.8,75.8 541.1,75.8 541.1,83.2 530.5,83.2 530.5,91.5 
				519.7,91.5 519.7,102.8 509.1,102.8 509.1,114.8 498.3,114.8 498.3,141 487.6,141 487.6,167.3 477,167.3 477,183 466.3,183 
				466.3,219 455.8,219 455.8,243 445,243 434.3,243 434.3,253.5 423.6,253.5 423.6,262.5 412.9,262.5 412.9,265.5 402.1,265.5 
				402.1,277.5 391.4,277.5 391.4,280.5 380.7,280.5 380.7,304.5 370,304.5 370,311.2 359.3,311.2 359.3,314.2 348.5,314.2 
				348.5,321.8 337.8,321.8 337.8,330 327.2,330 327.2,339.7 316.4,339.7 316.4,348.7 305.7,348.7 305.7,357.7 295,357.7 295,371.2 
				284.3,371.2 284.3,372 273.5,372 273.5,378.7 262.9,378.7 262.9,386.2 252.2,386.2 252.2,393.8 241.6,393.8 241.6,400.5 
				230.9,400.5 230.9,408 220.3,408 220.3,412.5 209.5,412.5 209.5,415.5 198.8,415.5 198.8,420 188.2,420 188.2,425.2 177.5,425.2 
				177.5,435 166.8,435 166.8,438.8 156.1,438.8 156.1,443.2 145.4,443.2 145.4,448.5 134.7,448.5 134.7,450.8 123.9,450.8 
				123.9,456 113.2,456 113.2,459.8 102.5,459.8 102.5,460.5 91.9,460.5 81.1,460.5 81.1,461.2 70.4,461.2 70.4,462 59.7,462 
				59.7,462.8 49,462.8 49,462.8 38.3,462.8 38.3,463.5 49,463.5 49,463.5 59.7,463.5 59.7,463.5 70.4,463.5 81.1,463.5 91.9,463.5 
				102.5,463.5 102.6,463.5 113.2,463.5 113.3,463.5 123.9,463.5 124,463.5 134.7,463.5 145.4,463.5 156.1,463.5 166.8,463.5 
				177.5,463.5 177.5,463.5 188.2,463.5 188.2,463.5 198.9,463.5 198.9,463.5 209.5,463.5 209.6,463.5 220.3,463.5 230.9,463.5 
				231,463.5 241.6,463.5 241.6,463.5 252.2,463.5 252.3,463.5 262.9,463.5 262.9,463.5 273.5,463.5 273.6,463.5 284.3,463.5 
				295,463.5 305.7,463.5 316.4,463.5 327.2,463.5 337.8,463.5 337.8,463.5 348.5,463.5 359.3,463.5 370,463.5 380.7,463.5 
				391.4,463.5 402.1,463.5 412.9,463.5 423.6,463.5 434.3,463.5 445,463.5 455.8,463.5 466.3,463.5 466.5,463.5 477,463.5 
				477,463.6 487.7,463.6 487.7,463.5 498.3,463.5 509.1,463.5 519.7,463.5 519.8,463.5 530.5,463.5 541.1,463.5 541.2,463.5 
				551.8,463.5 562.5,463.5 562.5,463.5 573.1,463.5 573.2,463.5 583.8,463.5 583.8,463.6 594.5,463.6 605.2,463.6 605.2,463.6 
				615.9,463.6 626.6,463.6 626.6,463.5 637.2,463.5 637.2,15.8 			"/>
			<line class="st4" x1="26.2" y1="463.5" x2="637.5" y2="463.5"/>
			<g class="st5">
				<text transform="matrix(1 0 0 1 5.8389 403.5996)" class="st6 st7 st8">500</text>
			</g>
			<g class="st5">
				<text transform="matrix(1 0 0 1 7.031250e-02 342.0996)" class="st6 st7 st8">1000</text>
			</g>
			<g class="st5">
				<text transform="matrix(1 0 0 1 7.031250e-02 279.8496)" class="st6 st7 st8">1500</text>
			</g>
			<g class="st5">
				<text transform="matrix(1 0 0 1 7.031250e-02 217.5996)" class="st6 st7 st8">2000</text>
			</g>
			<g class="st5">
				<text transform="matrix(1 0 0 1 7.031250e-02 156.0996)" class="st6 st7 st8">2500</text>
			</g>
			<g class="st5">
				<text transform="matrix(1 0 0 1 7.031250e-02 93.8496)" class="st6 st7 st8">3000</text>
			</g>
			<g class="st5">
				<text transform="matrix(1 0 0 1 7.031250e-02 31.5996)" class="st6 st7 st8">3500</text>
			</g>
		</g>
	</g>
</g>
<text transform="matrix(1 0 0 1 33.6743 477.5158)" class="st9 st7 st8">3/11</text>
<text transform="matrix(1 0 0 1 623.3942 477.5106)" class="st9 st7 st8">5/6</text>
</svg>
