<?xml version="1.0" encoding="utf-8"?>
<!-- Generator: Adobe Illustrator 23.0.1, SVG Export Plug-In . SVG Version: 6.00 Build 0)  -->
<svg version="1.1" id="Layer_1" xmlns="http://www.w3.org/2000/svg" xmlns:xlink="http://www.w3.org/1999/xlink" x="0px" y="0px"
	 viewBox="0 0 637.5 487.5" style="enable-background:new 0 0 637.5 487.5;" xml:space="preserve">
<style type="text/css">
	.st0{clip-path:url(#SVGID_2_);}
	.st1{clip-path:url(#SVGID_4_);fill:none;stroke:#E8E8E8;stroke-width:0.75;stroke-miterlimit:10;}
	.st2{clip-path:url(#SVGID_4_);fill:#C71E1D;}
	.st3{clip-path:url(#SVGID_4_);fill:#C71E1D;fill-opacity:0.6;stroke:#000000;stroke-width:0.5;stroke-miterlimit:10;}
	.st4{clip-path:url(#SVGID_4_);fill:none;stroke:#333333;stroke-width:0.75;stroke-miterlimit:10;}
	.st5{fill:#A6A6A6;}
	.st6{font-family:'Roboto-Regular';}
	.st7{font-size:9px;}
	.st8{fill:#333333;}
</style>
<g>
	<defs>
		<rect id="SVGID_1_" width="637.5" height="487.5"/>
	</defs>
	<clipPath id="SVGID_2_">
		<use xlink:href="#SVGID_1_"  style="overflow:visible;"/>
	</clipPath>
	<g class="st0">
		<defs>
			<polyline id="SVGID_3_" points="0,483 0,0 637.5,0 637.5,483 			"/>
		</defs>
		<clipPath id="SVGID_4_">
			<use xlink:href="#SVGID_3_"  style="overflow:visible;"/>
		</clipPath>
		<line class="st1" x1="26.2" y1="0" x2="637.5" y2="0"/>
		<line class="st1" x1="26.2" y1="46.5" x2="637.5" y2="46.5"/>
		<line class="st1" x1="26.2" y1="93" x2="637.5" y2="93"/>
		<line class="st1" x1="26.2" y1="139.5" x2="637.5" y2="139.5"/>
		<line class="st1" x1="26.2" y1="185.2" x2="637.5" y2="185.2"/>
		<line class="st1" x1="26.2" y1="231.8" x2="637.5" y2="231.8"/>
		<line class="st1" x1="26.2" y1="278.2" x2="637.5" y2="278.2"/>
		<line class="st1" x1="26.2" y1="324.8" x2="637.5" y2="324.8"/>
		<line class="st1" x1="26.2" y1="370.5" x2="637.5" y2="370.5"/>
		<line class="st1" x1="26.2" y1="417" x2="637.5" y2="417"/>
		<rect x="26.2" y="463.5" class="st2" width="8.6" height="0.4"/>
		<polygon class="st3" points="628.9,0 628.9,7.5 620.3,7.5 620.3,15.8 611.7,15.8 611.7,22.5 603.1,22.5 603.1,39 594.5,39 
			594.5,50.2 585.8,50.2 585.8,59.2 577.2,59.2 577.2,71.2 568.6,71.2 568.6,78 560,78 560,89.2 551.4,89.2 551.4,91.5 542.8,91.5 
			542.8,94.5 534.2,94.5 534.2,116.2 525.6,116.2 525.6,121.5 517,121.5 517,129 508.4,129 508.4,137.2 499.8,137.2 499.8,141.8 
			491.1,141.8 491.1,145.5 482.5,145.5 482.5,150.8 473.9,150.8 473.9,156.8 465.3,156.8 465.3,159.8 456.7,159.8 456.7,166.5 
			448.1,166.5 448.1,174 439.5,174 439.5,179.2 430.9,179.2 430.9,185.2 422.3,185.2 422.3,194.2 413.7,194.2 413.7,203.2 
			405.1,203.2 405.1,222.8 396.4,222.8 396.4,242.2 387.8,242.2 387.8,254.2 379.2,254.2 379.2,281.2 370.6,281.2 370.6,298.5 
			362,298.5 353.4,298.5 353.4,306.8 344.8,306.8 344.8,313.5 336.2,313.5 336.2,315 327.6,315 327.6,324.8 319,324.8 319,327 
			310.4,327 310.4,345 301.7,345 301.7,349.5 293.1,349.5 293.1,352.5 284.5,352.5 284.5,357 275.9,357 275.9,363.8 267.3,363.8 
			267.3,371.2 258.7,371.2 258.7,377.2 250.1,377.2 250.1,384.8 241.5,384.8 241.5,394.5 232.9,394.5 232.9,395.2 224.3,395.2 
			224.3,400.5 215.7,400.5 215.7,405.8 207,405.8 207,411 198.4,411 198.4,416.2 189.8,416.2 189.8,422.2 181.2,422.2 181.2,425.2 
			172.6,425.2 172.6,427.5 164,427.5 164,431.2 155.4,431.2 155.4,435 146.8,435 146.8,441.8 138.2,441.8 138.2,444.8 129.6,444.8 
			129.6,448.5 121,448.5 121,452.2 112.3,452.2 112.3,454.5 103.7,454.5 103.7,457.5 95.1,457.5 95.1,460.5 86.5,460.5 86.5,461.2 
			77.9,461.2 77.9,461.2 69.3,461.2 69.3,462 60.7,462 60.7,462.8 52.1,462.8 52.1,462.8 43.5,462.8 34.9,462.8 34.9,463.5 
			43.5,463.5 52.1,463.5 52.1,463.5 60.7,463.5 69.3,463.5 77.9,463.5 77.9,463.5 86.5,463.5 95.1,463.5 95.1,463.5 103.7,463.5 
			112.3,463.5 121,463.5 121,463.5 129.6,463.5 138.2,463.5 138.2,463.5 146.8,463.5 155.4,463.5 164,463.5 164,463.5 172.6,463.5 
			181.2,463.5 181.2,463.5 189.8,463.5 198.4,463.5 207,463.5 207,463.5 215.7,463.5 224.3,463.5 224.3,463.5 232.9,463.5 
			241.5,463.5 250.1,463.5 250.1,463.5 258.7,463.5 267.3,463.5 275.9,463.5 284.5,463.5 293.1,463.5 293.1,463.5 301.7,463.5 
			310.4,463.5 319,463.5 327.6,463.5 336.2,463.5 336.2,463.5 344.8,463.5 353.4,463.5 362,463.5 370.6,463.5 379.2,463.5 
			379.2,463.5 387.8,463.5 396.4,463.5 405.1,463.5 413.7,463.5 422.3,463.5 430.9,463.5 439.5,463.5 448.1,463.5 456.7,463.5 
			465.3,463.5 473.9,463.5 482.5,463.5 491.1,463.5 499.8,463.5 508.4,463.5 517,463.5 517,463.5 525.6,463.5 534.2,463.5 
			534.2,463.5 542.8,463.5 551.4,463.5 551.4,463.5 560,463.5 560,463.5 568.6,463.5 577.2,463.5 577.2,463.5 585.8,463.5 
			594.5,463.5 594.5,463.5 603.1,463.5 603.1,463.5 611.7,463.5 620.3,463.5 620.3,463.5 628.9,463.5 637.5,463.5 637.5,0 		"/>
		<line class="st4" x1="26.2" y1="463.5" x2="637.5" y2="463.5"/>
	</g>
	<g class="st0">
		<text transform="matrix(1 0 0 1 5.2529 419.3496)" class="st5 st6 st7">500</text>
	</g>
	<g class="st0">
		<text transform="matrix(1 0 0 1 3.515625e-02 372.8496)" class="st5 st6 st7">1000</text>
	</g>
	<g class="st0">
		<text transform="matrix(1 0 0 1 3.515625e-02 327.0996)" class="st5 st6 st7">1500</text>
	</g>
	<g class="st0">
		<text transform="matrix(1 0 0 1 3.515625e-02 280.5996)" class="st5 st6 st7">2000</text>
	</g>
	<g class="st0">
		<text transform="matrix(1 0 0 1 3.515625e-02 234.0996)" class="st5 st6 st7">2500</text>
	</g>
	<g class="st0">
		<text transform="matrix(1 0 0 1 3.515625e-02 187.5996)" class="st5 st6 st7">3000</text>
	</g>
	<g class="st0">
		<text transform="matrix(1 0 0 1 3.515625e-02 141.8496)" class="st5 st6 st7">3500</text>
	</g>
	<g class="st0">
		<text transform="matrix(1 0 0 1 3.515625e-02 95.3496)" class="st5 st6 st7">4000</text>
	</g>
	<g class="st0">
		<text transform="matrix(1 0 0 1 3.515625e-02 48.8496)" class="st5 st6 st7">4500</text>
	</g>
	<g class="st0">
		<text transform="matrix(1 0 0 1 3.515625e-02 2.3496)" class="st5 st6 st7">5000</text>
	</g>
</g>
<g>
	<text transform="matrix(1 0 0 1 616.8593 476.8789)" class="st8 st6 st7">5/20</text>
</g>
<g>
	<text transform="matrix(1 0 0 1 29.6384 476.8793)" class="st8 st6 st7">3/11</text>
</g>
</svg>
