<?xml version="1.0" encoding="utf-8"?>
<!-- Generator: Adobe Illustrator 23.0.1, SVG Export Plug-In . SVG Version: 6.00 Build 0)  -->
<svg version="1.1" id="Layer_1" xmlns="http://www.w3.org/2000/svg" xmlns:xlink="http://www.w3.org/1999/xlink" x="0px" y="0px"
	 viewBox="0 0 637.5 487.5" style="enable-background:new 0 0 637.5 487.5;" xml:space="preserve">
<style type="text/css">
	.st0{clip-path:url(#SVGID_2_);}
	.st1{clip-path:url(#SVGID_4_);fill:none;stroke:#E8E8E8;stroke-width:0.75;stroke-miterlimit:10;}
	.st2{clip-path:url(#SVGID_4_);fill:#C71E1D;}
	.st3{clip-path:url(#SVGID_4_);fill:#C71E1D;fill-opacity:0.6;stroke:#000000;stroke-width:0.5;stroke-miterlimit:10;}
	.st4{clip-path:url(#SVGID_4_);fill:none;stroke:#333333;stroke-width:0.75;stroke-miterlimit:10;}
	.st5{fill:#A6A6A6;}
	.st6{font-family:'Roboto-Regular';}
	.st7{font-size:9px;}
	.st8{fill:#333333;}
</style>
<g>
	<defs>
		<rect id="SVGID_1_" width="637.5" height="487.5"/>
	</defs>
	<clipPath id="SVGID_2_">
		<use xlink:href="#SVGID_1_"  style="overflow:visible;"/>
	</clipPath>
	<g class="st0">
		<defs>
			<polyline id="SVGID_3_" points="0,483 0,0 637.5,0 637.5,483 			"/>
		</defs>
		<clipPath id="SVGID_4_">
			<use xlink:href="#SVGID_3_"  style="overflow:visible;"/>
		</clipPath>
		<line class="st1" x1="26.2" y1="8.2" x2="637.5" y2="8.2"/>
		<line class="st1" x1="26.2" y1="58.5" x2="637.5" y2="58.5"/>
		<line class="st1" x1="26.2" y1="109.5" x2="637.5" y2="109.5"/>
		<line class="st1" x1="26.2" y1="159.8" x2="637.5" y2="159.8"/>
		<line class="st1" x1="26.2" y1="210.8" x2="637.5" y2="210.8"/>
		<line class="st1" x1="26.2" y1="261" x2="637.5" y2="261"/>
		<line class="st1" x1="26.2" y1="312" x2="637.5" y2="312"/>
		<line class="st1" x1="26.2" y1="362.2" x2="637.5" y2="362.2"/>
		<line class="st1" x1="26.2" y1="413.2" x2="637.5" y2="413.2"/>
		<rect x="26.2" y="463.5" class="st2" width="9.1" height="0.4"/>
		<polygon class="st3" points="628.4,0 628.4,12 619.3,12 619.3,21.8 610.1,21.8 610.1,34.5 601,34.5 601,42 591.9,42 591.9,54 
			582.8,54 582.8,57 573.6,57 573.6,60 564.5,60 564.5,84 555.4,84 555.4,89.2 546.3,89.2 546.3,98.2 537.1,98.2 537.1,106.5 
			528,106.5 528,112.5 518.9,112.5 518.9,116.2 509.8,116.2 509.8,122.2 500.7,122.2 500.7,128.2 491.5,128.2 491.5,131.2 
			482.4,131.2 482.4,138.8 473.3,138.8 473.3,147 464.2,147 464.2,153 455,153 455,159.8 445.9,159.8 445.9,168.8 436.8,168.8 
			436.8,179.2 427.7,179.2 427.7,200.2 418.5,200.2 418.5,221.2 409.4,221.2 409.4,234.8 400.3,234.8 400.3,264 391.2,264 
			391.2,283.5 382.1,283.5 372.9,283.5 372.9,291.8 363.8,291.8 363.8,299.2 354.7,299.2 354.7,301.5 345.6,301.5 345.6,312 
			336.4,312 336.4,314.2 327.3,314.2 327.3,333.8 318.2,333.8 318.2,339 309.1,339 309.1,342 299.9,342 299.9,347.2 290.8,347.2 
			290.8,354.8 281.7,354.8 281.7,362.2 272.6,362.2 272.6,369.8 263.5,369.8 263.5,377.2 254.3,377.2 254.3,388.5 245.2,388.5 
			236.1,388.5 236.1,394.5 227,394.5 227,400.5 217.8,400.5 217.8,406.5 208.7,406.5 208.7,411.8 199.6,411.8 199.6,417.8 
			190.5,417.8 190.5,422.2 181.3,422.2 181.3,424.5 172.2,424.5 172.2,428.2 163.1,428.2 163.1,432 154,432 154,440.2 144.9,440.2 
			144.9,443.2 135.7,443.2 135.7,447 126.6,447 126.6,451.5 117.5,451.5 117.5,453.8 108.4,453.8 108.4,457.5 99.2,457.5 
			99.2,460.5 90.1,460.5 90.1,461.2 81,461.2 71.9,461.2 71.9,462 62.7,462 53.6,462 53.6,462.8 44.5,462.8 35.4,462.8 35.4,463.5 
			44.5,463.5 53.6,463.5 53.6,463.5 62.7,463.5 71.9,463.5 71.9,463.5 81,463.5 90.1,463.5 99.2,463.5 108.4,463.5 117.5,463.5 
			117.5,463.5 126.6,463.5 135.7,463.5 135.7,463.5 144.9,463.5 154,463.5 163.1,463.5 172.2,463.5 181.3,463.5 181.3,463.5 
			190.5,463.5 199.6,463.5 199.6,463.5 208.7,463.5 217.8,463.5 217.8,463.5 227,463.5 236.1,463.5 245.2,463.5 254.3,463.5 
			263.5,463.5 272.6,463.5 281.7,463.5 290.8,463.5 299.9,463.5 309.1,463.5 318.2,463.5 327.3,463.5 336.4,463.5 345.6,463.5 
			354.7,463.5 363.8,463.5 372.9,463.5 382.1,463.5 391.2,463.5 400.3,463.5 409.4,463.5 418.5,463.5 427.7,463.5 436.8,463.5 
			445.9,463.5 455,463.5 464.2,463.5 473.3,463.5 473.3,463.5 482.4,463.5 491.5,463.5 500.7,463.5 509.8,463.5 518.9,463.5 
			518.9,463.5 528,463.5 537.1,463.5 537.1,463.5 546.3,463.5 555.4,463.5 555.4,463.5 564.5,463.5 573.6,463.5 573.6,463.5 
			582.8,463.5 582.8,463.5 591.9,463.5 601,463.5 601,463.5 610.1,463.5 619.3,463.5 619.3,463.5 628.4,463.5 637.5,463.5 637.5,0 
					"/>
		<line class="st4" x1="26.2" y1="463.5" x2="637.5" y2="463.5"/>
	</g>
	<g class="st0">
		<text transform="matrix(1 0 0 1 5.2529 415.5996)" class="st5 st6 st7">500</text>
	</g>
	<g class="st0">
		<text transform="matrix(1 0 0 1 3.515625e-02 364.5996)" class="st5 st6 st7">1000</text>
	</g>
	<g class="st0">
		<text transform="matrix(1 0 0 1 3.515625e-02 314.3496)" class="st5 st6 st7">1500</text>
	</g>
	<g class="st0">
		<text transform="matrix(1 0 0 1 3.515625e-02 263.3496)" class="st5 st6 st7">2000</text>
	</g>
	<g class="st0">
		<text transform="matrix(1 0 0 1 3.515625e-02 213.0996)" class="st5 st6 st7">2500</text>
	</g>
	<g class="st0">
		<text transform="matrix(1 0 0 1 3.515625e-02 162.0996)" class="st5 st6 st7">3000</text>
	</g>
	<g class="st0">
		<text transform="matrix(1 0 0 1 3.515625e-02 111.8496)" class="st5 st6 st7">3500</text>
	</g>
	<g class="st0">
		<text transform="matrix(1 0 0 1 3.515625e-02 60.8496)" class="st5 st6 st7">4000</text>
	</g>
	<g class="st0">
		<text transform="matrix(1 0 0 1 3.515625e-02 10.5996)" class="st5 st6 st7">4500</text>
	</g>
</g>
<g>
	<text transform="matrix(1 0 0 1 618.4315 477.8624)" class="st8 st6 st7">5/16</text>
</g>
<g>
	<text transform="matrix(1 0 0 1 32.0982 477.8622)" class="st8 st6 st7">3/11</text>
</g>
</svg>
