<?xml version="1.0" encoding="utf-8"?>
<!-- Generator: Adobe Illustrator 23.0.1, SVG Export Plug-In . SVG Version: 6.00 Build 0)  -->
<svg version="1.1" id="Layer_1" xmlns="http://www.w3.org/2000/svg" xmlns:xlink="http://www.w3.org/1999/xlink" x="0px" y="0px"
	 viewBox="0 0 637.5 487.5" style="enable-background:new 0 0 637.5 487.5;" xml:space="preserve">
<style type="text/css">
	.st0{clip-path:url(#SVGID_2_);}
	.st1{clip-path:url(#SVGID_4_);fill:none;stroke:#E8E8E8;stroke-width:0.75;stroke-miterlimit:10;}
	.st2{clip-path:url(#SVGID_4_);fill:#C71E1D;}
	.st3{clip-path:url(#SVGID_4_);fill:#C71E1D;fill-opacity:0.6;stroke:#000000;stroke-width:0.5;stroke-miterlimit:10;}
	.st4{clip-path:url(#SVGID_4_);fill:none;stroke:#333333;stroke-width:0.75;stroke-miterlimit:10;}
	.st5{fill:#A6A6A6;}
	.st6{font-family:'Roboto-Regular';}
	.st7{font-size:9px;}
	.st8{fill:none;stroke:#9A0000;stroke-width:0.75;stroke-miterlimit:10;}
	.st9{fill:#9A0000;}
	.st10{fill:#893333;}
	.st11{font-family:'ArialMT';}
	.st12{font-size:11px;}
	.st13{font-family:'Arial-BoldMT';}
	.st14{fill:#333333;}
</style>
<g>
	<defs>
		<rect id="SVGID_1_" width="637.5" height="487.5"/>
	</defs>
	<clipPath id="SVGID_2_">
		<use xlink:href="#SVGID_1_"  style="overflow:visible;"/>
	</clipPath>
	<g class="st0">
		<defs>
			<rect id="SVGID_3_" width="637.5" height="483"/>
		</defs>
		<clipPath id="SVGID_4_">
			<use xlink:href="#SVGID_3_"  style="overflow:visible;"/>
		</clipPath>
		<line class="st1" x1="21" y1="44.2" x2="637.5" y2="44.2"/>
		<line class="st1" x1="21" y1="96.8" x2="637.5" y2="96.8"/>
		<line class="st1" x1="21" y1="149.2" x2="637.5" y2="149.2"/>
		<line class="st1" x1="21" y1="201.8" x2="637.5" y2="201.8"/>
		<line class="st1" x1="21" y1="254.2" x2="637.5" y2="254.2"/>
		<line class="st1" x1="21" y1="306.8" x2="637.5" y2="306.8"/>
		<line class="st1" x1="21" y1="358.5" x2="637.5" y2="358.5"/>
		<line class="st1" x1="21" y1="411" x2="637.5" y2="411"/>
		<path class="st2" d="M21,463.5h6.5H21z"/>
		<path class="st2" d="M27.5,463.5H34H27.5z"/>
		<path class="st2" d="M34,463.5h6.5H34z"/>
		<path class="st2" d="M40.5,463.5H47H40.5z"/>
		<path class="st2" d="M47,463.5h6.5H47z"/>
		<path class="st2" d="M53.4,463.5h6.5H53.4z"/>
		<path class="st2" d="M59.9,463.5h6.5H59.9z"/>
		<path class="st2" d="M66.4,463.5h6.5H66.4z"/>
		<path class="st2" d="M72.9,463.5h6.5H72.9z"/>
		<path class="st2" d="M79.4,463.5h6.5H79.4z"/>
		<path class="st2" d="M85.9,463.5h6.5H85.9z"/>
		<path class="st2" d="M92.4,463.5h6.5H92.4z"/>
		<path class="st2" d="M98.9,463.5h6.5H98.9z"/>
		<polygon class="st3" points="630.9,0 630.9,2.2 624.4,2.2 624.4,15.8 617.9,15.8 617.9,31.5 611.4,31.5 611.4,42 604.9,42 
			604.9,57.8 598.4,57.8 598.4,60 592,60 592,60 585.5,60 585.5,65.2 579,65.2 579,68.2 572.5,68.2 572.5,91.5 566,91.5 566,107.2 
			559.5,107.2 559.5,115.5 553,115.5 546.5,115.5 546.5,115.5 540,115.5 540,117.8 533.5,117.8 533.5,136.5 527.1,136.5 
			527.1,149.2 520.6,149.2 520.6,152.2 514.1,152.2 514.1,156.8 507.6,156.8 507.6,159.8 501.2,159.8 501.2,162 494.7,162 
			494.7,167.2 488.2,167.2 488.2,175.5 481.8,175.5 481.8,183 475.3,183 475.3,196.5 468.8,196.5 468.8,201.8 462.3,201.8 
			462.3,207 455.8,207 449.3,207 442.8,207 436.3,207 436.3,209.2 429.8,209.2 429.8,214.5 423.3,214.5 423.3,217.5 416.9,217.5 
			416.9,225 410.4,225 410.4,228 403.9,228 403.9,233.2 397.4,233.2 390.9,233.2 390.9,235.5 384.4,235.5 384.4,246 377.9,246 
			377.9,254.2 371.4,254.2 371.4,264.8 364.9,264.8 364.9,275.2 358.5,275.2 358.5,296.2 352,296.2 352,303.8 345.5,303.8 
			345.5,309 339,309 339,314.2 332.5,314.2 332.5,330 326,330 326,332.2 319.5,332.2 319.5,337.5 313,337.5 313,340.5 306.5,340.5 
			306.5,345.8 300,345.8 300,348 293.6,348 293.6,351 287.1,351 287.1,353.2 280.6,353.2 280.6,361.5 274.1,361.5 274.1,363.8 
			267.6,363.8 267.6,366.8 261.1,366.8 254.6,366.8 254.6,374.2 248.1,374.2 248.1,379.5 241.6,379.5 241.6,384.8 235.2,384.8 
			235.2,393 228.7,393 228.7,398.2 222.2,398.2 222.2,400.5 215.7,400.5 215.7,408.8 209.2,408.8 209.2,416.2 202.7,416.2 
			196.2,416.2 196.2,421.5 189.7,421.5 183.2,421.5 183.2,426.8 176.7,426.8 176.7,432 170.3,432 163.8,432 163.8,437.2 
			157.3,437.2 157.3,442.5 150.8,442.5 150.8,445.5 144.3,445.5 144.3,447.8 137.8,447.8 137.8,450.8 131.3,450.8 131.3,456 
			124.8,456 118.3,456 118.3,458.2 111.9,458.2 105.4,458.2 105.4,463.5 111.9,463.5 118.3,463.5 124.8,463.5 131.3,463.5 
			137.8,463.5 144.3,463.5 150.8,463.5 157.3,463.5 163.8,463.5 170.3,463.5 176.7,463.5 183.2,463.5 189.7,463.5 196.2,463.5 
			202.7,463.5 209.2,463.5 215.7,463.5 222.2,463.5 228.7,463.5 235.2,463.5 241.6,463.5 248.1,463.5 254.6,463.5 261.1,463.5 
			267.6,463.5 274.1,463.5 280.6,463.5 287.1,463.5 293.6,463.5 300,463.5 306.5,463.5 313,463.5 319.5,463.5 326,463.5 
			332.5,463.5 339,463.5 345.5,463.5 352,463.5 358.5,463.5 364.9,463.5 371.4,463.5 377.9,463.5 384.4,463.5 390.9,463.5 
			397.4,463.5 403.9,463.5 410.4,463.5 416.9,463.5 423.3,463.5 429.8,463.5 436.3,463.5 442.8,463.5 449.3,463.5 455.8,463.5 
			462.3,463.5 468.8,463.5 475.3,463.5 481.8,463.5 488.2,463.5 494.7,463.5 501.2,463.5 507.6,463.5 507.7,463.5 514.1,463.5 
			520.6,463.5 520.6,463.5 527.1,463.5 533.5,463.5 533.5,463.5 540,463.5 546.5,463.5 546.5,463.5 553,463.5 559.5,463.5 
			566,463.5 566,463.5 572.5,463.5 579,463.5 579,463.5 585.5,463.5 592,463.5 592,463.5 598.4,463.5 604.9,463.5 604.9,463.5 
			611.4,463.5 617.9,463.5 617.9,463.5 624.4,463.5 630.9,463.5 630.9,463.5 637.4,463.5 637.4,0 		"/>
		<line class="st4" x1="21" y1="463.5" x2="637.5" y2="463.5"/>
	</g>
	<g class="st0">
		<text transform="matrix(1 0 0 1 5.6426 414.0996)" class="st5 st6 st7">20</text>
	</g>
	<g class="st0">
		<text transform="matrix(1 0 0 1 5.6426 361.5996)" class="st5 st6 st7">40</text>
	</g>
	<g class="st0">
		<text transform="matrix(1 0 0 1 5.6426 309.8496)" class="st5 st6 st7">60</text>
	</g>
	<g class="st0">
		<text transform="matrix(1 0 0 1 5.6426 257.3496)" class="st5 st6 st7">80</text>
	</g>
	<g class="st0">
		<text transform="matrix(1 0 0 1 0.5889 204.8496)" class="st5 st6 st7">100</text>
	</g>
	<g class="st0">
		<text transform="matrix(1 0 0 1 0.5889 152.3496)" class="st5 st6 st7">120</text>
	</g>
	<g class="st0">
		<text transform="matrix(1 0 0 1 0.5889 99.8496)" class="st5 st6 st7">140</text>
	</g>
	<g class="st0">
		<text transform="matrix(1 0 0 1 0.5889 47.3496)" class="st5 st6 st7">160</text>
	</g>
</g>
<g>
	<g>
		<path class="st8" d="M516.9,100.2c1.7-11.8,11-21.9,24.5-26.3c9.7-3.1,18.8-2.5,24.4-1.6"/>
		<g>
			<polygon class="st9" points="563.2,74.6 564.9,72.1 564.3,69.2 570.2,73.1 			"/>
		</g>
	</g>
</g>
<text transform="matrix(1 0 0 1 488.488 104.1902)" class="st10 st11 st12">6/4</text>
<text transform="matrix(1 0 0 1 461.5678 117.3899)" class="st10 st13 st12">Deadliest day</text>
<text transform="matrix(1 0 0 1 475.9677 130.5901)" class="st10 st11 st12">9 deaths</text>
<g>
	<text transform="matrix(1 0 0 1 617.9752 479.3076)" class="st14 st6 st7">6/13</text>
</g>
<g>
	<text transform="matrix(1 0 0 1 101.1538 479.3078)" class="st14 st6 st7">3/24</text>
</g>
</svg>
