<?xml version="1.0" encoding="utf-8"?>
<!-- Generator: Adobe Illustrator 23.0.1, SVG Export Plug-In . SVG Version: 6.00 Build 0)  -->
<svg version="1.1" id="Layer_1" xmlns="http://www.w3.org/2000/svg" xmlns:xlink="http://www.w3.org/1999/xlink" x="0px" y="0px"
	 viewBox="0 0 637.5 487.5" style="enable-background:new 0 0 637.5 487.5;" xml:space="preserve">
<style type="text/css">
	.st0{clip-path:url(#SVGID_2_);}
	.st1{clip-path:url(#SVGID_4_);fill:none;stroke:#E8E8E8;stroke-width:0.75;stroke-miterlimit:10;}
	.st2{clip-path:url(#SVGID_4_);fill:#C71E1D;}
	.st3{clip-path:url(#SVGID_4_);fill:#C71E1D;fill-opacity:0.6;stroke:#000000;stroke-width:0.5;stroke-miterlimit:10;}
	.st4{clip-path:url(#SVGID_4_);fill:none;stroke:#333333;stroke-width:0.75;stroke-miterlimit:10;}
	.st5{fill:#A6A6A6;}
	.st6{font-family:'Roboto-Regular';}
	.st7{font-size:9px;}
	.st8{fill:#333333;}
	.st9{fill:none;stroke:#9A0000;stroke-width:0.75;stroke-miterlimit:10;}
	.st10{fill:#9A0000;}
	.st11{fill:#893333;}
	.st12{font-family:'ArialMT';}
	.st13{font-size:11px;}
	.st14{font-family:'Arial-BoldMT';}
</style>
<g>
	<defs>
		<rect id="SVGID_1_" width="637.5" height="487.5"/>
	</defs>
	<clipPath id="SVGID_2_">
		<use xlink:href="#SVGID_1_"  style="overflow:visible;"/>
	</clipPath>
	<g class="st0">
		<defs>
			<rect id="SVGID_3_" width="637.5" height="483"/>
		</defs>
		<clipPath id="SVGID_4_">
			<use xlink:href="#SVGID_3_"  style="overflow:visible;"/>
		</clipPath>
		<line class="st1" x1="21" y1="14.2" x2="637.5" y2="14.2"/>
		<line class="st1" x1="21" y1="70.5" x2="637.5" y2="70.5"/>
		<line class="st1" x1="21" y1="126.8" x2="637.5" y2="126.8"/>
		<line class="st1" x1="21" y1="182.2" x2="637.5" y2="182.2"/>
		<line class="st1" x1="21" y1="238.5" x2="637.5" y2="238.5"/>
		<line class="st1" x1="21" y1="294.8" x2="637.5" y2="294.8"/>
		<line class="st1" x1="21" y1="351" x2="637.5" y2="351"/>
		<line class="st1" x1="21" y1="407.2" x2="637.5" y2="407.2"/>
		<path class="st2" d="M21,463.5h6.7H21z"/>
		<path class="st2" d="M27.7,463.5h6.7H27.7z"/>
		<path class="st2" d="M34.4,463.5h6.7H34.4z"/>
		<path class="st2" d="M41.1,463.5h6.7H41.1z"/>
		<path class="st2" d="M47.8,463.5h6.7H47.8z"/>
		<path class="st2" d="M54.5,463.5h6.7H54.5z"/>
		<path class="st2" d="M61.2,463.5h6.7H61.2z"/>
		<path class="st2" d="M67.9,463.5h6.7H67.9z"/>
		<path class="st2" d="M74.6,463.5h6.7H74.6z"/>
		<path class="st2" d="M81.3,463.5H88H81.3z"/>
		<path class="st2" d="M88,463.5h6.7H88z"/>
		<path class="st2" d="M94.7,463.5h6.7H94.7z"/>
		<path class="st2" d="M101.4,463.5h6.7H101.4z"/>
		<polygon class="st3" points="630.3,0 630.3,11.2 623.6,11.2 623.6,27.7 616.9,27.7 616.9,30.7 610.2,30.7 603.5,30.7 603.5,36.7 
			596.8,36.7 596.8,39 590.1,39 590.1,64.5 583.4,64.5 583.4,81.7 576.7,81.7 576.7,90 570,90 563.3,90 563.3,90 556.6,90 556.6,93 
			549.9,93 549.9,112.5 543.2,112.5 543.2,126.7 536.5,126.7 536.5,129 529.8,129 529.8,135 523.1,135 523.1,138 516.4,138 
			516.4,140.2 509.7,140.2 509.7,146.2 503,146.2 503,154.5 496.3,154.5 496.3,162.7 489.6,162.7 489.6,177 482.9,177 482.9,182.2 
			476.2,182.2 476.2,188.2 469.5,188.2 462.8,188.2 456.1,188.2 449.4,188.2 449.4,191.2 442.7,191.2 442.7,196.5 436,196.5 
			436,199.5 429.3,199.5 429.3,207.8 422.6,207.8 422.6,210.8 415.9,210.8 415.9,216 409.3,216 409.2,216 402.6,216 402.6,219 
			395.9,219 395.9,230.2 389.2,230.2 389.2,238.5 382.5,238.5 382.5,249.8 375.8,249.8 375.8,261 369.2,261 369.2,283.5 
			362.5,283.5 362.5,292.5 355.8,292.5 355.8,297.8 349.1,297.8 349.1,303.8 342.4,303.8 342.4,320.2 335.7,320.2 335.7,323.2 
			329,323.2 329,328.5 322.3,328.5 322.3,331.5 315.6,331.5 315.6,336.8 308.8,336.8 308.8,339.8 302.1,339.8 302.1,342.8 
			295.4,342.8 295.4,345.8 288.7,345.8 288.7,354 282.1,354 282.1,357 275.4,357 275.4,359.2 268.7,359.2 262,359.2 262,368.2 
			255.3,368.2 255.3,373.5 248.6,373.5 248.6,379.5 241.9,379.5 241.9,387.8 235.2,387.8 235.2,393 228.5,393 228.5,396 221.8,396 
			221.8,404.2 215.1,404.2 215.1,413.2 208.4,413.2 201.7,413.2 201.7,418.5 195.1,418.5 188.4,418.5 188.4,424.5 181.7,424.5 
			181.7,429.8 175,429.8 168.3,429.8 168.3,435.8 161.7,435.8 161.7,441 155,441 155,444 148.3,444 148.3,447 141.6,447 
			141.6,449.2 134.9,449.2 134.9,455.2 128.2,455.2 121.5,455.2 121.5,458.2 114.8,458.2 108.1,458.2 108.1,463.5 114.8,463.5 
			121.5,463.5 128.2,463.5 134.9,463.5 141.6,463.5 148.3,463.5 155,463.5 161.7,463.5 168.3,463.5 168.4,463.5 175,463.5 
			181.7,463.5 188.4,463.5 195.1,463.5 201.7,463.5 201.8,463.5 208.4,463.5 215.1,463.5 221.8,463.5 228.5,463.5 235.2,463.5 
			241.9,463.5 248.6,463.5 255.3,463.5 262,463.5 268.7,463.5 275.4,463.5 282.1,463.5 288.7,463.5 288.8,463.5 295.4,463.5 
			302.1,463.5 308.8,463.5 315.6,463.5 322.3,463.5 329,463.5 335.7,463.5 342.4,463.5 349.1,463.5 355.8,463.5 362.5,463.5 
			369.2,463.5 375.8,463.5 375.9,463.5 382.5,463.5 389.2,463.5 395.9,463.5 402.6,463.5 409.2,463.5 409.3,463.5 415.9,463.5 
			422.6,463.5 429.3,463.5 436,463.5 442.7,463.5 442.7,463.5 449.4,463.5 456.1,463.5 462.8,463.5 469.5,463.5 476.2,463.5 
			482.9,463.5 489.6,463.5 496.3,463.5 503,463.5 509.7,463.5 516.4,463.5 523.1,463.5 529.8,463.5 529.8,463.5 536.5,463.5 
			543.2,463.5 543.2,463.5 549.9,463.5 556.6,463.5 563.3,463.5 563.3,463.5 570,463.5 576.7,463.5 583.4,463.5 583.4,463.5 
			590.1,463.5 596.8,463.5 596.8,463.5 603.5,463.5 610.2,463.5 616.9,463.5 616.9,463.5 623.6,463.5 630.3,463.5 630.3,463.5 
			637,463.5 637,0 		"/>
		<line class="st4" x1="21" y1="463.5" x2="637.5" y2="463.5"/>
	</g>
	<g class="st0">
		<text transform="matrix(1 0 0 1 5.6426 410.3496)" class="st5 st6 st7">20</text>
	</g>
	<g class="st0">
		<text transform="matrix(1 0 0 1 5.6426 354.0996)" class="st5 st6 st7">40</text>
	</g>
	<g class="st0">
		<text transform="matrix(1 0 0 1 5.6426 297.8496)" class="st5 st6 st7">60</text>
	</g>
	<g class="st0">
		<text transform="matrix(1 0 0 1 5.6426 241.5996)" class="st5 st6 st7">80</text>
	</g>
	<g class="st0">
		<text transform="matrix(1 0 0 1 0.5889 185.3496)" class="st5 st6 st7">100</text>
	</g>
	<g class="st0">
		<text transform="matrix(1 0 0 1 0.5889 129.8496)" class="st5 st6 st7">120</text>
	</g>
	<g class="st0">
		<text transform="matrix(1 0 0 1 0.5889 73.5996)" class="st5 st6 st7">140</text>
	</g>
	<g class="st0">
		<text transform="matrix(1 0 0 1 0.5889 17.3496)" class="st5 st6 st7">160</text>
	</g>
</g>
<g>
	<text transform="matrix(1 0 0 1 617.4514 477.829)" class="st8 st6 st7">6/10</text>
</g>
<g>
	<text transform="matrix(1 0 0 1 102.4636 477.8288)" class="st8 st6 st7">3/24</text>
</g>
<g>
	<g>
		<path class="st9" d="M535,71.4c1.7-11.8,11-21.9,24.5-26.3c9.7-3.1,18.8-2.5,24.4-1.6"/>
		<g>
			<polygon class="st10" points="581.3,45.8 583,43.3 582.4,40.4 588.3,44.3 			"/>
		</g>
	</g>
</g>
<text transform="matrix(1 0 0 1 507.5964 75.3311)" class="st11 st12 st13">6/4</text>
<text transform="matrix(1 0 0 1 480.6761 88.5308)" class="st11 st14 st13">Deadliest day</text>
<text transform="matrix(1 0 0 1 495.076 101.731)" class="st11 st12 st13">9 deaths</text>
</svg>
