<?xml version="1.0" encoding="utf-8"?>
<!-- Generator: Adobe Illustrator 23.0.1, SVG Export Plug-In . SVG Version: 6.00 Build 0)  -->
<svg version="1.1" id="Layer_1" xmlns="http://www.w3.org/2000/svg" xmlns:xlink="http://www.w3.org/1999/xlink" x="0px" y="0px"
	 viewBox="0 0 637.5 487.5" style="enable-background:new 0 0 637.5 487.5;" xml:space="preserve">
<style type="text/css">
	.st0{clip-path:url(#SVGID_2_);}
	.st1{clip-path:url(#SVGID_4_);fill:none;stroke:#E8E8E8;stroke-width:0.75;stroke-miterlimit:10;}
	.st2{clip-path:url(#SVGID_4_);fill:#C71E1D;}
	.st3{clip-path:url(#SVGID_4_);fill:#C71E1D;fill-opacity:0.6;stroke:#000000;stroke-width:0.5;stroke-miterlimit:10;}
	.st4{clip-path:url(#SVGID_4_);fill:none;stroke:#333333;stroke-width:0.75;stroke-miterlimit:10;}
	.st5{fill:#A6A6A6;}
	.st6{font-family:'Roboto-Regular';}
	.st7{font-size:9px;}
	.st8{fill:none;stroke:#9A0000;stroke-width:0.75;stroke-miterlimit:10;}
	.st9{fill:#9A0000;}
	.st10{fill:#893333;}
	.st11{font-family:'ArialMT';}
	.st12{font-size:11px;}
	.st13{font-family:'Arial-BoldMT';}
	.st14{fill:#333333;}
</style>
<g>
	<defs>
		<rect id="SVGID_1_" width="637.5" height="487.5"/>
	</defs>
	<clipPath id="SVGID_2_">
		<use xlink:href="#SVGID_1_"  style="overflow:visible;"/>
	</clipPath>
	<g class="st0">
		<defs>
			<rect id="SVGID_3_" width="637.5" height="483"/>
		</defs>
		<clipPath id="SVGID_4_">
			<use xlink:href="#SVGID_3_"  style="overflow:visible;"/>
		</clipPath>
		<line class="st1" x1="21" y1="42" x2="637.5" y2="42"/>
		<line class="st1" x1="21" y1="112.5" x2="637.5" y2="112.5"/>
		<line class="st1" x1="21" y1="182.2" x2="637.5" y2="182.2"/>
		<line class="st1" x1="21" y1="252.8" x2="637.5" y2="252.8"/>
		<line class="st1" x1="21" y1="323.2" x2="637.5" y2="323.2"/>
		<line class="st1" x1="21" y1="393" x2="637.5" y2="393"/>
		<path class="st2" d="M21,463.5h7.7H21z"/>
		<path class="st2" d="M28.7,463.5h7.7H28.7z"/>
		<path class="st2" d="M36.4,463.5h7.7H36.4z"/>
		<path class="st2" d="M44.1,463.5h7.7H44.1z"/>
		<path class="st2" d="M51.8,463.5h7.7H51.8z"/>
		<path class="st2" d="M59.5,463.5h7.7H59.5z"/>
		<path class="st2" d="M67.2,463.5h7.7H67.2z"/>
		<path class="st2" d="M74.9,463.5h7.7H74.9z"/>
		<path class="st2" d="M82.7,463.5h7.7H82.7z"/>
		<path class="st2" d="M90.4,463.5h7.7H90.4z"/>
		<path class="st2" d="M98.1,463.5h7.7H98.1z"/>
		<path class="st2" d="M105.8,463.5h7.7H105.8z"/>
		<path class="st2" d="M113.5,463.5h7.7H113.5z"/>
		<polygon class="st3" points="628.3,-0.1 628.3,24.6 620.6,24.6 620.6,42 613,42 613,45.8 605.3,45.8 605.3,52.5 597.6,52.5 
			597.6,56.2 589.9,56.2 589.9,60 582.1,60 582.1,66.8 574.6,66.8 574.6,77.2 566.9,77.2 566.9,87.8 559.2,87.8 559.2,105 
			551.5,105 551.5,112.5 543.7,112.5 543.7,119.2 536.2,119.2 528.5,119.2 520.8,119.2 513,119.2 513,123 505.3,123 505.3,129.8 
			497.6,129.8 497.6,133.5 490.1,133.5 490.1,144 482.4,144 482.4,147.8 474.6,147.8 474.6,154.5 466.9,154.5 459.2,154.5 
			459.2,158.2 451.7,158.2 451.7,171.8 443.9,171.8 443.9,182.2 436.2,182.2 436.2,196.5 428.5,196.5 428.5,210.8 420.8,210.8 
			420.8,238.5 413.3,238.5 413.3,249 405.5,249 405.5,256.5 397.8,256.5 397.8,263.2 390.1,263.2 390.1,284.2 382.4,284.2 
			382.4,288 375,288 375,294.8 367.3,294.8 367.3,298.5 359.6,298.5 359.6,305.2 351.9,305.2 351.9,309 344.2,309 344.2,312.8 
			336.7,312.8 336.7,315.8 329,315.8 329,326.2 321.3,326.2 321.3,330 313.6,330 313.6,333.8 306,333.8 305.9,333.8 298.3,333.8 
			298.3,344.2 290.6,344.2 290.6,351 282.9,351 282.9,358.5 275.2,358.5 275.2,369 267.5,369 267.5,375.8 259.9,375.8 259.9,379.5 
			252.2,379.5 252.2,390 244.5,390 244.5,400.5 236.8,400.5 229.1,400.5 229.1,407.2 221.4,407.2 213.7,407.2 213.7,414 206,414 
			206,421.5 198.2,421.5 190.5,421.5 190.5,428.2 182.8,428.2 182.8,435.8 175.1,435.8 175.1,438.8 167.4,438.8 167.4,442.5 
			159.7,442.5 159.7,446.2 152,446.2 152,453 144.3,453 136.6,453 136.6,456.8 128.9,456.8 121.2,456.8 121.2,463.5 128.9,463.5 
			136.6,463.5 144.3,463.5 152,463.5 159.7,463.5 167.4,463.5 175.1,463.5 182.8,463.5 190.5,463.5 198.2,463.5 206,463.5 
			213.7,463.5 221.4,463.5 229.1,463.5 236.8,463.5 244.5,463.5 252.2,463.5 259.9,463.5 267.5,463.5 267.6,463.5 275.2,463.5 
			282.9,463.5 290.6,463.5 298.3,463.5 305.9,463.5 306,463.5 313.6,463.5 321.3,463.5 329,463.5 336.7,463.5 344.2,463.5 
			344.4,463.5 351.9,463.5 359.6,463.5 367.3,463.5 375,463.5 382.4,463.5 382.7,463.5 390.1,463.5 397.8,463.5 405.5,463.5 
			413.3,463.5 420.8,463.5 421,463.5 428.5,463.5 436.2,463.5 443.9,463.5 451.7,463.5 459.2,463.5 459.4,463.5 466.9,463.5 
			474.6,463.5 482.4,463.5 490.1,463.5 497.6,463.5 497.8,463.5 505.3,463.5 513,463.5 520.8,463.5 528.5,463.5 536.2,463.5 
			543.7,463.5 543.9,463.5 551.5,463.5 559.2,463.5 566.9,463.5 574.6,463.5 582.1,463.5 582.3,463.5 589.9,463.5 597.6,463.5 
			605.3,463.5 613,463.5 620.7,463.5 620.7,463.4 628.3,463.4 636,463.4 636,-0.1 		"/>
		<line class="st4" x1="21" y1="463.5" x2="637.5" y2="463.5"/>
	</g>
	<g class="st0">
		<text transform="matrix(1 0 0 1 5.2559 395.3496)" class="st5 st6 st7">20</text>
	</g>
	<g class="st0">
		<text transform="matrix(1 0 0 1 5.2559 325.5996)" class="st5 st6 st7">40</text>
	</g>
	<g class="st0">
		<text transform="matrix(1 0 0 1 5.2559 255.0996)" class="st5 st6 st7">60</text>
	</g>
	<g class="st0">
		<text transform="matrix(1 0 0 1 5.2559 184.5996)" class="st5 st6 st7">80</text>
	</g>
	<g class="st0">
		<text transform="matrix(1 0 0 1 2.929688e-03 114.8496)" class="st5 st6 st7">100</text>
	</g>
	<g class="st0">
		<text transform="matrix(1 0 0 1 2.929688e-03 44.3496)" class="st5 st6 st7">120</text>
	</g>
</g>
<g>
	<g>
		<path class="st8" d="M573,34c1.7-11.8,11-21.9,24.5-26.3c9.7-3.1,18.8-2.5,24.4-1.6"/>
		<g>
			<polygon class="st9" points="619.3,8.4 621,5.9 620.4,3 626.3,6.9 			"/>
		</g>
	</g>
</g>
<text transform="matrix(1 0 0 1 543.4662 37.9315)" class="st10 st11 st12">5/29</text>
<text transform="matrix(1 0 0 1 518.6661 51.1312)" class="st10 st13 st12">Deadliest day</text>
<text transform="matrix(1 0 0 1 533.066 64.3314)" class="st10 st11 st12">7 deaths</text>
<g>
	<text transform="matrix(1 0 0 1 618.3049 478.3342)" class="st14 st6 st7">5/29</text>
</g>
<g>
	<text transform="matrix(1 0 0 1 115.6288 478.3342)" class="st14 st6 st7">3/24</text>
</g>
</svg>
