<?xml version="1.0" encoding="utf-8"?>
<!-- Generator: Adobe Illustrator 23.0.1, SVG Export Plug-In . SVG Version: 6.00 Build 0)  -->
<svg version="1.1" id="Layer_1" xmlns="http://www.w3.org/2000/svg" xmlns:xlink="http://www.w3.org/1999/xlink" x="0px" y="0px"
	 viewBox="0 0 637.5 487.5" style="enable-background:new 0 0 637.5 487.5;" xml:space="preserve">
<style type="text/css">
	.st0{clip-path:url(#SVGID_2_);}
	.st1{clip-path:url(#SVGID_4_);fill:none;stroke:#E8E8E8;stroke-width:0.75;stroke-miterlimit:10;}
	.st2{clip-path:url(#SVGID_4_);fill:#C71E1D;}
	.st3{clip-path:url(#SVGID_4_);fill:#C71E1D;fill-opacity:0.6;stroke:#000000;stroke-width:0.5;stroke-miterlimit:10;}
	.st4{clip-path:url(#SVGID_4_);fill:none;stroke:#333333;stroke-width:0.75;stroke-miterlimit:10;}
	.st5{fill:#A6A6A6;}
	.st6{font-family:'Roboto-Regular';}
	.st7{font-size:9px;}
	.st8{fill:none;stroke:#9A0000;stroke-width:0.75;stroke-miterlimit:10;}
	.st9{fill:#9A0000;}
	.st10{fill:#893333;}
	.st11{font-family:'ArialMT';}
	.st12{font-size:11px;}
	.st13{font-family:'Arial-BoldMT';}
	.st14{fill:#333333;}
</style>
<g>
	<defs>
		<rect id="SVGID_1_" width="637.5" height="487.5"/>
	</defs>
	<clipPath id="SVGID_2_">
		<use xlink:href="#SVGID_1_"  style="overflow:visible;"/>
	</clipPath>
	<g class="st0">
		<defs>
			<rect id="SVGID_3_" width="637.5" height="483"/>
		</defs>
		<clipPath id="SVGID_4_">
			<use xlink:href="#SVGID_3_"  style="overflow:visible;"/>
		</clipPath>
		<line class="st1" x1="21" y1="30" x2="637.5" y2="30"/>
		<line class="st1" x1="21" y1="73.5" x2="637.5" y2="73.5"/>
		<line class="st1" x1="21" y1="117" x2="637.5" y2="117"/>
		<line class="st1" x1="21" y1="160.5" x2="637.5" y2="160.5"/>
		<line class="st1" x1="21" y1="203.2" x2="637.5" y2="203.2"/>
		<line class="st1" x1="21" y1="246.8" x2="637.5" y2="246.8"/>
		<line class="st1" x1="21" y1="290.2" x2="637.5" y2="290.2"/>
		<line class="st1" x1="21" y1="333.8" x2="637.5" y2="333.8"/>
		<line class="st1" x1="21" y1="376.5" x2="637.5" y2="376.5"/>
		<line class="st1" x1="21" y1="420" x2="637.5" y2="420"/>
		<path class="st2" d="M21,463.5h8.7H21z"/>
		<path class="st2" d="M29.7,463.5h8.7H29.7z"/>
		<path class="st2" d="M38.4,463.5H47H38.4z"/>
		<path class="st2" d="M47,463.5h8.7H47z"/>
		<path class="st2" d="M55.7,463.5h8.7H55.7z"/>
		<path class="st2" d="M64.4,463.5h8.7H64.4z"/>
		<path class="st2" d="M73.1,463.5h8.7H73.1z"/>
		<path class="st2" d="M81.8,463.5h8.7H81.8z"/>
		<path class="st2" d="M90.5,463.5h8.7H90.5z"/>
		<path class="st2" d="M99.1,463.5h8.7H99.1z"/>
		<path class="st2" d="M107.8,463.5h8.7H107.8z"/>
		<path class="st2" d="M116.5,463.5h8.7H116.5z"/>
		<path class="st2" d="M125.2,463.5h8.7H125.2z"/>
		<polygon class="st3" points="628.8,0 628.8,21.8 620.1,21.8 620.1,30 611.5,30 611.5,39 602.8,39 602.8,39 594.1,39 585.4,39 
			576.7,39 576.7,43.5 568,43.5 568,51.8 559.4,51.8 559.4,56.2 550.7,56.2 550.7,69 542,69 542,73.5 533.3,73.5 533.3,82.5 
			524.6,82.5 524.6,82.5 515.9,82.5 515.9,87 507.3,87 507.3,104.2 498.6,104.2 498.6,117 489.9,117 489.9,134.2 481.2,134.2 
			481.2,151.5 472.5,151.5 472.5,186 463.8,186 463.8,199.5 455.2,199.5 455.2,207.8 446.5,207.8 446.5,216.8 437.8,216.8 
			437.8,242.2 429.1,242.2 429.1,246.8 420.4,246.8 420.4,255.8 411.7,255.8 411.7,260.2 403.1,260.2 403.1,268.5 394.4,268.5 
			394.4,273 385.7,273 385.7,277.5 377,277.5 377,281.2 368.3,281.2 368.3,294.8 359.6,294.8 359.6,299.2 351,299.2 351,303 
			342.3,303 342.3,303 333.6,303 333.6,316.5 324.9,316.5 324.9,324.8 316.2,324.8 316.2,333.8 307.5,333.8 307.5,346.5 
			298.9,346.5 298.9,355.5 290.2,355.5 290.2,359.2 281.5,359.2 281.5,372.8 272.8,372.8 272.8,385.5 264.1,385.5 264.1,385.5 
			255.4,385.5 255.4,394.5 246.8,394.5 246.8,394.5 238.1,394.5 238.1,402.8 229.4,402.8 229.4,411.8 220.7,411.8 212,411.8 
			212,420 203.3,420 203.3,429 194.7,429 194.7,433.5 186,433.5 186,437.2 177.3,437.2 177.3,441.8 168.6,441.8 168.6,450.8 
			159.9,450.8 159.9,450.8 151.2,450.8 151.2,454.5 142.6,454.5 133.9,454.5 133.9,463.5 142.6,463.5 151.2,463.5 151.2,463.5 
			159.9,463.5 159.9,463.5 168.6,463.5 168.6,463.5 177.3,463.5 186,463.5 194.7,463.5 203.3,463.5 212,463.5 220.7,463.5 
			229.4,463.5 229.4,463.5 238.1,463.5 238.1,463.5 246.8,463.5 246.8,463.5 255.4,463.5 264.1,463.5 264.1,463.5 272.8,463.5 
			272.8,463.5 281.5,463.5 290.2,463.5 298.9,463.5 307.5,463.5 316.2,463.5 316.2,463.5 324.9,463.5 324.9,463.5 333.6,463.5 
			333.6,463.5 342.3,463.5 342.3,463.5 351,463.5 351,463.5 359.6,463.5 368.3,463.5 377,463.5 385.7,463.5 394.4,463.5 
			394.4,463.5 403.1,463.5 403.1,463.5 411.7,463.5 411.7,463.5 420.4,463.5 420.4,463.5 429.1,463.5 429.1,463.5 437.8,463.5 
			446.5,463.5 455.2,463.5 463.8,463.5 472.5,463.5 472.5,463.5 481.2,463.5 481.2,463.5 489.9,463.5 489.9,463.5 498.6,463.5 
			498.6,463.5 507.3,463.5 507.3,463.5 515.9,463.5 524.6,463.5 524.6,463.5 533.3,463.5 542,463.5 550.7,463.5 559.4,463.5 
			568,463.5 576.7,463.5 585.4,463.5 594.1,463.5 602.8,463.5 602.8,463.5 611.5,463.5 620.1,463.5 628.8,463.5 637.5,463.5 
			637.5,0 		"/>
		<line class="st4" x1="21" y1="463.5" x2="637.5" y2="463.5"/>
	</g>
	<g class="st0">
		<text transform="matrix(1 0 0 1 5.2559 422.3496)" class="st5 st6 st7">10</text>
	</g>
	<g class="st0">
		<text transform="matrix(1 0 0 1 5.2559 378.8496)" class="st5 st6 st7">20</text>
	</g>
	<g class="st0">
		<text transform="matrix(1 0 0 1 5.2559 336.0996)" class="st5 st6 st7">30</text>
	</g>
	<g class="st0">
		<text transform="matrix(1 0 0 1 5.2559 292.5996)" class="st5 st6 st7">40</text>
	</g>
	<g class="st0">
		<text transform="matrix(1 0 0 1 5.2559 249.0996)" class="st5 st6 st7">50</text>
	</g>
	<g class="st0">
		<text transform="matrix(1 0 0 1 5.2559 205.5996)" class="st5 st6 st7">60</text>
	</g>
	<g class="st0">
		<text transform="matrix(1 0 0 1 5.2559 162.8496)" class="st5 st6 st7">70</text>
	</g>
	<g class="st0">
		<text transform="matrix(1 0 0 1 5.2559 119.3496)" class="st5 st6 st7">80</text>
	</g>
	<g class="st0">
		<text transform="matrix(1 0 0 1 5.2559 75.8496)" class="st5 st6 st7">90</text>
	</g>
	<g class="st0">
		<text transform="matrix(1 0 0 1 2.929688e-03 32.3496)" class="st5 st6 st7">100</text>
	</g>
</g>
<g>
	<g>
		<path class="st8" d="M417.2,189c1.7-11.8,11-21.9,24.5-26.3c9.7-3.1,18.8-2.5,24.4-1.6"/>
		<g>
			<polygon class="st9" points="463.5,163.4 465.2,160.9 464.6,158 470.5,161.9 			"/>
		</g>
	</g>
</g>
<text transform="matrix(1 0 0 1 387.6575 193.0054)" class="st10 st11 st12">4/28</text>
<text transform="matrix(1 0 0 1 362.8574 206.2051)" class="st10 st13 st12">Deadliest day</text>
<text transform="matrix(1 0 0 1 377.2573 219.4053)" class="st10 st11 st12">6 deaths</text>
<g>
	<text transform="matrix(1 0 0 1 128.3063 478.6372)" class="st14 st6 st7">3/24</text>
</g>
<g>
	<text transform="matrix(1 0 0 1 617.8285 478.6372)" class="st14 st6 st7">5/20</text>
</g>
</svg>
