<?xml version="1.0" encoding="utf-8"?>
<!-- Generator: Adobe Illustrator 23.0.1, SVG Export Plug-In . SVG Version: 6.00 Build 0)  -->
<svg version="1.1" id="Layer_1" xmlns="http://www.w3.org/2000/svg" xmlns:xlink="http://www.w3.org/1999/xlink" x="0px" y="0px"
	 viewBox="0 0 637.5 487.5" style="enable-background:new 0 0 637.5 487.5;" xml:space="preserve">
<style type="text/css">
	.st0{clip-path:url(#SVGID_2_);}
	.st1{clip-path:url(#SVGID_4_);fill:none;stroke:#E8E8E8;stroke-width:0.75;stroke-miterlimit:10;}
	.st2{clip-path:url(#SVGID_4_);fill:#C71E1D;}
	.st3{clip-path:url(#SVGID_4_);fill:#C71E1D;fill-opacity:0.6;stroke:#000000;stroke-width:0.5;stroke-miterlimit:10;}
	.st4{clip-path:url(#SVGID_4_);fill:none;stroke:#333333;stroke-width:0.75;stroke-miterlimit:10;}
	.st5{fill:#A6A6A6;}
	.st6{font-family:'Roboto-Regular';}
	.st7{font-size:9px;}
	.st8{fill:#333333;}
	.st9{fill:none;stroke:#9A0000;stroke-width:0.75;stroke-miterlimit:10;}
	.st10{fill:#9A0000;}
	.st11{fill:#893333;}
	.st12{font-family:'ArialMT';}
	.st13{font-size:11px;}
	.st14{font-family:'Arial-BoldMT';}
</style>
<g>
	<defs>
		<rect id="SVGID_1_" width="637.5" height="487.5"/>
	</defs>
	<clipPath id="SVGID_2_">
		<use xlink:href="#SVGID_1_"  style="overflow:visible;"/>
	</clipPath>
	<g class="st0">
		<defs>
			<rect id="SVGID_3_" width="637.5" height="483"/>
		</defs>
		<clipPath id="SVGID_4_">
			<use xlink:href="#SVGID_3_"  style="overflow:visible;"/>
		</clipPath>
		<line class="st1" x1="21" y1="45" x2="637.5" y2="45"/>
		<line class="st1" x1="21" y1="105" x2="637.5" y2="105"/>
		<line class="st1" x1="21" y1="164.2" x2="637.5" y2="164.2"/>
		<line class="st1" x1="21" y1="224.2" x2="637.5" y2="224.2"/>
		<line class="st1" x1="21" y1="284.2" x2="637.5" y2="284.2"/>
		<line class="st1" x1="21" y1="344.2" x2="637.5" y2="344.2"/>
		<line class="st1" x1="21" y1="403.5" x2="637.5" y2="403.5"/>
		<path class="st2" d="M21,463.5h6.8H21z"/>
		<path class="st2" d="M27.9,463.5h6.8H27.9z"/>
		<path class="st2" d="M34.7,463.5h6.8H34.7z"/>
		<path class="st2" d="M41.5,463.5h6.8H41.5z"/>
		<path class="st2" d="M48.4,463.5h6.8H48.4z"/>
		<path class="st2" d="M55.2,463.5h6.8H55.2z"/>
		<path class="st2" d="M62.1,463.5h6.8H62.1z"/>
		<path class="st2" d="M68.9,463.5h6.8H68.9z"/>
		<path class="st2" d="M75.8,463.5h6.8H75.8z"/>
		<path class="st2" d="M82.7,463.5h6.8H82.7z"/>
		<path class="st2" d="M89.5,463.5h6.8H89.5z"/>
		<path class="st2" d="M96.3,463.5h6.8H96.3z"/>
		<path class="st2" d="M103.2,463.5h6.8H103.2z"/>
		<polygon class="st3" points="629.4,0 629.4,2.9 622.7,2.9 615.8,2.9 615.8,9 609.1,9 609.1,12 602.2,12 602.2,39 595.4,39 
			595.4,57 588.7,57 588.7,66 581.9,66 581.9,66 575.1,66 568.2,66 568.2,69 561.4,69 561.4,90 554.7,90 554.7,105 547.8,105 
			547.8,108 541,108 541,114 534.2,114 534.2,116.2 527.3,116.2 527.3,119.2 520.6,119.2 520.6,125.2 513.7,125.2 513.7,134.2 
			506.9,134.2 506.9,143.2 500,143.2 500,158.2 493.2,158.2 493.2,164.2 486.3,164.2 486.3,170.2 479.5,170.2 472.6,170.2 
			465.8,170.2 458.9,170.2 458.9,173.2 452.1,173.2 452.1,179.2 445.2,179.2 445.2,182.2 438.4,182.2 438.4,191.2 431.5,191.2 
			431.5,194.2 424.7,194.2 424.7,200.2 417.8,200.2 417.8,200.2 411,200.2 411,203.2 404.1,203.2 404.1,215.2 397.3,215.2 
			397.3,224.2 390.4,224.2 390.4,236.2 383.6,236.2 383.6,248.2 376.7,248.2 376.7,272.2 369.9,272.2 369.9,281.2 363,281.2 
			363,287.2 356.2,287.2 356.2,293.2 349.3,293.2 349.3,311.2 342.5,311.2 342.5,314.2 335.6,314.2 335.6,320.2 328.8,320.2 
			328.8,323.2 321.9,323.2 321.9,329.2 315.1,329.2 315.1,332.2 308.2,332.2 308.2,335.2 301.4,335.2 301.4,338.2 294.5,338.2 
			294.5,347.2 287.7,347.2 287.7,349.5 280.8,349.5 280.8,352.5 274,352.5 267.1,352.5 267.1,361.5 260.3,361.5 260.3,367.5 
			253.4,367.5 253.4,373.5 246.6,373.5 246.6,382.5 239.7,382.5 239.7,388.5 232.9,388.5 232.9,391.5 226.1,391.5 226.1,400.5 
			219.3,400.5 219.3,409.5 212.4,409.5 205.6,409.5 205.6,415.5 198.9,415.5 198.7,415.5 192.1,415.5 192.1,421.5 185.2,421.5 
			185.2,427.5 178.4,427.5 171.5,427.5 171.5,433.5 164.7,433.5 164.7,439.5 157.9,439.5 157.9,442.5 151.1,442.5 151.1,445.5 
			144.2,445.5 144.2,448.5 137.4,448.5 137.4,454.5 130.6,454.5 130.5,454.5 123.8,454.5 123.8,457.5 116.9,457.5 110,457.5 
			110,463.5 116.9,463.5 123.8,463.5 130.5,463.5 130.6,463.5 137.4,463.5 144.2,463.5 151.1,463.5 157.9,463.5 164.7,463.5 
			164.8,463.5 171.5,463.5 178.4,463.5 185.2,463.5 192.1,463.5 198.7,463.5 198.9,463.5 205.6,463.5 212.4,463.5 219.3,463.5 
			226.1,463.5 232.9,463.5 233,463.5 239.7,463.5 246.6,463.5 253.4,463.5 260.3,463.5 267.1,463.5 274,463.5 280.8,463.5 
			280.8,463.5 287.7,463.5 294.5,463.5 301.4,463.5 308.2,463.5 315.1,463.5 315.1,463.5 321.9,463.5 328.8,463.5 335.6,463.5 
			342.5,463.5 349.3,463.5 349.3,463.5 356.2,463.5 363,463.5 369.9,463.5 376.7,463.5 383.6,463.5 383.6,463.5 390.4,463.5 
			397.3,463.5 404.1,463.5 411,463.5 417.8,463.5 417.8,463.5 424.7,463.5 431.5,463.5 438.4,463.5 445.2,463.5 452.1,463.5 
			452.1,463.5 458.9,463.5 465.8,463.5 472.6,463.5 479.5,463.5 486.3,463.5 486.3,463.5 493.2,463.5 500,463.5 506.9,463.5 
			513.7,463.5 520.6,463.5 527.3,463.5 527.4,463.5 534.2,463.5 541,463.5 547.9,463.5 547.9,463.5 554.7,463.5 561.4,463.5 
			561.5,463.5 568.2,463.5 575.1,463.5 581.9,463.5 581.9,463.5 588.7,463.5 595.4,463.5 595.4,463.5 602.2,463.5 609.1,463.5 
			615.9,463.5 615.9,463.4 622.7,463.4 629.4,463.4 629.4,463.5 636.3,463.5 636.3,0 		"/>
		<line class="st4" x1="21" y1="463.5" x2="637.5" y2="463.5"/>
	</g>
	<g class="st0">
		<text transform="matrix(1 0 0 1 5.6426 406.5996)" class="st5 st6 st7">20</text>
	</g>
	<g class="st0">
		<text transform="matrix(1 0 0 1 5.6426 347.3496)" class="st5 st6 st7">40</text>
	</g>
	<g class="st0">
		<text transform="matrix(1 0 0 1 5.6426 287.3496)" class="st5 st6 st7">60</text>
	</g>
	<g class="st0">
		<text transform="matrix(1 0 0 1 5.6426 227.3496)" class="st5 st6 st7">80</text>
	</g>
	<g class="st0">
		<text transform="matrix(1 0 0 1 0.5889 167.3496)" class="st5 st6 st7">100</text>
	</g>
	<g class="st0">
		<text transform="matrix(1 0 0 1 0.5889 108.0996)" class="st5 st6 st7">120</text>
	</g>
	<g class="st0">
		<text transform="matrix(1 0 0 1 0.5889 48.0996)" class="st5 st6 st7">140</text>
	</g>
</g>
<g>
	<text transform="matrix(1 0 0 1 622.9321 477.3123)" class="st8 st6 st7">6/8</text>
</g>
<g>
	<text transform="matrix(1 0 0 1 104.4087 477.3121)" class="st8 st6 st7">3/24</text>
</g>
<g>
	<g>
		<path class="st9" d="M545.9,47.4c1.7-11.8,11-21.9,24.5-26.3c9.7-3.1,18.8-2.5,24.4-1.6"/>
		<g>
			<polygon class="st10" points="592.2,21.8 593.9,19.3 593.3,16.4 599.2,20.3 			"/>
		</g>
	</g>
</g>
<text transform="matrix(1 0 0 1 518.5157 51.3844)" class="st11 st12 st13">6/4</text>
<text transform="matrix(1 0 0 1 491.5955 64.5841)" class="st11 st14 st13">Deadliest day</text>
<text transform="matrix(1 0 0 1 505.9954 77.7843)" class="st11 st12 st13">9 deaths</text>
</svg>
