<?xml version="1.0" encoding="utf-8"?>
<!-- Generator: Adobe Illustrator 23.0.1, SVG Export Plug-In . SVG Version: 6.00 Build 0)  -->
<svg version="1.1" id="Layer_1" xmlns="http://www.w3.org/2000/svg" xmlns:xlink="http://www.w3.org/1999/xlink" x="0px" y="0px"
	 viewBox="0 0 637.5 487.5" style="enable-background:new 0 0 637.5 487.5;" xml:space="preserve">
<style type="text/css">
	.st0{clip-path:url(#SVGID_2_);}
	.st1{clip-path:url(#SVGID_4_);fill:none;stroke:#E8E8E8;stroke-width:0.75;stroke-miterlimit:10;}
	.st2{clip-path:url(#SVGID_4_);fill:#C71E1D;}
	.st3{clip-path:url(#SVGID_4_);fill:#C71E1D;fill-opacity:0.6;stroke:#000000;stroke-width:0.5;stroke-miterlimit:10;}
	.st4{clip-path:url(#SVGID_4_);fill:none;stroke:#333333;stroke-width:0.75;stroke-miterlimit:10;}
	.st5{fill:#A6A6A6;}
	.st6{font-family:'Roboto-Regular';}
	.st7{font-size:9px;}
	.st8{fill:none;stroke:#9A0000;stroke-width:0.75;stroke-miterlimit:10;}
	.st9{fill:#9A0000;}
	.st10{fill:#893333;}
	.st11{font-family:'ArialMT';}
	.st12{font-size:11px;}
	.st13{font-family:'Arial-BoldMT';}
	.st14{fill:#333333;}
</style>
<g>
	<defs>
		<rect id="SVGID_1_" width="637.5" height="487.5"/>
	</defs>
	<clipPath id="SVGID_2_">
		<use xlink:href="#SVGID_1_"  style="overflow:visible;"/>
	</clipPath>
	<g class="st0">
		<defs>
			<rect id="SVGID_3_" width="637.5" height="483"/>
		</defs>
		<clipPath id="SVGID_4_">
			<use xlink:href="#SVGID_3_"  style="overflow:visible;"/>
		</clipPath>
		<line class="st1" x1="15.8" y1="37.5" x2="637.5" y2="37.5"/>
		<line class="st1" x1="15.8" y1="85.5" x2="637.5" y2="85.5"/>
		<line class="st1" x1="15.8" y1="132.8" x2="637.5" y2="132.8"/>
		<line class="st1" x1="15.8" y1="180" x2="637.5" y2="180"/>
		<line class="st1" x1="15.8" y1="227.2" x2="637.5" y2="227.2"/>
		<line class="st1" x1="15.8" y1="274.5" x2="637.5" y2="274.5"/>
		<line class="st1" x1="15.8" y1="321.8" x2="637.5" y2="321.8"/>
		<line class="st1" x1="15.8" y1="369" x2="637.5" y2="369"/>
		<line class="st1" x1="15.8" y1="416.2" x2="637.5" y2="416.2"/>
		<path class="st2" d="M15.8,463.5H25H15.8z"/>
		<path class="st2" d="M25,463.5h9.3H25z"/>
		<path class="st2" d="M34.3,463.5h9.3H34.3z"/>
		<path class="st2" d="M43.6,463.5h9.3H43.6z"/>
		<path class="st2" d="M52.9,463.5h9.3H52.9z"/>
		<path class="st2" d="M62.1,463.5h9.3H62.1z"/>
		<path class="st2" d="M71.4,463.5h9.3H71.4z"/>
		<path class="st2" d="M80.7,463.5H90H80.7z"/>
		<path class="st2" d="M90,463.5h9.3H90z"/>
		<path class="st2" d="M99.3,463.5h9.3H99.3z"/>
		<path class="st2" d="M108.5,463.5h9.3H108.5z"/>
		<path class="st2" d="M117.8,463.5h9.3H117.8z"/>
		<path class="st2" d="M127.1,463.5h9.3H127.1z"/>
		<polygon class="st3" points="627.4,0 618.2,0 608.9,0 608.9,4.5 599.6,4.5 599.6,14.2 590.3,14.2 590.3,18.8 581,18.8 581,33 
			571.9,33 571.9,37.5 562.6,37.5 562.6,47.3 553.3,47.3 544,47.3 544,51.8 534.7,51.8 534.7,71.3 525.5,71.3 525.5,85.5 
			516.2,85.5 516.2,104.3 506.9,104.3 506.9,123 497.6,123 497.6,160.5 488.3,160.5 488.3,174.8 479.1,174.8 479.1,184.5 
			469.9,184.5 469.9,194.2 460.6,194.2 460.6,222 451.4,222 451.4,227.2 442.1,227.2 442.1,236.2 432.9,236.2 432.9,241.5 
			423.7,241.5 423.7,250.5 414.5,250.5 414.5,255.8 405.2,255.8 405.2,260.2 395.9,260.2 395.9,264.8 386.6,264.8 386.6,279 
			377.3,279 377.3,283.5 368.1,283.5 368.1,288.8 358.8,288.8 358.8,288.8 349.5,288.8 349.5,303 340.3,303 340.3,312 331,312 
			331,321.8 321.8,321.8 321.8,336 312.5,336 312.5,345 303.3,345 303.3,350.2 294,350.2 294,364.5 284.8,364.5 284.8,378 
			275.5,378 266.2,378 266.2,387.8 256.9,387.8 247.6,387.8 247.6,397.5 238.4,397.5 238.4,406.5 229.1,406.5 219.8,406.5 
			219.8,416.2 210.6,416.2 210.6,426 201.3,426 201.3,430.5 192,430.5 192,435 182.8,435 182.8,439.5 173.5,439.5 173.5,449.2 
			164.2,449.2 154.9,449.2 154.9,453.8 145.7,453.8 136.4,453.8 136.4,463.5 145.7,463.5 154.9,463.5 164.2,463.5 173.5,463.5 
			182.8,463.5 192,463.5 192.1,463.5 201.3,463.5 201.3,463.5 210.6,463.5 210.6,463.5 219.8,463.5 219.8,463.5 229.1,463.5 
			238.4,463.5 247.6,463.5 256.9,463.5 266.2,463.5 275.5,463.5 284.8,463.5 294,463.5 303.3,463.5 303.3,463.5 312.5,463.5 
			312.6,463.5 321.8,463.5 321.8,463.5 331,463.5 331,463.5 340.3,463.5 340.3,463.5 349.5,463.5 349.5,463.5 358.8,463.5 
			358.8,463.5 368.1,463.5 377.3,463.5 386.6,463.5 395.9,463.5 405.2,463.5 414.5,463.5 423.7,463.5 423.7,463.5 432.9,463.5 
			433,463.5 442.1,463.5 442.2,463.5 451.4,463.5 451.4,463.5 460.6,463.5 460.6,463.5 469.9,463.5 469.9,463.5 479.1,463.5 
			479.2,463.5 488.3,463.5 488.3,463.5 497.6,463.5 506.9,463.5 516.2,463.5 525.5,463.5 534.7,463.5 544,463.5 553.3,463.5 
			562.6,463.5 571.9,463.5 581.1,463.5 581.1,463.5 590.3,463.5 599.6,463.5 608.9,463.5 618.2,463.5 627.4,463.5 636.7,463.5 
			636.7,0 		"/>
		<line class="st4" x1="15.8" y1="463.5" x2="637.5" y2="463.5"/>
	</g>
	<g class="st0">
		<text transform="matrix(1 0 0 1 5.859375e-03 418.5996)" class="st5 st6 st7">10</text>
	</g>
	<g class="st0">
		<text transform="matrix(1 0 0 1 5.859375e-03 371.3496)" class="st5 st6 st7">20</text>
	</g>
	<g class="st0">
		<text transform="matrix(1 0 0 1 5.859375e-03 324.0996)" class="st5 st6 st7">30</text>
	</g>
	<g class="st0">
		<text transform="matrix(1 0 0 1 5.859375e-03 276.8496)" class="st5 st6 st7">40</text>
	</g>
	<g class="st0">
		<text transform="matrix(1 0 0 1 5.859375e-03 229.5996)" class="st5 st6 st7">50</text>
	</g>
	<g class="st0">
		<text transform="matrix(1 0 0 1 5.859375e-03 182.3496)" class="st5 st6 st7">60</text>
	</g>
	<g class="st0">
		<text transform="matrix(1 0 0 1 5.859375e-03 135.0996)" class="st5 st6 st7">70</text>
	</g>
	<g class="st0">
		<text transform="matrix(1 0 0 1 5.859375e-03 87.8496)" class="st5 st6 st7">80</text>
	</g>
	<g class="st0">
		<text transform="matrix(1 0 0 1 5.859375e-03 39.8496)" class="st5 st6 st7">90</text>
	</g>
</g>
<g>
	<g>
		<path class="st8" d="M443,166.2c1.7-11.8,11-21.9,24.5-26.3c9.7-3.1,18.8-2.5,24.4-1.6"/>
		<g>
			<polygon class="st9" points="489.3,140.6 491,138.1 490.4,135.2 496.3,139.1 			"/>
		</g>
	</g>
</g>
<text transform="matrix(1 0 0 1 413.4998 170.1243)" class="st10 st11 st12">4/28</text>
<text transform="matrix(1 0 0 1 388.6998 183.324)" class="st10 st13 st12">Deadliest day</text>
<text transform="matrix(1 0 0 1 403.0997 196.5242)" class="st10 st11 st12">6 deaths</text>
<g>
	<text transform="matrix(1 0 0 1 132.6504 478.1442)" class="st14 st6 st7">3/24</text>
</g>
<g>
	<text transform="matrix(1 0 0 1 617.0446 478.1442)" class="st14 st6 st7">5/16</text>
</g>
</svg>
