<?xml version="1.0" encoding="utf-8"?>
<!-- Generator: Adobe Illustrator 23.0.1, SVG Export Plug-In . SVG Version: 6.00 Build 0)  -->
<svg version="1.1" id="Layer_1" xmlns="http://www.w3.org/2000/svg" xmlns:xlink="http://www.w3.org/1999/xlink" x="0px" y="0px"
	 viewBox="0 0 637.5 487.5" style="enable-background:new 0 0 637.5 487.5;" xml:space="preserve">
<style type="text/css">
	.st0{clip-path:url(#SVGID_2_);enable-background:new    ;}
	.st1{clip-path:url(#SVGID_4_);fill:none;stroke:#E8E8E8;stroke-width:0.75;stroke-miterlimit:10;}
	.st2{clip-path:url(#SVGID_4_);fill:#C71E1D;}
	.st3{clip-path:url(#SVGID_4_);fill:#C71E1D;fill-opacity:0.6;stroke:#000000;stroke-width:0.5;stroke-miterlimit:10;}
	.st4{clip-path:url(#SVGID_4_);fill:none;stroke:#333333;stroke-width:0.75;stroke-miterlimit:10;}
	.st5{clip-path:url(#SVGID_4_);}
	.st6{fill:#A6A6A6;}
	.st7{font-family:'Roboto-Regular';}
	.st8{font-size:9px;}
	.st9{fill:#333333;}
	.st10{fill:none;stroke:#9A0000;stroke-width:0.75;stroke-miterlimit:10;}
	.st11{fill:#9A0000;}
	.st12{fill:#893333;}
	.st13{font-family:'ArialMT';}
	.st14{font-size:11px;}
	.st15{font-family:'Arial-BoldMT';}
</style>
<g>
	<defs>
		<rect id="SVGID_1_" width="637.5" height="487.5"/>
	</defs>
	<clipPath id="SVGID_2_">
		<use xlink:href="#SVGID_1_"  style="overflow:visible;"/>
	</clipPath>
	<g class="st0">
		<g>
			<defs>
				<rect id="SVGID_3_" width="637.5" height="487.5"/>
			</defs>
			<clipPath id="SVGID_4_">
				<use xlink:href="#SVGID_3_"  style="overflow:visible;"/>
			</clipPath>
			<line class="st1" x1="15.8" y1="19.5" x2="637.5" y2="19.5"/>
			<line class="st1" x1="15.8" y1="69" x2="637.5" y2="69"/>
			<line class="st1" x1="15.8" y1="118.5" x2="637.5" y2="118.5"/>
			<line class="st1" x1="15.8" y1="168" x2="637.5" y2="168"/>
			<line class="st1" x1="15.8" y1="216.8" x2="637.5" y2="216.8"/>
			<line class="st1" x1="15.8" y1="266.2" x2="637.5" y2="266.2"/>
			<line class="st1" x1="15.8" y1="315.8" x2="637.5" y2="315.8"/>
			<line class="st1" x1="15.8" y1="365.2" x2="637.5" y2="365.2"/>
			<line class="st1" x1="15.8" y1="414" x2="637.5" y2="414"/>
			<path class="st2" d="M15.8,463.5h10H15.8z"/>
			<path class="st2" d="M25.8,463.5h10H25.8z"/>
			<path class="st2" d="M35.8,463.5h10H35.8z"/>
			<path class="st2" d="M45.8,463.5h10H45.8z"/>
			<path class="st2" d="M55.9,463.5h10H55.9z"/>
			<path class="st2" d="M65.9,463.5h10H65.9z"/>
			<path class="st2" d="M75.9,463.5h10H75.9z"/>
			<path class="st2" d="M85.9,463.5h10H85.9z"/>
			<path class="st2" d="M96,463.5h10H96z"/>
			<path class="st2" d="M106,463.5h10H106z"/>
			<path class="st2" d="M116,463.5h10H116z"/>
			<path class="st2" d="M126.1,463.5h10H126.1z"/>
			<path class="st2" d="M136.1,463.5h10H136.1z"/>
			<polygon class="st3" points="627.5,0 627.5,15 617.4,15 617.4,19.5 607.4,19.5 607.4,29.2 597.4,29.2 587.4,29.2 587.4,34.5 
				577.3,34.5 577.3,54 567.3,54 567.3,69 557.3,69 557.3,88.5 547.2,88.5 547.2,108.8 537.2,108.8 537.2,147.8 527.2,147.8 
				527.2,162.8 517.2,162.8 517.2,172.5 507.1,172.5 507.1,182.2 497.1,182.2 497.1,212.2 487.1,212.2 487.1,216.8 477,216.8 
				477,226.5 467,226.5 467,231.8 457,231.8 457,241.5 447,241.5 447,246.8 436.9,246.8 436.9,251.2 426.9,251.2 426.9,256.5 
				416.9,256.5 416.9,271.5 406.9,271.5 406.9,276 396.8,276 396.8,281.2 386.8,281.2 376.8,281.2 376.8,295.5 366.7,295.5 
				366.7,306 356.7,306 356.7,315.8 346.7,315.8 346.7,330 336.7,330 336.7,340.5 326.6,340.5 326.6,345 316.6,345 316.6,360 
				306.6,360 306.6,375 296.5,375 296.5,375 286.5,375 286.5,384.8 276.5,384.8 276.5,384.8 266.5,384.8 266.5,394.5 256.4,394.5 
				256.4,404.2 246.4,404.2 236.4,404.2 236.4,414 226.3,414 226.3,423.8 216.3,423.8 216.3,429 206.3,429 206.3,434.2 196.3,434.2 
				196.3,438.8 186.2,438.8 186.2,448.5 176.2,448.5 176.2,448.5 166.2,448.5 166.2,453.8 156.1,453.8 156.1,453.8 146.1,453.8 
				146.1,463.5 156.1,463.5 156.1,463.5 166.2,463.5 176.2,463.5 176.2,463.5 186.2,463.5 196.3,463.5 196.3,463.5 206.3,463.5 
				216.3,463.5 216.3,463.5 226.3,463.5 226.3,463.5 236.4,463.5 246.4,463.5 256.4,463.5 256.4,463.5 266.5,463.5 276.5,463.5 
				276.5,463.5 286.5,463.5 296.5,463.5 296.5,463.5 306.6,463.5 306.6,463.5 316.6,463.5 326.6,463.5 326.6,463.5 336.7,463.5 
				346.7,463.5 346.7,463.5 356.7,463.5 366.7,463.5 366.7,463.5 376.8,463.5 376.8,463.5 386.8,463.5 396.8,463.5 406.9,463.5 
				406.9,463.5 416.9,463.5 426.9,463.5 436.9,463.5 436.9,463.5 447,463.5 447,463.5 457,463.5 467,463.5 477,463.5 477,463.5 
				487.1,463.5 487.1,463.5 497.1,463.5 507.1,463.5 517.2,463.5 527.2,463.5 527.2,463.5 537.2,463.5 547.2,463.5 547.2,463.5 
				557.3,463.5 567.3,463.5 567.3,463.5 577.3,463.5 577.3,463.5 587.4,463.5 587.4,463.5 597.4,463.5 607.4,463.5 617.4,463.5 
				617.4,463.5 627.5,463.5 627.5,463.5 637.5,463.5 637.5,0 			"/>
			<line class="st4" x1="15.8" y1="463.5" x2="637.5" y2="463.5"/>
			<g class="st5">
				<text transform="matrix(1 0 0 1 0.3926 416.3496)" class="st6 st7 st8">10</text>
			</g>
			<g class="st5">
				<text transform="matrix(1 0 0 1 0.3926 367.5996)" class="st6 st7 st8">20</text>
			</g>
			<g class="st5">
				<text transform="matrix(1 0 0 1 0.3926 318.0996)" class="st6 st7 st8">30</text>
			</g>
			<g class="st5">
				<text transform="matrix(1 0 0 1 0.3926 268.5996)" class="st6 st7 st8">40</text>
			</g>
			<g class="st5">
				<text transform="matrix(1 0 0 1 0.3926 219.0996)" class="st6 st7 st8">50</text>
			</g>
			<g class="st5">
				<text transform="matrix(1 0 0 1 0.3926 170.3496)" class="st6 st7 st8">60</text>
			</g>
			<g class="st5">
				<text transform="matrix(1 0 0 1 0.3926 120.8496)" class="st6 st7 st8">70</text>
			</g>
			<g class="st5">
				<text transform="matrix(1 0 0 1 0.3926 71.3496)" class="st6 st7 st8">80</text>
			</g>
			<g class="st5">
				<text transform="matrix(1 0 0 1 0.3926 21.8496)" class="st6 st7 st8">90</text>
			</g>
		</g>
	</g>
</g>
<g>
	<text transform="matrix(1 0 0 1 142.1338 478.001)" class="st9 st7 st8">3/24</text>
</g>
<g>
	<text transform="matrix(1 0 0 1 618.975 478.0012)" class="st9 st7 st8">5/11</text>
</g>
<g>
	<g>
		<path class="st10" d="M480.1,154.5c1.7-11.8,11-21.9,24.5-26.3c9.7-3.1,18.8-2.5,24.4-1.6"/>
		<g>
			<polygon class="st11" points="526.4,128.9 528.1,126.4 527.5,123.5 533.4,127.4 			"/>
		</g>
	</g>
</g>
<text transform="matrix(1 0 0 1 450.5502 158.4844)" class="st12 st13 st14">4/28</text>
<text transform="matrix(1 0 0 1 425.7502 171.6841)" class="st12 st15 st14">Deadliest day</text>
<text transform="matrix(1 0 0 1 440.1501 184.8843)" class="st12 st13 st14">6 deaths</text>
</svg>
