<?xml version="1.0" encoding="utf-8"?>
<!-- Generator: Adobe Illustrator 23.0.1, SVG Export Plug-In . SVG Version: 6.00 Build 0)  -->
<svg version="1.1" id="Layer_1" xmlns="http://www.w3.org/2000/svg" xmlns:xlink="http://www.w3.org/1999/xlink" x="0px" y="0px"
	 viewBox="0 0 637.5 487.5" style="enable-background:new 0 0 637.5 487.5;" xml:space="preserve">
<style type="text/css">
	.st0{clip-path:url(#SVGID_2_);}
	.st1{clip-path:url(#SVGID_4_);fill:none;stroke:#E8E8E8;stroke-width:0.75;stroke-miterlimit:10;}
	.st2{clip-path:url(#SVGID_4_);fill:#C71E1D;}
	.st3{clip-path:url(#SVGID_4_);fill:#C71E1D;fill-opacity:0.6;stroke:#000000;stroke-width:0.5;stroke-miterlimit:10;}
	.st4{clip-path:url(#SVGID_4_);fill:none;stroke:#333333;stroke-width:0.75;stroke-miterlimit:10;}
	.st5{fill:#A6A6A6;}
	.st6{font-family:'Roboto-Regular';}
	.st7{font-size:9px;}
	.st8{fill:none;stroke:#9A0000;stroke-width:0.75;stroke-miterlimit:10;}
	.st9{fill:#9A0000;}
	.st10{fill:#893333;}
	.st11{font-family:'ArialMT';}
	.st12{font-size:11px;}
	.st13{font-family:'Arial-BoldMT';}
	.st14{fill:#333333;}
</style>
<g>
	<defs>
		<rect id="SVGID_1_" width="637.5" height="487.5"/>
	</defs>
	<clipPath id="SVGID_2_">
		<use xlink:href="#SVGID_1_"  style="overflow:visible;"/>
	</clipPath>
	<g class="st0">
		<defs>
			<rect id="SVGID_3_" width="637.5" height="483"/>
		</defs>
		<clipPath id="SVGID_4_">
			<use xlink:href="#SVGID_3_"  style="overflow:visible;"/>
		</clipPath>
		<line class="st1" x1="21" y1="3" x2="637.5" y2="3"/>
		<line class="st1" x1="21" y1="60.8" x2="637.5" y2="60.8"/>
		<line class="st1" x1="21" y1="117.8" x2="637.5" y2="117.8"/>
		<line class="st1" x1="21" y1="175.5" x2="637.5" y2="175.5"/>
		<line class="st1" x1="21" y1="233.2" x2="637.5" y2="233.2"/>
		<line class="st1" x1="21" y1="291" x2="637.5" y2="291"/>
		<line class="st1" x1="21" y1="348" x2="637.5" y2="348"/>
		<line class="st1" x1="21" y1="405.8" x2="637.5" y2="405.8"/>
		<path class="st2" d="M21,463.5h6.8H21z"/>
		<path class="st2" d="M27.8,463.5h6.8H27.8z"/>
		<path class="st2" d="M34.5,463.5h6.8H34.5z"/>
		<path class="st2" d="M41.3,463.5h6.8H41.3z"/>
		<path class="st2" d="M48.1,463.5h6.8H48.1z"/>
		<path class="st2" d="M54.9,463.5h6.8H54.9z"/>
		<path class="st2" d="M61.6,463.5h6.8H61.6z"/>
		<path class="st2" d="M68.4,463.5h6.8H68.4z"/>
		<path class="st2" d="M75.2,463.5H82H75.2z"/>
		<path class="st2" d="M82,463.5h6.8H82z"/>
		<path class="st2" d="M88.7,463.5h6.8H88.7z"/>
		<path class="st2" d="M95.5,463.5h6.8H95.5z"/>
		<path class="st2" d="M102.3,463.5h6.8H102.3z"/>
		<polygon class="st3" points="630.3,0 630.3,17.2 623.5,17.2 623.5,20.2 616.7,20.2 609.9,20.2 609.9,26.2 603.2,26.2 603.2,28.5 
			596.5,28.5 596.5,54.8 589.7,54.8 589.7,72 582.9,72 582.9,80.2 576.2,80.2 569.4,80.2 562.6,80.2 562.6,83.2 555.8,83.2 
			555.8,103.5 549.1,103.5 549.1,117.8 542.3,117.8 542.3,120.8 535.5,120.8 535.5,126.8 528.9,126.8 528.9,129.8 522.1,129.8 
			522.1,132.8 515.4,132.8 515.4,138 508.6,138 508.6,147 501.8,147 501.8,155.2 495,155.2 495,169.5 488.3,169.5 488.3,175.5 
			481.5,175.5 481.5,181.5 474.7,181.5 467.9,181.5 461.2,181.5 454.4,181.5 454.4,184.5 447.7,184.5 447.7,189.8 440.9,189.8 
			440.9,192.8 434.1,192.8 434.1,201.8 427.3,201.8 427.3,204.8 420.6,204.8 420.6,210 413.8,210 407,210 407,213 400.2,213 
			400.2,224.2 393.5,224.2 393.5,233.2 386.7,233.2 386.7,244.5 380,244.5 380,256.5 373.2,256.5 373.2,279 366.4,279 366.4,288 
			359.6,288 359.6,294 352.9,294 352.9,299.2 346.1,299.2 346.1,316.5 339.3,316.5 339.3,319.5 332.5,319.5 332.5,325.5 
			325.8,325.5 325.8,328.5 319,328.5 319,333.8 312.2,333.8 312.2,336.8 305.5,336.8 305.5,339.8 298.8,339.8 298.8,342.8 
			292,342.8 292,351 285.2,351 285.2,354 278.4,354 278.4,357 271.7,357 264.9,357 264.9,365.2 258.1,365.2 258.1,371.2 
			251.3,371.2 251.3,377.2 244.6,377.2 244.6,385.5 237.8,385.5 237.8,391.5 231,391.5 231,394.5 224.2,394.5 224.2,402.8 
			217.5,402.8 217.5,411.8 210.7,411.8 203.9,411.8 203.9,417.8 197.1,417.8 190.4,417.8 190.4,423 183.6,423 183.6,429 176.8,429 
			176.8,429 170,429 170,435 163.3,435 163.3,440.2 156.5,440.2 156.5,443.2 149.7,443.2 149.7,446.2 142.9,446.2 142.9,449.2 
			136.2,449.2 136.2,454.5 129.4,454.5 122.6,454.5 122.6,457.5 115.8,457.5 109.1,457.5 109.1,463.5 115.8,463.5 122.6,463.5 
			129.4,463.5 136.2,463.5 142.9,463.5 149.7,463.5 156.5,463.5 163.3,463.5 170,463.5 176.8,463.5 176.8,463.5 183.6,463.5 
			190.4,463.5 197.1,463.5 203.9,463.5 210.7,463.5 217.5,463.5 224.2,463.5 231,463.5 237.8,463.5 244.6,463.5 244.6,463.5 
			251.3,463.5 251.3,463.5 258.1,463.5 264.9,463.5 271.7,463.5 278.4,463.5 285.2,463.5 292,463.5 298.8,463.5 305.5,463.5 
			312.2,463.5 312.3,463.5 319,463.5 325.8,463.5 332.5,463.5 339.3,463.5 346.1,463.5 352.9,463.5 359.6,463.5 366.4,463.5 
			373.2,463.5 380,463.5 386.7,463.5 386.7,463.5 393.5,463.5 400.2,463.5 407,463.5 413.8,463.5 420.6,463.5 427.3,463.5 
			434.1,463.5 440.9,463.5 447.7,463.5 454.4,463.5 454.4,463.5 461.2,463.5 467.9,463.5 474.7,463.5 481.5,463.5 488.3,463.5 
			495,463.5 501.8,463.5 508.6,463.5 515.4,463.5 522.1,463.5 528.9,463.5 535.5,463.5 535.7,463.5 542.3,463.5 549.1,463.5 
			555.8,463.5 562.6,463.5 569.4,463.5 576.2,463.5 582.9,463.5 589.7,463.5 596.5,463.5 603.2,463.5 603.3,463.5 609.9,463.5 
			616.7,463.5 623.5,463.5 630.3,463.5 637,463.5 637,0 		"/>
		<line class="st4" x1="21" y1="463.5" x2="637.5" y2="463.5"/>
	</g>
	<g class="st0">
		<text transform="matrix(1 0 0 1 5.6426 408.8496)" class="st5 st6 st7">20</text>
	</g>
	<g class="st0">
		<text transform="matrix(1 0 0 1 5.6426 351.0996)" class="st5 st6 st7">40</text>
	</g>
	<g class="st0">
		<text transform="matrix(1 0 0 1 5.6426 294.0996)" class="st5 st6 st7">60</text>
	</g>
	<g class="st0">
		<text transform="matrix(1 0 0 1 5.6426 236.3496)" class="st5 st6 st7">80</text>
	</g>
	<g class="st0">
		<text transform="matrix(1 0 0 1 0.5889 178.5996)" class="st5 st6 st7">100</text>
	</g>
	<g class="st0">
		<text transform="matrix(1 0 0 1 0.5889 120.8496)" class="st5 st6 st7">120</text>
	</g>
	<g class="st0">
		<text transform="matrix(1 0 0 1 0.5889 63.8496)" class="st5 st6 st7">140</text>
	</g>
	<g class="st0">
		<text transform="matrix(1 0 0 1 0.5889 6.0996)" class="st5 st6 st7">160</text>
	</g>
</g>
<g>
	<g>
		<path class="st8" d="M542.3,60.2c1.7-11.8,11-21.9,24.5-26.3c9.7-3.1,18.8-2.5,24.4-1.6"/>
		<g>
			<polygon class="st9" points="588.6,34.6 590.3,32.1 589.7,29.2 595.6,33.1 			"/>
		</g>
	</g>
</g>
<text transform="matrix(1 0 0 1 514.8392 64.1632)" class="st10 st11 st12">6/4</text>
<text transform="matrix(1 0 0 1 487.919 77.3629)" class="st10 st13 st12">Deadliest day</text>
<text transform="matrix(1 0 0 1 502.3189 90.5631)" class="st10 st11 st12">9 deaths</text>
<g>
	<text transform="matrix(1 0 0 1 622.8189 477.7679)" class="st14 st6 st7">6/9</text>
</g>
<g>
	<text transform="matrix(1 0 0 1 103.8636 477.7681)" class="st14 st6 st7">3/24</text>
</g>
</svg>
