<?xml version="1.0" encoding="utf-8"?>
<!-- Generator: Adobe Illustrator 23.0.1, SVG Export Plug-In . SVG Version: 6.00 Build 0)  -->
<svg version="1.1" id="Layer_1" xmlns="http://www.w3.org/2000/svg" xmlns:xlink="http://www.w3.org/1999/xlink" x="0px" y="0px"
	 viewBox="0 0 637.5 487.5" style="enable-background:new 0 0 637.5 487.5;" xml:space="preserve">
<style type="text/css">
	.st0{clip-path:url(#SVGID_2_);enable-background:new    ;}
	.st1{clip-path:url(#SVGID_4_);fill:none;stroke:#E8E8E8;stroke-width:0.75;stroke-miterlimit:10;}
	.st2{clip-path:url(#SVGID_4_);fill:#C71E1D;}
	.st3{clip-path:url(#SVGID_4_);fill:#C71E1D;fill-opacity:0.6;stroke:#000000;stroke-width:0.5;stroke-miterlimit:10;}
	.st4{clip-path:url(#SVGID_4_);fill:none;stroke:#333333;stroke-width:0.75;stroke-miterlimit:10;}
	.st5{clip-path:url(#SVGID_4_);}
	.st6{fill:#A6A6A6;}
	.st7{font-family:'Roboto-Regular';}
	.st8{font-size:9px;}
	.st9{fill:none;stroke:#9A0000;stroke-width:0.75;stroke-miterlimit:10;}
	.st10{fill:#9A0000;}
	.st11{fill:#893333;}
	.st12{font-family:'ArialMT';}
	.st13{font-size:11px;}
	.st14{font-family:'Arial-BoldMT';}
	.st15{fill:#333333;}
</style>
<g>
	<defs>
		<rect id="SVGID_1_" width="637.5" height="487.5"/>
	</defs>
	<clipPath id="SVGID_2_">
		<use xlink:href="#SVGID_1_"  style="overflow:visible;"/>
	</clipPath>
	<g class="st0">
		<g>
			<defs>
				<rect id="SVGID_3_" width="637.5" height="487.5"/>
			</defs>
			<clipPath id="SVGID_4_">
				<use xlink:href="#SVGID_3_"  style="overflow:visible;"/>
			</clipPath>
			<line class="st1" x1="15.8" y1="42" x2="637.5" y2="42"/>
			<line class="st1" x1="15.8" y1="94.5" x2="637.5" y2="94.5"/>
			<line class="st1" x1="15.8" y1="147.8" x2="637.5" y2="147.8"/>
			<line class="st1" x1="15.8" y1="200.2" x2="637.5" y2="200.2"/>
			<line class="st1" x1="15.8" y1="252.8" x2="637.5" y2="252.8"/>
			<line class="st1" x1="15.8" y1="305.2" x2="637.5" y2="305.2"/>
			<line class="st1" x1="15.8" y1="358.5" x2="637.5" y2="358.5"/>
			<line class="st1" x1="15.8" y1="411" x2="637.5" y2="411"/>
			<path class="st2" d="M15.8,463.5h10.7H15.8z"/>
			<path class="st2" d="M26.5,463.5h10.7H26.5z"/>
			<path class="st2" d="M37.2,463.5h10.7H37.2z"/>
			<path class="st2" d="M47.9,463.5h10.7H47.9z"/>
			<path class="st2" d="M58.6,463.5h10.7H58.6z"/>
			<path class="st2" d="M69.3,463.5h10.7H69.3z"/>
			<path class="st2" d="M80.1,463.5h10.7H80.1z"/>
			<path class="st2" d="M90.8,463.5h10.7H90.8z"/>
			<path class="st2" d="M101.5,463.5h10.7H101.5z"/>
			<path class="st2" d="M112.2,463.5h10.7H112.2z"/>
			<path class="st2" d="M122.9,463.5h10.7H122.9z"/>
			<path class="st2" d="M133.7,463.5h10.7H133.7z"/>
			<path class="st2" d="M144.4,463.5h10.7H144.4z"/>
			<polygon class="st3" points="626.5,0 626.5,5.2 615.8,5.2 615.8,26.2 605.1,26.2 605.1,42 594.4,42 594.4,63 583.7,63 583.7,84 
				572.9,84 572.9,126.8 562.2,126.8 562.2,142.5 551.5,142.5 551.5,153 540.8,153 540.8,163.5 530.1,163.5 530.1,195 519.3,195 
				519.3,200.2 508.6,200.2 508.6,210.8 498,210.8 498,216 487.3,216 487.3,226.5 476.6,226.5 476.6,231.8 465.8,231.8 465.8,237 
				455.2,237 455.2,242.2 444.5,242.2 444.5,258 433.7,258 433.7,263.2 423,263.2 423,268.5 412.4,268.5 412.3,268.5 401.6,268.5 
				401.6,284.2 391,284.2 391,294.8 380.2,294.8 380.2,305.2 369.5,305.2 369.5,321 358.8,321 358.8,331.5 348.1,331.5 348.1,336.8 
				337.4,336.8 337.4,353.2 326.7,353.2 326.7,369 316,369 316,369 305.3,369 305.3,379.5 294.6,379.5 283.9,379.5 283.9,390 
				273.2,390 273.2,400.5 262.5,400.5 262.4,400.5 251.8,400.5 251.8,411 241.2,411 241.2,421.5 230.4,421.5 230.4,426.8 
				219.7,426.8 219.7,432 209.1,432 209.1,437.2 198.4,437.2 198.4,447.8 187.8,447.8 187.7,447.8 177.1,447.8 177.1,453 166.3,453 
				155.6,453 155.6,463.5 166.3,463.5 177.1,463.5 187.7,463.5 187.8,463.5 198.4,463.5 209.1,463.5 219.7,463.5 219.8,463.5 
				230.4,463.5 241.2,463.5 251.8,463.5 251.9,463.5 262.4,463.5 262.5,463.5 273.2,463.5 283.9,463.5 294.6,463.5 305.3,463.5 
				316,463.5 316,463.5 326.7,463.5 337.4,463.5 348.1,463.5 348.1,463.5 358.8,463.5 369.5,463.5 380.2,463.5 391,463.5 
				401.6,463.5 401.7,463.5 412.3,463.5 412.4,463.5 423,463.5 433.7,463.5 444.5,463.5 455.2,463.5 465.8,463.5 465.9,463.5 
				476.6,463.5 487.3,463.5 498,463.5 508.6,463.5 508.7,463.5 519.3,463.5 530.1,463.5 530.1,463.5 540.8,463.5 551.5,463.5 
				562.2,463.5 572.9,463.5 572.9,463.5 583.7,463.5 594.4,463.5 594.4,463.5 605.1,463.5 615.8,463.5 626.5,463.5 637.3,463.5 
				637.3,0 			"/>
			<line class="st4" x1="15.8" y1="463.5" x2="637.5" y2="463.5"/>
			<g class="st5">
				<text transform="matrix(1 0 0 1 0.3926 413.3496)" class="st6 st7 st8">10</text>
			</g>
			<g class="st5">
				<text transform="matrix(1 0 0 1 0.3926 360.8496)" class="st6 st7 st8">20</text>
			</g>
			<g class="st5">
				<text transform="matrix(1 0 0 1 0.3926 307.5996)" class="st6 st7 st8">30</text>
			</g>
			<g class="st5">
				<text transform="matrix(1 0 0 1 0.3926 255.0996)" class="st6 st7 st8">40</text>
			</g>
			<g class="st5">
				<text transform="matrix(1 0 0 1 0.3926 202.5996)" class="st6 st7 st8">50</text>
			</g>
			<g class="st5">
				<text transform="matrix(1 0 0 1 0.3926 150.0996)" class="st6 st7 st8">60</text>
			</g>
			<g class="st5">
				<text transform="matrix(1 0 0 1 0.3926 96.8496)" class="st6 st7 st8">70</text>
			</g>
			<g class="st5">
				<text transform="matrix(1 0 0 1 0.3926 44.3496)" class="st6 st7 st8">80</text>
			</g>
		</g>
	</g>
</g>
<g>
	<g>
		<path class="st9" d="M515.6,134.3c1.7-11.8,11-21.9,24.5-26.3c9.7-3.1,18.8-2.5,24.4-1.6"/>
		<g>
			<polygon class="st10" points="561.9,108.7 563.6,106.2 563,103.3 568.9,107.2 			"/>
		</g>
	</g>
</g>
<text transform="matrix(1 0 0 1 486.0931 138.266)" class="st11 st12 st13">4/28</text>
<text transform="matrix(1 0 0 1 461.2932 151.4659)" class="st11 st14 st13">Deadliest day</text>
<text transform="matrix(1 0 0 1 475.6931 164.6659)" class="st11 st12 st13">6 deaths</text>
<g>
	<text transform="matrix(1 0 0 1 150.4035 479.2966)" class="st15 st7 st8">3/24</text>
</g>
<text transform="matrix(1 0 0 1 622.7652 478.7094)" class="st15 st7 st8">5/7</text>
</svg>
