<?xml version="1.0" encoding="utf-8"?>
<!-- Generator: Adobe Illustrator 23.0.1, SVG Export Plug-In . SVG Version: 6.00 Build 0)  -->
<svg version="1.1" id="Layer_1" xmlns="http://www.w3.org/2000/svg" xmlns:xlink="http://www.w3.org/1999/xlink" x="0px" y="0px"
	 viewBox="0 0 637.5 487.5" style="enable-background:new 0 0 637.5 487.5;" xml:space="preserve">
<style type="text/css">
	.st0{clip-path:url(#SVGID_2_);}
	.st1{clip-path:url(#SVGID_4_);fill:none;stroke:#E8E8E8;stroke-width:0.75;stroke-miterlimit:10;}
	.st2{clip-path:url(#SVGID_4_);fill:#C71E1D;}
	.st3{clip-path:url(#SVGID_4_);fill:#C71E1D;fill-opacity:0.6;stroke:#000000;stroke-width:0.5;stroke-miterlimit:10;}
	.st4{clip-path:url(#SVGID_4_);fill:none;stroke:#333333;stroke-width:0.75;stroke-miterlimit:10;}
	.st5{fill:#A6A6A6;}
	.st6{font-family:'Roboto-Regular';}
	.st7{font-size:9px;}
	.st8{fill:none;stroke:#9A0000;stroke-width:0.75;stroke-miterlimit:10;}
	.st9{fill:#9A0000;}
	.st10{fill:#893333;}
	.st11{font-family:'ArialMT';}
	.st12{font-size:11px;}
	.st13{font-family:'Arial-BoldMT';}
	.st14{fill:#333333;}
</style>
<g>
	<defs>
		<rect id="SVGID_1_" width="637.5" height="487.5"/>
	</defs>
	<clipPath id="SVGID_2_">
		<use xlink:href="#SVGID_1_"  style="overflow:visible;"/>
	</clipPath>
	<g class="st0">
		<defs>
			<rect id="SVGID_3_" width="637.5" height="483"/>
		</defs>
		<clipPath id="SVGID_4_">
			<use xlink:href="#SVGID_3_"  style="overflow:visible;"/>
		</clipPath>
		<line class="st1" x1="21" y1="36.8" x2="637.5" y2="36.8"/>
		<line class="st1" x1="21" y1="97.5" x2="637.5" y2="97.5"/>
		<line class="st1" x1="21" y1="158.2" x2="637.5" y2="158.2"/>
		<line class="st1" x1="21" y1="219.8" x2="637.5" y2="219.8"/>
		<line class="st1" x1="21" y1="280.5" x2="637.5" y2="280.5"/>
		<line class="st1" x1="21" y1="341.2" x2="637.5" y2="341.2"/>
		<line class="st1" x1="21" y1="402.8" x2="637.5" y2="402.8"/>
		<path class="st2" d="M21,463.5h7.1H21z"/>
		<path class="st2" d="M28.1,463.5h7.1H28.1z"/>
		<path class="st2" d="M35.2,463.5h7.1H35.2z"/>
		<path class="st2" d="M42.3,463.5h7.1H42.3z"/>
		<path class="st2" d="M49.3,463.5h7.1H49.3z"/>
		<path class="st2" d="M56.4,463.5h7.1H56.4z"/>
		<path class="st2" d="M63.5,463.5h7.1H63.5z"/>
		<path class="st2" d="M70.6,463.5h7.1H70.6z"/>
		<path class="st2" d="M77.7,463.5h7.1H77.7z"/>
		<path class="st2" d="M84.8,463.5h7.1H84.8z"/>
		<path class="st2" d="M91.9,463.5h7.1H91.9z"/>
		<path class="st2" d="M98.9,463.5h7.1H98.9z"/>
		<path class="st2" d="M106,463.5h7.1H106z"/>
		<polygon class="st3" points="629.4,0 629.4,3 622.5,3 622.5,30.8 615.4,30.8 615.4,48.9 608.5,48.9 608.5,57.9 601.4,57.9 
			594.4,57.9 594.4,57.9 587.3,57.9 587.3,60.9 580.2,60.9 580.2,82.5 573.2,82.5 573.2,97.5 566.1,97.5 566.1,100.5 559.2,100.5 
			559.2,106.5 552.1,106.5 552.1,109.5 545,109.5 545,112.5 538,112.5 538,119.2 531,119.2 531,128.2 524.1,128.2 524.1,137.2 
			517,137.2 517,152.2 509.9,152.2 509.9,158.2 502.9,158.2 502.9,165 495.8,165 488.7,165 481.6,165 474.5,165 474.5,168 
			467.4,168 467.4,174 460.3,174 460.3,177 453.3,177 453.3,186 446.2,186 446.2,189 439.1,189 439.1,195 432,195 424.9,195 
			424.9,198 417.8,198 417.8,210.8 410.7,210.8 410.7,219.8 403.7,219.8 403.7,231.8 396.6,231.8 396.6,243.8 389.5,243.8 
			389.5,268.5 382.4,268.5 382.4,277.5 375.3,277.5 375.3,283.5 368.2,283.5 368.2,289.5 361.1,289.5 361.1,308.2 354.1,308.2 
			354.1,311.2 347,311.2 347,317.2 339.9,317.2 339.9,320.2 332.8,320.2 332.8,326.2 325.7,326.2 325.7,329.2 318.6,329.2 
			318.6,332.2 311.5,332.2 311.5,335.2 304.4,335.2 304.4,344.2 297.4,344.2 297.4,347.2 290.3,347.2 290.3,351 283.2,351 
			276.1,351 276.1,360 269,360 269,366 261.9,366 261.9,372 254.8,372 254.8,381 247.8,381 247.8,387 240.7,387 240.7,390 
			233.6,390 233.6,399.8 226.5,399.8 226.5,408.8 219.4,408.8 212.3,408.8 212.3,414.8 205.2,414.8 198.2,414.8 198.2,420.8 
			191.1,420.8 191.1,426.8 184,426.8 176.9,426.8 176.9,432.8 169.8,432.8 169.8,438.8 162.7,438.8 162.7,442.5 155.6,442.5 
			155.6,445.5 148.6,445.5 148.6,448.5 141.5,448.5 141.5,454.5 134.4,454.5 127.3,454.5 127.3,457.5 120.2,457.5 113.1,457.5 
			113.1,463.5 120.2,463.5 127.3,463.5 134.4,463.5 141.5,463.5 148.6,463.5 155.6,463.5 162.7,463.5 169.8,463.5 176.9,463.5 
			184,463.5 191.1,463.5 198.2,463.5 198.2,463.5 205.2,463.5 212.3,463.5 219.4,463.5 226.5,463.5 233.6,463.5 240.7,463.5 
			247.8,463.5 254.8,463.5 261.9,463.5 269,463.5 276.1,463.5 283.2,463.5 290.3,463.5 297.4,463.5 304.4,463.5 311.5,463.5 
			318.6,463.5 325.7,463.5 332.8,463.5 332.8,463.5 339.9,463.5 347,463.5 354.1,463.5 361.1,463.5 368.2,463.5 375.3,463.5 
			382.4,463.5 389.5,463.5 396.6,463.5 403.7,463.5 410.7,463.5 417.8,463.5 417.8,463.5 424.9,463.5 432,463.5 439.1,463.5 
			446.2,463.5 453.3,463.5 453.3,463.5 460.3,463.5 467.4,463.5 474.5,463.5 481.6,463.5 488.7,463.5 495.8,463.5 502.9,463.5 
			509.9,463.5 517,463.5 524.1,463.5 531,463.5 531.2,463.5 538,463.5 545,463.5 545.1,463.5 552.1,463.5 559.2,463.5 566.1,463.5 
			566.3,463.5 573.2,463.5 580.2,463.5 580.2,463.6 587.3,463.6 594.3,463.6 594.3,463.6 601.4,463.6 608.5,463.6 615.5,463.6 
			615.5,463.5 622.5,463.5 629.4,463.5 629.6,463.5 636.5,463.5 636.5,0 		"/>
		<line class="st4" x1="21" y1="463.5" x2="637.5" y2="463.5"/>
	</g>
	<g class="st0">
		<text transform="matrix(1 0 0 1 5.6426 405.8496)" class="st5 st6 st7">20</text>
	</g>
	<g class="st0">
		<text transform="matrix(1 0 0 1 5.6426 344.3496)" class="st5 st6 st7">40</text>
	</g>
	<g class="st0">
		<text transform="matrix(1 0 0 1 5.6426 283.5996)" class="st5 st6 st7">60</text>
	</g>
	<g class="st0">
		<text transform="matrix(1 0 0 1 5.6426 222.8496)" class="st5 st6 st7">80</text>
	</g>
	<g class="st0">
		<text transform="matrix(1 0 0 1 0.5889 161.3496)" class="st5 st6 st7">100</text>
	</g>
	<g class="st0">
		<text transform="matrix(1 0 0 1 0.5889 100.5996)" class="st5 st6 st7">120</text>
	</g>
	<g class="st0">
		<text transform="matrix(1 0 0 1 0.5889 39.8496)" class="st5 st6 st7">140</text>
	</g>
</g>
<g>
	<g>
		<path class="st8" d="M567.4,35.7c1.7-11.8,11-21.9,24.5-26.3c9.7-3.1,18.8-2.5,24.4-1.6"/>
		<g>
			<polygon class="st9" points="613.7,10.1 615.4,7.6 614.8,4.7 620.7,8.6 			"/>
		</g>
	</g>
</g>
<text transform="matrix(1 0 0 1 537.8538 39.6903)" class="st10 st11 st12">6/4</text>
<text transform="matrix(1 0 0 1 513.0537 52.89)" class="st10 st13 st12">Deadliest day</text>
<text transform="matrix(1 0 0 1 527.4536 66.0902)" class="st10 st11 st12">9 deaths</text>
<g>
	<text transform="matrix(1 0 0 1 622.6923 479.631)" class="st14 st6 st7">6/5</text>
</g>
<g>
	<text transform="matrix(1 0 0 1 108.7504 479.6313)" class="st14 st6 st7">3/24</text>
</g>
</svg>
