<?xml version="1.0" encoding="utf-8"?>
<!-- Generator: Adobe Illustrator 23.0.1, SVG Export Plug-In . SVG Version: 6.00 Build 0)  -->
<svg version="1.1" id="Layer_1" xmlns="http://www.w3.org/2000/svg" xmlns:xlink="http://www.w3.org/1999/xlink" x="0px" y="0px"
	 viewBox="0 0 637.5 487.5" style="enable-background:new 0 0 637.5 487.5;" xml:space="preserve">
<style type="text/css">
	.st0{clip-path:url(#SVGID_2_);}
	.st1{clip-path:url(#SVGID_4_);fill:none;stroke:#E8E8E8;stroke-width:0.75;stroke-miterlimit:10;}
	.st2{clip-path:url(#SVGID_4_);fill:#C71E1D;}
	.st3{clip-path:url(#SVGID_4_);fill:#C71E1D;fill-opacity:0.6;stroke:#000000;stroke-width:0.5;stroke-miterlimit:10;}
	.st4{clip-path:url(#SVGID_4_);fill:none;stroke:#333333;stroke-width:0.75;stroke-miterlimit:10;}
	.st5{fill:#A6A6A6;}
	.st6{font-family:'Roboto-Regular';}
	.st7{font-size:9px;}
	.st8{fill:none;stroke:#9A0000;stroke-width:0.75;stroke-miterlimit:10;}
	.st9{fill:#9A0000;}
	.st10{fill:#893333;}
	.st11{font-family:'ArialMT';}
	.st12{font-size:11px;}
	.st13{font-family:'Arial-BoldMT';}
	.st14{fill:#333333;}
</style>
<g>
	<defs>
		<rect id="SVGID_1_" width="637.5" height="487.5"/>
	</defs>
	<clipPath id="SVGID_2_">
		<use xlink:href="#SVGID_1_"  style="overflow:visible;"/>
	</clipPath>
	<g class="st0">
		<defs>
			<rect id="SVGID_3_" width="637.5" height="483"/>
		</defs>
		<clipPath id="SVGID_4_">
			<use xlink:href="#SVGID_3_"  style="overflow:visible;"/>
		</clipPath>
		<line class="st1" x1="21" y1="18.8" x2="637.5" y2="18.8"/>
		<line class="st1" x1="21" y1="93" x2="637.5" y2="93"/>
		<line class="st1" x1="21" y1="166.5" x2="637.5" y2="166.5"/>
		<line class="st1" x1="21" y1="240.8" x2="637.5" y2="240.8"/>
		<line class="st1" x1="21" y1="315" x2="637.5" y2="315"/>
		<line class="st1" x1="21" y1="389.2" x2="637.5" y2="389.2"/>
		<path class="st2" d="M21,463.5h7.8H21z"/>
		<path class="st2" d="M28.8,463.5h7.8H28.8z"/>
		<path class="st2" d="M36.6,463.5h7.8H36.6z"/>
		<path class="st2" d="M44.4,463.5h7.8H44.4z"/>
		<path class="st2" d="M52.2,463.5H60H52.2z"/>
		<path class="st2" d="M60,463.5h7.8H60z"/>
		<path class="st2" d="M67.8,463.5h7.8H67.8z"/>
		<path class="st2" d="M75.6,463.5h7.8H75.6z"/>
		<path class="st2" d="M83.4,463.5h7.8H83.4z"/>
		<path class="st2" d="M91.2,463.5H99H91.2z"/>
		<path class="st2" d="M99,463.5h7.8H99z"/>
		<path class="st2" d="M106.8,463.5h7.8H106.8z"/>
		<path class="st2" d="M114.6,463.5h7.8H114.6z"/>
		<polygon class="st3" points="629.7,0 629.7,18.8 621.9,18.8 621.9,22.5 614.1,22.5 614.1,30 606.3,30 606.3,33 598.5,33 
			598.5,36.8 590.7,36.8 590.7,44.2 582.9,44.2 582.9,55.5 575.1,55.5 575.1,66.8 567.3,66.8 567.3,85.5 559.5,85.5 559.5,93 
			551.7,93 551.7,99.8 543.9,99.8 543.9,99.8 536.1,99.8 528.2,99.8 528.2,99.8 520.4,99.8 520.4,103.5 512.6,103.5 512.6,111 
			504.8,111 504.8,114.8 497,114.8 497,126 489.2,126 489.2,129.8 481.4,129.8 481.4,137.2 473.6,137.2 473.6,137.2 465.8,137.2 
			465.8,141 458,141 458,156 450.2,156 450.2,166.5 442.4,166.5 442.4,181.5 434.6,181.5 434.6,196.5 426.8,196.5 426.8,226.5 
			419,226.5 419,237 411.2,237 411.2,244.5 403.4,244.5 403.4,252 395.6,252 395.6,274.5 387.8,274.5 387.8,278.2 380,278.2 
			380,285.8 372.2,285.8 372.2,289.5 364.4,289.5 364.4,297 356.6,297 356.6,300 348.8,300 348.8,303.8 341,303.8 341,307.5 
			333.2,307.5 333.2,318.8 325.3,318.8 325.3,322.5 317.5,322.5 317.5,326.2 309.7,326.2 301.9,326.2 301.9,337.5 294.1,337.5 
			294.1,345 286.3,345 286.3,352.5 278.5,352.5 278.5,363.8 270.7,363.8 270.7,370.5 262.9,370.5 262.9,374.2 255.1,374.2 
			255.1,385.5 247.3,385.5 247.3,396.8 239.5,396.8 231.7,396.8 231.7,404.2 223.9,404.2 216.1,404.2 216.1,411.8 208.3,411.8 
			208.3,419.2 200.5,419.2 192.7,419.2 192.7,426.8 184.9,426.8 184.9,433.5 177.1,433.5 177.1,437.2 169.3,437.2 169.3,441 
			161.5,441 161.5,444.8 153.7,444.8 153.7,452.2 145.9,452.2 138.1,452.2 138.1,456 130.3,456 122.4,456 122.4,463.5 130.3,463.5 
			138.1,463.5 138.1,463.5 145.9,463.5 153.7,463.5 153.7,463.5 161.5,463.5 169.3,463.5 177.1,463.5 177.1,463.5 184.9,463.5 
			192.7,463.5 192.7,463.5 200.5,463.5 208.3,463.5 216.1,463.5 223.9,463.5 231.7,463.5 231.7,463.5 239.5,463.5 247.3,463.5 
			247.3,463.5 255.1,463.5 262.9,463.5 262.9,463.5 270.7,463.5 278.5,463.5 278.5,463.5 286.3,463.5 286.3,463.5 294.1,463.5 
			301.9,463.5 301.9,463.5 309.7,463.5 317.5,463.5 317.5,463.5 325.3,463.5 333.2,463.5 333.2,463.5 341,463.5 341,463.5 
			348.8,463.5 356.6,463.5 356.6,463.5 364.4,463.5 372.2,463.5 372.2,463.5 380,463.5 380,463.5 387.8,463.5 395.6,463.5 
			395.6,463.5 403.4,463.5 411.2,463.5 411.2,463.5 419,463.5 426.8,463.5 426.8,463.5 434.6,463.5 434.6,463.5 442.4,463.5 
			450.2,463.5 450.2,463.5 458,463.5 465.8,463.5 465.8,463.5 473.6,463.5 473.6,463.5 481.4,463.5 489.2,463.5 489.2,463.5 
			497,463.5 504.8,463.5 504.8,463.5 512.6,463.5 512.6,463.5 520.4,463.5 528.2,463.5 528.2,463.5 536.1,463.5 543.9,463.5 
			543.9,463.5 551.7,463.5 551.7,463.5 559.5,463.5 567.3,463.5 567.3,463.5 575.1,463.5 582.9,463.5 582.9,463.5 590.7,463.5 
			590.7,463.5 598.5,463.5 606.3,463.5 606.3,463.5 614.1,463.5 621.9,463.5 621.9,463.5 629.7,463.5 637.5,463.5 637.5,0 		"/>
		<line class="st4" x1="21" y1="463.5" x2="637.5" y2="463.5"/>
	</g>
	<g class="st0">
		<text transform="matrix(1 0 0 1 5.2559 391.5996)" class="st5 st6 st7">20</text>
	</g>
	<g class="st0">
		<text transform="matrix(1 0 0 1 5.2559 317.3496)" class="st5 st6 st7">40</text>
	</g>
	<g class="st0">
		<text transform="matrix(1 0 0 1 5.2559 243.0996)" class="st5 st6 st7">60</text>
	</g>
	<g class="st0">
		<text transform="matrix(1 0 0 1 5.2559 168.8496)" class="st5 st6 st7">80</text>
	</g>
	<g class="st0">
		<text transform="matrix(1 0 0 1 2.929688e-03 95.3496)" class="st5 st6 st7">100</text>
	</g>
	<g class="st0">
		<text transform="matrix(1 0 0 1 2.929688e-03 21.0996)" class="st5 st6 st7">120</text>
	</g>
</g>
<g>
	<g>
		<path class="st8" d="M371.1,236.5c1.7-11.8,11-21.9,24.5-26.3c9.7-3.1,18.8-2.5,24.4-1.6"/>
		<g>
			<polygon class="st9" points="417.4,210.9 419.1,208.4 418.5,205.5 424.4,209.4 			"/>
		</g>
	</g>
</g>
<text transform="matrix(1 0 0 1 341.5944 240.5205)" class="st10 st11 st12">4/28</text>
<text transform="matrix(1 0 0 1 316.7944 253.7202)" class="st10 st13 st12">Deadliest day</text>
<text transform="matrix(1 0 0 1 331.1943 266.9204)" class="st10 st11 st12">6 deaths</text>
<g>
	<text transform="matrix(1 0 0 1 618.292 478.5)" class="st14 st6 st7">5/28</text>
</g>
<g>
	<text transform="matrix(1 0 0 1 118.9998 478.5)" class="st14 st6 st7">3/24</text>
</g>
</svg>
