<?xml version="1.0" encoding="utf-8"?>
<!-- Generator: Adobe Illustrator 23.0.1, SVG Export Plug-In . SVG Version: 6.00 Build 0)  -->
<svg version="1.1" id="Layer_1" xmlns="http://www.w3.org/2000/svg" xmlns:xlink="http://www.w3.org/1999/xlink" x="0px" y="0px"
	 viewBox="0 0 637.5 487.5" style="enable-background:new 0 0 637.5 487.5;" xml:space="preserve">
<style type="text/css">
	.st0{clip-path:url(#SVGID_2_);enable-background:new    ;}
	.st1{clip-path:url(#SVGID_4_);fill:none;stroke:#E8E8E8;stroke-width:0.75;stroke-miterlimit:10;}
	.st2{clip-path:url(#SVGID_4_);fill:#C71E1D;}
	.st3{clip-path:url(#SVGID_4_);fill:#C71E1D;fill-opacity:0.6;stroke:#000000;stroke-width:0.5;stroke-miterlimit:10;}
	.st4{clip-path:url(#SVGID_4_);fill:none;stroke:#333333;stroke-width:0.75;stroke-miterlimit:10;}
	.st5{clip-path:url(#SVGID_4_);}
	.st6{fill:#A6A6A6;}
	.st7{font-family:'Roboto-Regular';}
	.st8{font-size:9px;}
	.st9{fill:#333333;}
</style>
<g>
	<defs>
		<rect id="SVGID_1_" width="637.5" height="487.5"/>
	</defs>
	<clipPath id="SVGID_2_">
		<use xlink:href="#SVGID_1_"  style="overflow:visible;"/>
	</clipPath>
	<g class="st0">
		<g>
			<defs>
				<rect id="SVGID_3_" width="637.5" height="487.5"/>
			</defs>
			<clipPath id="SVGID_4_">
				<use xlink:href="#SVGID_3_"  style="overflow:visible;"/>
			</clipPath>
			<line class="st1" x1="15.8" y1="32.2" x2="637.5" y2="32.2"/>
			<line class="st1" x1="15.8" y1="86.2" x2="637.5" y2="86.2"/>
			<line class="st1" x1="15.8" y1="139.5" x2="637.5" y2="139.5"/>
			<line class="st1" x1="15.8" y1="193.5" x2="637.5" y2="193.5"/>
			<line class="st1" x1="15.8" y1="247.5" x2="637.5" y2="247.5"/>
			<line class="st1" x1="15.8" y1="301.5" x2="637.5" y2="301.5"/>
			<line class="st1" x1="15.8" y1="355.5" x2="637.5" y2="355.5"/>
			<line class="st1" x1="15.8" y1="409.5" x2="637.5" y2="409.5"/>
			<path class="st2" d="M15.8,463.5h11.1H15.8z"/>
			<path class="st2" d="M26.9,463.5H38H26.9z"/>
			<path class="st2" d="M38,463.5h11.1H38z"/>
			<path class="st2" d="M49.1,463.5h11.1H49.1z"/>
			<path class="st2" d="M60.2,463.5h11.1H60.2z"/>
			<path class="st2" d="M71.3,463.5h11.1H71.3z"/>
			<path class="st2" d="M82.4,463.5h11.1H82.4z"/>
			<path class="st2" d="M93.5,463.5h11.1H93.5z"/>
			<path class="st2" d="M104.6,463.5h11.1H104.6z"/>
			<path class="st2" d="M115.7,463.5h11.1H115.7z"/>
			<path class="st2" d="M126.8,463.5h11.1H126.8z"/>
			<path class="st2" d="M137.9,463.5H149H137.9z"/>
			<path class="st2" d="M149,463.5h11.1H149z"/>
			<polygon class="st3" points="626.1,15.8 626.1,32.2 615,32.2 615,53.2 603.9,53.2 603.9,75 592.8,75 592.8,118.5 581.7,118.5 
				581.7,134.2 570.6,134.2 570.6,145.5 559.5,145.5 559.5,156 548.4,156 548.4,188.2 537.3,188.2 537.3,193.5 526.2,193.5 
				526.2,204.8 515.1,204.8 515.1,210 504,210 504,220.5 492.9,220.5 492.9,226.5 481.8,226.5 481.8,231.8 470.7,231.8 470.7,237 
				459.6,237 459.6,252.8 448.5,252.8 448.5,258.8 437.5,258.8 437.5,264 426.3,264 415.2,264 415.2,279.8 404.1,279.8 404.1,291 
				393,291 393,301.5 381.9,301.5 381.9,318 370.8,318 370.8,328.5 359.9,328.5 359.9,333.8 348.8,333.8 348.8,350.2 337.7,350.2 
				337.7,366.8 326.6,366.8 326.6,366.8 315.5,366.8 315.5,377.2 304.4,377.2 293.3,377.2 293.3,387.8 282.2,387.8 282.2,399 
				271.1,399 260,399 260,409.5 248.9,409.5 248.9,420 237.8,420 237.8,426 226.7,426 226.7,431.2 215.6,431.2 215.6,436.5 
				204.5,436.5 204.5,447 193.4,447 182.3,447 182.3,453 171.2,453 171.2,453 160.1,453 160.1,463.5 171.2,463.5 171.2,463.5 
				182.3,463.5 182.3,463.5 193.4,463.5 204.5,463.5 215.6,463.5 215.6,463.5 226.7,463.5 237.8,463.5 248.9,463.5 248.9,463.5 
				260,463.5 260,463.5 271.1,463.5 282.2,463.5 293.3,463.5 293.3,463.5 304.4,463.5 315.5,463.5 326.6,463.5 326.6,463.5 
				337.7,463.5 337.7,463.5 348.8,463.5 359.9,463.5 370.8,463.5 371,463.5 381.9,463.5 393,463.5 404.1,463.5 415.2,463.5 
				426.3,463.5 437.5,463.5 448.5,463.5 448.6,463.5 459.6,463.5 470.7,463.5 481.8,463.5 492.9,463.5 504,463.5 515.1,463.5 
				526.2,463.5 526.2,463.5 537.3,463.5 548.4,463.5 548.4,463.5 559.5,463.5 570.6,463.5 581.7,463.5 581.7,463.5 592.8,463.5 
				603.9,463.5 603.9,463.5 615,463.5 626.1,463.5 626.1,463.5 637.2,463.5 637.2,15.8 			"/>
			<line class="st4" x1="15.8" y1="463.5" x2="637.5" y2="463.5"/>
			<g class="st5">
				<text transform="matrix(1 0 0 1 0.3926 411.8496)" class="st6 st7 st8">10</text>
			</g>
			<g class="st5">
				<text transform="matrix(1 0 0 1 0.3926 357.8496)" class="st6 st7 st8">20</text>
			</g>
			<g class="st5">
				<text transform="matrix(1 0 0 1 0.3926 303.8496)" class="st6 st7 st8">30</text>
			</g>
			<g class="st5">
				<text transform="matrix(1 0 0 1 0.3926 249.8496)" class="st6 st7 st8">40</text>
			</g>
			<g class="st5">
				<text transform="matrix(1 0 0 1 0.3926 195.8496)" class="st6 st7 st8">50</text>
			</g>
			<g class="st5">
				<text transform="matrix(1 0 0 1 0.3926 141.8496)" class="st6 st7 st8">60</text>
			</g>
			<g class="st5">
				<text transform="matrix(1 0 0 1 0.3926 88.5996)" class="st6 st7 st8">70</text>
			</g>
			<g class="st5">
				<text transform="matrix(1 0 0 1 0.3926 34.5996)" class="st6 st7 st8">80</text>
			</g>
			<g class="st5">
				<text transform="matrix(1 0 0 1 154.124 479.3496)" class="st9 st7 st8">3/24</text>
			</g>
		</g>
	</g>
</g>
</svg>
