<?xml version="1.0" encoding="utf-8"?>
<!-- Generator: Adobe Illustrator 23.0.1, SVG Export Plug-In . SVG Version: 6.00 Build 0)  -->
<svg version="1.1" id="Layer_1" xmlns="http://www.w3.org/2000/svg" xmlns:xlink="http://www.w3.org/1999/xlink" x="0px" y="0px"
	 viewBox="0 0 637.5 487.5" style="enable-background:new 0 0 637.5 487.5;" xml:space="preserve">
<style type="text/css">
	.st0{clip-path:url(#SVGID_2_);}
	.st1{clip-path:url(#SVGID_4_);fill:none;stroke:#E8E8E8;stroke-width:0.75;stroke-miterlimit:10;}
	.st2{clip-path:url(#SVGID_4_);fill:#C71E1D;}
	.st3{clip-path:url(#SVGID_4_);fill:#C71E1D;fill-opacity:0.6;stroke:#000000;stroke-width:0.5;stroke-miterlimit:10;}
	.st4{clip-path:url(#SVGID_4_);fill:none;stroke:#333333;stroke-width:0.75;stroke-miterlimit:10;}
	.st5{fill:#A6A6A6;}
	.st6{font-family:'Roboto-Regular';}
	.st7{font-size:9px;}
	.st8{fill:none;stroke:#9A0000;stroke-width:0.75;stroke-miterlimit:10;}
	.st9{fill:#9A0000;}
	.st10{fill:#893333;}
	.st11{font-family:'ArialMT';}
	.st12{font-size:11px;}
	.st13{font-family:'Arial-BoldMT';}
	.st14{fill:#333333;}
</style>
<g>
	<defs>
		<rect id="SVGID_1_" width="637.5" height="487.5"/>
	</defs>
	<clipPath id="SVGID_2_">
		<use xlink:href="#SVGID_1_"  style="overflow:visible;"/>
	</clipPath>
	<g class="st0">
		<defs>
			<rect id="SVGID_3_" width="637.5" height="483"/>
		</defs>
		<clipPath id="SVGID_4_">
			<use xlink:href="#SVGID_3_"  style="overflow:visible;"/>
		</clipPath>
		<line class="st1" x1="21" y1="6" x2="637.5" y2="6"/>
		<line class="st1" x1="21" y1="51.8" x2="637.5" y2="51.8"/>
		<line class="st1" x1="21" y1="97.5" x2="637.5" y2="97.5"/>
		<line class="st1" x1="21" y1="143.2" x2="637.5" y2="143.2"/>
		<line class="st1" x1="21" y1="189" x2="637.5" y2="189"/>
		<line class="st1" x1="21" y1="234.8" x2="637.5" y2="234.8"/>
		<line class="st1" x1="21" y1="280.5" x2="637.5" y2="280.5"/>
		<line class="st1" x1="21" y1="326.2" x2="637.5" y2="326.2"/>
		<line class="st1" x1="21" y1="372" x2="637.5" y2="372"/>
		<line class="st1" x1="21" y1="417.8" x2="637.5" y2="417.8"/>
		<path class="st2" d="M21,463.5h8.9H21z"/>
		<path class="st2" d="M29.9,463.5h8.9H29.9z"/>
		<path class="st2" d="M38.9,463.5h8.9H38.9z"/>
		<path class="st2" d="M47.8,463.5h8.9H47.8z"/>
		<path class="st2" d="M56.7,463.5h8.9H56.7z"/>
		<path class="st2" d="M65.7,463.5h8.9H65.7z"/>
		<path class="st2" d="M74.6,463.5h8.9H74.6z"/>
		<path class="st2" d="M83.5,463.5h8.9H83.5z"/>
		<path class="st2" d="M92.5,463.5h8.9H92.5z"/>
		<path class="st2" d="M101.4,463.5h8.9H101.4z"/>
		<path class="st2" d="M110.3,463.5h8.9H110.3z"/>
		<path class="st2" d="M119.3,463.5h8.9H119.3z"/>
		<path class="st2" d="M128.2,463.5h8.9H128.2z"/>
		<polygon class="st3" points="628.2,6 628.2,15 619.3,15 610.4,15 610.4,15 601.5,15 592.6,15 592.6,19.5 583.6,19.5 583.6,28.5 
			574.7,28.5 574.7,33.8 565.8,33.8 565.8,47.3 556.9,47.3 556.9,51.8 548,51.8 548,60.8 539.1,60.8 539,60.8 530.1,60.8 
			530.1,65.3 521.2,65.3 521.2,84 512.3,84 512.3,97.5 503.3,97.5 503.3,115.5 494.4,115.5 494.4,134.2 485.5,134.2 485.5,171 
			476.6,171 476.6,184.5 467.7,184.5 467.7,193.5 458.7,193.5 458.7,202.5 449.8,202.5 449.8,230.2 440.9,230.2 440.9,234.8 
			432,234.8 432,243.8 423,243.8 423,248.2 414.1,248.2 414.1,257.2 405.2,257.2 405.2,262.5 396.3,262.5 396.3,267 387.4,267 
			387.4,271.5 378.4,271.5 378.4,285 369.5,285 369.5,289.5 360.6,289.5 360.6,294 351.7,294 351.7,294 342.8,294 342.8,308.3 
			333.8,308.3 333.8,317.3 324.9,317.3 324.9,326.3 316,326.3 316,339.8 307.1,339.8 307.1,348.8 298.2,348.8 298.2,354 289.2,354 
			289.2,367.5 280.3,367.5 280.3,381 271.4,381 271.4,381 262.5,381 262.5,390 253.6,390 253.5,390 244.6,390 244.6,399.8 
			235.7,399.8 235.7,408.8 226.8,408.8 217.9,408.8 217.9,417.8 209,417.8 209,426.8 200,426.8 200,431.2 191.1,431.2 191.1,435.8 
			182.2,435.8 182.2,440.2 173.3,440.2 173.3,450 164.4,450 164.3,450 155.4,450 155.4,454.5 146.5,454.5 146.5,454.5 137.6,454.5 
			137.6,463.5 146.5,463.5 146.5,463.5 155.4,463.5 164.3,463.5 164.4,463.5 173.3,463.5 182.2,463.5 182.2,463.5 191.1,463.5 
			200,463.5 200,463.5 209,463.5 217.9,463.5 217.9,463.5 226.8,463.5 235.7,463.5 235.7,463.5 244.6,463.5 253.5,463.5 
			253.6,463.5 262.5,463.5 271.4,463.5 271.4,463.5 280.3,463.5 289.2,463.5 289.2,463.5 298.2,463.5 307.1,463.5 307.1,463.5 
			316,463.5 324.9,463.5 324.9,463.5 333.8,463.5 342.8,463.5 351.7,463.5 351.7,463.5 360.6,463.5 369.5,463.5 369.5,463.5 
			378.4,463.5 387.4,463.5 387.4,463.5 396.3,463.5 405.2,463.5 405.2,463.5 414.1,463.5 423,463.5 423.1,463.5 432,463.5 
			440.9,463.5 440.9,463.5 449.8,463.5 458.7,463.5 458.7,463.5 467.7,463.5 476.6,463.5 476.6,463.5 485.5,463.5 494.4,463.5 
			494.4,463.5 503.3,463.5 512.3,463.5 521.2,463.5 521.2,463.5 530.1,463.5 539,463.5 539.1,463.5 548,463.5 556.9,463.5 
			556.9,463.5 565.8,463.5 574.7,463.5 574.8,463.5 583.6,463.5 592.6,463.5 592.6,463.5 601.5,463.5 610.4,463.5 610.4,463.5 
			619.3,463.5 628.2,463.5 628.3,463.5 637.2,463.5 637.2,6 		"/>
		<line class="st4" x1="21" y1="463.5" x2="637.5" y2="463.5"/>
	</g>
	<g class="st0">
		<text transform="matrix(1 0 0 1 5.2559 420.0996)" class="st5 st6 st7">10</text>
	</g>
	<g class="st0">
		<text transform="matrix(1 0 0 1 5.2559 374.3496)" class="st5 st6 st7">20</text>
	</g>
	<g class="st0">
		<text transform="matrix(1 0 0 1 5.2559 328.5996)" class="st5 st6 st7">30</text>
	</g>
	<g class="st0">
		<text transform="matrix(1 0 0 1 5.2559 282.8496)" class="st5 st6 st7">40</text>
	</g>
	<g class="st0">
		<text transform="matrix(1 0 0 1 5.2559 237.0996)" class="st5 st6 st7">50</text>
	</g>
	<g class="st0">
		<text transform="matrix(1 0 0 1 5.2559 191.3496)" class="st5 st6 st7">60</text>
	</g>
	<g class="st0">
		<text transform="matrix(1 0 0 1 5.2559 145.5996)" class="st5 st6 st7">70</text>
	</g>
	<g class="st0">
		<text transform="matrix(1 0 0 1 5.2559 99.8496)" class="st5 st6 st7">80</text>
	</g>
	<g class="st0">
		<text transform="matrix(1 0 0 1 5.2559 54.0996)" class="st5 st6 st7">90</text>
	</g>
	<g class="st0">
		<text transform="matrix(1 0 0 1 2.929688e-03 8.3496)" class="st5 st6 st7">100</text>
	</g>
</g>
<g>
	<g>
		<path class="st8" d="M429.3,175.6c1.7-11.8,11-21.9,24.5-26.3c9.7-3.1,18.8-2.5,24.4-1.6"/>
		<g>
			<polygon class="st9" points="475.6,150 477.3,147.5 476.7,144.6 482.6,148.5 			"/>
		</g>
	</g>
</g>
<text transform="matrix(1 0 0 1 399.7985 179.5846)" class="st10 st11 st12">4/28</text>
<text transform="matrix(1 0 0 1 374.9984 192.7843)" class="st10 st13 st12">Deadliest day</text>
<text transform="matrix(1 0 0 1 389.3983 205.9845)" class="st10 st11 st12">6 deaths</text>
<g>
	<text transform="matrix(1 0 0 1 134.7588 477.1636)" class="st14 st6 st7">3/24</text>
</g>
<g>
	<text transform="matrix(1 0 0 1 618.5941 477.1631)" class="st14 st6 st7">5/18</text>
</g>
</svg>
