<?xml version="1.0" encoding="utf-8"?>
<!-- Generator: Adobe Illustrator 23.0.1, SVG Export Plug-In . SVG Version: 6.00 Build 0)  -->
<svg version="1.1" id="Layer_1" xmlns="http://www.w3.org/2000/svg" xmlns:xlink="http://www.w3.org/1999/xlink" x="0px" y="0px"
	 viewBox="0 0 637.5 487.5" style="enable-background:new 0 0 637.5 487.5;" xml:space="preserve">
<style type="text/css">
	.st0{clip-path:url(#SVGID_2_);}
	.st1{clip-path:url(#SVGID_4_);fill:none;stroke:#E8E8E8;stroke-width:0.75;stroke-miterlimit:10;}
	.st2{clip-path:url(#SVGID_4_);fill:#C71E1D;}
	.st3{clip-path:url(#SVGID_4_);fill:#C71E1D;fill-opacity:0.6;stroke:#000000;stroke-width:0.5;stroke-miterlimit:10;}
	.st4{clip-path:url(#SVGID_4_);fill:none;stroke:#333333;stroke-width:0.75;stroke-miterlimit:10;}
	.st5{fill:#A6A6A6;}
	.st6{font-family:'Roboto-Regular';}
	.st7{font-size:9px;}
	.st8{fill:#333333;}
	.st9{fill:none;stroke:#9A0000;stroke-width:0.75;stroke-miterlimit:10;}
	.st10{fill:#9A0000;}
	.st11{fill:#893333;}
	.st12{font-family:'ArialMT';}
	.st13{font-size:11px;}
	.st14{font-family:'Arial-BoldMT';}
</style>
<g>
	<defs>
		<rect id="SVGID_1_" width="637.5" height="487.5"/>
	</defs>
	<clipPath id="SVGID_2_">
		<use xlink:href="#SVGID_1_"  style="overflow:visible;"/>
	</clipPath>
	<g class="st0">
		<defs>
			<rect id="SVGID_3_" width="637.5" height="483"/>
		</defs>
		<clipPath id="SVGID_4_">
			<use xlink:href="#SVGID_3_"  style="overflow:visible;"/>
		</clipPath>
		<line class="st1" x1="21" y1="5.2" x2="637.5" y2="5.2"/>
		<line class="st1" x1="21" y1="56.2" x2="637.5" y2="56.2"/>
		<line class="st1" x1="21" y1="107.2" x2="637.5" y2="107.2"/>
		<line class="st1" x1="21" y1="158.2" x2="637.5" y2="158.2"/>
		<line class="st1" x1="21" y1="208.5" x2="637.5" y2="208.5"/>
		<line class="st1" x1="21" y1="259.5" x2="637.5" y2="259.5"/>
		<line class="st1" x1="21" y1="310.5" x2="637.5" y2="310.5"/>
		<line class="st1" x1="21" y1="361.5" x2="637.5" y2="361.5"/>
		<line class="st1" x1="21" y1="412.5" x2="637.5" y2="412.5"/>
		<path class="st2" d="M21,463.5h6.4H21z"/>
		<path class="st2" d="M27.4,463.5h6.4H27.4z"/>
		<path class="st2" d="M33.7,463.5h6.4H33.7z"/>
		<path class="st2" d="M40.1,463.5h6.4H40.1z"/>
		<path class="st2" d="M46.4,463.5h6.4H46.4z"/>
		<path class="st2" d="M52.8,463.5h6.4H52.8z"/>
		<path class="st2" d="M59.1,463.5h6.4H59.1z"/>
		<path class="st2" d="M65.5,463.5h6.4H65.5z"/>
		<path class="st2" d="M71.8,463.5h6.4H71.8z"/>
		<path class="st2" d="M78.2,463.5h6.4H78.2z"/>
		<path class="st2" d="M84.6,463.5h6.4H84.6z"/>
		<path class="st2" d="M90.9,463.5h6.4H90.9z"/>
		<path class="st2" d="M97.3,463.5h6.4H97.3z"/>
		<polygon class="st3" points="630.7,0 630.7,7.5 624.4,7.5 624.4,12.8 618.1,12.8 618.1,15 611.7,15 611.7,27.8 605.4,27.8 
			605.4,43.5 599,43.5 599,53.2 592.7,53.2 592.7,69 586.3,69 586.3,71.2 580,71.2 573.7,71.2 573.7,76.5 567.3,76.5 567.3,78.8 
			561,78.8 561,102 554.7,102 554.7,117 548.3,117 548.3,124.5 542,124.5 541.9,124.5 535.6,124.5 529.3,124.5 529.3,127.5 
			522.9,127.5 522.9,145.5 516.7,145.5 516.7,158.2 510.3,158.2 510.3,160.5 504,160.5 504,165.8 497.6,165.8 497.6,168 491.2,168 
			491.2,171 484.9,171 484.9,175.5 478.5,175.5 478.5,183 472.2,183 472.2,191.2 465.8,191.2 465.8,204 459.5,204 459.5,208.5 
			453.1,208.5 453.1,213.8 446.8,213.8 440.4,213.8 434,213.8 427.7,213.8 427.7,216.8 421.3,216.8 421.3,221.2 415,221.2 
			415,224.2 408.6,224.2 408.6,231.8 402.3,231.8 402.3,234 395.9,234 395.9,239.2 389.6,239.2 383.2,239.2 383.2,242.2 
			376.8,242.2 376.8,252 370.5,252 370.5,259.5 364.1,259.5 364.1,270 357.8,270 357.8,280.5 351.4,280.5 351.4,300.8 345.1,300.8 
			345.1,308.2 338.7,308.2 338.7,313.5 332.4,313.5 332.4,318 326,318 326,333.8 319.6,333.8 319.6,336 313.3,336 313.3,341.2 
			306.9,341.2 306.9,343.5 300.6,343.5 300.6,348.8 294.2,348.8 294.2,351.8 287.9,351.8 287.9,354 281.5,354 281.5,356.2 
			275.2,356.2 275.2,364.5 268.8,364.5 268.8,366.8 262.4,366.8 262.4,369 256.1,369 249.7,369 249.7,377.2 243.4,377.2 
			243.4,381.8 237,381.8 237,387 230.7,387 230.7,394.5 224.3,394.5 224.3,399.8 218,399.8 218,402.8 211.6,402.8 211.6,410.2 
			205.2,410.2 205.2,417.8 198.9,417.8 192.5,417.8 192.5,423 186.2,423 179.8,423 179.8,427.5 173.5,427.5 173.5,432.8 
			167.1,432.8 160.8,432.8 160.8,438 154.4,438 154.4,443.2 148,443.2 148,445.5 141.7,445.5 141.7,448.5 135.3,448.5 135.3,450.8 
			129,450.8 129,456 122.7,456 116.3,456 116.3,458.2 110,458.2 103.6,458.2 103.6,463.5 110,463.5 116.3,463.5 122.7,463.5 
			129,463.5 135.3,463.5 135.4,463.5 141.7,463.5 148,463.5 154.4,463.5 160.8,463.5 167.1,463.5 173.5,463.5 179.8,463.5 
			186.2,463.5 192.5,463.5 198.9,463.5 205.2,463.5 211.6,463.5 218,463.5 224.3,463.5 230.7,463.5 237,463.5 243.4,463.5 
			249.7,463.5 256.1,463.5 262.4,463.5 268.8,463.5 275.2,463.5 281.5,463.5 287.9,463.5 294.2,463.5 300.6,463.5 300.6,463.5 
			306.9,463.5 313.3,463.5 319.6,463.5 319.6,463.5 326,463.5 332.4,463.5 338.7,463.5 345.1,463.5 345.1,463.5 351.4,463.5 
			357.8,463.5 364.1,463.5 364.1,463.5 370.5,463.5 376.8,463.5 383.2,463.5 389.6,463.5 395.9,463.5 402.3,463.5 408.6,463.5 
			408.6,463.5 415,463.5 421.3,463.5 427.7,463.5 427.7,463.5 434,463.5 440.4,463.5 446.8,463.5 453.1,463.5 459.5,463.5 
			465.8,463.5 472.2,463.5 472.2,463.5 478.5,463.5 484.9,463.5 491.2,463.5 491.2,463.5 497.6,463.5 504,463.5 510.3,463.5 
			516.7,463.5 522.9,463.5 523,463.5 529.3,463.5 535.6,463.5 541.9,463.5 542,463.5 548.3,463.5 554.7,463.5 561,463.5 
			567.3,463.5 567.4,463.5 573.7,463.5 580,463.5 586.3,463.5 586.4,463.5 592.7,463.5 599,463.5 605.4,463.5 611.7,463.5 
			611.8,463.5 618.1,463.5 624.4,463.5 630.7,463.5 630.8,463.5 637.1,463.5 637.1,0 		"/>
		<line class="st4" x1="21" y1="463.5" x2="637.5" y2="463.5"/>
	</g>
	<g class="st0">
		<text transform="matrix(1 0 0 1 5.6426 415.5996)" class="st5 st6 st7">20</text>
	</g>
	<g class="st0">
		<text transform="matrix(1 0 0 1 5.6426 364.5996)" class="st5 st6 st7">40</text>
	</g>
	<g class="st0">
		<text transform="matrix(1 0 0 1 5.6426 313.5996)" class="st5 st6 st7">60</text>
	</g>
	<g class="st0">
		<text transform="matrix(1 0 0 1 5.6426 262.5996)" class="st5 st6 st7">80</text>
	</g>
	<g class="st0">
		<text transform="matrix(1 0 0 1 0.5889 211.5996)" class="st5 st6 st7">100</text>
	</g>
	<g class="st0">
		<text transform="matrix(1 0 0 1 0.5889 161.3496)" class="st5 st6 st7">120</text>
	</g>
	<g class="st0">
		<text transform="matrix(1 0 0 1 0.5889 110.3496)" class="st5 st6 st7">140</text>
	</g>
	<g class="st0">
		<text transform="matrix(1 0 0 1 0.5889 59.3496)" class="st5 st6 st7">160</text>
	</g>
	<g class="st0">
		<text transform="matrix(1 0 0 1 0.5889 8.3496)" class="st5 st6 st7">180</text>
	</g>
</g>
<g>
	<text transform="matrix(1 0 0 1 618.1919 478.2897)" class="st8 st6 st7">6/15</text>
</g>
<g>
	<text transform="matrix(1 0 0 1 98.5569 478.2898)" class="st8 st6 st7">3/24</text>
</g>
<g>
	<g>
		<path class="st9" d="M504.9,110.9c1.7-11.8,11-21.9,24.5-26.3c9.7-3.1,18.8-2.5,24.4-1.6"/>
		<g>
			<polygon class="st10" points="551.2,85.3 552.9,82.8 552.3,79.9 558.2,83.8 			"/>
		</g>
	</g>
</g>
<text transform="matrix(1 0 0 1 476.4522 114.8799)" class="st11 st12 st13">6/4</text>
<text transform="matrix(1 0 0 1 449.532 128.0796)" class="st11 st14 st13">Deadliest day</text>
<text transform="matrix(1 0 0 1 463.9319 141.2798)" class="st11 st12 st13">9 deaths</text>
</svg>
