<?xml version="1.0" encoding="utf-8"?>
<!-- Generator: Adobe Illustrator 23.0.1, SVG Export Plug-In . SVG Version: 6.00 Build 0)  -->
<svg version="1.1" id="Layer_1" xmlns="http://www.w3.org/2000/svg" xmlns:xlink="http://www.w3.org/1999/xlink" x="0px" y="0px"
	 viewBox="0 0 637.5 487.5" style="enable-background:new 0 0 637.5 487.5;" xml:space="preserve">
<style type="text/css">
	.st0{clip-path:url(#SVGID_2_);enable-background:new    ;}
	.st1{clip-path:url(#SVGID_4_);fill:none;stroke:#E8E8E8;stroke-width:0.75;stroke-miterlimit:10;}
	.st2{clip-path:url(#SVGID_4_);fill:#C71E1D;}
	.st3{clip-path:url(#SVGID_4_);fill:#C71E1D;fill-opacity:0.6;stroke:#000000;stroke-width:0.5;stroke-miterlimit:10;}
	.st4{clip-path:url(#SVGID_4_);fill:none;stroke:#333333;stroke-width:0.75;stroke-miterlimit:10;}
	.st5{clip-path:url(#SVGID_4_);}
	.st6{fill:#A6A6A6;}
	.st7{font-family:'Roboto-Regular';}
	.st8{font-size:9px;}
	.st9{fill:none;stroke:#9A0000;stroke-width:0.75;stroke-miterlimit:10;}
	.st10{fill:#9A0000;}
	.st11{fill:#893333;}
	.st12{font-family:'ArialMT';}
	.st13{font-size:11px;}
	.st14{font-family:'Arial-BoldMT';}
	.st15{fill:#333333;}
</style>
<g>
	<defs>
		<rect id="SVGID_1_" width="637.5" height="487.5"/>
	</defs>
	<clipPath id="SVGID_2_">
		<use xlink:href="#SVGID_1_"  style="overflow:visible;"/>
	</clipPath>
	<g class="st0">
		<g>
			<defs>
				<rect id="SVGID_3_" width="637.5" height="487.5"/>
			</defs>
			<clipPath id="SVGID_4_">
				<use xlink:href="#SVGID_3_"  style="overflow:visible;"/>
			</clipPath>
			<line class="st1" x1="15.8" y1="5.2" x2="637.5" y2="5.2"/>
			<line class="st1" x1="15.8" y1="56.2" x2="637.5" y2="56.2"/>
			<line class="st1" x1="15.8" y1="107.2" x2="637.5" y2="107.2"/>
			<line class="st1" x1="15.8" y1="158.2" x2="637.5" y2="158.2"/>
			<line class="st1" x1="15.8" y1="208.5" x2="637.5" y2="208.5"/>
			<line class="st1" x1="15.8" y1="259.5" x2="637.5" y2="259.5"/>
			<line class="st1" x1="15.8" y1="310.5" x2="637.5" y2="310.5"/>
			<line class="st1" x1="15.8" y1="361.5" x2="637.5" y2="361.5"/>
			<line class="st1" x1="15.8" y1="412.5" x2="637.5" y2="412.5"/>
			<path class="st2" d="M15.8,463.5h10.2H15.8z"/>
			<path class="st2" d="M25.9,463.5h10.2H25.9z"/>
			<path class="st2" d="M36.1,463.5h10.2H36.1z"/>
			<path class="st2" d="M46.3,463.5h10.2H46.3z"/>
			<path class="st2" d="M56.5,463.5h10.2H56.5z"/>
			<path class="st2" d="M66.7,463.5h10.2H66.7z"/>
			<path class="st2" d="M76.9,463.5h10.2H76.9z"/>
			<path class="st2" d="M87.1,463.5h10.2H87.1z"/>
			<path class="st2" d="M97.3,463.5h10.2H97.3z"/>
			<path class="st2" d="M107.5,463.5h10.2H107.5z"/>
			<path class="st2" d="M117.7,463.5h10.2H117.7z"/>
			<path class="st2" d="M127.9,463.5h10.2H127.9z"/>
			<path class="st2" d="M138.1,463.5h10.2H138.1z"/>
			<polygon class="st3" points="627,0 627,5.2 616.8,5.2 616.8,15 606.7,15 596.5,15 596.5,20.2 586.3,20.2 586.3,40.5 576.1,40.5 
				576.1,56.2 566,56.2 566,76.5 555.8,76.5 555.8,96.8 545.6,96.8 545.6,137.2 535.4,137.2 535.4,153 525.3,153 525.3,162.8 
				515.1,162.8 515.1,173.2 504.9,173.2 504.9,204 494.7,204 494.7,208.5 484.6,208.5 484.6,219 474.4,219 474.4,224.2 464.2,224.2 
				464.2,234 454,234 454,239.2 443.8,239.2 443.8,244.5 433.6,244.5 433.6,249.8 423.5,249.8 423.5,264.8 413.3,264.8 413.3,270 
				403.1,270 403.1,275.2 392.9,275.2 392.9,275.2 382.7,275.2 382.7,290.2 372.5,290.2 372.5,300.8 362.3,300.8 362.3,310.5 
				352.1,310.5 352.1,326.2 341.9,326.2 341.9,336 331.7,336 331.7,341.2 321.5,341.2 321.5,356.2 311.3,356.2 311.3,372 301.1,372 
				291,372 291,381.8 280.8,381.8 270.6,381.8 270.6,392.2 260.4,392.2 260.4,402.8 250.2,402.8 240,402.8 240,412.5 229.8,412.5 
				229.8,423 219.6,423 219.6,427.5 209.4,427.5 209.4,432.8 199.2,432.8 199.2,438 189,438 189,448.5 178.8,448.5 178.8,448.5 
				168.6,448.5 168.6,453 158.4,453 158.4,453 148.3,453 148.3,463.5 158.4,463.5 158.4,463.5 168.6,463.5 168.6,463.5 178.8,463.5 
				178.8,463.5 189,463.5 189,463.5 199.2,463.5 199.2,463.5 209.4,463.5 219.6,463.5 229.8,463.5 240,463.5 250.2,463.5 
				260.4,463.5 270.6,463.5 270.6,463.5 280.8,463.5 291,463.5 291,463.5 301.1,463.5 311.3,463.5 311.3,463.5 321.5,463.5 
				321.5,463.5 331.7,463.5 331.7,463.5 341.9,463.5 341.9,463.5 352.1,463.5 352.1,463.5 362.3,463.5 372.5,463.5 372.5,463.5 
				382.7,463.5 392.9,463.5 392.9,463.5 403.1,463.5 403.1,463.5 413.3,463.5 423.5,463.5 423.5,463.5 433.6,463.5 433.6,463.5 
				443.8,463.5 443.8,463.5 454,463.5 464.2,463.5 464.2,463.5 474.4,463.5 474.4,463.5 484.6,463.5 484.6,463.5 494.7,463.5 
				494.8,463.5 504.9,463.5 504.9,463.5 515.1,463.5 525.3,463.5 525.3,463.5 535.4,463.5 535.5,463.5 545.6,463.5 555.8,463.5 
				566,463.5 566,463.5 576.1,463.5 576.2,463.5 586.3,463.5 596.5,463.5 596.5,463.5 606.7,463.5 616.8,463.5 616.9,463.5 
				627,463.5 627,463.5 637.2,463.5 637.2,0 			"/>
			<line class="st4" x1="15.8" y1="463.5" x2="637.5" y2="463.5"/>
			<g class="st5">
				<text transform="matrix(1 0 0 1 0.3926 414.8496)" class="st6 st7 st8">10</text>
			</g>
			<g class="st5">
				<text transform="matrix(1 0 0 1 0.3926 363.8496)" class="st6 st7 st8">20</text>
			</g>
			<g class="st5">
				<text transform="matrix(1 0 0 1 0.3926 312.8496)" class="st6 st7 st8">30</text>
			</g>
			<g class="st5">
				<text transform="matrix(1 0 0 1 0.3926 261.8496)" class="st6 st7 st8">40</text>
			</g>
			<g class="st5">
				<text transform="matrix(1 0 0 1 0.3926 210.8496)" class="st6 st7 st8">50</text>
			</g>
			<g class="st5">
				<text transform="matrix(1 0 0 1 0.3926 160.5996)" class="st6 st7 st8">60</text>
			</g>
			<g class="st5">
				<text transform="matrix(1 0 0 1 0.3926 109.5996)" class="st6 st7 st8">70</text>
			</g>
			<g class="st5">
				<text transform="matrix(1 0 0 1 0.3926 58.5996)" class="st6 st7 st8">80</text>
			</g>
			<g class="st5">
				<text transform="matrix(1 0 0 1 0.3926 7.5996)" class="st6 st7 st8">90</text>
			</g>
		</g>
	</g>
</g>
<g>
	<g>
		<path class="st9" d="M488.8,144.2c1.7-11.8,11-21.9,24.5-26.3c9.7-3.1,18.8-2.5,24.4-1.6"/>
		<g>
			<polygon class="st10" points="535.1,118.6 536.8,116.1 536.2,113.2 542.1,117.1 			"/>
		</g>
	</g>
</g>
<text transform="matrix(1 0 0 1 459.2614 148.1632)" class="st11 st12 st13">4/28</text>
<text transform="matrix(1 0 0 1 434.4615 161.3629)" class="st11 st14 st13">Deadliest day</text>
<text transform="matrix(1 0 0 1 448.8614 174.5631)" class="st11 st12 st13">6 deaths</text>
<g>
	<text transform="matrix(1 0 0 1 142.4275 477.8579)" class="st15 st7 st8">3/24</text>
</g>
<g>
	<text transform="matrix(1 0 0 1 618.679 477.8577)" class="st15 st7 st8">5/10</text>
</g>
</svg>
