<?xml version="1.0" encoding="utf-8"?>
<!-- Generator: Adobe Illustrator 23.0.1, SVG Export Plug-In . SVG Version: 6.00 Build 0)  -->
<svg version="1.1" id="Layer_1" xmlns="http://www.w3.org/2000/svg" xmlns:xlink="http://www.w3.org/1999/xlink" x="0px" y="0px"
	 viewBox="0 0 637.5 487.5" style="enable-background:new 0 0 637.5 487.5;" xml:space="preserve">
<style type="text/css">
	.st0{clip-path:url(#SVGID_2_);}
	.st1{clip-path:url(#SVGID_4_);fill:none;stroke:#E8E8E8;stroke-width:0.75;stroke-miterlimit:10;}
	.st2{clip-path:url(#SVGID_4_);fill:#C71E1D;}
	.st3{clip-path:url(#SVGID_4_);fill:#C71E1D;fill-opacity:0.6;stroke:#000000;stroke-width:0.5;stroke-miterlimit:10;}
	.st4{clip-path:url(#SVGID_4_);fill:none;stroke:#333333;stroke-width:0.75;stroke-miterlimit:10;}
	.st5{fill:#A6A6A6;}
	.st6{font-family:'Roboto-Regular';}
	.st7{font-size:9px;}
	.st8{fill:none;stroke:#9A0000;stroke-width:0.75;stroke-miterlimit:10;}
	.st9{fill:#9A0000;}
	.st10{fill:#893333;}
	.st11{font-family:'ArialMT';}
	.st12{font-size:11px;}
	.st13{font-family:'Arial-BoldMT';}
	.st14{fill:#333333;}
</style>
<g>
	<defs>
		<rect id="SVGID_1_" width="637.5" height="487.5"/>
	</defs>
	<clipPath id="SVGID_2_">
		<use xlink:href="#SVGID_1_"  style="overflow:visible;"/>
	</clipPath>
	<g class="st0">
		<defs>
			<rect id="SVGID_3_" width="637.5" height="483"/>
		</defs>
		<clipPath id="SVGID_4_">
			<use xlink:href="#SVGID_3_"  style="overflow:visible;"/>
		</clipPath>
		<line class="st1" x1="21" y1="74.2" x2="637.5" y2="74.2"/>
		<line class="st1" x1="21" y1="152.2" x2="637.5" y2="152.2"/>
		<line class="st1" x1="21" y1="229.5" x2="637.5" y2="229.5"/>
		<line class="st1" x1="21" y1="307.5" x2="637.5" y2="307.5"/>
		<line class="st1" x1="21" y1="385.5" x2="637.5" y2="385.5"/>
		<path class="st2" d="M21,463.5h8H21z"/>
		<path class="st2" d="M29,463.5h8H29z"/>
		<path class="st2" d="M37,463.5h8H37z"/>
		<path class="st2" d="M45,463.5h8H45z"/>
		<path class="st2" d="M53,463.5h8H53z"/>
		<path class="st2" d="M61,463.5h8H61z"/>
		<path class="st2" d="M69,463.5h8H69z"/>
		<path class="st2" d="M77,463.5h8H77z"/>
		<path class="st2" d="M85.1,463.5h8H85.1z"/>
		<path class="st2" d="M93.1,463.5h8H93.1z"/>
		<path class="st2" d="M101.1,463.5h8H101.1z"/>
		<path class="st2" d="M109.1,463.5h8H109.1z"/>
		<path class="st2" d="M117.1,463.5h8H117.1z"/>
		<polygon class="st3" points="628.3,0 628.3,7.5 620.3,7.5 620.3,12 612.3,12 612.3,15.8 604.4,15.8 604.4,23.2 596.4,23.2 
			596.4,35.2 588.4,35.2 588.4,46.5 580.4,46.5 580.4,66 572.4,66 572.4,74.2 564.5,74.2 564.5,81.8 556.5,81.8 548.6,81.8 
			548.5,81.8 540.6,81.8 532.6,81.8 532.6,85.5 524.6,85.5 524.6,93.8 516.6,93.8 516.6,97.5 508.6,97.5 508.6,108.8 500.6,108.8 
			500.6,113.2 492.7,113.2 492.7,120.8 484.8,120.8 484.7,120.8 476.7,120.8 476.7,124.5 468.7,124.5 468.7,140.2 460.7,140.2 
			460.7,152.2 452.8,152.2 452.8,167.2 444.8,167.2 444.8,183 436.8,183 436.8,214.5 428.8,214.5 428.8,225.8 420.8,225.8 
			420.8,234 412.9,234 412.9,241.5 404.8,241.5 404.8,264.7 396.8,264.7 396.8,268.5 388.9,268.5 388.9,276.8 380.9,276.8 
			380.9,280.5 372.9,280.5 372.9,288 364.9,288 364.9,291.8 356.9,291.8 356.9,296.2 348.9,296.2 348.9,300 340.9,300 340.9,311.2 
			332.9,311.2 332.9,315.8 324.9,315.8 324.9,319.5 317,319.5 316.9,319.5 309,319.5 309,330.8 300.9,330.8 300.9,339 293,339 
			293,346.5 285,346.5 285,358.5 276.9,358.5 276.9,366 269,366 269,369.8 261,369.8 261,381.8 253,381.8 253,393.8 244.9,393.8 
			236.9,393.8 236.9,401.2 229,401.2 221,401.2 221,408.8 213,408.8 213,417 205,417 197,417 197,424.5 189,424.5 189,432 181,432 
			181,436.5 173,436.5 173,440.2 165,440.2 165,444 157,444 157,451.5 149.1,451.5 141,451.5 141,456 133.1,456 133,456 125.1,456 
			125.1,463.5 133,463.5 133.1,463.5 141,463.5 149.1,463.5 157,463.5 157.1,463.5 165,463.5 173,463.5 173,463.5 181,463.5 
			189,463.5 197,463.5 197,463.5 205,463.5 213,463.5 221,463.5 221,463.5 229,463.5 236.9,463.5 237,463.5 244.9,463.5 253,463.5 
			261,463.5 269,463.5 276.9,463.5 277,463.5 285,463.5 293,463.5 300.9,463.5 301,463.5 309,463.5 316.9,463.5 317,463.5 
			324.9,463.5 332.9,463.5 340.9,463.5 340.9,463.5 348.9,463.5 356.9,463.5 356.9,463.5 364.9,463.5 372.9,463.5 380.9,463.5 
			380.9,463.5 388.9,463.5 396.9,463.5 396.9,463.5 404.8,463.5 412.9,463.5 420.8,463.5 420.8,463.5 428.8,463.5 436.8,463.5 
			436.8,463.5 444.8,463.5 452.8,463.5 460.7,463.5 460.8,463.5 468.7,463.5 476.7,463.5 484.7,463.5 484.8,463.5 492.7,463.5 
			500.6,463.5 500.7,463.5 508.6,463.5 516.6,463.5 524.6,463.5 524.7,463.5 532.6,463.5 540.6,463.5 548.5,463.5 548.6,463.5 
			556.5,463.5 564.5,463.5 572.4,463.5 572.5,463.5 580.4,463.5 588.4,463.5 588.4,463.5 596.4,463.5 604.4,463.5 612.3,463.5 
			612.4,463.5 620.3,463.5 628.3,463.5 628.3,463.5 636.3,463.5 636.3,0 		"/>
		<line class="st4" x1="21" y1="463.5" x2="637.5" y2="463.5"/>
	</g>
	<g class="st0">
		<text transform="matrix(1 0 0 1 5.2559 387.8496)" class="st5 st6 st7">20</text>
	</g>
	<g class="st0">
		<text transform="matrix(1 0 0 1 5.2559 309.8496)" class="st5 st6 st7">40</text>
	</g>
	<g class="st0">
		<text transform="matrix(1 0 0 1 5.2559 231.8496)" class="st5 st6 st7">60</text>
	</g>
	<g class="st0">
		<text transform="matrix(1 0 0 1 5.2559 154.5996)" class="st5 st6 st7">80</text>
	</g>
	<g class="st0">
		<text transform="matrix(1 0 0 1 2.929688e-03 76.5996)" class="st5 st6 st7">100</text>
	</g>
</g>
<g>
	<g>
		<path class="st8" d="M381.5,215.5c1.7-11.8,11-21.9,24.5-26.3c9.7-3.1,18.8-2.5,24.4-1.6"/>
		<g>
			<polygon class="st9" points="427.8,189.9 429.5,187.4 428.9,184.5 434.8,188.4 			"/>
		</g>
	</g>
</g>
<text transform="matrix(1 0 0 1 351.9556 219.5194)" class="st10 st11 st12">4/28</text>
<text transform="matrix(1 0 0 1 327.1556 232.7191)" class="st10 st13 st12">Deadliest day</text>
<text transform="matrix(1 0 0 1 341.5555 245.9193)" class="st10 st11 st12">6 deaths</text>
<g>
	<text transform="matrix(1 0 0 1 618.2925 478.0458)" class="st14 st6 st7">5/26</text>
</g>
<g>
	<text transform="matrix(1 0 0 1 121.606 478.0453)" class="st14 st6 st7">3/24</text>
</g>
</svg>
