<?xml version="1.0" encoding="utf-8"?>
<!-- Generator: Adobe Illustrator 23.0.1, SVG Export Plug-In . SVG Version: 6.00 Build 0)  -->
<svg version="1.1" id="Layer_1" xmlns="http://www.w3.org/2000/svg" xmlns:xlink="http://www.w3.org/1999/xlink" x="0px" y="0px"
	 viewBox="0 0 637.5 487.5" style="enable-background:new 0 0 637.5 487.5;" xml:space="preserve">
<style type="text/css">
	.st0{clip-path:url(#SVGID_2_);enable-background:new    ;}
	.st1{clip-path:url(#SVGID_4_);fill:none;stroke:#E8E8E8;stroke-width:0.75;stroke-miterlimit:10;}
	.st2{clip-path:url(#SVGID_4_);fill:#C71E1D;}
	.st3{clip-path:url(#SVGID_4_);fill:#C71E1D;fill-opacity:0.6;stroke:#000000;stroke-width:0.5;stroke-miterlimit:10;}
	.st4{clip-path:url(#SVGID_4_);fill:none;stroke:#333333;stroke-width:0.75;stroke-miterlimit:10;}
	.st5{clip-path:url(#SVGID_4_);}
	.st6{fill:#A6A6A6;}
	.st7{font-family:'Roboto-Regular';}
	.st8{font-size:9px;}
	.st9{fill:none;stroke:#9A0000;stroke-width:0.75;stroke-miterlimit:10;}
	.st10{fill:#9A0000;}
	.st11{fill:#893333;}
	.st12{font-family:'ArialMT';}
	.st13{font-size:11px;}
	.st14{font-family:'Arial-BoldMT';}
	.st15{fill:#333333;}
</style>
<g>
	<defs>
		<rect id="SVGID_1_" width="637.5" height="487.5"/>
	</defs>
	<clipPath id="SVGID_2_">
		<use xlink:href="#SVGID_1_"  style="overflow:visible;"/>
	</clipPath>
	<g class="st0">
		<g>
			<defs>
				<rect id="SVGID_3_" width="637.5" height="487.5"/>
			</defs>
			<clipPath id="SVGID_4_">
				<use xlink:href="#SVGID_3_"  style="overflow:visible;"/>
			</clipPath>
			<line class="st1" x1="15.8" y1="33.8" x2="637.5" y2="33.8"/>
			<line class="st1" x1="15.8" y1="81" x2="637.5" y2="81"/>
			<line class="st1" x1="15.8" y1="129" x2="637.5" y2="129"/>
			<line class="st1" x1="15.8" y1="177" x2="637.5" y2="177"/>
			<line class="st1" x1="15.8" y1="224.2" x2="637.5" y2="224.2"/>
			<line class="st1" x1="15.8" y1="272.2" x2="637.5" y2="272.2"/>
			<line class="st1" x1="15.8" y1="320.2" x2="637.5" y2="320.2"/>
			<line class="st1" x1="15.8" y1="368.2" x2="637.5" y2="368.2"/>
			<line class="st1" x1="15.8" y1="415.5" x2="637.5" y2="415.5"/>
			<path class="st2" d="M15.8,463.5h9.7H15.8z"/>
			<path class="st2" d="M25.5,463.5h9.7H25.5z"/>
			<path class="st2" d="M35.2,463.5h9.7H35.2z"/>
			<path class="st2" d="M44.9,463.5h9.7H44.9z"/>
			<path class="st2" d="M54.6,463.5h9.7H54.6z"/>
			<path class="st2" d="M64.3,463.5H74H64.3z"/>
			<path class="st2" d="M74,463.5h9.7H74z"/>
			<path class="st2" d="M83.8,463.5h9.7H83.8z"/>
			<path class="st2" d="M93.5,463.5h9.7H93.5z"/>
			<path class="st2" d="M103.2,463.5h9.7H103.2z"/>
			<path class="st2" d="M112.9,463.5h9.7H112.9z"/>
			<path class="st2" d="M122.6,463.5h9.7H122.6z"/>
			<path class="st2" d="M132.3,463.5h9.7H132.3z"/>
			<polygon class="st3" points="627.8,0 627.8,9.8 618.1,9.8 618.1,14.2 608.4,14.2 608.4,28.5 598.6,28.5 598.6,33.8 588.9,33.8 
				588.9,42.8 579.2,42.8 569.5,42.8 569.5,48 559.8,48 559.8,66.8 550.1,66.8 550.1,81 540.4,81 540.4,100.5 530.6,100.5 
				530.6,119.2 520.9,119.2 520.9,157.5 511.2,157.5 511.2,171.8 501.5,171.8 501.5,181.5 491.8,181.5 491.8,191.2 482.1,191.2 
				482.1,219.8 472.3,219.8 472.3,224.2 462.6,224.2 462.6,234 452.9,234 452.9,239.2 443.2,239.2 443.2,248.2 433.5,248.2 
				433.5,253.5 423.8,253.5 423.8,258 414.1,258 414.1,262.5 404.3,262.5 404.3,277.5 394.6,277.5 394.6,282 384.9,282 384.9,286.5 
				375.2,286.5 365.5,286.5 365.5,300.8 355.8,300.8 355.8,310.5 346.1,310.5 346.1,320.2 336.3,320.2 336.3,334.5 326.6,334.5 
				326.6,344.2 316.9,344.2 316.9,348.8 307.2,348.8 307.2,363 297.5,363 297.5,377.2 287.8,377.2 278.1,377.2 278.1,387 268.3,387 
				258.6,387 258.6,396.8 248.9,396.8 248.9,406.5 239.2,406.5 229.5,406.5 229.5,415.5 219.8,415.5 219.8,425.2 210,425.2 
				210,429.8 200.3,429.8 200.3,435 190.6,435 190.6,439.5 180.9,439.5 180.9,449.2 171.2,449.2 161.5,449.2 161.5,453.8 
				151.8,453.8 142,453.8 142,463.5 151.8,463.5 161.5,463.5 171.2,463.5 180.9,463.5 190.6,463.5 200.3,463.5 210,463.5 
				219.8,463.5 229.5,463.5 239.2,463.5 248.9,463.5 258.6,463.5 268.3,463.5 278.1,463.5 287.8,463.5 297.5,463.5 307.2,463.5 
				316.9,463.5 326.6,463.5 336.3,463.5 346.1,463.5 355.8,463.5 365.5,463.5 375.2,463.5 384.9,463.5 394.6,463.5 404.3,463.5 
				414.1,463.5 423.8,463.5 433.5,463.5 443.2,463.5 452.9,463.5 462.6,463.5 472.3,463.5 482.1,463.5 491.8,463.5 501.5,463.5 
				511.2,463.5 520.9,463.5 530.6,463.5 540.4,463.5 550.1,463.5 559.8,463.5 569.5,463.5 579.2,463.5 588.9,463.5 598.6,463.5 
				608.4,463.5 618.1,463.5 627.8,463.5 637.5,463.5 637.5,0 			"/>
			<line class="st4" x1="15.8" y1="463.5" x2="637.5" y2="463.5"/>
			<g class="st5">
				<text transform="matrix(1 0 0 1 0.3926 417.8496)" class="st6 st7 st8">10</text>
			</g>
			<g class="st5">
				<text transform="matrix(1 0 0 1 0.3926 370.5996)" class="st6 st7 st8">20</text>
			</g>
			<g class="st5">
				<text transform="matrix(1 0 0 1 0.3926 322.5996)" class="st6 st7 st8">30</text>
			</g>
			<g class="st5">
				<text transform="matrix(1 0 0 1 0.3926 274.5996)" class="st6 st7 st8">40</text>
			</g>
			<g class="st5">
				<text transform="matrix(1 0 0 1 0.3926 226.5996)" class="st6 st7 st8">50</text>
			</g>
			<g class="st5">
				<text transform="matrix(1 0 0 1 0.3926 179.3496)" class="st6 st7 st8">60</text>
			</g>
			<g class="st5">
				<text transform="matrix(1 0 0 1 0.3926 131.3496)" class="st6 st7 st8">70</text>
			</g>
			<g class="st5">
				<text transform="matrix(1 0 0 1 0.3926 83.3496)" class="st6 st7 st8">80</text>
			</g>
			<g class="st5">
				<text transform="matrix(1 0 0 1 0.3926 36.0996)" class="st6 st7 st8">90</text>
			</g>
		</g>
	</g>
</g>
<g>
	<g>
		<path class="st9" d="M464.4,162.3c1.7-11.8,11-21.9,24.5-26.3c9.7-3.1,18.8-2.5,24.4-1.6"/>
		<g>
			<polygon class="st10" points="510.7,136.7 512.4,134.2 511.8,131.3 517.7,135.2 			"/>
		</g>
	</g>
</g>
<text transform="matrix(1 0 0 1 434.8613 166.2739)" class="st11 st12 st13">4/28</text>
<text transform="matrix(1 0 0 1 410.0613 179.4736)" class="st11 st14 st13">Deadliest day</text>
<text transform="matrix(1 0 0 1 424.4612 192.6738)" class="st11 st12 st13">6 deaths</text>
<g>
	<text transform="matrix(1 0 0 1 135.7277 477.5361)" class="st15 st7 st8">3/24</text>
</g>
<g>
	<text transform="matrix(1 0 0 1 618.6516 477.5363)" class="st15 st7 st8">5/13</text>
</g>
</svg>
