<?xml version="1.0" encoding="utf-8"?>
<!-- Generator: Adobe Illustrator 23.0.1, SVG Export Plug-In . SVG Version: 6.00 Build 0)  -->
<svg version="1.1" id="Layer_1" xmlns="http://www.w3.org/2000/svg" xmlns:xlink="http://www.w3.org/1999/xlink" x="0px" y="0px"
	 viewBox="0 0 637.5 487.5" style="enable-background:new 0 0 637.5 487.5;" xml:space="preserve">
<style type="text/css">
	.st0{clip-path:url(#SVGID_2_);}
	.st1{clip-path:url(#SVGID_4_);fill:none;stroke:#E8E8E8;stroke-width:0.75;stroke-miterlimit:10;}
	.st2{clip-path:url(#SVGID_4_);fill:#C71E1D;}
	.st3{clip-path:url(#SVGID_4_);fill:#C71E1D;fill-opacity:0.6;stroke:#000000;stroke-width:0.5;stroke-miterlimit:10;}
	.st4{clip-path:url(#SVGID_4_);fill:none;stroke:#333333;stroke-width:0.75;stroke-miterlimit:10;}
	.st5{fill:#A6A6A6;}
	.st6{font-family:'Roboto-Regular';}
	.st7{font-size:9px;}
	.st8{fill:none;stroke:#9A0000;stroke-width:0.75;stroke-miterlimit:10;}
	.st9{fill:#9A0000;}
	.st10{fill:#893333;}
	.st11{font-family:'ArialMT';}
	.st12{font-size:11px;}
	.st13{font-family:'Arial-BoldMT';}
	.st14{fill:#333333;}
</style>
<g>
	<defs>
		<rect id="SVGID_1_" width="637.5" height="487.5"/>
	</defs>
	<clipPath id="SVGID_2_">
		<use xlink:href="#SVGID_1_"  style="overflow:visible;"/>
	</clipPath>
	<g class="st0">
		<defs>
			<rect id="SVGID_3_" width="637.5" height="483"/>
		</defs>
		<clipPath id="SVGID_4_">
			<use xlink:href="#SVGID_3_"  style="overflow:visible;"/>
		</clipPath>
		<line class="st1" x1="21" y1="9" x2="637.5" y2="9"/>
		<line class="st1" x1="21" y1="54.8" x2="637.5" y2="54.8"/>
		<line class="st1" x1="21" y1="99.8" x2="637.5" y2="99.8"/>
		<line class="st1" x1="21" y1="145.5" x2="637.5" y2="145.5"/>
		<line class="st1" x1="21" y1="190.5" x2="637.5" y2="190.5"/>
		<line class="st1" x1="21" y1="236.2" x2="637.5" y2="236.2"/>
		<line class="st1" x1="21" y1="282" x2="637.5" y2="282"/>
		<line class="st1" x1="21" y1="327" x2="637.5" y2="327"/>
		<line class="st1" x1="21" y1="372.8" x2="637.5" y2="372.8"/>
		<line class="st1" x1="21" y1="417.8" x2="637.5" y2="417.8"/>
		<path class="st2" d="M21,463.5h8.8H21z"/>
		<path class="st2" d="M29.8,463.5h8.8H29.8z"/>
		<path class="st2" d="M38.6,463.5h8.8H38.6z"/>
		<path class="st2" d="M47.4,463.5h8.8H47.4z"/>
		<path class="st2" d="M56.2,463.5H65H56.2z"/>
		<path class="st2" d="M65,463.5h8.8H65z"/>
		<path class="st2" d="M73.8,463.5h8.8H73.8z"/>
		<path class="st2" d="M82.7,463.5h8.8H82.7z"/>
		<path class="st2" d="M91.5,463.5h8.8H91.5z"/>
		<path class="st2" d="M100.3,463.5h8.8H100.3z"/>
		<path class="st2" d="M109.1,463.5h8.8H109.1z"/>
		<path class="st2" d="M117.9,463.5h8.8H117.9z"/>
		<path class="st2" d="M126.7,463.5h8.8H126.7z"/>
		<polygon class="st3" points="628.7,0 628.7,9 619.9,9 619.9,18 611.1,18 611.1,18 602.3,18 602.3,18 593.5,18 593.5,18 584.7,18 
			584.7,22.5 575.8,22.5 575.8,31.5 567,31.5 567,36 558.2,36 558.2,50.2 549.4,50.2 549.4,54.8 540.6,54.8 540.6,63.8 531.8,63.8 
			531.8,63.8 523,63.8 523,68.2 514.2,68.2 514.2,86.2 505.4,86.2 505.4,99.8 496.6,99.8 496.6,118.5 487.8,118.5 487.8,136.5 
			479,136.5 479,172.5 470.2,172.5 470.2,186 461.4,186 461.4,195.8 452.5,195.8 452.5,204.8 443.7,204.8 443.7,231.8 434.9,231.8 
			434.9,236.2 426.1,236.2 426.1,245.2 417.3,245.2 417.3,249.8 408.5,249.8 408.5,258.8 399.7,258.8 399.7,263.2 390.9,263.2 
			390.9,267.8 382.1,267.8 382.1,273 373.3,273 373.3,286.5 364.5,286.5 364.5,291 355.7,291 355.7,295.5 346.9,295.5 338.1,295.5 
			338.1,309 329.2,309 329.2,318 320.4,318 320.4,327 311.6,327 311.6,340.5 302.8,340.5 302.8,350.2 294,350.2 294,354.8 
			285.2,354.8 285.2,368.2 276.4,368.2 276.4,381.8 267.6,381.8 258.8,381.8 258.8,390.8 250,390.8 250,390.8 241.2,390.8 
			241.2,399.8 232.4,399.8 232.4,408.8 223.6,408.8 223.6,408.8 214.8,408.8 214.8,417.8 206,417.8 206,427.5 197.1,427.5 
			197.1,432 188.3,432 188.3,436.5 179.5,436.5 179.5,441 170.7,441 170.7,450 161.9,450 153.1,450 153.1,454.5 144.3,454.5 
			144.3,454.5 135.5,454.5 135.5,463.5 144.3,463.5 144.3,463.5 153.1,463.5 161.9,463.5 170.7,463.5 170.7,463.5 179.5,463.5 
			179.5,463.5 188.3,463.5 188.3,463.5 197.1,463.5 206,463.5 214.8,463.5 214.8,463.5 223.6,463.5 223.6,463.5 232.4,463.5 
			241.2,463.5 250,463.5 250,463.5 258.8,463.5 258.8,463.5 267.6,463.5 276.4,463.5 285.2,463.5 294,463.5 294,463.5 302.8,463.5 
			311.6,463.5 320.4,463.5 329.2,463.5 329.3,463.5 338.1,463.5 338.1,463.5 346.9,463.5 355.7,463.5 364.5,463.5 373.3,463.5 
			373.3,463.5 382.1,463.5 390.9,463.5 399.7,463.5 408.5,463.5 408.5,463.5 417.3,463.5 426.1,463.5 434.9,463.5 443.7,463.5 
			452.5,463.5 452.6,463.5 461.4,463.5 470.2,463.5 479,463.5 487.8,463.5 487.8,463.5 496.6,463.5 505.4,463.5 514.2,463.5 
			523,463.5 523,463.5 531.8,463.5 531.8,463.5 540.6,463.5 540.6,463.5 549.4,463.5 558.2,463.5 558.2,463.5 567,463.5 567,463.5 
			575.8,463.5 575.9,463.5 584.7,463.5 593.5,463.5 593.5,463.5 602.3,463.5 602.3,463.5 611.1,463.5 611.1,463.5 619.9,463.5 
			628.7,463.5 628.7,463.5 637.5,463.5 637.5,0 		"/>
		<line class="st4" x1="21" y1="463.5" x2="637.5" y2="463.5"/>
	</g>
	<g class="st0">
		<text transform="matrix(1 0 0 1 5.2559 420.0996)" class="st5 st6 st7">10</text>
	</g>
	<g class="st0">
		<text transform="matrix(1 0 0 1 5.2559 375.0996)" class="st5 st6 st7">20</text>
	</g>
	<g class="st0">
		<text transform="matrix(1 0 0 1 5.2559 329.3496)" class="st5 st6 st7">30</text>
	</g>
	<g class="st0">
		<text transform="matrix(1 0 0 1 5.2559 284.3496)" class="st5 st6 st7">40</text>
	</g>
	<g class="st0">
		<text transform="matrix(1 0 0 1 5.2559 238.5996)" class="st5 st6 st7">50</text>
	</g>
	<g class="st0">
		<text transform="matrix(1 0 0 1 5.2559 192.8496)" class="st5 st6 st7">60</text>
	</g>
	<g class="st0">
		<text transform="matrix(1 0 0 1 5.2559 147.8496)" class="st5 st6 st7">70</text>
	</g>
	<g class="st0">
		<text transform="matrix(1 0 0 1 5.2559 102.0996)" class="st5 st6 st7">80</text>
	</g>
	<g class="st0">
		<text transform="matrix(1 0 0 1 5.2559 57.0996)" class="st5 st6 st7">90</text>
	</g>
	<g class="st0">
		<text transform="matrix(1 0 0 1 2.929688e-03 11.3496)" class="st5 st6 st7">100</text>
	</g>
</g>
<g>
	<g>
		<path class="st8" d="M423,176.5c1.7-11.8,11-21.9,24.5-26.3c9.7-3.1,18.8-2.5,24.4-1.6"/>
		<g>
			<polygon class="st9" points="469.3,150.9 471,148.4 470.4,145.5 476.3,149.4 			"/>
		</g>
	</g>
</g>
<text transform="matrix(1 0 0 1 393.4371 180.4996)" class="st10 st11 st12">4/28</text>
<text transform="matrix(1 0 0 1 368.637 193.6993)" class="st10 st13 st12">Deadliest day</text>
<text transform="matrix(1 0 0 1 383.0369 206.8995)" class="st10 st11 st12">6 deaths</text>
<g>
	<text transform="matrix(1 0 0 1 132 478.4995)" class="st14 st6 st7">3/24</text>
</g>
<g>
	<text transform="matrix(1 0 0 1 617.0003 478.4995)" class="st14 st6 st7">5/19</text>
</g>
</svg>
