<?xml version="1.0" encoding="utf-8"?>
<!-- Generator: Adobe Illustrator 23.0.1, SVG Export Plug-In . SVG Version: 6.00 Build 0)  -->
<svg version="1.1" id="Layer_1" xmlns="http://www.w3.org/2000/svg" xmlns:xlink="http://www.w3.org/1999/xlink" x="0px" y="0px"
	 viewBox="0 0 637.5 487.5" style="enable-background:new 0 0 637.5 487.5;" xml:space="preserve">
<style type="text/css">
	.st0{clip-path:url(#SVGID_2_);}
	.st1{clip-path:url(#SVGID_4_);fill:none;stroke:#E8E8E8;stroke-width:0.75;stroke-miterlimit:10;}
	.st2{clip-path:url(#SVGID_4_);fill:#C71E1D;}
	.st3{clip-path:url(#SVGID_4_);fill:#C71E1D;fill-opacity:0.6;stroke:#000000;stroke-width:0.5;stroke-miterlimit:10;}
	.st4{clip-path:url(#SVGID_4_);fill:none;stroke:#333333;stroke-width:0.75;stroke-miterlimit:10;}
	.st5{fill:#A6A6A6;}
	.st6{font-family:'Roboto-Regular';}
	.st7{font-size:9px;}
	.st8{fill:none;stroke:#9A0000;stroke-width:0.75;stroke-miterlimit:10;}
	.st9{fill:#9A0000;}
	.st10{fill:#893333;}
	.st11{font-family:'ArialMT';}
	.st12{font-size:11px;}
	.st13{font-family:'Arial-BoldMT';}
	.st14{fill:#333333;}
</style>
<g>
	<defs>
		<rect id="SVGID_1_" width="637.5" height="487.5"/>
	</defs>
	<clipPath id="SVGID_2_">
		<use xlink:href="#SVGID_1_"  style="overflow:visible;"/>
	</clipPath>
	<g class="st0">
		<defs>
			<rect id="SVGID_3_" width="637.5" height="483"/>
		</defs>
		<clipPath id="SVGID_4_">
			<use xlink:href="#SVGID_3_"  style="overflow:visible;"/>
		</clipPath>
		<line class="st1" x1="21" y1="12" x2="637.5" y2="12"/>
		<line class="st1" x1="21" y1="53.2" x2="637.5" y2="53.2"/>
		<line class="st1" x1="21" y1="94.5" x2="637.5" y2="94.5"/>
		<line class="st1" x1="21" y1="135" x2="637.5" y2="135"/>
		<line class="st1" x1="21" y1="176.2" x2="637.5" y2="176.2"/>
		<line class="st1" x1="21" y1="217.5" x2="637.5" y2="217.5"/>
		<line class="st1" x1="21" y1="258.8" x2="637.5" y2="258.8"/>
		<line class="st1" x1="21" y1="299.2" x2="637.5" y2="299.2"/>
		<line class="st1" x1="21" y1="340.5" x2="637.5" y2="340.5"/>
		<line class="st1" x1="21" y1="381.8" x2="637.5" y2="381.8"/>
		<line class="st1" x1="21" y1="422.2" x2="637.5" y2="422.2"/>
		<path class="st2" d="M21,463.5h8.4H21z"/>
		<path class="st2" d="M29.4,463.5h8.4H29.4z"/>
		<path class="st2" d="M37.9,463.5h8.4H37.9z"/>
		<path class="st2" d="M46.3,463.5h8.4H46.3z"/>
		<path class="st2" d="M54.8,463.5h8.4H54.8z"/>
		<path class="st2" d="M63.2,463.5h8.4H63.2z"/>
		<path class="st2" d="M71.7,463.5h8.4H71.7z"/>
		<path class="st2" d="M80.1,463.5h8.4H80.1z"/>
		<path class="st2" d="M88.6,463.5H97H88.6z"/>
		<path class="st2" d="M97,463.5h8.4H97z"/>
		<path class="st2" d="M105.5,463.5h8.4H105.5z"/>
		<path class="st2" d="M113.9,463.5h8.4H113.9z"/>
		<path class="st2" d="M122.3,463.5h8.4H122.3z"/>
		<polygon class="st3" points="629.1,0 629.1,12 620.6,12 620.6,24.8 612.2,24.8 612.2,45 603.7,45 603.7,53.2 595.3,53.2 
			595.3,61.5 586.8,61.5 578.4,61.5 578.4,61.5 569.9,61.5 569.9,61.5 561.5,61.5 561.5,66 553,66 553,73.5 544.6,73.5 544.6,78 
			536.2,78 536.2,90 527.7,90 527.7,94.5 519.3,94.5 519.3,102.8 510.8,102.8 502.4,102.8 502.4,106.5 493.9,106.5 493.9,123 
			485.5,123 485.5,135 477,135 477,151.5 468.6,151.5 468.6,168 460.2,168 460.2,201 451.7,201 451.7,213 443.3,213 443.3,221.2 
			434.8,221.2 434.8,229.5 426.4,229.5 426.4,254.2 417.9,254.2 417.9,258.8 409.5,258.8 409.5,266.2 401,266.2 401,270.8 
			392.6,270.8 392.6,279 384.1,279 384.1,282.8 375.7,282.8 375.7,287.2 367.3,287.2 367.3,291 358.8,291 358.8,303.8 350.4,303.8 
			350.4,307.5 341.9,307.5 341.9,312 333.5,312 333.5,312 325,312 325,324 316.6,324 316.6,332.2 308.1,332.2 308.1,340.5 
			299.7,340.5 299.7,352.5 291.2,352.5 291.2,360.8 282.8,360.8 282.8,365.2 274.4,365.2 274.4,377.2 265.9,377.2 265.9,390 
			257.5,390 257.5,390 249,390 249,397.5 240.6,397.5 232.1,397.5 232.1,405.8 223.7,405.8 223.7,414 215.2,414 206.8,414 
			206.8,422.2 198.3,422.2 198.3,430.5 189.9,430.5 189.9,435 181.5,435 181.5,438.8 173,438.8 173,443.2 164.6,443.2 164.6,451.5 
			156.1,451.5 147.7,451.5 147.7,455.2 139.2,455.2 130.8,455.2 130.8,463.5 139.2,463.5 147.7,463.5 156.1,463.5 164.6,463.5 
			164.6,463.5 173,463.5 181.5,463.5 189.9,463.5 198.3,463.5 198.3,463.5 206.8,463.5 215.2,463.5 223.7,463.5 232.1,463.5 
			232.1,463.5 240.6,463.5 249,463.5 257.5,463.5 257.5,463.5 265.9,463.5 265.9,463.5 274.4,463.5 282.8,463.5 291.2,463.5 
			299.7,463.5 299.7,463.5 308.1,463.5 316.6,463.5 325,463.5 333.5,463.5 333.5,463.5 341.9,463.5 350.4,463.5 358.8,463.5 
			367.3,463.5 367.3,463.5 375.7,463.5 384.1,463.5 392.6,463.5 401,463.5 401,463.5 409.5,463.5 417.9,463.5 426.4,463.5 
			434.8,463.5 434.8,463.5 443.3,463.5 451.7,463.5 460.2,463.5 468.6,463.5 468.6,463.5 477,463.5 485.5,463.5 493.9,463.5 
			502.4,463.5 502.4,463.5 510.8,463.5 519.3,463.5 527.7,463.5 527.7,463.5 536.2,463.5 536.2,463.5 544.6,463.5 544.6,463.5 
			553,463.5 561.5,463.5 561.5,463.5 569.9,463.5 569.9,463.5 578.4,463.5 578.4,463.5 586.8,463.5 595.3,463.5 595.3,463.5 
			603.7,463.5 603.7,463.5 612.2,463.5 612.2,463.5 620.6,463.5 629.1,463.5 629.1,463.5 637.5,463.5 637.5,0 		"/>
		<line class="st4" x1="21" y1="463.5" x2="637.5" y2="463.5"/>
	</g>
	<g class="st0">
		<text transform="matrix(1 0 0 1 5.2559 424.5996)" class="st5 st6 st7">10</text>
	</g>
	<g class="st0">
		<text transform="matrix(1 0 0 1 5.2559 384.0996)" class="st5 st6 st7">20</text>
	</g>
	<g class="st0">
		<text transform="matrix(1 0 0 1 5.2559 342.8496)" class="st5 st6 st7">30</text>
	</g>
	<g class="st0">
		<text transform="matrix(1 0 0 1 5.2559 301.5996)" class="st5 st6 st7">40</text>
	</g>
	<g class="st0">
		<text transform="matrix(1 0 0 1 5.2559 261.0996)" class="st5 st6 st7">50</text>
	</g>
	<g class="st0">
		<text transform="matrix(1 0 0 1 5.2559 219.8496)" class="st5 st6 st7">60</text>
	</g>
	<g class="st0">
		<text transform="matrix(1 0 0 1 5.2559 178.5996)" class="st5 st6 st7">70</text>
	</g>
	<g class="st0">
		<text transform="matrix(1 0 0 1 5.2559 137.3496)" class="st5 st6 st7">80</text>
	</g>
	<g class="st0">
		<text transform="matrix(1 0 0 1 5.2559 96.8496)" class="st5 st6 st7">90</text>
	</g>
	<g class="st0">
		<text transform="matrix(1 0 0 1 2.929688e-03 55.5996)" class="st5 st6 st7">100</text>
	</g>
	<g class="st0">
		<text transform="matrix(1 0 0 1 2.929688e-03 14.3496)" class="st5 st6 st7">110</text>
	</g>
</g>
<g>
	<g>
		<path class="st8" d="M404.3,203.3c1.7-11.8,11-21.9,24.5-26.3c9.7-3.1,18.8-2.5,24.4-1.6"/>
		<g>
			<polygon class="st9" points="450.6,177.7 452.3,175.2 451.7,172.3 457.6,176.2 			"/>
		</g>
	</g>
</g>
<text transform="matrix(1 0 0 1 374.7444 207.2994)" class="st10 st11 st12">4/28</text>
<text transform="matrix(1 0 0 1 349.9443 220.4991)" class="st10 st13 st12">Deadliest day</text>
<text transform="matrix(1 0 0 1 364.3442 233.6993)" class="st10 st11 st12">6 deaths</text>
<g>
	<text transform="matrix(1 0 0 1 124.6947 476.8918)" class="st14 st6 st7">3/24</text>
</g>
<g>
	<text transform="matrix(1 0 0 1 617.924 476.8918)" class="st14 st6 st7">5/22</text>
</g>
</svg>
