<?xml version="1.0" encoding="utf-8"?>
<!-- Generator: Adobe Illustrator 23.0.1, SVG Export Plug-In . SVG Version: 6.00 Build 0)  -->
<svg version="1.1" id="Layer_1" xmlns="http://www.w3.org/2000/svg" xmlns:xlink="http://www.w3.org/1999/xlink" x="0px" y="0px"
	 viewBox="0 0 637.5 487.5" style="enable-background:new 0 0 637.5 487.5;" xml:space="preserve">
<style type="text/css">
	.st0{clip-path:url(#SVGID_2_);}
	.st1{clip-path:url(#SVGID_4_);fill:none;stroke:#E8E8E8;stroke-width:0.75;stroke-miterlimit:10;}
	.st2{clip-path:url(#SVGID_4_);fill:#C71E1D;}
	.st3{clip-path:url(#SVGID_4_);fill:#C71E1D;fill-opacity:0.6;stroke:#000000;stroke-width:0.5;stroke-miterlimit:10;}
	.st4{clip-path:url(#SVGID_4_);fill:none;stroke:#333333;stroke-width:0.75;stroke-miterlimit:10;}
	.st5{fill:#A6A6A6;}
	.st6{font-family:'Roboto-Regular';}
	.st7{font-size:9px;}
	.st8{fill:none;stroke:#9A0000;stroke-width:0.75;stroke-miterlimit:10;}
	.st9{fill:#9A0000;}
	.st10{fill:#893333;}
	.st11{font-family:'ArialMT';}
	.st12{font-size:11px;}
	.st13{font-family:'Arial-BoldMT';}
	.st14{fill:#333333;}
</style>
<g>
	<defs>
		<rect id="SVGID_1_" width="637.5" height="487.5"/>
	</defs>
	<clipPath id="SVGID_2_">
		<use xlink:href="#SVGID_1_"  style="overflow:visible;"/>
	</clipPath>
	<g class="st0">
		<defs>
			<rect id="SVGID_3_" width="637.5" height="483"/>
		</defs>
		<clipPath id="SVGID_4_">
			<use xlink:href="#SVGID_3_"  style="overflow:visible;"/>
		</clipPath>
		<line class="st1" x1="15.8" y1="37.5" x2="637.5" y2="37.5"/>
		<line class="st1" x1="15.8" y1="85.5" x2="637.5" y2="85.5"/>
		<line class="st1" x1="15.8" y1="132.8" x2="637.5" y2="132.8"/>
		<line class="st1" x1="15.8" y1="180" x2="637.5" y2="180"/>
		<line class="st1" x1="15.8" y1="227.2" x2="637.5" y2="227.2"/>
		<line class="st1" x1="15.8" y1="274.5" x2="637.5" y2="274.5"/>
		<line class="st1" x1="15.8" y1="321.8" x2="637.5" y2="321.8"/>
		<line class="st1" x1="15.8" y1="369" x2="637.5" y2="369"/>
		<line class="st1" x1="15.8" y1="416.2" x2="637.5" y2="416.2"/>
		<path class="st2" d="M15.8,463.5h9.4H15.8z"/>
		<path class="st2" d="M25.2,463.5h9.4H25.2z"/>
		<path class="st2" d="M34.6,463.5H44H34.6z"/>
		<path class="st2" d="M44,463.5h9.4H44z"/>
		<path class="st2" d="M53.4,463.5h9.4H53.4z"/>
		<path class="st2" d="M62.9,463.5h9.4H62.9z"/>
		<path class="st2" d="M72.3,463.5h9.4H72.3z"/>
		<path class="st2" d="M81.7,463.5h9.4H81.7z"/>
		<path class="st2" d="M91.1,463.5h9.4H91.1z"/>
		<path class="st2" d="M100.5,463.5h9.4H100.5z"/>
		<path class="st2" d="M110,463.5h9.4H110z"/>
		<path class="st2" d="M119.4,463.5h9.4H119.4z"/>
		<path class="st2" d="M128.8,463.5h9.4H128.8z"/>
		<polygon class="st3" points="627.7,0 627.7,0 618.3,0 618.3,4.5 608.9,4.5 608.9,14.2 599.5,14.2 599.5,18.8 590.1,18.8 590.1,33 
			580.6,33 580.6,37.5 571.2,37.5 571.2,47.2 561.8,47.2 552.4,47.2 552.4,51.8 543,51.8 543,71.2 533.5,71.2 533.5,85.5 
			524.1,85.5 524.1,104.2 514.7,104.2 514.7,123 505.3,123 505.3,160.5 495.8,160.5 495.8,174.8 486.4,174.8 486.4,184.5 477,184.5 
			477,194.2 467.6,194.2 467.6,222 458.2,222 458.2,227.2 448.8,227.2 448.8,236.2 439.4,236.2 439.4,241.5 430,241.5 430,250.5 
			420.6,250.5 420.6,255.8 411.2,255.8 411.2,260.2 401.8,260.2 401.8,264.8 392.3,264.8 392.3,279 382.9,279 382.9,283.5 
			373.5,283.5 373.5,288.8 364.1,288.8 354.7,288.8 354.7,303 345.3,303 345.3,312 335.9,312 335.9,321.8 326.5,321.8 326.5,336 
			317.1,336 317.1,345 307.7,345 307.7,350.2 298.3,350.2 298.3,364.5 288.9,364.5 288.9,378 279.5,378 279.4,378 270.1,378 
			270.1,387.8 260.7,387.8 251.3,387.8 251.3,397.5 241.8,397.5 241.8,406.5 232.4,406.5 223,406.5 223,416.2 213.6,416.2 
			213.6,426 204.2,426 204.2,430.5 194.7,430.5 194.7,435 185.3,435 185.3,439.5 175.9,439.5 175.9,449.2 166.5,449.2 157.1,449.2 
			157.1,453.8 147.6,453.8 138.2,453.8 138.2,463.5 147.6,463.5 157.1,463.5 166.5,463.5 175.9,463.5 175.9,463.5 185.3,463.5 
			194.7,463.5 204.2,463.5 213.6,463.5 223,463.5 232.4,463.5 241.8,463.5 251.3,463.5 260.7,463.5 270.1,463.5 279.4,463.5 
			279.5,463.5 288.9,463.5 298.3,463.5 307.7,463.5 317.1,463.5 317.1,463.5 326.5,463.5 335.9,463.5 345.3,463.5 345.3,463.5 
			354.7,463.5 364.1,463.5 373.5,463.5 382.9,463.5 383,463.5 392.3,463.5 401.8,463.5 411.2,463.5 420.6,463.5 420.6,463.5 
			430,463.5 439.4,463.5 448.8,463.5 448.8,463.5 458.2,463.5 467.6,463.5 477,463.5 486.4,463.5 486.5,463.5 495.8,463.5 
			505.3,463.5 514.7,463.5 524.1,463.5 524.1,463.5 533.5,463.5 543,463.5 552.4,463.5 552.4,463.5 561.8,463.5 571.2,463.5 
			580.6,463.5 590.1,463.5 590.1,463.5 599.5,463.5 608.9,463.5 618.3,463.5 627.7,463.5 627.7,463.5 637.2,463.5 637.2,0 		"/>
		<line class="st4" x1="15.8" y1="463.5" x2="637.5" y2="463.5"/>
	</g>
	<g class="st0">
		<text transform="matrix(1 0 0 1 5.859375e-03 418.5996)" class="st5 st6 st7">10</text>
	</g>
	<g class="st0">
		<text transform="matrix(1 0 0 1 5.859375e-03 371.3496)" class="st5 st6 st7">20</text>
	</g>
	<g class="st0">
		<text transform="matrix(1 0 0 1 5.859375e-03 324.0996)" class="st5 st6 st7">30</text>
	</g>
	<g class="st0">
		<text transform="matrix(1 0 0 1 5.859375e-03 276.8496)" class="st5 st6 st7">40</text>
	</g>
	<g class="st0">
		<text transform="matrix(1 0 0 1 5.859375e-03 229.5996)" class="st5 st6 st7">50</text>
	</g>
	<g class="st0">
		<text transform="matrix(1 0 0 1 5.859375e-03 182.3496)" class="st5 st6 st7">60</text>
	</g>
	<g class="st0">
		<text transform="matrix(1 0 0 1 5.859375e-03 135.0996)" class="st5 st6 st7">70</text>
	</g>
	<g class="st0">
		<text transform="matrix(1 0 0 1 5.859375e-03 87.8496)" class="st5 st6 st7">80</text>
	</g>
	<g class="st0">
		<text transform="matrix(1 0 0 1 5.859375e-03 39.8496)" class="st5 st6 st7">90</text>
	</g>
</g>
<g>
	<g>
		<path class="st8" d="M448,165.7c1.7-11.8,11-21.9,24.5-26.3c9.7-3.1,18.8-2.5,24.4-1.6"/>
		<g>
			<polygon class="st9" points="494.3,140.1 496,137.6 495.4,134.7 501.3,138.6 			"/>
		</g>
	</g>
</g>
<text transform="matrix(1 0 0 1 418.4998 169.6259)" class="st10 st11 st12">4/28</text>
<text transform="matrix(1 0 0 1 393.6998 182.8256)" class="st10 st13 st12">Deadliest day</text>
<text transform="matrix(1 0 0 1 408.0997 196.0258)" class="st10 st11 st12">6 deaths</text>
<g>
	<text transform="matrix(1 0 0 1 132.6315 477.999)" class="st14 st6 st7">3/24</text>
</g>
<g>
	<text transform="matrix(1 0 0 1 617.8884 477.999)" class="st14 st6 st7">5/15</text>
</g>
</svg>
