<?xml version="1.0" encoding="utf-8"?>
<!-- Generator: Adobe Illustrator 23.0.1, SVG Export Plug-In . SVG Version: 6.00 Build 0)  -->
<svg version="1.1" id="Layer_1" xmlns="http://www.w3.org/2000/svg" xmlns:xlink="http://www.w3.org/1999/xlink" x="0px" y="0px"
	 viewBox="0 0 637.5 487.5" style="enable-background:new 0 0 637.5 487.5;" xml:space="preserve">
<style type="text/css">
	.st0{clip-path:url(#SVGID_2_);}
	.st1{clip-path:url(#SVGID_4_);fill:none;stroke:#E8E8E8;stroke-width:0.75;stroke-miterlimit:10;}
	.st2{clip-path:url(#SVGID_4_);fill:#C71E1D;}
	.st3{clip-path:url(#SVGID_4_);fill:#C71E1D;fill-opacity:0.6;stroke:#000000;stroke-width:0.5;stroke-miterlimit:10;}
	.st4{clip-path:url(#SVGID_4_);fill:none;stroke:#333333;stroke-width:0.75;stroke-miterlimit:10;}
	.st5{fill:#A6A6A6;}
	.st6{font-family:'Roboto-Regular';}
	.st7{font-size:9px;}
	.st8{fill:none;stroke:#9A0000;stroke-width:0.75;stroke-miterlimit:10;}
	.st9{fill:#9A0000;}
	.st10{fill:#893333;}
	.st11{font-family:'ArialMT';}
	.st12{font-size:11px;}
	.st13{font-family:'Arial-BoldMT';}
	.st14{fill:#333333;}
</style>
<g>
	<defs>
		<rect id="SVGID_1_" width="637.5" height="487.5"/>
	</defs>
	<clipPath id="SVGID_2_">
		<use xlink:href="#SVGID_1_"  style="overflow:visible;"/>
	</clipPath>
	<g class="st0">
		<defs>
			<rect id="SVGID_3_" width="637.5" height="483"/>
		</defs>
		<clipPath id="SVGID_4_">
			<use xlink:href="#SVGID_3_"  style="overflow:visible;"/>
		</clipPath>
		<line class="st1" x1="21" y1="67.5" x2="637.5" y2="67.5"/>
		<line class="st1" x1="21" y1="146.2" x2="637.5" y2="146.2"/>
		<line class="st1" x1="21" y1="225.8" x2="637.5" y2="225.8"/>
		<line class="st1" x1="21" y1="305.2" x2="637.5" y2="305.2"/>
		<line class="st1" x1="21" y1="384" x2="637.5" y2="384"/>
		<path class="st2" d="M21,463.5h8.1H21z"/>
		<path class="st2" d="M29.1,463.5h8.1H29.1z"/>
		<path class="st2" d="M37.2,463.5h8.1H37.2z"/>
		<path class="st2" d="M45.3,463.5h8.1H45.3z"/>
		<path class="st2" d="M53.4,463.5h8.1H53.4z"/>
		<path class="st2" d="M61.6,463.5h8.1H61.6z"/>
		<path class="st2" d="M69.7,463.5h8.1H69.7z"/>
		<path class="st2" d="M77.8,463.5h8.1H77.8z"/>
		<path class="st2" d="M85.9,463.5H94H85.9z"/>
		<path class="st2" d="M94,463.5h8.1H94z"/>
		<path class="st2" d="M102.1,463.5h8.1H102.1z"/>
		<path class="st2" d="M110.2,463.5h8.1H110.2z"/>
		<path class="st2" d="M118.3,463.5h8.1H118.3z"/>
		<polygon class="st3" points="629.4,0 629.4,3.8 621.3,3.8 621.3,8.2 613.2,8.2 613.2,15.8 605.1,15.8 605.1,27.8 596.9,27.8 
			596.9,39.8 588.8,39.8 588.8,59.2 580.7,59.2 580.7,67.5 572.6,67.5 572.6,75 564.5,75 564.5,75 556.4,75 548.3,75 548.3,75 
			540.2,75 540.2,79.5 532,79.5 532,87 523.9,87 523.9,90.8 515.8,90.8 515.8,102.8 507.7,102.8 507.7,107.2 499.6,107.2 
			499.6,114.8 491.5,114.8 483.4,114.8 483.4,118.5 475.3,118.5 475.3,135 467.2,135 467.2,146.2 459,146.2 459,162.8 450.9,162.8 
			450.9,178.5 442.8,178.5 442.8,210 434.7,210 434.7,222 426.6,222 426.6,229.5 418.5,229.5 418.5,237.8 410.4,237.8 410.4,261.8 
			402.3,261.8 402.3,265.5 394.1,265.5 394.1,273 386,273 386,277.5 377.9,277.5 377.9,285 369.8,285 369.8,289.5 361.7,289.5 
			361.7,293.2 353.6,293.2 353.6,297 345.5,297 345.5,309 337.4,309 337.4,312.8 329.2,312.8 329.2,317.2 321.1,317.2 313,317.2 
			313,328.5 304.9,328.5 304.9,336.8 296.8,336.8 296.8,345 288.7,345 288.7,356.2 280.6,356.2 280.6,364.5 272.5,364.5 
			272.5,368.2 264.4,368.2 264.4,380.2 256.2,380.2 256.2,392.2 248.1,392.2 240,392.2 240,399.8 231.9,399.8 223.8,399.8 
			223.8,408 215.7,408 215.7,416.2 207.6,416.2 199.5,416.2 199.5,423.8 191.3,423.8 191.3,432 183.2,432 183.2,435.8 175.1,435.8 
			175.1,439.5 167,439.5 167,444 158.9,444 158.9,451.5 150.8,451.5 142.7,451.5 142.7,455.2 134.6,455.2 126.5,455.2 126.5,463.5 
			134.6,463.5 142.7,463.5 142.7,463.5 150.8,463.5 158.9,463.5 167,463.5 175.1,463.5 183.2,463.5 191.3,463.5 199.5,463.5 
			207.6,463.5 215.7,463.5 223.8,463.5 231.9,463.5 240,463.5 240,463.5 248.1,463.5 256.2,463.5 256.2,463.5 264.4,463.5 
			272.5,463.5 280.6,463.5 288.7,463.5 296.8,463.5 304.9,463.5 313,463.5 321.1,463.5 329.2,463.5 337.4,463.5 345.5,463.5 
			353.6,463.5 361.7,463.5 369.8,463.5 377.9,463.5 386,463.5 394.1,463.5 402.3,463.5 410.4,463.5 410.4,463.5 418.5,463.5 
			426.6,463.5 434.7,463.5 442.8,463.5 450.9,463.5 459,463.5 467.2,463.5 475.3,463.5 483.4,463.5 491.5,463.5 499.6,463.5 
			507.7,463.5 515.8,463.5 523.9,463.5 523.9,463.5 532,463.5 540.2,463.5 540.2,463.5 548.3,463.5 548.3,463.5 556.4,463.5 
			564.5,463.5 564.5,463.5 572.6,463.5 580.7,463.5 580.7,463.5 588.8,463.5 588.8,463.5 596.9,463.5 605.1,463.5 605.1,463.5 
			613.2,463.5 621.3,463.5 621.3,463.5 629.4,463.5 637.5,463.5 637.5,0 		"/>
		<line class="st4" x1="21" y1="463.5" x2="637.5" y2="463.5"/>
	</g>
	<g class="st0">
		<text transform="matrix(1 0 0 1 5.2559 386.3496)" class="st5 st6 st7">20</text>
	</g>
	<g class="st0">
		<text transform="matrix(1 0 0 1 5.2559 307.5996)" class="st5 st6 st7">40</text>
	</g>
	<g class="st0">
		<text transform="matrix(1 0 0 1 5.2559 228.0996)" class="st5 st6 st7">60</text>
	</g>
	<g class="st0">
		<text transform="matrix(1 0 0 1 5.2559 148.5996)" class="st5 st6 st7">80</text>
	</g>
	<g class="st0">
		<text transform="matrix(1 0 0 1 2.929688e-03 69.8496)" class="st5 st6 st7">100</text>
	</g>
</g>
<g>
	<g>
		<path class="st8" d="M387.5,212.3c1.7-11.8,11-21.9,24.5-26.3c9.7-3.1,18.8-2.5,24.4-1.6"/>
		<g>
			<polygon class="st9" points="433.8,186.7 435.5,184.2 434.9,181.3 440.8,185.2 			"/>
		</g>
	</g>
</g>
<text transform="matrix(1 0 0 1 357.9862 216.2936)" class="st10 st11 st12">4/28</text>
<text transform="matrix(1 0 0 1 333.1862 229.4933)" class="st10 st13 st12">Deadliest day</text>
<text transform="matrix(1 0 0 1 347.5861 242.6935)" class="st10 st11 st12">6 deaths</text>
<g>
	<text transform="matrix(1 0 0 1 618.8629 478.938)" class="st14 st6 st7">5/25</text>
</g>
<g>
	<text transform="matrix(1 0 0 1 120.7335 478.9378)" class="st14 st6 st7">3/24</text>
</g>
</svg>
