<?xml version="1.0" encoding="utf-8"?>
<!-- Generator: Adobe Illustrator 23.0.1, SVG Export Plug-In . SVG Version: 6.00 Build 0)  -->
<svg version="1.1" id="Layer_1" xmlns="http://www.w3.org/2000/svg" xmlns:xlink="http://www.w3.org/1999/xlink" x="0px" y="0px"
	 viewBox="0 0 637.5 487.5" style="enable-background:new 0 0 637.5 487.5;" xml:space="preserve">
<style type="text/css">
	.st0{clip-path:url(#SVGID_2_);}
	.st1{clip-path:url(#SVGID_4_);fill:none;stroke:#E8E8E8;stroke-width:0.75;stroke-miterlimit:10;}
	.st2{clip-path:url(#SVGID_4_);fill:#C71E1D;}
	.st3{clip-path:url(#SVGID_4_);fill:#C71E1D;fill-opacity:0.6;stroke:#000000;stroke-width:0.5;stroke-miterlimit:10;}
	.st4{clip-path:url(#SVGID_4_);fill:none;stroke:#333333;stroke-width:0.75;stroke-miterlimit:10;}
	.st5{fill:#A6A6A6;}
	.st6{font-family:'Roboto-Regular';}
	.st7{font-size:9px;}
	.st8{fill:none;stroke:#9A0000;stroke-width:0.75;stroke-miterlimit:10;}
	.st9{fill:#9A0000;}
	.st10{fill:#893333;}
	.st11{font-family:'ArialMT';}
	.st12{font-size:11px;}
	.st13{font-family:'Arial-BoldMT';}
	.st14{fill:#333333;}
</style>
<g>
	<defs>
		<rect id="SVGID_1_" width="637.5" height="487.5"/>
	</defs>
	<clipPath id="SVGID_2_">
		<use xlink:href="#SVGID_1_"  style="overflow:visible;"/>
	</clipPath>
	<g class="st0">
		<defs>
			<rect id="SVGID_3_" width="637.5" height="483"/>
		</defs>
		<clipPath id="SVGID_4_">
			<use xlink:href="#SVGID_3_"  style="overflow:visible;"/>
		</clipPath>
		<line class="st1" x1="15.8" y1="37.5" x2="637.5" y2="37.5"/>
		<line class="st1" x1="15.8" y1="85.5" x2="637.5" y2="85.5"/>
		<line class="st1" x1="15.8" y1="132.8" x2="637.5" y2="132.8"/>
		<line class="st1" x1="15.8" y1="180" x2="637.5" y2="180"/>
		<line class="st1" x1="15.8" y1="227.2" x2="637.5" y2="227.2"/>
		<line class="st1" x1="15.8" y1="274.5" x2="637.5" y2="274.5"/>
		<line class="st1" x1="15.8" y1="321.8" x2="637.5" y2="321.8"/>
		<line class="st1" x1="15.8" y1="369" x2="637.5" y2="369"/>
		<line class="st1" x1="15.8" y1="416.2" x2="637.5" y2="416.2"/>
		<path class="st2" d="M15.8,463.5h9.1H15.8z"/>
		<path class="st2" d="M24.9,463.5H34H24.9z"/>
		<path class="st2" d="M34,463.5h9.1H34z"/>
		<path class="st2" d="M43.2,463.5h9.1H43.2z"/>
		<path class="st2" d="M52.3,463.5h9.1H52.3z"/>
		<path class="st2" d="M61.5,463.5h9.1H61.5z"/>
		<path class="st2" d="M70.6,463.5h9.1H70.6z"/>
		<path class="st2" d="M79.8,463.5h9.1H79.8z"/>
		<path class="st2" d="M88.9,463.5H98H88.9z"/>
		<path class="st2" d="M98,463.5h9.1H98z"/>
		<path class="st2" d="M107.2,463.5h9.1H107.2z"/>
		<path class="st2" d="M116.3,463.5h9.1H116.3z"/>
		<path class="st2" d="M125.5,463.5h9.1H125.5z"/>
		<polygon class="st3" points="628.2,0 619.2,0 619.1,0 610.1,0 600.9,0 600.9,4.5 591.8,4.5 591.8,14.2 582.6,14.2 582.6,18.8 
			573.5,18.8 573.5,33 564.3,33 564.3,37.5 555.2,37.5 555.2,47.2 546.1,47.2 536.9,47.2 536.9,51.8 527.8,51.8 527.8,71.2 
			518.6,71.2 518.6,85.5 509.5,85.5 509.5,104.2 500.3,104.2 500.3,123 491.2,123 491.2,160.5 482.1,160.5 482.1,174.8 472.9,174.8 
			472.9,184.5 463.8,184.5 463.8,194.2 454.6,194.2 454.6,222 445.5,222 445.5,227.2 436.3,227.2 436.3,236.2 427.2,236.2 
			427.2,241.5 418.1,241.5 418.1,250.5 408.9,250.5 408.9,255.8 399.8,255.8 399.8,260.2 390.6,260.2 390.6,264.8 381.5,264.8 
			381.5,279 372.3,279 372.3,283.5 363.2,283.5 363.2,288.8 354.1,288.8 344.9,288.8 344.9,303 335.8,303 335.8,312 326.6,312 
			326.6,321.8 317.5,321.8 317.5,336 308.3,336 308.3,345 299.2,345 299.2,350.2 290.1,350.2 290.1,364.5 280.9,364.5 280.9,378 
			271.8,378 271.8,378 262.6,378 262.6,387.8 253.5,387.8 244.3,387.8 244.3,397.5 235.2,397.5 235.2,406.5 226,406.5 226,406.5 
			216.9,406.5 216.9,416.2 207.8,416.2 207.8,426 198.6,426 198.6,430.5 189.5,430.5 189.5,435 180.3,435 180.3,439.5 171.2,439.5 
			171.2,449.2 162,449.2 152.9,449.2 152.9,453.8 143.8,453.8 134.6,453.8 134.6,463.5 143.8,463.5 152.9,463.5 162,463.5 
			171.2,463.5 180.3,463.5 180.3,463.5 189.5,463.5 189.5,463.5 198.6,463.5 207.8,463.5 216.9,463.5 226,463.5 226,463.5 
			235.2,463.5 235.2,463.5 244.3,463.5 253.5,463.5 262.6,463.5 271.8,463.5 271.8,463.5 280.9,463.5 280.9,463.5 290.1,463.5 
			299.2,463.5 308.3,463.5 317.5,463.5 326.6,463.5 326.6,463.5 335.8,463.5 335.8,463.5 344.9,463.5 354.1,463.5 363.2,463.5 
			372.3,463.5 381.5,463.5 381.5,463.5 390.6,463.5 390.6,463.5 399.8,463.5 408.9,463.5 418.1,463.5 427.2,463.5 427.2,463.5 
			436.3,463.5 436.3,463.5 445.5,463.5 454.6,463.5 463.8,463.5 472.9,463.5 482.1,463.5 482.1,463.5 491.2,463.5 491.2,463.5 
			500.3,463.5 509.5,463.5 518.6,463.5 527.8,463.5 536.9,463.5 546.1,463.5 555.2,463.5 564.3,463.5 564.4,463.5 573.5,463.5 
			582.6,463.5 591.8,463.5 600.9,463.5 610.1,463.5 619.1,463.5 619.2,463.5 628.2,463.5 637.4,463.5 637.4,0 		"/>
		<line class="st4" x1="15.8" y1="463.5" x2="637.5" y2="463.5"/>
	</g>
	<g class="st0">
		<text transform="matrix(1 0 0 1 5.859375e-03 418.5996)" class="st5 st6 st7">10</text>
	</g>
	<g class="st0">
		<text transform="matrix(1 0 0 1 5.859375e-03 371.3496)" class="st5 st6 st7">20</text>
	</g>
	<g class="st0">
		<text transform="matrix(1 0 0 1 5.859375e-03 324.0996)" class="st5 st6 st7">30</text>
	</g>
	<g class="st0">
		<text transform="matrix(1 0 0 1 5.859375e-03 276.8496)" class="st5 st6 st7">40</text>
	</g>
	<g class="st0">
		<text transform="matrix(1 0 0 1 5.859375e-03 229.5996)" class="st5 st6 st7">50</text>
	</g>
	<g class="st0">
		<text transform="matrix(1 0 0 1 5.859375e-03 182.3496)" class="st5 st6 st7">60</text>
	</g>
	<g class="st0">
		<text transform="matrix(1 0 0 1 5.859375e-03 135.0996)" class="st5 st6 st7">70</text>
	</g>
	<g class="st0">
		<text transform="matrix(1 0 0 1 5.859375e-03 87.8496)" class="st5 st6 st7">80</text>
	</g>
	<g class="st0">
		<text transform="matrix(1 0 0 1 5.859375e-03 39.8496)" class="st5 st6 st7">90</text>
	</g>
</g>
<g>
	<g>
		<path class="st8" d="M435.9,165.5c1.7-11.8,11-21.9,24.5-26.3c9.7-3.1,18.8-2.5,24.4-1.6"/>
		<g>
			<polygon class="st9" points="482.2,139.9 483.9,137.4 483.3,134.5 489.2,138.4 			"/>
		</g>
	</g>
</g>
<text transform="matrix(1 0 0 1 406.3312 169.438)" class="st10 st11 st12">4/28</text>
<text transform="matrix(1 0 0 1 381.5311 182.6377)" class="st10 st13 st12">Deadliest day</text>
<text transform="matrix(1 0 0 1 395.931 195.8379)" class="st10 st11 st12">6 deaths</text>
<g>
	<text transform="matrix(1 0 0 1 129.409 477.9096)" class="st14 st6 st7">3/24</text>
</g>
<g>
	<text transform="matrix(1 0 0 1 617.5041 477.9097)" class="st14 st6 st7">5/17</text>
</g>
</svg>
