<?xml version="1.0" encoding="utf-8"?>
<!-- Generator: Adobe Illustrator 23.0.1, SVG Export Plug-In . SVG Version: 6.00 Build 0)  -->
<svg version="1.1" id="Layer_1" xmlns="http://www.w3.org/2000/svg" xmlns:xlink="http://www.w3.org/1999/xlink" x="0px" y="0px"
	 viewBox="0 0 637.5 487.5" style="enable-background:new 0 0 637.5 487.5;" xml:space="preserve">
<style type="text/css">
	.st0{clip-path:url(#SVGID_2_);enable-background:new    ;}
	.st1{clip-path:url(#SVGID_4_);fill:none;stroke:#E8E8E8;stroke-width:0.75;stroke-miterlimit:10;}
	.st2{clip-path:url(#SVGID_4_);fill:#C71E1D;}
	.st3{clip-path:url(#SVGID_4_);fill:#C71E1D;fill-opacity:0.6;stroke:#000000;stroke-width:0.5;stroke-miterlimit:10;}
	.st4{clip-path:url(#SVGID_4_);fill:none;stroke:#333333;stroke-width:0.75;stroke-miterlimit:10;}
	.st5{clip-path:url(#SVGID_4_);}
	.st6{fill:#A6A6A6;}
	.st7{font-family:'Roboto-Regular';}
	.st8{font-size:9px;}
	.st9{fill:none;stroke:#9A0000;stroke-width:0.75;stroke-miterlimit:10;}
	.st10{fill:#9A0000;}
	.st11{fill:#893333;}
	.st12{font-family:'ArialMT';}
	.st13{font-size:11px;}
	.st14{font-family:'Arial-BoldMT';}
	.st15{fill:#333333;}
</style>
<g>
	<defs>
		<rect id="SVGID_1_" width="637.5" height="487.5"/>
	</defs>
	<clipPath id="SVGID_2_">
		<use xlink:href="#SVGID_1_"  style="overflow:visible;"/>
	</clipPath>
	<g class="st0">
		<g>
			<defs>
				<rect id="SVGID_3_" width="637.5" height="487.5"/>
			</defs>
			<clipPath id="SVGID_4_">
				<use xlink:href="#SVGID_3_"  style="overflow:visible;"/>
			</clipPath>
			<line class="st1" x1="15.8" y1="24.8" x2="637.5" y2="24.8"/>
			<line class="st1" x1="15.8" y1="73.5" x2="637.5" y2="73.5"/>
			<line class="st1" x1="15.8" y1="122.2" x2="637.5" y2="122.2"/>
			<line class="st1" x1="15.8" y1="171" x2="637.5" y2="171"/>
			<line class="st1" x1="15.8" y1="219.8" x2="637.5" y2="219.8"/>
			<line class="st1" x1="15.8" y1="268.5" x2="637.5" y2="268.5"/>
			<line class="st1" x1="15.8" y1="317.2" x2="637.5" y2="317.2"/>
			<line class="st1" x1="15.8" y1="366" x2="637.5" y2="366"/>
			<line class="st1" x1="15.8" y1="414.8" x2="637.5" y2="414.8"/>
			<path class="st2" d="M15.8,463.5h9.9H15.8z"/>
			<path class="st2" d="M25.6,463.5h9.9H25.6z"/>
			<path class="st2" d="M35.5,463.5h9.9H35.5z"/>
			<path class="st2" d="M45.4,463.5h9.9H45.4z"/>
			<path class="st2" d="M55.2,463.5h9.9H55.2z"/>
			<path class="st2" d="M65.1,463.5H75H65.1z"/>
			<path class="st2" d="M75,463.5h9.9H75z"/>
			<path class="st2" d="M84.8,463.5h9.9H84.8z"/>
			<path class="st2" d="M94.7,463.5h9.9H94.7z"/>
			<path class="st2" d="M104.6,463.5h9.9H104.6z"/>
			<path class="st2" d="M114.4,463.5h9.9H114.4z"/>
			<path class="st2" d="M124.3,463.5h9.9H124.3z"/>
			<path class="st2" d="M134.2,463.5h9.9H134.2z"/>
			<polygon class="st3" points="627.4,0 627.4,5.3 617.5,5.3 617.5,19.5 607.7,19.5 607.7,24.8 597.9,24.8 597.9,34.6 588,34.6 
				588,34.6 578.2,34.6 578.2,39.1 568.3,39.1 568.3,58.5 558.5,58.5 558.5,73.5 548.7,73.5 548.7,93 538.8,93 538.8,112.5 
				529,112.5 529,151.5 519.2,151.5 519.2,165.8 509.3,165.8 509.3,175.5 499.4,175.5 499.4,185.3 489.6,185.3 489.6,214.5 
				479.7,214.5 479.7,219.8 469.9,219.8 469.9,229.5 460,229.5 460,234 450.2,234 450.2,243.8 440.3,243.8 440.3,249 430.4,249 
				430.4,253.5 420.6,253.5 420.6,258.8 410.7,258.8 410.7,273 400.9,273 400.9,278.3 391.1,278.3 391.1,282.8 381.2,282.8 
				371.3,282.8 371.3,297.8 361.5,297.8 361.5,307.5 351.7,307.5 351.7,317.3 341.8,317.3 341.8,331.5 331.9,331.5 331.9,341.3 
				322.1,341.3 322.1,346.5 312.2,346.5 312.2,360.8 302.4,360.8 302.4,375.8 292.5,375.8 292.5,375.8 282.7,375.8 282.7,385.5 
				272.9,385.5 272.8,385.5 263,385.5 263,395.3 253.1,395.3 253.1,405 243.2,405 233.4,405 233.4,414.8 223.5,414.8 223.5,424.5 
				213.7,424.5 213.7,429 203.8,429 203.8,434.3 193.9,434.3 193.9,438.8 184.1,438.8 184.1,448.5 174.3,448.5 174.3,448.5 
				164.4,448.5 164.4,453.8 154.6,453.8 154.6,453.8 144.8,453.8 144.8,463.5 154.6,463.5 154.6,463.5 164.4,463.5 174.3,463.5 
				174.3,463.5 184.1,463.5 193.9,463.5 194,463.5 203.8,463.5 213.7,463.5 223.5,463.5 223.6,463.5 233.4,463.5 233.4,463.5 
				243.2,463.5 253.1,463.5 263,463.5 272.8,463.5 272.9,463.5 282.7,463.5 292.5,463.5 292.5,463.5 302.4,463.5 312.2,463.5 
				322.1,463.5 322.1,463.6 332,463.6 332,463.5 341.8,463.5 351.7,463.5 361.5,463.5 361.5,463.6 371.4,463.6 371.4,463.5 
				381.2,463.5 391.1,463.5 400.9,463.5 400.9,463.5 410.7,463.5 420.6,463.5 420.6,463.5 430.4,463.5 440.3,463.5 440.3,463.5 
				450.2,463.5 460,463.5 460,463.5 469.9,463.5 479.7,463.5 479.7,463.5 489.6,463.5 499.4,463.5 509.3,463.5 509.3,463.5 
				519.2,463.5 529,463.5 529,463.5 538.8,463.5 538.8,463.5 548.7,463.5 548.7,463.5 558.5,463.5 558.5,463.5 568.3,463.5 
				568.3,463.6 578.2,463.6 588,463.6 588,463.6 597.9,463.6 607.7,463.6 607.7,463.5 617.5,463.5 627.4,463.5 637.3,463.5 637.3,0 
							"/>
			<line class="st4" x1="15.8" y1="463.5" x2="637.5" y2="463.5"/>
			<g class="st5">
				<text transform="matrix(1 0 0 1 0.3926 417.0996)" class="st6 st7 st8">10</text>
			</g>
			<g class="st5">
				<text transform="matrix(1 0 0 1 0.3926 368.3496)" class="st6 st7 st8">20</text>
			</g>
			<g class="st5">
				<text transform="matrix(1 0 0 1 0.3926 319.5996)" class="st6 st7 st8">30</text>
			</g>
			<g class="st5">
				<text transform="matrix(1 0 0 1 0.3926 270.8496)" class="st6 st7 st8">40</text>
			</g>
			<g class="st5">
				<text transform="matrix(1 0 0 1 0.3926 222.0996)" class="st6 st7 st8">50</text>
			</g>
			<g class="st5">
				<text transform="matrix(1 0 0 1 0.3926 173.3496)" class="st6 st7 st8">60</text>
			</g>
			<g class="st5">
				<text transform="matrix(1 0 0 1 0.3926 124.5996)" class="st6 st7 st8">70</text>
			</g>
			<g class="st5">
				<text transform="matrix(1 0 0 1 0.3926 75.8496)" class="st6 st7 st8">80</text>
			</g>
			<g class="st5">
				<text transform="matrix(1 0 0 1 0.3926 27.0996)" class="st6 st7 st8">90</text>
			</g>
		</g>
	</g>
</g>
<g>
	<g>
		<path class="st9" d="M469.4,158.3c1.7-11.8,11-21.9,24.5-26.3c9.7-3.1,18.8-2.5,24.4-1.6"/>
		<g>
			<polygon class="st10" points="515.7,132.7 517.4,130.2 516.8,127.3 522.7,131.2 			"/>
		</g>
	</g>
</g>
<text transform="matrix(1 0 0 1 439.8613 162.2739)" class="st11 st12 st13">4/28</text>
<text transform="matrix(1 0 0 1 415.0613 175.4736)" class="st11 st14 st13">Deadliest day</text>
<text transform="matrix(1 0 0 1 429.4612 188.6738)" class="st11 st12 st13">6 deaths</text>
<g>
	<text transform="matrix(1 0 0 1 138.7277 478.5361)" class="st15 st7 st8">3/24</text>
</g>
<g>
	<text transform="matrix(1 0 0 1 617.5689 478.5363)" class="st15 st7 st8">5/12</text>
</g>
</svg>
