<?xml version="1.0" encoding="utf-8"?>
<!-- Generator: Adobe Illustrator 23.0.1, SVG Export Plug-In . SVG Version: 6.00 Build 0)  -->
<svg version="1.1" id="Layer_1" xmlns="http://www.w3.org/2000/svg" xmlns:xlink="http://www.w3.org/1999/xlink" x="0px" y="0px"
	 viewBox="0 0 637.5 487.5" style="enable-background:new 0 0 637.5 487.5;" xml:space="preserve">
<style type="text/css">
	.st0{clip-path:url(#SVGID_2_);}
	.st1{clip-path:url(#SVGID_4_);fill:none;stroke:#E8E8E8;stroke-width:0.75;stroke-miterlimit:10;}
	.st2{clip-path:url(#SVGID_4_);fill:#C71E1D;}
	.st3{clip-path:url(#SVGID_4_);fill:#C71E1D;fill-opacity:0.6;stroke:#000000;stroke-width:0.5;stroke-miterlimit:10;}
	.st4{clip-path:url(#SVGID_4_);fill:none;stroke:#333333;stroke-width:0.75;stroke-miterlimit:10;}
	.st5{fill:#A6A6A6;}
	.st6{font-family:'Roboto-Regular';}
	.st7{font-size:9px;}
	.st8{fill:none;stroke:#9A0000;stroke-width:0.75;stroke-miterlimit:10;}
	.st9{fill:#9A0000;}
	.st10{fill:#893333;}
	.st11{font-family:'ArialMT';}
	.st12{font-size:11px;}
	.st13{font-family:'Arial-BoldMT';}
	.st14{fill:#333333;}
</style>
<g>
	<defs>
		<rect id="SVGID_1_" width="637.5" height="487.5"/>
	</defs>
	<clipPath id="SVGID_2_">
		<use xlink:href="#SVGID_1_"  style="overflow:visible;"/>
	</clipPath>
	<g class="st0">
		<defs>
			<rect id="SVGID_3_" width="637.5" height="483"/>
		</defs>
		<clipPath id="SVGID_4_">
			<use xlink:href="#SVGID_3_"  style="overflow:visible;"/>
		</clipPath>
		<line class="st1" x1="21" y1="54.8" x2="637.5" y2="54.8"/>
		<line class="st1" x1="21" y1="123" x2="637.5" y2="123"/>
		<line class="st1" x1="21" y1="190.5" x2="637.5" y2="190.5"/>
		<line class="st1" x1="21" y1="258.8" x2="637.5" y2="258.8"/>
		<line class="st1" x1="21" y1="327" x2="637.5" y2="327"/>
		<line class="st1" x1="21" y1="395.2" x2="637.5" y2="395.2"/>
		<path class="st2" d="M21,463.5h7.3H21z"/>
		<path class="st2" d="M28.3,463.5h7.3H28.3z"/>
		<path class="st2" d="M35.7,463.5H43H35.7z"/>
		<path class="st2" d="M43,463.5h7.3H43z"/>
		<path class="st2" d="M50.4,463.5h7.3H50.4z"/>
		<path class="st2" d="M57.7,463.5H65H57.7z"/>
		<path class="st2" d="M65,463.5h7.3H65z"/>
		<path class="st2" d="M72.4,463.5h7.3H72.4z"/>
		<path class="st2" d="M79.7,463.5h7.3H79.7z"/>
		<path class="st2" d="M87.1,463.5h7.3H87.1z"/>
		<path class="st2" d="M94.4,463.5h7.3H94.4z"/>
		<path class="st2" d="M101.7,463.5h7.3H101.7z"/>
		<path class="st2" d="M109.1,463.5h7.3H109.1z"/>
		<polygon class="st3" points="629.6,0.2 629.6,10.7 622.3,10.7 614.9,10.7 614.9,10.7 607.6,10.7 607.6,13.7 600.2,13.7 
			600.2,37.7 592.9,37.7 592.9,54.9 585.6,54.9 585.6,57.9 578.2,57.9 578.2,64.7 570.9,64.7 570.9,68.4 563.5,68.4 563.5,71.4 
			556.2,71.4 556.2,78.9 548.9,78.9 548.9,88.7 541.5,88.7 541.5,99.2 534.2,99.2 534.2,115.7 526.8,115.7 526.8,123.2 519.5,123.2 
			519.5,129.9 512.2,129.9 504.8,129.9 497.5,129.9 490.1,129.9 490.1,132.9 482.8,132.9 482.8,139.7 475.5,139.7 475.5,143.4 
			468.1,143.4 468.1,153.2 460.8,153.2 460.8,156.9 453.4,156.9 453.4,163.7 446.1,163.7 438.8,163.7 438.8,167.4 431.4,167.4 
			431.4,180.9 424.1,180.9 424.1,190.7 416.8,190.7 416.8,204.9 409.4,204.9 409.4,218.4 402.1,218.4 402.1,245.4 394.7,245.4 
			394.7,255.9 387.4,255.9 387.4,262.7 380.1,262.7 380.1,269.4 372.7,269.4 372.7,289.7 365.4,289.7 365.4,293.4 358,293.4 
			358,300.2 350.7,300.2 350.7,303.2 343.4,303.2 343.4,310.7 336,310.7 336,313.7 328.7,313.7 328.7,317.4 321.3,317.4 
			321.3,320.4 314,320.4 314,330.9 306.7,330.9 306.7,333.9 299.3,333.9 299.3,337.7 292,337.7 284.6,337.7 284.6,347.4 
			277.3,347.4 277.3,354.9 270,354.9 270,361.7 262.6,361.7 262.6,371.4 255.3,371.4 255.3,378 248.1,378 248.1,381.8 240.8,381.8 
			240.8,392.2 233.5,392.2 233.5,402 226.1,402 218.8,402 218.8,408.8 211.5,408.8 204.1,408.8 204.1,415.5 197,415.5 197,422.2 
			189.6,422.2 182.3,422.2 182.3,429.8 175,429.8 175,436.5 167.6,436.5 167.6,439.5 160.3,439.5 160.3,443.2 152.9,443.2 
			152.9,446.2 145.8,446.2 145.8,453 138.4,453 131.1,453 131.1,456.8 123.8,456.8 116.4,456.8 116.4,463.5 123.8,463.5 
			131.1,463.5 138.4,463.5 145.8,463.5 152.9,463.5 153.1,463.5 160.3,463.5 167.6,463.5 175,463.5 182.3,463.5 189.6,463.5 
			197,463.5 204.1,463.5 204.3,463.5 211.5,463.5 218.8,463.5 226.1,463.5 233.5,463.5 240.8,463.5 248.1,463.5 255.3,463.5 
			255.3,463.7 262.6,463.7 270,463.7 270,463.7 277.3,463.7 284.6,463.7 292,463.7 299.3,463.7 306.7,463.7 314,463.7 321.3,463.7 
			321.3,463.7 328.7,463.7 336,463.7 343.4,463.7 350.7,463.7 358,463.7 365.4,463.7 372.7,463.7 372.7,463.7 380.1,463.7 
			387.4,463.7 394.7,463.7 402.1,463.7 409.4,463.7 416.8,463.7 424.1,463.7 424.1,463.7 431.4,463.7 438.8,463.7 446.1,463.7 
			453.4,463.7 460.8,463.7 468.1,463.7 475.5,463.7 475.5,463.7 482.8,463.7 490.1,463.7 497.5,463.7 504.8,463.7 512.2,463.7 
			519.5,463.7 526.8,463.7 534.2,463.7 541.5,463.7 548.9,463.7 556.2,463.7 563.5,463.7 563.5,463.7 570.9,463.7 578.2,463.7 
			585.6,463.7 592.9,463.7 600.2,463.7 607.6,463.7 614.9,463.7 614.9,463.7 622.3,463.7 629.6,463.7 636.9,463.7 636.9,0.2 		"/>
		<line class="st4" x1="21" y1="463.5" x2="637.5" y2="463.5"/>
	</g>
	<g class="st0">
		<text transform="matrix(1 0 0 1 5.2559 397.5996)" class="st5 st6 st7">20</text>
	</g>
	<g class="st0">
		<text transform="matrix(1 0 0 1 5.2559 329.3496)" class="st5 st6 st7">40</text>
	</g>
	<g class="st0">
		<text transform="matrix(1 0 0 1 5.2559 261.0996)" class="st5 st6 st7">60</text>
	</g>
	<g class="st0">
		<text transform="matrix(1 0 0 1 5.2559 192.8496)" class="st5 st6 st7">80</text>
	</g>
	<g class="st0">
		<text transform="matrix(1 0 0 1 2.929688e-03 125.3496)" class="st5 st6 st7">100</text>
	</g>
	<g class="st0">
		<text transform="matrix(1 0 0 1 2.929688e-03 57.0996)" class="st5 st6 st7">120</text>
	</g>
</g>
<g>
	<g>
		<path class="st8" d="M544.4,46.6c1.7-11.8,11-21.9,24.5-26.3c9.7-3.1,18.8-2.5,24.4-1.6"/>
		<g>
			<polygon class="st9" points="590.7,21 592.4,18.5 591.8,15.6 597.7,19.5 			"/>
		</g>
	</g>
</g>
<text transform="matrix(1 0 0 1 514.8658 50.5809)" class="st10 st11 st12">5/29</text>
<text transform="matrix(1 0 0 1 490.0658 63.7806)" class="st10 st13 st12">Deadliest day</text>
<text transform="matrix(1 0 0 1 504.4657 76.9808)" class="st10 st11 st12">7 deaths</text>
<g>
	<text transform="matrix(1 0 0 1 622.7094 479.4862)" class="st14 st6 st7">6/2</text>
</g>
<g>
	<text transform="matrix(1 0 0 1 111.3096 479.486)" class="st14 st6 st7">3/24</text>
</g>
</svg>
