<?xml version="1.0" encoding="utf-8"?>
<!-- Generator: Adobe Illustrator 23.0.1, SVG Export Plug-In . SVG Version: 6.00 Build 0)  -->
<svg version="1.1" id="Layer_1" xmlns="http://www.w3.org/2000/svg" xmlns:xlink="http://www.w3.org/1999/xlink" x="0px" y="0px"
	 viewBox="0 0 637.5 487.5" style="enable-background:new 0 0 637.5 487.5;" xml:space="preserve">
<style type="text/css">
	.st0{clip-path:url(#SVGID_2_);}
	.st1{clip-path:url(#SVGID_4_);fill:none;stroke:#E8E8E8;stroke-width:0.75;stroke-miterlimit:10;}
	.st2{clip-path:url(#SVGID_4_);fill:#C71E1D;}
	.st3{clip-path:url(#SVGID_4_);fill:#C71E1D;fill-opacity:0.6;stroke:#000000;stroke-width:0.5;stroke-miterlimit:10;}
	.st4{clip-path:url(#SVGID_4_);fill:none;stroke:#333333;stroke-width:0.75;stroke-miterlimit:10;}
	.st5{fill:#A6A6A6;}
	.st6{font-family:'Roboto-Regular';}
	.st7{font-size:9px;}
	.st8{fill:none;stroke:#9A0000;stroke-width:0.75;stroke-miterlimit:10;}
	.st9{fill:#9A0000;}
	.st10{fill:#893333;}
	.st11{font-family:'ArialMT';}
	.st12{font-size:11px;}
	.st13{font-family:'Arial-BoldMT';}
	.st14{fill:#333333;}
</style>
<g>
	<defs>
		<rect id="SVGID_1_" width="637.5" height="487.5"/>
	</defs>
	<clipPath id="SVGID_2_">
		<use xlink:href="#SVGID_1_"  style="overflow:visible;"/>
	</clipPath>
	<g class="st0">
		<defs>
			<polyline id="SVGID_3_" points="0,483 0,0 637.5,0 637.5,483 			"/>
		</defs>
		<clipPath id="SVGID_4_">
			<use xlink:href="#SVGID_3_"  style="overflow:visible;"/>
		</clipPath>
		<line class="st1" x1="21" y1="63.8" x2="637.5" y2="63.8"/>
		<line class="st1" x1="21" y1="144" x2="637.5" y2="144"/>
		<line class="st1" x1="21" y1="223.5" x2="637.5" y2="223.5"/>
		<line class="st1" x1="21" y1="303.8" x2="637.5" y2="303.8"/>
		<line class="st1" x1="21" y1="383.2" x2="637.5" y2="383.2"/>
		<path class="st2" d="M21,463.5h8.2H21z"/>
		<path class="st2" d="M29.2,463.5h8.2H29.2z"/>
		<path class="st2" d="M37.4,463.5h8.2H37.4z"/>
		<path class="st2" d="M45.7,463.5h8.2H45.7z"/>
		<path class="st2" d="M53.9,463.5h8.2H53.9z"/>
		<path class="st2" d="M62.1,463.5h8.2H62.1z"/>
		<path class="st2" d="M70.3,463.5h8.2H70.3z"/>
		<path class="st2" d="M78.5,463.5h8.2H78.5z"/>
		<path class="st2" d="M86.8,463.5H95H86.8z"/>
		<path class="st2" d="M95,463.5h8.2H95z"/>
		<path class="st2" d="M103.2,463.5h8.2H103.2z"/>
		<path class="st2" d="M111.4,463.5h8.2H111.4z"/>
		<path class="st2" d="M119.6,463.5h8.2H119.6z"/>
		<polygon class="st3" points="628.8,0 628.8,3.8 620.7,3.8 620.7,12 612.5,12 612.5,24 604.3,24 604.3,36 596.1,36 596.1,56.2 
			587.9,56.2 587.9,63.8 579.7,63.8 579.7,72 571.5,72 563.3,72 563.3,72 555.1,72 546.9,72 546.9,75.8 538.7,75.8 538.7,84 
			530.5,84 530.5,87.8 522.4,87.8 522.4,99.8 514.2,99.8 514.2,104.2 506,104.2 506,111.8 497.8,111.8 489.5,111.8 489.5,115.5 
			481.3,115.5 481.3,132 473.1,132 473.1,144 464.9,144 464.9,159.8 456.7,159.8 456.7,175.5 448.4,175.5 448.4,207.8 440.2,207.8 
			440.2,219.8 432,219.8 432,228 423.8,228 423.8,235.5 415.6,235.5 415.6,259.5 407.3,259.5 407.3,264 399.1,264 399.1,271.5 
			390.9,271.5 390.9,276 382.7,276 382.7,283.5 374.5,283.5 374.5,288 366.2,288 366.2,291.8 358,291.8 358,295.5 349.8,295.5 
			349.8,307.5 341.6,307.5 341.6,312 333.4,312 333.4,315.8 325.1,315.8 316.9,315.8 316.9,327.8 308.7,327.8 308.7,336 300.5,336 
			300.5,343.5 292.3,343.5 292.3,355.5 284,355.5 284,363.8 275.8,363.8 275.8,367.5 267.6,367.5 267.6,379.5 259.4,379.5 
			259.4,391.5 251.2,391.5 242.9,391.5 242.9,399.8 234.7,399.8 226.5,399.8 226.5,407.2 218.3,407.2 218.3,415.5 210.1,415.5 
			201.8,415.5 201.8,423.8 193.6,423.8 193.6,431.2 185.4,431.2 185.4,435.8 177.2,435.8 177.2,439.5 169,439.5 169,443.2 
			160.7,443.2 160.7,451.5 152.5,451.5 144.3,451.5 144.3,455.2 136.1,455.2 127.9,455.2 127.9,463.5 136.1,463.5 144.3,463.5 
			152.5,463.5 160.7,463.5 169,463.5 177.2,463.5 185.4,463.5 193.6,463.5 201.8,463.5 210.1,463.5 218.3,463.5 226.5,463.5 
			234.7,463.5 242.9,463.5 251.2,463.5 259.4,463.5 267.6,463.5 275.8,463.5 284,463.5 292.3,463.5 300.5,463.5 308.7,463.5 
			316.9,463.5 325.1,463.5 333.4,463.5 333.4,463.5 341.6,463.5 349.8,463.5 358,463.5 366.2,463.5 374.5,463.5 382.7,463.5 
			390.9,463.5 399.1,463.5 407.3,463.5 415.6,463.5 423.8,463.5 432,463.5 440.2,463.5 448.4,463.5 456.7,463.5 464.9,463.5 
			473.1,463.5 481.3,463.5 489.5,463.5 497.8,463.5 506,463.5 514.2,463.5 522.4,463.5 530.5,463.5 530.6,463.5 538.7,463.5 
			546.9,463.5 547,463.5 555.1,463.5 563.3,463.5 563.3,463.5 571.5,463.5 579.7,463.5 579.7,463.5 587.9,463.5 596.1,463.5 
			596.1,463.5 604.3,463.5 612.5,463.5 612.5,463.5 620.7,463.5 628.8,463.5 628.9,463.5 637,463.5 637,0 		"/>
		<line class="st4" x1="21" y1="463.5" x2="637.5" y2="463.5"/>
	</g>
	<g class="st0">
		<text transform="matrix(1 0 0 1 5.2559 385.5996)" class="st5 st6 st7">20</text>
	</g>
	<g class="st0">
		<text transform="matrix(1 0 0 1 5.2559 306.0996)" class="st5 st6 st7">40</text>
	</g>
	<g class="st0">
		<text transform="matrix(1 0 0 1 5.2559 225.8496)" class="st5 st6 st7">60</text>
	</g>
	<g class="st0">
		<text transform="matrix(1 0 0 1 5.2559 146.3496)" class="st5 st6 st7">80</text>
	</g>
	<g class="st0">
		<text transform="matrix(1 0 0 1 2.929688e-03 66.0996)" class="st5 st6 st7">100</text>
	</g>
</g>
<g>
	<g>
		<path class="st8" d="M391.7,209.3c1.7-11.8,11-21.9,24.5-26.3c9.7-3.1,18.8-2.5,24.4-1.6"/>
		<g>
			<polygon class="st9" points="438,183.7 439.7,181.2 439.1,178.3 445,182.2 			"/>
		</g>
	</g>
</g>
<text transform="matrix(1 0 0 1 362.1668 213.2803)" class="st10 st11 st12">4/28</text>
<text transform="matrix(1 0 0 1 337.3668 226.48)" class="st10 st13 st12">Deadliest day</text>
<text transform="matrix(1 0 0 1 351.7667 239.6802)" class="st10 st11 st12">6 deaths</text>
<g>
	<text transform="matrix(1 0 0 1 617.8295 478.009)" class="st14 st6 st7">5/24</text>
</g>
<g>
	<text transform="matrix(1 0 0 1 122.2961 478.009)" class="st14 st6 st7">3/24</text>
</g>
</svg>
