<?xml version="1.0" encoding="utf-8"?>
<!-- Generator: Adobe Illustrator 23.0.1, SVG Export Plug-In . SVG Version: 6.00 Build 0)  -->
<svg version="1.1" id="Layer_1" xmlns="http://www.w3.org/2000/svg" xmlns:xlink="http://www.w3.org/1999/xlink" x="0px" y="0px"
	 viewBox="0 0 637.5 487.5" style="enable-background:new 0 0 637.5 487.5;" xml:space="preserve">
<style type="text/css">
	.st0{clip-path:url(#SVGID_2_);enable-background:new    ;}
	.st1{clip-path:url(#SVGID_4_);fill:none;stroke:#E8E8E8;stroke-width:0.75;stroke-miterlimit:10;}
	.st2{clip-path:url(#SVGID_4_);fill:#C71E1D;}
	.st3{clip-path:url(#SVGID_4_);fill:#C71E1D;fill-opacity:0.6;stroke:#000000;stroke-width:0.5;stroke-miterlimit:10;}
	.st4{clip-path:url(#SVGID_4_);fill:none;stroke:#333333;stroke-width:0.75;stroke-miterlimit:10;}
	.st5{clip-path:url(#SVGID_4_);}
	.st6{fill:#A6A6A6;}
	.st7{font-family:'Roboto-Regular';}
	.st8{font-size:9px;}
	.st9{fill:none;stroke:#9A0000;stroke-width:0.75;stroke-miterlimit:10;}
	.st10{fill:#9A0000;}
	.st11{fill:#893333;}
	.st12{font-family:'ArialMT';}
	.st13{font-size:11px;}
	.st14{font-family:'Arial-BoldMT';}
	.st15{fill:#333333;}
</style>
<g>
	<defs>
		<rect id="SVGID_1_" width="637.5" height="487.5"/>
	</defs>
	<clipPath id="SVGID_2_">
		<use xlink:href="#SVGID_1_"  style="overflow:visible;"/>
	</clipPath>
	<g class="st0">
		<g>
			<defs>
				<rect id="SVGID_3_" width="637.5" height="487.5"/>
			</defs>
			<clipPath id="SVGID_4_">
				<use xlink:href="#SVGID_3_"  style="overflow:visible;"/>
			</clipPath>
			<line class="st1" x1="15.8" y1="42" x2="637.5" y2="42"/>
			<line class="st1" x1="15.8" y1="94.5" x2="637.5" y2="94.5"/>
			<line class="st1" x1="15.8" y1="147.8" x2="637.5" y2="147.8"/>
			<line class="st1" x1="15.8" y1="200.2" x2="637.5" y2="200.2"/>
			<line class="st1" x1="15.8" y1="252.8" x2="637.5" y2="252.8"/>
			<line class="st1" x1="15.8" y1="305.2" x2="637.5" y2="305.2"/>
			<line class="st1" x1="15.8" y1="358.5" x2="637.5" y2="358.5"/>
			<line class="st1" x1="15.8" y1="411" x2="637.5" y2="411"/>
			<path class="st2" d="M15.8,463.5h10.5H15.8z"/>
			<path class="st2" d="M26.3,463.5h10.5H26.3z"/>
			<path class="st2" d="M36.8,463.5h10.5H36.8z"/>
			<path class="st2" d="M47.4,463.5h10.5H47.4z"/>
			<path class="st2" d="M57.9,463.5h10.5H57.9z"/>
			<path class="st2" d="M68.4,463.5H79H68.4z"/>
			<path class="st2" d="M79,463.5h10.5H79z"/>
			<path class="st2" d="M89.5,463.5h10.5H89.5z"/>
			<path class="st2" d="M100.1,463.5h10.5H100.1z"/>
			<path class="st2" d="M110.6,463.5h10.5H110.6z"/>
			<path class="st2" d="M121.1,463.5h10.5H121.1z"/>
			<path class="st2" d="M131.7,463.5h10.5H131.7z"/>
			<path class="st2" d="M142.2,463.5h10.5H142.2z"/>
			<polygon class="st3" points="627,0 616.4,0 616.4,5.2 605.9,5.2 605.9,26.2 595.4,26.2 595.4,42 584.9,42 584.9,63 574.4,63 
				574.4,84 563.9,84 563.9,126.8 553.4,126.8 553.4,142.5 542.9,142.5 542.9,153 532.4,153 532.4,163.5 521.8,163.5 521.8,195 
				511.3,195 511.3,200.2 500.8,200.2 500.8,210.8 490.3,210.8 490.3,216 479.8,216 479.8,226.5 469.2,226.5 469.2,231.8 
				458.7,231.8 458.7,237 448.2,237 448.2,242.2 437.7,242.2 437.7,258 427.1,258 427.1,263.3 416.6,263.3 416.6,268.5 406.1,268.5 
				406.1,268.5 395.6,268.5 395.6,284.2 385,284.2 385,294.8 374.5,294.8 374.5,305.2 364,305.2 364,321 353.5,321 353.5,331.5 
				343,331.5 343,336.8 332.5,336.8 332.5,353.2 322,353.2 322,369 311.5,369 311.5,369 301,369 301,379.5 290.5,379.5 290.5,379.5 
				280,379.5 280,390 269.5,390 269.5,400.5 259,400.5 258.9,400.5 248.4,400.5 248.4,411 237.9,411 237.9,421.5 227.4,421.5 
				227.4,426.8 216.8,426.8 216.8,432 206.3,432 206.3,437.2 195.8,437.2 195.8,447.8 185.3,447.8 174.7,447.8 174.7,453 164.3,453 
				164.2,453 153.7,453 153.7,463.5 164.2,463.5 164.3,463.5 174.7,463.5 185.3,463.5 195.8,463.5 195.8,463.5 206.3,463.5 
				206.3,463.5 216.8,463.5 227.4,463.5 237.9,463.5 248.4,463.5 258.9,463.5 259,463.5 269.5,463.5 269.5,463.5 280,463.5 
				290.5,463.5 290.5,463.5 301,463.5 301,463.5 311.5,463.5 311.5,463.5 322,463.5 322,463.5 332.5,463.5 332.5,463.5 343,463.5 
				353.6,463.5 353.6,463.5 364,463.5 364,463.5 374.5,463.5 374.6,463.5 385,463.5 385.1,463.5 395.6,463.5 406.1,463.5 
				406.1,463.5 416.6,463.5 416.6,463.5 427.2,463.5 427.2,463.5 437.7,463.5 437.7,463.5 448.2,463.5 458.7,463.5 458.7,463.5 
				469.2,463.5 469.2,463.5 479.8,463.5 490.3,463.5 490.3,463.5 500.8,463.5 500.8,463.5 511.3,463.5 511.3,463.5 521.8,463.5 
				532.4,463.5 532.4,463.5 542.9,463.5 542.9,463.5 553.4,463.5 563.9,463.5 564,463.5 574.4,463.5 574.5,463.5 584.9,463.5 
				585,463.5 595.5,463.5 595.5,463.5 605.9,463.5 605.9,463.5 616.4,463.5 616.4,463.5 627,463.5 637.5,463.5 637.5,0 			"/>
			<line class="st4" x1="15.8" y1="463.5" x2="637.5" y2="463.5"/>
			<g class="st5">
				<text transform="matrix(1 0 0 1 0.3926 413.3496)" class="st6 st7 st8">10</text>
			</g>
			<g class="st5">
				<text transform="matrix(1 0 0 1 0.3926 360.8496)" class="st6 st7 st8">20</text>
			</g>
			<g class="st5">
				<text transform="matrix(1 0 0 1 0.3926 307.5996)" class="st6 st7 st8">30</text>
			</g>
			<g class="st5">
				<text transform="matrix(1 0 0 1 0.3926 255.0996)" class="st6 st7 st8">40</text>
			</g>
			<g class="st5">
				<text transform="matrix(1 0 0 1 0.3926 202.5996)" class="st6 st7 st8">50</text>
			</g>
			<g class="st5">
				<text transform="matrix(1 0 0 1 0.3926 150.0996)" class="st6 st7 st8">60</text>
			</g>
			<g class="st5">
				<text transform="matrix(1 0 0 1 0.3926 96.8496)" class="st6 st7 st8">70</text>
			</g>
			<g class="st5">
				<text transform="matrix(1 0 0 1 0.3926 44.3496)" class="st6 st7 st8">80</text>
			</g>
		</g>
	</g>
</g>
<g>
	<g>
		<path class="st9" d="M506.6,134.3c1.7-11.8,11-21.9,24.5-26.3c9.7-3.1,18.8-2.5,24.4-1.6"/>
		<g>
			<polygon class="st10" points="552.9,108.7 554.6,106.2 554,103.3 559.9,107.2 			"/>
		</g>
	</g>
</g>
<text transform="matrix(1 0 0 1 477.0931 138.2661)" class="st11 st12 st13">4/28</text>
<text transform="matrix(1 0 0 1 452.2932 151.4658)" class="st11 st14 st13">Deadliest day</text>
<text transform="matrix(1 0 0 1 466.6931 164.666)" class="st11 st12 st13">6 deaths</text>
<g>
	<text transform="matrix(1 0 0 1 148.9545 477.0398)" class="st15 st7 st8">3/24</text>
</g>
<g>
	<text transform="matrix(1 0 0 1 623.206 477.0396)" class="st15 st7 st8">5/8</text>
</g>
</svg>
