<?xml version="1.0" encoding="utf-8"?>
<!-- Generator: Adobe Illustrator 23.0.1, SVG Export Plug-In . SVG Version: 6.00 Build 0)  -->
<svg version="1.1" id="Layer_1" xmlns="http://www.w3.org/2000/svg" xmlns:xlink="http://www.w3.org/1999/xlink" x="0px" y="0px"
	 viewBox="0 0 637.5 487.5" style="enable-background:new 0 0 637.5 487.5;" xml:space="preserve">
<style type="text/css">
	.st0{clip-path:url(#SVGID_2_);}
	.st1{clip-path:url(#SVGID_4_);fill:none;stroke:#E8E8E8;stroke-width:0.75;stroke-miterlimit:10;}
	.st2{clip-path:url(#SVGID_4_);fill:#C71E1D;}
	.st3{clip-path:url(#SVGID_4_);fill:#C71E1D;fill-opacity:0.6;stroke:#000000;stroke-width:0.5;stroke-miterlimit:10;}
	.st4{clip-path:url(#SVGID_4_);fill:none;stroke:#333333;stroke-width:0.75;stroke-miterlimit:10;}
	.st5{fill:#A6A6A6;}
	.st6{font-family:'Roboto-Regular';}
	.st7{font-size:9px;}
	.st8{fill:#333333;}
	.st9{fill:none;stroke:#9A0000;stroke-width:0.75;stroke-miterlimit:10;}
	.st10{fill:#9A0000;}
	.st11{fill:#893333;}
	.st12{font-family:'ArialMT';}
	.st13{font-size:11px;}
	.st14{font-family:'Arial-BoldMT';}
</style>
<g>
	<defs>
		<rect id="SVGID_1_" width="637.5" height="487.5"/>
	</defs>
	<clipPath id="SVGID_2_">
		<use xlink:href="#SVGID_1_"  style="overflow:visible;"/>
	</clipPath>
	<g class="st0">
		<defs>
			<rect id="SVGID_3_" width="637.5" height="483"/>
		</defs>
		<clipPath id="SVGID_4_">
			<use xlink:href="#SVGID_3_"  style="overflow:visible;"/>
		</clipPath>
		<line class="st1" x1="21" y1="18" x2="637.5" y2="18"/>
		<line class="st1" x1="21" y1="62.2" x2="637.5" y2="62.2"/>
		<line class="st1" x1="21" y1="107.2" x2="637.5" y2="107.2"/>
		<line class="st1" x1="21" y1="151.5" x2="637.5" y2="151.5"/>
		<line class="st1" x1="21" y1="195.8" x2="637.5" y2="195.8"/>
		<line class="st1" x1="21" y1="240.8" x2="637.5" y2="240.8"/>
		<line class="st1" x1="21" y1="285" x2="637.5" y2="285"/>
		<line class="st1" x1="21" y1="330" x2="637.5" y2="330"/>
		<line class="st1" x1="21" y1="374.2" x2="637.5" y2="374.2"/>
		<line class="st1" x1="21" y1="419.2" x2="637.5" y2="419.2"/>
		<path class="st2" d="M21,463.5h6.2H21z"/>
		<path class="st2" d="M27.2,463.5h6.2H27.2z"/>
		<path class="st2" d="M33.3,463.5h6.2H33.3z"/>
		<path class="st2" d="M39.5,463.5h6.2H39.5z"/>
		<path class="st2" d="M45.7,463.5h6.2H45.7z"/>
		<path class="st2" d="M51.8,463.5H58H51.8z"/>
		<path class="st2" d="M58,463.5h6.2H58z"/>
		<path class="st2" d="M64.2,463.5h6.2H64.2z"/>
		<path class="st2" d="M70.3,463.5h6.2H70.3z"/>
		<path class="st2" d="M76.5,463.5h6.2H76.5z"/>
		<path class="st2" d="M82.7,463.5h6.2H82.7z"/>
		<path class="st2" d="M88.8,463.5H95H88.8z"/>
		<path class="st2" d="M95,463.5h6.2H95z"/>
		<polygon class="st3" points="630.8,0 630.8,24.7 624.7,24.7 624.7,44.2 618.6,44.2 618.6,57.7 612.4,57.7 612.4,64.5 606.3,64.5 
			606.3,69 600.1,69 600.1,71.2 594,71.2 594,82.5 587.8,82.5 587.8,96 581.7,96 581.7,105 575.6,105 575.6,117.8 569.4,117.8 
			569.4,120 563.3,120 563.2,120 557.1,120 557.1,124.5 551,124.5 551,126.8 544.8,126.8 544.8,147 538.7,147 538.7,160.5 
			532.5,160.5 532.5,167.2 526.5,167.2 526.4,167.2 520.3,167.2 514.1,167.2 514.1,169.5 508,169.5 508,185.2 501.8,185.2 
			501.8,195.8 495.6,195.8 495.6,198 489.5,198 489.5,202.5 483.3,202.5 483.3,204.8 477.1,204.8 477.1,207 471,207 471,211.5 
			464.8,211.5 464.8,218.2 458.6,218.2 458.6,225 452.5,225 452.5,236.2 446.3,236.2 446.3,240.8 440.2,240.8 440.2,245.2 
			434,245.2 434,245.2 427.8,245.2 421.7,245.2 415.5,245.2 415.5,247.5 409.3,247.5 409.3,252 403.2,252 403.2,254.2 397,254.2 
			397,261 390.8,261 390.8,263.2 384.7,263.2 384.7,267.8 378.5,267.8 372.3,267.8 372.3,270 366.2,270 366.2,278.2 360,278.2 
			360,285 353.8,285 353.8,294 347.7,294 347.7,303 341.5,303 341.5,321 335.3,321 335.3,327.8 329.2,327.8 329.2,332.2 323,332.2 
			323,336.8 316.9,336.8 316.9,349.5 310.7,349.5 310.7,351.8 304.5,351.8 304.5,356.2 298.4,356.2 298.4,358.5 292.2,358.5 
			292.2,363 286,363 286,365.2 279.9,365.2 279.9,367.5 273.7,367.5 273.7,369.8 267.5,369.8 267.5,376.5 261.4,376.5 261.4,378.8 
			255.2,378.8 255.2,381 249,381 242.9,381 242.9,387.8 236.7,387.8 236.7,392.2 230.5,392.2 230.5,396.8 224.4,396.8 224.4,403.5 
			218.2,403.5 218.2,408 212,408 212,410.2 205.9,410.2 205.9,417 199.7,417 199.7,423.8 193.6,423.8 187.5,423.8 187.5,427.5 
			181.3,427.5 175.1,427.5 175.1,432 169,432 169,436.5 162.8,436.5 156.6,436.5 156.6,441 150.5,441 150.5,445.5 144.3,445.5 
			144.3,447.8 138.1,447.8 138.1,450 132,450 132,452.2 125.8,452.2 125.8,456.8 119.6,456.8 113.5,456.8 113.5,459 107.3,459 
			101.1,459 101.1,463.5 107.3,463.5 113.5,463.5 119.6,463.5 125.8,463.5 132,463.5 138.1,463.5 144.3,463.5 150.5,463.5 
			156.6,463.5 162.8,463.5 169,463.5 175.1,463.5 181.3,463.5 187.5,463.5 193.6,463.5 199.7,463.5 199.8,463.5 205.9,463.5 
			212,463.5 218.2,463.5 224.4,463.5 230.5,463.5 236.7,463.5 242.9,463.5 249,463.5 255.2,463.5 261.4,463.5 267.5,463.5 
			273.7,463.5 279.9,463.5 279.9,463.5 286,463.5 292.2,463.5 298.4,463.5 298.4,463.5 304.5,463.5 310.7,463.5 316.9,463.5 
			323,463.5 329.2,463.5 335.3,463.5 341.5,463.5 347.7,463.5 353.8,463.5 360,463.5 366.2,463.5 366.2,463.5 372.3,463.5 
			378.5,463.5 384.7,463.5 384.7,463.5 390.8,463.5 397,463.5 403.2,463.5 409.3,463.5 415.5,463.5 421.7,463.5 427.8,463.5 
			434,463.5 434,463.5 440.2,463.5 446.3,463.5 452.5,463.5 452.5,463.5 458.6,463.5 464.8,463.5 471,463.5 477.1,463.5 
			483.3,463.5 489.5,463.5 495.6,463.5 501.8,463.5 508,463.5 514.1,463.5 520.3,463.5 526.4,463.5 526.5,463.5 532.5,463.5 
			538.7,463.5 544.8,463.5 544.9,463.5 551,463.5 557.1,463.5 563.2,463.5 563.3,463.5 569.4,463.5 575.6,463.5 581.7,463.5 
			581.7,463.5 587.8,463.5 594,463.5 600.1,463.5 600.2,463.5 606.3,463.5 612.4,463.5 612.4,463.5 618.6,463.5 624.7,463.5 
			630.8,463.5 630.8,463.5 637,463.5 637,0 		"/>
		<line class="st4" x1="21" y1="463.5" x2="637.5" y2="463.5"/>
	</g>
	<g class="st0">
		<text transform="matrix(1 0 0 1 5.6426 422.3496)" class="st5 st6 st7">20</text>
	</g>
	<g class="st0">
		<text transform="matrix(1 0 0 1 5.6426 377.3496)" class="st5 st6 st7">40</text>
	</g>
	<g class="st0">
		<text transform="matrix(1 0 0 1 5.6426 333.0996)" class="st5 st6 st7">60</text>
	</g>
	<g class="st0">
		<text transform="matrix(1 0 0 1 5.6426 288.0996)" class="st5 st6 st7">80</text>
	</g>
	<g class="st0">
		<text transform="matrix(1 0 0 1 0.5889 243.8496)" class="st5 st6 st7">100</text>
	</g>
	<g class="st0">
		<text transform="matrix(1 0 0 1 0.5889 198.8496)" class="st5 st6 st7">120</text>
	</g>
	<g class="st0">
		<text transform="matrix(1 0 0 1 0.5889 154.5996)" class="st5 st6 st7">140</text>
	</g>
	<g class="st0">
		<text transform="matrix(1 0 0 1 0.5889 110.3496)" class="st5 st6 st7">160</text>
	</g>
	<g class="st0">
		<text transform="matrix(1 0 0 1 0.5889 65.3496)" class="st5 st6 st7">180</text>
	</g>
	<g class="st0">
		<text transform="matrix(1 0 0 1 0.5889 21.0996)" class="st5 st6 st7">200</text>
	</g>
</g>
<g>
	<text transform="matrix(1 0 0 1 618.8611 478.256)" class="st8 st6 st7">6/18</text>
</g>
<g>
	<text transform="matrix(1 0 0 1 96.4891 478.2562)" class="st8 st6 st7">3/24</text>
</g>
<g>
	<g>
		<path class="st9" d="M574.8,35.5c1.7-11.8,11-21.9,24.5-26.3c9.7-3.1,18.8-2.5,24.4-1.6"/>
		<g>
			<polygon class="st10" points="621.1,9.9 622.8,7.4 622.2,4.5 628.1,8.4 			"/>
		</g>
	</g>
</g>
<text transform="matrix(1 0 0 1 546.3778 39.4612)" class="st11 st12 st13">6/18</text>
<text transform="matrix(1 0 0 1 519.4576 52.6609)" class="st11 st14 st13">Deadliest day</text>
<text transform="matrix(1 0 0 1 532.8575 65.8611)" class="st11 st12 st13">11 deaths</text>
</svg>
