<?xml version="1.0" encoding="utf-8"?>
<!-- Generator: Adobe Illustrator 23.0.1, SVG Export Plug-In . SVG Version: 6.00 Build 0)  -->
<svg version="1.1" id="Layer_1" xmlns="http://www.w3.org/2000/svg" xmlns:xlink="http://www.w3.org/1999/xlink" x="0px" y="0px"
	 viewBox="0 0 637.5 487.5" style="enable-background:new 0 0 637.5 487.5;" xml:space="preserve">
<style type="text/css">
	.st0{clip-path:url(#SVGID_2_);}
	.st1{clip-path:url(#SVGID_4_);fill:none;stroke:#E8E8E8;stroke-width:0.75;stroke-miterlimit:10;}
	.st2{clip-path:url(#SVGID_4_);fill:#C71E1D;}
	.st3{clip-path:url(#SVGID_4_);fill:#C71E1D;fill-opacity:0.6;stroke:#000000;stroke-width:0.5;stroke-miterlimit:10;}
	.st4{clip-path:url(#SVGID_4_);fill:none;stroke:#333333;stroke-width:0.75;stroke-miterlimit:10;}
	.st5{fill:#A6A6A6;}
	.st6{font-family:'Roboto-Regular';}
	.st7{font-size:9px;}
	.st8{fill:none;stroke:#9A0000;stroke-width:0.75;stroke-miterlimit:10;}
	.st9{fill:#9A0000;}
	.st10{fill:#893333;}
	.st11{font-family:'ArialMT';}
	.st12{font-size:11px;}
	.st13{font-family:'Arial-BoldMT';}
	.st14{fill:#333333;}
</style>
<g>
	<defs>
		<rect id="SVGID_1_" width="637.5" height="487.5"/>
	</defs>
	<clipPath id="SVGID_2_">
		<use xlink:href="#SVGID_1_"  style="overflow:visible;"/>
	</clipPath>
	<g class="st0">
		<defs>
			<rect id="SVGID_3_" width="637.5" height="483"/>
		</defs>
		<clipPath id="SVGID_4_">
			<use xlink:href="#SVGID_3_"  style="overflow:visible;"/>
		</clipPath>
		<line class="st1" x1="21" y1="6" x2="637.5" y2="6"/>
		<line class="st1" x1="21" y1="82.5" x2="637.5" y2="82.5"/>
		<line class="st1" x1="21" y1="158.2" x2="637.5" y2="158.2"/>
		<line class="st1" x1="21" y1="234.8" x2="637.5" y2="234.8"/>
		<line class="st1" x1="21" y1="311.2" x2="637.5" y2="311.2"/>
		<line class="st1" x1="21" y1="387" x2="637.5" y2="387"/>
		<path class="st2" d="M21,463.5h7.9H21z"/>
		<path class="st2" d="M28.9,463.5h7.9H28.9z"/>
		<path class="st2" d="M36.8,463.5h7.9H36.8z"/>
		<path class="st2" d="M44.7,463.5h7.9H44.7z"/>
		<path class="st2" d="M52.6,463.5h7.9H52.6z"/>
		<path class="st2" d="M60.5,463.5h7.9H60.5z"/>
		<path class="st2" d="M68.4,463.5h7.9H68.4z"/>
		<path class="st2" d="M76.3,463.5h7.9H76.3z"/>
		<path class="st2" d="M84.2,463.5h7.9H84.2z"/>
		<path class="st2" d="M92.1,463.5h7.9H92.1z"/>
		<path class="st2" d="M100,463.5h7.9H100z"/>
		<path class="st2" d="M107.9,463.5h7.9H107.9z"/>
		<path class="st2" d="M115.8,463.5h7.9H115.8z"/>
		<polygon class="st3" points="629.6,6 629.6,9.8 621.7,9.8 621.7,17.2 613.8,17.2 613.8,21 605.9,21 605.9,24.8 598,24.8 598,33 
			590.1,33 590.1,44.2 582.2,44.2 582.2,55.5 574.3,55.5 574.3,74.2 566.4,74.2 566.4,82.5 558.5,82.5 558.5,90 550.6,90 550.6,90 
			542.7,90 534.8,90 526.8,90 526.8,93.8 518.9,93.8 518.9,101.2 511,101.2 511,105 503.1,105 503.1,116.2 495.2,116.2 495.2,120 
			487.3,120 487.3,128.2 479.4,128.2 471.5,128.2 471.5,132 463.6,132 463.6,147 455.7,147 455.7,158.2 447.8,158.2 447.8,174 
			439.9,174 439.9,189 432,189 432,219.8 424.1,219.8 424.1,231 416.2,231 416.2,238.5 408.3,238.5 408.3,246 400.4,246 
			400.4,269.2 392.5,269.2 392.5,273 384.6,273 384.6,280.5 376.7,280.5 376.7,284.2 368.8,284.2 368.8,291.8 360.9,291.8 
			360.9,295.5 353,295.5 353,299.2 345.1,299.2 345.1,303 337.2,303 337.2,315 329.2,315 329.2,318.8 321.3,318.8 321.3,322.5 
			313.4,322.5 305.5,322.5 305.5,333.8 297.6,333.8 297.6,341.2 289.7,341.2 289.7,348.8 281.8,348.8 281.8,360.8 273.9,360.8 
			273.9,368.2 266,368.2 266,372 258.1,372 258.1,383.2 250.2,383.2 250.2,394.5 242.3,394.5 242.3,394.5 234.4,394.5 234.4,402.8 
			226.5,402.8 226.5,402.8 218.6,402.8 218.6,410.2 210.7,410.2 210.7,417.8 202.8,417.8 202.8,417.8 194.9,417.8 194.9,425.2 
			187,425.2 187,432.8 179.1,432.8 179.1,436.5 171.2,436.5 171.2,440.2 163.3,440.2 163.3,444.8 155.4,444.8 155.4,452.2 
			147.5,452.2 139.6,452.2 139.6,456 131.7,456 123.8,456 123.8,463.5 131.7,463.5 139.6,463.5 139.6,463.5 147.5,463.5 
			155.4,463.5 163.3,463.5 163.3,463.5 171.2,463.5 179.1,463.5 179.1,463.5 187,463.5 194.9,463.5 202.8,463.5 202.8,463.5 
			210.7,463.5 218.6,463.5 226.5,463.5 226.5,463.5 234.4,463.5 242.3,463.5 242.3,463.5 250.2,463.5 258.1,463.5 266,463.5 
			266,463.5 273.9,463.5 281.8,463.5 289.7,463.5 289.7,463.5 297.6,463.5 305.5,463.5 305.5,463.5 313.4,463.5 321.3,463.5 
			329.2,463.5 329.3,463.5 337.2,463.5 345.1,463.5 345.1,463.5 353,463.5 360.9,463.5 368.8,463.5 368.8,463.5 376.7,463.5 
			384.6,463.5 392.5,463.5 392.5,463.5 400.4,463.5 408.3,463.5 408.3,463.5 416.2,463.5 424.1,463.5 432,463.5 432,463.5 
			439.9,463.5 447.8,463.5 447.8,463.5 455.7,463.5 463.6,463.5 471.5,463.5 471.5,463.5 479.4,463.5 487.3,463.5 495.2,463.5 
			495.2,463.5 503.1,463.5 511,463.5 511,463.5 518.9,463.5 526.8,463.5 526.8,463.5 534.8,463.5 542.7,463.5 550.6,463.5 
			550.6,463.5 558.5,463.5 566.4,463.5 566.4,463.5 574.3,463.5 582.2,463.5 590.1,463.5 590.1,463.5 598,463.5 605.9,463.5 
			613.8,463.5 613.8,463.5 621.7,463.5 629.6,463.5 629.6,463.5 637.5,463.5 637.5,6 		"/>
		<line class="st4" x1="21" y1="463.5" x2="637.5" y2="463.5"/>
	</g>
	<g class="st0">
		<text transform="matrix(1 0 0 1 5.2559 389.3496)" class="st5 st6 st7">20</text>
	</g>
	<g class="st0">
		<text transform="matrix(1 0 0 1 5.2559 313.5996)" class="st5 st6 st7">40</text>
	</g>
	<g class="st0">
		<text transform="matrix(1 0 0 1 5.2559 237.0996)" class="st5 st6 st7">60</text>
	</g>
	<g class="st0">
		<text transform="matrix(1 0 0 1 5.2559 160.5996)" class="st5 st6 st7">80</text>
	</g>
	<g class="st0">
		<text transform="matrix(1 0 0 1 2.929688e-03 84.8496)" class="st5 st6 st7">100</text>
	</g>
	<g class="st0">
		<text transform="matrix(1 0 0 1 2.929688e-03 8.3496)" class="st5 st6 st7">120</text>
	</g>
</g>
<g>
	<g>
		<path class="st8" d="M375.3,221.5c1.7-11.8,11-21.9,24.5-26.3c9.7-3.1,18.8-2.5,24.4-1.6"/>
		<g>
			<polygon class="st9" points="421.6,195.9 423.3,193.4 422.7,190.5 428.6,194.4 			"/>
		</g>
	</g>
</g>
<text transform="matrix(1 0 0 1 345.7749 225.5194)" class="st10 st11 st12">4/28</text>
<text transform="matrix(1 0 0 1 320.9749 238.7191)" class="st10 st13 st12">Deadliest day</text>
<text transform="matrix(1 0 0 1 335.3748 251.9193)" class="st10 st11 st12">6 deaths</text>
<g>
	<text transform="matrix(1 0 0 1 618.292 479.501)" class="st14 st6 st7">5/27</text>
</g>
<g>
	<text transform="matrix(1 0 0 1 119.9876 479.501)" class="st14 st6 st7">3/24</text>
</g>
</svg>
