<?xml version="1.0" encoding="utf-8"?>
<!-- Generator: Adobe Illustrator 23.0.1, SVG Export Plug-In . SVG Version: 6.00 Build 0)  -->
<svg version="1.1" id="Layer_1" xmlns="http://www.w3.org/2000/svg" xmlns:xlink="http://www.w3.org/1999/xlink" x="0px" y="0px"
	 viewBox="0 0 637.5 487.5" style="enable-background:new 0 0 637.5 487.5;" xml:space="preserve">
<style type="text/css">
	.st0{clip-path:url(#SVGID_2_);}
	.st1{clip-path:url(#SVGID_4_);fill:none;stroke:#E8E8E8;stroke-width:0.75;stroke-miterlimit:10;}
	.st2{clip-path:url(#SVGID_4_);fill:#C71E1D;}
	.st3{clip-path:url(#SVGID_4_);fill:#C71E1D;fill-opacity:0.6;stroke:#000000;stroke-width:0.5;stroke-miterlimit:10;}
	.st4{clip-path:url(#SVGID_4_);fill:none;stroke:#333333;stroke-width:0.75;stroke-miterlimit:10;}
	.st5{fill:#A6A6A6;}
	.st6{font-family:'Roboto-Regular';}
	.st7{font-size:9px;}
	.st8{fill:none;stroke:#9A0000;stroke-width:0.75;stroke-miterlimit:10;}
	.st9{fill:#9A0000;}
	.st10{fill:#893333;}
	.st11{font-family:'ArialMT';}
	.st12{font-size:11px;}
	.st13{font-family:'Arial-BoldMT';}
	.st14{fill:#333333;}
</style>
<g>
	<defs>
		<rect id="SVGID_1_" width="637.5" height="487.5"/>
	</defs>
	<clipPath id="SVGID_2_">
		<use xlink:href="#SVGID_1_"  style="overflow:visible;"/>
	</clipPath>
	<g class="st0">
		<defs>
			<rect id="SVGID_3_" width="637.5" height="483"/>
		</defs>
		<clipPath id="SVGID_4_">
			<use xlink:href="#SVGID_3_"  style="overflow:visible;"/>
		</clipPath>
		<line class="st1" x1="21" y1="6.8" x2="637.5" y2="6.8"/>
		<line class="st1" x1="21" y1="72" x2="637.5" y2="72"/>
		<line class="st1" x1="21" y1="137.2" x2="637.5" y2="137.2"/>
		<line class="st1" x1="21" y1="202.5" x2="637.5" y2="202.5"/>
		<line class="st1" x1="21" y1="267.8" x2="637.5" y2="267.8"/>
		<line class="st1" x1="21" y1="333" x2="637.5" y2="333"/>
		<line class="st1" x1="21" y1="398.2" x2="637.5" y2="398.2"/>
		<path class="st2" d="M21,463.5h7.3H21z"/>
		<path class="st2" d="M28.3,463.5h7.3H28.3z"/>
		<path class="st2" d="M35.5,463.5h7.3H35.5z"/>
		<path class="st2" d="M42.8,463.5H50H42.8z"/>
		<path class="st2" d="M50,463.5h7.3H50z"/>
		<path class="st2" d="M57.3,463.5h7.3H57.3z"/>
		<path class="st2" d="M64.5,463.5h7.3H64.5z"/>
		<path class="st2" d="M71.8,463.5H79H71.8z"/>
		<path class="st2" d="M79,463.5h7.3H79z"/>
		<path class="st2" d="M86.3,463.5h7.3H86.3z"/>
		<path class="st2" d="M93.5,463.5h7.3H93.5z"/>
		<path class="st2" d="M100.8,463.5h7.3H100.8z"/>
		<path class="st2" d="M108,463.5h7.3H108z"/>
		<polygon class="st3" points="629.1,0 629.1,19.5 621.9,19.5 621.9,29.2 614.7,29.2 607.5,29.2 600.2,29.2 600.2,33 593,33 
			593,55.5 585.7,55.5 585.7,72 578.5,72 578.5,75 571.3,75 571.3,81.8 564.1,81.8 564.1,84.8 556.8,84.8 556.8,88.5 549.6,88.5 
			549.6,94.5 542.3,94.5 542.3,104.2 535.1,104.2 535.1,114 527.9,114 527.9,130.5 520.6,130.5 520.6,137.2 513.4,137.2 
			513.4,143.2 506.1,143.2 499,143.2 498.9,143.2 491.7,143.2 484.4,143.2 484.4,147 477.2,147 477.2,153.8 469.9,153.8 
			469.9,156.8 462.7,156.8 462.7,166.5 455.4,166.5 455.4,169.4 448.4,169.4 448.4,176.2 441.1,176.2 433.9,176.2 433.9,179.2 
			426.6,179.2 426.6,192.7 419.4,192.7 419.4,202.5 412.2,202.5 412.2,215.2 404.9,215.2 404.9,228.8 397.7,228.8 397.7,254.2 
			390.4,254.2 390.4,264.8 383.2,264.8 383.2,270.8 376,270.8 376,277.5 368.8,277.5 368.8,297 361.5,297 361.5,300 354.3,300 
			354.3,306.8 347,306.8 347,309.8 339.8,309.8 339.8,316.5 332.6,316.5 332.6,320.2 325.3,320.2 325.3,323.2 318.1,323.2 
			318.1,326.2 310.8,326.2 310.8,336 303.6,336 303.6,339.8 296.4,339.8 296.4,342.8 289.2,342.8 281.9,342.8 281.9,352.5 
			274.7,352.5 274.7,359.2 267.4,359.2 267.4,365.2 260.3,365.2 260.3,375 253.1,375 253.1,381.8 245.8,381.8 245.8,385.5 
			238.6,385.5 238.6,395.2 231.3,395.2 231.3,405 224.1,405 216.8,405 216.8,411 209.6,411 202.3,411 202.3,417.8 195.1,417.8 
			195.1,424.5 187.8,424.5 187.8,424.5 180.6,424.5 180.6,430.5 173.3,430.5 173.3,437.2 166.1,437.2 166.1,441 158.8,441 
			158.8,444 151.6,444 151.6,447 144.3,447 144.3,453.8 137,453.8 129.8,453.8 129.8,456.8 122.5,456.8 115.3,456.8 115.3,463.5 
			122.5,463.5 129.8,463.5 137,463.5 144.3,463.5 151.6,463.5 158.8,463.5 166.1,463.5 173.3,463.5 180.6,463.5 187.8,463.5 
			187.8,463.5 195.1,463.5 202.3,463.5 209.6,463.5 216.8,463.5 224.1,463.5 231.3,463.5 238.6,463.5 245.8,463.5 253.1,463.5 
			260.3,463.5 267.4,463.5 267.6,463.5 274.7,463.5 281.9,463.5 289.2,463.5 296.4,463.5 303.6,463.5 303.7,463.5 310.8,463.5 
			318.1,463.5 325.3,463.5 332.6,463.5 339.8,463.5 339.9,463.5 347,463.5 354.3,463.5 361.5,463.5 368.8,463.5 376,463.5 
			383.2,463.5 383.3,463.5 390.4,463.5 397.7,463.5 404.9,463.5 412.2,463.5 419.4,463.5 419.4,463.4 426.6,463.4 433.9,463.4 
			441.1,463.4 448.4,463.4 455.4,463.4 455.4,463.5 462.7,463.5 469.9,463.5 477.2,463.5 484.4,463.5 491.7,463.5 498.9,463.5 
			499,463.5 506.1,463.5 513.4,463.5 520.6,463.5 527.9,463.5 535.1,463.5 542.3,463.5 542.4,463.5 549.6,463.5 556.8,463.5 
			564.1,463.5 571.3,463.5 578.5,463.5 578.6,463.5 585.7,463.5 593,463.5 600.2,463.5 607.5,463.5 614.7,463.5 621.9,463.5 
			622,463.5 629.1,463.5 636.4,463.5 636.4,0 		"/>
		<line class="st4" x1="21" y1="463.5" x2="637.5" y2="463.5"/>
	</g>
	<g class="st0">
		<text transform="matrix(1 0 0 1 5.6426 401.3496)" class="st5 st6 st7">20</text>
	</g>
	<g class="st0">
		<text transform="matrix(1 0 0 1 5.6426 336.0996)" class="st5 st6 st7">40</text>
	</g>
	<g class="st0">
		<text transform="matrix(1 0 0 1 5.6426 270.8496)" class="st5 st6 st7">60</text>
	</g>
	<g class="st0">
		<text transform="matrix(1 0 0 1 5.6426 205.5996)" class="st5 st6 st7">80</text>
	</g>
	<g class="st0">
		<text transform="matrix(1 0 0 1 0.5889 140.3496)" class="st5 st6 st7">100</text>
	</g>
	<g class="st0">
		<text transform="matrix(1 0 0 1 0.5889 75.0996)" class="st5 st6 st7">120</text>
	</g>
	<g class="st0">
		<text transform="matrix(1 0 0 1 0.5889 9.8496)" class="st5 st6 st7">140</text>
	</g>
</g>
<g>
	<g>
		<path class="st8" d="M537.2,66.1c1.7-11.8,11-21.9,24.5-26.3c9.7-3.1,18.8-2.5,24.4-1.6"/>
		<g>
			<polygon class="st9" points="583.5,40.5 585.2,38 584.6,35.1 590.5,39 			"/>
		</g>
	</g>
</g>
<text transform="matrix(1 0 0 1 507.6871 70.0255)" class="st10 st11 st12">5/29</text>
<text transform="matrix(1 0 0 1 482.887 83.2252)" class="st10 st13 st12">Deadliest day</text>
<text transform="matrix(1 0 0 1 497.2869 96.4254)" class="st10 st11 st12">7 deaths</text>
<g>
	<text transform="matrix(1 0 0 1 621.5916 478.4763)" class="st14 st6 st7">6/3</text>
</g>
<g>
	<text transform="matrix(1 0 0 1 109.4921 478.4764)" class="st14 st6 st7">3/24</text>
</g>
</svg>
