<?xml version="1.0" encoding="utf-8"?>
<!-- Generator: Adobe Illustrator 23.0.1, SVG Export Plug-In . SVG Version: 6.00 Build 0)  -->
<svg version="1.1" id="Layer_1" xmlns="http://www.w3.org/2000/svg" xmlns:xlink="http://www.w3.org/1999/xlink" x="0px" y="0px"
	 viewBox="0 0 637.5 487.5" style="enable-background:new 0 0 637.5 487.5;" xml:space="preserve">
<style type="text/css">
	.st0{clip-path:url(#SVGID_2_);}
	.st1{clip-path:url(#SVGID_4_);fill:none;stroke:#E8E8E8;stroke-width:0.75;stroke-miterlimit:10;}
	.st2{clip-path:url(#SVGID_4_);fill:#C71E1D;}
	.st3{clip-path:url(#SVGID_4_);fill:#C71E1D;fill-opacity:0.6;stroke:#000000;stroke-width:0.5;stroke-miterlimit:10;}
	.st4{clip-path:url(#SVGID_4_);fill:none;stroke:#333333;stroke-width:0.75;stroke-miterlimit:10;}
	.st5{fill:#A6A6A6;}
	.st6{font-family:'Roboto-Regular';}
	.st7{font-size:9px;}
	.st8{fill:#333333;}
	.st9{fill:none;stroke:#9A0000;stroke-width:0.75;stroke-miterlimit:10;}
	.st10{fill:#9A0000;}
	.st11{fill:#893333;}
	.st12{font-family:'ArialMT';}
	.st13{font-size:11px;}
	.st14{font-family:'Arial-BoldMT';}
</style>
<g>
	<defs>
		<rect id="SVGID_1_" width="637.5" height="487.5"/>
	</defs>
	<clipPath id="SVGID_2_">
		<use xlink:href="#SVGID_1_"  style="overflow:visible;"/>
	</clipPath>
	<g class="st0">
		<defs>
			<rect id="SVGID_3_" width="637.5" height="483"/>
		</defs>
		<clipPath id="SVGID_4_">
			<use xlink:href="#SVGID_3_"  style="overflow:visible;"/>
		</clipPath>
		<line class="st1" x1="21" y1="19.5" x2="637.5" y2="19.5"/>
		<line class="st1" x1="21" y1="69" x2="637.5" y2="69"/>
		<line class="st1" x1="21" y1="118.5" x2="637.5" y2="118.5"/>
		<line class="st1" x1="21" y1="168" x2="637.5" y2="168"/>
		<line class="st1" x1="21" y1="216.8" x2="637.5" y2="216.8"/>
		<line class="st1" x1="21" y1="266.2" x2="637.5" y2="266.2"/>
		<line class="st1" x1="21" y1="315.8" x2="637.5" y2="315.8"/>
		<line class="st1" x1="21" y1="365.2" x2="637.5" y2="365.2"/>
		<line class="st1" x1="21" y1="414" x2="637.5" y2="414"/>
		<path class="st2" d="M21,463.5h6.3H21z"/>
		<path class="st2" d="M27.3,463.5h6.3H27.3z"/>
		<path class="st2" d="M33.6,463.5h6.3H33.6z"/>
		<path class="st2" d="M39.9,463.5h6.3H39.9z"/>
		<path class="st2" d="M46.2,463.5h6.3H46.2z"/>
		<path class="st2" d="M52.5,463.5h6.3H52.5z"/>
		<path class="st2" d="M58.7,463.5H65H58.7z"/>
		<path class="st2" d="M65,463.5h6.3H65z"/>
		<path class="st2" d="M71.3,463.5h6.3H71.3z"/>
		<path class="st2" d="M77.6,463.5h6.3H77.6z"/>
		<path class="st2" d="M83.9,463.5h6.3H83.9z"/>
		<path class="st2" d="M90.2,463.5h6.3H90.2z"/>
		<path class="st2" d="M96.5,463.5h6.3H96.5z"/>
		<polygon class="st3" points="631.2,0 631.2,15 624.9,15 624.9,22.5 618.6,22.5 618.6,27 612.3,27 612.3,29.2 606,29.2 606,42 
			599.8,42 599.8,57 593.5,57 593.5,66.8 587.2,66.8 587.2,81 580.9,81 580.9,84 574.6,84 568.3,84 568.3,88.5 562,88.5 562,91.5 
			555.7,91.5 555.7,113.2 549.4,113.2 549.4,128.2 543.1,128.2 543.1,135.8 536.8,135.8 536.8,135.8 530.6,135.8 524.3,135.8 
			524.3,138 518,138 518,155.2 511.7,155.2 511.7,168 505.4,168 505.4,170.2 499.1,170.2 499.1,174.8 492.8,174.8 492.8,177.8 
			486.5,177.8 486.5,180 480.2,180 480.2,185.2 473.9,185.2 473.9,192 467.6,192 467.6,199.5 461.4,199.5 461.4,212.2 455.1,212.2 
			455.1,216.8 448.8,216.8 448.8,222 442.5,222 442.5,222 436.2,222 429.9,222 423.6,222 423.6,224.2 417.3,224.2 417.3,229.5 
			411,229.5 411,231.8 404.7,231.8 404.7,239.2 398.4,239.2 398.4,241.5 392.2,241.5 392.2,246.8 385.9,246.8 379.6,246.8 
			379.6,249 373.3,249 373.3,258.8 367,258.8 367,266.2 360.7,266.2 360.7,276 354.4,276 354.4,285.8 348.1,285.8 348.1,306 
			341.8,306 341.8,312.8 335.5,312.8 335.5,318 329.2,318 329.2,323.2 323,323.2 323,337.5 316.7,337.5 316.7,340.5 310.4,340.5 
			310.4,345 304.1,345 304.1,347.2 297.8,347.2 297.8,352.5 291.5,352.5 291.5,354.8 285.2,354.8 285.2,357.8 278.9,357.8 
			278.9,360 272.6,360 272.6,367.5 266.3,367.5 266.3,369.8 260.1,369.8 260.1,372 253.8,372 247.5,372 247.5,379.5 241.2,379.5 
			241.2,384.8 234.9,384.8 234.9,389.2 228.6,389.2 228.6,396.8 222.3,396.8 222.3,402 216,402 216,404.2 209.7,404.2 209.7,411.8 
			203.4,411.8 203.4,419.2 197.1,419.2 190.9,419.2 190.9,423.8 184.6,423.8 178.3,423.8 178.3,429 172,429 172,434.2 165.7,434.2 
			159.4,434.2 159.4,438.8 153.1,438.8 153.1,444 146.8,444 146.8,446.2 140.5,446.2 140.5,448.5 134.2,448.5 134.2,451.5 
			127.9,451.5 127.9,456 121.7,456 115.4,456 115.4,458.2 109.1,458.2 102.8,458.2 102.8,463.5 109.1,463.5 115.4,463.5 
			121.7,463.5 127.9,463.5 134.2,463.5 140.5,463.5 146.8,463.5 153.1,463.5 159.4,463.5 165.7,463.5 172,463.5 178.3,463.5 
			178.3,463.5 184.6,463.5 190.9,463.5 197.1,463.5 203.4,463.5 209.7,463.5 216,463.5 222.3,463.5 228.6,463.5 234.9,463.5 
			241.2,463.5 247.5,463.5 253.8,463.5 260.1,463.5 266.3,463.5 272.6,463.5 278.9,463.5 278.9,463.5 285.2,463.5 291.5,463.5 
			297.8,463.5 304.1,463.5 304.1,463.5 310.4,463.5 316.7,463.5 323,463.5 329.2,463.5 329.3,463.5 335.5,463.5 341.8,463.5 
			348.1,463.5 348.1,463.5 354.4,463.5 360.7,463.5 367,463.5 373.3,463.5 373.3,463.5 379.6,463.5 385.9,463.5 392.2,463.5 
			398.4,463.5 398.4,463.5 404.7,463.5 411,463.5 417.3,463.5 423.6,463.5 423.6,463.5 429.9,463.5 436.2,463.5 442.5,463.5 
			442.5,463.5 448.8,463.5 455.1,463.5 461.4,463.5 467.6,463.5 467.6,463.5 473.9,463.5 480.2,463.5 486.5,463.5 492.8,463.5 
			492.8,463.5 499.1,463.5 505.4,463.5 511.7,463.5 518,463.5 524.3,463.5 530.6,463.5 536.8,463.5 536.8,463.5 543.1,463.5 
			549.4,463.5 555.7,463.5 555.7,463.5 562,463.5 568.3,463.5 574.6,463.5 580.9,463.5 580.9,463.5 587.2,463.5 593.5,463.5 
			599.8,463.5 606,463.5 606,463.5 612.3,463.5 618.6,463.5 624.9,463.5 631.2,463.5 631.2,463.5 637.5,463.5 637.5,0 		"/>
		<line class="st4" x1="21" y1="463.5" x2="637.5" y2="463.5"/>
	</g>
	<g class="st0">
		<text transform="matrix(1 0 0 1 5.6426 417.0996)" class="st5 st6 st7">20</text>
	</g>
	<g class="st0">
		<text transform="matrix(1 0 0 1 5.6426 368.3496)" class="st5 st6 st7">40</text>
	</g>
	<g class="st0">
		<text transform="matrix(1 0 0 1 5.6426 318.8496)" class="st5 st6 st7">60</text>
	</g>
	<g class="st0">
		<text transform="matrix(1 0 0 1 5.6426 269.3496)" class="st5 st6 st7">80</text>
	</g>
	<g class="st0">
		<text transform="matrix(1 0 0 1 0.5889 219.8496)" class="st5 st6 st7">100</text>
	</g>
	<g class="st0">
		<text transform="matrix(1 0 0 1 0.5889 171.0996)" class="st5 st6 st7">120</text>
	</g>
	<g class="st0">
		<text transform="matrix(1 0 0 1 0.5889 121.5996)" class="st5 st6 st7">140</text>
	</g>
	<g class="st0">
		<text transform="matrix(1 0 0 1 0.5889 72.0996)" class="st5 st6 st7">160</text>
	</g>
	<g class="st0">
		<text transform="matrix(1 0 0 1 0.5889 22.5996)" class="st5 st6 st7">180</text>
	</g>
</g>
<g>
	<text transform="matrix(1 0 0 1 618.1919 479.2899)" class="st8 st6 st7">6/16</text>
</g>
<g>
	<text transform="matrix(1 0 0 1 97.5569 479.2898)" class="st8 st6 st7">3/24</text>
</g>
<g>
	<g>
		<path class="st9" d="M501,125.1c1.7-11.8,11-21.9,24.5-26.3c9.7-3.1,18.8-2.5,24.4-1.6"/>
		<g>
			<polygon class="st10" points="547.3,99.5 549,97 548.4,94.1 554.3,98 			"/>
		</g>
	</g>
</g>
<text transform="matrix(1 0 0 1 472.5909 129.0605)" class="st11 st12 st13">6/4</text>
<text transform="matrix(1 0 0 1 445.6707 142.2603)" class="st11 st14 st13">Deadliest day</text>
<text transform="matrix(1 0 0 1 460.0706 155.4604)" class="st11 st12 st13">9 deaths</text>
</svg>
