<?xml version="1.0" encoding="utf-8"?>
<!-- Generator: Adobe Illustrator 23.0.1, SVG Export Plug-In . SVG Version: 6.00 Build 0)  -->
<svg version="1.1" id="Layer_1" xmlns="http://www.w3.org/2000/svg" xmlns:xlink="http://www.w3.org/1999/xlink" x="0px" y="0px"
	 viewBox="0 0 637.5 487.5" style="enable-background:new 0 0 637.5 487.5;" xml:space="preserve">
<style type="text/css">
	.st0{clip-path:url(#SVGID_2_);}
	.st1{clip-path:url(#SVGID_4_);fill:none;stroke:#E8E8E8;stroke-width:0.75;stroke-miterlimit:10;}
	.st2{clip-path:url(#SVGID_4_);fill:#C71E1D;}
	.st3{clip-path:url(#SVGID_4_);fill:#C71E1D;fill-opacity:0.6;stroke:#000000;stroke-width:0.5;stroke-miterlimit:10;}
	.st4{clip-path:url(#SVGID_4_);fill:none;stroke:#333333;stroke-width:0.75;stroke-miterlimit:10;}
	.st5{fill:#A6A6A6;}
	.st6{font-family:'Roboto-Regular';}
	.st7{font-size:9px;}
	.st8{fill:none;stroke:#9A0000;stroke-width:0.75;stroke-miterlimit:10;}
	.st9{fill:#9A0000;}
	.st10{fill:#893333;}
	.st11{font-family:'ArialMT';}
	.st12{font-size:11px;}
	.st13{font-family:'Arial-BoldMT';}
	.st14{fill:#333333;}
</style>
<g>
	<defs>
		<rect id="SVGID_1_" width="637.5" height="487.5"/>
	</defs>
	<clipPath id="SVGID_2_">
		<use xlink:href="#SVGID_1_"  style="overflow:visible;"/>
	</clipPath>
	<g class="st0">
		<defs>
			<rect id="SVGID_3_" width="637.5" height="483"/>
		</defs>
		<clipPath id="SVGID_4_">
			<use xlink:href="#SVGID_3_"  style="overflow:visible;"/>
		</clipPath>
		<line class="st1" x1="21" y1="42" x2="637.5" y2="42"/>
		<line class="st1" x1="21" y1="102" x2="637.5" y2="102"/>
		<line class="st1" x1="21" y1="162.8" x2="637.5" y2="162.8"/>
		<line class="st1" x1="21" y1="222.8" x2="637.5" y2="222.8"/>
		<line class="st1" x1="21" y1="282.8" x2="637.5" y2="282.8"/>
		<line class="st1" x1="21" y1="342.8" x2="637.5" y2="342.8"/>
		<line class="st1" x1="21" y1="403.5" x2="637.5" y2="403.5"/>
		<path class="st2" d="M21,463.5h6.9H21z"/>
		<path class="st2" d="M27.9,463.5h6.9H27.9z"/>
		<path class="st2" d="M34.9,463.5h6.9H34.9z"/>
		<path class="st2" d="M41.8,463.5h6.9H41.8z"/>
		<path class="st2" d="M48.7,463.5h6.9H48.7z"/>
		<path class="st2" d="M55.6,463.5h6.9H55.6z"/>
		<path class="st2" d="M62.6,463.5h6.9H62.6z"/>
		<path class="st2" d="M69.5,463.5h6.9H69.5z"/>
		<path class="st2" d="M76.4,463.5h6.9H76.4z"/>
		<path class="st2" d="M83.3,463.5h6.9H83.3z"/>
		<path class="st2" d="M90.3,463.5h6.9H90.3z"/>
		<path class="st2" d="M97.2,463.5h6.9H97.2z"/>
		<path class="st2" d="M104.1,463.5h6.9H104.1z"/>
		<polygon class="st3" points="629.6,0 629.4,0 622.7,0 622.7,6 615.8,6 615.8,9 609.1,9 609.1,36 602.1,36 602.1,54 595.2,54 
			595.2,63 588.4,63 581.6,63 581.5,63 574.7,63 574.7,66 567.8,66 567.8,87 560.9,87 560.9,102 554,102 554,105 547.1,105 
			547.1,111 540.3,111 540.3,114 533.4,114 533.4,117.6 526.5,117.6 526.5,123.6 519.6,123.6 519.6,132.6 512.7,132.6 512.7,141.8 
			505.9,141.8 505.9,156.8 499,156.8 499,162.8 492,162.8 492,168.8 485.1,168.8 478.2,168.8 471.3,168.8 464.3,168.8 464.3,171.8 
			457.4,171.8 457.4,177.8 450.5,177.8 450.5,180.8 443.5,180.8 443.5,189.8 436.6,189.8 436.6,192.8 429.7,192.8 429.7,198.8 
			422.8,198.8 415.8,198.8 415.8,201.8 408.9,201.8 408.9,213.8 402,213.8 402,222.8 395.1,222.8 395.1,234.8 388.1,234.8 
			388.1,246.8 381.2,246.8 381.2,270.8 374.3,270.8 374.3,279.8 367.3,279.8 367.3,285.8 360.4,285.8 360.4,291.8 353.5,291.8 
			353.5,309.8 346.6,309.8 346.6,312.8 339.6,312.8 339.6,318.8 332.7,318.8 332.7,321.8 325.8,321.8 325.8,327.8 318.9,327.8 
			318.9,330.8 311.9,330.8 311.9,333.8 305,333.8 305,336.8 298.1,336.8 298.1,345.8 291.2,345.8 291.2,349.5 284.2,349.5 
			284.2,352.5 277.3,352.5 270.4,352.5 270.4,361.5 263.4,361.5 263.4,367.5 256.5,367.5 256.5,373.5 249.6,373.5 249.6,382.5 
			242.7,382.5 242.7,388.5 235.7,388.5 235.7,391.5 228.8,391.5 228.8,400.5 221.9,400.5 221.9,409.5 215,409.5 208,409.5 
			208,415.5 201.1,415.5 194.2,415.5 194.2,421.5 187.2,421.5 187.2,427.5 180.3,427.5 173.4,427.5 173.4,433.5 166.5,433.5 
			166.5,439.5 159.5,439.5 159.5,442.5 152.6,442.5 152.6,445.5 145.7,445.5 145.7,448.5 138.8,448.5 138.8,454.5 131.8,454.5 
			124.9,454.5 124.9,457.5 118,457.5 111.1,457.5 111.1,463.5 118,463.5 124.9,463.5 131.8,463.5 138.8,463.5 145.7,463.5 
			152.6,463.5 159.5,463.5 159.5,463.5 166.5,463.5 173.4,463.5 180.3,463.5 187.2,463.5 194.2,463.5 201.1,463.5 208,463.5 
			215,463.5 221.9,463.5 228.8,463.5 235.7,463.5 242.7,463.5 242.7,463.5 249.6,463.5 256.5,463.5 263.4,463.5 270.4,463.5 
			277.3,463.5 284.2,463.5 291.2,463.5 291.2,463.5 298.1,463.5 305,463.5 311.9,463.5 318.9,463.5 325.8,463.5 332.7,463.5 
			339.6,463.5 346.6,463.5 353.5,463.5 360.4,463.5 367.3,463.5 374.3,463.5 374.3,463.5 381.2,463.5 388.1,463.5 395.1,463.5 
			402,463.5 408.9,463.5 415.8,463.5 422.8,463.5 429.7,463.5 436.6,463.5 443.5,463.5 450.5,463.5 457.4,463.5 457.4,463.5 
			464.3,463.5 471.3,463.5 478.2,463.5 485.1,463.5 492,463.5 499,463.5 505.9,463.5 512.8,463.5 512.8,463.4 519.6,463.4 
			526.5,463.4 533.4,463.4 533.4,463.5 540.3,463.5 547.1,463.5 547.2,463.5 554,463.5 560.9,463.5 567.8,463.5 567.9,463.5 
			574.7,463.5 581.5,463.5 581.6,463.5 588.4,463.5 595.2,463.5 595.3,463.5 602.1,463.5 609.1,463.5 615.8,463.5 616,463.5 
			622.7,463.5 629.4,463.5 629.6,463.5 636.3,463.5 636.3,0 		"/>
		<line class="st4" x1="21" y1="463.5" x2="637.5" y2="463.5"/>
	</g>
	<g class="st0">
		<text transform="matrix(1 0 0 1 5.6426 406.5996)" class="st5 st6 st7">20</text>
	</g>
	<g class="st0">
		<text transform="matrix(1 0 0 1 5.6426 345.8496)" class="st5 st6 st7">40</text>
	</g>
	<g class="st0">
		<text transform="matrix(1 0 0 1 5.6426 285.8496)" class="st5 st6 st7">60</text>
	</g>
	<g class="st0">
		<text transform="matrix(1 0 0 1 5.6426 225.8496)" class="st5 st6 st7">80</text>
	</g>
	<g class="st0">
		<text transform="matrix(1 0 0 1 0.5889 165.8496)" class="st5 st6 st7">100</text>
	</g>
	<g class="st0">
		<text transform="matrix(1 0 0 1 0.5889 105.0996)" class="st5 st6 st7">120</text>
	</g>
	<g class="st0">
		<text transform="matrix(1 0 0 1 0.5889 45.0996)" class="st5 st6 st7">140</text>
	</g>
</g>
<g>
	<g>
		<path class="st8" d="M553.1,45.4c1.7-11.8,11-21.9,24.5-26.3c9.7-3.1,18.8-2.5,24.4-1.6"/>
		<g>
			<polygon class="st9" points="599.4,19.8 601.1,17.3 600.5,14.4 606.4,18.3 			"/>
		</g>
	</g>
</g>
<text transform="matrix(1 0 0 1 525.6677 49.326)" class="st10 st11 st12">6/4</text>
<text transform="matrix(1 0 0 1 498.7475 62.5258)" class="st10 st13 st12">Deadliest day</text>
<text transform="matrix(1 0 0 1 513.1474 75.726)" class="st10 st11 st12">9 deaths</text>
<g>
	<text transform="matrix(1 0 0 1 622.9348 478.758)" class="st14 st6 st7">6/7</text>
</g>
<g>
	<text transform="matrix(1 0 0 1 104.4114 478.7581)" class="st14 st6 st7">3/24</text>
</g>
</svg>
