<?xml version="1.0" encoding="utf-8"?>
<!-- Generator: Adobe Illustrator 23.0.1, SVG Export Plug-In . SVG Version: 6.00 Build 0)  -->
<svg version="1.1" id="Layer_1" xmlns="http://www.w3.org/2000/svg" xmlns:xlink="http://www.w3.org/1999/xlink" x="0px" y="0px"
	 viewBox="0 0 637.5 487.5" style="enable-background:new 0 0 637.5 487.5;" xml:space="preserve">
<style type="text/css">
	.st0{clip-path:url(#SVGID_2_);}
	.st1{clip-path:url(#SVGID_4_);fill:none;stroke:#E8E8E8;stroke-width:0.75;stroke-miterlimit:10;}
	.st2{clip-path:url(#SVGID_4_);fill:#C71E1D;}
	.st3{clip-path:url(#SVGID_4_);fill:#C71E1D;fill-opacity:0.6;stroke:#000000;stroke-width:0.5;stroke-miterlimit:10;}
	.st4{clip-path:url(#SVGID_4_);fill:none;stroke:#333333;stroke-width:0.75;stroke-miterlimit:10;}
	.st5{fill:#A6A6A6;}
	.st6{font-family:'Roboto-Regular';}
	.st7{font-size:9px;}
	.st8{fill:none;stroke:#9A0000;stroke-width:0.75;stroke-miterlimit:10;}
	.st9{fill:#9A0000;}
	.st10{fill:#893333;}
	.st11{font-family:'ArialMT';}
	.st12{font-size:11px;}
	.st13{font-family:'Arial-BoldMT';}
	.st14{fill:#333333;}
</style>
<g>
	<defs>
		<rect id="SVGID_1_" width="637.5" height="487.5"/>
	</defs>
	<clipPath id="SVGID_2_">
		<use xlink:href="#SVGID_1_"  style="overflow:visible;"/>
	</clipPath>
	<g class="st0">
		<defs>
			<rect id="SVGID_3_" width="637.5" height="483"/>
		</defs>
		<clipPath id="SVGID_4_">
			<use xlink:href="#SVGID_3_"  style="overflow:visible;"/>
		</clipPath>
		<line class="st1" x1="21" y1="60.8" x2="637.5" y2="60.8"/>
		<line class="st1" x1="21" y1="141" x2="637.5" y2="141"/>
		<line class="st1" x1="21" y1="222" x2="637.5" y2="222"/>
		<line class="st1" x1="21" y1="302.2" x2="637.5" y2="302.2"/>
		<line class="st1" x1="21" y1="383.2" x2="637.5" y2="383.2"/>
		<path class="st2" d="M21,463.5h8.3H21z"/>
		<path class="st2" d="M29.3,463.5h8.3H29.3z"/>
		<path class="st2" d="M37.7,463.5H46H37.7z"/>
		<path class="st2" d="M46,463.5h8.3H46z"/>
		<path class="st2" d="M54.3,463.5h8.3H54.3z"/>
		<path class="st2" d="M62.7,463.5H71H62.7z"/>
		<path class="st2" d="M71,463.5h8.3H71z"/>
		<path class="st2" d="M79.3,463.5h8.3H79.3z"/>
		<path class="st2" d="M87.6,463.5H96H87.6z"/>
		<path class="st2" d="M96,463.5h8.3H96z"/>
		<path class="st2" d="M104.3,463.5h8.3H104.3z"/>
		<path class="st2" d="M112.6,463.5h8.3H112.6z"/>
		<path class="st2" d="M121,463.5h8.3H121z"/>
		<polygon class="st3" points="628.5,0 628.5,8.2 620.2,8.2 620.2,20.2 611.9,20.2 611.9,32.2 603.6,32.2 603.6,52.5 595.3,52.5 
			595.3,60.8 587,60.8 587,68.2 578.7,68.2 570.4,68.2 570.3,68.2 562.1,68.2 553.7,68.2 553.7,72.8 545.5,72.8 545.5,80.2 
			537.1,80.2 537.1,84.8 528.9,84.8 528.9,96.8 520.5,96.8 520.5,100.5 512.2,100.5 512.2,108.8 503.9,108.8 495.6,108.8 
			495.6,112.5 487.2,112.5 487.2,129 478.9,129 478.9,141 470.6,141 470.6,157.5 462.3,157.5 462.3,173.2 453.9,173.2 453.9,205.5 
			445.6,205.5 445.6,217.5 437.3,217.5 437.3,225.8 428.9,225.8 428.9,234 420.6,234 420.6,258 412.3,258 412.3,261.8 403.9,261.8 
			403.9,270 395.6,270 395.6,273.8 387.3,273.8 387.3,282 378.9,282 378.9,286.5 370.6,286.5 370.6,290.2 362.3,290.2 362.3,294 
			353.9,294 353.9,306 345.6,306 345.6,310.5 337.3,310.5 337.3,314.2 329,314.2 320.6,314.2 320.6,326.2 312.3,326.2 312.3,334.5 
			304,334.5 304,342.8 295.6,342.8 295.6,354.8 287.3,354.8 287.3,363 279,363 279,366.8 270.6,366.8 270.6,378.8 262.3,378.8 
			262.3,390.8 254,390.8 245.6,390.8 245.6,399 237.3,399 229,399 229,407.2 220.7,407.2 220.7,415.5 212.5,415.5 204.1,415.5 
			204.1,423 195.8,423 195.8,431.2 187.5,431.2 187.5,435 179.2,435 179.2,439.5 170.9,439.5 170.9,443.2 162.5,443.2 162.5,451.5 
			154.2,451.5 145.9,451.5 145.9,455.2 137.6,455.2 129.3,455.2 129.3,463.5 137.6,463.5 145.9,463.5 146,463.5 154.2,463.5 
			162.5,463.5 170.9,463.5 179.2,463.5 187.5,463.5 195.8,463.5 204.1,463.5 204.2,463.5 212.5,463.5 220.7,463.5 220.8,463.5 
			229,463.5 237.3,463.5 245.6,463.5 254,463.5 262.3,463.5 270.6,463.5 279,463.5 287.3,463.5 295.6,463.5 304,463.5 312.3,463.5 
			320.6,463.5 329,463.5 337.3,463.5 345.6,463.5 353.9,463.5 362.3,463.5 370.6,463.5 378.9,463.5 387.3,463.5 395.6,463.5 
			403.9,463.5 412.3,463.5 420.6,463.5 428.9,463.5 428.9,463.5 437.3,463.5 445.6,463.5 453.9,463.5 462.3,463.5 470.6,463.5 
			478.9,463.5 487.2,463.5 487.2,463.5 495.6,463.5 503.9,463.5 512.2,463.5 512.2,463.5 520.5,463.5 528.9,463.5 537.1,463.5 
			537.2,463.5 545.5,463.5 553.7,463.5 553.8,463.5 562.1,463.5 570.3,463.5 570.4,463.5 578.7,463.5 587,463.5 595.3,463.5 
			595.3,463.5 603.6,463.5 611.9,463.5 611.9,463.5 620.2,463.5 628.5,463.5 628.6,463.5 636.8,463.5 636.8,0 		"/>
		<line class="st4" x1="21" y1="463.5" x2="637.5" y2="463.5"/>
	</g>
	<g class="st0">
		<text transform="matrix(1 0 0 1 5.2559 385.5996)" class="st5 st6 st7">20</text>
	</g>
	<g class="st0">
		<text transform="matrix(1 0 0 1 5.2559 304.5996)" class="st5 st6 st7">40</text>
	</g>
	<g class="st0">
		<text transform="matrix(1 0 0 1 5.2559 224.3496)" class="st5 st6 st7">60</text>
	</g>
	<g class="st0">
		<text transform="matrix(1 0 0 1 5.2559 143.3496)" class="st5 st6 st7">80</text>
	</g>
	<g class="st0">
		<text transform="matrix(1 0 0 1 2.929688e-03 63.0996)" class="st5 st6 st7">100</text>
	</g>
</g>
<g>
	<g>
		<path class="st8" d="M397.8,207.8c1.7-11.8,11-21.9,24.5-26.3c9.7-3.1,18.8-2.5,24.4-1.6"/>
		<g>
			<polygon class="st9" points="444.1,182.2 445.8,179.7 445.2,176.8 451.1,180.7 			"/>
		</g>
	</g>
</g>
<text transform="matrix(1 0 0 1 368.2357 211.8186)" class="st10 st11 st12">4/28</text>
<text transform="matrix(1 0 0 1 343.4357 225.0183)" class="st10 st13 st12">Deadliest day</text>
<text transform="matrix(1 0 0 1 357.8356 238.2185)" class="st10 st11 st12">6 deaths</text>
<g>
	<text transform="matrix(1 0 0 1 618.7766 477.8154)" class="st14 st6 st7">5/23</text>
</g>
<g>
	<text transform="matrix(1 0 0 1 123.9367 477.8152)" class="st14 st6 st7">3/24</text>
</g>
</svg>
