<?xml version="1.0" encoding="utf-8"?>
<!-- Generator: Adobe Illustrator 23.0.1, SVG Export Plug-In . SVG Version: 6.00 Build 0)  -->
<svg version="1.1" id="Layer_1" xmlns="http://www.w3.org/2000/svg" xmlns:xlink="http://www.w3.org/1999/xlink" x="0px" y="0px"
	 viewBox="0 0 637.5 487.5" style="enable-background:new 0 0 637.5 487.5;" xml:space="preserve">
<style type="text/css">
	.st0{clip-path:url(#SVGID_2_);}
	.st1{clip-path:url(#SVGID_4_);fill:none;stroke:#E8E8E8;stroke-width:0.75;stroke-miterlimit:10;}
	.st2{clip-path:url(#SVGID_4_);fill:#C71E1D;}
	.st3{clip-path:url(#SVGID_4_);fill:#C71E1D;fill-opacity:0.6;stroke:#000000;stroke-width:0.5;stroke-miterlimit:10;}
	.st4{clip-path:url(#SVGID_4_);fill:none;stroke:#333333;stroke-width:0.75;stroke-miterlimit:10;}
	.st5{fill:#A6A6A6;}
	.st6{font-family:'Roboto-Regular';}
	.st7{font-size:9px;}
	.st8{fill:none;stroke:#9A0000;stroke-width:0.75;stroke-miterlimit:10;}
	.st9{fill:#9A0000;}
	.st10{fill:#893333;}
	.st11{font-family:'ArialMT';}
	.st12{font-size:11px;}
	.st13{font-family:'Arial-BoldMT';}
	.st14{fill:#333333;}
</style>
<g>
	<defs>
		<rect id="SVGID_1_" width="637.5" height="487.5"/>
	</defs>
	<clipPath id="SVGID_2_">
		<use xlink:href="#SVGID_1_"  style="overflow:visible;"/>
	</clipPath>
	<g class="st0">
		<defs>
			<rect id="SVGID_3_" width="637.5" height="483"/>
		</defs>
		<clipPath id="SVGID_4_">
			<use xlink:href="#SVGID_3_"  style="overflow:visible;"/>
		</clipPath>
		<line class="st1" x1="21" y1="39.8" x2="637.5" y2="39.8"/>
		<line class="st1" x1="21" y1="87" x2="637.5" y2="87"/>
		<line class="st1" x1="21" y1="134.2" x2="637.5" y2="134.2"/>
		<line class="st1" x1="21" y1="181.5" x2="637.5" y2="181.5"/>
		<line class="st1" x1="21" y1="228" x2="637.5" y2="228"/>
		<line class="st1" x1="21" y1="275.2" x2="637.5" y2="275.2"/>
		<line class="st1" x1="21" y1="322.5" x2="637.5" y2="322.5"/>
		<line class="st1" x1="21" y1="369.8" x2="637.5" y2="369.8"/>
		<line class="st1" x1="21" y1="416.2" x2="637.5" y2="416.2"/>
		<path class="st2" d="M21,463.5h6.2H21z"/>
		<path class="st2" d="M27.2,463.5h6.2H27.2z"/>
		<path class="st2" d="M33.5,463.5h6.2H33.5z"/>
		<path class="st2" d="M39.7,463.5h6.2H39.7z"/>
		<path class="st2" d="M45.9,463.5h6.2H45.9z"/>
		<path class="st2" d="M52.1,463.5h6.2H52.1z"/>
		<path class="st2" d="M58.4,463.5h6.2H58.4z"/>
		<path class="st2" d="M64.6,463.5h6.2H64.6z"/>
		<path class="st2" d="M70.8,463.5H77H70.8z"/>
		<path class="st2" d="M77,463.5h6.2H77z"/>
		<path class="st2" d="M83.3,463.5h6.2H83.3z"/>
		<path class="st2" d="M89.5,463.5h6.2H89.5z"/>
		<path class="st2" d="M95.7,463.5h6.2H95.7z"/>
		<polygon class="st3" points="630.6,0 630.6,21 624.4,21 624.4,35.2 618.2,35.2 618.2,42 611.9,42 611.9,47.2 605.7,47.2 
			605.7,49.5 599.5,49.5 599.5,61.5 593.3,61.5 593.3,75 587,75 587,84.8 580.8,84.8 580.8,99 574.6,99 574.6,101.2 568.3,101.2 
			562.1,101.2 562.1,105.8 555.9,105.8 555.9,108 549.7,108 549.7,129.8 543.4,129.8 543.4,143.2 537.2,143.2 537.2,150.8 
			531,150.8 531,150.8 524.8,150.8 518.5,150.8 518.5,153 512.3,153 512.3,169.5 506.1,169.5 506.1,181.5 499.8,181.5 499.8,183.8 
			493.6,183.8 493.6,188.2 487.5,188.2 487.5,190.5 481.3,190.5 481.3,192.8 475.1,192.8 475.1,198 468.8,198 468.8,204.8 
			462.6,204.8 462.6,211.5 456.4,211.5 456.4,223.5 450.1,223.5 450.1,228 443.9,228 443.9,233.2 437.8,233.2 431.6,233.2 
			425.5,233.2 425.4,233.2 419.2,233.2 419.2,235.5 413,235.5 413,240 406.8,240 406.8,242.2 400.6,242.2 400.6,249.8 394.3,249.8 
			394.3,252 388.1,252 388.1,256.5 381.9,256.5 375.7,256.5 375.7,258.8 369.5,258.8 369.5,268.5 363.3,268.5 363.3,275.2 
			357,275.2 357,285 350.8,285 350.8,294 344.6,294 344.6,312.8 338.4,312.8 338.4,320.2 332.2,320.2 332.2,324.8 325.9,324.8 
			325.9,329.2 319.7,329.2 319.7,343.5 313.5,343.5 313.5,345.8 307.3,345.8 307.3,350.2 301.1,350.2 301.1,353.2 294.9,353.2 
			294.9,357.8 288.6,357.8 288.6,360 282.5,360 282.5,362.2 276.3,362.2 276.3,364.5 270.1,364.5 270.1,372 263.9,372 263.9,374.2 
			257.6,374.2 257.6,376.5 251.4,376.5 245.2,376.5 245.2,383.2 239,383.2 239,388.5 232.7,388.5 232.7,393 226.5,393 226.5,399.8 
			220.3,399.8 220.3,405 214,405 214,407.2 207.8,407.2 207.8,414 201.6,414 201.6,421.5 195.4,421.5 189.1,421.5 189.1,426 
			182.9,426 176.7,426 176.7,430.5 170.5,430.5 170.5,435 164.2,435 158,435 158,440.2 151.8,440.2 151.8,444.8 145.5,444.8 
			145.5,447 139.3,447 139.3,449.2 133.1,449.2 133.1,451.5 126.9,451.5 126.9,456.8 120.6,456.8 114.4,456.8 114.4,459 108.2,459 
			102,459 102,463.5 108.2,463.5 114.4,463.5 120.6,463.5 126.9,463.5 133.1,463.5 139.3,463.5 145.5,463.5 151.8,463.5 
			151.8,463.5 158,463.5 164.2,463.5 170.5,463.5 170.5,463.5 176.7,463.5 182.9,463.5 189.1,463.5 195.4,463.5 201.6,463.5 
			207.8,463.5 214,463.5 220.3,463.5 220.3,463.5 226.5,463.5 232.7,463.5 239,463.5 239,463.5 245.2,463.5 251.4,463.5 
			257.6,463.5 263.9,463.5 270.1,463.5 276.3,463.5 282.5,463.5 288.6,463.5 288.8,463.5 294.9,463.5 301.1,463.5 307.3,463.5 
			307.3,463.5 313.5,463.5 319.7,463.5 325.9,463.5 332.2,463.5 338.4,463.5 344.6,463.5 350.8,463.5 357,463.5 357.1,463.5 
			363.3,463.5 369.5,463.5 375.7,463.5 375.7,463.5 381.9,463.5 388.1,463.5 394.3,463.5 400.6,463.5 406.8,463.5 413,463.5 
			419.2,463.5 425.4,463.5 425.5,463.5 431.6,463.5 437.8,463.5 443.9,463.5 444,463.5 450.1,463.5 456.4,463.5 462.6,463.5 
			468.8,463.5 475.1,463.5 481.3,463.5 487.5,463.5 493.6,463.5 493.7,463.5 499.8,463.5 506.1,463.5 512.3,463.5 518.5,463.5 
			524.8,463.5 531,463.5 531,463.5 537.2,463.5 543.4,463.5 543.4,463.5 549.7,463.5 555.9,463.5 562.1,463.5 562.1,463.5 
			568.3,463.5 574.6,463.5 580.8,463.5 580.8,463.5 587,463.5 593.3,463.5 599.5,463.5 599.5,463.5 605.7,463.5 611.9,463.5 
			611.9,463.5 618.2,463.5 624.4,463.5 630.6,463.5 630.6,463.5 636.8,463.5 636.8,0 		"/>
		<line class="st4" x1="21" y1="463.5" x2="637.5" y2="463.5"/>
	</g>
	<g class="st0">
		<text transform="matrix(1 0 0 1 5.6426 419.3496)" class="st5 st6 st7">20</text>
	</g>
	<g class="st0">
		<text transform="matrix(1 0 0 1 5.6426 372.8496)" class="st5 st6 st7">40</text>
	</g>
	<g class="st0">
		<text transform="matrix(1 0 0 1 5.6426 325.5996)" class="st5 st6 st7">60</text>
	</g>
	<g class="st0">
		<text transform="matrix(1 0 0 1 5.6426 278.3496)" class="st5 st6 st7">80</text>
	</g>
	<g class="st0">
		<text transform="matrix(1 0 0 1 0.5889 231.0996)" class="st5 st6 st7">100</text>
	</g>
	<g class="st0">
		<text transform="matrix(1 0 0 1 0.5889 184.5996)" class="st5 st6 st7">120</text>
	</g>
	<g class="st0">
		<text transform="matrix(1 0 0 1 0.5889 137.3496)" class="st5 st6 st7">140</text>
	</g>
	<g class="st0">
		<text transform="matrix(1 0 0 1 0.5889 90.0996)" class="st5 st6 st7">160</text>
	</g>
	<g class="st0">
		<text transform="matrix(1 0 0 1 0.5889 42.8496)" class="st5 st6 st7">180</text>
	</g>
</g>
<g>
	<g>
		<path class="st8" d="M492.4,141.4c1.7-11.8,11-21.9,24.5-26.3c9.7-3.1,18.8-2.5,24.4-1.6"/>
		<g>
			<polygon class="st9" points="538.7,115.8 540.4,113.3 539.8,110.4 545.7,114.3 			"/>
		</g>
	</g>
</g>
<text transform="matrix(1 0 0 1 463.9767 145.3865)" class="st10 st11 st12">6/4</text>
<text transform="matrix(1 0 0 1 437.0565 158.5862)" class="st10 st13 st12">Deadliest day</text>
<text transform="matrix(1 0 0 1 451.4564 171.7864)" class="st10 st11 st12">9 deaths</text>
<g>
	<g>
		<path class="st8" d="M574.6,34.2c1.7-11.8,11-21.9,24.5-26.3c9.7-3.1,18.8-2.5,24.4-1.6"/>
		<g>
			<polygon class="st9" points="620.9,8.6 622.6,6.1 622,3.2 627.9,7.1 			"/>
		</g>
	</g>
</g>
<text transform="matrix(1 0 0 1 546.2269 38.2211)" class="st10 st11 st12">6/17</text>
<text transform="matrix(1 0 0 1 519.3066 51.4208)" class="st10 st13 st12">Deadliest day</text>
<text transform="matrix(1 0 0 1 533.7065 64.621)" class="st10 st11 st12">9 deaths</text>
<g>
	<text transform="matrix(1 0 0 1 617.3537 479.0428)" class="st14 st6 st7">6/17</text>
</g>
<g>
	<text transform="matrix(1 0 0 1 98.0278 479.0429)" class="st14 st6 st7">3/24</text>
</g>
</svg>
