<?xml version="1.0" encoding="utf-8"?>
<!-- Generator: Adobe Illustrator 23.0.1, SVG Export Plug-In . SVG Version: 6.00 Build 0)  -->
<svg version="1.1" id="Layer_1" xmlns="http://www.w3.org/2000/svg" xmlns:xlink="http://www.w3.org/1999/xlink" x="0px" y="0px"
	 viewBox="0 0 637.5 487.5" style="enable-background:new 0 0 637.5 487.5;" xml:space="preserve">
<style type="text/css">
	.st0{clip-path:url(#SVGID_2_);}
	.st1{clip-path:url(#SVGID_4_);fill:none;stroke:#E8E8E8;stroke-width:0.75;stroke-miterlimit:10;}
	.st2{clip-path:url(#SVGID_4_);fill:#C71E1D;}
	.st3{clip-path:url(#SVGID_4_);fill:#C71E1D;fill-opacity:0.6;stroke:#000000;stroke-width:0.5;stroke-miterlimit:10;}
	.st4{clip-path:url(#SVGID_4_);fill:none;stroke:#333333;stroke-width:0.75;stroke-miterlimit:10;}
	.st5{fill:#A6A6A6;}
	.st6{font-family:'Roboto-Regular';}
	.st7{font-size:9px;}
	.st8{fill:#333333;}
	.st9{fill:none;stroke:#9A0000;stroke-width:0.75;stroke-miterlimit:10;}
	.st10{fill:#9A0000;}
	.st11{fill:#893333;}
	.st12{font-family:'ArialMT';}
	.st13{font-size:11px;}
	.st14{font-family:'Arial-BoldMT';}
</style>
<g>
	<defs>
		<rect id="SVGID_1_" width="637.5" height="487.5"/>
	</defs>
	<clipPath id="SVGID_2_">
		<use xlink:href="#SVGID_1_"  style="overflow:visible;"/>
	</clipPath>
	<g class="st0">
		<defs>
			<rect id="SVGID_3_" width="637.5" height="483"/>
		</defs>
		<clipPath id="SVGID_4_">
			<use xlink:href="#SVGID_3_"  style="overflow:visible;"/>
		</clipPath>
		<line class="st1" x1="21" y1="6" x2="637.5" y2="6"/>
		<line class="st1" x1="21" y1="47.2" x2="637.5" y2="47.2"/>
		<line class="st1" x1="21" y1="89.2" x2="637.5" y2="89.2"/>
		<line class="st1" x1="21" y1="130.5" x2="637.5" y2="130.5"/>
		<line class="st1" x1="21" y1="172.5" x2="637.5" y2="172.5"/>
		<line class="st1" x1="21" y1="213.8" x2="637.5" y2="213.8"/>
		<line class="st1" x1="21" y1="255.8" x2="637.5" y2="255.8"/>
		<line class="st1" x1="21" y1="297" x2="637.5" y2="297"/>
		<line class="st1" x1="21" y1="339" x2="637.5" y2="339"/>
		<line class="st1" x1="21" y1="380.2" x2="637.5" y2="380.2"/>
		<line class="st1" x1="21" y1="422.2" x2="637.5" y2="422.2"/>
		<path class="st2" d="M21,463.5h8.6H21z"/>
		<path class="st2" d="M29.6,463.5h8.6H29.6z"/>
		<path class="st2" d="M38.1,463.5h8.6H38.1z"/>
		<path class="st2" d="M46.7,463.5h8.6H46.7z"/>
		<path class="st2" d="M55.2,463.5h8.6H55.2z"/>
		<path class="st2" d="M63.8,463.5h8.6H63.8z"/>
		<path class="st2" d="M72.4,463.5h8.6H72.4z"/>
		<path class="st2" d="M80.9,463.5h8.6H80.9z"/>
		<path class="st2" d="M89.5,463.5h8.6H89.5z"/>
		<path class="st2" d="M98.1,463.5h8.6H98.1z"/>
		<path class="st2" d="M106.6,463.5h8.6H106.6z"/>
		<path class="st2" d="M115.2,463.5h8.6H115.2z"/>
		<path class="st2" d="M123.8,463.5h8.6H123.8z"/>
		<polygon class="st3" points="628.9,6 628.9,18.8 620.4,18.8 620.4,39 611.8,39 611.8,47.2 603.2,47.2 603.2,56.2 594.7,56.2 
			586.1,56.2 577.6,56.2 569,56.2 569,60 560.4,60 560.4,68.2 551.9,68.2 551.9,72.8 543.3,72.8 543.3,84.8 534.8,84.8 534.8,89.2 
			526.2,89.2 526.2,97.5 517.6,97.5 509.1,97.5 509.1,102 500.5,102 500.5,118.5 491.9,118.5 491.9,130.5 483.4,130.5 483.4,147.8 
			474.8,147.8 474.8,164.2 466.2,164.2 466.2,197.2 457.7,197.2 457.7,210 449.1,210 449.1,218.2 440.6,218.2 440.6,226.5 
			432,226.5 432,251.2 423.4,251.2 423.4,255.8 414.9,255.8 414.9,264 406.3,264 406.3,267.8 397.8,267.8 397.8,276 389.2,276 
			389.2,280.5 380.6,280.5 380.6,285 372.1,285 372.1,288.8 363.5,288.8 363.5,301.5 354.9,301.5 354.9,305.2 346.4,305.2 
			346.4,309.8 337.8,309.8 337.8,309.8 329.2,309.8 329.2,321.8 320.7,321.8 320.7,330.8 312.1,330.8 312.1,339 303.6,339 
			303.6,351 295,351 295,359.2 286.4,359.2 286.4,363.8 277.9,363.8 277.9,376.5 269.3,376.5 269.3,388.5 260.8,388.5 260.8,388.5 
			252.2,388.5 252.2,396.8 243.6,396.8 243.6,396.8 235.1,396.8 235.1,405 226.5,405 226.5,413.2 217.9,413.2 217.9,413.2 
			209.4,413.2 209.4,422.2 200.8,422.2 200.8,430.5 192.2,430.5 192.2,434.2 183.7,434.2 183.7,438.8 175.1,438.8 175.1,442.5 
			166.6,442.5 166.6,450.8 158,450.8 158,450.8 149.4,450.8 149.4,455.2 140.9,455.2 140.9,455.2 132.3,455.2 132.3,463.5 
			140.9,463.5 140.9,463.5 149.4,463.5 149.4,463.5 158,463.5 158,463.5 166.6,463.5 166.6,463.5 175.1,463.5 175.1,463.5 
			183.7,463.5 183.7,463.5 192.2,463.5 192.3,463.5 200.8,463.5 200.8,463.5 209.4,463.5 209.4,463.5 217.9,463.5 217.9,463.5 
			226.5,463.5 226.5,463.5 235.1,463.5 235.1,463.5 243.6,463.5 243.6,463.5 252.2,463.5 252.2,463.5 260.8,463.5 260.8,463.5 
			269.3,463.5 269.3,463.5 277.9,463.5 277.9,463.5 286.4,463.5 286.4,463.5 295,463.5 295,463.5 303.6,463.5 303.6,463.5 
			312.1,463.5 312.1,463.5 320.7,463.5 320.7,463.5 329.2,463.5 329.3,463.5 337.8,463.5 337.8,463.5 346.4,463.5 346.4,463.5 
			354.9,463.5 354.9,463.5 363.5,463.5 363.5,463.5 372.1,463.5 372.1,463.5 380.6,463.5 380.6,463.5 389.2,463.5 389.2,463.5 
			397.8,463.5 397.8,463.5 406.3,463.5 406.3,463.5 414.9,463.5 414.9,463.5 423.4,463.5 423.4,463.5 432,463.5 432,463.5 
			440.6,463.5 440.6,463.5 449.1,463.5 449.1,463.5 457.7,463.5 457.7,463.5 466.2,463.5 466.3,463.5 474.8,463.5 474.8,463.5 
			483.4,463.5 483.4,463.5 491.9,463.5 491.9,463.5 500.5,463.5 500.5,463.5 509.1,463.5 509.1,463.5 517.6,463.5 526.2,463.5 
			534.8,463.5 543.3,463.5 551.9,463.5 560.4,463.5 569,463.5 577.6,463.5 586.1,463.5 594.7,463.5 603.2,463.5 611.8,463.5 
			620.4,463.5 628.9,463.5 637.5,463.5 637.5,6 		"/>
		<line class="st4" x1="21" y1="463.5" x2="637.5" y2="463.5"/>
	</g>
	<g class="st0">
		<text transform="matrix(1 0 0 1 5.2559 424.5996)" class="st5 st6 st7">10</text>
	</g>
	<g class="st0">
		<text transform="matrix(1 0 0 1 5.2559 382.5996)" class="st5 st6 st7">20</text>
	</g>
	<g class="st0">
		<text transform="matrix(1 0 0 1 5.2559 341.3496)" class="st5 st6 st7">30</text>
	</g>
	<g class="st0">
		<text transform="matrix(1 0 0 1 5.2559 299.3496)" class="st5 st6 st7">40</text>
	</g>
	<g class="st0">
		<text transform="matrix(1 0 0 1 5.2559 258.0996)" class="st5 st6 st7">50</text>
	</g>
	<g class="st0">
		<text transform="matrix(1 0 0 1 5.2559 216.0996)" class="st5 st6 st7">60</text>
	</g>
	<g class="st0">
		<text transform="matrix(1 0 0 1 5.2559 174.8496)" class="st5 st6 st7">70</text>
	</g>
	<g class="st0">
		<text transform="matrix(1 0 0 1 5.2559 132.8496)" class="st5 st6 st7">80</text>
	</g>
	<g class="st0">
		<text transform="matrix(1 0 0 1 5.2559 91.5996)" class="st5 st6 st7">90</text>
	</g>
	<g class="st0">
		<text transform="matrix(1 0 0 1 2.929688e-03 49.5996)" class="st5 st6 st7">100</text>
	</g>
	<g class="st0">
		<text transform="matrix(1 0 0 1 2.929688e-03 8.3496)" class="st5 st6 st7">110</text>
	</g>
</g>
<g>
	<text transform="matrix(1 0 0 1 127.0001 478.5005)" class="st8 st6 st7">3/24</text>
</g>
<g>
	<text transform="matrix(1 0 0 1 618.8285 478.501)" class="st8 st6 st7">5/21</text>
</g>
<g>
	<g>
		<path class="st9" d="M410,200.8c1.7-11.8,11-21.9,24.5-26.3c9.7-3.1,18.8-2.5,24.4-1.6"/>
		<g>
			<polygon class="st10" points="456.3,175.2 458,172.7 457.4,169.8 463.3,173.7 			"/>
		</g>
	</g>
</g>
<text transform="matrix(1 0 0 1 380.4461 204.8126)" class="st11 st12 st13">4/28</text>
<text transform="matrix(1 0 0 1 355.6461 218.0123)" class="st11 st14 st13">Deadliest day</text>
<text transform="matrix(1 0 0 1 370.046 231.2125)" class="st11 st12 st13">6 deaths</text>
</svg>
