<svg id="f3899816-2cf8-47d7-bfdd-e7b876cadda2" data-name="Layer 1" xmlns="http://www.w3.org/2000/svg" xmlns:xlink="http://www.w3.org/1999/xlink" viewBox="0 0 599.61 430.02">
  <defs>
    <style>
      .a50c1a55-7be7-4eb1-b6cf-1e2ceab6c037, .a780d2bd-a71d-4b02-87ff-ad4c3cb7df0a, .fbdd2f68-d46f-4910-bd44-b3e26a77b389 {
        fill: none;
      }

      .b37ec806-a2dd-40f3-8921-3b3b80051e33 {
        clip-path: url(#e5522787-9244-4bc6-8829-7282c726f296);
      }

      .a37b3ff9-a92e-49b0-bf23-d21e1453a8c9 {
        isolation: isolate;
      }

      .fbdd2f68-d46f-4910-bd44-b3e26a77b389 {
        stroke: #e8e8e8;
      }

      .a50c1a55-7be7-4eb1-b6cf-1e2ceab6c037, .aa69763b-6719-4422-8cf8-affc29366584, .fbdd2f68-d46f-4910-bd44-b3e26a77b389 {
        stroke-miterlimit: 10;
        stroke-width: 0.75px;
      }

      .aa69763b-6719-4422-8cf8-affc29366584, .b558dd30-666e-4480-9b03-ec5c188e41d9 {
        fill: #c71e1d;
      }

      .aa69763b-6719-4422-8cf8-affc29366584 {
        fill-opacity: 0.6;
        stroke: #000;
      }

      .a50c1a55-7be7-4eb1-b6cf-1e2ceab6c037 {
        stroke: #333;
      }

      .adb38bf4-ab65-4b01-b281-7f89eef87c77, .eebd4350-6378-4d84-9fb5-ddf0accd80b7 {
        font-size: 9px;
        font-family: Roboto-Regular, Roboto;
      }

      .eebd4350-6378-4d84-9fb5-ddf0accd80b7 {
        fill: #a6a6a6;
      }

      .adb38bf4-ab65-4b01-b281-7f89eef87c77 {
        fill: #333;
      }
    </style>
    <clipPath id="e5522787-9244-4bc6-8829-7282c726f296" transform="translate(-0.39 -10.4)">
      <rect class="a780d2bd-a71d-4b02-87ff-ad4c3cb7df0a" width="600" height="450"/>
    </clipPath>
  </defs>
  <title>deaths</title>
  <g class="b37ec806-a2dd-40f3-8921-3b3b80051e33">
    <g class="a37b3ff9-a92e-49b0-bf23-d21e1453a8c9">
      <g class="b37ec806-a2dd-40f3-8921-3b3b80051e33">
        <line class="fbdd2f68-d46f-4910-bd44-b3e26a77b389" x1="15.36" y1="5.35" x2="599.61" y2="5.35"/>
        <line class="fbdd2f68-d46f-4910-bd44-b3e26a77b389" x1="15.36" y1="56.35" x2="599.61" y2="56.35"/>
        <line class="fbdd2f68-d46f-4910-bd44-b3e26a77b389" x1="15.36" y1="108.1" x2="599.61" y2="108.1"/>
        <line class="fbdd2f68-d46f-4910-bd44-b3e26a77b389" x1="15.36" y1="159.1" x2="599.61" y2="159.1"/>
        <line class="fbdd2f68-d46f-4910-bd44-b3e26a77b389" x1="15.36" y1="210.1" x2="599.61" y2="210.1"/>
        <line class="fbdd2f68-d46f-4910-bd44-b3e26a77b389" x1="15.36" y1="261.85" x2="599.61" y2="261.85"/>
        <line class="fbdd2f68-d46f-4910-bd44-b3e26a77b389" x1="15.36" y1="312.85" x2="599.61" y2="312.85"/>
        <line class="fbdd2f68-d46f-4910-bd44-b3e26a77b389" x1="15.36" y1="364.6" x2="599.61" y2="364.6"/>
        <path class="b558dd30-666e-4480-9b03-ec5c188e41d9" d="M15.75,426h0Z" transform="translate(-0.39 -10.4)"/>
        <path class="b558dd30-666e-4480-9b03-ec5c188e41d9" d="M26.37,426h0Z" transform="translate(-0.39 -10.4)"/>
        <path class="b558dd30-666e-4480-9b03-ec5c188e41d9" d="M37,426h0Z" transform="translate(-0.39 -10.4)"/>
        <path class="b558dd30-666e-4480-9b03-ec5c188e41d9" d="M47.62,426h0Z" transform="translate(-0.39 -10.4)"/>
        <path class="b558dd30-666e-4480-9b03-ec5c188e41d9" d="M58.24,426h0Z" transform="translate(-0.39 -10.4)"/>
        <path class="b558dd30-666e-4480-9b03-ec5c188e41d9" d="M68.86,426h0Z" transform="translate(-0.39 -10.4)"/>
        <path class="b558dd30-666e-4480-9b03-ec5c188e41d9" d="M79.49,426h0Z" transform="translate(-0.39 -10.4)"/>
        <path class="b558dd30-666e-4480-9b03-ec5c188e41d9" d="M90.11,426h0Z" transform="translate(-0.39 -10.4)"/>
        <path class="b558dd30-666e-4480-9b03-ec5c188e41d9" d="M100.73,426h0Z" transform="translate(-0.39 -10.4)"/>
        <path class="b558dd30-666e-4480-9b03-ec5c188e41d9" d="M111.35,426h0Z" transform="translate(-0.39 -10.4)"/>
        <path class="b558dd30-666e-4480-9b03-ec5c188e41d9" d="M122,426h0Z" transform="translate(-0.39 -10.4)"/>
        <path class="b558dd30-666e-4480-9b03-ec5c188e41d9" d="M132.6,426h0Z" transform="translate(-0.39 -10.4)"/>
        <path class="b558dd30-666e-4480-9b03-ec5c188e41d9" d="M143.22,426h0Z" transform="translate(-0.39 -10.4)"/>
        <polygon class="aa69763b-6719-4422-8cf8-affc29366584" points="588.26 5.38 588.26 25.63 577.67 25.63 577.67 46.63 567.04 46.63 567.04 87.1 556.5 87.1 556.5 102.85 545.91 102.85 545.91 113.35 535.32 113.35 535.32 123.1 524.69 123.1 524.69 153.85 514.13 153.85 514.13 159.1 503.54 159.1 503.54 169.6 492.92 169.6 492.92 174.85 482.33 174.85 482.33 184.6 471.71 184.6 471.71 189.85 461.09 189.85 461.09 195.1 450.46 195.1 450.46 200.35 439.87 200.35 439.87 215.35 429.25 215.35 429.25 220.6 418.63 220.6 418.63 225.85 408.03 225.85 397.41 225.85 397.41 241.6 386.78 241.6 386.78 251.35 376.16 251.35 376.16 261.85 365.54 261.85 365.54 276.85 354.92 276.85 354.92 287.35 344.32 287.35 344.32 292.6 333.7 292.6 333.7 307.6 323.08 307.6 323.08 323.35 312.49 323.35 312.46 323.35 301.87 323.35 301.87 333.85 291.24 333.85 280.62 333.85 280.62 343.6 270 343.6 270 354.1 259.41 354.1 248.78 354.1 248.78 364.6 238.19 364.6 238.19 374.35 227.57 374.35 227.57 379.6 217 379.6 217 384.85 206.44 384.85 206.44 390.1 195.85 390.1 195.85 399.85 185.22 399.85 174.6 399.85 174.6 405.1 164.08 405.1 164.01 405.1 153.45 405.1 153.45 415.6 164.01 415.6 164.08 415.6 174.6 415.6 174.63 415.6 185.22 415.6 195.85 415.6 206.44 415.6 206.47 415.6 217 415.6 217.06 415.6 227.57 415.6 227.63 415.6 238.19 415.6 248.78 415.6 248.82 415.6 259.41 415.6 270 415.6 270.03 415.6 280.62 415.6 291.24 415.6 301.87 415.6 312.46 415.6 312.49 415.6 323.08 415.6 333.7 415.6 344.32 415.6 354.92 415.6 354.95 415.6 365.54 415.6 376.16 415.6 386.78 415.6 397.41 415.6 408.03 415.6 418.63 415.6 418.65 415.6 429.25 415.6 439.87 415.6 450.46 415.6 450.5 415.6 461.09 415.6 471.71 415.6 482.33 415.6 492.92 415.6 492.95 415.6 503.54 415.6 514.13 415.6 514.17 415.6 524.69 415.6 524.76 415.6 535.32 415.6 545.91 415.6 545.94 415.6 556.5 415.6 556.53 415.6 567.04 415.6 567.04 415.63 577.67 415.63 588.26 415.63 588.29 415.63 598.88 415.63 598.88 5.38 588.26 5.38"/>
        <line class="a50c1a55-7be7-4eb1-b6cf-1e2ceab6c037" x1="15.36" y1="415.6" x2="599.61" y2="415.6"/>
        <text class="eebd4350-6378-4d84-9fb5-ddf0accd80b7" transform="translate(0 366.95)">10</text>
        <text class="eebd4350-6378-4d84-9fb5-ddf0accd80b7" transform="translate(0 315.2)">20</text>
        <text class="eebd4350-6378-4d84-9fb5-ddf0accd80b7" transform="translate(0 264.2)">30</text>
        <text class="eebd4350-6378-4d84-9fb5-ddf0accd80b7" transform="translate(0 212.45)">40</text>
        <text class="eebd4350-6378-4d84-9fb5-ddf0accd80b7" transform="translate(0 161.45)">50</text>
        <text class="eebd4350-6378-4d84-9fb5-ddf0accd80b7" transform="translate(0 110.45)">60</text>
        <text class="eebd4350-6378-4d84-9fb5-ddf0accd80b7" transform="translate(0 58.7)">70</text>
        <text class="eebd4350-6378-4d84-9fb5-ddf0accd80b7" transform="translate(0 7.7)">80</text>
      </g>
    </g>
  </g>
  <text class="adb38bf4-ab65-4b01-b281-7f89eef87c77" transform="translate(149.31 427.58)">3/24</text>
</svg>
