<?xml version="1.0" encoding="utf-8"?>
<!-- Generator: Adobe Illustrator 23.0.1, SVG Export Plug-In . SVG Version: 6.00 Build 0)  -->
<svg version="1.1" id="Layer_1" xmlns="http://www.w3.org/2000/svg" xmlns:xlink="http://www.w3.org/1999/xlink" x="0px" y="0px"
	 viewBox="0 0 637.5 487.5" style="enable-background:new 0 0 637.5 487.5;" xml:space="preserve">
<style type="text/css">
	.st0{clip-path:url(#SVGID_2_);}
	.st1{clip-path:url(#SVGID_4_);fill:none;stroke:#E8E8E8;stroke-width:0.75;stroke-miterlimit:10;}
	.st2{clip-path:url(#SVGID_4_);fill:#C71E1D;}
	.st3{clip-path:url(#SVGID_4_);fill:#C71E1D;fill-opacity:0.6;stroke:#000000;stroke-width:0.5;stroke-miterlimit:10;}
	.st4{clip-path:url(#SVGID_4_);fill:none;stroke:#333333;stroke-width:0.75;stroke-miterlimit:10;}
	.st5{fill:#A6A6A6;}
	.st6{font-family:'Roboto-Regular';}
	.st7{font-size:9px;}
	.st8{fill:none;stroke:#9A0000;stroke-width:0.75;stroke-miterlimit:10;}
	.st9{fill:#9A0000;}
	.st10{fill:#893333;}
	.st11{font-family:'ArialMT';}
	.st12{font-size:11px;}
	.st13{font-family:'Arial-BoldMT';}
	.st14{fill:#333333;}
</style>
<g>
	<defs>
		<rect id="SVGID_1_" width="637.5" height="487.5"/>
	</defs>
	<clipPath id="SVGID_2_">
		<use xlink:href="#SVGID_1_"  style="overflow:visible;"/>
	</clipPath>
	<g class="st0">
		<defs>
			<rect id="SVGID_3_" width="637.5" height="483"/>
		</defs>
		<clipPath id="SVGID_4_">
			<use xlink:href="#SVGID_3_"  style="overflow:visible;"/>
		</clipPath>
		<line class="st1" x1="21" y1="45" x2="637.5" y2="45"/>
		<line class="st1" x1="21" y1="114.8" x2="637.5" y2="114.8"/>
		<line class="st1" x1="21" y1="184.5" x2="637.5" y2="184.5"/>
		<line class="st1" x1="21" y1="254.2" x2="637.5" y2="254.2"/>
		<line class="st1" x1="21" y1="324" x2="637.5" y2="324"/>
		<line class="st1" x1="21" y1="393.8" x2="637.5" y2="393.8"/>
		<path class="st2" d="M21,463.5h7.5H21z"/>
		<path class="st2" d="M28.5,463.5H36H28.5z"/>
		<path class="st2" d="M36,463.5h7.5H36z"/>
		<path class="st2" d="M43.6,463.5h7.5H43.6z"/>
		<path class="st2" d="M51.1,463.5h7.5H51.1z"/>
		<path class="st2" d="M58.6,463.5h7.5H58.6z"/>
		<path class="st2" d="M66.1,463.5h7.5H66.1z"/>
		<path class="st2" d="M73.6,463.5h7.5H73.6z"/>
		<path class="st2" d="M81.1,463.5h7.5H81.1z"/>
		<path class="st2" d="M88.7,463.5h7.5H88.7z"/>
		<path class="st2" d="M96.2,463.5h7.5H96.2z"/>
		<path class="st2" d="M103.7,463.5h7.5H103.7z"/>
		<path class="st2" d="M111.2,463.5h7.5H111.2z"/>
		<polygon class="st3" points="630,0 630,0 622.5,0 622.5,3.8 614.9,3.8 614.9,27.8 607.4,27.8 607.4,45 599.9,45 599.9,48.8 
			592.4,48.8 592.4,55.5 584.9,55.5 584.9,59.2 577.4,59.2 577.4,63 569.8,63 569.8,69.8 562.3,69.8 562.3,80.2 554.8,80.2 
			554.8,90.8 547.3,90.8 547.3,108 539.8,108 539.8,114.8 532.2,114.8 532.2,122.2 524.7,122.2 524.7,122.2 517.2,122.2 
			509.7,122.2 509.7,122.2 502.2,122.2 502.2,125.2 494.7,125.2 494.7,132.8 487.1,132.8 487.1,135.8 479.6,135.8 479.6,146.2 
			472.1,146.2 472.1,150 464.6,150 464.6,156.8 457.1,156.8 457.1,156.8 449.5,156.8 449.5,160.5 442,160.5 442,174 434.5,174 
			434.5,184.5 427,184.5 427,198.8 419.5,198.8 419.5,212.2 412,212.2 412,240.8 404.4,240.8 404.4,251.2 396.9,251.2 396.9,258 
			389.4,258 389.4,264.8 381.9,264.8 381.9,285.8 374.4,285.8 374.4,289.5 366.8,289.5 366.8,296.2 359.3,296.2 359.3,300 
			351.8,300 351.8,306.8 344.3,306.8 344.3,310.5 336.8,310.5 336.8,313.5 329.2,313.5 329.2,317.2 321.7,317.2 321.7,327.8 
			314.2,327.8 314.2,330.8 306.7,330.8 306.7,334.5 299.2,334.5 299.2,334.5 291.7,334.5 291.7,345 284.1,345 284.1,351.8 
			276.6,351.8 276.6,359.2 269.1,359.2 269.1,369.8 261.6,369.8 261.6,376.5 254.1,376.5 254.1,379.5 246.5,379.5 246.5,390 
			239,390 239,400.5 231.5,400.5 224,400.5 224,408 216.5,408 209,408 209,414.8 201.4,414.8 201.4,421.5 193.9,421.5 186.4,421.5 
			186.4,429 178.9,429 178.9,435.8 171.4,435.8 171.4,438.8 163.8,438.8 163.8,442.5 156.3,442.5 156.3,446.2 148.8,446.2 
			148.8,453 141.3,453 133.8,453 133.8,456.8 126.3,456.8 118.7,456.8 118.7,463.5 126.3,463.5 133.8,463.5 141.3,463.5 
			148.8,463.5 156.3,463.5 163.8,463.5 171.4,463.5 178.9,463.5 186.4,463.5 193.9,463.5 201.4,463.5 209,463.5 216.5,463.5 
			224,463.5 231.5,463.5 239,463.5 246.5,463.5 254.1,463.5 261.6,463.5 269.1,463.5 276.6,463.5 276.6,463.5 284.1,463.5 
			291.7,463.5 299.2,463.5 299.2,463.5 306.7,463.5 314.2,463.5 321.7,463.5 329.2,463.5 329.3,463.5 336.8,463.5 344.3,463.5 
			351.8,463.5 351.8,463.5 359.3,463.5 366.8,463.5 374.4,463.5 374.4,463.5 381.9,463.5 389.4,463.5 396.9,463.5 404.4,463.5 
			404.4,463.5 412,463.5 419.5,463.5 427,463.5 427,463.5 434.5,463.5 442,463.5 449.5,463.5 457.1,463.5 457.1,463.5 464.6,463.5 
			472.1,463.5 479.6,463.5 479.6,463.5 487.1,463.5 494.7,463.5 502.2,463.5 509.7,463.5 509.7,463.5 517.2,463.5 524.7,463.5 
			524.7,463.5 532.2,463.5 539.8,463.5 547.3,463.5 554.8,463.5 554.8,463.5 562.3,463.5 569.8,463.5 577.4,463.5 577.4,463.5 
			584.9,463.5 592.4,463.5 599.9,463.5 599.9,463.5 607.4,463.5 614.9,463.5 622.5,463.5 630,463.5 630,463.5 637.5,463.5 637.5,0 
					"/>
		<line class="st4" x1="21" y1="463.5" x2="637.5" y2="463.5"/>
	</g>
	<g class="st0">
		<text transform="matrix(1 0 0 1 5.2559 396.0996)" class="st5 st6 st7">20</text>
	</g>
	<g class="st0">
		<text transform="matrix(1 0 0 1 5.2559 326.3496)" class="st5 st6 st7">40</text>
	</g>
	<g class="st0">
		<text transform="matrix(1 0 0 1 5.2559 256.5996)" class="st5 st6 st7">60</text>
	</g>
	<g class="st0">
		<text transform="matrix(1 0 0 1 5.2559 186.8496)" class="st5 st6 st7">80</text>
	</g>
	<g class="st0">
		<text transform="matrix(1 0 0 1 2.929688e-03 117.0996)" class="st5 st6 st7">100</text>
	</g>
	<g class="st0">
		<text transform="matrix(1 0 0 1 2.929688e-03 47.3496)" class="st5 st6 st7">120</text>
	</g>
</g>
<g>
	<g>
		<path class="st8" d="M558.8,34.5c1.7-11.8,11-21.9,24.5-26.3c9.7-3.1,18.8-2.5,24.4-1.6"/>
		<g>
			<polygon class="st9" points="605.1,8.9 606.8,6.4 606.2,3.5 612.1,7.4 			"/>
		</g>
	</g>
</g>
<text transform="matrix(1 0 0 1 529.2545 38.5171)" class="st10 st11 st12">5/29</text>
<text transform="matrix(1 0 0 1 504.4545 51.7168)" class="st10 st13 st12">Deadliest day</text>
<text transform="matrix(1 0 0 1 518.8544 64.917)" class="st10 st11 st12">7 deaths</text>
<g>
	<text transform="matrix(1 0 0 1 619.9255 477.6185)" class="st14 st6 st7">5/31</text>
</g>
<g>
	<text transform="matrix(1 0 0 1 112.6592 477.6188)" class="st14 st6 st7">3/24</text>
</g>
</svg>
