<?xml version="1.0" encoding="utf-8"?>
<!-- Generator: Adobe Illustrator 23.0.1, SVG Export Plug-In . SVG Version: 6.00 Build 0)  -->
<svg version="1.1" id="Layer_1" xmlns="http://www.w3.org/2000/svg" xmlns:xlink="http://www.w3.org/1999/xlink" x="0px" y="0px"
	 viewBox="0 0 637.5 487.5" style="enable-background:new 0 0 637.5 487.5;" xml:space="preserve">
<style type="text/css">
	.st0{clip-path:url(#SVGID_2_);}
	.st1{clip-path:url(#SVGID_4_);fill:none;stroke:#E8E8E8;stroke-width:0.75;stroke-miterlimit:10;}
	.st2{clip-path:url(#SVGID_4_);fill:#C71E1D;}
	.st3{clip-path:url(#SVGID_4_);fill:#C71E1D;fill-opacity:0.6;stroke:#000000;stroke-width:0.5;stroke-miterlimit:10;}
	.st4{clip-path:url(#SVGID_4_);fill:none;stroke:#333333;stroke-width:0.75;stroke-miterlimit:10;}
	.st5{fill:#A6A6A6;}
	.st6{font-family:'Roboto-Regular';}
	.st7{font-size:9px;}
	.st8{fill:#333333;}
	.st9{fill:none;stroke:#9A0000;stroke-width:0.75;stroke-miterlimit:10;}
	.st10{fill:#9A0000;}
	.st11{fill:#893333;}
	.st12{font-family:'ArialMT';}
	.st13{font-size:11px;}
	.st14{font-family:'Arial-BoldMT';}
</style>
<g>
	<defs>
		<rect id="SVGID_1_" width="637.5" height="487.5"/>
	</defs>
	<clipPath id="SVGID_2_">
		<use xlink:href="#SVGID_1_"  style="overflow:visible;"/>
	</clipPath>
	<g class="st0">
		<defs>
			<rect id="SVGID_3_" width="637.5" height="483"/>
		</defs>
		<clipPath id="SVGID_4_">
			<use xlink:href="#SVGID_3_"  style="overflow:visible;"/>
		</clipPath>
		<line class="st1" x1="21" y1="33.8" x2="637.5" y2="33.8"/>
		<line class="st1" x1="21" y1="95.2" x2="637.5" y2="95.2"/>
		<line class="st1" x1="21" y1="156.8" x2="637.5" y2="156.8"/>
		<line class="st1" x1="21" y1="218.2" x2="637.5" y2="218.2"/>
		<line class="st1" x1="21" y1="279" x2="637.5" y2="279"/>
		<line class="st1" x1="21" y1="340.5" x2="637.5" y2="340.5"/>
		<line class="st1" x1="21" y1="402" x2="637.5" y2="402"/>
		<path class="st2" d="M21,463.5h7.2H21z"/>
		<path class="st2" d="M28.2,463.5h7.2H28.2z"/>
		<path class="st2" d="M35.3,463.5h7.2H35.3z"/>
		<path class="st2" d="M42.5,463.5h7.2H42.5z"/>
		<path class="st2" d="M49.7,463.5h7.2H49.7z"/>
		<path class="st2" d="M56.8,463.5H64H56.8z"/>
		<path class="st2" d="M64,463.5h7.2H64z"/>
		<path class="st2" d="M71.2,463.5h7.2H71.2z"/>
		<path class="st2" d="M78.3,463.5h7.2H78.3z"/>
		<path class="st2" d="M85.5,463.5h7.2H85.5z"/>
		<path class="st2" d="M92.7,463.5h7.2H92.7z"/>
		<path class="st2" d="M99.9,463.5h7.2H99.9z"/>
		<path class="st2" d="M107,463.5h7.2H107z"/>
		<polygon class="st3" points="629.4,-0.1 629.4,27.7 622.3,27.7 622.3,45.7 615.1,45.7 615.1,55.5 608.1,55.5 601.1,55.5 
			600.9,55.5 593.9,55.5 593.9,58.5 586.8,58.5 586.8,79.5 579.6,79.5 579.6,95.2 572.6,95.2 572.6,98.2 565.4,98.2 565.4,104.2 
			558.4,104.2 558.4,107.2 551.2,107.2 551.2,110.2 544.1,110.2 544.1,117 537,117 537,126 529.8,126 529.8,135 522.8,135 
			522.8,150.8 515.6,150.8 515.6,156.8 508.5,156.8 508.5,162.8 501.3,162.8 494.1,162.8 487,162.8 487,162.8 479.8,162.8 
			479.8,165.8 472.6,165.8 472.6,171.8 465.5,171.8 465.5,174.8 458.3,174.8 458.3,184.5 451.1,184.5 451.1,187.5 443.9,187.5 
			443.9,193.5 436.8,193.5 429.6,193.5 429.6,196.5 422.4,196.5 422.4,208.5 415.3,208.5 415.3,218.2 408.1,218.2 408.1,230.2 
			400.9,230.2 400.9,242.2 393.8,242.2 393.8,267 386.6,267 386.6,276 379.4,276 379.4,282.8 372.3,282.8 372.3,288.8 365.1,288.8 
			365.1,306.8 357.9,306.8 357.9,309.8 350.8,309.8 350.8,316.5 343.6,316.5 343.6,319.5 336.4,319.5 336.4,325.5 329.2,325.5 
			329.2,328.5 322.1,328.5 322.1,331.5 314.9,331.5 314.9,334.5 307.7,334.5 307.7,343.5 300.6,343.5 300.6,346.5 293.4,346.5 
			293.4,350.2 286.2,350.2 279.1,350.2 279.1,359.2 271.9,359.2 271.9,365.2 264.7,365.2 264.7,371.2 257.6,371.2 257.6,380.2 
			250.4,380.2 250.4,387 243.2,387 243.2,390 236.1,390 236.1,399 228.9,399 228.9,408 221.7,408 214.6,408 214.6,414.8 
			207.4,414.8 200.2,414.8 200.2,420.8 193,420.8 193,426.8 185.9,426.8 178.7,426.8 178.7,432.8 171.5,432.8 171.5,438.8 
			164.4,438.8 164.4,441.8 157.2,441.8 157.2,444.8 150,444.8 150,448.5 142.9,448.5 142.9,454.5 135.7,454.5 128.5,454.5 
			128.5,457.5 121.4,457.5 114.2,457.5 114.2,463.5 121.4,463.5 128.5,463.5 135.7,463.5 142.9,463.5 150,463.5 157.2,463.5 
			164.4,463.5 164.4,463.5 171.5,463.5 178.7,463.5 185.9,463.5 193,463.5 200.2,463.5 207.4,463.5 214.6,463.5 214.6,463.5 
			221.7,463.5 228.9,463.5 236.1,463.5 243.2,463.5 250.4,463.5 257.6,463.5 264.7,463.5 264.7,463.5 271.9,463.5 279.1,463.5 
			286.2,463.5 293.4,463.5 300.6,463.5 307.7,463.5 314.9,463.5 322.1,463.5 329.2,463.5 336.4,463.5 343.6,463.5 350.8,463.5 
			357.9,463.5 365.1,463.5 372.3,463.5 379.4,463.5 386.6,463.5 393.8,463.5 400.9,463.5 400.9,463.5 408.1,463.5 415.3,463.5 
			422.4,463.5 429.6,463.5 436.8,463.5 443.9,463.5 451.1,463.5 458.3,463.5 465.5,463.5 472.6,463.5 479.8,463.5 487,463.5 
			487,463.5 494.1,463.5 501.3,463.5 508.5,463.5 515.6,463.5 522.8,463.5 529.8,463.5 530,463.5 537,463.5 544.1,463.5 
			544.1,463.5 551.2,463.5 558.4,463.5 565.6,463.5 565.6,463.4 572.6,463.4 579.6,463.4 579.6,463.5 586.8,463.5 593.9,463.5 
			600.9,463.5 601.1,463.5 608.1,463.5 615.3,463.5 615.3,463.4 622.3,463.4 629.4,463.4 629.4,463.4 636.5,463.4 636.5,-0.1 		"/>
		<line class="st4" x1="21" y1="463.5" x2="637.5" y2="463.5"/>
	</g>
	<g class="st0">
		<text transform="matrix(1 0 0 1 5.6426 405.0996)" class="st5 st6 st7">20</text>
	</g>
	<g class="st0">
		<text transform="matrix(1 0 0 1 5.6426 343.5996)" class="st5 st6 st7">40</text>
	</g>
	<g class="st0">
		<text transform="matrix(1 0 0 1 5.6426 282.0996)" class="st5 st6 st7">60</text>
	</g>
	<g class="st0">
		<text transform="matrix(1 0 0 1 5.6426 221.3496)" class="st5 st6 st7">80</text>
	</g>
	<g class="st0">
		<text transform="matrix(1 0 0 1 0.5889 159.8496)" class="st5 st6 st7">100</text>
	</g>
	<g class="st0">
		<text transform="matrix(1 0 0 1 0.5889 98.3496)" class="st5 st6 st7">120</text>
	</g>
	<g class="st0">
		<text transform="matrix(1 0 0 1 0.5889 36.8496)" class="st5 st6 st7">140</text>
	</g>
</g>
<g>
	<text transform="matrix(1 0 0 1 622.532 478.1238)" class="st8 st6 st7">6/4</text>
</g>
<g>
	<text transform="matrix(1 0 0 1 109.5684 478.1241)" class="st8 st6 st7">3/24</text>
</g>
<g>
	<g>
		<path class="st9" d="M572.7,35.6c1.7-11.8,11-21.9,24.5-26.3c9.7-3.1,18.8-2.5,24.4-1.6"/>
		<g>
			<polygon class="st10" points="619,10 620.7,7.5 620.1,4.6 626,8.5 			"/>
		</g>
	</g>
</g>
<text transform="matrix(1 0 0 1 543.1534 39.5635)" class="st11 st12 st13">6/4</text>
<text transform="matrix(1 0 0 1 518.3534 52.7632)" class="st11 st14 st13">Deadliest day</text>
<text transform="matrix(1 0 0 1 532.7533 65.9634)" class="st11 st12 st13">9 deaths</text>
</svg>
