<?xml version="1.0" encoding="utf-8"?>
<!-- Generator: Adobe Illustrator 23.0.1, SVG Export Plug-In . SVG Version: 6.00 Build 0)  -->
<svg version="1.1" id="Layer_1" xmlns="http://www.w3.org/2000/svg" xmlns:xlink="http://www.w3.org/1999/xlink" x="0px" y="0px"
	 viewBox="0 0 637.5 487.5" style="enable-background:new 0 0 637.5 487.5;" xml:space="preserve">
<style type="text/css">
	.st0{clip-path:url(#SVGID_2_);enable-background:new    ;}
	.st1{clip-path:url(#SVGID_4_);fill:none;stroke:#E8E8E8;stroke-width:0.75;stroke-miterlimit:10;}
	.st2{clip-path:url(#SVGID_4_);fill:#C71E1D;}
	.st3{clip-path:url(#SVGID_4_);fill:#C71E1D;fill-opacity:0.6;stroke:#000000;stroke-width:0.5;stroke-miterlimit:10;}
	.st4{clip-path:url(#SVGID_4_);fill:none;stroke:#333333;stroke-width:0.75;stroke-miterlimit:10;}
	.st5{clip-path:url(#SVGID_4_);}
	.st6{fill:#A6A6A6;}
	.st7{font-family:'Roboto-Regular';}
	.st8{font-size:9px;}
	.st9{fill:#333333;}
	.st10{fill:none;stroke:#9A0000;stroke-width:0.75;stroke-miterlimit:10;}
	.st11{fill:#9A0000;}
	.st12{fill:#893333;}
	.st13{font-family:'ArialMT';}
	.st14{font-size:11px;}
	.st15{font-family:'Arial-BoldMT';}
</style>
<g>
	<defs>
		<rect id="SVGID_1_" width="637.5" height="487.5"/>
	</defs>
	<clipPath id="SVGID_2_">
		<use xlink:href="#SVGID_1_"  style="overflow:visible;"/>
	</clipPath>
	<g class="st0">
		<g>
			<defs>
				<rect id="SVGID_3_" width="637.5" height="487.5"/>
			</defs>
			<clipPath id="SVGID_4_">
				<use xlink:href="#SVGID_3_"  style="overflow:visible;"/>
			</clipPath>
			<line class="st1" x1="15.8" y1="51.8" x2="637.5" y2="51.8"/>
			<line class="st1" x1="15.8" y1="103.5" x2="637.5" y2="103.5"/>
			<line class="st1" x1="15.8" y1="154.5" x2="637.5" y2="154.5"/>
			<line class="st1" x1="15.8" y1="206.2" x2="637.5" y2="206.2"/>
			<line class="st1" x1="15.8" y1="258" x2="637.5" y2="258"/>
			<line class="st1" x1="15.8" y1="309" x2="637.5" y2="309"/>
			<line class="st1" x1="15.8" y1="360.8" x2="637.5" y2="360.8"/>
			<line class="st1" x1="15.8" y1="411.8" x2="637.5" y2="411.8"/>
			<path class="st2" d="M15.8,463.5h10.9H15.8z"/>
			<path class="st2" d="M26.7,463.5h10.9H26.7z"/>
			<path class="st2" d="M37.6,463.5h10.9H37.6z"/>
			<path class="st2" d="M48.5,463.5h10.9H48.5z"/>
			<path class="st2" d="M59.4,463.5h10.9H59.4z"/>
			<path class="st2" d="M70.3,463.5h10.9H70.3z"/>
			<path class="st2" d="M81.2,463.5h10.9H81.2z"/>
			<path class="st2" d="M92.1,463.5H103H92.1z"/>
			<path class="st2" d="M103,463.5h10.9H103z"/>
			<path class="st2" d="M113.9,463.5h10.9H113.9z"/>
			<path class="st2" d="M124.8,463.5h10.9H124.8z"/>
			<path class="st2" d="M135.7,463.5h10.9H135.7z"/>
			<path class="st2" d="M146.6,463.5h10.9H146.6z"/>
			<polygon class="st3" points="626.1,15.6 626.1,35.8 615.2,35.8 615.2,51.6 604.3,51.6 604.3,71.8 593.4,71.8 593.4,93 582.7,93 
				582.7,134.2 571.7,134.2 571.7,149.2 560.8,149.2 560.8,159.8 550.1,159.8 550.1,170.2 539.2,170.2 539.2,201 528.4,201 
				528.4,206.2 517.5,206.2 517.5,216.8 506.6,216.8 506.6,221.2 495.7,221.2 495.7,231.8 484.8,231.8 484.8,237 473.9,237 
				473.9,242.2 463,242.2 463,247.5 452.1,247.5 452.1,262.5 441.2,262.5 441.2,267.8 430.2,267.8 430.2,273 419.3,273 419.3,273 
				408.4,273 408.4,288.8 397.5,288.8 397.5,298.5 386.6,298.5 386.6,309 375.7,309 375.7,324.8 364.8,324.8 364.8,334.5 
				353.9,334.5 353.9,339.8 343,339.8 343,355.5 332.1,355.5 332.1,370.5 321.2,370.5 310.3,370.5 310.3,381 299.4,381 288.4,381 
				288.4,391.5 277.5,391.5 277.5,402 266.6,402 255.7,402 255.7,411.8 244.8,411.8 244.8,422.2 233.9,422.2 233.9,427.5 223,427.5 
				223,432.8 212.1,432.8 212.1,438 201.2,438 201.2,447.8 190.3,447.8 190.3,447.8 179.4,447.8 179.4,453 168.5,453 168.5,453 
				157.6,453 157.6,463.5 168.5,463.5 168.5,463.5 179.4,463.5 179.4,463.5 190.3,463.5 190.3,463.5 201.2,463.5 201.2,463.5 
				212.1,463.5 212.1,463.5 223,463.5 233.9,463.5 233.9,463.5 244.8,463.5 244.8,463.5 255.7,463.5 266.6,463.5 277.5,463.5 
				288.4,463.5 288.4,463.5 299.4,463.5 310.3,463.5 321.2,463.5 332.1,463.5 343,463.5 353.9,463.5 364.8,463.5 375.7,463.5 
				375.7,463.5 386.6,463.5 386.6,463.5 397.5,463.5 397.5,463.5 408.4,463.5 408.4,463.5 419.3,463.5 419.3,463.5 430.2,463.5 
				430.3,463.5 441.2,463.5 441.2,463.5 452.1,463.5 452.1,463.5 463,463.5 463,463.5 473.9,463.5 484.8,463.5 484.8,463.5 
				495.7,463.5 495.7,463.5 506.6,463.5 517.5,463.5 517.5,463.5 528.4,463.5 539.2,463.5 539.3,463.5 550.1,463.5 550.1,463.5 
				560.8,463.5 561,463.5 571.7,463.5 571.7,463.5 582.7,463.5 593.6,463.5 593.6,463.3 604.3,463.3 604.3,463.3 615.2,463.3 
				626.1,463.3 637,463.3 637,15.6 			"/>
			<line class="st4" x1="15.8" y1="463.5" x2="637.5" y2="463.5"/>
			<g class="st5">
				<text transform="matrix(1 0 0 1 0.3926 414.0996)" class="st6 st7 st8">10</text>
			</g>
			<g class="st5">
				<text transform="matrix(1 0 0 1 0.3926 363.0996)" class="st6 st7 st8">20</text>
			</g>
			<g class="st5">
				<text transform="matrix(1 0 0 1 0.3926 311.3496)" class="st6 st7 st8">30</text>
			</g>
			<g class="st5">
				<text transform="matrix(1 0 0 1 0.3926 260.3496)" class="st6 st7 st8">40</text>
			</g>
			<g class="st5">
				<text transform="matrix(1 0 0 1 0.3926 208.5996)" class="st6 st7 st8">50</text>
			</g>
			<g class="st5">
				<text transform="matrix(1 0 0 1 0.3926 156.8496)" class="st6 st7 st8">60</text>
			</g>
			<g class="st5">
				<text transform="matrix(1 0 0 1 0.3926 105.8496)" class="st6 st7 st8">70</text>
			</g>
			<g class="st5">
				<text transform="matrix(1 0 0 1 0.3926 54.0996)" class="st6 st7 st8">80</text>
			</g>
			<g class="st5">
				<text transform="matrix(1 0 0 1 150.124 479.3496)" class="st9 st7 st8">3/24</text>
			</g>
		</g>
	</g>
</g>
<text transform="matrix(1 0 0 1 623.4857 478.7624)" class="st9 st7 st8">5/6</text>
<g>
	<g>
		<path class="st10" d="M524.8,142.5c1.7-11.8,11-21.9,24.5-26.3c9.7-3.1,18.8-2.5,24.4-1.6"/>
		<g>
			<polygon class="st11" points="571.1,116.9 572.8,114.4 572.2,111.5 578.1,115.4 			"/>
		</g>
	</g>
</g>
<text transform="matrix(1 0 0 1 495.3334 144.4938)"><tspan x="0" y="0" class="st12 st13 st14">4/28</tspan><tspan x="-24.8" y="13.2" class="st12 st15 st14">Deadliest day</tspan><tspan x="-10.4" y="26.4" class="st12 st13 st14">6 deaths</tspan></text>
</svg>
