<?xml version="1.0" encoding="utf-8"?>
<!-- Generator: Adobe Illustrator 23.0.1, SVG Export Plug-In . SVG Version: 6.00 Build 0)  -->
<svg version="1.1" id="Layer_1" xmlns="http://www.w3.org/2000/svg" xmlns:xlink="http://www.w3.org/1999/xlink" x="0px" y="0px"
	 viewBox="0 0 637.5 487.5" style="enable-background:new 0 0 637.5 487.5;" xml:space="preserve">
<style type="text/css">
	.st0{clip-path:url(#SVGID_2_);}
	.st1{clip-path:url(#SVGID_4_);fill:none;stroke:#E8E8E8;stroke-width:0.75;stroke-miterlimit:10;}
	.st2{clip-path:url(#SVGID_4_);fill:#C71E1D;}
	.st3{clip-path:url(#SVGID_4_);fill:#C71E1D;fill-opacity:0.6;stroke:#000000;stroke-width:0.5;stroke-miterlimit:10;}
	.st4{clip-path:url(#SVGID_4_);fill:none;stroke:#333333;stroke-width:0.75;stroke-miterlimit:10;}
	.st5{fill:#A6A6A6;}
	.st6{font-family:'Roboto-Regular';}
	.st7{font-size:9px;}
	.st8{fill:none;stroke:#9A0000;stroke-width:0.75;stroke-miterlimit:10;}
	.st9{fill:#9A0000;}
	.st10{fill:#893333;}
	.st11{font-family:'ArialMT';}
	.st12{font-size:11px;}
	.st13{font-family:'Arial-BoldMT';}
	.st14{fill:#333333;}
</style>
<g>
	<defs>
		<rect id="SVGID_1_" width="637.5" height="487.5"/>
	</defs>
	<clipPath id="SVGID_2_">
		<use xlink:href="#SVGID_1_"  style="overflow:visible;"/>
	</clipPath>
	<g class="st0">
		<defs>
			<rect id="SVGID_3_" width="637.5" height="483"/>
		</defs>
		<clipPath id="SVGID_4_">
			<use xlink:href="#SVGID_3_"  style="overflow:visible;"/>
		</clipPath>
		<line class="st1" x1="21" y1="30" x2="637.5" y2="30"/>
		<line class="st1" x1="21" y1="84" x2="637.5" y2="84"/>
		<line class="st1" x1="21" y1="138" x2="637.5" y2="138"/>
		<line class="st1" x1="21" y1="192.8" x2="637.5" y2="192.8"/>
		<line class="st1" x1="21" y1="246.8" x2="637.5" y2="246.8"/>
		<line class="st1" x1="21" y1="300.8" x2="637.5" y2="300.8"/>
		<line class="st1" x1="21" y1="354.8" x2="637.5" y2="354.8"/>
		<line class="st1" x1="21" y1="409.5" x2="637.5" y2="409.5"/>
		<path class="st2" d="M21,463.5h6.6H21z"/>
		<path class="st2" d="M27.6,463.5h6.6H27.6z"/>
		<path class="st2" d="M34.3,463.5h6.6H34.3z"/>
		<path class="st2" d="M40.9,463.5h6.6H40.9z"/>
		<path class="st2" d="M47.5,463.5h6.6H47.5z"/>
		<path class="st2" d="M54.1,463.5h6.6H54.1z"/>
		<path class="st2" d="M60.8,463.5h6.6H60.8z"/>
		<path class="st2" d="M67.4,463.5H74H67.4z"/>
		<path class="st2" d="M74,463.5h6.6H74z"/>
		<path class="st2" d="M80.7,463.5h6.6H80.7z"/>
		<path class="st2" d="M87.3,463.5h6.6H87.3z"/>
		<path class="st2" d="M93.9,463.5h6.6H93.9z"/>
		<path class="st2" d="M100.5,463.5h6.6H100.5z"/>
		<polygon class="st3" points="630.5,0 630.5,16.5 623.9,16.5 623.9,27 617.2,27 617.2,43.5 610.6,43.5 610.6,45.8 604,45.8 
			597.3,45.8 597.3,51.8 590.7,51.8 590.7,54 584.2,54 584.2,78.8 577.6,78.8 577.6,94.5 570.9,94.5 570.9,102.8 564.3,102.8 
			557.7,102.8 551,102.8 551,105.8 544.4,105.8 544.4,124.5 537.8,124.5 537.8,138 531.2,138 531.2,141 524.5,141 524.5,146.2 
			517.9,146.2 517.9,149.2 511.3,149.2 511.3,151.5 504.6,151.5 504.6,157.5 498,157.5 498,165 491.4,165 491.4,173.2 484.8,173.2 
			484.8,186.8 478.1,186.8 478.1,192.8 471.5,192.8 471.5,198 464.9,198 458.3,198 458.2,198 451.7,198 445.1,198 445.1,200.2 
			438.4,200.2 438.4,206.2 431.8,206.2 431.8,208.5 425.2,208.5 425.2,216.8 418.5,216.8 418.5,219.8 411.9,219.8 411.9,225 
			405.3,225 398.7,225 398.7,228 392,228 392,238.5 385.4,238.5 385.4,246.8 378.8,246.8 378.8,257.2 372.1,257.2 372.1,268.5 
			365.5,268.5 365.5,290.2 358.9,290.2 358.9,298.5 352.4,298.5 352.4,303.8 345.7,303.8 345.7,309 339.1,309 339.1,325.5 
			332.5,325.5 332.5,327.8 325.8,327.8 325.8,333.8 319.2,333.8 319.2,336 312.6,336 312.6,341.2 306,341.2 306,344.2 299.3,344.2 
			299.3,347.2 292.7,347.2 292.7,349.5 286.1,349.5 286.1,357.8 279.4,357.8 279.4,360.8 272.8,360.8 272.8,363 266.2,363 
			259.6,363 259.6,371.2 252.9,371.2 252.9,376.5 246.3,376.5 246.3,382.5 239.7,382.5 239.7,390 233,390 233,396 226.4,396 
			226.4,398.2 219.8,398.2 219.8,406.5 213.2,406.5 213.2,414.8 206.5,414.8 199.9,414.8 199.9,420 193.3,420 186.6,420 
			186.6,425.2 180,425.2 180,431.2 173.4,431.2 166.8,431.2 166.8,436.5 160.2,436.5 160.2,441.8 153.6,441.8 153.6,444.8 
			147,444.8 147,447 140.3,447 140.3,450 133.7,450 133.7,455.2 127.1,455.2 120.4,455.2 120.4,458.2 113.8,458.2 107.2,458.2 
			107.2,463.5 113.8,463.5 120.4,463.5 127.1,463.5 133.7,463.5 140.3,463.5 147,463.5 153.6,463.5 160.2,463.5 166.8,463.5 
			166.8,463.5 173.4,463.5 180,463.5 186.6,463.5 193.3,463.5 199.9,463.5 206.5,463.5 213.2,463.5 219.8,463.5 226.4,463.5 
			233,463.5 239.7,463.5 246.3,463.5 252.9,463.5 259.6,463.5 266.2,463.5 272.8,463.5 279.4,463.5 286.1,463.5 292.7,463.5 
			299.3,463.5 306,463.5 312.6,463.5 319.2,463.5 325.8,463.5 332.5,463.5 339.1,463.5 345.7,463.5 352.4,463.5 358.9,463.5 
			359,463.5 365.5,463.5 372.1,463.5 378.8,463.5 385.4,463.5 392,463.5 398.7,463.5 405.3,463.5 411.9,463.5 418.5,463.5 
			425.2,463.5 431.8,463.5 438.4,463.5 445.1,463.5 451.7,463.5 458.2,463.5 458.3,463.5 464.9,463.5 471.5,463.5 478.1,463.5 
			484.8,463.5 491.4,463.5 498,463.5 504.6,463.5 511.3,463.5 517.9,463.5 524.5,463.5 531.2,463.5 537.8,463.5 544.4,463.5 
			551,463.5 557.7,463.5 564.3,463.5 570.9,463.5 577.6,463.5 584.2,463.5 590.7,463.5 590.8,463.5 597.3,463.5 604,463.5 
			610.6,463.5 617.2,463.5 623.9,463.5 630.5,463.5 637.1,463.5 637.1,0 		"/>
		<line class="st4" x1="21" y1="463.5" x2="637.5" y2="463.5"/>
	</g>
	<g class="st0">
		<text transform="matrix(1 0 0 1 5.6426 412.5996)" class="st5 st6 st7">20</text>
	</g>
	<g class="st0">
		<text transform="matrix(1 0 0 1 5.6426 357.8496)" class="st5 st6 st7">40</text>
	</g>
	<g class="st0">
		<text transform="matrix(1 0 0 1 5.6426 303.8496)" class="st5 st6 st7">60</text>
	</g>
	<g class="st0">
		<text transform="matrix(1 0 0 1 5.6426 249.8496)" class="st5 st6 st7">80</text>
	</g>
	<g class="st0">
		<text transform="matrix(1 0 0 1 0.5889 195.8496)" class="st5 st6 st7">100</text>
	</g>
	<g class="st0">
		<text transform="matrix(1 0 0 1 0.5889 141.0996)" class="st5 st6 st7">120</text>
	</g>
	<g class="st0">
		<text transform="matrix(1 0 0 1 0.5889 87.0996)" class="st5 st6 st7">140</text>
	</g>
	<g class="st0">
		<text transform="matrix(1 0 0 1 0.5889 33.0996)" class="st5 st6 st7">160</text>
	</g>
</g>
<g>
	<g>
		<path class="st8" d="M527.1,87.4c1.7-11.8,11-21.9,24.5-26.3c9.7-3.1,18.8-2.5,24.4-1.6"/>
		<g>
			<polygon class="st9" points="573.4,61.8 575.1,59.3 574.5,56.4 580.4,60.3 			"/>
		</g>
	</g>
</g>
<text transform="matrix(1 0 0 1 499.69 91.3364)" class="st10 st11 st12">6/4</text>
<text transform="matrix(1 0 0 1 472.7698 104.5361)" class="st10 st13 st12">Deadliest day</text>
<text transform="matrix(1 0 0 1 487.1697 117.7363)" class="st10 st11 st12">9 deaths</text>
<g>
	<text transform="matrix(1 0 0 1 618.2377 478.8049)" class="st14 st6 st7">6/11</text>
</g>
<g>
	<text transform="matrix(1 0 0 1 104.0629 478.8049)" class="st14 st6 st7">3/24</text>
</g>
</svg>
