<?xml version="1.0" encoding="utf-8"?>
<!-- Generator: Adobe Illustrator 23.0.1, SVG Export Plug-In . SVG Version: 6.00 Build 0)  -->
<svg version="1.1" id="Layer_1" xmlns="http://www.w3.org/2000/svg" xmlns:xlink="http://www.w3.org/1999/xlink" x="0px" y="0px"
	 viewBox="0 0 637.5 487.5" style="enable-background:new 0 0 637.5 487.5;" xml:space="preserve">
<style type="text/css">
	.st0{clip-path:url(#SVGID_2_);enable-background:new    ;}
	.st1{clip-path:url(#SVGID_4_);fill:none;stroke:#E8E8E8;stroke-width:0.75;stroke-miterlimit:10;}
	.st2{clip-path:url(#SVGID_4_);fill:#C71E1D;}
	.st3{clip-path:url(#SVGID_4_);fill:#C71E1D;fill-opacity:0.6;stroke:#000000;stroke-width:0.5;stroke-miterlimit:10;}
	.st4{clip-path:url(#SVGID_4_);fill:none;stroke:#333333;stroke-width:0.75;stroke-miterlimit:10;}
	.st5{clip-path:url(#SVGID_4_);}
	.st6{fill:#A6A6A6;}
	.st7{font-family:'Roboto-Regular';}
	.st8{font-size:9px;}
	.st9{fill:none;stroke:#9A0000;stroke-width:0.75;stroke-miterlimit:10;}
	.st10{fill:#9A0000;}
	.st11{fill:#893333;}
	.st12{font-family:'ArialMT';}
	.st13{font-size:11px;}
	.st14{font-family:'Arial-BoldMT';}
	.st15{fill:#333333;}
</style>
<g>
	<defs>
		<rect id="SVGID_1_" width="637.5" height="487.5"/>
	</defs>
	<clipPath id="SVGID_2_">
		<use xlink:href="#SVGID_1_"  style="overflow:visible;"/>
	</clipPath>
	<g class="st0">
		<g>
			<defs>
				<rect id="SVGID_3_" width="637.5" height="487.5"/>
			</defs>
			<clipPath id="SVGID_4_">
				<use xlink:href="#SVGID_3_"  style="overflow:visible;"/>
			</clipPath>
			<line class="st1" x1="15.8" y1="37.5" x2="637.5" y2="37.5"/>
			<line class="st1" x1="15.8" y1="85.5" x2="637.5" y2="85.5"/>
			<line class="st1" x1="15.8" y1="132.8" x2="637.5" y2="132.8"/>
			<line class="st1" x1="15.8" y1="180" x2="637.5" y2="180"/>
			<line class="st1" x1="15.8" y1="227.2" x2="637.5" y2="227.2"/>
			<line class="st1" x1="15.8" y1="274.5" x2="637.5" y2="274.5"/>
			<line class="st1" x1="15.8" y1="321.8" x2="637.5" y2="321.8"/>
			<line class="st1" x1="15.8" y1="369" x2="637.5" y2="369"/>
			<line class="st1" x1="15.8" y1="416.2" x2="637.5" y2="416.2"/>
			<path class="st2" d="M15.8,463.5h9.6H15.8z"/>
			<path class="st2" d="M25.3,463.5h9.6H25.3z"/>
			<path class="st2" d="M34.9,463.5h9.6H34.9z"/>
			<path class="st2" d="M44.4,463.5H54H44.4z"/>
			<path class="st2" d="M54,463.5h9.6H54z"/>
			<path class="st2" d="M63.6,463.5h9.6H63.6z"/>
			<path class="st2" d="M73.1,463.5h9.6H73.1z"/>
			<path class="st2" d="M82.7,463.5h9.6H82.7z"/>
			<path class="st2" d="M92.3,463.5h9.6H92.3z"/>
			<path class="st2" d="M101.8,463.5h9.6H101.8z"/>
			<path class="st2" d="M111.4,463.5h9.6H111.4z"/>
			<path class="st2" d="M121,463.5h9.6H121z"/>
			<path class="st2" d="M130.5,463.5h9.6H130.5z"/>
			<polygon class="st3" points="627.2,0 627.2,4.5 617.7,4.5 617.7,14.2 608.1,14.2 608.1,18.8 598.6,18.8 598.6,33 589,33 
				589,37.5 579.4,37.5 579.4,47.2 569.9,47.2 560.3,47.2 560.3,51.8 550.8,51.8 550.8,71.2 541.2,71.2 541.2,85.5 531.7,85.5 
				531.7,104.2 522.1,104.2 522.1,123 512.6,123 512.6,160.5 503.1,160.5 503.1,174.8 493.5,174.8 493.5,184.5 484,184.5 484,194.2 
				474.4,194.2 474.4,222 464.9,222 464.9,227.3 455.3,227.3 455.3,236.3 445.8,236.3 445.8,241.5 436.2,241.5 436.2,250.5 
				426.7,250.5 426.7,255.7 417.1,255.7 417.1,260.2 407.5,260.2 407.5,264.7 398,264.7 398,279 388.4,279 388.4,283.5 378.9,283.5 
				378.9,288.8 369.4,288.8 369.4,288.8 359.9,288.8 359.9,303 350.3,303 350.3,312 340.7,312 340.7,321.8 331.2,321.8 331.2,336 
				321.6,336 321.6,345 312.1,345 312.1,350.2 302.5,350.2 302.5,364.5 293,364.5 293,378 283.4,378 283.4,378 273.9,378 
				273.9,387.8 264.3,387.8 254.7,387.8 254.7,397.5 245.2,397.5 245.2,406.5 235.7,406.5 226.1,406.5 226.1,416.3 216.5,416.3 
				216.5,426 207,426 207,430.5 197.4,430.5 197.4,435 187.9,435 187.9,439.5 178.3,439.5 178.3,449.2 168.8,449.2 159.2,449.2 
				159.2,453.8 149.7,453.8 149.6,453.8 140.1,453.8 140.1,463.5 149.6,463.5 149.7,463.5 159.2,463.5 168.8,463.5 178.3,463.5 
				178.3,463.5 187.9,463.5 187.9,463.5 197.4,463.5 207,463.5 216.5,463.5 216.5,463.5 226.1,463.5 226.1,463.5 235.7,463.5 
				245.2,463.5 245.2,463.5 254.7,463.5 254.8,463.5 264.3,463.5 273.9,463.5 283.4,463.5 283.4,463.5 293,463.5 293,463.5 
				302.5,463.5 302.5,463.5 312.1,463.5 321.6,463.5 321.6,463.5 331.2,463.5 331.2,463.5 340.7,463.5 340.8,463.5 350.3,463.5 
				359.9,463.5 359.9,463.5 369.4,463.5 369.4,463.5 378.9,463.5 378.9,463.5 388.4,463.5 388.4,463.5 398,463.5 398,463.5 
				407.5,463.5 407.6,463.5 417.1,463.5 426.7,463.5 426.7,463.5 436.2,463.5 436.2,463.5 445.8,463.5 455.3,463.5 455.3,463.5 
				464.9,463.5 464.9,463.5 474.4,463.5 474.4,463.5 484,463.5 493.5,463.5 503.1,463.5 503.1,463.5 512.6,463.5 512.6,463.5 
				522.1,463.5 531.7,463.5 541.2,463.5 541.3,463.5 550.8,463.5 560.3,463.5 569.9,463.5 579.4,463.5 579.5,463.5 589,463.5 
				598.6,463.5 608.1,463.5 617.7,463.5 627.2,463.5 627.3,463.5 636.8,463.5 636.8,0 			"/>
			<line class="st4" x1="15.8" y1="463.5" x2="637.5" y2="463.5"/>
			<g class="st5">
				<text transform="matrix(1 0 0 1 0.3926 418.5996)" class="st6 st7 st8">10</text>
			</g>
			<g class="st5">
				<text transform="matrix(1 0 0 1 0.3926 371.3496)" class="st6 st7 st8">20</text>
			</g>
			<g class="st5">
				<text transform="matrix(1 0 0 1 0.3926 324.0996)" class="st6 st7 st8">30</text>
			</g>
			<g class="st5">
				<text transform="matrix(1 0 0 1 0.3926 276.8496)" class="st6 st7 st8">40</text>
			</g>
			<g class="st5">
				<text transform="matrix(1 0 0 1 0.3926 229.5996)" class="st6 st7 st8">50</text>
			</g>
			<g class="st5">
				<text transform="matrix(1 0 0 1 0.3926 182.3496)" class="st6 st7 st8">60</text>
			</g>
			<g class="st5">
				<text transform="matrix(1 0 0 1 0.3926 135.0996)" class="st6 st7 st8">70</text>
			</g>
			<g class="st5">
				<text transform="matrix(1 0 0 1 0.3926 87.8496)" class="st6 st7 st8">80</text>
			</g>
			<g class="st5">
				<text transform="matrix(1 0 0 1 0.3926 39.8496)" class="st6 st7 st8">90</text>
			</g>
		</g>
	</g>
</g>
<g>
	<g>
		<path class="st9" d="M457.4,166.3c1.7-11.8,11-21.9,24.5-26.3c9.7-3.1,18.8-2.5,24.4-1.6"/>
		<g>
			<polygon class="st10" points="503.7,140.7 505.4,138.2 504.8,135.3 510.7,139.2 			"/>
		</g>
	</g>
</g>
<text transform="matrix(1 0 0 1 427.8613 170.2739)" class="st11 st12 st13">4/28</text>
<text transform="matrix(1 0 0 1 403.0613 183.4736)" class="st11 st14 st13">Deadliest day</text>
<text transform="matrix(1 0 0 1 417.4612 196.6738)" class="st11 st12 st13">6 deaths</text>
<g>
	<text transform="matrix(1 0 0 1 133.6447 477.7355)" class="st15 st7 st8">3/24</text>
</g>
<g>
	<text transform="matrix(1 0 0 1 617.5687 477.7358)" class="st15 st7 st8">5/14</text>
</g>
</svg>
