<?xml version="1.0" encoding="utf-8"?>
<!-- Generator: Adobe Illustrator 23.0.1, SVG Export Plug-In . SVG Version: 6.00 Build 0)  -->
<svg version="1.1" id="Layer_1" xmlns="http://www.w3.org/2000/svg" xmlns:xlink="http://www.w3.org/1999/xlink" x="0px" y="0px"
	 viewBox="0 0 637.5 487.5" style="enable-background:new 0 0 637.5 487.5;" xml:space="preserve">
<style type="text/css">
	.st0{clip-path:url(#SVGID_2_);}
	.st1{clip-path:url(#SVGID_4_);fill:none;stroke:#E8E8E8;stroke-width:0.75;stroke-miterlimit:10;}
	.st2{clip-path:url(#SVGID_4_);fill:#C71E1D;}
	.st3{clip-path:url(#SVGID_4_);fill:#C71E1D;fill-opacity:0.6;stroke:#000000;stroke-width:0.5;stroke-miterlimit:10;}
	.st4{clip-path:url(#SVGID_4_);fill:none;stroke:#333333;stroke-width:0.75;stroke-miterlimit:10;}
	.st5{fill:#A6A6A6;}
	.st6{font-family:'Roboto-Regular';}
	.st7{font-size:9px;}
	.st8{fill:#333333;}
	.st9{fill:none;stroke:#9A0000;stroke-width:0.75;stroke-miterlimit:10;}
	.st10{fill:#9A0000;}
	.st11{fill:#893333;}
	.st12{font-family:'ArialMT';}
	.st13{font-size:11px;}
	.st14{font-family:'Arial-BoldMT';}
</style>
<g>
	<defs>
		<rect id="SVGID_1_" width="637.5" height="487.5"/>
	</defs>
	<clipPath id="SVGID_2_">
		<use xlink:href="#SVGID_1_"  style="overflow:visible;"/>
	</clipPath>
	<g class="st0">
		<defs>
			<rect id="SVGID_3_" width="637.5" height="483"/>
		</defs>
		<clipPath id="SVGID_4_">
			<use xlink:href="#SVGID_3_"  style="overflow:visible;"/>
		</clipPath>
		<line class="st1" x1="21" y1="45" x2="637.5" y2="45"/>
		<line class="st1" x1="21" y1="114.8" x2="637.5" y2="114.8"/>
		<line class="st1" x1="21" y1="184.5" x2="637.5" y2="184.5"/>
		<line class="st1" x1="21" y1="254.2" x2="637.5" y2="254.2"/>
		<line class="st1" x1="21" y1="324" x2="637.5" y2="324"/>
		<line class="st1" x1="21" y1="393.8" x2="637.5" y2="393.8"/>
		<path class="st2" d="M21,463.5h7.4H21z"/>
		<path class="st2" d="M28.4,463.5h7.4H28.4z"/>
		<path class="st2" d="M35.9,463.5h7.4H35.9z"/>
		<path class="st2" d="M43.3,463.5h7.4H43.3z"/>
		<path class="st2" d="M50.7,463.5h7.4H50.7z"/>
		<path class="st2" d="M58.1,463.5h7.4H58.1z"/>
		<path class="st2" d="M65.6,463.5H73H65.6z"/>
		<path class="st2" d="M73,463.5h7.4H73z"/>
		<path class="st2" d="M80.4,463.5h7.4H80.4z"/>
		<path class="st2" d="M87.8,463.5h7.4H87.8z"/>
		<path class="st2" d="M95.3,463.5h7.4H95.3z"/>
		<path class="st2" d="M102.7,463.5h7.4H102.7z"/>
		<path class="st2" d="M110.1,463.5h7.4H110.1z"/>
		<polygon class="st3" points="628.7,0 628.7,0 621.3,0 613.9,0 613.9,3.8 606.5,3.8 606.5,27.8 599,27.8 599,45 591.6,45 
			591.6,48.8 584.2,48.8 584.2,55.5 576.8,55.5 576.8,59.2 569.3,59.2 569.3,63 561.9,63 561.9,69.8 554.5,69.8 554.5,80.2 
			547,80.2 547,90.8 539.6,90.8 539.6,108 532.2,108 532.2,114.8 524.8,114.8 524.8,122.2 517.3,122.2 509.9,122.2 502.5,122.2 
			495,122.2 495,125.2 487.9,125.2 487.9,132.8 480.5,132.8 480.5,135.8 473.1,135.8 473.1,146.2 465.6,146.2 465.6,150 458.2,150 
			458.2,156.8 450.9,156.8 443.5,156.8 443.5,160.5 436.1,160.5 436.1,174 428.7,174 428.7,184.5 421.2,184.5 421.2,198.8 
			413.8,198.8 413.8,212.2 406.4,212.2 406.4,240.8 398.9,240.8 398.9,251.2 391.6,251.2 391.6,258 384.2,258 384.2,264.8 
			376.8,264.8 376.8,285.8 369.3,285.8 369.3,289.5 361.9,289.5 361.9,296.2 354.6,296.2 354.6,300 347.1,300 347.1,306.8 
			339.7,306.8 339.7,310.5 332.3,310.5 332.3,313.5 324.9,313.5 324.9,317.2 317.4,317.2 317.4,327.8 310,327.8 310,330.8 
			302.6,330.8 302.6,334.5 295.3,334.5 287.9,334.5 287.9,345 280.5,345 280.5,351.8 273.1,351.8 273.1,359.2 265.6,359.2 
			265.6,369.8 258.3,369.8 258.3,376.5 250.9,376.5 250.9,379.5 243.4,379.5 243.4,390 236.2,390 236.2,400.5 228.8,400.5 
			221.4,400.5 221.4,408 213.9,408 206.5,408 206.5,414.8 199.1,414.8 199.1,421.5 191.6,421.5 184.2,421.5 184.2,429 176.8,429 
			176.8,435.8 169.4,435.8 169.4,438.8 161.9,438.8 161.9,442.5 154.5,442.5 154.5,446.2 147.1,446.2 147.1,453 139.8,453 
			132.4,453 132.4,456.8 125,456.8 117.6,456.8 117.6,463.5 125,463.5 132.4,463.5 139.8,463.5 147.1,463.5 147.3,463.5 
			154.5,463.5 161.9,463.5 169.4,463.5 176.8,463.5 184.2,463.5 191.6,463.5 199.1,463.5 206.5,463.5 213.9,463.5 221.4,463.5 
			228.8,463.5 236.2,463.5 243.4,463.5 243.6,463.5 250.9,463.5 258.3,463.5 265.6,463.5 265.7,463.5 273.1,463.5 280.5,463.5 
			287.9,463.5 295.3,463.5 302.6,463.5 302.8,463.5 310,463.5 317.4,463.5 324.9,463.5 332.3,463.5 339.7,463.5 347.1,463.5 
			354.6,463.5 361.9,463.5 362,463.5 369.3,463.5 376.8,463.5 384.2,463.5 391.6,463.5 398.9,463.5 399,463.5 406.4,463.5 
			413.8,463.5 421.2,463.5 428.7,463.5 436.1,463.5 443.5,463.5 450.9,463.5 458.2,463.5 458.4,463.5 465.6,463.5 473.1,463.5 
			480.5,463.5 487.9,463.5 495,463.5 495.3,463.5 502.5,463.5 509.9,463.5 517.3,463.5 524.8,463.5 532.2,463.5 532.2,463.5 
			539.6,463.5 547,463.5 554.5,463.5 554.5,463.5 561.9,463.5 569.3,463.5 569.3,463.5 576.8,463.5 584.2,463.5 591.6,463.5 
			591.6,463.5 599,463.5 606.5,463.5 613.9,463.5 613.9,463.5 621.3,463.5 628.7,463.5 628.7,463.5 636.2,463.5 636.2,0 		"/>
		<line class="st4" x1="21" y1="463.5" x2="637.5" y2="463.5"/>
	</g>
	<g class="st0">
		<text transform="matrix(1 0 0 1 5.2559 396.0996)" class="st5 st6 st7">20</text>
	</g>
	<g class="st0">
		<text transform="matrix(1 0 0 1 5.2559 326.3496)" class="st5 st6 st7">40</text>
	</g>
	<g class="st0">
		<text transform="matrix(1 0 0 1 5.2559 256.5996)" class="st5 st6 st7">60</text>
	</g>
	<g class="st0">
		<text transform="matrix(1 0 0 1 5.2559 186.8496)" class="st5 st6 st7">80</text>
	</g>
	<g class="st0">
		<text transform="matrix(1 0 0 1 2.929688e-03 117.0996)" class="st5 st6 st7">100</text>
	</g>
	<g class="st0">
		<text transform="matrix(1 0 0 1 2.929688e-03 47.3496)" class="st5 st6 st7">120</text>
	</g>
</g>
<g>
	<text transform="matrix(1 0 0 1 623.8358 478.8948)" class="st8 st6 st7">6/1</text>
</g>
<g>
	<text transform="matrix(1 0 0 1 110.768 478.8944)" class="st8 st6 st7">3/24</text>
</g>
<g>
	<g>
		<path class="st9" d="M551,38.4c1.7-11.8,11-21.9,24.5-26.3c9.7-3.1,18.8-2.5,24.4-1.6"/>
		<g>
			<polygon class="st10" points="597.3,12.8 599,10.3 598.4,7.4 604.3,11.3 			"/>
		</g>
	</g>
</g>
<text transform="matrix(1 0 0 1 521.4866 42.4156)" class="st11 st12 st13">5/29</text>
<text transform="matrix(1 0 0 1 496.6866 55.6154)" class="st11 st14 st13">Deadliest day</text>
<text transform="matrix(1 0 0 1 511.0865 68.8156)" class="st11 st12 st13">7 deaths</text>
</svg>
