<?xml version="1.0" encoding="utf-8"?>
<!-- Generator: Adobe Illustrator 23.0.1, SVG Export Plug-In . SVG Version: 6.00 Build 0)  -->
<svg version="1.1" id="Layer_1" xmlns="http://www.w3.org/2000/svg" xmlns:xlink="http://www.w3.org/1999/xlink" x="0px" y="0px"
	 viewBox="0 0 637.5 487.5" style="enable-background:new 0 0 637.5 487.5;" xml:space="preserve">
<style type="text/css">
	.st0{clip-path:url(#SVGID_2_);}
	.st1{clip-path:url(#SVGID_4_);fill:none;stroke:#E8E8E8;stroke-width:0.75;stroke-miterlimit:10;}
	.st2{clip-path:url(#SVGID_4_);fill:#C71E1D;}
	.st3{clip-path:url(#SVGID_4_);fill:#C71E1D;fill-opacity:0.6;stroke:#000000;stroke-width:0.5;stroke-miterlimit:10;}
	.st4{clip-path:url(#SVGID_4_);fill:none;stroke:#333333;stroke-width:0.75;stroke-miterlimit:10;}
	.st5{fill:#A6A6A6;}
	.st6{font-family:'Roboto-Regular';}
	.st7{font-size:9px;}
	.st8{fill:#333333;}
</style>
<g>
	<defs>
		<rect id="SVGID_1_" width="637.5" height="487.5"/>
	</defs>
	<clipPath id="SVGID_2_">
		<use xlink:href="#SVGID_1_"  style="overflow:visible;"/>
	</clipPath>
	<g class="st0">
		<defs>
			<rect id="SVGID_3_" width="637.5" height="483"/>
		</defs>
		<clipPath id="SVGID_4_">
			<use xlink:href="#SVGID_3_"  style="overflow:visible;"/>
		</clipPath>
		<line class="st1" x1="21" y1="12" x2="637.5" y2="12"/>
		<line class="st1" x1="21" y1="53.2" x2="637.5" y2="53.2"/>
		<line class="st1" x1="21" y1="94.5" x2="637.5" y2="94.5"/>
		<line class="st1" x1="21" y1="135" x2="637.5" y2="135"/>
		<line class="st1" x1="21" y1="176.2" x2="637.5" y2="176.2"/>
		<line class="st1" x1="21" y1="217.5" x2="637.5" y2="217.5"/>
		<line class="st1" x1="21" y1="258.8" x2="637.5" y2="258.8"/>
		<line class="st1" x1="21" y1="299.2" x2="637.5" y2="299.2"/>
		<line class="st1" x1="21" y1="340.5" x2="637.5" y2="340.5"/>
		<line class="st1" x1="21" y1="381.8" x2="637.5" y2="381.8"/>
		<line class="st1" x1="21" y1="422.2" x2="637.5" y2="422.2"/>
		<path class="st2" d="M21,463.5h6.2H21z"/>
		<path class="st2" d="M27.2,463.5h6.2H27.2z"/>
		<path class="st2" d="M33.3,463.5h6.2H33.3z"/>
		<path class="st2" d="M39.5,463.5h6.2H39.5z"/>
		<path class="st2" d="M45.7,463.5h6.2H45.7z"/>
		<path class="st2" d="M51.8,463.5H58H51.8z"/>
		<path class="st2" d="M58,463.5h6.2H58z"/>
		<path class="st2" d="M64.2,463.5h6.2H64.2z"/>
		<path class="st2" d="M70.3,463.5h6.2H70.3z"/>
		<path class="st2" d="M76.5,463.5h6.2H76.5z"/>
		<path class="st2" d="M82.7,463.5h6.2H82.7z"/>
		<polygon class="st3" points="631,0 631,18.7 624.8,18.7 624.8,24.7 618.7,24.7 618.7,41.2 612.5,41.2 612.5,51 606.4,51 606.4,45 
			600.2,45 600.2,47.2 594.1,47.2 594.1,80.2 587.9,80.2 587.9,92.2 581.8,92.2 581.8,108.8 575.6,108.8 575.6,112.5 569.5,112.5 
			569.5,165.8 563.4,165.8 563.4,147.8 557.2,147.8 557.2,162 551,162 551,182.2 544.9,182.2 544.9,180.8 538.8,180.8 538.8,192.8 
			532.6,192.8 532.6,215.2 526.4,215.2 526.4,228 520.3,228 520.3,250.5 514.1,250.5 514.1,231.8 508,231.8 508,250.5 501.8,250.5 
			501.8,242.3 495.6,242.3 495.6,243.8 489.5,243.8 489.5,260.3 483.3,260.3 483.3,274.5 477.2,274.5 477.2,287.3 471,287.3 
			471,297.8 464.8,297.8 464.8,287.3 458.7,287.3 458.7,301.5 452.5,301.5 452.5,303.8 446.3,303.8 446.3,305.3 440.2,305.3 
			440.2,330 434,330 434,330 427.8,330 421.7,330 421.7,332.3 415.5,332.3 415.5,342.8 409.3,342.8 403.2,342.8 403.2,338.3 
			397,338.3 397,332.3 390.8,332.3 384.7,332.3 384.7,320.3 378.5,320.3 372.3,320.3 372.3,321.8 366.2,321.8 366.2,281.3 
			360,281.3 360,276.8 353.9,276.8 353.9,262.5 347.7,262.5 347.7,258.8 341.5,258.8 341.5,268.5 335.4,268.5 329.2,268.5 
			329.2,273 323,273 323,250.5 316.9,250.5 316.9,240 310.7,240 310.7,243.8 304.5,243.8 304.5,250.5 298.4,250.5 298.4,250.5 
			292.2,250.5 292.2,256.5 286,256.5 286,264.8 279.9,264.8 279.9,287.3 273.7,287.3 273.7,273 267.5,273 267.5,282.8 261.4,282.8 
			261.4,287.3 255.2,287.3 255.2,293.3 249,293.3 249,289.5 242.9,289.5 242.9,293.3 236.7,293.3 236.7,297.8 230.6,297.8 
			230.6,312 224.4,312 218.2,312 218.2,287.3 212.1,287.3 205.9,287.3 205.9,313.5 199.8,313.5 199.8,307.5 193.6,307.5 193.6,312 
			187.5,312 181.3,312 181.3,326.2 175.1,326.2 175.1,315.8 169,315.8 169,318 162.8,318 162.8,328.5 156.6,328.5 156.6,348.8 
			150.5,348.8 150.5,332.2 144.3,332.2 144.3,336 138.1,336 138.1,375 132,375 132,365.2 125.8,365.2 119.6,365.2 119.6,379.5 
			113.5,379.5 113.5,418.5 107.3,418.5 101.1,418.5 101.1,436.5 95,436.5 88.8,436.5 88.8,463.5 95,463.5 101.1,463.5 107.3,463.5 
			113.5,463.5 119.6,463.5 125.8,463.5 132,463.5 138.1,463.5 144.3,463.5 150.5,463.5 156.6,463.5 162.8,463.5 169,463.5 
			175.1,463.5 181.3,463.5 187.5,463.5 193.6,463.5 199.7,463.5 199.7,463.5 205.9,463.5 212.1,463.5 218.2,463.5 224.4,463.5 
			230.6,463.5 236.7,463.5 242.9,463.5 249,463.5 255.2,463.5 261.4,463.5 267.5,463.5 273.7,463.5 279.9,463.5 279.9,463.5 
			286,463.5 292.2,463.5 298.4,463.5 298.4,463.5 304.5,463.5 310.7,463.5 316.9,463.5 323,463.5 329.2,463.5 335.4,463.5 
			341.5,463.5 347.7,463.5 353.9,463.5 360,463.5 366.2,463.5 366.2,463.5 372.3,463.5 378.5,463.5 384.7,463.5 384.7,463.5 
			390.8,463.5 397,463.5 403.2,463.5 409.3,463.5 415.5,463.5 421.7,463.5 427.8,463.5 434,463.5 434,463.5 440.2,463.5 
			446.3,463.5 452.5,463.5 452.5,463.5 458.7,463.5 464.8,463.5 471,463.5 477.2,463.5 483.3,463.5 489.5,463.5 495.6,463.5 
			501.8,463.5 508,463.5 514.1,463.5 520.3,463.5 526.5,463.5 526.5,463.5 532.6,463.5 538.8,463.5 544.9,463.5 544.9,463.5 
			551,463.5 557.2,463.5 563.3,463.5 563.4,463.5 569.5,463.5 575.6,463.5 581.8,463.5 581.8,463.5 587.9,463.5 594.1,463.5 
			600.2,463.5 600.3,463.5 606.4,463.5 612.6,463.5 612.6,463.5 618.7,463.5 624.8,463.5 631,463.5 631,463.5 637.1,463.5 637.1,0 
					"/>
		<line class="st4" x1="21" y1="463.5" x2="637.5" y2="463.5"/>
	</g>
	<g class="st0">
		<text transform="matrix(1 0 0 1 5.6426 425.3496)" class="st5 st6 st7">20</text>
	</g>
	<g class="st0">
		<text transform="matrix(1 0 0 1 5.6426 384.8496)" class="st5 st6 st7">40</text>
	</g>
	<g class="st0">
		<text transform="matrix(1 0 0 1 5.6426 343.5996)" class="st5 st6 st7">60</text>
	</g>
	<g class="st0">
		<text transform="matrix(1 0 0 1 5.6426 302.3496)" class="st5 st6 st7">80</text>
	</g>
	<g class="st0">
		<text transform="matrix(1 0 0 1 0.5889 261.8496)" class="st5 st6 st7">100</text>
	</g>
	<g class="st0">
		<text transform="matrix(1 0 0 1 0.5889 220.5996)" class="st5 st6 st7">120</text>
	</g>
	<g class="st0">
		<text transform="matrix(1 0 0 1 0.5889 179.3496)" class="st5 st6 st7">140</text>
	</g>
	<g class="st0">
		<text transform="matrix(1 0 0 1 0.5889 138.0996)" class="st5 st6 st7">160</text>
	</g>
	<g class="st0">
		<text transform="matrix(1 0 0 1 0.5889 97.5996)" class="st5 st6 st7">180</text>
	</g>
	<g class="st0">
		<text transform="matrix(1 0 0 1 0.5889 56.3496)" class="st5 st6 st7">200</text>
	</g>
	<g class="st0">
		<text transform="matrix(1 0 0 1 0.5889 15.0996)" class="st5 st6 st7">220</text>
	</g>
</g>
<g>
	<text transform="matrix(1 0 0 1 618.8054 478.1745)" class="st8 st6 st7">6/18</text>
</g>
<g>
	<text transform="matrix(1 0 0 1 84.4857 478.1744)" class="st8 st6 st7">3/22</text>
</g>
</svg>
