<?xml version="1.0" encoding="utf-8"?>
<!-- Generator: Adobe Illustrator 23.0.1, SVG Export Plug-In . SVG Version: 6.00 Build 0)  -->
<svg version="1.1" id="Layer_1" xmlns="http://www.w3.org/2000/svg" xmlns:xlink="http://www.w3.org/1999/xlink" x="0px" y="0px"
	 viewBox="0 0 637.5 487.5" style="enable-background:new 0 0 637.5 487.5;" xml:space="preserve">
<style type="text/css">
	.st0{clip-path:url(#SVGID_2_);}
	.st1{clip-path:url(#SVGID_4_);fill:none;stroke:#E8E8E8;stroke-width:0.75;stroke-miterlimit:10;}
	.st2{clip-path:url(#SVGID_4_);fill:#C71E1D;}
	.st3{clip-path:url(#SVGID_4_);fill:#C71E1D;fill-opacity:0.6;stroke:#000000;stroke-width:0.5;stroke-miterlimit:10;}
	.st4{clip-path:url(#SVGID_4_);fill:none;stroke:#333333;stroke-width:0.75;stroke-miterlimit:10;}
	.st5{fill:#A6A6A6;}
	.st6{font-family:'Roboto-Regular';}
	.st7{font-size:9px;}
	.st8{fill:#333333;}
</style>
<g>
	<defs>
		<rect id="SVGID_1_" width="637.5" height="487.5"/>
	</defs>
	<clipPath id="SVGID_2_">
		<use xlink:href="#SVGID_1_"  style="overflow:visible;"/>
	</clipPath>
	<g class="st0">
		<defs>
			<rect id="SVGID_3_" width="637.5" height="483"/>
		</defs>
		<clipPath id="SVGID_4_">
			<use xlink:href="#SVGID_3_"  style="overflow:visible;"/>
		</clipPath>
		<line class="st1" x1="21" y1="38.2" x2="637.5" y2="38.2"/>
		<line class="st1" x1="21" y1="81" x2="637.5" y2="81"/>
		<line class="st1" x1="21" y1="123" x2="637.5" y2="123"/>
		<line class="st1" x1="21" y1="165.8" x2="637.5" y2="165.8"/>
		<line class="st1" x1="21" y1="208.5" x2="637.5" y2="208.5"/>
		<line class="st1" x1="21" y1="251.2" x2="637.5" y2="251.2"/>
		<line class="st1" x1="21" y1="293.2" x2="637.5" y2="293.2"/>
		<line class="st1" x1="21" y1="336" x2="637.5" y2="336"/>
		<line class="st1" x1="21" y1="378.8" x2="637.5" y2="378.8"/>
		<line class="st1" x1="21" y1="420.8" x2="637.5" y2="420.8"/>
		<path class="st2" d="M21,463.5h8.2H21z"/>
		<path class="st2" d="M29.2,463.5h8.2H29.2z"/>
		<path class="st2" d="M37.4,463.5h8.2H37.4z"/>
		<path class="st2" d="M45.7,463.5h8.2H45.7z"/>
		<path class="st2" d="M53.9,463.5h8.2H53.9z"/>
		<path class="st2" d="M62.1,463.5h8.2H62.1z"/>
		<path class="st2" d="M70.3,463.5h8.2H70.3z"/>
		<path class="st2" d="M78.5,463.5h8.2H78.5z"/>
		<path class="st2" d="M86.8,463.5H95H86.8z"/>
		<path class="st2" d="M95,463.5h8.2H95z"/>
		<path class="st2" d="M103.2,463.5h8.2H103.2z"/>
		<polygon class="st3" points="628.9,72 628.9,97.5 620.8,97.5 620.8,119.2 612.6,119.2 612.6,97.5 604.4,97.5 604.4,127.5 
			596.2,127.5 596.2,132 588,132 588,135.8 579.8,135.8 579.8,186.8 571.6,186.8 563.4,186.8 563.4,186.8 555.2,186.8 555.2,191.2 
			547,191.2 547,212.2 538.8,212.2 530.6,212.2 530.6,204 522.4,204 522.4,191.2 514.2,191.2 506,191.2 506,165.8 497.8,165.8 
			489.5,165.8 489.5,170.2 481.3,170.2 481.3,84.8 473.1,84.8 473.1,76.5 464.9,76.5 464.9,46.5 456.7,46.5 456.7,38.2 448.4,38.2 
			448.4,59.2 440.2,59.2 432,59.2 432,68.2 423.8,68.2 423.8,21 415.6,21 415.6,0 407.3,0 407.3,8.2 399.1,8.2 399.1,21 390.9,21 
			382.7,21 382.7,33.8 374.5,33.8 374.5,51 366.2,51 366.2,97.5 358,97.5 358,68.2 349.8,68.2 349.8,89.2 341.6,89.2 341.6,97.5 
			333.4,97.5 333.4,110.2 325.1,110.2 325.1,102 316.9,102 316.9,110.2 308.7,110.2 308.7,119.2 300.5,119.2 300.5,148.5 
			292.3,148.5 284,148.5 284,97.5 275.8,97.5 267.6,97.5 267.6,153 259.4,153 259.4,140.2 251.2,140.2 251.2,148.5 242.9,148.5 
			234.7,148.5 234.7,178.5 226.5,178.5 226.5,157.5 218.3,157.5 218.3,161.2 210.1,161.2 210.1,183 201.8,183 201.8,225 193.6,225 
			193.6,191.2 185.4,191.2 185.4,199.5 177.2,199.5 177.2,280.5 169,280.5 169,259.5 160.7,259.5 152.5,259.5 152.5,289.5 
			144.3,289.5 144.3,369.8 136.1,369.8 127.9,369.8 127.9,408 119.6,408 111.4,408 111.4,463.5 119.6,463.5 127.9,463.5 
			136.1,463.5 144.3,463.5 152.5,463.5 160.7,463.5 169,463.5 177.2,463.5 185.4,463.5 193.6,463.5 201.8,463.5 210.1,463.5 
			218.3,463.5 226.5,463.5 234.7,463.5 242.9,463.5 251.2,463.5 259.4,463.5 267.6,463.5 275.8,463.5 284,463.5 292.3,463.5 
			300.5,463.5 308.7,463.5 316.9,463.5 325.1,463.5 333.4,463.5 333.4,463.5 341.6,463.5 349.8,463.5 358,463.5 366.2,463.5 
			374.5,463.5 382.7,463.5 390.9,463.5 399.1,463.5 407.3,463.5 415.6,463.5 423.8,463.5 432,463.5 440.2,463.5 448.4,463.5 
			456.7,463.5 464.9,463.5 473.1,463.5 481.3,463.5 489.5,463.5 497.8,463.5 506,463.5 514.2,463.5 522.4,463.5 530.6,463.5 
			530.6,463.5 538.8,463.5 547,463.5 547,463.5 555.2,463.5 563.4,463.5 563.4,463.5 571.6,463.5 579.8,463.5 579.8,463.5 
			588,463.5 596.2,463.5 596.2,463.5 604.4,463.5 612.6,463.5 612.6,463.5 620.8,463.5 628.9,463.5 629,463.5 637.1,463.5 637.1,72 
					"/>
		<line class="st4" x1="21" y1="463.5" x2="637.5" y2="463.5"/>
	</g>
	<g class="st0">
		<text transform="matrix(1 0 0 1 5.2559 423.0996)" class="st5 st6 st7">10</text>
	</g>
	<g class="st0">
		<text transform="matrix(1 0 0 1 5.2559 381.0996)" class="st5 st6 st7">20</text>
	</g>
	<g class="st0">
		<text transform="matrix(1 0 0 1 5.2559 338.3496)" class="st5 st6 st7">30</text>
	</g>
	<g class="st0">
		<text transform="matrix(1 0 0 1 5.2559 295.5996)" class="st5 st6 st7">40</text>
	</g>
	<g class="st0">
		<text transform="matrix(1 0 0 1 5.2559 253.5996)" class="st5 st6 st7">50</text>
	</g>
	<g class="st0">
		<text transform="matrix(1 0 0 1 5.2559 210.8496)" class="st5 st6 st7">60</text>
	</g>
	<g class="st0">
		<text transform="matrix(1 0 0 1 5.2559 168.0996)" class="st5 st6 st7">70</text>
	</g>
	<g class="st0">
		<text transform="matrix(1 0 0 1 5.2559 125.3496)" class="st5 st6 st7">80</text>
	</g>
	<g class="st0">
		<text transform="matrix(1 0 0 1 5.2559 83.3496)" class="st5 st6 st7">90</text>
	</g>
	<g class="st0">
		<text transform="matrix(1 0 0 1 2.929688e-03 40.5996)" class="st5 st6 st7">100</text>
	</g>
</g>
<g>
	<text transform="matrix(1 0 0 1 617.7537 477.4456)" class="st8 st6 st7">5/24</text>
</g>
<g>
	<text transform="matrix(1 0 0 1 107.853 477.4453)" class="st8 st6 st7">3/22</text>
</g>
</svg>
