<?xml version="1.0" encoding="utf-8"?>
<!-- Generator: Adobe Illustrator 23.0.1, SVG Export Plug-In . SVG Version: 6.00 Build 0)  -->
<svg version="1.1" id="Layer_1" xmlns="http://www.w3.org/2000/svg" xmlns:xlink="http://www.w3.org/1999/xlink" x="0px" y="0px"
	 viewBox="0 0 637.5 487.5" style="enable-background:new 0 0 637.5 487.5;" xml:space="preserve">
<style type="text/css">
	.st0{clip-path:url(#SVGID_2_);enable-background:new    ;}
	.st1{clip-path:url(#SVGID_4_);fill:none;stroke:#E8E8E8;stroke-width:0.75;stroke-miterlimit:10;}
	.st2{clip-path:url(#SVGID_4_);fill:#C71E1D;}
	.st3{clip-path:url(#SVGID_4_);fill:#C71E1D;fill-opacity:0.6;stroke:#000000;stroke-width:0.5;stroke-miterlimit:10;}
	.st4{clip-path:url(#SVGID_4_);fill:none;stroke:#333333;stroke-width:0.75;stroke-miterlimit:10;}
	.st5{clip-path:url(#SVGID_4_);}
	.st6{fill:#A6A6A6;}
	.st7{font-family:'Roboto-Regular';}
	.st8{font-size:9px;}
	.st9{fill:#333333;}
</style>
<g>
	<defs>
		<rect id="SVGID_1_" width="637.5" height="487.5"/>
	</defs>
	<clipPath id="SVGID_2_">
		<use xlink:href="#SVGID_1_"  style="overflow:visible;"/>
	</clipPath>
	<g class="st0">
		<g>
			<defs>
				<rect id="SVGID_3_" width="637.5" height="487.5"/>
			</defs>
			<clipPath id="SVGID_4_">
				<use xlink:href="#SVGID_3_"  style="overflow:visible;"/>
			</clipPath>
			<line class="st1" x1="21" y1="52.5" x2="637.5" y2="52.5"/>
			<line class="st1" x1="21" y1="93.8" x2="637.5" y2="93.8"/>
			<line class="st1" x1="21" y1="135" x2="637.5" y2="135"/>
			<line class="st1" x1="21" y1="176.2" x2="637.5" y2="176.2"/>
			<line class="st1" x1="21" y1="216.8" x2="637.5" y2="216.8"/>
			<line class="st1" x1="21" y1="258" x2="637.5" y2="258"/>
			<line class="st1" x1="21" y1="299.2" x2="637.5" y2="299.2"/>
			<line class="st1" x1="21" y1="340.5" x2="637.5" y2="340.5"/>
			<line class="st1" x1="21" y1="381" x2="637.5" y2="381"/>
			<line class="st1" x1="21" y1="422.2" x2="637.5" y2="422.2"/>
			<path class="st2" d="M21,463.5h11H21z"/>
			<path class="st2" d="M32,463.5h11H32z"/>
			<path class="st2" d="M43,463.5h11H43z"/>
			<path class="st2" d="M54,463.5h11H54z"/>
			<path class="st2" d="M65,463.5h11H65z"/>
			<path class="st2" d="M76,463.5h11H76z"/>
			<path class="st2" d="M87.1,463.5h11H87.1z"/>
			<path class="st2" d="M98.1,463.5h11H98.1z"/>
			<path class="st2" d="M109.1,463.5h11H109.1z"/>
			<path class="st2" d="M120.1,463.5h11H120.1z"/>
			<path class="st2" d="M131.1,463.5h11H131.1z"/>
			<polygon class="st3" points="626.2,98.2 626.2,90 615.2,90 615.2,60.8 604.2,60.8 604.2,52.5 593.2,52.5 593.2,73.5 582.2,73.5 
				582.2,73.5 571.1,73.5 571.1,81.8 560.1,81.8 560.1,36 549.1,36 549.1,15.8 538.1,15.8 538.1,24 527.1,24 527.1,36 516.1,36 
				505.1,36 505.1,48.8 494.1,48.8 494.1,65.2 483.1,65.2 483.1,110.2 472.1,110.2 472.1,81.8 461.1,81.8 461.1,102 450,102 
				450,110.2 439.2,110.2 439.2,122.2 428.2,122.2 428.2,114 417.2,114 417.2,122.2 406.2,122.2 406.2,130.5 395.2,130.5 
				395.2,159.8 384.2,159.8 373.3,159.8 373.3,110.2 362.3,110.2 351.3,110.2 351.3,163.5 340.3,163.5 340.3,151.5 329.2,151.5 
				329.2,159.8 318.2,159.8 307.2,159.8 307.2,188.2 296.2,188.2 296.2,168 285.2,168 285.2,171.8 274.2,171.8 274.2,192.8 
				263.2,192.8 263.2,233.2 252.2,233.2 252.2,200.2 241.2,200.2 241.2,208.5 230.2,208.5 230.2,286.5 219.2,286.5 219.2,266.2 
				208.2,266.2 197.1,266.2 197.1,294.8 186.1,294.8 186.1,373.5 175.1,373.5 175.1,373.5 164.1,373.5 164.1,410.2 153.1,410.2 
				142.1,410.2 142.1,463.5 153.1,463.5 164.1,463.5 175.1,463.5 175.1,463.5 186.1,463.5 186.1,463.5 197.1,463.5 208.2,463.5 
				219.2,463.5 219.2,463.5 230.2,463.5 241.2,463.5 252.2,463.5 252.2,463.5 263.2,463.5 263.2,463.5 274.2,463.5 285.2,463.5 
				296.2,463.5 296.2,463.5 307.2,463.5 318.2,463.5 329.2,463.5 329.2,463.5 340.3,463.5 340.3,463.5 351.3,463.5 362.3,463.5 
				373.2,463.5 373.3,463.5 384.2,463.5 395.2,463.5 406.2,463.5 417.2,463.5 428.2,463.5 439.2,463.5 450,463.5 450.3,463.5 
				461.1,463.5 472.1,463.5 483.1,463.5 494.1,463.5 505.1,463.5 516.1,463.5 527.1,463.5 527.1,463.5 538.1,463.5 549.1,463.5 
				549.1,463.5 560.1,463.5 571.1,463.5 582.2,463.5 582.2,463.5 593.2,463.5 604.2,463.5 604.2,463.5 615.2,463.5 626.2,463.5 
				626.2,463.5 637.2,463.5 637.2,98.2 			"/>
			<line class="st4" x1="21" y1="463.5" x2="637.5" y2="463.5"/>
			<g class="st5">
				<text transform="matrix(1 0 0 1 5.6426 424.5996)" class="st6 st7 st8">10</text>
			</g>
			<g class="st5">
				<text transform="matrix(1 0 0 1 5.6426 383.3496)" class="st6 st7 st8">20</text>
			</g>
			<g class="st5">
				<text transform="matrix(1 0 0 1 5.6426 342.8496)" class="st6 st7 st8">30</text>
			</g>
			<g class="st5">
				<text transform="matrix(1 0 0 1 5.6426 301.5996)" class="st6 st7 st8">40</text>
			</g>
			<g class="st5">
				<text transform="matrix(1 0 0 1 5.6426 260.3496)" class="st6 st7 st8">50</text>
			</g>
			<g class="st5">
				<text transform="matrix(1 0 0 1 5.6426 219.0996)" class="st6 st7 st8">60</text>
			</g>
			<g class="st5">
				<text transform="matrix(1 0 0 1 5.6426 178.5996)" class="st6 st7 st8">70</text>
			</g>
			<g class="st5">
				<text transform="matrix(1 0 0 1 5.6426 137.3496)" class="st6 st7 st8">80</text>
			</g>
			<g class="st5">
				<text transform="matrix(1 0 0 1 5.6426 96.0996)" class="st6 st7 st8">90</text>
			</g>
			<g class="st5">
				<text transform="matrix(1 0 0 1 0.5889 54.8496)" class="st6 st7 st8">100</text>
			</g>
			<g class="st5">
				<text transform="matrix(1 0 0 1 136.0146 479.3496)" class="st9 st7 st8">3/22</text>
			</g>
		</g>
	</g>
</g>
</svg>
