<?xml version="1.0" encoding="utf-8"?>
<!-- Generator: Adobe Illustrator 23.0.1, SVG Export Plug-In . SVG Version: 6.00 Build 0)  -->
<svg version="1.1" id="Layer_1" xmlns="http://www.w3.org/2000/svg" xmlns:xlink="http://www.w3.org/1999/xlink" x="0px" y="0px"
	 viewBox="0 0 637.5 487.5" style="enable-background:new 0 0 637.5 487.5;" xml:space="preserve">
<style type="text/css">
	.st0{clip-path:url(#SVGID_2_);}
	.st1{clip-path:url(#SVGID_4_);fill:none;stroke:#E8E8E8;stroke-width:0.75;stroke-miterlimit:10;}
	.st2{clip-path:url(#SVGID_4_);fill:#C71E1D;}
	.st3{clip-path:url(#SVGID_4_);fill:#C71E1D;fill-opacity:0.6;stroke:#000000;stroke-width:0.5;stroke-miterlimit:10;}
	.st4{clip-path:url(#SVGID_4_);fill:none;stroke:#333333;stroke-width:0.75;stroke-miterlimit:10;}
	.st5{fill:#A6A6A6;}
	.st6{font-family:'Roboto-Regular';}
	.st7{font-size:9px;}
	.st8{fill:#333333;}
</style>
<g>
	<defs>
		<rect id="SVGID_1_" width="637.5" height="487.5"/>
	</defs>
	<clipPath id="SVGID_2_">
		<use xlink:href="#SVGID_1_"  style="overflow:visible;"/>
	</clipPath>
	<g class="st0">
		<defs>
			<rect id="SVGID_3_" width="637.5" height="483"/>
		</defs>
		<clipPath id="SVGID_4_">
			<use xlink:href="#SVGID_3_"  style="overflow:visible;"/>
		</clipPath>
		<line class="st1" x1="21" y1="13.5" x2="637.5" y2="13.5"/>
		<line class="st1" x1="21" y1="58.5" x2="637.5" y2="58.5"/>
		<line class="st1" x1="21" y1="103.5" x2="637.5" y2="103.5"/>
		<line class="st1" x1="21" y1="148.5" x2="637.5" y2="148.5"/>
		<line class="st1" x1="21" y1="193.5" x2="637.5" y2="193.5"/>
		<line class="st1" x1="21" y1="238.5" x2="637.5" y2="238.5"/>
		<line class="st1" x1="21" y1="283.5" x2="637.5" y2="283.5"/>
		<line class="st1" x1="21" y1="328.5" x2="637.5" y2="328.5"/>
		<line class="st1" x1="21" y1="373.5" x2="637.5" y2="373.5"/>
		<line class="st1" x1="21" y1="418.5" x2="637.5" y2="418.5"/>
		<path class="st2" d="M21,463.5h6.4H21z"/>
		<path class="st2" d="M27.4,463.5h6.4H27.4z"/>
		<path class="st2" d="M33.7,463.5h6.4H33.7z"/>
		<path class="st2" d="M40.1,463.5h6.4H40.1z"/>
		<path class="st2" d="M46.4,463.5h6.4H46.4z"/>
		<path class="st2" d="M52.8,463.5h6.4H52.8z"/>
		<path class="st2" d="M59.1,463.5h6.4H59.1z"/>
		<path class="st2" d="M65.5,463.5h6.4H65.5z"/>
		<path class="st2" d="M71.8,463.5h6.4H71.8z"/>
		<path class="st2" d="M78.2,463.5h6.4H78.2z"/>
		<path class="st2" d="M84.6,463.5h6.4H84.6z"/>
		<polygon class="st3" points="637.2,-0.1 630.8,-0.1 630.8,11.2 624.5,11.2 624.5,4.5 618.2,4.5 618.2,6.8 611.8,6.8 611.8,42.8 
			605.5,42.8 605.5,56.2 599.1,56.2 599.1,74.2 592.8,74.2 592.8,78.8 586.4,78.8 586.4,137.2 580.1,137.2 580.1,117 573.8,117 
			573.8,132.8 567.4,132.8 567.4,155.2 561.1,155.2 561.1,153 554.7,153 554.7,166.5 548.4,166.5 548.4,191.2 542,191.2 542,204.8 
			535.7,204.8 535.7,229.5 529.3,229.5 529.3,209.2 523,209.2 523,229.5 516.7,229.5 516.7,220.5 510.3,220.5 510.3,222.8 
			504,222.8 504,240.8 497.6,240.8 497.6,256.5 491.2,256.5 491.2,270 484.9,270 484.9,281.2 478.5,281.2 478.5,270 472.2,270 
			472.2,285.8 465.8,285.8 465.8,288 459.5,288 459.5,290.2 453.1,290.2 453.1,317.2 446.8,317.2 440.4,317.2 434,317.2 434,319.5 
			427.7,319.5 427.7,330.8 421.3,330.8 415,330.8 415,326.2 408.6,326.2 408.6,319.5 402.3,319.5 395.9,319.5 395.9,306 389.6,306 
			383.2,306 383.2,308.2 376.8,308.2 376.8,263.2 370.5,263.2 370.5,258.8 364.1,258.8 364.1,243 357.8,243 357.8,238.5 
			351.4,238.5 351.4,249.8 345.1,249.8 345.1,249.8 338.7,249.8 338.7,254.2 332.4,254.2 332.4,229.5 326,229.5 326,218.2 
			319.6,218.2 319.6,222.8 313.3,222.8 313.3,229.5 306.9,229.5 300.6,229.5 300.6,236.2 294.2,236.2 294.2,245.2 287.9,245.2 
			287.9,270 281.5,270 281.5,254.2 275.2,254.2 275.2,265.5 268.8,265.5 268.8,270 262.4,270 262.4,276.8 256.1,276.8 256.1,272.2 
			249.7,272.2 249.7,276.8 243.4,276.8 243.4,281.2 237,281.2 237,297 230.7,297 224.3,297 224.3,270 218,270 211.6,270 
			211.6,299.2 205.2,299.2 205.2,292.5 198.9,292.5 198.9,297 192.5,297 186.2,297 186.2,312.8 179.8,312.8 179.8,301.5 
			173.5,301.5 173.5,303.8 167.1,303.8 167.1,315 160.8,315 160.8,337.5 154.4,337.5 154.4,319.5 148,319.5 148,324 141.7,324 
			141.7,366.8 135.4,366.8 135.4,355.5 129,355.5 122.7,355.5 122.7,371.2 116.3,371.2 116.3,414 110,414 103.6,414 103.6,434.2 
			97.3,434.2 90.9,434.2 90.9,463.5 97.3,463.5 103.6,463.5 110,463.5 116.3,463.5 122.7,463.5 129,463.5 135.3,463.5 135.4,463.5 
			141.7,463.5 148,463.5 154.4,463.5 160.8,463.5 167.1,463.5 173.5,463.5 179.8,463.5 186.2,463.5 192.5,463.5 198.9,463.5 
			205.2,463.5 211.6,463.5 218,463.5 224.3,463.5 230.7,463.5 237,463.5 243.4,463.5 249.7,463.5 256.1,463.5 262.4,463.5 
			268.8,463.5 275.2,463.5 281.5,463.5 287.9,463.5 294.2,463.5 300.6,463.5 300.6,463.5 306.9,463.5 313.3,463.5 319.6,463.5 
			319.6,463.5 326,463.5 332.4,463.5 338.7,463.5 345.1,463.5 345.1,463.5 351.4,463.5 357.8,463.5 364.1,463.5 364.1,463.5 
			370.5,463.5 376.8,463.5 383.2,463.5 389.6,463.5 395.9,463.5 402.3,463.5 408.6,463.5 408.6,463.5 415,463.5 421.3,463.5 
			427.7,463.5 427.7,463.5 434,463.5 440.4,463.5 446.8,463.5 453.1,463.5 459.5,463.5 465.8,463.5 472.2,463.5 472.2,463.5 
			478.5,463.5 484.9,463.5 491.2,463.5 491.2,463.5 497.6,463.5 504,463.5 510.3,463.5 516.7,463.5 523,463.5 523,463.5 
			529.3,463.5 535.7,463.5 542,463.5 542.1,463.5 548.4,463.5 554.7,463.5 561.1,463.5 567.4,463.5 567.4,463.5 573.8,463.5 
			580.1,463.5 586.4,463.5 586.5,463.5 592.8,463.5 599.1,463.5 605.5,463.5 611.8,463.5 611.9,463.5 618.2,463.5 624.5,463.5 
			630.9,463.5 630.9,463.4 637.2,463.4 		"/>
		<line class="st4" x1="21" y1="463.5" x2="637.5" y2="463.5"/>
	</g>
	<g class="st0">
		<text transform="matrix(1 0 0 1 5.6426 421.5996)" class="st5 st6 st7">20</text>
	</g>
	<g class="st0">
		<text transform="matrix(1 0 0 1 5.6426 376.5996)" class="st5 st6 st7">40</text>
	</g>
	<g class="st0">
		<text transform="matrix(1 0 0 1 5.6426 331.5996)" class="st5 st6 st7">60</text>
	</g>
	<g class="st0">
		<text transform="matrix(1 0 0 1 5.6426 286.5996)" class="st5 st6 st7">80</text>
	</g>
	<g class="st0">
		<text transform="matrix(1 0 0 1 0.5889 241.5996)" class="st5 st6 st7">100</text>
	</g>
	<g class="st0">
		<text transform="matrix(1 0 0 1 0.5889 196.5996)" class="st5 st6 st7">120</text>
	</g>
	<g class="st0">
		<text transform="matrix(1 0 0 1 0.5889 151.5996)" class="st5 st6 st7">140</text>
	</g>
	<g class="st0">
		<text transform="matrix(1 0 0 1 0.5889 106.5996)" class="st5 st6 st7">160</text>
	</g>
	<g class="st0">
		<text transform="matrix(1 0 0 1 0.5889 61.5996)" class="st5 st6 st7">180</text>
	</g>
	<g class="st0">
		<text transform="matrix(1 0 0 1 0.5889 16.5996)" class="st5 st6 st7">200</text>
	</g>
</g>
<g>
	<text transform="matrix(1 0 0 1 617.8536 478.5005)" class="st8 st6 st7">6/15</text>
</g>
<g>
	<text transform="matrix(1 0 0 1 87.9366 478.5004)" class="st8 st6 st7">3/22</text>
</g>
</svg>
