<?xml version="1.0" encoding="utf-8"?>
<!-- Generator: Adobe Illustrator 23.0.1, SVG Export Plug-In . SVG Version: 6.00 Build 0)  -->
<svg version="1.1" id="Layer_1" xmlns="http://www.w3.org/2000/svg" xmlns:xlink="http://www.w3.org/1999/xlink" x="0px" y="0px"
	 viewBox="0 0 637.5 487.5" style="enable-background:new 0 0 637.5 487.5;" xml:space="preserve">
<style type="text/css">
	.st0{clip-path:url(#SVGID_2_);enable-background:new    ;}
	.st1{clip-path:url(#SVGID_4_);fill:none;stroke:#E8E8E8;stroke-width:0.75;stroke-miterlimit:10;}
	.st2{clip-path:url(#SVGID_4_);fill:#C71E1D;}
	.st3{clip-path:url(#SVGID_4_);fill:#C71E1D;fill-opacity:0.6;stroke:#000000;stroke-width:0.5;stroke-miterlimit:10;}
	.st4{clip-path:url(#SVGID_4_);fill:none;stroke:#333333;stroke-width:0.75;stroke-miterlimit:10;}
	.st5{clip-path:url(#SVGID_4_);}
	.st6{fill:#A6A6A6;}
	.st7{font-family:'Roboto-Regular';}
	.st8{font-size:9px;}
	.st9{fill:#333333;}
</style>
<g>
	<defs>
		<rect id="SVGID_1_" width="637.5" height="487.5"/>
	</defs>
	<clipPath id="SVGID_2_">
		<use xlink:href="#SVGID_1_"  style="overflow:visible;"/>
	</clipPath>
	<g class="st0">
		<g>
			<defs>
				<rect id="SVGID_3_" width="637.5" height="487.5"/>
			</defs>
			<clipPath id="SVGID_4_">
				<use xlink:href="#SVGID_3_"  style="overflow:visible;"/>
			</clipPath>
			<line class="st1" x1="21" y1="38.2" x2="637.5" y2="38.2"/>
			<line class="st1" x1="21" y1="81" x2="637.5" y2="81"/>
			<line class="st1" x1="21" y1="123" x2="637.5" y2="123"/>
			<line class="st1" x1="21" y1="165.8" x2="637.5" y2="165.8"/>
			<line class="st1" x1="21" y1="208.5" x2="637.5" y2="208.5"/>
			<line class="st1" x1="21" y1="251.2" x2="637.5" y2="251.2"/>
			<line class="st1" x1="21" y1="293.2" x2="637.5" y2="293.2"/>
			<line class="st1" x1="21" y1="336" x2="637.5" y2="336"/>
			<line class="st1" x1="21" y1="378.8" x2="637.5" y2="378.8"/>
			<line class="st1" x1="21" y1="420.8" x2="637.5" y2="420.8"/>
			<path class="st2" d="M21,463.5h10.1H21z"/>
			<path class="st2" d="M31.1,463.5h10.1H31.1z"/>
			<path class="st2" d="M41.2,463.5h10.1H41.2z"/>
			<path class="st2" d="M51.3,463.5h10.1H51.3z"/>
			<path class="st2" d="M61.4,463.5h10.1H61.4z"/>
			<path class="st2" d="M71.5,463.5h10.1H71.5z"/>
			<path class="st2" d="M81.6,463.5h10.1H81.6z"/>
			<path class="st2" d="M91.7,463.5h10.1H91.7z"/>
			<path class="st2" d="M101.9,463.5H112H101.9z"/>
			<path class="st2" d="M112,463.5h10.1H112z"/>
			<path class="st2" d="M122.1,463.5h10.1H122.1z"/>
			<polygon class="st3" points="627.2,191.4 627.2,191.4 617.1,191.4 617.1,165.9 606.9,165.9 596.8,165.9 596.8,170.4 586.7,170.4 
				586.7,84.9 576.6,84.9 576.6,76.6 566.5,76.6 566.5,46.6 556.4,46.6 556.4,38.4 546.3,38.4 546.3,59.4 536.2,59.4 526.1,59.4 
				526.1,68.4 516,68.4 516,21.1 505.9,21.1 505.9,0 495.8,0 495.8,8.3 485.7,8.3 485.7,21 475.7,21 475.7,21 465.6,21 465.6,33.8 
				455.5,33.8 455.5,51 445.4,51 445.4,97.5 435.3,97.5 435.3,68.3 425.2,68.3 425.2,89.3 415.2,89.3 415.2,97.4 405.3,97.4 
				405.3,110.2 395.2,110.2 395.2,101.9 385.1,101.9 385.1,110.2 375,110.2 375,119.2 364.8,119.2 364.8,148.5 355,148.5 
				354.9,148.5 344.9,148.5 344.9,97.5 334.8,97.5 324.7,97.5 324.7,153 314.7,153 314.7,140.3 304.6,140.3 304.6,148.5 
				294.6,148.5 284.5,148.5 284.5,178.5 274.4,178.5 274.4,157.5 264.3,157.5 264.3,161.3 254.2,161.3 254.2,183 244.1,183 
				244.1,225 234,225 234,191.3 223.9,191.3 223.9,199.5 213.8,199.5 213.8,280.5 203.7,280.5 203.7,259.5 193.6,259.5 183.4,259.5 
				183.4,289.5 173.3,289.5 173.3,369.8 163.4,369.8 153.3,369.8 153.3,408 143.2,408 133.1,408 133.1,463.5 143.2,463.5 
				153.3,463.5 163.4,463.5 173.3,463.5 173.5,463.5 183.4,463.5 193.6,463.5 203.7,463.5 213.8,463.5 223.9,463.5 234,463.5 
				244.1,463.5 254.2,463.5 264.3,463.5 274.4,463.5 284.5,463.5 294.6,463.5 304.6,463.5 304.7,463.5 314.6,463.5 314.7,463.5 
				324.7,463.5 334.8,463.5 344.9,463.5 354.9,463.5 355,463.5 365,463.5 365,463.4 375,463.4 385.1,463.4 395.2,463.4 405.3,463.4 
				415.2,463.4 415.2,463.5 425.2,463.5 425.3,463.5 435.3,463.5 445.4,463.5 455.5,463.5 465.6,463.5 475.7,463.5 475.7,463.5 
				485.8,463.5 485.8,463.5 495.8,463.5 505.9,463.5 505.9,463.6 516,463.6 526.1,463.6 536.2,463.6 546.3,463.6 546.3,463.6 
				556.4,463.6 566.5,463.6 576.6,463.6 586.7,463.6 596.8,463.6 606.9,463.6 617.1,463.6 627.2,463.6 627.2,463.6 637.3,463.6 
				637.3,191.4 			"/>
			<line class="st4" x1="21" y1="463.5" x2="637.5" y2="463.5"/>
			<g class="st5">
				<text transform="matrix(1 0 0 1 5.6426 423.0996)" class="st6 st7 st8">10</text>
			</g>
			<g class="st5">
				<text transform="matrix(1 0 0 1 5.6426 381.0996)" class="st6 st7 st8">20</text>
			</g>
			<g class="st5">
				<text transform="matrix(1 0 0 1 5.6426 338.3496)" class="st6 st7 st8">30</text>
			</g>
			<g class="st5">
				<text transform="matrix(1 0 0 1 5.6426 295.5996)" class="st6 st7 st8">40</text>
			</g>
			<g class="st5">
				<text transform="matrix(1 0 0 1 5.6426 253.5996)" class="st6 st7 st8">50</text>
			</g>
			<g class="st5">
				<text transform="matrix(1 0 0 1 5.6426 210.8496)" class="st6 st7 st8">60</text>
			</g>
			<g class="st5">
				<text transform="matrix(1 0 0 1 5.6426 168.0996)" class="st6 st7 st8">70</text>
			</g>
			<g class="st5">
				<text transform="matrix(1 0 0 1 5.6426 125.3496)" class="st6 st7 st8">80</text>
			</g>
			<g class="st5">
				<text transform="matrix(1 0 0 1 5.6426 83.3496)" class="st6 st7 st8">90</text>
			</g>
			<g class="st5">
				<text transform="matrix(1 0 0 1 0.5889 40.5996)" class="st6 st7 st8">100</text>
			</g>
		</g>
	</g>
</g>
<g>
	<text transform="matrix(1 0 0 1 617.0631 479.192)" class="st9 st7 st8">5/10</text>
</g>
<g>
	<text transform="matrix(1 0 0 1 128.8994 479.1921)" class="st9 st7 st8">3/22</text>
</g>
</svg>
