<?xml version="1.0" encoding="utf-8"?>
<!-- Generator: Adobe Illustrator 23.0.1, SVG Export Plug-In . SVG Version: 6.00 Build 0)  -->
<svg version="1.1" id="Layer_1" xmlns="http://www.w3.org/2000/svg" xmlns:xlink="http://www.w3.org/1999/xlink" x="0px" y="0px"
	 viewBox="0 0 637.5 487.5" style="enable-background:new 0 0 637.5 487.5;" xml:space="preserve">
<style type="text/css">
	.st0{clip-path:url(#SVGID_2_);enable-background:new    ;}
	.st1{clip-path:url(#SVGID_4_);fill:none;stroke:#E8E8E8;stroke-width:0.75;stroke-miterlimit:10;}
	.st2{clip-path:url(#SVGID_4_);fill:#C71E1D;}
	.st3{clip-path:url(#SVGID_4_);fill:#C71E1D;fill-opacity:0.6;stroke:#000000;stroke-width:0.5;stroke-miterlimit:10;}
	.st4{clip-path:url(#SVGID_4_);fill:none;stroke:#333333;stroke-width:0.75;stroke-miterlimit:10;}
	.st5{clip-path:url(#SVGID_4_);}
	.st6{fill:#A6A6A6;}
	.st7{font-family:'Roboto-Regular';}
	.st8{font-size:9px;}
	.st9{fill:#333333;}
</style>
<g>
	<defs>
		<rect id="SVGID_1_" width="637.5" height="487.5"/>
	</defs>
	<clipPath id="SVGID_2_">
		<use xlink:href="#SVGID_1_"  style="overflow:visible;"/>
	</clipPath>
	<g class="st0">
		<g>
			<defs>
				<rect id="SVGID_3_" width="637.5" height="487.5"/>
			</defs>
			<clipPath id="SVGID_4_">
				<use xlink:href="#SVGID_3_"  style="overflow:visible;"/>
			</clipPath>
			<line class="st1" x1="21" y1="38.2" x2="637.5" y2="38.2"/>
			<line class="st1" x1="21" y1="81" x2="637.5" y2="81"/>
			<line class="st1" x1="21" y1="123" x2="637.5" y2="123"/>
			<line class="st1" x1="21" y1="165.8" x2="637.5" y2="165.8"/>
			<line class="st1" x1="21" y1="208.5" x2="637.5" y2="208.5"/>
			<line class="st1" x1="21" y1="251.2" x2="637.5" y2="251.2"/>
			<line class="st1" x1="21" y1="293.2" x2="637.5" y2="293.2"/>
			<line class="st1" x1="21" y1="336" x2="637.5" y2="336"/>
			<line class="st1" x1="21" y1="378.8" x2="637.5" y2="378.8"/>
			<line class="st1" x1="21" y1="420.8" x2="637.5" y2="420.8"/>
			<path class="st2" d="M21,463.5h9.6H21z"/>
			<path class="st2" d="M30.6,463.5h9.6H30.6z"/>
			<path class="st2" d="M40.3,463.5h9.6H40.3z"/>
			<path class="st2" d="M49.9,463.5h9.6H49.9z"/>
			<path class="st2" d="M59.5,463.5h9.6H59.5z"/>
			<path class="st2" d="M69.2,463.5h9.6H69.2z"/>
			<path class="st2" d="M78.8,463.5h9.6H78.8z"/>
			<path class="st2" d="M88.4,463.5h9.6H88.4z"/>
			<path class="st2" d="M98.1,463.5h9.6H98.1z"/>
			<path class="st2" d="M107.7,463.5h9.6H107.7z"/>
			<path class="st2" d="M117.3,463.5h9.6H117.3z"/>
			<polygon class="st3" points="627.9,212.2 627.9,212.2 618.2,212.2 618.2,204 608.6,204 608.6,191.2 599,191.2 599,191.2 
				589.3,191.2 589.3,165.8 579.7,165.8 579.7,165.8 570.1,165.8 570.1,170.2 560.4,170.2 560.4,84.8 550.8,84.8 550.8,76.5 
				541.2,76.5 541.2,46.5 531.5,46.5 531.5,38.2 521.9,38.2 521.9,59.2 512.3,59.2 512.3,59.2 502.6,59.2 502.6,68.2 493,68.2 
				493,21 483.4,21 483.4,0 473.7,0 473.7,8.2 464.1,8.2 464.1,21 454.5,21 454.5,21 444.8,21 444.8,33.8 435.2,33.8 435.2,51 
				425.6,51 425.6,97.5 415.9,97.5 415.9,68.2 406.3,68.2 406.3,89.2 396.7,89.2 396.7,97.5 387,97.5 387,110.2 377.4,110.2 
				377.4,102 367.8,102 367.8,110.2 358.1,110.2 358.1,119.2 348.5,119.2 348.5,148.5 338.9,148.5 338.9,148.5 329.3,148.5 
				329.3,97.5 319.6,97.5 319.6,97.5 310,97.5 310,153 300.4,153 300.4,140.2 290.7,140.2 290.7,148.5 281.1,148.5 281.1,148.5 
				271.5,148.5 271.5,178.5 261.8,178.5 261.8,157.5 252.2,157.5 252.2,161.2 242.6,161.2 242.6,183 232.9,183 232.9,225 223.3,225 
				223.3,191.2 213.7,191.2 213.7,199.5 204,199.5 204,280.5 194.4,280.5 194.4,259.5 184.8,259.5 184.8,259.5 175.1,259.5 
				175.1,289.5 165.5,289.5 165.5,369.8 155.9,369.8 155.9,369.8 146.2,369.8 146.2,408 136.6,408 136.6,408 127,408 127,463.5 
				136.6,463.5 136.6,463.5 146.2,463.5 146.2,463.5 155.9,463.5 155.9,463.5 165.5,463.5 165.5,463.5 175.1,463.5 175.1,463.5 
				184.8,463.5 184.8,463.5 194.4,463.5 194.4,463.5 204,463.5 204,463.5 213.7,463.5 213.7,463.5 223.3,463.5 223.3,463.5 
				232.9,463.5 232.9,463.5 242.6,463.5 242.6,463.5 252.2,463.5 252.2,463.5 261.8,463.5 261.8,463.5 271.5,463.5 271.5,463.5 
				281.1,463.5 281.1,463.5 290.7,463.5 290.7,463.5 300.4,463.5 300.4,463.5 310,463.5 310,463.5 319.6,463.5 319.6,463.5 
				329.2,463.5 329.3,463.5 338.9,463.5 338.9,463.5 348.5,463.5 348.5,463.5 358.1,463.5 358.1,463.5 367.8,463.5 367.8,463.5 
				377.4,463.5 377.4,463.5 387,463.5 387,463.5 396.7,463.5 396.7,463.5 406.3,463.5 406.3,463.5 415.9,463.5 415.9,463.5 
				425.6,463.5 425.6,463.5 435.2,463.5 435.2,463.5 444.8,463.5 444.8,463.5 454.5,463.5 454.5,463.5 464.1,463.5 464.1,463.5 
				473.7,463.5 473.7,463.5 483.4,463.5 483.4,463.5 493,463.5 493,463.5 502.6,463.5 502.6,463.5 512.3,463.5 512.3,463.5 
				521.9,463.5 521.9,463.5 531.5,463.5 531.5,463.5 541.2,463.5 541.2,463.5 550.8,463.5 550.8,463.5 560.4,463.5 560.4,463.5 
				570.1,463.5 570.1,463.5 579.7,463.5 579.7,463.5 589.3,463.5 589.3,463.5 599,463.5 599,463.5 608.6,463.5 608.6,463.5 
				618.2,463.5 618.2,463.5 627.9,463.5 627.9,463.5 637.5,463.5 637.5,212.2 			"/>
			<line class="st4" x1="21" y1="463.5" x2="637.5" y2="463.5"/>
			<g class="st5">
				<text transform="matrix(1 0 0 1 5.6426 423.0996)" class="st6 st7 st8">10</text>
			</g>
			<g class="st5">
				<text transform="matrix(1 0 0 1 5.6426 381.0996)" class="st6 st7 st8">20</text>
			</g>
			<g class="st5">
				<text transform="matrix(1 0 0 1 5.6426 338.3496)" class="st6 st7 st8">30</text>
			</g>
			<g class="st5">
				<text transform="matrix(1 0 0 1 5.6426 295.5996)" class="st6 st7 st8">40</text>
			</g>
			<g class="st5">
				<text transform="matrix(1 0 0 1 5.6426 253.5996)" class="st6 st7 st8">50</text>
			</g>
			<g class="st5">
				<text transform="matrix(1 0 0 1 5.6426 210.8496)" class="st6 st7 st8">60</text>
			</g>
			<g class="st5">
				<text transform="matrix(1 0 0 1 5.6426 168.0996)" class="st6 st7 st8">70</text>
			</g>
			<g class="st5">
				<text transform="matrix(1 0 0 1 5.6426 125.3496)" class="st6 st7 st8">80</text>
			</g>
			<g class="st5">
				<text transform="matrix(1 0 0 1 5.6426 83.3496)" class="st6 st7 st8">90</text>
			</g>
			<g class="st5">
				<text transform="matrix(1 0 0 1 0.5889 40.5996)" class="st6 st7 st8">100</text>
			</g>
		</g>
	</g>
</g>
<g>
	<text transform="matrix(1 0 0 1 121.3052 478.2081)" class="st9 st7 st8">3/22</text>
</g>
<g>
	<text transform="matrix(1 0 0 1 618.1217 478.2083)" class="st9 st7 st8">5/13</text>
</g>
</svg>
