<?xml version="1.0" encoding="utf-8"?>
<!-- Generator: Adobe Illustrator 23.0.1, SVG Export Plug-In . SVG Version: 6.00 Build 0)  -->
<svg version="1.1" id="Layer_1" xmlns="http://www.w3.org/2000/svg" xmlns:xlink="http://www.w3.org/1999/xlink" x="0px" y="0px"
	 viewBox="0 0 637.5 487.5" style="enable-background:new 0 0 637.5 487.5;" xml:space="preserve">
<style type="text/css">
	.st0{clip-path:url(#SVGID_2_);}
	.st1{clip-path:url(#SVGID_4_);fill:none;stroke:#E8E8E8;stroke-width:0.75;stroke-miterlimit:10;}
	.st2{clip-path:url(#SVGID_4_);fill:#C71E1D;}
	.st3{clip-path:url(#SVGID_4_);fill:#C71E1D;fill-opacity:0.6;stroke:#000000;stroke-width:0.5;stroke-miterlimit:10;}
	.st4{clip-path:url(#SVGID_4_);fill:none;stroke:#333333;stroke-width:0.75;stroke-miterlimit:10;}
	.st5{fill:#A6A6A6;}
	.st6{font-family:'Roboto-Regular';}
	.st7{font-size:9px;}
	.st8{fill:#333333;}
</style>
<g>
	<defs>
		<rect id="SVGID_1_" width="637.5" height="487.5"/>
	</defs>
	<clipPath id="SVGID_2_">
		<use xlink:href="#SVGID_1_"  style="overflow:visible;"/>
	</clipPath>
	<g class="st0">
		<defs>
			<rect id="SVGID_3_" width="637.5" height="483"/>
		</defs>
		<clipPath id="SVGID_4_">
			<use xlink:href="#SVGID_3_"  style="overflow:visible;"/>
		</clipPath>
		<line class="st1" x1="21" y1="12" x2="637.5" y2="12"/>
		<line class="st1" x1="21" y1="53.2" x2="637.5" y2="53.2"/>
		<line class="st1" x1="21" y1="94.5" x2="637.5" y2="94.5"/>
		<line class="st1" x1="21" y1="135" x2="637.5" y2="135"/>
		<line class="st1" x1="21" y1="176.2" x2="637.5" y2="176.2"/>
		<line class="st1" x1="21" y1="217.5" x2="637.5" y2="217.5"/>
		<line class="st1" x1="21" y1="258.8" x2="637.5" y2="258.8"/>
		<line class="st1" x1="21" y1="299.2" x2="637.5" y2="299.2"/>
		<line class="st1" x1="21" y1="340.5" x2="637.5" y2="340.5"/>
		<line class="st1" x1="21" y1="381.8" x2="637.5" y2="381.8"/>
		<line class="st1" x1="21" y1="422.2" x2="637.5" y2="422.2"/>
		<path class="st2" d="M21,463.5h7.7H21z"/>
		<path class="st2" d="M28.7,463.5h7.7H28.7z"/>
		<path class="st2" d="M36.4,463.5h7.7H36.4z"/>
		<path class="st2" d="M44.1,463.5h7.7H44.1z"/>
		<path class="st2" d="M51.8,463.5h7.7H51.8z"/>
		<path class="st2" d="M59.5,463.5h7.7H59.5z"/>
		<path class="st2" d="M67.2,463.5h7.7H67.2z"/>
		<path class="st2" d="M74.9,463.5h7.7H74.9z"/>
		<path class="st2" d="M82.7,463.5h7.7H82.7z"/>
		<path class="st2" d="M90.4,463.5h7.7H90.4z"/>
		<path class="st2" d="M98.1,463.5h7.7H98.1z"/>
		<polygon class="st3" points="627.8,0 627.8,36.8 620.2,36.8 620.2,20.2 612.5,20.2 612.5,24.8 604.8,24.8 604.8,57.8 597.1,57.8 
			597.1,86.2 589.4,86.2 589.4,111 581.7,111 581.7,131.2 574.3,131.2 574.3,111 566.6,111 566.6,139.5 558.9,139.5 558.9,143.2 
			551.2,143.2 551.2,147.8 543.5,147.8 543.5,197.2 535.9,197.2 528.2,197.2 520.5,197.2 520.5,201 512.8,201 512.8,221.2 
			505.1,221.2 497.7,221.2 497.7,213 489.9,213 489.9,201 482.2,201 474.5,201 474.5,176.2 466.8,176.2 459.1,176.2 459.1,180.8 
			451.6,180.8 451.6,98.2 443.8,98.2 443.8,90 436.1,90 436.1,61.5 428.4,61.5 428.4,53.2 420.7,53.2 420.7,73.5 413.2,73.5 
			405.5,73.5 405.5,81.8 397.7,81.8 397.7,36.8 390,36.8 390,16.5 382.3,16.5 382.3,24.8 374.8,24.8 374.8,36.8 367.1,36.8 
			359.4,36.8 359.4,49.5 351.6,49.5 351.6,66 343.9,66 343.9,111 336.5,111 336.5,81.8 328.8,81.8 328.8,102.8 321.1,102.8 
			321.1,111 313.4,111 313.4,123 305.9,123 305.9,114.9 298.2,114.9 298.2,123.1 290.4,123.1 290.4,131.4 282.7,131.4 282.7,159.9 
			275,159.9 267.6,159.9 267.6,111 259.9,111 252.2,111 252.2,164.2 244.5,164.2 244.5,151.5 236.8,151.5 236.8,159.8 229.1,159.8 
			221.4,159.8 221.4,189 213.7,189 213.7,168 206,168 206,172.5 198.2,172.5 198.2,192.8 190.5,192.8 190.5,234 182.8,234 
			182.8,201 175.1,201 175.1,209.2 167.4,209.2 167.4,287.2 159.7,287.2 159.7,266.2 152,266.2 144.3,266.2 144.3,295.5 
			136.6,295.5 136.6,373.5 128.9,373.5 121.2,373.5 121.2,410.2 113.5,410.2 113.5,410.2 105.8,410.2 105.8,463.5 113.5,463.5 
			113.5,463.5 121.2,463.5 128.9,463.5 136.6,463.5 144.3,463.5 152,463.5 159.7,463.5 167.4,463.5 175.1,463.5 182.8,463.5 
			190.5,463.5 198.2,463.5 206,463.5 213.7,463.5 221.4,463.5 229.1,463.5 236.8,463.5 244.5,463.5 252.2,463.5 259.9,463.5 
			267.3,463.5 267.3,463.6 275,463.6 282.7,463.6 290.4,463.6 298.2,463.6 305.9,463.6 305.9,463.5 313.4,463.5 321.1,463.5 
			328.8,463.5 336.5,463.5 343.9,463.5 344.3,463.5 351.6,463.5 359.4,463.5 367.1,463.5 374.8,463.5 382.3,463.5 382.5,463.5 
			390,463.5 397.7,463.5 405.5,463.5 413.2,463.5 420.7,463.5 420.9,463.5 428.4,463.5 436.1,463.5 443.8,463.5 451.6,463.5 
			459.1,463.5 459.3,463.5 466.8,463.5 474.5,463.5 482.2,463.5 489.9,463.5 497.4,463.5 497.7,463.5 505.1,463.5 512.8,463.5 
			520.5,463.5 528.2,463.5 535.9,463.5 543.5,463.5 543.6,463.5 551.2,463.5 558.9,463.5 566.6,463.5 574.3,463.5 581.7,463.5 
			582,463.5 589.4,463.5 597.1,463.5 604.8,463.5 612.5,463.5 620.1,463.5 620.2,463.5 627.8,463.5 635.5,463.5 635.5,0 		"/>
		<line class="st4" x1="21" y1="463.5" x2="637.5" y2="463.5"/>
	</g>
	<g class="st0">
		<text transform="matrix(1 0 0 1 5.2559 424.5996)" class="st5 st6 st7">10</text>
	</g>
	<g class="st0">
		<text transform="matrix(1 0 0 1 5.2559 384.0996)" class="st5 st6 st7">20</text>
	</g>
	<g class="st0">
		<text transform="matrix(1 0 0 1 5.2559 342.8496)" class="st5 st6 st7">30</text>
	</g>
	<g class="st0">
		<text transform="matrix(1 0 0 1 5.2559 301.5996)" class="st5 st6 st7">40</text>
	</g>
	<g class="st0">
		<text transform="matrix(1 0 0 1 5.2559 261.0996)" class="st5 st6 st7">50</text>
	</g>
	<g class="st0">
		<text transform="matrix(1 0 0 1 5.2559 219.8496)" class="st5 st6 st7">60</text>
	</g>
	<g class="st0">
		<text transform="matrix(1 0 0 1 5.2559 178.5996)" class="st5 st6 st7">70</text>
	</g>
	<g class="st0">
		<text transform="matrix(1 0 0 1 5.2559 137.3496)" class="st5 st6 st7">80</text>
	</g>
	<g class="st0">
		<text transform="matrix(1 0 0 1 5.2559 96.8496)" class="st5 st6 st7">90</text>
	</g>
	<g class="st0">
		<text transform="matrix(1 0 0 1 2.929688e-03 55.5996)" class="st5 st6 st7">100</text>
	</g>
	<g class="st0">
		<text transform="matrix(1 0 0 1 2.929688e-03 14.3496)" class="st5 st6 st7">110</text>
	</g>
</g>
<g>
	<text transform="matrix(1 0 0 1 617.593 478.4908)" class="st8 st6 st7">5/29</text>
</g>
<g>
	<text transform="matrix(1 0 0 1 101.2791 478.4906)" class="st8 st6 st7">3/22</text>
</g>
</svg>
