<?xml version="1.0" encoding="utf-8"?>
<!-- Generator: Adobe Illustrator 23.0.1, SVG Export Plug-In . SVG Version: 6.00 Build 0)  -->
<svg version="1.1" id="Layer_1" xmlns="http://www.w3.org/2000/svg" xmlns:xlink="http://www.w3.org/1999/xlink" x="0px" y="0px"
	 viewBox="0 0 637.5 487.5" style="enable-background:new 0 0 637.5 487.5;" xml:space="preserve">
<style type="text/css">
	.st0{clip-path:url(#SVGID_2_);enable-background:new    ;}
	.st1{clip-path:url(#SVGID_4_);fill:none;stroke:#E8E8E8;stroke-width:0.75;stroke-miterlimit:10;}
	.st2{clip-path:url(#SVGID_4_);fill:#C71E1D;}
	.st3{clip-path:url(#SVGID_4_);fill:#C71E1D;fill-opacity:0.6;stroke:#000000;stroke-width:0.5;stroke-miterlimit:10;}
	.st4{clip-path:url(#SVGID_4_);fill:none;stroke:#333333;stroke-width:0.75;stroke-miterlimit:10;}
	.st5{clip-path:url(#SVGID_4_);}
	.st6{fill:#A6A6A6;}
	.st7{font-family:'Roboto-Regular';}
	.st8{font-size:9px;}
	.st9{fill:#333333;}
</style>
<g>
	<defs>
		<rect id="SVGID_1_" width="637.5" height="487.5"/>
	</defs>
	<clipPath id="SVGID_2_">
		<use xlink:href="#SVGID_1_"  style="overflow:visible;"/>
	</clipPath>
	<g class="st0">
		<g>
			<defs>
				<rect id="SVGID_3_" width="637.5" height="487.5"/>
			</defs>
			<clipPath id="SVGID_4_">
				<use xlink:href="#SVGID_3_"  style="overflow:visible;"/>
			</clipPath>
			<line class="st1" x1="21" y1="38.2" x2="637.5" y2="38.2"/>
			<line class="st1" x1="21" y1="81" x2="637.5" y2="81"/>
			<line class="st1" x1="21" y1="123" x2="637.5" y2="123"/>
			<line class="st1" x1="21" y1="165.8" x2="637.5" y2="165.8"/>
			<line class="st1" x1="21" y1="208.5" x2="637.5" y2="208.5"/>
			<line class="st1" x1="21" y1="251.2" x2="637.5" y2="251.2"/>
			<line class="st1" x1="21" y1="293.2" x2="637.5" y2="293.2"/>
			<line class="st1" x1="21" y1="336" x2="637.5" y2="336"/>
			<line class="st1" x1="21" y1="378.8" x2="637.5" y2="378.8"/>
			<line class="st1" x1="21" y1="420.8" x2="637.5" y2="420.8"/>
			<path class="st2" d="M21,463.5h10.4H21z"/>
			<path class="st2" d="M31.4,463.5h10.4H31.4z"/>
			<path class="st2" d="M41.9,463.5h10.4H41.9z"/>
			<path class="st2" d="M52.3,463.5h10.4H52.3z"/>
			<path class="st2" d="M62.8,463.5h10.4H62.8z"/>
			<path class="st2" d="M73.2,463.5h10.4H73.2z"/>
			<path class="st2" d="M83.7,463.5h10.4H83.7z"/>
			<path class="st2" d="M94.1,463.5h10.4H94.1z"/>
			<path class="st2" d="M104.6,463.5H115H104.6z"/>
			<path class="st2" d="M115,463.5h10.4H115z"/>
			<path class="st2" d="M125.5,463.5h10.4H125.5z"/>
			<polygon class="st3" points="626.9,165.8 616.5,165.8 616.5,170.2 606,170.2 606,84.8 595.6,84.8 595.6,76.5 585.1,76.5 
				585.1,46.5 574.7,46.5 574.7,38.2 564.3,38.2 564.3,59.2 553.8,59.2 543.4,59.2 543.4,68.2 532.9,68.2 532.9,21 522.5,21 
				522.5,0 512,0 512,8.2 501.6,8.2 501.6,21 491.1,21 491.1,21 480.7,21 480.7,33.8 470.3,33.8 470.3,51 459.8,51 459.8,97.5 
				449.4,97.5 449.4,68.2 438.9,68.2 438.9,89.2 428.5,89.2 428.5,97.5 418,97.5 418,110.2 407.6,110.2 407.6,102 397.1,102 
				397.1,110.2 386.7,110.2 386.7,119.2 376.2,119.2 376.2,148.5 365.8,148.5 365.8,148.5 355.4,148.5 355.4,97.5 344.9,97.5 
				334.5,97.5 334.5,153 324,153 324,140.2 313.6,140.2 313.6,148.5 303.1,148.5 292.7,148.5 292.7,178.5 282.2,178.5 282.2,157.5 
				271.8,157.5 271.8,161.2 261.3,161.2 261.3,183 250.9,183 250.9,225 240.4,225 240.4,191.2 230,191.2 230,199.5 219.5,199.5 
				219.5,280.5 209.1,280.5 209.1,259.5 198.6,259.5 188.2,259.5 188.2,289.5 177.7,289.5 177.7,369.8 167.3,369.8 156.8,369.8 
				156.8,408 146.4,408 135.9,408 135.9,463.5 146.4,463.5 156.8,463.5 167.3,463.5 177.7,463.5 188.2,463.5 198.6,463.5 
				209.1,463.5 219.5,463.5 219.5,463.5 230,463.5 240.4,463.5 250.9,463.5 261.3,463.5 271.8,463.5 282.2,463.5 292.7,463.5 
				303.1,463.5 313.6,463.5 324,463.5 334.5,463.5 344.9,463.5 355.4,463.5 355.4,463.5 365.8,463.5 365.8,463.5 376.2,463.5 
				376.2,463.5 386.7,463.5 397.1,463.5 407.6,463.5 418,463.5 428.5,463.5 438.9,463.5 449.4,463.5 459.8,463.5 459.8,463.5 
				470.3,463.5 480.7,463.5 480.7,463.5 491.1,463.5 491.1,463.5 501.6,463.5 512,463.5 522.5,463.5 532.9,463.5 543.4,463.5 
				553.8,463.5 564.3,463.5 564.3,463.5 574.7,463.5 574.7,463.5 585.1,463.5 595.6,463.5 595.6,463.5 606,463.5 616.5,463.5 
				626.9,463.5 637.4,463.5 637.4,165.8 			"/>
			<line class="st4" x1="21" y1="463.5" x2="637.5" y2="463.5"/>
			<g class="st5">
				<text transform="matrix(1 0 0 1 5.6426 423.0996)" class="st6 st7 st8">10</text>
			</g>
			<g class="st5">
				<text transform="matrix(1 0 0 1 5.6426 381.0996)" class="st6 st7 st8">20</text>
			</g>
			<g class="st5">
				<text transform="matrix(1 0 0 1 5.6426 338.3496)" class="st6 st7 st8">30</text>
			</g>
			<g class="st5">
				<text transform="matrix(1 0 0 1 5.6426 295.5996)" class="st6 st7 st8">40</text>
			</g>
			<g class="st5">
				<text transform="matrix(1 0 0 1 5.6426 253.5996)" class="st6 st7 st8">50</text>
			</g>
			<g class="st5">
				<text transform="matrix(1 0 0 1 5.6426 210.8496)" class="st6 st7 st8">60</text>
			</g>
			<g class="st5">
				<text transform="matrix(1 0 0 1 5.6426 168.0996)" class="st6 st7 st8">70</text>
			</g>
			<g class="st5">
				<text transform="matrix(1 0 0 1 5.6426 125.3496)" class="st6 st7 st8">80</text>
			</g>
			<g class="st5">
				<text transform="matrix(1 0 0 1 5.6426 83.3496)" class="st6 st7 st8">90</text>
			</g>
			<g class="st5">
				<text transform="matrix(1 0 0 1 0.5889 40.5996)" class="st6 st7 st8">100</text>
			</g>
		</g>
	</g>
</g>
<g>
	<text transform="matrix(1 0 0 1 132.7951 476.9051)" class="st9 st7 st8">3/22</text>
</g>
<g>
	<text transform="matrix(1 0 0 1 623.0518 476.9048)" class="st9 st7 st8">5/8</text>
</g>
</svg>
