<?xml version="1.0" encoding="utf-8"?>
<!-- Generator: Adobe Illustrator 23.0.1, SVG Export Plug-In . SVG Version: 6.00 Build 0)  -->
<svg version="1.1" id="Layer_1" xmlns="http://www.w3.org/2000/svg" xmlns:xlink="http://www.w3.org/1999/xlink" x="0px" y="0px"
	 viewBox="0 0 637.5 487.5" style="enable-background:new 0 0 637.5 487.5;" xml:space="preserve">
<style type="text/css">
	.st0{clip-path:url(#SVGID_2_);enable-background:new    ;}
	.st1{clip-path:url(#SVGID_4_);fill:none;stroke:#E8E8E8;stroke-width:0.75;stroke-miterlimit:10;}
	.st2{clip-path:url(#SVGID_4_);fill:#C71E1D;}
	.st3{clip-path:url(#SVGID_4_);fill:#C71E1D;fill-opacity:0.6;stroke:#000000;stroke-width:0.5;stroke-miterlimit:10;}
	.st4{clip-path:url(#SVGID_4_);fill:none;stroke:#333333;stroke-width:0.75;stroke-miterlimit:10;}
	.st5{clip-path:url(#SVGID_4_);}
	.st6{fill:#A6A6A6;}
	.st7{font-family:'Roboto-Regular';}
	.st8{font-size:9px;}
	.st9{fill:#333333;}
</style>
<g>
	<defs>
		<rect id="SVGID_1_" width="637.5" height="487.5"/>
	</defs>
	<clipPath id="SVGID_2_">
		<use xlink:href="#SVGID_1_"  style="overflow:visible;"/>
	</clipPath>
	<g class="st0">
		<g>
			<defs>
				<rect id="SVGID_3_" width="637.5" height="487.5"/>
			</defs>
			<clipPath id="SVGID_4_">
				<use xlink:href="#SVGID_3_"  style="overflow:visible;"/>
			</clipPath>
			<line class="st1" x1="21" y1="52.5" x2="637.5" y2="52.5"/>
			<line class="st1" x1="21" y1="93.8" x2="637.5" y2="93.8"/>
			<line class="st1" x1="21" y1="135" x2="637.5" y2="135"/>
			<line class="st1" x1="21" y1="176.2" x2="637.5" y2="176.2"/>
			<line class="st1" x1="21" y1="216.8" x2="637.5" y2="216.8"/>
			<line class="st1" x1="21" y1="258" x2="637.5" y2="258"/>
			<line class="st1" x1="21" y1="299.2" x2="637.5" y2="299.2"/>
			<line class="st1" x1="21" y1="340.5" x2="637.5" y2="340.5"/>
			<line class="st1" x1="21" y1="381" x2="637.5" y2="381"/>
			<line class="st1" x1="21" y1="422.2" x2="637.5" y2="422.2"/>
			<path class="st2" d="M21,463.5h10.8H21z"/>
			<path class="st2" d="M31.8,463.5h10.8H31.8z"/>
			<path class="st2" d="M42.6,463.5h10.8H42.6z"/>
			<path class="st2" d="M53.4,463.5h10.8H53.4z"/>
			<path class="st2" d="M64.3,463.5h10.8H64.3z"/>
			<path class="st2" d="M75.1,463.5h10.8H75.1z"/>
			<path class="st2" d="M85.9,463.5h10.8H85.9z"/>
			<path class="st2" d="M96.7,463.5h10.8H96.7z"/>
			<path class="st2" d="M107.5,463.5h10.8H107.5z"/>
			<path class="st2" d="M118.3,463.5h10.8H118.3z"/>
			<path class="st2" d="M129.2,463.5H140H129.2z"/>
			<polygon class="st3" points="626.1,180 626.1,98.2 615.3,98.2 615.3,90 604.5,90 604.5,60.8 594,60.8 594,52.5 583.1,52.5 
				583.1,73.5 572.6,73.5 572.3,73.5 561.8,73.5 561.8,81.8 551,81.8 551,36 540.2,36 540.2,15.8 529.3,15.8 529.3,24 518.5,24 
				518.5,36 507.7,36 496.9,36 496.9,48.8 486.1,48.8 486.1,65.2 475.3,65.2 475.3,110.2 464.4,110.2 464.4,81.8 453.6,81.8 
				453.6,102 442.8,102 442.8,110.2 432,110.2 432,122.2 421.2,122.2 421.2,114 410.4,114 410.4,122.2 399.6,122.2 399.6,130.5 
				388.7,130.5 388.7,159.8 377.9,159.8 367.1,159.8 367.1,110.2 356.3,110.2 356.3,110.2 345.5,110.2 345.5,163.5 334.7,163.5 
				334.7,151.5 323.8,151.5 323.8,159.8 313,159.8 313,159.8 302.2,159.8 302.2,188.2 291.4,188.2 291.4,168 280.6,168 280.6,171.8 
				269.8,171.8 269.8,192.8 258.9,192.8 258.9,233.2 248.1,233.2 248.1,200.2 237.3,200.2 237.3,208.5 226.5,208.5 226.5,286.5 
				215.7,286.5 215.7,266.2 204.9,266.2 204.9,266.2 194.1,266.2 194.1,294.8 183.2,294.8 183.2,373.5 172.4,373.5 161.6,373.5 
				161.6,410.2 150.8,410.2 140,410.2 140,463.5 150.8,463.5 161.6,463.5 172.4,463.5 183.2,463.5 194.1,463.5 194.1,463.5 
				204.9,463.5 204.9,463.5 215.7,463.5 215.7,463.5 226.5,463.5 226.5,463.5 237.3,463.5 237.3,463.5 248.1,463.5 258.9,463.5 
				269.8,463.5 280.6,463.5 291.4,463.5 302.2,463.5 302.2,463.5 313,463.5 313,463.5 323.8,463.5 323.8,463.5 334.7,463.5 
				334.7,463.5 345.5,463.5 345.5,463.5 356.3,463.5 356.3,463.5 367.1,463.5 367.1,463.5 377.9,463.5 388.7,463.5 399.6,463.5 
				399.6,463.5 410.4,463.5 410.4,463.5 421.2,463.5 421.2,463.5 432,463.5 432,463.5 442.8,463.5 442.8,463.5 453.6,463.5 
				453.6,463.5 464.4,463.5 464.4,463.5 475.3,463.5 475.3,463.5 486.1,463.5 496.9,463.5 507.7,463.5 518.5,463.5 518.5,463.5 
				529.3,463.5 540.2,463.5 551,463.5 561.8,463.5 561.8,463.5 572.3,463.5 572.6,463.5 583.1,463.5 583.1,463.5 593.7,463.5 
				594,463.5 604.5,463.5 604.5,463.5 615.3,463.5 626.1,463.5 636.9,463.5 636.9,180 			"/>
			<line class="st4" x1="21" y1="463.5" x2="637.5" y2="463.5"/>
			<g class="st5">
				<text transform="matrix(1 0 0 1 5.6426 424.5996)" class="st6 st7 st8">10</text>
			</g>
			<g class="st5">
				<text transform="matrix(1 0 0 1 5.6426 383.3496)" class="st6 st7 st8">20</text>
			</g>
			<g class="st5">
				<text transform="matrix(1 0 0 1 5.6426 342.8496)" class="st6 st7 st8">30</text>
			</g>
			<g class="st5">
				<text transform="matrix(1 0 0 1 5.6426 301.5996)" class="st6 st7 st8">40</text>
			</g>
			<g class="st5">
				<text transform="matrix(1 0 0 1 5.6426 260.3496)" class="st6 st7 st8">50</text>
			</g>
			<g class="st5">
				<text transform="matrix(1 0 0 1 5.6426 219.0996)" class="st6 st7 st8">60</text>
			</g>
			<g class="st5">
				<text transform="matrix(1 0 0 1 5.6426 178.5996)" class="st6 st7 st8">70</text>
			</g>
			<g class="st5">
				<text transform="matrix(1 0 0 1 5.6426 137.3496)" class="st6 st7 st8">80</text>
			</g>
			<g class="st5">
				<text transform="matrix(1 0 0 1 5.6426 96.0996)" class="st6 st7 st8">90</text>
			</g>
			<g class="st5">
				<text transform="matrix(1 0 0 1 0.5889 54.8496)" class="st6 st7 st8">100</text>
			</g>
			<g class="st5">
				<text transform="matrix(1 0 0 1 134.1599 478.5166)" class="st9 st7 st8">3/22</text>
			</g>
		</g>
	</g>
</g>
<text transform="matrix(1 0 0 1 623.1946 478.36)" class="st9 st7 st8">5/6</text>
</svg>
