<?xml version="1.0" encoding="utf-8"?>
<!-- Generator: Adobe Illustrator 23.0.1, SVG Export Plug-In . SVG Version: 6.00 Build 0)  -->
<svg version="1.1" id="Layer_1" xmlns="http://www.w3.org/2000/svg" xmlns:xlink="http://www.w3.org/1999/xlink" x="0px" y="0px"
	 viewBox="0 0 637.5 487.5" style="enable-background:new 0 0 637.5 487.5;" xml:space="preserve">
<style type="text/css">
	.st0{clip-path:url(#SVGID_2_);}
	.st1{clip-path:url(#SVGID_4_);fill:none;stroke:#E8E8E8;stroke-width:0.75;stroke-miterlimit:10;}
	.st2{clip-path:url(#SVGID_4_);fill:#C71E1D;}
	.st3{clip-path:url(#SVGID_4_);fill:#C71E1D;fill-opacity:0.6;stroke:#000000;stroke-width:0.5;stroke-miterlimit:10;}
	.st4{clip-path:url(#SVGID_4_);fill:none;stroke:#333333;stroke-width:0.75;stroke-miterlimit:10;}
	.st5{fill:#A6A6A6;}
	.st6{font-family:'Roboto-Regular';}
	.st7{font-size:9px;}
	.st8{fill:#333333;}
</style>
<g>
	<defs>
		<rect id="SVGID_1_" width="637.5" height="487.5"/>
	</defs>
	<clipPath id="SVGID_2_">
		<use xlink:href="#SVGID_1_"  style="overflow:visible;"/>
	</clipPath>
	<g class="st0">
		<defs>
			<rect id="SVGID_3_" width="637.5" height="483"/>
		</defs>
		<clipPath id="SVGID_4_">
			<use xlink:href="#SVGID_3_"  style="overflow:visible;"/>
		</clipPath>
		<line class="st1" x1="21" y1="2.2" x2="637.5" y2="2.2"/>
		<line class="st1" x1="21" y1="54" x2="637.5" y2="54"/>
		<line class="st1" x1="21" y1="105" x2="637.5" y2="105"/>
		<line class="st1" x1="21" y1="156" x2="637.5" y2="156"/>
		<line class="st1" x1="21" y1="207.8" x2="637.5" y2="207.8"/>
		<line class="st1" x1="21" y1="258.8" x2="637.5" y2="258.8"/>
		<line class="st1" x1="21" y1="309.8" x2="637.5" y2="309.8"/>
		<line class="st1" x1="21" y1="360.8" x2="637.5" y2="360.8"/>
		<line class="st1" x1="21" y1="412.5" x2="637.5" y2="412.5"/>
		<path class="st2" d="M21,463.5h6.7H21z"/>
		<path class="st2" d="M27.7,463.5h6.7H27.7z"/>
		<path class="st2" d="M34.4,463.5h6.7H34.4z"/>
		<path class="st2" d="M41.1,463.5h6.7H41.1z"/>
		<path class="st2" d="M47.8,463.5h6.7H47.8z"/>
		<path class="st2" d="M54.5,463.5h6.7H54.5z"/>
		<path class="st2" d="M61.2,463.5h6.7H61.2z"/>
		<path class="st2" d="M67.9,463.5h6.7H67.9z"/>
		<path class="st2" d="M74.6,463.5h6.7H74.6z"/>
		<path class="st2" d="M81.3,463.5H88H81.3z"/>
		<path class="st2" d="M88,463.5h6.7H88z"/>
		<polygon class="st3" points="630.1,0 630.1,20.2 623.4,20.2 623.4,25.5 616.7,25.5 616.7,92.2 610,92.2 610,69 603.3,69 603.3,87 
			596.6,87 596.6,112.5 589.9,112.5 589.9,110.2 583.2,110.2 583.2,125.2 576.5,125.2 576.5,153.8 569.8,153.8 569.8,168.8 
			563.1,168.8 563.1,197.2 556.4,197.2 556.4,174 549.7,174 549.7,197.2 543,197.2 543,186.8 536.3,186.8 536.3,189.8 529.6,189.8 
			529.6,210 522.9,210 522.9,228 516.2,228 516.2,243 509.5,243 509.5,255.8 502.8,255.8 502.8,243 496.1,243 496.1,261 489.4,261 
			489.4,264 482.7,264 482.7,266.2 476,266.2 476,297 469.3,297 462.6,297 455.9,297 455.9,299.2 449.2,299.2 449.2,312.8 
			442.6,312.8 442.5,312.8 435.9,312.8 435.9,307.5 429.2,307.5 429.2,299.2 422.5,299.2 415.7,299.2 415.7,284.2 409.1,284.2 
			409,284.2 402.4,284.2 402.4,286.5 395.7,286.5 395.7,235.5 389,235.5 389,230.2 382.3,230.2 382.3,212.2 375.8,212.2 
			375.8,207.8 369.1,207.8 369.1,220.5 362.4,220.5 355.7,220.5 355.7,225 349,225 349,197.2 342.3,197.2 342.3,184.5 335.6,184.5 
			335.6,189.8 328.9,189.8 328.9,197.2 322.2,197.2 315.5,197.2 315.5,204.8 308.8,204.8 308.8,215.2 302.1,215.2 302.1,243 
			295.4,243 295.4,225 288.7,225 288.7,238.5 282.1,238.5 282.1,243 275.4,243 275.4,251.2 268.7,251.2 268.7,246 262,246 
			262,251.2 255.3,251.2 255.3,255.8 248.6,255.8 248.6,273.8 241.9,273.8 235.2,273.8 235.2,243 228.4,243 221.7,243 221.7,276.8 
			215,276.8 215,269.2 208.3,269.2 208.3,273.8 201.7,273.8 201.6,273.8 195,273.8 195,291.8 188.3,291.8 188.3,279 181.6,279 
			181.6,282 174.9,282 174.9,294.8 168.2,294.8 168.2,320.2 161.7,320.2 161.7,299.2 155,299.2 155,304.5 148.3,304.5 148.3,353.2 
			141.6,353.2 141.6,340.5 134.9,340.5 128.2,340.5 128.2,358.5 121.5,358.5 121.5,407.2 114.8,407.2 108.1,407.2 108.1,430.5 
			101.4,430.5 94.7,430.5 94.7,463.5 101.4,463.5 108.1,463.5 114.8,463.5 121.5,463.5 128.2,463.5 134.9,463.5 141.6,463.5 
			148.3,463.5 155,463.5 161.7,463.5 168.2,463.5 168.4,463.5 174.9,463.5 181.6,463.5 188.3,463.5 195,463.5 201.6,463.5 
			201.7,463.5 208.3,463.5 215,463.5 221.7,463.5 228.4,463.5 235.2,463.5 241.9,463.5 248.6,463.5 255.3,463.5 262,463.5 
			268.7,463.5 275.4,463.5 282.1,463.5 288.7,463.5 288.8,463.5 295.4,463.5 302.1,463.5 308.8,463.5 315.5,463.5 322.2,463.5 
			328.9,463.5 335.6,463.5 342.3,463.5 349,463.5 355.7,463.5 362.4,463.5 369.1,463.5 375.6,463.5 375.8,463.5 382.3,463.5 
			389,463.5 395.7,463.5 402.4,463.5 409,463.5 409.1,463.5 415.7,463.5 422.5,463.5 429.2,463.5 435.9,463.5 442.5,463.5 
			442.6,463.5 449.2,463.5 455.9,463.5 462.6,463.5 469.3,463.5 476,463.5 482.7,463.5 489.4,463.5 496.1,463.5 502.8,463.5 
			509.5,463.5 516.2,463.5 522.9,463.5 529.6,463.5 529.6,463.5 536.3,463.5 543,463.5 543,463.5 549.7,463.5 556.4,463.5 
			563.1,463.5 563.1,463.5 569.8,463.5 576.5,463.5 583.2,463.5 583.2,463.5 589.9,463.5 596.6,463.5 596.6,463.5 603.3,463.5 
			610,463.5 616.7,463.5 616.7,463.5 623.4,463.5 630.1,463.5 630.1,463.5 636.8,463.5 636.8,0 		"/>
		<line class="st4" x1="21" y1="463.5" x2="637.5" y2="463.5"/>
	</g>
	<g class="st0">
		<text transform="matrix(1 0 0 1 5.6426 415.5996)" class="st5 st6 st7">20</text>
	</g>
	<g class="st0">
		<text transform="matrix(1 0 0 1 5.6426 363.8496)" class="st5 st6 st7">40</text>
	</g>
	<g class="st0">
		<text transform="matrix(1 0 0 1 5.6426 312.8496)" class="st5 st6 st7">60</text>
	</g>
	<g class="st0">
		<text transform="matrix(1 0 0 1 5.6426 261.8496)" class="st5 st6 st7">80</text>
	</g>
	<g class="st0">
		<text transform="matrix(1 0 0 1 0.5889 210.8496)" class="st5 st6 st7">100</text>
	</g>
	<g class="st0">
		<text transform="matrix(1 0 0 1 0.5889 159.0996)" class="st5 st6 st7">120</text>
	</g>
	<g class="st0">
		<text transform="matrix(1 0 0 1 0.5889 108.0996)" class="st5 st6 st7">140</text>
	</g>
	<g class="st0">
		<text transform="matrix(1 0 0 1 0.5889 57.0996)" class="st5 st6 st7">160</text>
	</g>
	<g class="st0">
		<text transform="matrix(1 0 0 1 0.5889 5.3496)" class="st5 st6 st7">180</text>
	</g>
</g>
<g>
	<text transform="matrix(1 0 0 1 618.2051 477.975)" class="st8 st6 st7">6/10</text>
</g>
<g>
	<text transform="matrix(1 0 0 1 89.5026 477.975)" class="st8 st6 st7">3/22</text>
</g>
</svg>
