<?xml version="1.0" encoding="utf-8"?>
<!-- Generator: Adobe Illustrator 23.0.1, SVG Export Plug-In . SVG Version: 6.00 Build 0)  -->
<svg version="1.1" id="Layer_1" xmlns="http://www.w3.org/2000/svg" xmlns:xlink="http://www.w3.org/1999/xlink" x="0px" y="0px"
	 viewBox="0 0 637.5 487.5" style="enable-background:new 0 0 637.5 487.5;" xml:space="preserve">
<style type="text/css">
	.st0{clip-path:url(#SVGID_2_);}
	.st1{clip-path:url(#SVGID_4_);fill:none;stroke:#E8E8E8;stroke-width:0.75;stroke-miterlimit:10;}
	.st2{clip-path:url(#SVGID_4_);fill:#C71E1D;}
	.st3{clip-path:url(#SVGID_4_);fill:#C71E1D;fill-opacity:0.6;stroke:#000000;stroke-width:0.5;stroke-miterlimit:10;}
	.st4{clip-path:url(#SVGID_4_);fill:none;stroke:#333333;stroke-width:0.75;stroke-miterlimit:10;}
	.st5{fill:#A6A6A6;}
	.st6{font-family:'Roboto-Regular';}
	.st7{font-size:9px;}
	.st8{fill:#333333;}
</style>
<g>
	<defs>
		<rect id="SVGID_1_" width="637.5" height="487.5"/>
	</defs>
	<clipPath id="SVGID_2_">
		<use xlink:href="#SVGID_1_"  style="overflow:visible;"/>
	</clipPath>
	<g class="st0">
		<defs>
			<rect id="SVGID_3_" width="637.5" height="483"/>
		</defs>
		<clipPath id="SVGID_4_">
			<use xlink:href="#SVGID_3_"  style="overflow:visible;"/>
		</clipPath>
		<line class="st1" x1="21" y1="38.2" x2="637.5" y2="38.2"/>
		<line class="st1" x1="21" y1="81" x2="637.5" y2="81"/>
		<line class="st1" x1="21" y1="123" x2="637.5" y2="123"/>
		<line class="st1" x1="21" y1="165.8" x2="637.5" y2="165.8"/>
		<line class="st1" x1="21" y1="208.5" x2="637.5" y2="208.5"/>
		<line class="st1" x1="21" y1="251.2" x2="637.5" y2="251.2"/>
		<line class="st1" x1="21" y1="293.2" x2="637.5" y2="293.2"/>
		<line class="st1" x1="21" y1="336" x2="637.5" y2="336"/>
		<line class="st1" x1="21" y1="378.8" x2="637.5" y2="378.8"/>
		<line class="st1" x1="21" y1="420.8" x2="637.5" y2="420.8"/>
		<path class="st2" d="M21,463.5h8.1H21z"/>
		<path class="st2" d="M29.1,463.5h8.1H29.1z"/>
		<path class="st2" d="M37.2,463.5h8.1H37.2z"/>
		<path class="st2" d="M45.3,463.5h8.1H45.3z"/>
		<path class="st2" d="M53.4,463.5h8.1H53.4z"/>
		<path class="st2" d="M61.6,463.5h8.1H61.6z"/>
		<path class="st2" d="M69.7,463.5h8.1H69.7z"/>
		<path class="st2" d="M77.8,463.5h8.1H77.8z"/>
		<path class="st2" d="M85.9,463.5H94H85.9z"/>
		<path class="st2" d="M94,463.5h8.1H94z"/>
		<path class="st2" d="M102.1,463.5h8.1H102.1z"/>
		<polygon class="st3" points="629.4,42.8 629.4,72 621.3,72 621.3,97.5 613.2,97.5 613.2,119.2 605.1,119.2 605.1,97.5 596.9,97.5 
			596.9,127.5 588.8,127.5 588.8,132 580.7,132 580.7,135.8 572.6,135.8 572.6,186.8 564.5,186.8 564.5,186.8 556.4,186.8 
			548.3,186.8 548.3,191.2 540.2,191.2 540.2,212.2 532,212.2 523.9,212.2 523.9,204 515.8,204 515.8,191.2 507.7,191.2 
			499.6,191.2 499.6,165.8 491.5,165.8 483.4,165.8 483.4,170.2 475.3,170.2 475.3,84.8 467.2,84.8 467.2,76.5 459,76.5 459,46.5 
			450.9,46.5 450.9,38.2 442.8,38.2 442.8,59.2 434.7,59.2 426.6,59.2 426.6,68.2 418.5,68.2 418.5,21 410.4,21 410.4,0 402.3,0 
			402.3,8.2 394.1,8.2 394.1,21 386,21 377.9,21 377.9,33.8 369.8,33.8 369.8,51 361.7,51 361.7,97.5 353.6,97.5 353.6,68.2 
			345.5,68.2 345.5,89.2 337.4,89.2 337.4,97.5 329.2,97.5 329.2,110.2 321.1,110.2 321.1,102 313,102 313,110.2 304.9,110.2 
			304.9,119.2 296.8,119.2 296.8,148.5 288.7,148.5 280.6,148.5 280.6,97.5 272.5,97.5 264.4,97.5 264.4,153 256.2,153 256.2,140.2 
			248.1,140.2 248.1,148.5 240,148.5 240,148.5 231.9,148.5 231.9,178.5 223.8,178.5 223.8,157.5 215.7,157.5 215.7,161.2 
			207.6,161.2 207.6,183 199.5,183 199.5,225 191.3,225 191.3,191.2 183.2,191.2 183.2,199.5 175.1,199.5 175.1,280.5 167,280.5 
			167,259.5 158.9,259.5 150.8,259.5 150.8,289.5 142.7,289.5 142.7,369.8 134.6,369.8 126.5,369.8 126.5,408 118.3,408 110.2,408 
			110.2,463.5 118.3,463.5 126.5,463.5 134.6,463.5 142.7,463.5 142.7,463.5 150.8,463.5 158.9,463.5 167,463.5 175.1,463.5 
			183.2,463.5 191.3,463.5 199.5,463.5 207.6,463.5 215.7,463.5 223.8,463.5 231.9,463.5 240,463.5 240,463.5 248.1,463.5 
			256.2,463.5 256.2,463.5 264.4,463.5 272.5,463.5 280.6,463.5 288.7,463.5 296.8,463.5 304.9,463.5 313,463.5 321.1,463.5 
			329.2,463.5 337.4,463.5 345.5,463.5 353.6,463.5 361.7,463.5 369.8,463.5 377.9,463.5 386,463.5 394.1,463.5 402.3,463.5 
			410.4,463.5 410.4,463.5 418.5,463.5 426.6,463.5 434.7,463.5 442.8,463.5 450.9,463.5 459,463.5 467.2,463.5 475.3,463.5 
			483.4,463.5 491.5,463.5 499.6,463.5 507.7,463.5 515.8,463.5 523.9,463.5 523.9,463.5 532,463.5 540.2,463.5 540.2,463.5 
			548.3,463.5 548.3,463.5 556.4,463.5 564.5,463.5 564.5,463.5 572.6,463.5 580.7,463.5 580.7,463.5 588.8,463.5 588.8,463.5 
			596.9,463.5 605.1,463.5 605.1,463.5 613.2,463.5 621.3,463.5 621.3,463.5 629.4,463.5 637.5,463.5 637.5,42.8 		"/>
		<line class="st4" x1="21" y1="463.5" x2="637.5" y2="463.5"/>
	</g>
	<g class="st0">
		<text transform="matrix(1 0 0 1 5.2559 423.0996)" class="st5 st6 st7">10</text>
	</g>
	<g class="st0">
		<text transform="matrix(1 0 0 1 5.2559 381.0996)" class="st5 st6 st7">20</text>
	</g>
	<g class="st0">
		<text transform="matrix(1 0 0 1 5.2559 338.3496)" class="st5 st6 st7">30</text>
	</g>
	<g class="st0">
		<text transform="matrix(1 0 0 1 5.2559 295.5996)" class="st5 st6 st7">40</text>
	</g>
	<g class="st0">
		<text transform="matrix(1 0 0 1 5.2559 253.5996)" class="st5 st6 st7">50</text>
	</g>
	<g class="st0">
		<text transform="matrix(1 0 0 1 5.2559 210.8496)" class="st5 st6 st7">60</text>
	</g>
	<g class="st0">
		<text transform="matrix(1 0 0 1 5.2559 168.0996)" class="st5 st6 st7">70</text>
	</g>
	<g class="st0">
		<text transform="matrix(1 0 0 1 5.2559 125.3496)" class="st5 st6 st7">80</text>
	</g>
	<g class="st0">
		<text transform="matrix(1 0 0 1 5.2559 83.3496)" class="st5 st6 st7">90</text>
	</g>
	<g class="st0">
		<text transform="matrix(1 0 0 1 2.929688e-03 40.5996)" class="st5 st6 st7">100</text>
	</g>
</g>
<g>
	<text transform="matrix(1 0 0 1 618.8629 479.5007)" class="st8 st6 st7">5/25</text>
</g>
<g>
	<text transform="matrix(1 0 0 1 108.0001 479.5002)" class="st8 st6 st7">3/22</text>
</g>
</svg>
