<?xml version="1.0" encoding="utf-8"?>
<!-- Generator: Adobe Illustrator 23.0.1, SVG Export Plug-In . SVG Version: 6.00 Build 0)  -->
<svg version="1.1" id="Layer_1" xmlns="http://www.w3.org/2000/svg" xmlns:xlink="http://www.w3.org/1999/xlink" x="0px" y="0px"
	 viewBox="0 0 637.5 487.5" style="enable-background:new 0 0 637.5 487.5;" xml:space="preserve">
<style type="text/css">
	.st0{clip-path:url(#SVGID_2_);}
	.st1{clip-path:url(#SVGID_4_);fill:none;stroke:#E8E8E8;stroke-width:0.75;stroke-miterlimit:10;}
	.st2{clip-path:url(#SVGID_4_);fill:#C71E1D;}
	.st3{clip-path:url(#SVGID_4_);fill:#C71E1D;fill-opacity:0.6;stroke:#000000;stroke-width:0.5;stroke-miterlimit:10;}
	.st4{clip-path:url(#SVGID_4_);fill:none;stroke:#333333;stroke-width:0.75;stroke-miterlimit:10;}
	.st5{fill:#A6A6A6;}
	.st6{font-family:'Roboto-Regular';}
	.st7{font-size:9px;}
	.st8{fill:#333333;}
</style>
<g>
	<defs>
		<rect id="SVGID_1_" width="637.5" height="487.5"/>
	</defs>
	<clipPath id="SVGID_2_">
		<use xlink:href="#SVGID_1_"  style="overflow:visible;"/>
	</clipPath>
	<g class="st0">
		<defs>
			<rect id="SVGID_3_" width="637.5" height="483"/>
		</defs>
		<clipPath id="SVGID_4_">
			<use xlink:href="#SVGID_3_"  style="overflow:visible;"/>
		</clipPath>
		<line class="st1" x1="21" y1="34.5" x2="637.5" y2="34.5"/>
		<line class="st1" x1="21" y1="88.5" x2="637.5" y2="88.5"/>
		<line class="st1" x1="21" y1="141.8" x2="637.5" y2="141.8"/>
		<line class="st1" x1="21" y1="195.8" x2="637.5" y2="195.8"/>
		<line class="st1" x1="21" y1="249" x2="637.5" y2="249"/>
		<line class="st1" x1="21" y1="303" x2="637.5" y2="303"/>
		<line class="st1" x1="21" y1="356.2" x2="637.5" y2="356.2"/>
		<line class="st1" x1="21" y1="410.2" x2="637.5" y2="410.2"/>
		<path class="st2" d="M21,463.5h6.8H21z"/>
		<path class="st2" d="M27.8,463.5h6.8H27.8z"/>
		<path class="st2" d="M34.5,463.5h6.8H34.5z"/>
		<path class="st2" d="M41.3,463.5h6.8H41.3z"/>
		<path class="st2" d="M48.1,463.5h6.8H48.1z"/>
		<path class="st2" d="M54.9,463.5h6.8H54.9z"/>
		<path class="st2" d="M61.6,463.5h6.8H61.6z"/>
		<path class="st2" d="M68.4,463.5h6.8H68.4z"/>
		<path class="st2" d="M75.2,463.5H82H75.2z"/>
		<path class="st2" d="M82,463.5h6.8H82z"/>
		<path class="st2" d="M88.7,463.5h6.8H88.7z"/>
		<polygon class="st3" points="630.1,0 630.1,5.2 623.3,5.2 623.3,75 616.6,75 616.6,51 609.8,51 609.8,69.8 603,69.8 603,96.8 
			596.4,96.8 596.4,93.8 589.6,93.8 589.6,109.5 582.8,109.5 582.8,139.5 576.1,139.5 576.1,155.2 569.3,155.2 569.3,184.5 
			562.5,184.5 562.5,160.5 555.7,160.5 555.7,184.5 549,184.5 549,174 542.2,174 542.2,177 535.4,177 535.4,198 528.7,198 
			528.7,216.8 522,216.8 522,233.2 515.2,233.2 515.2,246.8 508.4,246.8 508.4,233.2 501.6,233.2 501.6,252 494.9,252 494.9,254.2 
			488.1,254.2 488.1,257.2 481.3,257.2 481.3,289.5 474.5,289.5 467.8,289.5 461,289.5 461,291.8 454.2,291.8 454.2,305.3 
			447.5,305.3 440.7,305.3 440.7,300.1 433.9,300.1 433.9,291.8 427.2,291.8 420.4,291.8 420.4,276.1 413.6,276.1 406.9,276.1 
			406.9,279.1 400.1,279.1 400.1,225.1 393.3,225.1 393.3,219.8 386.7,219.8 386.7,201.1 379.9,201.1 379.9,195.8 373.1,195.8 
			373.1,209.3 366.4,209.3 359.6,209.3 359.6,214.6 352.8,214.6 352.8,184.6 346,184.6 346,171.8 339.3,171.8 339.3,177.1 
			332.5,177.1 332.5,184.6 325.7,184.6 318.9,184.6 318.9,192.8 312.2,192.8 312.2,203.2 305.5,203.2 305.5,233.2 298.8,233.2 
			298.8,214.5 292,214.5 292,228 285.2,228 285.2,233.2 278.4,233.2 278.4,241.5 271.7,241.5 271.7,235.5 264.9,235.5 264.9,241.5 
			258.1,241.5 258.1,246.8 251.3,246.8 251.3,265.5 244.6,265.5 244.6,265.5 237.8,265.5 237.8,233.2 231,233.2 224.2,233.2 
			224.2,267.8 217.5,267.8 217.5,260.2 210.7,260.2 210.7,265.5 203.9,265.5 197.1,265.5 197.1,284.2 190.4,284.2 190.4,270.8 
			183.6,270.8 183.6,273 176.8,273 176.8,286.5 170,286.5 170,313.5 163.3,313.5 163.3,291.8 156.5,291.8 156.5,297.8 149.7,297.8 
			149.7,348 142.9,348 142.9,335.2 136.2,335.2 129.4,335.2 129.4,354 122.6,354 122.6,404.2 115.8,404.2 109.1,404.2 109.1,429 
			102.3,429 95.5,429 95.5,463.5 102.3,463.5 109.1,463.5 115.8,463.5 122.6,463.5 129.4,463.5 136.2,463.5 142.9,463.5 
			149.7,463.5 156.5,463.5 163.3,463.5 170,463.5 176.8,463.5 176.8,463.5 183.6,463.5 190.4,463.5 197.1,463.5 203.9,463.5 
			210.7,463.5 217.5,463.5 224.2,463.5 231,463.5 237.8,463.5 244.6,463.5 244.6,463.5 251.3,463.5 251.3,463.5 258.1,463.5 
			264.9,463.5 271.7,463.5 278.4,463.5 285.2,463.5 292,463.5 298.8,463.5 305.5,463.5 312.2,463.5 312.2,463.6 318.9,463.6 
			325.7,463.6 332.5,463.6 339.3,463.6 346,463.6 352.8,463.6 359.6,463.6 366.4,463.6 373.1,463.6 379.9,463.6 386.7,463.6 
			386.7,463.6 393.3,463.6 400.1,463.6 406.9,463.6 413.6,463.6 420.4,463.6 427.2,463.6 433.9,463.6 440.7,463.6 447.5,463.6 
			454.3,463.6 454.3,463.5 461,463.5 467.8,463.5 474.5,463.5 481.3,463.5 488.1,463.5 494.9,463.5 501.6,463.5 508.4,463.5 
			515.2,463.5 522,463.5 528.7,463.5 535.4,463.5 535.5,463.5 542.2,463.5 549,463.5 555.7,463.5 562.5,463.5 569.3,463.5 
			576.1,463.5 582.8,463.5 589.6,463.5 596.4,463.5 603,463.5 603.2,463.5 609.8,463.5 616.6,463.5 623.3,463.5 630.1,463.5 
			636.9,463.5 636.9,0 		"/>
		<line class="st4" x1="21" y1="463.5" x2="637.5" y2="463.5"/>
	</g>
	<g class="st0">
		<text transform="matrix(1 0 0 1 5.6426 413.3496)" class="st5 st6 st7">20</text>
	</g>
	<g class="st0">
		<text transform="matrix(1 0 0 1 5.6426 359.3496)" class="st5 st6 st7">40</text>
	</g>
	<g class="st0">
		<text transform="matrix(1 0 0 1 5.6426 306.0996)" class="st5 st6 st7">60</text>
	</g>
	<g class="st0">
		<text transform="matrix(1 0 0 1 5.6426 252.0996)" class="st5 st6 st7">80</text>
	</g>
	<g class="st0">
		<text transform="matrix(1 0 0 1 0.5889 198.8496)" class="st5 st6 st7">100</text>
	</g>
	<g class="st0">
		<text transform="matrix(1 0 0 1 0.5889 144.8496)" class="st5 st6 st7">120</text>
	</g>
	<g class="st0">
		<text transform="matrix(1 0 0 1 0.5889 91.5996)" class="st5 st6 st7">140</text>
	</g>
	<g class="st0">
		<text transform="matrix(1 0 0 1 0.5889 37.5996)" class="st5 st6 st7">160</text>
	</g>
</g>
<g>
	<text transform="matrix(1 0 0 1 622.5521 477.0231)" class="st8 st6 st7">6/9</text>
</g>
<g>
	<text transform="matrix(1 0 0 1 92.887 477.0229)" class="st8 st6 st7">3/22</text>
</g>
</svg>
