<?xml version="1.0" encoding="utf-8"?>
<!-- Generator: Adobe Illustrator 23.0.1, SVG Export Plug-In . SVG Version: 6.00 Build 0)  -->
<svg version="1.1" id="Layer_1" xmlns="http://www.w3.org/2000/svg" xmlns:xlink="http://www.w3.org/1999/xlink" x="0px" y="0px"
	 viewBox="0 0 637.5 487.5" style="enable-background:new 0 0 637.5 487.5;" xml:space="preserve">
<style type="text/css">
	.st0{clip-path:url(#SVGID_2_);}
	.st1{clip-path:url(#SVGID_4_);fill:none;stroke:#E8E8E8;stroke-width:0.75;stroke-miterlimit:10;}
	.st2{clip-path:url(#SVGID_4_);fill:#C71E1D;}
	.st3{clip-path:url(#SVGID_4_);fill:#C71E1D;fill-opacity:0.6;stroke:#000000;stroke-width:0.5;stroke-miterlimit:10;}
	.st4{clip-path:url(#SVGID_4_);fill:none;stroke:#333333;stroke-width:0.75;stroke-miterlimit:10;}
	.st5{fill:#A6A6A6;}
	.st6{font-family:'Roboto-Regular';}
	.st7{font-size:9px;}
	.st8{fill:#333333;}
</style>
<g>
	<defs>
		<rect id="SVGID_1_" width="637.5" height="487.5"/>
	</defs>
	<clipPath id="SVGID_2_">
		<use xlink:href="#SVGID_1_"  style="overflow:visible;"/>
	</clipPath>
	<g class="st0">
		<defs>
			<rect id="SVGID_3_" width="637.5" height="483"/>
		</defs>
		<clipPath id="SVGID_4_">
			<use xlink:href="#SVGID_3_"  style="overflow:visible;"/>
		</clipPath>
		<line class="st1" x1="21" y1="38.2" x2="637.5" y2="38.2"/>
		<line class="st1" x1="21" y1="81" x2="637.5" y2="81"/>
		<line class="st1" x1="21" y1="123" x2="637.5" y2="123"/>
		<line class="st1" x1="21" y1="165.8" x2="637.5" y2="165.8"/>
		<line class="st1" x1="21" y1="208.5" x2="637.5" y2="208.5"/>
		<line class="st1" x1="21" y1="251.2" x2="637.5" y2="251.2"/>
		<line class="st1" x1="21" y1="293.2" x2="637.5" y2="293.2"/>
		<line class="st1" x1="21" y1="336" x2="637.5" y2="336"/>
		<line class="st1" x1="21" y1="378.8" x2="637.5" y2="378.8"/>
		<line class="st1" x1="21" y1="420.8" x2="637.5" y2="420.8"/>
		<path class="st2" d="M21,463.5h8.3H21z"/>
		<path class="st2" d="M29.3,463.5h8.3H29.3z"/>
		<path class="st2" d="M37.7,463.5H46H37.7z"/>
		<path class="st2" d="M46,463.5h8.3H46z"/>
		<path class="st2" d="M54.3,463.5h8.3H54.3z"/>
		<path class="st2" d="M62.7,463.5H71H62.7z"/>
		<path class="st2" d="M71,463.5h8.3H71z"/>
		<path class="st2" d="M79.3,463.5h8.3H79.3z"/>
		<path class="st2" d="M87.6,463.5H96H87.6z"/>
		<path class="st2" d="M96,463.5h8.3H96z"/>
		<path class="st2" d="M104.3,463.5h8.3H104.3z"/>
		<polygon class="st3" points="628.7,97.5 628.7,119.2 620.4,119.2 620.4,97.5 612.1,97.5 612.1,127.5 603.8,127.5 603.8,132 
			595.5,132 595.5,135.8 587.2,135.8 587.2,186.8 578.9,186.8 570.6,186.8 570.6,186.8 562.3,186.8 562.3,191.2 554,191.2 
			554,212.2 545.7,212.2 537.4,212.2 537.4,204.1 529.1,204.1 529.1,191.3 520.8,191.3 512.5,191.3 512.5,165.8 504.1,165.8 
			495.8,165.8 495.8,170.2 487.5,170.2 487.5,84.8 479.1,84.8 479.1,76.5 470.8,76.5 470.8,46.5 462.5,46.5 462.5,38.2 454.1,38.2 
			454.1,59.2 445.8,59.2 437.5,59.2 437.5,68.2 429.2,68.2 429.2,21 420.8,21 420.8,0 412.5,0 412.5,8.2 404.2,8.2 404.2,21 
			395.8,21 387.5,21 387.5,33.8 379.2,33.8 379.2,51 370.8,51 370.8,97.5 362.5,97.5 362.5,68.2 354.2,68.2 354.2,89.2 345.8,89.2 
			345.8,97.5 337.5,97.5 337.5,110.2 329.2,110.2 329.2,102 320.9,102 320.9,110.2 312.5,110.2 312.5,119.2 304.2,119.2 
			304.2,148.5 295.9,148.5 287.5,148.5 287.5,97.5 279.2,97.5 270.9,97.5 270.9,153 262.5,153 262.5,140.2 254.2,140.2 254.2,148.5 
			245.9,148.5 237.5,148.5 237.5,178.5 229.2,178.5 229.2,157.5 220.9,157.5 220.9,161.2 212.6,161.2 212.6,183 204.2,183 
			204.2,225 195.9,225 195.9,191.2 187.6,191.2 187.6,199.5 179.3,199.5 179.3,280.5 170.9,280.5 170.9,259.5 162.6,259.5 
			154.3,259.5 154.3,289.5 145.9,289.5 145.9,369.8 137.6,369.8 129.3,369.8 129.3,408 121,408 112.6,408 112.6,463.5 121,463.5 
			129.3,463.5 137.6,463.5 145.9,463.5 146,463.5 154.3,463.5 162.6,463.5 170.9,463.5 179.3,463.5 187.6,463.5 195.9,463.5 
			204.2,463.5 204.3,463.5 212.6,463.5 220.9,463.5 220.9,463.5 229.2,463.5 237.5,463.5 245.9,463.5 254.2,463.5 262.5,463.5 
			270.9,463.5 279.2,463.5 287.5,463.5 295.9,463.5 304.2,463.5 312.5,463.5 320.9,463.5 329.2,463.5 337.5,463.5 345.8,463.5 
			354.2,463.5 362.5,463.5 370.8,463.5 379.2,463.5 387.5,463.5 395.8,463.5 404.2,463.5 412.5,463.5 420.8,463.5 429.2,463.5 
			429.2,463.5 437.5,463.5 445.8,463.5 454.1,463.5 462.5,463.5 470.8,463.5 479.1,463.5 487.5,463.5 487.5,463.5 495.8,463.5 
			504.1,463.5 512.4,463.5 512.4,463.6 520.8,463.6 529.1,463.6 537.4,463.6 537.4,463.5 545.7,463.5 554,463.5 554,463.5 
			562.3,463.5 570.6,463.5 570.6,463.5 578.9,463.5 587.2,463.5 595.5,463.5 595.6,463.5 603.8,463.5 612.1,463.5 612.1,463.5 
			620.4,463.5 628.7,463.5 628.7,463.5 637,463.5 637,97.5 		"/>
		<line class="st4" x1="21" y1="463.5" x2="637.5" y2="463.5"/>
	</g>
	<g class="st0">
		<text transform="matrix(1 0 0 1 5.2559 423.0996)" class="st5 st6 st7">10</text>
	</g>
	<g class="st0">
		<text transform="matrix(1 0 0 1 5.2559 381.0996)" class="st5 st6 st7">20</text>
	</g>
	<g class="st0">
		<text transform="matrix(1 0 0 1 5.2559 338.3496)" class="st5 st6 st7">30</text>
	</g>
	<g class="st0">
		<text transform="matrix(1 0 0 1 5.2559 295.5996)" class="st5 st6 st7">40</text>
	</g>
	<g class="st0">
		<text transform="matrix(1 0 0 1 5.2559 253.5996)" class="st5 st6 st7">50</text>
	</g>
	<g class="st0">
		<text transform="matrix(1 0 0 1 5.2559 210.8496)" class="st5 st6 st7">60</text>
	</g>
	<g class="st0">
		<text transform="matrix(1 0 0 1 5.2559 168.0996)" class="st5 st6 st7">70</text>
	</g>
	<g class="st0">
		<text transform="matrix(1 0 0 1 5.2559 125.3496)" class="st5 st6 st7">80</text>
	</g>
	<g class="st0">
		<text transform="matrix(1 0 0 1 5.2559 83.3496)" class="st5 st6 st7">90</text>
	</g>
	<g class="st0">
		<text transform="matrix(1 0 0 1 2.929688e-03 40.5996)" class="st5 st6 st7">100</text>
	</g>
</g>
<g>
	<text transform="matrix(1 0 0 1 617.9659 477.6134)" class="st8 st6 st7">5/23</text>
</g>
<g>
	<text transform="matrix(1 0 0 1 110.3379 477.6134)" class="st8 st6 st7">3/22</text>
</g>
</svg>
