<?xml version="1.0" encoding="utf-8"?>
<!-- Generator: Adobe Illustrator 23.0.1, SVG Export Plug-In . SVG Version: 6.00 Build 0)  -->
<svg version="1.1" id="Layer_1" xmlns="http://www.w3.org/2000/svg" xmlns:xlink="http://www.w3.org/1999/xlink" x="0px" y="0px"
	 viewBox="0 0 637.5 487.5" style="enable-background:new 0 0 637.5 487.5;" xml:space="preserve">
<style type="text/css">
	.st0{clip-path:url(#SVGID_2_);enable-background:new    ;}
	.st1{clip-path:url(#SVGID_4_);fill:none;stroke:#E8E8E8;stroke-width:0.75;stroke-miterlimit:10;}
	.st2{clip-path:url(#SVGID_4_);fill:#C71E1D;}
	.st3{clip-path:url(#SVGID_4_);fill:#C71E1D;fill-opacity:0.6;stroke:#000000;stroke-width:0.5;stroke-miterlimit:10;}
	.st4{clip-path:url(#SVGID_4_);fill:none;stroke:#333333;stroke-width:0.75;stroke-miterlimit:10;}
	.st5{clip-path:url(#SVGID_4_);}
	.st6{fill:#A6A6A6;}
	.st7{font-family:'Roboto-Regular';}
	.st8{font-size:9px;}
	.st9{fill:#333333;}
</style>
<g>
	<defs>
		<rect id="SVGID_1_" width="637.5" height="487.5"/>
	</defs>
	<clipPath id="SVGID_2_">
		<use xlink:href="#SVGID_1_"  style="overflow:visible;"/>
	</clipPath>
	<g class="st0">
		<g>
			<defs>
				<rect id="SVGID_3_" width="637.5" height="487.5"/>
			</defs>
			<clipPath id="SVGID_4_">
				<use xlink:href="#SVGID_3_"  style="overflow:visible;"/>
			</clipPath>
			<line class="st1" x1="21" y1="38.2" x2="637.5" y2="38.2"/>
			<line class="st1" x1="21" y1="81" x2="637.5" y2="81"/>
			<line class="st1" x1="21" y1="123" x2="637.5" y2="123"/>
			<line class="st1" x1="21" y1="165.8" x2="637.5" y2="165.8"/>
			<line class="st1" x1="21" y1="208.5" x2="637.5" y2="208.5"/>
			<line class="st1" x1="21" y1="251.2" x2="637.5" y2="251.2"/>
			<line class="st1" x1="21" y1="293.2" x2="637.5" y2="293.2"/>
			<line class="st1" x1="21" y1="336" x2="637.5" y2="336"/>
			<line class="st1" x1="21" y1="378.8" x2="637.5" y2="378.8"/>
			<line class="st1" x1="21" y1="420.8" x2="637.5" y2="420.8"/>
			<path class="st2" d="M21,463.5h9.5H21z"/>
			<path class="st2" d="M30.5,463.5H40H30.5z"/>
			<path class="st2" d="M40,463.5h9.5H40z"/>
			<path class="st2" d="M49.5,463.5h9.5H49.5z"/>
			<path class="st2" d="M58.9,463.5h9.5H58.9z"/>
			<path class="st2" d="M68.4,463.5h9.5H68.4z"/>
			<path class="st2" d="M77.9,463.5h9.5H77.9z"/>
			<path class="st2" d="M87.4,463.5h9.5H87.4z"/>
			<path class="st2" d="M96.9,463.5h9.5H96.9z"/>
			<path class="st2" d="M106.4,463.5h9.5H106.4z"/>
			<path class="st2" d="M115.8,463.5h9.5H115.8z"/>
			<polygon class="st3" points="627.9,191.2 627.9,212.2 618.4,212.2 608.9,212.2 608.9,204 599.5,204 599.5,191.2 590,191.2 
				580.5,191.2 580.5,165.8 571.1,165.8 571,165.8 561.6,165.8 561.6,170.2 552.1,170.2 552.1,84.8 542.7,84.8 542.7,76.5 
				533.2,76.5 533.2,46.5 523.7,46.5 523.7,38.2 514.2,38.2 514.2,59.2 504.7,59.2 504.7,59.2 495.2,59.2 495.2,68.2 485.7,68.2 
				485.7,21 476.3,21 476.3,0 466.8,0 466.8,8.2 457.3,8.2 457.3,21 447.8,21 447.8,21 438.3,21 438.3,33.8 428.8,33.8 428.8,51 
				419.4,51 419.4,97.5 409.9,97.5 409.9,68.2 400.4,68.2 400.4,89.2 390.9,89.2 390.9,97.5 381.4,97.5 381.4,110.2 371.9,110.2 
				371.9,102 362.4,102 362.4,110.2 353,110.2 353,119.2 343.5,119.2 343.5,148.5 334,148.5 334,148.5 324.5,148.5 324.5,97.5 
				315,97.5 315,97.5 305.5,97.5 305.5,153 296.1,153 296.1,140.2 286.6,140.2 286.6,148.5 277.1,148.5 267.6,148.5 267.6,178.5 
				258.1,178.5 258.1,157.5 248.6,157.5 248.6,161.2 239.1,161.2 239.1,183 229.7,183 229.7,225 220.2,225 220.2,191.2 210.7,191.2 
				210.7,199.5 201.2,199.5 201.2,280.5 191.7,280.5 191.7,259.5 182.2,259.5 182.2,259.5 172.8,259.5 172.8,289.5 163.3,289.5 
				163.3,369.8 153.8,369.8 153.8,369.8 144.3,369.8 144.3,408 134.8,408 134.8,408 125.3,408 125.3,463.5 134.8,463.5 134.8,463.5 
				144.3,463.5 144.3,463.5 153.8,463.5 153.8,463.5 163.3,463.5 163.3,463.5 172.8,463.5 172.8,463.5 182.2,463.5 182.2,463.5 
				191.7,463.5 191.7,463.5 201.2,463.5 201.2,463.5 210.7,463.5 220.2,463.5 229.7,463.5 239.1,463.5 248.6,463.5 258.1,463.5 
				267.6,463.5 277.1,463.5 286.6,463.5 296.1,463.5 296.1,463.5 305.5,463.5 305.5,463.5 315,463.5 315,463.5 324.5,463.5 
				324.5,463.5 334,463.5 334,463.5 343.5,463.5 343.5,463.5 353,463.5 353,463.5 362.4,463.5 362.4,463.5 371.9,463.5 371.9,463.5 
				381.4,463.5 390.9,463.5 400.4,463.5 409.9,463.5 419.4,463.5 428.8,463.5 428.8,463.5 438.3,463.5 447.8,463.5 447.8,463.5 
				457.3,463.5 466.8,463.5 466.8,463.5 476.3,463.5 485.7,463.5 485.7,463.5 495.2,463.5 495.2,463.5 504.7,463.5 504.7,463.5 
				514.2,463.5 514.2,463.5 523.7,463.5 523.7,463.5 533.2,463.5 533.2,463.5 542.7,463.5 542.7,463.5 552.1,463.5 552.1,463.5 
				561.6,463.5 561.6,463.5 571,463.5 571.1,463.5 580.5,463.5 580.5,463.5 590,463.5 599.5,463.5 599.5,463.5 608.9,463.5 
				608.9,463.5 618.4,463.5 627.9,463.5 637.4,463.5 637.4,191.2 			"/>
			<line class="st4" x1="21" y1="463.5" x2="637.5" y2="463.5"/>
			<g class="st5">
				<text transform="matrix(1 0 0 1 5.6426 423.0996)" class="st6 st7 st8">10</text>
			</g>
			<g class="st5">
				<text transform="matrix(1 0 0 1 5.6426 381.0996)" class="st6 st7 st8">20</text>
			</g>
			<g class="st5">
				<text transform="matrix(1 0 0 1 5.6426 338.3496)" class="st6 st7 st8">30</text>
			</g>
			<g class="st5">
				<text transform="matrix(1 0 0 1 5.6426 295.5996)" class="st6 st7 st8">40</text>
			</g>
			<g class="st5">
				<text transform="matrix(1 0 0 1 5.6426 253.5996)" class="st6 st7 st8">50</text>
			</g>
			<g class="st5">
				<text transform="matrix(1 0 0 1 5.6426 210.8496)" class="st6 st7 st8">60</text>
			</g>
			<g class="st5">
				<text transform="matrix(1 0 0 1 5.6426 168.0996)" class="st6 st7 st8">70</text>
			</g>
			<g class="st5">
				<text transform="matrix(1 0 0 1 5.6426 125.3496)" class="st6 st7 st8">80</text>
			</g>
			<g class="st5">
				<text transform="matrix(1 0 0 1 5.6426 83.3496)" class="st6 st7 st8">90</text>
			</g>
			<g class="st5">
				<text transform="matrix(1 0 0 1 0.5889 40.5996)" class="st6 st7 st8">100</text>
			</g>
		</g>
	</g>
</g>
<g>
	<text transform="matrix(1 0 0 1 122.6448 478.0022)" class="st9 st7 st8">3/22</text>
</g>
<g>
	<text transform="matrix(1 0 0 1 618.0979 478.0017)" class="st9 st7 st8">5/14</text>
</g>
</svg>
