<?xml version="1.0" encoding="utf-8"?>
<!-- Generator: Adobe Illustrator 23.0.1, SVG Export Plug-In . SVG Version: 6.00 Build 0)  -->
<svg version="1.1" id="Layer_1" xmlns="http://www.w3.org/2000/svg" xmlns:xlink="http://www.w3.org/1999/xlink" x="0px" y="0px"
	 viewBox="0 0 637.5 487.5" style="enable-background:new 0 0 637.5 487.5;" xml:space="preserve">
<style type="text/css">
	.st0{clip-path:url(#SVGID_2_);}
	.st1{clip-path:url(#SVGID_4_);fill:none;stroke:#E8E8E8;stroke-width:0.75;stroke-miterlimit:10;}
	.st2{clip-path:url(#SVGID_4_);fill:#C71E1D;}
	.st3{clip-path:url(#SVGID_4_);fill:#C71E1D;fill-opacity:0.6;stroke:#000000;stroke-width:0.5;stroke-miterlimit:10;}
	.st4{clip-path:url(#SVGID_4_);fill:none;stroke:#333333;stroke-width:0.75;stroke-miterlimit:10;}
	.st5{fill:#A6A6A6;}
	.st6{font-family:'Roboto-Regular';}
	.st7{font-size:9px;}
	.st8{fill:#333333;}
</style>
<g>
	<defs>
		<rect id="SVGID_1_" width="637.5" height="487.5"/>
	</defs>
	<clipPath id="SVGID_2_">
		<use xlink:href="#SVGID_1_"  style="overflow:visible;"/>
	</clipPath>
	<g class="st0">
		<defs>
			<rect id="SVGID_3_" width="637.5" height="483"/>
		</defs>
		<clipPath id="SVGID_4_">
			<use xlink:href="#SVGID_3_"  style="overflow:visible;"/>
		</clipPath>
		<line class="st1" x1="21" y1="60.8" x2="637.5" y2="60.8"/>
		<line class="st1" x1="21" y1="141" x2="637.5" y2="141"/>
		<line class="st1" x1="21" y1="222" x2="637.5" y2="222"/>
		<line class="st1" x1="21" y1="302.2" x2="637.5" y2="302.2"/>
		<line class="st1" x1="21" y1="383.2" x2="637.5" y2="383.2"/>
		<path class="st2" d="M21,463.5h7.5H21z"/>
		<path class="st2" d="M28.5,463.5H36H28.5z"/>
		<path class="st2" d="M36,463.5h7.5H36z"/>
		<path class="st2" d="M43.6,463.5h7.5H43.6z"/>
		<path class="st2" d="M51.1,463.5h7.5H51.1z"/>
		<path class="st2" d="M58.6,463.5h7.5H58.6z"/>
		<path class="st2" d="M66.1,463.5h7.5H66.1z"/>
		<path class="st2" d="M73.6,463.5h7.5H73.6z"/>
		<path class="st2" d="M81.1,463.5h7.5H81.1z"/>
		<path class="st2" d="M88.7,463.5h7.5H88.7z"/>
		<path class="st2" d="M96.2,463.5h7.5H96.2z"/>
		<polygon class="st3" points="630,0 630,44.2 622.5,44.2 622.5,8.2 614.9,8.2 614.9,44.2 607.4,44.2 607.4,28.5 599.9,28.5 
			599.9,32.2 592.4,32.2 592.4,64.5 584.9,64.5 584.9,93 577.4,93 577.4,117 569.8,117 569.8,137.2 562.3,137.2 562.3,117 
			554.8,117 554.8,144.8 547.3,144.8 547.3,149.2 539.8,149.2 539.8,153 532.2,153 532.2,201.8 524.7,201.8 524.7,201.8 
			517.2,201.8 509.7,201.8 509.7,205.5 502.2,205.5 502.2,225.8 494.7,225.8 487.1,225.8 487.1,217.5 479.6,217.5 479.6,205.5 
			472.1,205.5 464.6,205.5 464.6,181.5 457.1,181.5 457.1,181.5 449.5,181.5 449.5,185.2 442,185.2 442,105 434.5,105 434.5,96.8 
			427,96.8 427,68.2 419.5,68.2 419.5,60.8 412,60.8 412,80.2 404.4,80.2 404.4,80.2 396.9,80.2 396.9,88.5 389.4,88.5 389.4,44.2 
			381.9,44.2 381.9,24 374.4,24 374.4,32.2 366.8,32.2 366.8,44.2 359.3,44.2 351.8,44.2 351.8,56.2 344.3,56.2 344.3,72.8 
			336.8,72.8 336.8,117 329.3,117 329.3,88.5 321.7,88.5 321.7,108.8 314.2,108.8 314.2,117 306.7,117 306.7,129 299.2,129 
			299.2,120.8 291.7,120.8 291.7,129 284.1,129 284.1,137.2 276.6,137.2 276.6,165 269.1,165 261.6,165 261.6,117 254.1,117 
			246.5,117 246.5,169.5 239,169.5 239,157.5 231.5,157.5 231.5,165 224,165 216.5,165 216.5,193.5 209,193.5 209,173.2 
			201.4,173.2 201.4,177 193.9,177 193.9,197.2 186.4,197.2 186.4,237.8 178.9,237.8 178.9,205.5 171.4,205.5 171.4,213.8 
			163.8,213.8 163.8,290.2 156.3,290.2 156.3,270 148.8,270 141.3,270 141.3,298.5 133.8,298.5 133.8,375 126.3,375 118.7,375 
			118.7,411 111.2,411 103.7,411 103.7,463.5 111.2,463.5 118.7,463.5 126.3,463.5 133.8,463.5 141.3,463.5 148.8,463.5 
			156.3,463.5 163.8,463.5 171.4,463.5 178.9,463.5 186.4,463.5 193.9,463.5 201.4,463.5 209,463.5 216.5,463.5 224,463.5 
			231.5,463.5 239,463.5 246.5,463.5 254.1,463.5 261.6,463.5 269.1,463.5 276.6,463.5 276.6,463.5 284.1,463.5 291.7,463.5 
			299.2,463.5 299.2,463.5 306.7,463.5 314.2,463.5 321.7,463.5 329.2,463.5 329.3,463.5 336.8,463.5 344.3,463.5 351.8,463.5 
			351.8,463.5 359.3,463.5 366.8,463.5 374.4,463.5 374.4,463.5 381.9,463.5 389.4,463.5 396.9,463.5 404.4,463.5 404.4,463.5 
			412,463.5 419.5,463.5 427,463.5 427,463.5 434.5,463.5 442,463.5 449.5,463.5 457.1,463.5 457.1,463.5 464.6,463.5 472.1,463.5 
			479.6,463.5 479.6,463.5 487.1,463.5 494.7,463.5 502.2,463.5 509.7,463.5 509.7,463.5 517.2,463.5 524.7,463.5 524.7,463.5 
			532.2,463.5 539.8,463.5 547.3,463.5 554.8,463.5 554.8,463.5 562.3,463.5 569.8,463.5 577.4,463.5 577.4,463.5 584.9,463.5 
			592.4,463.5 599.9,463.5 599.9,463.5 607.4,463.5 614.9,463.5 622.5,463.5 630,463.5 630,463.5 637.5,463.5 637.5,0 		"/>
		<line class="st4" x1="21" y1="463.5" x2="637.5" y2="463.5"/>
	</g>
	<g class="st0">
		<text transform="matrix(1 0 0 1 5.2559 385.5996)" class="st5 st6 st7">20</text>
	</g>
	<g class="st0">
		<text transform="matrix(1 0 0 1 5.2559 304.5996)" class="st5 st6 st7">40</text>
	</g>
	<g class="st0">
		<text transform="matrix(1 0 0 1 5.2559 224.3496)" class="st5 st6 st7">60</text>
	</g>
	<g class="st0">
		<text transform="matrix(1 0 0 1 5.2559 143.3496)" class="st5 st6 st7">80</text>
	</g>
	<g class="st0">
		<text transform="matrix(1 0 0 1 2.929688e-03 63.0996)" class="st5 st6 st7">100</text>
	</g>
</g>
<g>
	<text transform="matrix(1 0 0 1 618.9255 477.6191)" class="st8 st6 st7">5/31</text>
</g>
<g>
	<text transform="matrix(1 0 0 1 98.6592 477.6188)" class="st8 st6 st7">3/22</text>
</g>
</svg>
