<?xml version="1.0" encoding="utf-8"?>
<!-- Generator: Adobe Illustrator 23.0.1, SVG Export Plug-In . SVG Version: 6.00 Build 0)  -->
<svg version="1.1" id="Layer_1" xmlns="http://www.w3.org/2000/svg" xmlns:xlink="http://www.w3.org/1999/xlink" x="0px" y="0px"
	 viewBox="0 0 637.5 487.5" style="enable-background:new 0 0 637.5 487.5;" xml:space="preserve">
<style type="text/css">
	.st0{clip-path:url(#SVGID_2_);enable-background:new    ;}
	.st1{clip-path:url(#SVGID_4_);fill:none;stroke:#E8E8E8;stroke-width:0.75;stroke-miterlimit:10;}
	.st2{clip-path:url(#SVGID_4_);fill:#C71E1D;}
	.st3{clip-path:url(#SVGID_4_);fill:#C71E1D;fill-opacity:0.6;stroke:#000000;stroke-width:0.5;stroke-miterlimit:10;}
	.st4{clip-path:url(#SVGID_4_);fill:none;stroke:#333333;stroke-width:0.75;stroke-miterlimit:10;}
	.st5{clip-path:url(#SVGID_4_);}
	.st6{fill:#A6A6A6;}
	.st7{font-family:'Roboto-Regular';}
	.st8{font-size:9px;}
	.st9{fill:#333333;}
</style>
<g>
	<defs>
		<rect id="SVGID_1_" width="637.5" height="487.5"/>
	</defs>
	<clipPath id="SVGID_2_">
		<use xlink:href="#SVGID_1_"  style="overflow:visible;"/>
	</clipPath>
	<g class="st0">
		<g>
			<defs>
				<rect id="SVGID_3_" width="637.5" height="487.5"/>
			</defs>
			<clipPath id="SVGID_4_">
				<use xlink:href="#SVGID_3_"  style="overflow:visible;"/>
			</clipPath>
			<line class="st1" x1="21" y1="38.2" x2="637.5" y2="38.2"/>
			<line class="st1" x1="21" y1="81" x2="637.5" y2="81"/>
			<line class="st1" x1="21" y1="123" x2="637.5" y2="123"/>
			<line class="st1" x1="21" y1="165.8" x2="637.5" y2="165.8"/>
			<line class="st1" x1="21" y1="208.5" x2="637.5" y2="208.5"/>
			<line class="st1" x1="21" y1="251.2" x2="637.5" y2="251.2"/>
			<line class="st1" x1="21" y1="293.2" x2="637.5" y2="293.2"/>
			<line class="st1" x1="21" y1="336" x2="637.5" y2="336"/>
			<line class="st1" x1="21" y1="378.8" x2="637.5" y2="378.8"/>
			<line class="st1" x1="21" y1="420.8" x2="637.5" y2="420.8"/>
			<path class="st2" d="M21,463.5h9.8H21z"/>
			<path class="st2" d="M30.8,463.5h9.8H30.8z"/>
			<path class="st2" d="M40.6,463.5h9.8H40.6z"/>
			<path class="st2" d="M50.4,463.5h9.8H50.4z"/>
			<path class="st2" d="M60.1,463.5h9.8H60.1z"/>
			<path class="st2" d="M69.9,463.5h9.8H69.9z"/>
			<path class="st2" d="M79.7,463.5h9.8H79.7z"/>
			<path class="st2" d="M89.5,463.5h9.8H89.5z"/>
			<path class="st2" d="M99.3,463.5h9.8H99.3z"/>
			<path class="st2" d="M109.1,463.5h9.8H109.1z"/>
			<path class="st2" d="M118.9,463.5h9.8H118.9z"/>
			<polygon class="st3" points="626.9,212.2 626.9,204 617.3,204 617.3,191.2 607.5,191.2 597.7,191.2 597.7,165.8 588,165.8 
				578.2,165.8 578.2,170.2 568.4,170.2 568.4,84.8 558.7,84.8 558.7,76.5 548.9,76.5 548.9,46.5 539.2,46.5 539.2,38.3 529.4,38.3 
				529.4,59.3 519.6,59.3 519.6,59.3 509.8,59.3 509.8,68.2 500.1,68.2 500.1,21 490.3,21 490.3,0 480.5,0 480.5,8.2 470.7,8.2 
				470.7,21 461.1,21 461,21 451.3,21 451.3,33.8 441.5,33.8 441.5,51 431.7,51 431.7,97.5 421.9,97.5 421.9,68.2 412.1,68.2 
				412.1,89.2 402.3,89.2 402.3,97.5 392.6,97.5 392.6,110.2 382.9,110.2 382.9,102 373.1,102 373.1,110.2 363.3,110.2 363.3,119.2 
				353.6,119.2 353.6,148.5 343.8,148.5 334,148.5 334,97.5 324.2,97.5 324.2,97.5 314.5,97.5 314.5,153 304.7,153 304.7,140.2 
				294.9,140.2 294.9,148.5 285.1,148.5 275.3,148.5 275.3,178.5 265.5,178.5 265.5,157.5 255.7,157.5 255.7,161.2 246,161.2 
				246,183 236.2,183 236.2,225 226.4,225 226.4,191.2 216.6,191.2 216.6,199.5 206.9,199.5 206.9,280.5 197.1,280.5 197.1,259.5 
				187.4,259.5 187.3,259.5 177.6,259.5 177.6,289.5 167.8,289.5 167.8,369.8 158,369.8 148.2,369.8 148.2,408 138.4,408 128.6,408 
				128.6,463.5 138.4,463.5 148.2,463.5 158,463.5 167.8,463.5 177.6,463.5 187.3,463.5 187.4,463.5 197.1,463.5 206.9,463.5 
				216.6,463.5 226.4,463.5 236.2,463.5 246,463.5 255.7,463.5 255.8,463.5 265.5,463.5 275.3,463.5 285.1,463.5 294.9,463.5 
				304.7,463.5 314.5,463.5 324.2,463.5 324.2,463.5 334,463.5 343.8,463.5 353.6,463.5 363.3,463.5 373.1,463.5 373.1,463.5 
				382.9,463.5 382.9,463.5 392.6,463.5 392.7,463.5 402.3,463.5 412.1,463.5 421.9,463.5 431.7,463.5 441.5,463.5 451.3,463.5 
				461,463.5 461.1,463.5 470.7,463.5 480.5,463.5 490.3,463.5 500.1,463.5 509.8,463.5 509.8,463.5 519.6,463.5 519.6,463.5 
				529.4,463.5 529.4,463.5 539.2,463.5 539.2,463.5 548.9,463.5 548.9,463.5 558.6,463.5 558.7,463.5 568.4,463.5 578.2,463.5 
				588,463.5 597.7,463.5 607.5,463.5 617.2,463.5 617.3,463.5 626.9,463.5 636.7,463.5 636.7,212.2 			"/>
			<line class="st4" x1="21" y1="463.5" x2="637.5" y2="463.5"/>
			<g class="st5">
				<text transform="matrix(1 0 0 1 5.6426 423.0996)" class="st6 st7 st8">10</text>
			</g>
			<g class="st5">
				<text transform="matrix(1 0 0 1 5.6426 381.0996)" class="st6 st7 st8">20</text>
			</g>
			<g class="st5">
				<text transform="matrix(1 0 0 1 5.6426 338.3496)" class="st6 st7 st8">30</text>
			</g>
			<g class="st5">
				<text transform="matrix(1 0 0 1 5.6426 295.5996)" class="st6 st7 st8">40</text>
			</g>
			<g class="st5">
				<text transform="matrix(1 0 0 1 5.6426 253.5996)" class="st6 st7 st8">50</text>
			</g>
			<g class="st5">
				<text transform="matrix(1 0 0 1 5.6426 210.8496)" class="st6 st7 st8">60</text>
			</g>
			<g class="st5">
				<text transform="matrix(1 0 0 1 5.6426 168.0996)" class="st6 st7 st8">70</text>
			</g>
			<g class="st5">
				<text transform="matrix(1 0 0 1 5.6426 125.3496)" class="st6 st7 st8">80</text>
			</g>
			<g class="st5">
				<text transform="matrix(1 0 0 1 5.6426 83.3496)" class="st6 st7 st8">90</text>
			</g>
			<g class="st5">
				<text transform="matrix(1 0 0 1 0.5889 40.5996)" class="st6 st7 st8">100</text>
			</g>
		</g>
	</g>
</g>
<g>
	<text transform="matrix(1 0 0 1 618.4598 478.3625)" class="st9 st7 st8">5/12</text>
</g>
<g>
	<text transform="matrix(1 0 0 1 124.3867 478.3627)" class="st9 st7 st8">3/22</text>
</g>
</svg>
