<?xml version="1.0" encoding="utf-8"?>
<!-- Generator: Adobe Illustrator 23.0.1, SVG Export Plug-In . SVG Version: 6.00 Build 0)  -->
<svg version="1.1" id="Layer_1" xmlns="http://www.w3.org/2000/svg" xmlns:xlink="http://www.w3.org/1999/xlink" x="0px" y="0px"
	 viewBox="0 0 637.5 487.5" style="enable-background:new 0 0 637.5 487.5;" xml:space="preserve">
<style type="text/css">
	.st0{clip-path:url(#SVGID_2_);}
	.st1{clip-path:url(#SVGID_4_);fill:none;stroke:#E8E8E8;stroke-width:0.75;stroke-miterlimit:10;}
	.st2{clip-path:url(#SVGID_4_);fill:#C71E1D;}
	.st3{clip-path:url(#SVGID_4_);fill:#C71E1D;fill-opacity:0.6;stroke:#000000;stroke-width:0.5;stroke-miterlimit:10;}
	.st4{clip-path:url(#SVGID_4_);fill:none;stroke:#333333;stroke-width:0.75;stroke-miterlimit:10;}
	.st5{fill:#A6A6A6;}
	.st6{font-family:'Roboto-Regular';}
	.st7{font-size:9px;}
	.st8{fill:#333333;}
</style>
<g>
	<defs>
		<rect id="SVGID_1_" width="637.5" height="487.5"/>
	</defs>
	<clipPath id="SVGID_2_">
		<use xlink:href="#SVGID_1_"  style="overflow:visible;"/>
	</clipPath>
	<g class="st0">
		<defs>
			<rect id="SVGID_3_" width="637.5" height="483"/>
		</defs>
		<clipPath id="SVGID_4_">
			<use xlink:href="#SVGID_3_"  style="overflow:visible;"/>
		</clipPath>
		<line class="st1" x1="21" y1="17.2" x2="637.5" y2="17.2"/>
		<line class="st1" x1="21" y1="66.8" x2="637.5" y2="66.8"/>
		<line class="st1" x1="21" y1="116.2" x2="637.5" y2="116.2"/>
		<line class="st1" x1="21" y1="165.8" x2="637.5" y2="165.8"/>
		<line class="st1" x1="21" y1="216" x2="637.5" y2="216"/>
		<line class="st1" x1="21" y1="265.5" x2="637.5" y2="265.5"/>
		<line class="st1" x1="21" y1="315" x2="637.5" y2="315"/>
		<line class="st1" x1="21" y1="364.5" x2="637.5" y2="364.5"/>
		<line class="st1" x1="21" y1="414" x2="637.5" y2="414"/>
		<path class="st2" d="M21,463.5h6.6H21z"/>
		<path class="st2" d="M27.6,463.5h6.6H27.6z"/>
		<path class="st2" d="M34.3,463.5h6.6H34.3z"/>
		<path class="st2" d="M40.9,463.5h6.6H40.9z"/>
		<path class="st2" d="M47.5,463.5h6.6H47.5z"/>
		<path class="st2" d="M54.1,463.5h6.6H54.1z"/>
		<path class="st2" d="M60.8,463.5h6.6H60.8z"/>
		<path class="st2" d="M67.4,463.5H74H67.4z"/>
		<path class="st2" d="M74,463.5h6.6H74z"/>
		<path class="st2" d="M80.7,463.5h6.6H80.7z"/>
		<path class="st2" d="M87.3,463.5h6.6H87.3z"/>
		<polygon class="st3" points="630.5,0 630.5,15 623.9,15 623.9,34.5 617.3,34.5 617.3,39.8 610.6,39.8 610.6,104.2 604,104.2 
			604,81.8 597.4,81.8 597.4,99 590.8,99 590.8,123.8 584.3,123.8 584.3,121.5 577.6,121.5 577.6,136.5 571,136.5 571,163.5 
			564.4,163.5 564.4,178.5 557.7,178.5 557.7,205.5 551.1,205.5 551.1,183.8 544.5,183.8 544.5,205.5 537.9,205.5 537.9,195.8 
			531.2,195.8 531.2,198 524.6,198 524.6,218.2 518,218.2 518,235.5 511.3,235.5 511.3,250.5 504.7,250.5 504.7,262.5 498.1,262.5 
			498.1,250.5 491.5,250.5 491.5,267.8 484.8,267.8 484.8,270 478.2,270 478.2,273 471.6,273 471.6,302.2 464.9,302.2 458.4,302.2 
			458.3,302.2 451.7,302.2 451.7,304.5 445.1,304.5 445.1,317.2 438.5,317.2 431.9,317.2 431.9,312 425.2,312 425.2,304.5 
			418.6,304.5 412,304.5 412,290.2 405.3,290.2 398.7,290.2 398.7,292.5 392.1,292.5 392.1,243 385.4,243 385.4,237.8 378.8,237.8 
			378.8,220.5 372.2,220.5 372.2,216 365.6,216 365.6,228 359,228 358.9,228 352.4,228 352.4,233.2 345.7,233.2 345.7,205.5 
			339.1,205.5 339.1,193.5 332.5,193.5 332.5,198 325.8,198 325.8,205.5 319.2,205.5 312.6,205.5 312.6,213 306,213 306,222.8 
			299.3,222.8 299.3,250.5 292.7,250.5 292.7,233.2 286.1,233.2 286.1,245.2 279.4,245.2 279.4,250.5 272.8,250.5 272.8,258 
			266.2,258 266.2,252.8 259.6,252.8 259.6,258 252.9,258 252.9,262.5 246.3,262.5 246.3,279.8 239.7,279.8 233,279.8 233,250.5 
			226.4,250.5 219.8,250.5 219.8,282.8 213.1,282.8 213.1,275.2 206.5,275.2 206.5,279.8 199.9,279.8 193.3,279.8 193.3,297.8 
			186.6,297.8 186.6,285 180,285 180,287.2 173.4,287.2 173.4,300 166.7,300 166.7,324.8 160.2,324.8 160.2,304.5 153.6,304.5 
			153.6,309.8 147,309.8 147,357 140.3,357 140.3,344.2 133.7,344.2 127.1,344.2 127.1,362.2 120.4,362.2 120.4,408.8 113.8,408.8 
			107.2,408.8 107.2,431.2 100.5,431.2 93.9,431.2 93.9,463.5 100.5,463.5 107.2,463.5 113.8,463.5 120.4,463.5 127.1,463.5 
			133.7,463.5 140.3,463.5 147,463.5 153.6,463.5 160.2,463.5 166.7,463.5 166.8,463.5 173.4,463.5 180,463.5 186.6,463.5 
			193.3,463.5 199.9,463.5 206.5,463.5 213.1,463.5 219.8,463.5 226.4,463.5 233,463.5 239.7,463.5 246.3,463.5 252.9,463.5 
			259.6,463.5 266.2,463.5 272.8,463.5 279.4,463.5 286.1,463.5 292.7,463.5 299.3,463.5 306,463.5 312.6,463.5 319.2,463.5 
			325.8,463.5 332.5,463.5 339.1,463.5 345.7,463.5 352.4,463.5 358.9,463.5 359,463.5 365.6,463.5 372.2,463.5 378.8,463.5 
			385.4,463.5 392.1,463.5 398.7,463.5 405.3,463.5 412,463.5 418.6,463.5 425.2,463.5 431.9,463.5 438.5,463.5 445.1,463.5 
			451.7,463.5 458.3,463.5 458.4,463.5 464.9,463.5 471.6,463.5 478.2,463.5 484.8,463.5 491.5,463.5 498.1,463.5 504.7,463.5 
			511.3,463.5 518,463.5 524.6,463.5 531.2,463.5 537.9,463.5 544.5,463.5 551.1,463.5 557.7,463.5 564.4,463.5 571,463.5 
			577.6,463.5 584.3,463.5 590.8,463.5 590.9,463.5 597.4,463.5 604,463.5 610.6,463.5 617.3,463.5 623.9,463.5 630.5,463.5 
			637.2,463.5 637.2,0 		"/>
		<line class="st4" x1="21" y1="463.5" x2="637.5" y2="463.5"/>
	</g>
	<g class="st0">
		<text transform="matrix(1 0 0 1 5.6426 417.0996)" class="st5 st6 st7">20</text>
	</g>
	<g class="st0">
		<text transform="matrix(1 0 0 1 5.6426 367.5996)" class="st5 st6 st7">40</text>
	</g>
	<g class="st0">
		<text transform="matrix(1 0 0 1 5.6426 318.0996)" class="st5 st6 st7">60</text>
	</g>
	<g class="st0">
		<text transform="matrix(1 0 0 1 5.6426 268.5996)" class="st5 st6 st7">80</text>
	</g>
	<g class="st0">
		<text transform="matrix(1 0 0 1 0.5889 219.0996)" class="st5 st6 st7">100</text>
	</g>
	<g class="st0">
		<text transform="matrix(1 0 0 1 0.5889 168.8496)" class="st5 st6 st7">120</text>
	</g>
	<g class="st0">
		<text transform="matrix(1 0 0 1 0.5889 119.3496)" class="st5 st6 st7">140</text>
	</g>
	<g class="st0">
		<text transform="matrix(1 0 0 1 0.5889 69.8496)" class="st5 st6 st7">160</text>
	</g>
	<g class="st0">
		<text transform="matrix(1 0 0 1 0.5889 20.3496)" class="st5 st6 st7">180</text>
	</g>
</g>
<g>
	<text transform="matrix(1 0 0 1 619.0602 477.1047)" class="st8 st6 st7">6/11</text>
</g>
<g>
	<text transform="matrix(1 0 0 1 89.6205 477.1045)" class="st8 st6 st7">3/22</text>
</g>
</svg>
