<?xml version="1.0" encoding="utf-8"?>
<!-- Generator: Adobe Illustrator 23.0.1, SVG Export Plug-In . SVG Version: 6.00 Build 0)  -->
<svg version="1.1" id="Layer_1" xmlns="http://www.w3.org/2000/svg" xmlns:xlink="http://www.w3.org/1999/xlink" x="0px" y="0px"
	 viewBox="0 0 637.5 487.5" style="enable-background:new 0 0 637.5 487.5;" xml:space="preserve">
<style type="text/css">
	.st0{clip-path:url(#SVGID_2_);}
	.st1{clip-path:url(#SVGID_4_);fill:none;stroke:#E8E8E8;stroke-width:0.75;stroke-miterlimit:10;}
	.st2{clip-path:url(#SVGID_4_);fill:#C71E1D;}
	.st3{clip-path:url(#SVGID_4_);fill:#C71E1D;fill-opacity:0.6;stroke:#000000;stroke-width:0.5;stroke-miterlimit:10;}
	.st4{clip-path:url(#SVGID_4_);fill:none;stroke:#333333;stroke-width:0.75;stroke-miterlimit:10;}
	.st5{fill:#A6A6A6;}
	.st6{font-family:'Roboto-Regular';}
	.st7{font-size:9px;}
	.st8{fill:#333333;}
</style>
<g>
	<defs>
		<rect id="SVGID_1_" width="637.5" height="487.5"/>
	</defs>
	<clipPath id="SVGID_2_">
		<use xlink:href="#SVGID_1_"  style="overflow:visible;"/>
	</clipPath>
	<g class="st0">
		<defs>
			<rect id="SVGID_3_" width="637.5" height="483"/>
		</defs>
		<clipPath id="SVGID_4_">
			<use xlink:href="#SVGID_3_"  style="overflow:visible;"/>
		</clipPath>
		<line class="st1" x1="21" y1="42" x2="637.5" y2="42"/>
		<line class="st1" x1="21" y1="102" x2="637.5" y2="102"/>
		<line class="st1" x1="21" y1="162.8" x2="637.5" y2="162.8"/>
		<line class="st1" x1="21" y1="222.8" x2="637.5" y2="222.8"/>
		<line class="st1" x1="21" y1="282.8" x2="637.5" y2="282.8"/>
		<line class="st1" x1="21" y1="342.8" x2="637.5" y2="342.8"/>
		<line class="st1" x1="21" y1="403.5" x2="637.5" y2="403.5"/>
		<path class="st2" d="M21,463.5h6.9H21z"/>
		<path class="st2" d="M27.9,463.5h6.9H27.9z"/>
		<path class="st2" d="M34.9,463.5h6.9H34.9z"/>
		<path class="st2" d="M41.8,463.5h6.9H41.8z"/>
		<path class="st2" d="M48.7,463.5h6.9H48.7z"/>
		<path class="st2" d="M55.6,463.5h6.9H55.6z"/>
		<path class="st2" d="M62.6,463.5h6.9H62.6z"/>
		<path class="st2" d="M69.5,463.5h6.9H69.5z"/>
		<path class="st2" d="M76.4,463.5h6.9H76.4z"/>
		<path class="st2" d="M83.3,463.5h6.9H83.3z"/>
		<path class="st2" d="M90.3,463.5h6.9H90.3z"/>
		<polygon class="st3" points="630,27 630,0 623,0 623,21 616.1,21 616.1,51 609.2,51 609.2,48 602.3,48 602.3,66 595.4,66 
			595.4,99 588.6,99 588.6,117.8 581.7,117.8 581.7,150.8 574.8,150.8 574.8,123.8 567.9,123.8 567.9,150.8 561,150.8 561,138.8 
			554.1,138.8 554.1,141.8 547.1,141.8 547.1,165.7 540.3,165.7 540.3,186.7 533.4,186.7 533.4,204.8 526.5,204.8 526.5,219.8 
			519.6,219.8 519.6,204.8 512.7,204.8 512.7,225.8 505.9,225.8 505.9,228.8 499,228.8 499,231.8 492,231.8 492,267.8 485.1,267.8 
			478.2,267.8 471.3,267.8 471.3,270.8 464.3,270.8 464.3,285.8 457.4,285.8 457.4,285.8 450.5,285.8 450.5,279.8 443.5,279.8 
			443.5,270.8 436.6,270.8 429.7,270.8 429.7,252.8 422.8,252.8 415.8,252.8 415.8,255.8 408.9,255.8 408.9,195.8 402,195.8 
			402,189.8 395.1,189.8 395.1,168.8 388.1,168.8 388.1,162.8 381.2,162.8 381.2,177.8 374.3,177.8 374.3,177.8 367.3,177.8 
			367.3,183.8 360.4,183.8 360.4,150.8 353.5,150.8 353.5,135.8 346.6,135.8 346.6,141.8 339.6,141.8 339.6,150.8 332.7,150.8 
			325.8,150.8 325.8,159.8 318.9,159.8 318.9,171.8 311.9,171.8 311.9,204.8 305,204.8 305,183.8 298.1,183.8 298.1,198.8 
			291.2,198.8 291.2,204.8 284.2,204.8 284.2,213.8 277.3,213.8 277.3,207.8 270.4,207.8 270.4,213.8 263.4,213.8 263.4,219.8 
			256.5,219.8 256.5,240.8 249.6,240.8 242.7,240.8 242.7,204.8 235.7,204.8 228.8,204.8 228.8,243.8 221.9,243.8 221.9,234.8 
			215,234.8 215,240.8 208,240.8 201.1,240.8 201.1,261.8 194.2,261.8 194.2,246.8 187.2,246.8 187.2,249.8 180.3,249.8 
			180.3,264.8 173.4,264.8 173.4,294.8 166.5,294.8 166.5,270.8 159.5,270.8 159.5,276.8 152.6,276.8 152.6,333.8 145.7,333.8 
			145.7,318.8 138.8,318.8 131.8,318.8 131.8,339.8 124.9,339.8 124.9,397.5 118,397.5 111.1,397.5 111.1,424.5 104.1,424.5 
			97.2,424.5 97.2,463.5 104.1,463.5 111.1,463.5 111.1,463.5 118,463.5 124.9,463.5 131.8,463.5 138.8,463.5 145.7,463.5 
			152.6,463.5 159.5,463.5 159.5,463.5 166.5,463.5 173.4,463.5 180.3,463.5 187.2,463.5 194.2,463.5 201.1,463.5 208,463.5 
			215,463.5 221.9,463.5 228.8,463.5 235.7,463.5 242.7,463.5 242.7,463.5 249.6,463.5 256.5,463.5 263.4,463.5 270.4,463.5 
			277.3,463.5 284.2,463.5 291.2,463.5 291.2,463.5 298.1,463.5 305,463.5 311.9,463.5 318.9,463.5 325.8,463.5 332.7,463.5 
			339.6,463.5 346.6,463.5 353.5,463.5 360.4,463.5 367.3,463.5 374.3,463.5 374.3,463.5 381.2,463.5 388.1,463.5 395.1,463.5 
			402,463.5 408.9,463.5 415.8,463.5 422.8,463.5 429.7,463.5 436.6,463.5 443.5,463.5 450.5,463.5 457.4,463.5 457.4,463.5 
			464.3,463.5 471.3,463.5 478.2,463.5 485.1,463.5 492,463.5 499,463.5 505.9,463.5 512.7,463.5 512.8,463.5 519.6,463.5 
			526.5,463.5 533.5,463.5 533.5,463.4 540.3,463.4 547.1,463.4 547.1,463.6 554.1,463.6 561,463.6 567.9,463.6 567.9,463.5 
			574.8,463.5 581.7,463.5 581.7,463.5 588.6,463.5 595.4,463.5 595.5,463.5 602.3,463.5 609.2,463.5 616.1,463.5 616.2,463.5 
			623,463.5 629.8,463.5 630,463.5 636.8,463.5 636.8,27 		"/>
		<line class="st4" x1="21" y1="463.5" x2="637.5" y2="463.5"/>
	</g>
	<g class="st0">
		<text transform="matrix(1 0 0 1 5.6426 406.5996)" class="st5 st6 st7">20</text>
	</g>
	<g class="st0">
		<text transform="matrix(1 0 0 1 5.6426 345.8496)" class="st5 st6 st7">40</text>
	</g>
	<g class="st0">
		<text transform="matrix(1 0 0 1 5.6426 285.8496)" class="st5 st6 st7">60</text>
	</g>
	<g class="st0">
		<text transform="matrix(1 0 0 1 5.6426 225.8496)" class="st5 st6 st7">80</text>
	</g>
	<g class="st0">
		<text transform="matrix(1 0 0 1 0.5889 165.8496)" class="st5 st6 st7">100</text>
	</g>
	<g class="st0">
		<text transform="matrix(1 0 0 1 0.5889 105.0996)" class="st5 st6 st7">120</text>
	</g>
	<g class="st0">
		<text transform="matrix(1 0 0 1 0.5889 45.0996)" class="st5 st6 st7">140</text>
	</g>
</g>
<g>
	<text transform="matrix(1 0 0 1 622.9902 478.5629)" class="st8 st6 st7">6/7</text>
</g>
<g>
	<text transform="matrix(1 0 0 1 94.2162 478.563)" class="st8 st6 st7">3/22</text>
</g>
</svg>
