<?xml version="1.0" encoding="utf-8"?>
<!-- Generator: Adobe Illustrator 23.0.1, SVG Export Plug-In . SVG Version: 6.00 Build 0)  -->
<svg version="1.1" id="Layer_1" xmlns="http://www.w3.org/2000/svg" xmlns:xlink="http://www.w3.org/1999/xlink" x="0px" y="0px"
	 viewBox="0 0 637.5 487.5" style="enable-background:new 0 0 637.5 487.5;" xml:space="preserve">
<style type="text/css">
	.st0{clip-path:url(#SVGID_2_);enable-background:new    ;}
	.st1{clip-path:url(#SVGID_4_);fill:none;stroke:#E8E8E8;stroke-width:0.75;stroke-miterlimit:10;}
	.st2{clip-path:url(#SVGID_4_);fill:#C71E1D;}
	.st3{clip-path:url(#SVGID_4_);fill:#C71E1D;fill-opacity:0.6;stroke:#000000;stroke-width:0.5;stroke-miterlimit:10;}
	.st4{clip-path:url(#SVGID_4_);fill:none;stroke:#333333;stroke-width:0.75;stroke-miterlimit:10;}
	.st5{clip-path:url(#SVGID_4_);}
	.st6{fill:#A6A6A6;}
	.st7{font-family:'Roboto-Regular';}
	.st8{font-size:9px;}
	.st9{fill:#333333;}
</style>
<g>
	<defs>
		<rect id="SVGID_1_" width="637.5" height="487.5"/>
	</defs>
	<clipPath id="SVGID_2_">
		<use xlink:href="#SVGID_1_"  style="overflow:visible;"/>
	</clipPath>
	<g class="st0">
		<g>
			<defs>
				<rect id="SVGID_3_" width="637.5" height="487.5"/>
			</defs>
			<clipPath id="SVGID_4_">
				<use xlink:href="#SVGID_3_"  style="overflow:visible;"/>
			</clipPath>
			<line class="st1" x1="21" y1="38.2" x2="637.5" y2="38.2"/>
			<line class="st1" x1="21" y1="81" x2="637.5" y2="81"/>
			<line class="st1" x1="21" y1="123" x2="637.5" y2="123"/>
			<line class="st1" x1="21" y1="165.8" x2="637.5" y2="165.8"/>
			<line class="st1" x1="21" y1="208.5" x2="637.5" y2="208.5"/>
			<line class="st1" x1="21" y1="251.2" x2="637.5" y2="251.2"/>
			<line class="st1" x1="21" y1="293.2" x2="637.5" y2="293.2"/>
			<line class="st1" x1="21" y1="336" x2="637.5" y2="336"/>
			<line class="st1" x1="21" y1="378.8" x2="637.5" y2="378.8"/>
			<line class="st1" x1="21" y1="420.8" x2="637.5" y2="420.8"/>
			<path class="st2" d="M21,463.5h10.6H21z"/>
			<path class="st2" d="M31.6,463.5h10.6H31.6z"/>
			<path class="st2" d="M42.3,463.5h10.6H42.3z"/>
			<path class="st2" d="M52.9,463.5h10.6H52.9z"/>
			<path class="st2" d="M63.5,463.5h10.6H63.5z"/>
			<path class="st2" d="M74.1,463.5h10.6H74.1z"/>
			<path class="st2" d="M84.8,463.5h10.6H84.8z"/>
			<path class="st2" d="M95.4,463.5H106H95.4z"/>
			<path class="st2" d="M106,463.5h10.6H106z"/>
			<path class="st2" d="M116.7,463.5h10.6H116.7z"/>
			<path class="st2" d="M127.3,463.5h10.6H127.3z"/>
			<polygon class="st3" points="626.6,165.7 626.6,170.2 616.1,170.2 616.1,84.8 605.4,84.8 605.4,76.6 594.9,76.6 594.9,46.5 
				584.3,46.5 584.3,38.2 573.7,38.2 573.7,59.2 563.2,59.2 552.5,59.2 552.5,68.2 541.9,68.2 541.9,21 531.4,21 531.4,0 520.8,0 
				520.8,8.2 510.2,8.2 510.2,21.1 499.6,21.1 489,21.1 489,33.8 478.3,33.8 478.3,51.1 467.7,51.1 467.7,97.5 457.2,97.5 
				457.2,68.2 446.5,68.2 446.5,89.2 435.9,89.2 435.9,97.5 425.3,97.5 425.3,110.2 414.6,110.2 414.6,102 404,102 404,110.2 
				393.4,110.2 393.4,119.2 382.8,119.2 382.8,148.5 372.1,148.5 361.5,148.5 361.5,97.5 350.9,97.5 340.2,97.5 340.2,153 
				329.6,153 329.6,140.2 319,140.2 319,148.5 308.3,148.5 297.7,148.5 297.7,178.5 287.1,178.5 287.1,157.5 276.5,157.5 
				276.5,161.2 265.8,161.2 265.8,183 255.2,183 255.2,225 244.6,225 244.6,191.2 233.9,191.2 233.9,199.5 223.4,199.5 223.4,280.5 
				212.8,280.5 212.8,259.5 202.2,259.5 191.5,259.5 191.5,289.5 180.9,289.5 180.9,369.7 170.3,369.7 159.6,369.7 159.6,408 
				149.1,408 149,408 138.5,408 138.5,463.5 149,463.5 149.1,463.5 159.6,463.5 170.3,463.5 180.9,463.5 191.5,463.5 202.2,463.5 
				212.8,463.5 223.4,463.5 233.9,463.5 234,463.5 244.6,463.5 255.2,463.5 265.8,463.5 276.5,463.5 287.1,463.5 297.7,463.5 
				308.3,463.5 319,463.5 329.6,463.5 340.2,463.5 350.9,463.5 361.5,463.5 372.1,463.5 382.8,463.5 393.4,463.5 404,463.5 
				414.6,463.5 425.3,463.5 435.9,463.5 446.5,463.5 457.1,463.5 457.2,463.5 467.7,463.5 467.7,463.6 478.3,463.6 489,463.6 
				489,463.6 499.6,463.6 510.2,463.6 510.2,463.5 520.8,463.5 531.3,463.5 531.4,463.5 541.9,463.5 541.9,463.5 552.5,463.5 
				563.2,463.5 573.7,463.5 573.8,463.5 584.2,463.5 584.3,463.5 594.8,463.5 594.8,463.6 605.4,463.6 616.1,463.6 616.1,463.5 
				626.6,463.5 637.3,463.5 637.3,165.7 			"/>
			<line class="st4" x1="21" y1="463.5" x2="637.5" y2="463.5"/>
			<g class="st5">
				<text transform="matrix(1 0 0 1 5.6426 423.0996)" class="st6 st7 st8">10</text>
			</g>
			<g class="st5">
				<text transform="matrix(1 0 0 1 5.6426 381.0996)" class="st6 st7 st8">20</text>
			</g>
			<g class="st5">
				<text transform="matrix(1 0 0 1 5.6426 338.3496)" class="st6 st7 st8">30</text>
			</g>
			<g class="st5">
				<text transform="matrix(1 0 0 1 5.6426 295.5996)" class="st6 st7 st8">40</text>
			</g>
			<g class="st5">
				<text transform="matrix(1 0 0 1 5.6426 253.5996)" class="st6 st7 st8">50</text>
			</g>
			<g class="st5">
				<text transform="matrix(1 0 0 1 5.6426 210.8496)" class="st6 st7 st8">60</text>
			</g>
			<g class="st5">
				<text transform="matrix(1 0 0 1 5.6426 168.0996)" class="st6 st7 st8">70</text>
			</g>
			<g class="st5">
				<text transform="matrix(1 0 0 1 5.6426 125.3496)" class="st6 st7 st8">80</text>
			</g>
			<g class="st5">
				<text transform="matrix(1 0 0 1 5.6426 83.3496)" class="st6 st7 st8">90</text>
			</g>
			<g class="st5">
				<text transform="matrix(1 0 0 1 0.5889 40.5996)" class="st6 st7 st8">100</text>
			</g>
		</g>
	</g>
</g>
<g>
	<text transform="matrix(1 0 0 1 134.3974 477.5659)" class="st9 st7 st8">3/22</text>
</g>
<text transform="matrix(1 0 0 1 623.1158 477.5664)" class="st9 st7 st8">5/7</text>
</svg>
