<?xml version="1.0" encoding="utf-8"?>
<!-- Generator: Adobe Illustrator 23.0.1, SVG Export Plug-In . SVG Version: 6.00 Build 0)  -->
<svg version="1.1" id="Layer_1" xmlns="http://www.w3.org/2000/svg" xmlns:xlink="http://www.w3.org/1999/xlink" x="0px" y="0px"
	 viewBox="0 0 637.5 487.5" style="enable-background:new 0 0 637.5 487.5;" xml:space="preserve">
<style type="text/css">
	.st0{clip-path:url(#SVGID_2_);}
	.st1{clip-path:url(#SVGID_4_);fill:none;stroke:#E8E8E8;stroke-width:0.75;stroke-miterlimit:10;}
	.st2{clip-path:url(#SVGID_4_);fill:#C71E1D;}
	.st3{clip-path:url(#SVGID_4_);fill:#C71E1D;fill-opacity:0.6;stroke:#000000;stroke-width:0.5;stroke-miterlimit:10;}
	.st4{clip-path:url(#SVGID_4_);fill:none;stroke:#333333;stroke-width:0.75;stroke-miterlimit:10;}
	.st5{fill:#A6A6A6;}
	.st6{font-family:'Roboto-Regular';}
	.st7{font-size:9px;}
	.st8{fill:#333333;}
</style>
<g>
	<defs>
		<rect id="SVGID_1_" width="637.5" height="487.5"/>
	</defs>
	<clipPath id="SVGID_2_">
		<use xlink:href="#SVGID_1_"  style="overflow:visible;"/>
	</clipPath>
	<g class="st0">
		<defs>
			<rect id="SVGID_3_" width="637.5" height="483"/>
		</defs>
		<clipPath id="SVGID_4_">
			<use xlink:href="#SVGID_3_"  style="overflow:visible;"/>
		</clipPath>
		<line class="st1" x1="21" y1="9" x2="637.5" y2="9"/>
		<line class="st1" x1="21" y1="54.8" x2="637.5" y2="54.8"/>
		<line class="st1" x1="21" y1="99.8" x2="637.5" y2="99.8"/>
		<line class="st1" x1="21" y1="145.5" x2="637.5" y2="145.5"/>
		<line class="st1" x1="21" y1="190.5" x2="637.5" y2="190.5"/>
		<line class="st1" x1="21" y1="236.2" x2="637.5" y2="236.2"/>
		<line class="st1" x1="21" y1="282" x2="637.5" y2="282"/>
		<line class="st1" x1="21" y1="327" x2="637.5" y2="327"/>
		<line class="st1" x1="21" y1="372.8" x2="637.5" y2="372.8"/>
		<line class="st1" x1="21" y1="417.8" x2="637.5" y2="417.8"/>
		<path class="st2" d="M21,463.5h6.5H21z"/>
		<path class="st2" d="M27.5,463.5H34H27.5z"/>
		<path class="st2" d="M34,463.5h6.5H34z"/>
		<path class="st2" d="M40.5,463.5H47H40.5z"/>
		<path class="st2" d="M47,463.5h6.5H47z"/>
		<path class="st2" d="M53.4,463.5h6.5H53.4z"/>
		<path class="st2" d="M59.9,463.5h6.5H59.9z"/>
		<path class="st2" d="M66.4,463.5h6.5H66.4z"/>
		<path class="st2" d="M72.9,463.5h6.5H72.9z"/>
		<path class="st2" d="M79.4,463.5h6.5H79.4z"/>
		<path class="st2" d="M85.9,463.5h6.5H85.9z"/>
		<polygon class="st3" points="630.9,0 630.9,2.2 624.4,2.2 624.4,38.2 617.9,38.2 617.9,52.5 611.4,52.5 611.4,70.5 604.9,70.5 
			604.9,75 598.4,75 598.4,134.2 591.9,134.2 591.9,113.2 585.4,113.2 585.4,129.8 578.9,129.8 578.9,152.2 572.5,152.2 572.5,150 
			566,150 566,163.5 559.5,163.5 559.5,188.2 553,188.2 553,202.5 546.5,202.5 546.5,227.2 540,227.2 540,207 533.5,207 
			533.5,227.2 527,227.2 527,218.2 520.5,218.2 520.5,220.5 514,220.5 514,238.5 507.6,238.5 507.6,254.2 501.1,254.2 501.1,267.8 
			494.6,267.8 494.6,279.8 488.1,279.8 488.1,267.8 481.6,267.8 481.6,284.2 475.1,284.2 475.1,286.5 468.7,286.5 468.7,288.8 
			462.2,288.8 462.2,315.8 455.7,315.8 449.2,315.8 442.7,315.8 442.7,318 436.2,318 436.2,329.2 429.7,329.2 423.2,329.2 
			423.2,324.8 416.7,324.8 416.7,318 410.3,318 403.8,318 403.8,304.5 397.3,304.5 390.8,304.5 390.8,306.8 384.3,306.8 384.3,261 
			377.8,261 377.8,256.5 371.3,256.5 371.3,240.8 364.8,240.8 364.8,236.2 358.3,236.2 358.3,247.5 351.8,247.5 345.4,247.5 
			345.4,252 338.9,252 338.9,227.2 332.4,227.2 332.4,216 325.9,216 325.9,220.5 319.4,220.5 319.4,227.2 312.9,227.2 306.4,227.2 
			306.4,234 299.9,234 299.9,243 293.4,243 293.4,267.8 287,267.8 287,252 280.5,252 280.5,263.2 274,263.2 274,267.8 267.5,267.8 
			267.5,275.2 261,275.2 261,270 254.5,270 254.5,275.2 248,275.2 248,279.8 241.5,279.8 241.5,295.5 235,295.5 228.5,295.5 
			228.5,267.8 222.1,267.8 215.6,267.8 215.6,297.8 209.1,297.8 209.1,291 202.6,291 202.6,295.5 196.1,295.5 189.6,295.5 
			189.6,311.2 183.1,311.2 183.1,300 176.6,300 176.6,302.2 170.1,302.2 170.1,313.5 163.7,313.5 163.7,336 157.2,336 157.2,318 
			150.7,318 150.7,322.5 144.2,322.5 144.2,366 137.7,366 137.7,354.8 131.2,354.8 124.7,354.8 124.7,370.5 118.2,370.5 
			118.2,413.2 111.7,413.2 105.2,413.2 105.2,434.2 98.9,434.2 98.8,434.2 92.4,434.2 92.4,463.5 98.8,463.5 98.9,463.5 
			105.2,463.5 111.7,463.5 118.2,463.5 124.7,463.5 131.2,463.5 137.7,463.5 144.2,463.5 150.7,463.5 157.2,463.5 163.7,463.5 
			170.1,463.5 176.6,463.5 183.1,463.5 189.6,463.5 196.1,463.5 202.6,463.5 209.1,463.5 215.6,463.5 222.1,463.5 228.5,463.5 
			235,463.5 241.5,463.5 248,463.5 254.5,463.5 261,463.5 267.5,463.5 274,463.5 280.5,463.5 287,463.5 293.4,463.5 299.9,463.5 
			306.4,463.5 312.9,463.5 319.4,463.5 325.9,463.5 332.4,463.5 338.9,463.5 345.4,463.5 351.8,463.5 358.3,463.5 364.8,463.5 
			371.3,463.5 377.8,463.5 384.3,463.5 390.8,463.5 397.3,463.5 403.8,463.5 410.3,463.5 416.7,463.5 423.2,463.5 429.7,463.5 
			436.2,463.5 442.7,463.5 449.2,463.5 455.7,463.5 462.2,463.5 468.7,463.5 475.1,463.5 481.6,463.5 488.1,463.5 494.6,463.5 
			501.1,463.5 507.6,463.5 507.6,463.5 514,463.5 520.5,463.5 520.5,463.5 527,463.5 533.5,463.5 533.5,463.5 540,463.5 
			546.5,463.5 546.5,463.5 553,463.5 559.5,463.5 566,463.5 566,463.5 572.5,463.5 578.9,463.5 578.9,463.5 585.4,463.5 
			591.9,463.5 591.9,463.5 598.4,463.5 604.9,463.5 604.9,463.5 611.4,463.5 617.9,463.5 617.9,463.5 624.4,463.5 630.9,463.5 
			630.9,463.5 637.3,463.5 637.3,0 		"/>
		<line class="st4" x1="21" y1="463.5" x2="637.5" y2="463.5"/>
	</g>
	<g class="st0">
		<text transform="matrix(1 0 0 1 5.6426 420.8496)" class="st5 st6 st7">20</text>
	</g>
	<g class="st0">
		<text transform="matrix(1 0 0 1 5.6426 375.8496)" class="st5 st6 st7">40</text>
	</g>
	<g class="st0">
		<text transform="matrix(1 0 0 1 5.6426 330.0996)" class="st5 st6 st7">60</text>
	</g>
	<g class="st0">
		<text transform="matrix(1 0 0 1 5.6426 285.0996)" class="st5 st6 st7">80</text>
	</g>
	<g class="st0">
		<text transform="matrix(1 0 0 1 0.5889 239.3496)" class="st5 st6 st7">100</text>
	</g>
	<g class="st0">
		<text transform="matrix(1 0 0 1 0.5889 193.5996)" class="st5 st6 st7">120</text>
	</g>
	<g class="st0">
		<text transform="matrix(1 0 0 1 0.5889 148.5996)" class="st5 st6 st7">140</text>
	</g>
	<g class="st0">
		<text transform="matrix(1 0 0 1 0.5889 102.8496)" class="st5 st6 st7">160</text>
	</g>
	<g class="st0">
		<text transform="matrix(1 0 0 1 0.5889 57.8496)" class="st5 st6 st7">180</text>
	</g>
	<g class="st0">
		<text transform="matrix(1 0 0 1 0.5889 12.0996)" class="st5 st6 st7">200</text>
	</g>
</g>
<g>
	<text transform="matrix(1 0 0 1 617.4406 477.2324)" class="st8 st6 st7">6/13</text>
</g>
<g>
	<text transform="matrix(1 0 0 1 89.4645 477.2324)" class="st8 st6 st7">3/22</text>
</g>
</svg>
