<?xml version="1.0" encoding="utf-8"?>
<!-- Generator: Adobe Illustrator 23.0.1, SVG Export Plug-In . SVG Version: 6.00 Build 0)  -->
<svg version="1.1" id="Layer_1" xmlns="http://www.w3.org/2000/svg" xmlns:xlink="http://www.w3.org/1999/xlink" x="0px" y="0px"
	 viewBox="0 0 637.5 487.5" style="enable-background:new 0 0 637.5 487.5;" xml:space="preserve">
<style type="text/css">
	.st0{clip-path:url(#SVGID_2_);}
	.st1{clip-path:url(#SVGID_4_);fill:none;stroke:#E8E8E8;stroke-width:0.75;stroke-miterlimit:10;}
	.st2{clip-path:url(#SVGID_4_);fill:#C71E1D;}
	.st3{clip-path:url(#SVGID_4_);fill:#C71E1D;fill-opacity:0.6;stroke:#000000;stroke-width:0.5;stroke-miterlimit:10;}
	.st4{clip-path:url(#SVGID_4_);fill:none;stroke:#333333;stroke-width:0.75;stroke-miterlimit:10;}
	.st5{fill:#A6A6A6;}
	.st6{font-family:'Roboto-Regular';}
	.st7{font-size:9px;}
	.st8{fill:#333333;}
</style>
<g>
	<defs>
		<rect id="SVGID_1_" width="637.5" height="487.5"/>
	</defs>
	<clipPath id="SVGID_2_">
		<use xlink:href="#SVGID_1_"  style="overflow:visible;"/>
	</clipPath>
	<g class="st0">
		<defs>
			<rect id="SVGID_3_" width="637.5" height="483"/>
		</defs>
		<clipPath id="SVGID_4_">
			<use xlink:href="#SVGID_3_"  style="overflow:visible;"/>
		</clipPath>
		<line class="st1" x1="21" y1="38.2" x2="637.5" y2="38.2"/>
		<line class="st1" x1="21" y1="81" x2="637.5" y2="81"/>
		<line class="st1" x1="21" y1="123" x2="637.5" y2="123"/>
		<line class="st1" x1="21" y1="165.8" x2="637.5" y2="165.8"/>
		<line class="st1" x1="21" y1="208.5" x2="637.5" y2="208.5"/>
		<line class="st1" x1="21" y1="251.2" x2="637.5" y2="251.2"/>
		<line class="st1" x1="21" y1="293.2" x2="637.5" y2="293.2"/>
		<line class="st1" x1="21" y1="336" x2="637.5" y2="336"/>
		<line class="st1" x1="21" y1="378.8" x2="637.5" y2="378.8"/>
		<line class="st1" x1="21" y1="420.8" x2="637.5" y2="420.8"/>
		<path class="st2" d="M21,463.5h9.2H21z"/>
		<path class="st2" d="M30.2,463.5h9.2H30.2z"/>
		<path class="st2" d="M39.4,463.5h9.2H39.4z"/>
		<path class="st2" d="M48.6,463.5h9.2H48.6z"/>
		<path class="st2" d="M57.8,463.5H67H57.8z"/>
		<path class="st2" d="M67,463.5h9.2H67z"/>
		<path class="st2" d="M76.2,463.5h9.2H76.2z"/>
		<path class="st2" d="M85.4,463.5h9.2H85.4z"/>
		<path class="st2" d="M94.6,463.5h9.2H94.6z"/>
		<path class="st2" d="M103.8,463.5h9.2H103.8z"/>
		<path class="st2" d="M113,463.5h9.2H113z"/>
		<polygon class="st3" points="628.3,186.8 619.1,186.8 619.1,191.2 609.9,191.2 609.9,212.2 600.7,212.2 600.7,212.2 591.5,212.2 
			591.5,204 582.3,204 582.3,191.2 573.1,191.2 573.1,191.2 563.9,191.2 563.9,165.8 554.7,165.8 545.5,165.8 545.5,170.2 
			536.3,170.2 536.3,84.8 527.1,84.8 527.1,76.5 517.9,76.5 517.9,46.5 508.7,46.5 508.7,38.2 499.5,38.2 499.5,59.2 490.3,59.2 
			490.3,59.2 481.1,59.2 481.1,68.2 471.9,68.2 471.9,21 462.7,21 462.7,0 453.5,0 453.5,8.2 444.3,8.2 444.3,21 435.1,21 425.9,21 
			425.9,33.8 416.7,33.8 416.7,51 407.5,51 407.5,97.5 398.3,97.5 398.3,68.2 389.1,68.2 389.1,89.2 379.9,89.2 379.9,97.5 
			370.7,97.5 370.7,110.2 361.5,110.2 361.5,102 352.3,102 352.3,110.2 343.1,110.2 343.1,119.2 333.9,119.2 333.9,148.5 
			324.6,148.5 315.4,148.5 315.4,97.5 306.2,97.5 306.2,97.5 297,97.5 297,153 287.8,153 287.8,140.2 278.6,140.2 278.6,148.5 
			269.4,148.5 269.4,148.5 260.2,148.5 260.2,178.5 251,178.5 251,157.5 241.8,157.5 241.8,161.2 232.6,161.2 232.6,183 223.4,183 
			223.4,225 214.2,225 214.2,191.2 205,191.2 205,199.5 195.8,199.5 195.8,280.5 186.6,280.5 186.6,259.5 177.4,259.5 177.4,259.5 
			168.2,259.5 168.2,289.5 159,289.5 159,369.8 149.8,369.8 140.6,369.8 140.6,408 131.4,408 131.4,408 122.2,408 122.2,463.5 
			131.4,463.5 131.4,463.5 140.6,463.5 140.6,463.5 149.8,463.5 159,463.5 168.2,463.5 168.2,463.5 177.4,463.5 177.4,463.5 
			186.6,463.5 195.8,463.5 205,463.5 205,463.5 214.2,463.5 214.2,463.5 223.4,463.5 232.6,463.5 241.8,463.5 241.8,463.5 
			251,463.5 251,463.5 260.2,463.5 269.4,463.5 269.4,463.5 278.6,463.5 278.6,463.5 287.8,463.5 297,463.5 297,463.5 306.2,463.5 
			306.2,463.5 315.4,463.5 315.4,463.5 324.6,463.5 333.9,463.5 333.9,463.5 343.1,463.5 343.1,463.5 352.3,463.5 352.3,463.5 
			361.5,463.5 370.7,463.5 370.7,463.5 379.9,463.5 379.9,463.5 389.1,463.5 389.1,463.5 398.3,463.5 407.5,463.5 407.5,463.5 
			416.7,463.5 416.7,463.5 425.9,463.5 425.9,463.5 435.1,463.5 444.3,463.5 444.3,463.5 453.5,463.5 453.5,463.5 462.7,463.5 
			462.7,463.5 471.9,463.5 481.1,463.5 481.1,463.5 490.3,463.5 490.3,463.5 499.5,463.5 499.5,463.5 508.7,463.5 517.9,463.5 
			527.1,463.5 527.1,463.5 536.3,463.5 536.3,463.5 545.5,463.5 545.5,463.5 554.7,463.5 563.9,463.5 563.9,463.5 573.1,463.5 
			573.1,463.5 582.3,463.5 582.3,463.5 591.5,463.5 600.7,463.5 600.7,463.5 609.9,463.5 609.9,463.5 619.1,463.5 619.1,463.5 
			628.3,463.5 637.5,463.5 637.5,186.8 		"/>
		<line class="st4" x1="21" y1="463.5" x2="637.5" y2="463.5"/>
	</g>
	<g class="st0">
		<text transform="matrix(1 0 0 1 5.2559 423.0996)" class="st5 st6 st7">10</text>
	</g>
	<g class="st0">
		<text transform="matrix(1 0 0 1 5.2559 381.0996)" class="st5 st6 st7">20</text>
	</g>
	<g class="st0">
		<text transform="matrix(1 0 0 1 5.2559 338.3496)" class="st5 st6 st7">30</text>
	</g>
	<g class="st0">
		<text transform="matrix(1 0 0 1 5.2559 295.5996)" class="st5 st6 st7">40</text>
	</g>
	<g class="st0">
		<text transform="matrix(1 0 0 1 5.2559 253.5996)" class="st5 st6 st7">50</text>
	</g>
	<g class="st0">
		<text transform="matrix(1 0 0 1 5.2559 210.8496)" class="st5 st6 st7">60</text>
	</g>
	<g class="st0">
		<text transform="matrix(1 0 0 1 5.2559 168.0996)" class="st5 st6 st7">70</text>
	</g>
	<g class="st0">
		<text transform="matrix(1 0 0 1 5.2559 125.3496)" class="st5 st6 st7">80</text>
	</g>
	<g class="st0">
		<text transform="matrix(1 0 0 1 5.2559 83.3496)" class="st5 st6 st7">90</text>
	</g>
	<g class="st0">
		<text transform="matrix(1 0 0 1 2.929688e-03 40.5996)" class="st5 st6 st7">100</text>
	</g>
</g>
<g>
	<text transform="matrix(1 0 0 1 118 479.4996)" class="st8 st6 st7">3/22</text>
</g>
<g>
	<text transform="matrix(1 0 0 1 618.0446 479.4993)" class="st8 st6 st7">5/16</text>
</g>
</svg>
