<?xml version="1.0" encoding="utf-8"?>
<!-- Generator: Adobe Illustrator 23.0.1, SVG Export Plug-In . SVG Version: 6.00 Build 0)  -->
<svg version="1.1" id="Layer_1" xmlns="http://www.w3.org/2000/svg" xmlns:xlink="http://www.w3.org/1999/xlink" x="0px" y="0px"
	 viewBox="0 0 637.5 487.5" style="enable-background:new 0 0 637.5 487.5;" xml:space="preserve">
<style type="text/css">
	.st0{clip-path:url(#SVGID_2_);}
	.st1{clip-path:url(#SVGID_4_);fill:none;stroke:#E8E8E8;stroke-width:0.75;stroke-miterlimit:10;}
	.st2{clip-path:url(#SVGID_4_);fill:#C71E1D;}
	.st3{clip-path:url(#SVGID_4_);fill:#C71E1D;fill-opacity:0.6;stroke:#000000;stroke-width:0.5;stroke-miterlimit:10;}
	.st4{clip-path:url(#SVGID_4_);fill:none;stroke:#333333;stroke-width:0.75;stroke-miterlimit:10;}
	.st5{fill:#A6A6A6;}
	.st6{font-family:'Roboto-Regular';}
	.st7{font-size:9px;}
	.st8{fill:#333333;}
</style>
<g>
	<defs>
		<rect id="SVGID_1_" width="637.5" height="487.5"/>
	</defs>
	<clipPath id="SVGID_2_">
		<use xlink:href="#SVGID_1_"  style="overflow:visible;"/>
	</clipPath>
	<g class="st0">
		<defs>
			<rect id="SVGID_3_" width="637.5" height="483"/>
		</defs>
		<clipPath id="SVGID_4_">
			<use xlink:href="#SVGID_3_"  style="overflow:visible;"/>
		</clipPath>
		<line class="st1" x1="21" y1="38.2" x2="637.5" y2="38.2"/>
		<line class="st1" x1="21" y1="81" x2="637.5" y2="81"/>
		<line class="st1" x1="21" y1="123" x2="637.5" y2="123"/>
		<line class="st1" x1="21" y1="165.8" x2="637.5" y2="165.8"/>
		<line class="st1" x1="21" y1="208.5" x2="637.5" y2="208.5"/>
		<line class="st1" x1="21" y1="251.2" x2="637.5" y2="251.2"/>
		<line class="st1" x1="21" y1="293.2" x2="637.5" y2="293.2"/>
		<line class="st1" x1="21" y1="336" x2="637.5" y2="336"/>
		<line class="st1" x1="21" y1="378.8" x2="637.5" y2="378.8"/>
		<line class="st1" x1="21" y1="420.8" x2="637.5" y2="420.8"/>
		<path class="st2" d="M21,463.5h8.4H21z"/>
		<path class="st2" d="M29.4,463.5h8.4H29.4z"/>
		<path class="st2" d="M37.9,463.5h8.4H37.9z"/>
		<path class="st2" d="M46.3,463.5h8.4H46.3z"/>
		<path class="st2" d="M54.8,463.5h8.4H54.8z"/>
		<path class="st2" d="M63.2,463.5h8.4H63.2z"/>
		<path class="st2" d="M71.7,463.5h8.4H71.7z"/>
		<path class="st2" d="M80.1,463.5h8.4H80.1z"/>
		<path class="st2" d="M88.6,463.5H97H88.6z"/>
		<path class="st2" d="M97,463.5h8.4H97z"/>
		<path class="st2" d="M105.5,463.5h8.4H105.5z"/>
		<polygon class="st3" points="629.1,119.2 629.1,97.5 620.6,97.5 620.6,127.5 612.2,127.5 612.2,132 603.7,132 603.7,135.8 
			595.3,135.8 595.3,186.8 586.8,186.8 578.4,186.8 578.4,186.8 569.9,186.8 569.9,191.2 561.5,191.2 561.5,212.2 553,212.2 
			544.6,212.2 544.6,204 536.2,204 536.2,191.2 527.7,191.2 527.7,191.2 519.3,191.2 519.3,165.8 510.8,165.8 502.4,165.8 
			502.4,170.2 493.9,170.2 493.9,84.8 485.5,84.8 485.5,76.5 477,76.5 477,46.5 468.6,46.5 468.6,38.2 460.2,38.2 460.2,59.2 
			451.7,59.2 443.3,59.2 443.3,68.2 434.8,68.2 434.8,21 426.4,21 426.4,0 417.9,0 417.9,8.2 409.5,8.2 409.5,21 401,21 401,21 
			392.6,21 392.6,33.8 384.1,33.8 384.1,51 375.7,51 375.7,97.5 367.3,97.5 367.3,68.2 358.8,68.2 358.8,89.2 350.4,89.2 
			350.4,97.5 341.9,97.5 341.9,110.2 333.5,110.2 333.5,102 325,102 325,110.2 316.6,110.2 316.6,119.2 308.1,119.2 308.1,148.5 
			299.7,148.5 299.7,148.5 291.2,148.5 291.2,97.5 282.8,97.5 274.4,97.5 274.4,153 265.9,153 265.9,140.2 257.5,140.2 257.5,148.5 
			249,148.5 240.6,148.5 240.6,178.5 232.1,178.5 232.1,157.5 223.7,157.5 223.7,161.2 215.2,161.2 215.2,183 206.8,183 206.8,225 
			198.3,225 198.3,191.2 189.9,191.2 189.9,199.5 181.5,199.5 181.5,280.5 173,280.5 173,259.5 164.6,259.5 164.6,259.5 
			156.1,259.5 156.1,289.5 147.7,289.5 147.7,369.8 139.2,369.8 130.8,369.8 130.8,408 122.3,408 113.9,408 113.9,463.5 
			122.3,463.5 130.8,463.5 130.8,463.5 139.2,463.5 147.7,463.5 156.1,463.5 164.6,463.5 164.6,463.5 173,463.5 181.5,463.5 
			189.9,463.5 198.3,463.5 198.3,463.5 206.8,463.5 215.2,463.5 223.7,463.5 232.1,463.5 232.1,463.5 240.6,463.5 249,463.5 
			257.5,463.5 257.5,463.5 265.9,463.5 265.9,463.5 274.4,463.5 282.8,463.5 291.2,463.5 299.7,463.5 299.7,463.5 308.1,463.5 
			316.6,463.5 325,463.5 333.5,463.5 333.5,463.5 341.9,463.5 350.4,463.5 358.8,463.5 367.3,463.5 367.3,463.5 375.7,463.5 
			384.1,463.5 392.6,463.5 401,463.5 401,463.5 409.5,463.5 417.9,463.5 426.4,463.5 434.8,463.5 434.8,463.5 443.3,463.5 
			451.7,463.5 460.2,463.5 468.6,463.5 468.6,463.5 477,463.5 485.5,463.5 493.9,463.5 502.4,463.5 502.4,463.5 510.8,463.5 
			519.3,463.5 527.7,463.5 527.7,463.5 536.2,463.5 536.2,463.5 544.6,463.5 544.6,463.5 553,463.5 561.5,463.5 561.5,463.5 
			569.9,463.5 569.9,463.5 578.4,463.5 578.4,463.5 586.8,463.5 595.3,463.5 595.3,463.5 603.7,463.5 603.7,463.5 612.2,463.5 
			612.2,463.5 620.6,463.5 629.1,463.5 629.1,463.5 637.5,463.5 637.5,119.2 		"/>
		<line class="st4" x1="21" y1="463.5" x2="637.5" y2="463.5"/>
	</g>
	<g class="st0">
		<text transform="matrix(1 0 0 1 5.2559 423.0996)" class="st5 st6 st7">10</text>
	</g>
	<g class="st0">
		<text transform="matrix(1 0 0 1 5.2559 381.0996)" class="st5 st6 st7">20</text>
	</g>
	<g class="st0">
		<text transform="matrix(1 0 0 1 5.2559 338.3496)" class="st5 st6 st7">30</text>
	</g>
	<g class="st0">
		<text transform="matrix(1 0 0 1 5.2559 295.5996)" class="st5 st6 st7">40</text>
	</g>
	<g class="st0">
		<text transform="matrix(1 0 0 1 5.2559 253.5996)" class="st5 st6 st7">50</text>
	</g>
	<g class="st0">
		<text transform="matrix(1 0 0 1 5.2559 210.8496)" class="st5 st6 st7">60</text>
	</g>
	<g class="st0">
		<text transform="matrix(1 0 0 1 5.2559 168.0996)" class="st5 st6 st7">70</text>
	</g>
	<g class="st0">
		<text transform="matrix(1 0 0 1 5.2559 125.3496)" class="st5 st6 st7">80</text>
	</g>
	<g class="st0">
		<text transform="matrix(1 0 0 1 5.2559 83.3496)" class="st5 st6 st7">90</text>
	</g>
	<g class="st0">
		<text transform="matrix(1 0 0 1 2.929688e-03 40.5996)" class="st5 st6 st7">100</text>
	</g>
</g>
<g>
	<text transform="matrix(1 0 0 1 109.7428 477.8616)" class="st8 st6 st7">3/22</text>
</g>
<g>
	<text transform="matrix(1 0 0 1 618.5997 477.8616)" class="st8 st6 st7">5/22</text>
</g>
</svg>
