<?xml version="1.0" encoding="utf-8"?>
<!-- Generator: Adobe Illustrator 23.0.1, SVG Export Plug-In . SVG Version: 6.00 Build 0)  -->
<svg version="1.1" id="Layer_1" xmlns="http://www.w3.org/2000/svg" xmlns:xlink="http://www.w3.org/1999/xlink" x="0px" y="0px"
	 viewBox="0 0 637.5 487.5" style="enable-background:new 0 0 637.5 487.5;" xml:space="preserve">
<style type="text/css">
	.st0{clip-path:url(#SVGID_2_);}
	.st1{clip-path:url(#SVGID_4_);fill:none;stroke:#E8E8E8;stroke-width:0.75;stroke-miterlimit:10;}
	.st2{clip-path:url(#SVGID_4_);fill:#C71E1D;}
	.st3{clip-path:url(#SVGID_4_);fill:#C71E1D;fill-opacity:0.6;stroke:#000000;stroke-width:0.5;stroke-miterlimit:10;}
	.st4{clip-path:url(#SVGID_4_);fill:none;stroke:#333333;stroke-width:0.75;stroke-miterlimit:10;}
	.st5{fill:#A6A6A6;}
	.st6{font-family:'Roboto-Regular';}
	.st7{font-size:9px;}
	.st8{fill:none;}
	.st9{fill:#333333;}
</style>
<g>
	<defs>
		<rect id="SVGID_1_" width="637.5" height="487.5"/>
	</defs>
	<clipPath id="SVGID_2_">
		<use xlink:href="#SVGID_1_"  style="overflow:visible;"/>
	</clipPath>
	<g class="st0">
		<defs>
			<polyline id="SVGID_3_" points="0,483 0,0 637.5,0 637.5,483 			"/>
		</defs>
		<clipPath id="SVGID_4_">
			<use xlink:href="#SVGID_3_"  style="overflow:visible;"/>
		</clipPath>
		<line class="st1" x1="21" y1="38.2" x2="637.5" y2="38.2"/>
		<line class="st1" x1="21" y1="81" x2="637.5" y2="81"/>
		<line class="st1" x1="21" y1="123" x2="637.5" y2="123"/>
		<line class="st1" x1="21" y1="165.8" x2="637.5" y2="165.8"/>
		<line class="st1" x1="21" y1="208.5" x2="637.5" y2="208.5"/>
		<line class="st1" x1="21" y1="251.2" x2="637.5" y2="251.2"/>
		<line class="st1" x1="21" y1="293.2" x2="637.5" y2="293.2"/>
		<line class="st1" x1="21" y1="336" x2="637.5" y2="336"/>
		<line class="st1" x1="21" y1="378.8" x2="637.5" y2="378.8"/>
		<line class="st1" x1="21" y1="420.8" x2="637.5" y2="420.8"/>
		<path class="st2" d="M21,463.5h8.6H21z"/>
		<path class="st2" d="M29.6,463.5h8.6H29.6z"/>
		<path class="st2" d="M38.1,463.5h8.6H38.1z"/>
		<path class="st2" d="M46.7,463.5h8.6H46.7z"/>
		<path class="st2" d="M55.2,463.5h8.6H55.2z"/>
		<path class="st2" d="M63.8,463.5h8.6H63.8z"/>
		<path class="st2" d="M72.4,463.5h8.6H72.4z"/>
		<path class="st2" d="M80.9,463.5h8.6H80.9z"/>
		<path class="st2" d="M89.5,463.5h8.6H89.5z"/>
		<path class="st2" d="M98.1,463.5h8.6H98.1z"/>
		<path class="st2" d="M106.6,463.5h8.6H106.6z"/>
		<polygon class="st3" points="628.9,97.5 628.9,127.5 620.4,127.5 620.4,132 611.8,132 611.8,135.8 603.2,135.8 603.2,186.8 
			594.7,186.8 586.1,186.8 577.6,186.8 577.6,191.2 569,191.2 569,212.2 560.4,212.2 551.9,212.2 551.9,204 543.3,204 543.3,191.2 
			534.8,191.2 526.2,191.2 526.2,165.8 517.6,165.8 509.1,165.8 509.1,170.2 500.5,170.2 500.5,84.8 491.9,84.8 491.9,76.5 
			483.4,76.5 483.4,46.5 474.8,46.5 474.8,38.2 466.2,38.2 466.2,59.2 457.7,59.2 457.7,59.2 449.1,59.2 449.1,68.2 440.6,68.2 
			440.6,21 432,21 432,0 423.4,0 423.4,8.2 414.9,8.2 414.9,21 406.3,21 406.3,21 397.8,21 397.8,33.8 389.2,33.8 389.2,51 
			380.6,51 380.6,97.5 372.1,97.5 372.1,68.2 363.5,68.2 363.5,89.2 354.9,89.2 354.9,97.5 346.4,97.5 346.4,110.2 337.8,110.2 
			337.8,102 329.2,102 329.2,110.2 320.7,110.2 320.7,119.2 312.1,119.2 312.1,148.5 303.6,148.5 303.6,148.5 295,148.5 295,97.5 
			286.4,97.5 286.4,97.5 277.9,97.5 277.9,153 269.3,153 269.3,140.2 260.8,140.2 260.8,148.5 252.2,148.5 252.2,148.5 243.6,148.5 
			243.6,178.5 235.1,178.5 235.1,157.5 226.5,157.5 226.5,161.2 217.9,161.2 217.9,183 209.4,183 209.4,225 200.8,225 200.8,191.2 
			192.2,191.2 192.2,199.5 183.7,199.5 183.7,280.5 175.1,280.5 175.1,259.5 166.6,259.5 166.6,259.5 158,259.5 158,289.5 
			149.4,289.5 149.4,369.8 140.9,369.8 140.9,369.8 132.3,369.8 132.3,408 123.8,408 115.2,408 115.2,463.5 123.8,463.5 
			132.3,463.5 132.3,463.5 140.9,463.5 140.9,463.5 149.4,463.5 149.4,463.5 158,463.5 158,463.5 166.6,463.5 166.6,463.5 
			175.1,463.5 175.1,463.5 183.7,463.5 183.7,463.5 192.2,463.5 192.3,463.5 200.8,463.5 200.8,463.5 209.4,463.5 209.4,463.5 
			217.9,463.5 217.9,463.5 226.5,463.5 226.5,463.5 235.1,463.5 235.1,463.5 243.6,463.5 243.6,463.5 252.2,463.5 252.2,463.5 
			260.8,463.5 260.8,463.5 269.3,463.5 269.3,463.5 277.9,463.5 277.9,463.5 286.4,463.5 286.4,463.5 295,463.5 295,463.5 
			303.6,463.5 303.6,463.5 312.1,463.5 312.1,463.5 320.7,463.5 320.7,463.5 329.2,463.5 329.3,463.5 337.8,463.5 337.8,463.5 
			346.4,463.5 346.4,463.5 354.9,463.5 354.9,463.5 363.5,463.5 363.5,463.5 372.1,463.5 372.1,463.5 380.6,463.5 380.6,463.5 
			389.2,463.5 389.2,463.5 397.8,463.5 397.8,463.5 406.3,463.5 406.3,463.5 414.9,463.5 414.9,463.5 423.4,463.5 423.4,463.5 
			432,463.5 432,463.5 440.6,463.5 440.6,463.5 449.1,463.5 449.1,463.5 457.7,463.5 457.7,463.5 466.2,463.5 466.3,463.5 
			474.8,463.5 474.8,463.5 483.4,463.5 483.4,463.5 491.9,463.5 491.9,463.5 500.5,463.5 500.5,463.5 509.1,463.5 509.1,463.5 
			517.6,463.5 526.2,463.5 534.8,463.5 543.3,463.5 551.9,463.5 560.4,463.5 569,463.5 577.6,463.5 586.1,463.5 594.7,463.5 
			603.2,463.5 611.8,463.5 620.4,463.5 628.9,463.5 637.5,463.5 637.5,97.5 		"/>
		<line class="st4" x1="21" y1="463.5" x2="637.5" y2="463.5"/>
	</g>
	<g class="st0">
		<text transform="matrix(1 0 0 1 5.2559 423.0996)" class="st5 st6 st7">10</text>
	</g>
	<g class="st0">
		<text transform="matrix(1 0 0 1 5.2559 381.0996)" class="st5 st6 st7">20</text>
	</g>
	<g class="st0">
		<text transform="matrix(1 0 0 1 5.2559 338.3496)" class="st5 st6 st7">30</text>
	</g>
	<g class="st0">
		<text transform="matrix(1 0 0 1 5.2559 295.5996)" class="st5 st6 st7">40</text>
	</g>
	<g class="st0">
		<text transform="matrix(1 0 0 1 5.2559 253.5996)" class="st5 st6 st7">50</text>
	</g>
	<g class="st0">
		<text transform="matrix(1 0 0 1 5.2559 210.8496)" class="st5 st6 st7">60</text>
	</g>
	<g class="st0">
		<text transform="matrix(1 0 0 1 5.2559 168.0996)" class="st5 st6 st7">70</text>
	</g>
	<g class="st0">
		<text transform="matrix(1 0 0 1 5.2559 125.3496)" class="st5 st6 st7">80</text>
	</g>
	<g class="st0">
		<text transform="matrix(1 0 0 1 5.2559 83.3496)" class="st5 st6 st7">90</text>
	</g>
	<g class="st0">
		<text transform="matrix(1 0 0 1 2.929688e-03 40.5996)" class="st5 st6 st7">100</text>
	</g>
</g>
<polyline class="st8" points="636.5,0 636.5,483 -1,483 "/>
<line class="st8" x1="636.5" y1="0" x2="636.5" y2="487.5"/>
<g>
	<text transform="matrix(1 0 0 1 114.0001 478.501)" class="st9 st6 st7">3/22</text>
</g>
<g>
	<text transform="matrix(1 0 0 1 618.8285 478.501)" class="st9 st6 st7">5/21</text>
</g>
</svg>
