<?xml version="1.0" encoding="utf-8"?>
<!-- Generator: Adobe Illustrator 23.0.1, SVG Export Plug-In . SVG Version: 6.00 Build 0)  -->
<svg version="1.1" id="Layer_1" xmlns="http://www.w3.org/2000/svg" xmlns:xlink="http://www.w3.org/1999/xlink" x="0px" y="0px"
	 viewBox="0 0 637.5 487.5" style="enable-background:new 0 0 637.5 487.5;" xml:space="preserve">
<style type="text/css">
	.st0{clip-path:url(#SVGID_2_);}
	.st1{clip-path:url(#SVGID_4_);fill:none;stroke:#E8E8E8;stroke-width:0.75;stroke-miterlimit:10;}
	.st2{clip-path:url(#SVGID_4_);fill:#C71E1D;}
	.st3{clip-path:url(#SVGID_4_);fill:#C71E1D;fill-opacity:0.6;stroke:#000000;stroke-width:0.5;stroke-miterlimit:10;}
	.st4{clip-path:url(#SVGID_4_);fill:none;stroke:#333333;stroke-width:0.75;stroke-miterlimit:10;}
	.st5{fill:#A6A6A6;}
	.st6{font-family:'Roboto-Regular';}
	.st7{font-size:9px;}
	.st8{fill:#333333;}
</style>
<g>
	<defs>
		<rect id="SVGID_1_" width="637.5" height="487.5"/>
	</defs>
	<clipPath id="SVGID_2_">
		<use xlink:href="#SVGID_1_"  style="overflow:visible;"/>
	</clipPath>
	<g class="st0">
		<defs>
			<rect id="SVGID_3_" width="637.5" height="483"/>
		</defs>
		<clipPath id="SVGID_4_">
			<use xlink:href="#SVGID_3_"  style="overflow:visible;"/>
		</clipPath>
		<line class="st1" x1="21" y1="38.2" x2="637.5" y2="38.2"/>
		<line class="st1" x1="21" y1="81" x2="637.5" y2="81"/>
		<line class="st1" x1="21" y1="123" x2="637.5" y2="123"/>
		<line class="st1" x1="21" y1="165.8" x2="637.5" y2="165.8"/>
		<line class="st1" x1="21" y1="208.5" x2="637.5" y2="208.5"/>
		<line class="st1" x1="21" y1="251.2" x2="637.5" y2="251.2"/>
		<line class="st1" x1="21" y1="293.2" x2="637.5" y2="293.2"/>
		<line class="st1" x1="21" y1="336" x2="637.5" y2="336"/>
		<line class="st1" x1="21" y1="378.8" x2="637.5" y2="378.8"/>
		<line class="st1" x1="21" y1="420.8" x2="637.5" y2="420.8"/>
		<path class="st2" d="M21,463.5h8.8H21z"/>
		<path class="st2" d="M29.8,463.5h8.8H29.8z"/>
		<path class="st2" d="M38.6,463.5h8.8H38.6z"/>
		<path class="st2" d="M47.4,463.5h8.8H47.4z"/>
		<path class="st2" d="M56.2,463.5H65H56.2z"/>
		<path class="st2" d="M65,463.5h8.8H65z"/>
		<path class="st2" d="M73.8,463.5h8.8H73.8z"/>
		<path class="st2" d="M82.7,463.5h8.8H82.7z"/>
		<path class="st2" d="M91.5,463.5h8.8H91.5z"/>
		<path class="st2" d="M100.3,463.5h8.8H100.3z"/>
		<path class="st2" d="M109.1,463.5h8.8H109.1z"/>
		<polygon class="st3" points="628.7,132 628.7,135.8 619.9,135.8 619.9,186.8 611.1,186.8 611.1,186.8 602.3,186.8 602.3,186.8 
			593.5,186.8 593.5,191.2 584.7,191.2 584.7,212.2 575.9,212.2 575.8,212.2 567,212.2 567,204 558.2,204 558.2,191.2 549.4,191.2 
			540.6,191.2 540.6,165.8 531.8,165.8 531.8,165.8 523,165.8 523,170.2 514.2,170.2 514.2,84.8 505.4,84.8 505.4,76.5 496.6,76.5 
			496.6,46.5 487.8,46.5 487.8,38.2 479,38.2 479,59.2 470.2,59.2 461.4,59.2 461.4,68.2 452.6,68.2 452.6,21 443.7,21 443.7,0 
			434.9,0 434.9,8.2 426.1,8.2 426.1,21 417.3,21 408.5,21 408.5,33.8 399.7,33.8 399.7,51 390.9,51 390.9,97.5 382.1,97.5 
			382.1,68.2 373.3,68.2 373.3,89.2 364.5,89.2 364.5,97.5 355.7,97.5 355.7,110.2 346.9,110.2 346.9,102 338.1,102 338.1,110.2 
			329.2,110.2 329.2,119.2 320.4,119.2 320.4,148.5 311.6,148.5 302.8,148.5 302.8,97.5 294,97.5 294,97.5 285.2,97.5 285.2,153 
			276.4,153 276.4,140.2 267.6,140.2 267.6,148.5 258.8,148.5 258.8,148.5 250,148.5 250,178.5 241.2,178.5 241.2,157.5 
			232.4,157.5 232.4,161.2 223.6,161.2 223.6,183 214.8,183 214.8,225 206,225 206,191.2 197.1,191.2 197.1,199.5 188.3,199.5 
			188.3,280.5 179.5,280.5 179.5,259.5 170.7,259.5 170.7,259.5 161.9,259.5 161.9,289.5 153.1,289.5 153.1,369.8 144.3,369.8 
			144.3,369.8 135.5,369.8 135.5,408 126.7,408 117.9,408 117.9,463.5 126.7,463.5 135.5,463.5 135.5,463.5 144.3,463.5 
			144.3,463.5 153.1,463.5 161.9,463.5 170.7,463.5 170.7,463.5 179.5,463.5 179.5,463.5 188.3,463.5 188.3,463.5 197.1,463.5 
			206,463.5 214.8,463.5 214.8,463.5 223.6,463.5 223.6,463.5 232.4,463.5 241.2,463.5 250,463.5 250,463.5 258.8,463.5 
			258.8,463.5 267.6,463.5 276.4,463.5 285.2,463.5 294,463.5 294,463.5 302.8,463.5 311.6,463.5 320.4,463.5 329.2,463.5 
			329.3,463.5 338.1,463.5 338.1,463.5 346.9,463.5 355.7,463.5 364.5,463.5 373.3,463.5 373.3,463.5 382.1,463.5 390.9,463.5 
			399.7,463.5 408.5,463.5 408.5,463.5 417.3,463.5 426.1,463.5 434.9,463.5 443.7,463.5 452.5,463.5 452.6,463.5 461.4,463.5 
			470.2,463.5 479,463.5 487.8,463.5 487.8,463.5 496.6,463.5 505.4,463.5 514.2,463.5 523,463.5 523,463.5 531.8,463.5 
			531.8,463.5 540.6,463.5 540.6,463.5 549.4,463.5 558.2,463.5 558.2,463.5 567,463.5 567,463.5 575.8,463.5 575.9,463.5 
			584.7,463.5 593.5,463.5 593.5,463.5 602.3,463.5 602.3,463.5 611.1,463.5 611.1,463.5 619.9,463.5 628.7,463.5 628.7,463.5 
			637.5,463.5 637.5,132 		"/>
		<line class="st4" x1="21" y1="463.5" x2="637.5" y2="463.5"/>
	</g>
	<g class="st0">
		<text transform="matrix(1 0 0 1 5.2559 423.0996)" class="st5 st6 st7">10</text>
	</g>
	<g class="st0">
		<text transform="matrix(1 0 0 1 5.2559 381.0996)" class="st5 st6 st7">20</text>
	</g>
	<g class="st0">
		<text transform="matrix(1 0 0 1 5.2559 338.3496)" class="st5 st6 st7">30</text>
	</g>
	<g class="st0">
		<text transform="matrix(1 0 0 1 5.2559 295.5996)" class="st5 st6 st7">40</text>
	</g>
	<g class="st0">
		<text transform="matrix(1 0 0 1 5.2559 253.5996)" class="st5 st6 st7">50</text>
	</g>
	<g class="st0">
		<text transform="matrix(1 0 0 1 5.2559 210.8496)" class="st5 st6 st7">60</text>
	</g>
	<g class="st0">
		<text transform="matrix(1 0 0 1 5.2559 168.0996)" class="st5 st6 st7">70</text>
	</g>
	<g class="st0">
		<text transform="matrix(1 0 0 1 5.2559 125.3496)" class="st5 st6 st7">80</text>
	</g>
	<g class="st0">
		<text transform="matrix(1 0 0 1 5.2559 83.3496)" class="st5 st6 st7">90</text>
	</g>
	<g class="st0">
		<text transform="matrix(1 0 0 1 2.929688e-03 40.5996)" class="st5 st6 st7">100</text>
	</g>
</g>
<g>
	<text transform="matrix(1 0 0 1 114.7588 479.1636)" class="st8 st6 st7">3/22</text>
</g>
<g>
	<text transform="matrix(1 0 0 1 618.0003 479.1636)" class="st8 st6 st7">5/19</text>
</g>
</svg>
