<?xml version="1.0" encoding="utf-8"?>
<!-- Generator: Adobe Illustrator 23.0.1, SVG Export Plug-In . SVG Version: 6.00 Build 0)  -->
<svg version="1.1" id="Layer_1" xmlns="http://www.w3.org/2000/svg" xmlns:xlink="http://www.w3.org/1999/xlink" x="0px" y="0px"
	 viewBox="0 0 637.5 487.5" style="enable-background:new 0 0 637.5 487.5;" xml:space="preserve">
<style type="text/css">
	.st0{clip-path:url(#SVGID_2_);}
	.st1{clip-path:url(#SVGID_4_);fill:none;stroke:#E8E8E8;stroke-width:0.75;stroke-miterlimit:10;}
	.st2{clip-path:url(#SVGID_4_);fill:#C71E1D;}
	.st3{clip-path:url(#SVGID_4_);fill:#C71E1D;fill-opacity:0.6;stroke:#000000;stroke-width:0.5;stroke-miterlimit:10;}
	.st4{clip-path:url(#SVGID_4_);fill:none;stroke:#333333;stroke-width:0.75;stroke-miterlimit:10;}
	.st5{fill:#A6A6A6;}
	.st6{font-family:'Roboto-Regular';}
	.st7{font-size:9px;}
	.st8{fill:#333333;}
</style>
<g>
	<defs>
		<rect id="SVGID_1_" width="637.5" height="487.5"/>
	</defs>
	<clipPath id="SVGID_2_">
		<use xlink:href="#SVGID_1_"  style="overflow:visible;"/>
	</clipPath>
	<g class="st0">
		<defs>
			<rect id="SVGID_3_" width="637.5" height="483"/>
		</defs>
		<clipPath id="SVGID_4_">
			<use xlink:href="#SVGID_3_"  style="overflow:visible;"/>
		</clipPath>
		<line class="st1" x1="21" y1="30" x2="637.5" y2="30"/>
		<line class="st1" x1="21" y1="84" x2="637.5" y2="84"/>
		<line class="st1" x1="21" y1="138" x2="637.5" y2="138"/>
		<line class="st1" x1="21" y1="192.8" x2="637.5" y2="192.8"/>
		<line class="st1" x1="21" y1="246.8" x2="637.5" y2="246.8"/>
		<line class="st1" x1="21" y1="300.8" x2="637.5" y2="300.8"/>
		<line class="st1" x1="21" y1="354.8" x2="637.5" y2="354.8"/>
		<line class="st1" x1="21" y1="409.5" x2="637.5" y2="409.5"/>
		<path class="st2" d="M21,463.5h6.8H21z"/>
		<path class="st2" d="M27.9,463.5h6.8H27.9z"/>
		<path class="st2" d="M34.7,463.5h6.8H34.7z"/>
		<path class="st2" d="M41.5,463.5h6.8H41.5z"/>
		<path class="st2" d="M48.4,463.5h6.8H48.4z"/>
		<path class="st2" d="M55.2,463.5h6.8H55.2z"/>
		<path class="st2" d="M62.1,463.5h6.8H62.1z"/>
		<path class="st2" d="M68.9,463.5h6.8H68.9z"/>
		<path class="st2" d="M75.8,463.5h6.8H75.8z"/>
		<path class="st2" d="M82.7,463.5h6.8H82.7z"/>
		<path class="st2" d="M89.5,463.5h6.8H89.5z"/>
		<polygon class="st3" points="636.4,-0.1 629.5,-0.1 629.5,70.5 622.7,70.5 622.7,45.8 615.9,45.8 615.9,65.2 609.1,65.2 
			609.1,92.2 602.2,92.2 602.2,89.2 595.4,89.2 595.4,105.7 588.6,105.7 588.6,135.7 581.7,135.7 581.7,151.5 575,151.5 575,181.5 
			568.1,181.5 568.1,157.5 561.3,157.5 561.3,181.5 554.5,181.5 554.5,171 547.7,171 547.7,173.2 541,173.2 541,195 534.1,195 
			534.1,214.5 527.3,214.5 527.3,230.2 520.6,230.2 520.6,243.8 513.7,243.8 513.7,230.2 506.9,230.2 506.9,249 500,249 500,252 
			493.2,252 493.2,255 486.3,255 486.3,287.2 479.5,287.2 472.6,287.2 465.8,287.2 465.8,290.2 458.9,290.2 458.9,303.8 
			452.1,303.8 452.1,303.8 445.2,303.8 445.2,298.5 438.4,298.5 438.4,290.2 431.5,290.2 424.7,290.2 424.7,273.8 417.8,273.8 
			417.8,273.8 411,273.8 411,276.8 404.1,276.8 404.1,222 397.3,222 397.3,216.8 390.4,216.8 390.4,198 383.6,198 383.6,192.8 
			376.7,192.8 376.7,206.2 369.9,206.2 363,206.2 363,211.5 356.2,211.5 356.2,181.5 349.3,181.5 349.3,168 342.5,168 342.5,173.2 
			335.6,173.2 335.6,181.5 328.8,181.5 321.9,181.5 321.9,189.8 315.1,189.8 315.1,200.2 308.2,200.2 308.2,230.2 301.4,230.2 
			301.4,211.5 294.5,211.5 294.5,225 287.7,225 287.7,230.2 280.8,230.2 280.8,238.5 274,238.5 274,233.2 267.1,233.2 267.1,238.5 
			260.3,238.5 260.3,243.8 253.4,243.8 253.4,263.2 246.6,263.2 239.7,263.2 239.7,230.2 233,230.2 232.9,230.2 226.1,230.2 
			226.1,265.5 219.3,265.5 219.3,257.2 212.4,257.2 212.4,263.2 205.6,263.2 198.7,263.2 198.7,282 192,282 192,268.5 185.2,268.5 
			185.2,270.8 178.3,270.8 178.3,284.2 171.5,284.2 171.5,312 164.7,312 164.7,290.2 157.9,290.2 157.9,295.5 151,295.5 151,347.2 
			144.2,347.2 144.2,333.8 137.3,333.8 130.5,333.8 130.5,352.5 123.8,352.5 123.8,403.5 116.9,403.5 110,403.5 110,428.2 
			103.2,428.2 96.3,428.2 96.3,463.5 103.2,463.5 110,463.5 116.9,463.5 123.8,463.5 130.5,463.5 130.6,463.5 137.3,463.5 
			144.2,463.5 151,463.5 157.9,463.5 164.6,463.5 164.7,463.5 171.5,463.5 178.3,463.5 185.2,463.5 192,463.5 198.7,463.5 
			198.9,463.5 205.6,463.5 212.4,463.5 219.3,463.5 226.1,463.5 232.9,463.5 233,463.5 239.7,463.5 246.6,463.5 253.4,463.5 
			260.3,463.5 267.1,463.5 274,463.5 280.8,463.5 280.8,463.5 287.7,463.5 294.5,463.5 301.4,463.5 308.2,463.5 315.1,463.5 
			315.1,463.5 321.9,463.5 328.8,463.5 335.6,463.5 342.5,463.5 349.3,463.5 349.3,463.5 356.2,463.5 363,463.5 369.9,463.5 
			376.7,463.5 383.6,463.5 383.6,463.5 390.4,463.5 397.3,463.5 404.1,463.5 411,463.5 417.8,463.5 417.8,463.5 424.7,463.5 
			431.5,463.5 438.4,463.5 445.2,463.5 452.1,463.5 452.1,463.5 458.9,463.5 465.8,463.5 472.6,463.5 479.5,463.5 486.3,463.5 
			486.3,463.5 493.2,463.5 500,463.5 506.9,463.5 513.7,463.5 520.6,463.5 527.3,463.5 527.4,463.5 534.1,463.5 541,463.5 
			547.7,463.5 547.8,463.5 554.5,463.5 561.3,463.5 561.4,463.5 568.1,463.5 575,463.5 581.8,463.5 581.8,463.4 588.6,463.4 
			595.4,463.4 595.4,463.4 602.2,463.4 609.1,463.4 615.9,463.4 615.9,463.5 622.7,463.5 629.6,463.5 629.6,463.4 636.4,463.4 		"/>
		<line class="st4" x1="21" y1="463.5" x2="637.5" y2="463.5"/>
	</g>
	<g class="st0">
		<text transform="matrix(1 0 0 1 5.6426 412.5996)" class="st5 st6 st7">20</text>
	</g>
	<g class="st0">
		<text transform="matrix(1 0 0 1 5.6426 357.8496)" class="st5 st6 st7">40</text>
	</g>
	<g class="st0">
		<text transform="matrix(1 0 0 1 5.6426 303.8496)" class="st5 st6 st7">60</text>
	</g>
	<g class="st0">
		<text transform="matrix(1 0 0 1 5.6426 249.8496)" class="st5 st6 st7">80</text>
	</g>
	<g class="st0">
		<text transform="matrix(1 0 0 1 0.5889 195.8496)" class="st5 st6 st7">100</text>
	</g>
	<g class="st0">
		<text transform="matrix(1 0 0 1 0.5889 141.0996)" class="st5 st6 st7">120</text>
	</g>
	<g class="st0">
		<text transform="matrix(1 0 0 1 0.5889 87.0996)" class="st5 st6 st7">140</text>
	</g>
	<g class="st0">
		<text transform="matrix(1 0 0 1 0.5889 33.0996)" class="st5 st6 st7">160</text>
	</g>
</g>
<g>
	<text transform="matrix(1 0 0 1 623.1105 477.7995)" class="st8 st6 st7">6/8</text>
</g>
<g>
	<text transform="matrix(1 0 0 1 91.4561 477.7997)" class="st8 st6 st7">3/22</text>
</g>
</svg>
