<?xml version="1.0" encoding="utf-8"?>
<!-- Generator: Adobe Illustrator 23.0.1, SVG Export Plug-In . SVG Version: 6.00 Build 0)  -->
<svg version="1.1" id="Layer_1" xmlns="http://www.w3.org/2000/svg" xmlns:xlink="http://www.w3.org/1999/xlink" x="0px" y="0px"
	 viewBox="0 0 637.5 487.5" style="enable-background:new 0 0 637.5 487.5;" xml:space="preserve">
<style type="text/css">
	.st0{clip-path:url(#SVGID_2_);}
	.st1{clip-path:url(#SVGID_4_);fill:none;stroke:#E8E8E8;stroke-width:0.75;stroke-miterlimit:10;}
	.st2{clip-path:url(#SVGID_4_);fill:#C71E1D;}
	.st3{clip-path:url(#SVGID_4_);fill:#C71E1D;fill-opacity:0.6;stroke:#000000;stroke-width:0.5;stroke-miterlimit:10;}
	.st4{clip-path:url(#SVGID_4_);fill:none;stroke:#333333;stroke-width:0.75;stroke-miterlimit:10;}
	.st5{fill:#A6A6A6;}
	.st6{font-family:'Roboto-Regular';}
	.st7{font-size:9px;}
	.st8{fill:#333333;}
</style>
<g>
	<defs>
		<rect id="SVGID_1_" width="637.5" height="487.5"/>
	</defs>
	<clipPath id="SVGID_2_">
		<use xlink:href="#SVGID_1_"  style="overflow:visible;"/>
	</clipPath>
	<g class="st0">
		<defs>
			<rect id="SVGID_3_" width="637.5" height="483"/>
		</defs>
		<clipPath id="SVGID_4_">
			<use xlink:href="#SVGID_3_"  style="overflow:visible;"/>
		</clipPath>
		<line class="st1" x1="21" y1="30" x2="637.5" y2="30"/>
		<line class="st1" x1="21" y1="73.5" x2="637.5" y2="73.5"/>
		<line class="st1" x1="21" y1="117" x2="637.5" y2="117"/>
		<line class="st1" x1="21" y1="160.5" x2="637.5" y2="160.5"/>
		<line class="st1" x1="21" y1="203.2" x2="637.5" y2="203.2"/>
		<line class="st1" x1="21" y1="246.8" x2="637.5" y2="246.8"/>
		<line class="st1" x1="21" y1="290.2" x2="637.5" y2="290.2"/>
		<line class="st1" x1="21" y1="333.8" x2="637.5" y2="333.8"/>
		<line class="st1" x1="21" y1="376.5" x2="637.5" y2="376.5"/>
		<line class="st1" x1="21" y1="420" x2="637.5" y2="420"/>
		<path class="st2" d="M21,463.5h6.3H21z"/>
		<path class="st2" d="M27.3,463.5h6.3H27.3z"/>
		<path class="st2" d="M33.6,463.5h6.3H33.6z"/>
		<path class="st2" d="M39.9,463.5h6.3H39.9z"/>
		<path class="st2" d="M46.2,463.5h6.3H46.2z"/>
		<path class="st2" d="M52.5,463.5h6.3H52.5z"/>
		<path class="st2" d="M58.7,463.5H65H58.7z"/>
		<path class="st2" d="M65,463.5h6.3H65z"/>
		<path class="st2" d="M71.3,463.5h6.3H71.3z"/>
		<path class="st2" d="M77.6,463.5h6.3H77.6z"/>
		<path class="st2" d="M83.9,463.5h6.3H83.9z"/>
		<polygon class="st3" points="631.2,0 631.2,17.2 624.9,17.2 624.9,28.5 618.6,28.5 618.6,21.8 612.3,21.8 612.3,24 606,24 
			606,58.5 599.8,58.5 599.8,71.2 593.5,71.2 593.5,88.5 587.2,88.5 587.2,93 580.9,93 580.9,149.2 574.6,149.2 574.6,129.8 
			568.3,129.8 568.3,144.8 562,144.8 562,166.5 555.7,166.5 555.7,164.2 549.4,164.2 549.4,177.8 543.1,177.8 543.1,201.8 
			536.8,201.8 536.8,214.5 530.6,214.5 530.6,238.5 524.3,238.5 524.3,219 518,219 518,238.5 511.7,238.5 511.7,229.5 505.4,229.5 
			505.4,231.8 499.1,231.8 499.1,249 492.8,249 492.8,264 486.5,264 486.5,277.5 480.2,277.5 480.2,288 473.9,288 473.9,277.5 
			467.6,277.5 467.6,292.5 461.4,292.5 461.4,294.8 455.1,294.8 455.1,297 448.8,297 448.8,322.5 442.5,322.5 442.5,322.5 
			436.2,322.5 429.9,322.5 429.9,324.8 423.6,324.8 423.6,336 417.3,336 411,336 411,331.5 404.7,331.5 404.7,324.8 398.4,324.8 
			398.4,324.8 392.2,324.8 392.2,312 385.9,312 379.6,312 379.6,314.2 373.3,314.2 373.3,270.8 367,270.8 367,266.2 360.7,266.2 
			360.7,251.2 354.4,251.2 354.4,246.8 348.1,246.8 348.1,258 341.8,258 335.5,258 335.5,261.8 329.3,261.8 329.3,238.5 323,238.5 
			323,227.2 316.7,227.2 316.7,231.8 310.4,231.8 310.4,238.5 304.1,238.5 304.1,238.5 297.8,238.5 297.8,244.5 291.5,244.5 
			291.5,253.5 285.2,253.5 285.2,277.5 278.9,277.5 278.9,261.8 272.6,261.8 272.6,273 266.3,273 266.3,277.5 260.1,277.5 
			260.1,283.5 253.8,283.5 253.8,279.8 247.5,279.8 247.5,283.5 241.2,283.5 241.2,288 234.9,288 234.9,303 228.6,303 222.3,303 
			222.3,277.5 216,277.5 209.7,277.5 209.7,305.2 203.4,305.2 203.4,299.2 197.1,299.2 197.1,303 190.9,303 184.6,303 184.6,318.8 
			178.3,318.8 178.3,307.5 172,307.5 172,309.8 165.7,309.8 165.7,320.2 159.4,320.2 159.4,342 153.1,342 153.1,324.8 146.8,324.8 
			146.8,329.2 140.5,329.2 140.5,370.5 134.2,370.5 134.2,359.2 127.9,359.2 121.7,359.2 121.7,375 115.4,375 115.4,415.5 
			109.1,415.5 102.8,415.5 102.8,435 96.5,435 90.2,435 90.2,463.5 96.5,463.5 102.8,463.5 109.1,463.5 115.4,463.5 121.7,463.5 
			127.9,463.5 134.2,463.5 140.5,463.5 146.8,463.5 153.1,463.5 159.4,463.5 165.7,463.5 172,463.5 178.3,463.5 178.3,463.5 
			184.6,463.5 190.9,463.5 197.1,463.5 203.4,463.5 209.7,463.5 216,463.5 222.3,463.5 228.6,463.5 234.9,463.5 241.2,463.5 
			247.5,463.5 253.8,463.5 260.1,463.5 266.3,463.5 272.6,463.5 278.9,463.5 278.9,463.5 285.2,463.5 291.5,463.5 297.8,463.5 
			304.1,463.5 304.1,463.5 310.4,463.5 316.7,463.5 323,463.5 329.2,463.5 329.3,463.5 335.5,463.5 341.8,463.5 348.1,463.5 
			348.1,463.5 354.4,463.5 360.7,463.5 367,463.5 373.3,463.5 373.3,463.5 379.6,463.5 385.9,463.5 392.2,463.5 398.4,463.5 
			398.4,463.5 404.7,463.5 411,463.5 417.3,463.5 423.6,463.5 423.6,463.5 429.9,463.5 436.2,463.5 442.5,463.5 442.5,463.5 
			448.8,463.5 455.1,463.5 461.4,463.5 467.6,463.5 467.6,463.5 473.9,463.5 480.2,463.5 486.5,463.5 492.8,463.5 492.8,463.5 
			499.1,463.5 505.4,463.5 511.7,463.5 518,463.5 524.3,463.5 530.6,463.5 536.8,463.5 536.8,463.5 543.1,463.5 549.4,463.5 
			555.7,463.5 555.7,463.5 562,463.5 568.3,463.5 574.6,463.5 580.9,463.5 580.9,463.5 587.2,463.5 593.5,463.5 599.8,463.5 
			606,463.5 606,463.5 612.3,463.5 618.6,463.5 624.9,463.5 631.2,463.5 631.2,463.5 637.5,463.5 637.5,0 		"/>
		<line class="st4" x1="21" y1="463.5" x2="637.5" y2="463.5"/>
	</g>
	<g class="st0">
		<text transform="matrix(1 0 0 1 5.6426 423.0996)" class="st5 st6 st7">20</text>
	</g>
	<g class="st0">
		<text transform="matrix(1 0 0 1 5.6426 379.5996)" class="st5 st6 st7">40</text>
	</g>
	<g class="st0">
		<text transform="matrix(1 0 0 1 5.6426 336.8496)" class="st5 st6 st7">60</text>
	</g>
	<g class="st0">
		<text transform="matrix(1 0 0 1 5.6426 293.3496)" class="st5 st6 st7">80</text>
	</g>
	<g class="st0">
		<text transform="matrix(1 0 0 1 0.5889 249.8496)" class="st5 st6 st7">100</text>
	</g>
	<g class="st0">
		<text transform="matrix(1 0 0 1 0.5889 206.3496)" class="st5 st6 st7">120</text>
	</g>
	<g class="st0">
		<text transform="matrix(1 0 0 1 0.5889 163.5996)" class="st5 st6 st7">140</text>
	</g>
	<g class="st0">
		<text transform="matrix(1 0 0 1 0.5889 120.0996)" class="st5 st6 st7">160</text>
	</g>
	<g class="st0">
		<text transform="matrix(1 0 0 1 0.5889 76.5996)" class="st5 st6 st7">180</text>
	</g>
	<g class="st0">
		<text transform="matrix(1 0 0 1 0.5889 33.0996)" class="st5 st6 st7">200</text>
	</g>
</g>
<g>
	<text transform="matrix(1 0 0 1 617.6897 478.7684)" class="st8 st6 st7">6/16</text>
</g>
<g>
	<text transform="matrix(1 0 0 1 87.0254 478.7687)" class="st8 st6 st7">3/22</text>
</g>
</svg>
