<?xml version="1.0" encoding="utf-8"?>
<!-- Generator: Adobe Illustrator 23.0.1, SVG Export Plug-In . SVG Version: 6.00 Build 0)  -->
<svg version="1.1" id="Layer_1" xmlns="http://www.w3.org/2000/svg" xmlns:xlink="http://www.w3.org/1999/xlink" x="0px" y="0px"
	 viewBox="0 0 637.5 487.5" style="enable-background:new 0 0 637.5 487.5;" xml:space="preserve">
<style type="text/css">
	.st0{clip-path:url(#SVGID_2_);enable-background:new    ;}
	.st1{clip-path:url(#SVGID_4_);fill:none;stroke:#E8E8E8;stroke-width:0.75;stroke-miterlimit:10;}
	.st2{clip-path:url(#SVGID_4_);fill:#C71E1D;}
	.st3{clip-path:url(#SVGID_4_);fill:#C71E1D;fill-opacity:0.6;stroke:#000000;stroke-width:0.5;stroke-miterlimit:10;}
	.st4{clip-path:url(#SVGID_4_);fill:none;stroke:#333333;stroke-width:0.75;stroke-miterlimit:10;}
	.st5{clip-path:url(#SVGID_4_);}
	.st6{fill:#A6A6A6;}
	.st7{font-family:'Roboto-Regular';}
	.st8{font-size:9px;}
	.st9{fill:#333333;}
</style>
<g>
	<defs>
		<rect id="SVGID_1_" width="637.5" height="487.5"/>
	</defs>
	<clipPath id="SVGID_2_">
		<use xlink:href="#SVGID_1_"  style="overflow:visible;"/>
	</clipPath>
	<g class="st0">
		<g>
			<defs>
				<rect id="SVGID_3_" width="637.5" height="487.5"/>
			</defs>
			<clipPath id="SVGID_4_">
				<use xlink:href="#SVGID_3_"  style="overflow:visible;"/>
			</clipPath>
			<line class="st1" x1="21" y1="38.2" x2="637.5" y2="38.2"/>
			<line class="st1" x1="21" y1="81" x2="637.5" y2="81"/>
			<line class="st1" x1="21" y1="123" x2="637.5" y2="123"/>
			<line class="st1" x1="21" y1="165.8" x2="637.5" y2="165.8"/>
			<line class="st1" x1="21" y1="208.5" x2="637.5" y2="208.5"/>
			<line class="st1" x1="21" y1="251.2" x2="637.5" y2="251.2"/>
			<line class="st1" x1="21" y1="293.2" x2="637.5" y2="293.2"/>
			<line class="st1" x1="21" y1="336" x2="637.5" y2="336"/>
			<line class="st1" x1="21" y1="378.8" x2="637.5" y2="378.8"/>
			<line class="st1" x1="21" y1="420.8" x2="637.5" y2="420.8"/>
			<path class="st2" d="M21,463.5h9.9H21z"/>
			<path class="st2" d="M30.9,463.5h9.9H30.9z"/>
			<path class="st2" d="M40.9,463.5h9.9H40.9z"/>
			<path class="st2" d="M50.8,463.5h9.9H50.8z"/>
			<path class="st2" d="M60.8,463.5h9.9H60.8z"/>
			<path class="st2" d="M70.7,463.5h9.9H70.7z"/>
			<path class="st2" d="M80.7,463.5h9.9H80.7z"/>
			<path class="st2" d="M90.6,463.5h9.9H90.6z"/>
			<path class="st2" d="M100.5,463.5h9.9H100.5z"/>
			<path class="st2" d="M110.5,463.5h9.9H110.5z"/>
			<path class="st2" d="M120.4,463.5h9.9H120.4z"/>
			<polygon class="st3" points="627.5,204 627.5,191.2 617.6,191.2 617.6,191.2 607.6,191.2 607.6,165.8 597.7,165.8 597.7,165.8 
				587.8,165.8 587.8,170.2 577.8,170.2 577.8,84.8 567.9,84.8 567.9,76.5 557.9,76.5 557.9,46.5 548,46.5 548,38.2 538,38.2 
				538,59.2 528.1,59.2 528.1,59.2 518.2,59.2 518.2,68.2 508.2,68.2 508.2,21 498.3,21 498.3,0 488.3,0 488.3,8.2 478.4,8.2 
				478.4,21 468.4,21 458.5,21 458.5,33.8 448.5,33.8 448.5,51 438.6,51 438.6,97.5 428.7,97.5 428.7,68.2 418.7,68.2 418.7,89.2 
				408.8,89.2 408.8,97.5 398.9,97.5 398.9,110.2 388.9,110.2 388.9,102 379,102 379,110.2 369,110.2 369,119.2 359.1,119.2 
				359.1,148.5 349.1,148.5 339.2,148.5 339.2,97.5 329.3,97.5 329.2,97.5 319.3,97.5 319.3,153 309.4,153 309.4,140.2 299.4,140.2 
				299.4,148.5 289.5,148.5 279.5,148.5 279.5,178.5 269.6,178.5 269.6,157.5 259.6,157.5 259.6,161.2 249.7,161.2 249.7,183 
				239.8,183 239.8,225 229.8,225 229.8,191.2 219.9,191.2 219.9,199.5 209.9,199.5 209.9,280.5 200,280.5 200,259.5 190,259.5 
				180.1,259.5 180.1,289.5 170.2,289.5 170.2,369.8 160.2,369.8 160.2,369.8 150.3,369.8 150.3,408 140.3,408 140.3,408 130.4,408 
				130.4,463.5 140.3,463.5 140.3,463.5 150.3,463.5 150.3,463.5 160.2,463.5 160.2,463.5 170.2,463.5 180.1,463.5 190,463.5 
				200,463.5 209.9,463.5 219.9,463.5 219.9,463.5 229.8,463.5 239.8,463.5 239.8,463.5 249.7,463.5 249.7,463.5 259.6,463.5 
				269.6,463.5 269.6,463.5 279.5,463.5 289.5,463.5 299.4,463.5 309.4,463.5 319.3,463.5 329.2,463.5 329.3,463.5 339.2,463.5 
				339.2,463.5 349.1,463.5 359.1,463.5 369,463.5 379,463.5 388.9,463.5 398.9,463.5 398.9,463.5 408.8,463.5 418.7,463.5 
				418.7,463.5 428.7,463.5 438.6,463.5 438.6,463.5 448.5,463.5 448.6,463.5 458.5,463.5 468.4,463.5 478.4,463.5 488.3,463.5 
				498.3,463.5 508.2,463.5 518.2,463.5 528.1,463.5 528.1,463.5 538,463.5 538,463.5 548,463.5 548,463.5 557.9,463.5 557.9,463.5 
				567.9,463.5 567.9,463.5 577.8,463.5 577.8,463.5 587.8,463.5 587.8,463.5 597.7,463.5 597.7,463.5 607.6,463.5 617.6,463.5 
				617.6,463.5 627.5,463.5 627.5,463.5 637.5,463.5 637.5,204 			"/>
			<line class="st4" x1="21" y1="463.5" x2="637.5" y2="463.5"/>
			<g class="st5">
				<text transform="matrix(1 0 0 1 5.6426 423.0996)" class="st6 st7 st8">10</text>
			</g>
			<g class="st5">
				<text transform="matrix(1 0 0 1 5.6426 381.0996)" class="st6 st7 st8">20</text>
			</g>
			<g class="st5">
				<text transform="matrix(1 0 0 1 5.6426 338.3496)" class="st6 st7 st8">30</text>
			</g>
			<g class="st5">
				<text transform="matrix(1 0 0 1 5.6426 295.5996)" class="st6 st7 st8">40</text>
			</g>
			<g class="st5">
				<text transform="matrix(1 0 0 1 5.6426 253.5996)" class="st6 st7 st8">50</text>
			</g>
			<g class="st5">
				<text transform="matrix(1 0 0 1 5.6426 210.8496)" class="st6 st7 st8">60</text>
			</g>
			<g class="st5">
				<text transform="matrix(1 0 0 1 5.6426 168.0996)" class="st6 st7 st8">70</text>
			</g>
			<g class="st5">
				<text transform="matrix(1 0 0 1 5.6426 125.3496)" class="st6 st7 st8">80</text>
			</g>
			<g class="st5">
				<text transform="matrix(1 0 0 1 5.6426 83.3496)" class="st6 st7 st8">90</text>
			</g>
			<g class="st5">
				<text transform="matrix(1 0 0 1 0.5889 40.5996)" class="st6 st7 st8">100</text>
			</g>
		</g>
	</g>
</g>
<g>
	<text transform="matrix(1 0 0 1 126.5965 479.2555)" class="st9 st7 st8">3/22</text>
</g>
<g>
	<text transform="matrix(1 0 0 1 619.4377 479.2557)" class="st9 st7 st8">5/11</text>
</g>
</svg>
