<?xml version="1.0" encoding="utf-8"?>
<!-- Generator: Adobe Illustrator 23.0.1, SVG Export Plug-In . SVG Version: 6.00 Build 0)  -->
<svg version="1.1" id="Layer_1" xmlns="http://www.w3.org/2000/svg" xmlns:xlink="http://www.w3.org/1999/xlink" x="0px" y="0px"
	 viewBox="0 0 637.5 487.5" style="enable-background:new 0 0 637.5 487.5;" xml:space="preserve">
<style type="text/css">
	.st0{clip-path:url(#SVGID_2_);}
	.st1{clip-path:url(#SVGID_4_);fill:none;stroke:#E8E8E8;stroke-width:0.75;stroke-miterlimit:10;}
	.st2{clip-path:url(#SVGID_4_);fill:#C71E1D;}
	.st3{clip-path:url(#SVGID_4_);fill:#C71E1D;fill-opacity:0.6;stroke:#000000;stroke-width:0.5;stroke-miterlimit:10;}
	.st4{clip-path:url(#SVGID_4_);fill:none;stroke:#333333;stroke-width:0.75;stroke-miterlimit:10;}
	.st5{fill:#A6A6A6;}
	.st6{font-family:'Roboto-Regular';}
	.st7{font-size:9px;}
	.st8{fill:#333333;}
</style>
<g>
	<defs>
		<rect id="SVGID_1_" width="637.5" height="487.5"/>
	</defs>
	<clipPath id="SVGID_2_">
		<use xlink:href="#SVGID_1_"  style="overflow:visible;"/>
	</clipPath>
	<g class="st0">
		<defs>
			<rect id="SVGID_3_" width="637.5" height="483"/>
		</defs>
		<clipPath id="SVGID_4_">
			<use xlink:href="#SVGID_3_"  style="overflow:visible;"/>
		</clipPath>
		<line class="st1" x1="21" y1="36" x2="637.5" y2="36"/>
		<line class="st1" x1="21" y1="78.8" x2="637.5" y2="78.8"/>
		<line class="st1" x1="21" y1="121.5" x2="637.5" y2="121.5"/>
		<line class="st1" x1="21" y1="164.2" x2="637.5" y2="164.2"/>
		<line class="st1" x1="21" y1="207" x2="637.5" y2="207"/>
		<line class="st1" x1="21" y1="249.8" x2="637.5" y2="249.8"/>
		<line class="st1" x1="21" y1="292.5" x2="637.5" y2="292.5"/>
		<line class="st1" x1="21" y1="335.2" x2="637.5" y2="335.2"/>
		<line class="st1" x1="21" y1="378" x2="637.5" y2="378"/>
		<line class="st1" x1="21" y1="420.8" x2="637.5" y2="420.8"/>
		<path class="st2" d="M21,463.5h6.2H21z"/>
		<path class="st2" d="M27.2,463.5h6.2H27.2z"/>
		<path class="st2" d="M33.5,463.5h6.2H33.5z"/>
		<path class="st2" d="M39.7,463.5h6.2H39.7z"/>
		<path class="st2" d="M45.9,463.5h6.2H45.9z"/>
		<path class="st2" d="M52.1,463.5h6.2H52.1z"/>
		<path class="st2" d="M58.4,463.5h6.2H58.4z"/>
		<path class="st2" d="M64.6,463.5h6.2H64.6z"/>
		<path class="st2" d="M70.8,463.5H77H70.8z"/>
		<path class="st2" d="M77,463.5h6.2H77z"/>
		<path class="st2" d="M83.3,463.5h6.2H83.3z"/>
		<polygon class="st3" points="630,0 630,6.8 623.8,6.8 623.8,23.2 617.6,23.2 617.6,34.5 611.3,34.5 611.3,27.8 605.1,27.8 
			605.1,30 598.9,30 598.9,63.8 592.7,63.8 592.7,77.2 586.4,77.2 586.4,93.8 580.2,93.8 580.2,98.2 574,98.2 574,153.8 
			567.7,153.8 567.7,134.2 561.5,134.2 561.5,149.2 555.3,149.2 555.3,171 549.1,171 549.1,168.8 542.8,168.8 542.8,181.5 
			536.6,181.5 536.6,204.8 530.4,204.8 530.4,217.5 524.2,217.5 524.2,241.5 517.9,241.5 517.9,222 511.7,222 511.7,241.5 
			505.5,241.5 505.5,232.5 499.2,232.5 499.2,234.8 493,234.8 493,251.9 487,251.9 487,266.9 480.8,266.9 480.8,279.6 474.6,279.6 
			474.6,290.1 468.3,290.1 468.3,279.6 462.1,279.6 462.1,294.6 455.9,294.6 455.9,296.9 449.7,296.9 449.7,299.1 443.4,299.1 
			443.4,324.8 437.5,324.8 431.3,324.8 425,324.8 425,327 419.1,327 419.1,337.5 412.8,337.5 406.6,337.5 406.6,333 400.4,333 
			400.4,327 394.2,327 387.9,327 387.9,314.2 381.7,314.2 375.5,314.2 375.5,315.8 369.4,315.8 369.4,273.8 363.1,273.8 
			363.1,269.2 357,269.2 357,254.2 350.7,254.2 350.7,249.8 344.5,249.8 344.5,260.2 338.3,260.2 332.1,260.2 332.1,264.8 
			325.8,264.8 325.8,241.5 319.6,241.5 319.6,231 313.4,231 313.4,234.8 307.2,234.8 307.2,241.5 301.1,241.5 294.9,241.5 
			294.9,247.5 288.6,247.5 288.6,256.5 282.5,256.5 282.5,279.8 276.3,279.8 276.3,264.8 270.1,264.8 270.1,275.2 263.9,275.2 
			263.9,279.8 257.6,279.8 257.6,286.5 251.4,286.5 251.4,282 245.2,282 245.2,286.5 239,286.5 239,290.2 232.7,290.2 232.7,305.2 
			226.5,305.2 220.3,305.2 220.3,279.8 214,279.8 207.8,279.8 207.8,307.5 201.6,307.5 201.6,301.5 195.4,301.5 195.4,305.2 
			189.1,305.2 182.9,305.2 182.9,320.2 176.7,320.2 176.7,309.8 170.5,309.8 170.5,312 164.2,312 164.2,322.5 158,322.5 158,344.2 
			151.8,344.2 151.8,327 145.5,327 145.5,330.8 139.3,330.8 139.3,372 133.1,372 133.1,360.8 126.9,360.8 120.6,360.8 120.6,375.8 
			114.4,375.8 114.4,416.2 108.2,416.2 102,416.2 102,435.8 95.7,435.8 89.5,435.8 89.5,463.5 95.7,463.5 102,463.5 108.2,463.5 
			114.4,463.5 120.6,463.5 126.9,463.5 133.1,463.5 139.3,463.5 145.5,463.5 151.8,463.5 151.8,463.5 158,463.5 164.2,463.5 
			170.5,463.5 170.5,463.5 176.7,463.5 182.9,463.5 189.1,463.5 195.4,463.5 201.6,463.5 207.8,463.5 214,463.5 220.3,463.5 
			220.3,463.5 226.5,463.5 232.7,463.5 239,463.5 239,463.5 245.2,463.5 251.4,463.5 257.6,463.5 263.9,463.5 270.1,463.5 
			276.3,463.5 282.5,463.5 288.6,463.5 288.8,463.5 294.9,463.5 301.1,463.5 307.2,463.5 307.3,463.5 313.4,463.5 319.6,463.5 
			325.8,463.5 332.1,463.5 338.3,463.5 344.5,463.5 350.7,463.5 356.9,463.5 357,463.5 363.1,463.5 369.4,463.5 375.5,463.5 
			375.6,463.5 381.7,463.5 387.9,463.5 394.2,463.5 400.4,463.5 406.6,463.5 412.8,463.5 419.1,463.5 425,463.5 425.3,463.5 
			431.3,463.5 437.5,463.5 443.7,463.5 443.7,463.4 449.7,463.4 455.9,463.4 462.1,463.4 468.3,463.4 474.6,463.4 480.8,463.4 
			487,463.4 493,463.4 493,463.5 499.2,463.5 505.5,463.5 511.7,463.5 517.9,463.5 524.2,463.5 530.4,463.5 530.4,463.5 
			536.6,463.5 542.8,463.5 542.8,463.5 549.1,463.5 555.3,463.5 561.5,463.5 561.5,463.5 567.7,463.5 574,463.5 580.2,463.5 
			580.2,463.5 586.4,463.5 592.7,463.5 598.9,463.5 598.9,463.5 605.1,463.5 611.3,463.5 611.3,463.5 617.6,463.5 623.8,463.5 
			630,463.5 630,463.5 636.2,463.5 636.2,0 		"/>
		<line class="st4" x1="21" y1="463.5" x2="637.5" y2="463.5"/>
	</g>
	<g class="st0">
		<text transform="matrix(1 0 0 1 5.6426 423.8496)" class="st5 st6 st7">20</text>
	</g>
	<g class="st0">
		<text transform="matrix(1 0 0 1 5.6426 381.0996)" class="st5 st6 st7">40</text>
	</g>
	<g class="st0">
		<text transform="matrix(1 0 0 1 5.6426 338.3496)" class="st5 st6 st7">60</text>
	</g>
	<g class="st0">
		<text transform="matrix(1 0 0 1 5.6426 295.5996)" class="st5 st6 st7">80</text>
	</g>
	<g class="st0">
		<text transform="matrix(1 0 0 1 0.5889 252.8496)" class="st5 st6 st7">100</text>
	</g>
	<g class="st0">
		<text transform="matrix(1 0 0 1 0.5889 210.0996)" class="st5 st6 st7">120</text>
	</g>
	<g class="st0">
		<text transform="matrix(1 0 0 1 0.5889 167.3496)" class="st5 st6 st7">140</text>
	</g>
	<g class="st0">
		<text transform="matrix(1 0 0 1 0.5889 124.5996)" class="st5 st6 st7">160</text>
	</g>
	<g class="st0">
		<text transform="matrix(1 0 0 1 0.5889 81.8496)" class="st5 st6 st7">180</text>
	</g>
	<g class="st0">
		<text transform="matrix(1 0 0 1 0.5889 39.0996)" class="st5 st6 st7">200</text>
	</g>
</g>
<g>
	<text transform="matrix(1 0 0 1 617.6229 478.1185)" class="st8 st6 st7">6/17</text>
</g>
<g>
	<text transform="matrix(1 0 0 1 85.3091 478.1188)" class="st8 st6 st7">3/22</text>
</g>
</svg>
