<?xml version="1.0" encoding="utf-8"?>
<!-- Generator: Adobe Illustrator 23.0.1, SVG Export Plug-In . SVG Version: 6.00 Build 0)  -->
<svg version="1.1" id="Layer_1" xmlns="http://www.w3.org/2000/svg" xmlns:xlink="http://www.w3.org/1999/xlink" x="0px" y="0px"
	 viewBox="0 0 637.5 487.5" style="enable-background:new 0 0 637.5 487.5;" xml:space="preserve">
<style type="text/css">
	.st0{clip-path:url(#SVGID_2_);}
	.st1{clip-path:url(#SVGID_4_);fill:none;stroke:#E8E8E8;stroke-width:0.75;stroke-miterlimit:10;}
	.st2{clip-path:url(#SVGID_4_);fill:#C71E1D;}
	.st3{clip-path:url(#SVGID_4_);fill:#C71E1D;fill-opacity:0.6;stroke:#000000;stroke-width:0.5;stroke-miterlimit:10;}
	.st4{clip-path:url(#SVGID_4_);fill:none;stroke:#333333;stroke-width:0.75;stroke-miterlimit:10;}
	.st5{fill:#A6A6A6;}
	.st6{font-family:'Roboto-Regular';}
	.st7{font-size:9px;}
	.st8{fill:#333333;}
</style>
<g>
	<defs>
		<rect id="SVGID_1_" width="637.5" height="487.5"/>
	</defs>
	<clipPath id="SVGID_2_">
		<use xlink:href="#SVGID_1_"  style="overflow:visible;"/>
	</clipPath>
	<g class="st0">
		<defs>
			<rect id="SVGID_3_" width="637.5" height="483"/>
		</defs>
		<clipPath id="SVGID_4_">
			<use xlink:href="#SVGID_3_"  style="overflow:visible;"/>
		</clipPath>
		<line class="st1" x1="21" y1="38.2" x2="637.5" y2="38.2"/>
		<line class="st1" x1="21" y1="81" x2="637.5" y2="81"/>
		<line class="st1" x1="21" y1="123" x2="637.5" y2="123"/>
		<line class="st1" x1="21" y1="165.8" x2="637.5" y2="165.8"/>
		<line class="st1" x1="21" y1="208.5" x2="637.5" y2="208.5"/>
		<line class="st1" x1="21" y1="251.2" x2="637.5" y2="251.2"/>
		<line class="st1" x1="21" y1="293.2" x2="637.5" y2="293.2"/>
		<line class="st1" x1="21" y1="336" x2="637.5" y2="336"/>
		<line class="st1" x1="21" y1="378.8" x2="637.5" y2="378.8"/>
		<line class="st1" x1="21" y1="420.8" x2="637.5" y2="420.8"/>
		<path class="st2" d="M21,463.5h9.3H21z"/>
		<path class="st2" d="M30.3,463.5h9.3H30.3z"/>
		<path class="st2" d="M39.7,463.5H49H39.7z"/>
		<path class="st2" d="M49,463.5h9.3H49z"/>
		<path class="st2" d="M58.4,463.5h9.3H58.4z"/>
		<path class="st2" d="M67.7,463.5H77H67.7z"/>
		<path class="st2" d="M77,463.5h9.3H77z"/>
		<path class="st2" d="M86.4,463.5h9.3H86.4z"/>
		<path class="st2" d="M95.7,463.5h9.3H95.7z"/>
		<path class="st2" d="M105.1,463.5h9.3H105.1z"/>
		<path class="st2" d="M114.4,463.5h9.3H114.4z"/>
		<polygon class="st3" points="627.6,186.8 627.6,191.4 618.4,191.4 618.4,212.4 609.2,212.4 609.1,212.4 599.8,212.4 599.8,204.1 
			590.7,204.1 590.7,191.2 581.4,191.2 572.2,191.2 572.2,165.8 562.8,165.8 553.5,165.8 553.5,170.2 544.3,170.2 544.3,84.8 
			534.9,84.8 534.9,76.5 525.7,76.5 525.7,46.5 516.4,46.5 516.4,38.2 507.1,38.2 507.1,59.2 497.8,59.2 488.5,59.2 488.5,68.2 
			479.3,68.2 479.3,21 470,21 470,0 460.6,0 460.6,8.2 451.5,8.2 451.5,21 442.2,21 442.1,21 432.9,21 432.9,33.8 423.5,33.8 
			423.5,51.1 414.3,51.1 414.3,97.6 405,97.6 405,68.2 395.7,68.2 395.7,89.2 386.4,89.2 386.4,97.5 377,97.5 377,110.2 
			367.8,110.2 367.8,102 358.4,102 358.4,110.2 349.2,110.2 349.2,119.2 339.9,119.2 339.9,148.5 330.6,148.5 321.4,148.5 
			321.4,97.5 312,97.5 302.7,97.5 302.7,153 293.4,153 293.4,140.2 284.1,140.2 284.1,148.5 274.8,148.5 274.8,148.5 265.5,148.5 
			265.5,178.5 256.2,178.5 256.2,157.5 246.9,157.5 246.9,161.2 237.5,161.2 237.5,183.1 228.3,183.1 228.3,225.1 219,225.1 
			219,191.2 209.7,191.2 209.7,199.5 200.4,199.5 200.4,280.5 191.1,280.5 191.1,259.5 181.8,259.5 181.8,259.5 172.5,259.5 
			172.5,289.5 163.1,289.5 163.1,369.8 153.8,369.8 144.5,369.8 144.5,408 135.2,408 135.1,408 125.8,408 125.8,463.5 135.1,463.5 
			135.2,463.5 144.5,463.5 153.8,463.5 163.1,463.5 163.2,463.5 172.5,463.5 181.8,463.5 181.8,463.5 191.1,463.5 200.4,463.5 
			200.5,463.5 209.7,463.5 218.9,463.5 218.9,463.6 228.3,463.6 237.6,463.6 237.6,463.5 246.9,463.5 256.2,463.5 265.5,463.5 
			265.5,463.5 274.8,463.5 274.8,463.5 284.1,463.5 293.4,463.5 302.7,463.5 302.8,463.5 312,463.5 321.3,463.5 321.4,463.5 
			330.6,463.5 339.9,463.5 340,463.5 349.2,463.5 358.4,463.5 358.5,463.5 367.8,463.5 377,463.5 377.1,463.5 386.4,463.5 
			395.7,463.5 404.9,463.5 404.9,463.6 414.3,463.6 423.6,463.6 423.6,463.5 432.9,463.5 442.1,463.5 442.2,463.5 451.5,463.5 
			460.6,463.5 460.8,463.5 470,463.5 479.2,463.5 479.3,463.5 488.5,463.5 497.8,463.5 507.1,463.5 507.2,463.5 516.3,463.5 
			516.4,463.5 525.6,463.5 525.7,463.5 534.9,463.5 544.3,463.5 553.5,463.5 553.6,463.5 562.8,463.5 572.1,463.5 572.2,463.5 
			581.4,463.5 590.5,463.5 590.5,463.6 599.8,463.6 609.1,463.6 609.2,463.6 618.4,463.6 627.7,463.6 627.7,463.5 637,463.5 
			637,186.8 		"/>
		<line class="st4" x1="21" y1="463.5" x2="637.5" y2="463.5"/>
	</g>
	<g class="st0">
		<text transform="matrix(1 0 0 1 5.2559 423.0996)" class="st5 st6 st7">10</text>
	</g>
	<g class="st0">
		<text transform="matrix(1 0 0 1 5.2559 381.0996)" class="st5 st6 st7">20</text>
	</g>
	<g class="st0">
		<text transform="matrix(1 0 0 1 5.2559 338.3496)" class="st5 st6 st7">30</text>
	</g>
	<g class="st0">
		<text transform="matrix(1 0 0 1 5.2559 295.5996)" class="st5 st6 st7">40</text>
	</g>
	<g class="st0">
		<text transform="matrix(1 0 0 1 5.2559 253.5996)" class="st5 st6 st7">50</text>
	</g>
	<g class="st0">
		<text transform="matrix(1 0 0 1 5.2559 210.8496)" class="st5 st6 st7">60</text>
	</g>
	<g class="st0">
		<text transform="matrix(1 0 0 1 5.2559 168.0996)" class="st5 st6 st7">70</text>
	</g>
	<g class="st0">
		<text transform="matrix(1 0 0 1 5.2559 125.3496)" class="st5 st6 st7">80</text>
	</g>
	<g class="st0">
		<text transform="matrix(1 0 0 1 5.2559 83.3496)" class="st5 st6 st7">90</text>
	</g>
	<g class="st0">
		<text transform="matrix(1 0 0 1 2.929688e-03 40.5996)" class="st5 st6 st7">100</text>
	</g>
</g>
<g>
	<text transform="matrix(1 0 0 1 123.1172 478.3535)" class="st8 st6 st7">3/22</text>
</g>
<g>
	<text transform="matrix(1 0 0 1 618.3412 478.3531)" class="st8 st6 st7">5/15</text>
</g>
</svg>
