<?xml version="1.0" encoding="utf-8"?>
<!-- Generator: Adobe Illustrator 23.0.1, SVG Export Plug-In . SVG Version: 6.00 Build 0)  -->
<svg version="1.1" id="Layer_1" xmlns="http://www.w3.org/2000/svg" xmlns:xlink="http://www.w3.org/1999/xlink" x="0px" y="0px"
	 viewBox="0 0 600 450" style="enable-background:new 0 0 600 450;" xml:space="preserve">
<style type="text/css">
	.st0{clip-path:url(#SVGID_2_);enable-background:new    ;}
	.st1{clip-path:url(#SVGID_4_);fill:none;stroke:#E8E8E8;stroke-width:0.75;stroke-miterlimit:10;}
	.st2{clip-path:url(#SVGID_4_);fill:#C71E1D;}
	.st3{clip-path:url(#SVGID_4_);fill:#C71E1D;fill-opacity:0.6;stroke:#000000;stroke-width:0.75;stroke-miterlimit:10;}
	.st4{clip-path:url(#SVGID_4_);fill:none;stroke:#333333;stroke-width:0.75;stroke-miterlimit:10;}
	.st5{clip-path:url(#SVGID_4_);}
	.st6{fill:#A6A6A6;}
	.st7{font-family:'Roboto-Regular';}
	.st8{font-size:9px;}
	.st9{fill:#333333;}
</style>
<g>
	<defs>
		<rect id="SVGID_1_" x="0" width="600" height="450"/>
	</defs>
	<clipPath id="SVGID_2_">
		<use xlink:href="#SVGID_1_"  style="overflow:visible;"/>
	</clipPath>
	<g class="st0">
		<g>
			<defs>
				<rect id="SVGID_3_" x="0" width="600" height="450"/>
			</defs>
			<clipPath id="SVGID_4_">
				<use xlink:href="#SVGID_3_"  style="overflow:visible;"/>
			</clipPath>
			<line class="st1" x1="21" y1="49.5" x2="600" y2="49.5"/>
			<line class="st1" x1="21" y1="125.2" x2="600" y2="125.2"/>
			<line class="st1" x1="21" y1="200.2" x2="600" y2="200.2"/>
			<line class="st1" x1="21" y1="275.2" x2="600" y2="275.2"/>
			<line class="st1" x1="21" y1="351" x2="600" y2="351"/>
			<path class="st2" d="M21,426h10.5H21z"/>
			<path class="st2" d="M31.5,426h10.5H31.5z"/>
			<path class="st2" d="M42.1,426h10.5H42.1z"/>
			<path class="st2" d="M52.6,426h10.5H52.6z"/>
			<path class="st2" d="M63.1,426h10.5H63.1z"/>
			<path class="st2" d="M73.6,426h10.5H73.6z"/>
			<path class="st2" d="M84.2,426h10.5H84.2z"/>
			<path class="st2" d="M94.7,426h10.5H94.7z"/>
			<path class="st2" d="M105.2,426h10.5H105.2z"/>
			<path class="st2" d="M115.7,426h10.5H115.7z"/>
			<path class="st2" d="M126.3,426h10.5H126.3z"/>
			<polygon class="st3" points="589.5,83.2 589.5,57 578.9,57 578.9,49.5 568.4,49.5 568.4,68.2 557.9,68.2 547.4,68.2 547.4,75.8 
				536.8,75.8 536.8,34.5 526.3,34.5 526.3,15.8 515.8,15.8 515.8,23.2 505.3,23.2 505.3,34.5 494.7,34.5 484.2,34.5 484.2,45.8 
				473.7,45.8 473.7,60.8 463.1,60.8 463.1,102 452.6,102 452.6,75.8 442.1,75.8 442.1,94.5 431.6,94.5 431.6,102 421,102 
				421,113.2 410.5,113.2 410.5,105.8 400,105.8 400,113.2 389.5,113.2 389.5,121.5 378.9,121.5 378.9,147.8 368.4,147.8 
				357.9,147.8 357.9,102 347.3,102 347.3,102 336.8,102 336.8,151.5 326.3,151.5 326.3,140.2 315.8,140.2 315.8,147.8 305.2,147.8 
				305.2,147.8 294.7,147.8 294.7,174 284.2,174 284.2,155.2 273.7,155.2 273.7,159 263.1,159 263.1,177.8 252.6,177.8 252.6,215.2 
				242.1,215.2 242.1,185.2 231.5,185.2 231.5,192.8 221,192.8 221,264 210.5,264 210.5,245.2 200,245.2 189.4,245.2 189.4,271.5 
				178.9,271.5 178.9,343.5 168.4,343.5 157.9,343.5 157.9,377.2 147.3,377.2 136.8,377.2 136.8,426 147.3,426 157.9,426 168.4,426 
				178.9,426 189.4,426 189.4,426 200,426 210.5,426 210.5,426 221,426 231.5,426 242.1,426 252.6,426 252.6,426 263.1,426 
				273.7,426 273.7,426 284.2,426 284.2,426 294.7,426 294.7,426 305.2,426 305.2,426 315.8,426 326.3,426 326.3,426 336.8,426 
				336.8,426 347.3,426 347.3,426 357.9,426 357.9,426 368.4,426 378.9,426 389.5,426 389.5,426 400,426 400,426 410.5,426 
				410.5,426 421,426 421,426 431.6,426 431.6,426 442.1,426 452.6,426 452.6,426 463.1,426 463.1,426 473.7,426 484.2,426 
				484.2,426 494.7,426 505.3,426 515.8,426 526.3,426 536.8,426 536.8,426 547.4,426 557.9,426 568.4,426 578.9,426 578.9,426 
				589.5,426 600,426 600,83.2 			"/>
			<line class="st4" x1="21" y1="426" x2="600" y2="426"/>
			<g class="st5">
				<text transform="matrix(1 0 0 1 5.6426 353.3496)" class="st6 st7 st8">20</text>
			</g>
			<g class="st5">
				<text transform="matrix(1 0 0 1 5.6426 277.5996)" class="st6 st7 st8">40</text>
			</g>
			<g class="st5">
				<text transform="matrix(1 0 0 1 5.6426 202.5996)" class="st6 st7 st8">60</text>
			</g>
			<g class="st5">
				<text transform="matrix(1 0 0 1 5.6426 127.5996)" class="st6 st7 st8">80</text>
			</g>
			<g class="st5">
				<text transform="matrix(1 0 0 1 0.5889 51.8496)" class="st6 st7 st8">100</text>
			</g>
			<g class="st5">
				<text transform="matrix(1 0 0 1 132.7068 437.9426)" class="st9 st7 st8">3/22</text>
			</g>
		</g>
	</g>
</g>
</svg>
