<?xml version="1.0" encoding="utf-8"?>
<!-- Generator: Adobe Illustrator 23.0.1, SVG Export Plug-In . SVG Version: 6.00 Build 0)  -->
<svg version="1.1" id="Layer_1" xmlns="http://www.w3.org/2000/svg" xmlns:xlink="http://www.w3.org/1999/xlink" x="0px" y="0px"
	 viewBox="0 0 637.5 487.5" style="enable-background:new 0 0 637.5 487.5;" xml:space="preserve">
<style type="text/css">
	.st0{clip-path:url(#SVGID_2_);}
	.st1{clip-path:url(#SVGID_4_);fill:none;stroke:#E8E8E8;stroke-width:0.75;stroke-miterlimit:10;}
	.st2{clip-path:url(#SVGID_4_);fill:#C71E1D;}
	.st3{clip-path:url(#SVGID_4_);fill:#C71E1D;fill-opacity:0.6;stroke:#000000;stroke-width:0.5;stroke-miterlimit:10;}
	.st4{clip-path:url(#SVGID_4_);fill:none;stroke:#333333;stroke-width:0.75;stroke-miterlimit:10;}
	.st5{fill:#A6A6A6;}
	.st6{font-family:'Roboto-Regular';}
	.st7{font-size:9px;}
	.st8{fill:#333333;}
</style>
<g>
	<defs>
		<rect id="SVGID_1_" width="637.5" height="487.5"/>
	</defs>
	<clipPath id="SVGID_2_">
		<use xlink:href="#SVGID_1_"  style="overflow:visible;"/>
	</clipPath>
	<g class="st0">
		<defs>
			<rect id="SVGID_3_" width="637.5" height="483"/>
		</defs>
		<clipPath id="SVGID_4_">
			<use xlink:href="#SVGID_3_"  style="overflow:visible;"/>
		</clipPath>
		<line class="st1" x1="21" y1="42" x2="637.5" y2="42"/>
		<line class="st1" x1="21" y1="112.5" x2="637.5" y2="112.5"/>
		<line class="st1" x1="21" y1="182.2" x2="637.5" y2="182.2"/>
		<line class="st1" x1="21" y1="252.8" x2="637.5" y2="252.8"/>
		<line class="st1" x1="21" y1="323.2" x2="637.5" y2="323.2"/>
		<line class="st1" x1="21" y1="393" x2="637.5" y2="393"/>
		<path class="st2" d="M21,463.5h7.3H21z"/>
		<path class="st2" d="M28.3,463.5h7.3H28.3z"/>
		<path class="st2" d="M35.7,463.5H43H35.7z"/>
		<path class="st2" d="M43,463.5h7.3H43z"/>
		<path class="st2" d="M50.4,463.5h7.3H50.4z"/>
		<path class="st2" d="M57.7,463.5H65H57.7z"/>
		<path class="st2" d="M65,463.5h7.3H65z"/>
		<path class="st2" d="M72.4,463.5h7.3H72.4z"/>
		<path class="st2" d="M79.7,463.5h7.3H79.7z"/>
		<path class="st2" d="M87.1,463.5h7.3H87.1z"/>
		<path class="st2" d="M94.4,463.5h7.3H94.4z"/>
		<polygon class="st3" points="629.6,0 629.6,38.2 622.2,38.2 622.2,60 614.9,60 614.9,98.2 607.6,98.2 607.6,66.8 600.2,66.8 
			600.2,98.2 592.9,98.2 592.9,84 585.5,84 585.5,87.8 578.2,87.8 578.2,115.5 570.9,115.5 570.9,140.2 563.5,140.2 563.5,161.2 
			556.2,161.2 556.2,179.2 548.9,179.2 548.9,161.2 541.5,161.2 541.5,186 534.2,186 534.2,189.8 526.8,189.8 526.8,192.8 
			519.5,192.8 519.5,235.5 512.2,235.5 504.8,235.5 497.5,235.5 497.5,238.5 490.1,238.5 490.1,256.5 482.8,256.5 475.5,256.5 
			475.5,249 468.1,249 468.1,238.5 460.8,238.5 453.4,238.5 453.4,217.5 446.1,217.5 438.8,217.5 438.8,221.2 431.4,221.2 
			431.4,150.8 424.1,150.8 424.1,144 416.7,144 416.7,119.2 409.4,119.2 409.4,112.5 402.1,112.5 402.1,129.8 394.7,129.8 
			387.4,129.8 387.4,137.2 380,137.2 380,98.2 372.7,98.2 372.7,81 365.4,81 365.4,87.8 358,87.8 358,98.2 350.7,98.2 343.4,98.2 
			343.4,108.8 336,108.8 336,123 328.7,123 328.7,161.2 321.3,161.2 321.3,137.2 314,137.2 314,154.5 306.7,154.5 306.7,161.2 
			299.3,161.2 299.3,171.8 292,171.8 292,165 284.6,165 284.6,171.8 277.3,171.8 277.3,179.2 270,179.2 270,204 262.6,204 
			255.6,204 255.6,161.2 248.2,161.2 240.9,161.2 240.9,207 233.6,207 233.6,196.5 226.2,196.5 226.2,204 218.9,204 211.5,204 
			211.5,228 204.3,228 204.3,210.8 197,210.8 197,214.5 189.7,214.5 189.7,231.8 182.3,231.8 182.3,267 175,267 175,238.5 
			167.6,238.5 167.6,246 160.3,246 160.3,312.8 153.1,312.8 153.1,294.8 145.8,294.8 138.4,294.8 138.4,319.5 131.1,319.5 
			131.1,386.2 123.8,386.2 116.4,386.2 116.4,417.8 109.1,417.8 101.7,417.8 101.7,463.5 109.1,463.5 116.4,463.5 123.8,463.5 
			131.1,463.5 138.4,463.5 145.8,463.5 153,463.5 153.1,463.5 160.3,463.5 167.6,463.5 175,463.5 182.3,463.5 189.7,463.5 
			197,463.5 204.2,463.5 204.3,463.5 211.5,463.5 218.9,463.5 226.2,463.5 233.6,463.5 240.9,463.5 248.2,463.5 255.3,463.5 
			255.6,463.5 262.6,463.5 270,463.5 270,463.5 277.3,463.5 284.6,463.5 292,463.5 299.3,463.5 306.7,463.5 314,463.5 321.3,463.5 
			321.3,463.5 328.7,463.5 336,463.5 343.4,463.5 350.7,463.5 358,463.5 365.4,463.5 372.7,463.5 372.7,463.5 380,463.5 
			387.4,463.5 394.7,463.5 402.1,463.5 409.4,463.5 416.7,463.5 424.1,463.5 424.1,463.5 431.4,463.5 438.8,463.5 446.1,463.5 
			453.4,463.5 460.8,463.5 468.1,463.5 475.5,463.5 475.5,463.5 482.8,463.5 490.1,463.5 497.5,463.5 504.8,463.5 512.2,463.5 
			519.5,463.5 526.8,463.5 534.2,463.5 541.5,463.5 548.9,463.5 556.2,463.5 563.5,463.5 563.5,463.5 570.9,463.5 578.2,463.5 
			585.5,463.5 592.9,463.5 600.2,463.5 607.6,463.5 614.9,463.5 614.9,463.5 622.2,463.5 629.6,463.5 636.9,463.5 636.9,0 		"/>
		<line class="st4" x1="21" y1="463.5" x2="637.5" y2="463.5"/>
	</g>
	<g class="st0">
		<text transform="matrix(1 0 0 1 5.2559 395.3496)" class="st5 st6 st7">20</text>
	</g>
	<g class="st0">
		<text transform="matrix(1 0 0 1 5.2559 325.5996)" class="st5 st6 st7">40</text>
	</g>
	<g class="st0">
		<text transform="matrix(1 0 0 1 5.2559 255.0996)" class="st5 st6 st7">60</text>
	</g>
	<g class="st0">
		<text transform="matrix(1 0 0 1 5.2559 184.5996)" class="st5 st6 st7">80</text>
	</g>
	<g class="st0">
		<text transform="matrix(1 0 0 1 2.929688e-03 114.8496)" class="st5 st6 st7">100</text>
	</g>
	<g class="st0">
		<text transform="matrix(1 0 0 1 2.929688e-03 44.3496)" class="st5 st6 st7">120</text>
	</g>
</g>
<g>
	<text transform="matrix(1 0 0 1 622.6361 479.1313)" class="st8 st6 st7">6/2</text>
</g>
<g>
	<text transform="matrix(1 0 0 1 96.0817 479.1314)" class="st8 st6 st7">3/22</text>
</g>
</svg>
