<?xml version="1.0" encoding="utf-8"?>
<!-- Generator: Adobe Illustrator 23.0.1, SVG Export Plug-In . SVG Version: 6.00 Build 0)  -->
<svg version="1.1" id="Layer_1" xmlns="http://www.w3.org/2000/svg" xmlns:xlink="http://www.w3.org/1999/xlink" x="0px" y="0px"
	 viewBox="0 0 637.5 487.5" style="enable-background:new 0 0 637.5 487.5;" xml:space="preserve">
<style type="text/css">
	.st0{clip-path:url(#SVGID_2_);}
	.st1{clip-path:url(#SVGID_4_);fill:none;stroke:#E8E8E8;stroke-width:0.75;stroke-miterlimit:10;}
	.st2{clip-path:url(#SVGID_4_);fill:#C71E1D;}
	.st3{clip-path:url(#SVGID_4_);fill:#C71E1D;fill-opacity:0.6;stroke:#000000;stroke-width:0.5;stroke-miterlimit:10;}
	.st4{clip-path:url(#SVGID_4_);fill:none;stroke:#333333;stroke-width:0.75;stroke-miterlimit:10;}
	.st5{fill:#A6A6A6;}
	.st6{font-family:'Roboto-Regular';}
	.st7{font-size:9px;}
	.st8{fill:#333333;}
</style>
<g>
	<defs>
		<rect id="SVGID_1_" width="637.5" height="487.5"/>
	</defs>
	<clipPath id="SVGID_2_">
		<use xlink:href="#SVGID_1_"  style="overflow:visible;"/>
	</clipPath>
	<g class="st0">
		<defs>
			<rect id="SVGID_3_" width="637.5" height="483"/>
		</defs>
		<clipPath id="SVGID_4_">
			<use xlink:href="#SVGID_3_"  style="overflow:visible;"/>
		</clipPath>
		<line class="st1" x1="21" y1="38.2" x2="637.5" y2="38.2"/>
		<line class="st1" x1="21" y1="81" x2="637.5" y2="81"/>
		<line class="st1" x1="21" y1="123" x2="637.5" y2="123"/>
		<line class="st1" x1="21" y1="165.8" x2="637.5" y2="165.8"/>
		<line class="st1" x1="21" y1="208.5" x2="637.5" y2="208.5"/>
		<line class="st1" x1="21" y1="251.2" x2="637.5" y2="251.2"/>
		<line class="st1" x1="21" y1="293.2" x2="637.5" y2="293.2"/>
		<line class="st1" x1="21" y1="336" x2="637.5" y2="336"/>
		<line class="st1" x1="21" y1="378.8" x2="637.5" y2="378.8"/>
		<line class="st1" x1="21" y1="420.8" x2="637.5" y2="420.8"/>
		<path class="st2" d="M21,463.5h9.1H21z"/>
		<path class="st2" d="M30.1,463.5h9.1H30.1z"/>
		<path class="st2" d="M39.1,463.5h9.1H39.1z"/>
		<path class="st2" d="M48.2,463.5h9.1H48.2z"/>
		<path class="st2" d="M57.3,463.5h9.1H57.3z"/>
		<path class="st2" d="M66.3,463.5h9.1H66.3z"/>
		<path class="st2" d="M75.4,463.5h9.1H75.4z"/>
		<path class="st2" d="M84.5,463.5h9.1H84.5z"/>
		<path class="st2" d="M93.5,463.5h9.1H93.5z"/>
		<path class="st2" d="M102.6,463.5h9.1H102.6z"/>
		<path class="st2" d="M111.7,463.5h9.1H111.7z"/>
		<polygon class="st3" points="627.4,186.8 618.5,186.8 618.4,186.8 609.4,186.8 609.4,191.2 600.3,191.2 600.3,212.2 591.3,212.2 
			582.3,212.2 582.3,204.1 573.2,204.1 573.2,191.3 564.2,191.3 555.1,191.3 555.1,165.8 546,165.8 546,165.8 537,165.8 537,170.3 
			528,170.3 528,84.8 518.9,84.8 518.9,76.5 509.9,76.5 509.9,46.5 500.9,46.5 500.9,38.2 491.8,38.2 491.8,59.2 482.7,59.2 
			473.7,59.2 473.7,68.2 464.6,68.2 464.6,21 455.6,21 455.6,0 446.5,0 446.5,8.2 437.5,8.2 437.5,21 428.4,21 419.3,21 419.3,33.8 
			410.3,33.8 410.3,51 401.2,51 401.2,97.5 392.2,97.5 392.2,68.2 383.1,68.2 383.1,89.2 374.1,89.2 374.1,97.5 365,97.5 365,110.2 
			356,110.2 356,102 346.9,102 346.9,110.2 337.9,110.2 337.9,119.2 328.8,119.2 328.8,148.5 319.7,148.5 310.7,148.5 310.7,97.5 
			301.7,97.5 301.6,97.5 292.6,97.5 292.6,153 283.5,153 283.5,140.2 274.5,140.2 274.5,148.5 265.5,148.5 265.4,148.5 256.4,148.5 
			256.4,178.5 247.4,178.5 247.4,157.5 238.3,157.5 238.3,161.2 229.3,161.2 229.3,183 220.3,183 220.3,225 211.2,225 211.2,191.2 
			202.1,191.2 202.1,199.4 193.1,199.4 193.1,280.5 184.1,280.5 184.1,259.5 175,259.5 166,259.5 166,289.6 156.9,289.6 
			156.9,369.8 147.9,369.8 138.9,369.8 138.9,408 129.8,408 120.7,408 120.7,463.5 129.8,463.5 138.9,463.5 147.9,463.5 
			156.9,463.5 156.9,463.6 166,463.6 166,463.5 175,463.5 184.1,463.5 193.2,463.5 193.2,463.4 202.1,463.4 202.1,463.5 
			211.2,463.5 220.3,463.5 229.3,463.5 229.3,463.5 238.3,463.5 238.3,463.5 247.4,463.5 256.4,463.5 265.4,463.5 265.5,463.5 
			274.5,463.5 283.5,463.5 292.6,463.5 301.6,463.5 301.7,463.5 310.7,463.5 319.7,463.5 328.8,463.5 337.9,463.5 346.9,463.5 
			346.9,463.5 356,463.5 365,463.5 374.1,463.5 383.1,463.5 383.2,463.5 392.2,463.5 401.2,463.5 410.3,463.5 419.3,463.5 
			419.4,463.5 428.4,463.5 437.5,463.5 446.5,463.5 455.5,463.5 455.6,463.5 464.6,463.5 473.7,463.5 482.7,463.5 491.8,463.5 
			500.8,463.5 500.9,463.5 509.9,463.5 518.9,463.5 518.9,463.6 528,463.6 537,463.6 546.1,463.6 546.1,463.6 555.1,463.6 
			564.2,463.6 573.2,463.6 582.3,463.6 582.3,463.5 591.3,463.5 600.3,463.5 609.4,463.5 618.4,463.5 618.5,463.5 627.4,463.5 
			636.5,463.5 636.5,186.8 		"/>
		<line class="st4" x1="21" y1="463.5" x2="637.5" y2="463.5"/>
	</g>
	<g class="st0">
		<text transform="matrix(1 0 0 1 5.2559 423.0996)" class="st5 st6 st7">10</text>
	</g>
	<g class="st0">
		<text transform="matrix(1 0 0 1 5.2559 381.0996)" class="st5 st6 st7">20</text>
	</g>
	<g class="st0">
		<text transform="matrix(1 0 0 1 5.2559 338.3496)" class="st5 st6 st7">30</text>
	</g>
	<g class="st0">
		<text transform="matrix(1 0 0 1 5.2559 295.5996)" class="st5 st6 st7">40</text>
	</g>
	<g class="st0">
		<text transform="matrix(1 0 0 1 5.2559 253.5996)" class="st5 st6 st7">50</text>
	</g>
	<g class="st0">
		<text transform="matrix(1 0 0 1 5.2559 210.8496)" class="st5 st6 st7">60</text>
	</g>
	<g class="st0">
		<text transform="matrix(1 0 0 1 5.2559 168.0996)" class="st5 st6 st7">70</text>
	</g>
	<g class="st0">
		<text transform="matrix(1 0 0 1 5.2559 125.3496)" class="st5 st6 st7">80</text>
	</g>
	<g class="st0">
		<text transform="matrix(1 0 0 1 5.2559 83.3496)" class="st5 st6 st7">90</text>
	</g>
	<g class="st0">
		<text transform="matrix(1 0 0 1 2.929688e-03 40.5996)" class="st5 st6 st7">100</text>
	</g>
</g>
<g>
	<text transform="matrix(1 0 0 1 116.546 478.794)" class="st8 st6 st7">3/22</text>
</g>
<g>
	<text transform="matrix(1 0 0 1 617.4468 478.794)" class="st8 st6 st7">5/17</text>
</g>
</svg>
