<?xml version="1.0" encoding="utf-8"?>
<!-- Generator: Adobe Illustrator 23.0.1, SVG Export Plug-In . SVG Version: 6.00 Build 0)  -->
<svg version="1.1" id="Layer_1" xmlns="http://www.w3.org/2000/svg" xmlns:xlink="http://www.w3.org/1999/xlink" x="0px" y="0px"
	 viewBox="0 0 637.5 487.5" style="enable-background:new 0 0 637.5 487.5;" xml:space="preserve">
<style type="text/css">
	.st0{clip-path:url(#SVGID_2_);}
	.st1{clip-path:url(#SVGID_4_);fill:none;stroke:#E8E8E8;stroke-width:0.75;stroke-miterlimit:10;}
	.st2{clip-path:url(#SVGID_4_);fill:#C71E1D;}
	.st3{clip-path:url(#SVGID_4_);fill:#C71E1D;fill-opacity:0.6;stroke:#000000;stroke-width:0.5;stroke-miterlimit:10;}
	.st4{clip-path:url(#SVGID_4_);fill:none;stroke:#333333;stroke-width:0.75;stroke-miterlimit:10;}
	.st5{fill:#A6A6A6;}
	.st6{font-family:'Roboto-Regular';}
	.st7{font-size:9px;}
	.st8{fill:#333333;}
</style>
<g>
	<defs>
		<rect id="SVGID_1_" width="637.5" height="487.5"/>
	</defs>
	<clipPath id="SVGID_2_">
		<use xlink:href="#SVGID_1_"  style="overflow:visible;"/>
	</clipPath>
	<g class="st0">
		<defs>
			<rect id="SVGID_3_" width="637.5" height="483"/>
		</defs>
		<clipPath id="SVGID_4_">
			<use xlink:href="#SVGID_3_"  style="overflow:visible;"/>
		</clipPath>
		<line class="st1" x1="21" y1="21.8" x2="637.5" y2="21.8"/>
		<line class="st1" x1="21" y1="85.5" x2="637.5" y2="85.5"/>
		<line class="st1" x1="21" y1="148.5" x2="637.5" y2="148.5"/>
		<line class="st1" x1="21" y1="211.5" x2="637.5" y2="211.5"/>
		<line class="st1" x1="21" y1="274.5" x2="637.5" y2="274.5"/>
		<line class="st1" x1="21" y1="337.5" x2="637.5" y2="337.5"/>
		<line class="st1" x1="21" y1="400.5" x2="637.5" y2="400.5"/>
		<path class="st2" d="M21,463.5h7.1H21z"/>
		<path class="st2" d="M28.1,463.5h7.1H28.1z"/>
		<path class="st2" d="M35.2,463.5h7.1H35.2z"/>
		<path class="st2" d="M42.3,463.5h7.1H42.3z"/>
		<path class="st2" d="M49.3,463.5h7.1H49.3z"/>
		<path class="st2" d="M56.4,463.5h7.1H56.4z"/>
		<path class="st2" d="M63.5,463.5h7.1H63.5z"/>
		<path class="st2" d="M70.6,463.5h7.1H70.6z"/>
		<path class="st2" d="M77.7,463.5h7.1H77.7z"/>
		<path class="st2" d="M84.8,463.5h7.1H84.8z"/>
		<path class="st2" d="M91.9,463.5h7.1H91.9z"/>
		<polygon class="st3" points="629.9,0 629.9,31.4 622.8,31.4 622.8,28.4 615.7,28.4 615.7,47.2 608.7,47.2 608.7,81.8 601.6,81.8 
			601.6,101.2 594.5,101.2 594.5,135.8 587.6,135.8 587.6,107.2 580.5,107.2 580.5,135.8 573.5,135.8 573.5,123 566.4,123 
			566.4,126 559.4,126 559.4,151.5 552.3,151.5 552.3,173.2 545.2,173.2 545.2,192 538.2,192 538.2,207.8 531.2,207.8 531.2,192 
			524.1,192 524.1,214.5 517,214.5 517,217.5 509.9,217.5 509.9,220.5 502.9,220.5 502.9,258.8 495.8,258.8 488.7,258.8 
			481.6,258.8 481.6,261.8 474.5,261.8 474.5,277.5 467.4,277.5 460.3,277.5 460.3,271.5 453.3,271.5 453.3,261.8 446.2,261.8 
			439.1,261.8 439.1,243 432,243 424.9,243 424.9,246 417.8,246 417.8,183 410.7,183 410.7,176.2 403.7,176.2 403.7,154.5 
			396.6,154.5 396.6,148.5 389.5,148.5 389.5,164.2 382.4,164.2 375.3,164.2 375.3,170.2 368.2,170.2 368.2,135.8 361.1,135.8 
			361.1,120 354.1,120 354.1,126 347,126 347,135.8 339.9,135.8 332.8,135.8 332.8,144.8 325.7,144.8 325.7,157.5 318.6,157.5 
			318.6,192 311.5,192 311.5,170.2 304.4,170.2 304.4,186 297.4,186 297.4,192 290.3,192 290.3,201.8 283.2,201.8 283.2,195.8 
			276.1,195.8 276.1,201.8 269,201.8 269,207.8 261.9,207.8 261.9,230.2 254.8,230.2 247.8,230.2 247.8,192 240.7,192 233.6,192 
			233.6,233.2 226.5,233.2 226.5,223.5 219.4,223.5 219.4,230.2 212.3,230.2 205.2,230.2 205.2,252 198.2,252 198.2,236.2 
			191.1,236.2 191.1,240 184,240 184,255.8 176.9,255.8 176.9,287.2 169.8,287.2 169.8,261.8 162.7,261.8 162.7,267.8 155.6,267.8 
			155.6,327.8 148.6,327.8 148.6,312 141.5,312 134.4,312 134.4,334.5 127.3,334.5 127.3,394.5 120.2,394.5 113.1,394.5 
			113.1,422.2 106,422.2 98.9,422.2 98.9,463.5 106,463.5 113.1,463.5 113.1,463.5 120.2,463.5 127.3,463.5 134.4,463.5 
			141.5,463.5 148.6,463.5 155.6,463.5 162.7,463.5 169.8,463.5 176.9,463.5 184,463.5 191.1,463.5 198.2,463.5 198.2,463.5 
			205.2,463.5 212.3,463.5 219.4,463.5 226.5,463.5 233.6,463.5 240.7,463.5 247.8,463.5 254.8,463.5 261.9,463.5 269,463.5 
			276.1,463.5 283.2,463.5 290.3,463.5 297.4,463.5 304.4,463.5 311.5,463.5 318.6,463.5 325.7,463.5 332.8,463.5 332.8,463.5 
			339.9,463.5 347,463.5 354.1,463.5 361.1,463.5 368.2,463.5 375.3,463.5 382.4,463.5 389.5,463.5 396.6,463.5 403.7,463.5 
			410.7,463.5 417.8,463.5 417.8,463.5 424.9,463.5 432,463.5 439.1,463.5 446.2,463.5 453.3,463.5 453.3,463.5 460.3,463.5 
			467.4,463.5 474.5,463.5 481.6,463.5 488.7,463.5 495.8,463.5 502.9,463.5 509.9,463.5 517,463.5 524.1,463.5 531.1,463.5 
			531.2,463.5 538.2,463.5 545.2,463.5 545.3,463.5 552.3,463.5 559.4,463.5 566.4,463.5 566.5,463.5 573.5,463.5 580.5,463.5 
			580.6,463.5 587.6,463.5 594.5,463.5 594.7,463.5 601.6,463.5 608.7,463.5 615.8,463.5 615.8,463.4 622.8,463.4 629.9,463.4 
			629.9,463.5 636.9,463.5 636.9,0 		"/>
		<line class="st4" x1="21" y1="463.5" x2="637.5" y2="463.5"/>
	</g>
	<g class="st0">
		<text transform="matrix(1 0 0 1 5.6426 403.5996)" class="st5 st6 st7">20</text>
	</g>
	<g class="st0">
		<text transform="matrix(1 0 0 1 5.6426 340.5996)" class="st5 st6 st7">40</text>
	</g>
	<g class="st0">
		<text transform="matrix(1 0 0 1 5.6426 277.5996)" class="st5 st6 st7">60</text>
	</g>
	<g class="st0">
		<text transform="matrix(1 0 0 1 5.6426 214.5996)" class="st5 st6 st7">80</text>
	</g>
	<g class="st0">
		<text transform="matrix(1 0 0 1 0.5889 151.5996)" class="st5 st6 st7">100</text>
	</g>
	<g class="st0">
		<text transform="matrix(1 0 0 1 0.5889 88.5996)" class="st5 st6 st7">120</text>
	</g>
	<g class="st0">
		<text transform="matrix(1 0 0 1 0.5889 24.8496)" class="st5 st6 st7">140</text>
	</g>
</g>
<g>
	<text transform="matrix(1 0 0 1 622.7969 479.5699)" class="st8 st6 st7">6/5</text>
</g>
<g>
	<text transform="matrix(1 0 0 1 93.3782 479.5701)" class="st8 st6 st7">3/24</text>
</g>
</svg>
