<?xml version="1.0" encoding="utf-8"?>
<!-- Generator: Adobe Illustrator 23.0.1, SVG Export Plug-In . SVG Version: 6.00 Build 0)  -->
<svg version="1.1" id="Layer_1" xmlns="http://www.w3.org/2000/svg" xmlns:xlink="http://www.w3.org/1999/xlink" x="0px" y="0px"
	 viewBox="0 0 637.5 487.5" style="enable-background:new 0 0 637.5 487.5;" xml:space="preserve">
<style type="text/css">
	.st0{clip-path:url(#SVGID_2_);}
	.st1{clip-path:url(#SVGID_4_);fill:none;stroke:#E8E8E8;stroke-width:0.75;stroke-miterlimit:10;}
	.st2{clip-path:url(#SVGID_4_);fill:#C71E1D;}
	.st3{clip-path:url(#SVGID_4_);fill:#C71E1D;fill-opacity:0.6;stroke:#000000;stroke-width:0.5;stroke-miterlimit:10;}
	.st4{clip-path:url(#SVGID_4_);fill:none;stroke:#333333;stroke-width:0.75;stroke-miterlimit:10;}
	.st5{fill:#A6A6A6;}
	.st6{font-family:'Roboto-Regular';}
	.st7{font-size:9px;}
	.st8{fill:#333333;}
</style>
<g>
	<defs>
		<rect id="SVGID_1_" width="637.5" height="487.5"/>
	</defs>
	<clipPath id="SVGID_2_">
		<use xlink:href="#SVGID_1_"  style="overflow:visible;"/>
	</clipPath>
	<g class="st0">
		<defs>
			<polyline id="SVGID_3_" points="0,483 0,0 637.5,0 637.5,483 			"/>
		</defs>
		<clipPath id="SVGID_4_">
			<use xlink:href="#SVGID_3_"  style="overflow:visible;"/>
		</clipPath>
		<line class="st1" x1="21" y1="38.2" x2="637.5" y2="38.2"/>
		<line class="st1" x1="21" y1="81" x2="637.5" y2="81"/>
		<line class="st1" x1="21" y1="123" x2="637.5" y2="123"/>
		<line class="st1" x1="21" y1="165.8" x2="637.5" y2="165.8"/>
		<line class="st1" x1="21" y1="208.5" x2="637.5" y2="208.5"/>
		<line class="st1" x1="21" y1="251.2" x2="637.5" y2="251.2"/>
		<line class="st1" x1="21" y1="293.2" x2="637.5" y2="293.2"/>
		<line class="st1" x1="21" y1="336" x2="637.5" y2="336"/>
		<line class="st1" x1="21" y1="378.8" x2="637.5" y2="378.8"/>
		<line class="st1" x1="21" y1="420.8" x2="637.5" y2="420.8"/>
		<path class="st2" d="M21,463.5h8.7H21z"/>
		<path class="st2" d="M29.7,463.5h8.7H29.7z"/>
		<path class="st2" d="M38.4,463.5H47H38.4z"/>
		<path class="st2" d="M47,463.5h8.7H47z"/>
		<path class="st2" d="M55.7,463.5h8.7H55.7z"/>
		<path class="st2" d="M64.4,463.5h8.7H64.4z"/>
		<path class="st2" d="M73.1,463.5h8.7H73.1z"/>
		<path class="st2" d="M81.8,463.5h8.7H81.8z"/>
		<path class="st2" d="M90.5,463.5h8.7H90.5z"/>
		<path class="st2" d="M99.1,463.5h8.7H99.1z"/>
		<path class="st2" d="M107.8,463.5h8.7H107.8z"/>
		<polygon class="st3" points="628.8,127.5 628.8,132 620.1,132 620.1,135.8 611.5,135.8 611.5,186.8 602.8,186.8 602.8,186.8 
			594.1,186.8 585.4,186.8 585.4,191.2 576.7,191.2 576.7,212.2 568,212.2 559.4,212.2 559.4,204 550.7,204 550.7,191.2 542,191.2 
			533.3,191.2 533.3,165.8 524.6,165.8 524.6,165.8 515.9,165.8 515.9,170.2 507.3,170.2 507.3,84.8 498.6,84.8 498.6,76.5 
			489.9,76.5 489.9,46.5 481.2,46.5 481.2,38.2 472.5,38.2 472.5,59.2 463.8,59.2 455.2,59.2 455.2,68.2 446.5,68.2 446.5,21 
			437.8,21 437.8,0 429.1,0 429.1,8.2 420.4,8.2 420.4,21 411.7,21 411.7,21 403.1,21 403.1,33.8 394.4,33.8 394.4,51 385.7,51 
			385.7,97.5 377,97.5 377,68.2 368.3,68.2 368.3,89.2 359.6,89.2 359.6,97.5 351,97.5 351,110.2 342.3,110.2 342.3,102 333.6,102 
			333.6,110.2 324.9,110.2 324.9,119.2 316.2,119.2 316.2,148.5 307.5,148.5 298.9,148.5 298.9,97.5 290.2,97.5 281.5,97.5 
			281.5,153 272.8,153 272.8,140.2 264.1,140.2 264.1,148.5 255.4,148.5 246.8,148.5 246.8,178.5 238.1,178.5 238.1,157.5 
			229.4,157.5 229.4,161.2 220.7,161.2 220.7,183 212,183 212,225 203.3,225 203.3,191.2 194.7,191.2 194.7,199.5 186,199.5 
			186,280.5 177.3,280.5 177.3,259.5 168.6,259.5 168.6,259.5 159.9,259.5 159.9,289.5 151.2,289.5 151.2,369.8 142.6,369.8 
			133.9,369.8 133.9,408 125.2,408 116.5,408 116.5,463.5 125.2,463.5 133.9,463.5 142.6,463.5 151.2,463.5 151.2,463.5 
			159.9,463.5 159.9,463.5 168.6,463.5 168.6,463.5 177.3,463.5 186,463.5 194.7,463.5 203.3,463.5 212,463.5 220.7,463.5 
			229.4,463.5 229.4,463.5 238.1,463.5 238.1,463.5 246.8,463.5 246.8,463.5 255.4,463.5 264.1,463.5 264.1,463.5 272.8,463.5 
			272.8,463.5 281.5,463.5 290.2,463.5 298.9,463.5 307.5,463.5 316.2,463.5 316.2,463.5 324.9,463.5 324.9,463.5 333.6,463.5 
			333.6,463.5 342.3,463.5 342.3,463.5 351,463.5 351,463.5 359.6,463.5 368.3,463.5 377,463.5 385.7,463.5 394.4,463.5 
			394.4,463.5 403.1,463.5 403.1,463.5 411.7,463.5 411.7,463.5 420.4,463.5 420.4,463.5 429.1,463.5 429.1,463.5 437.8,463.5 
			446.5,463.5 455.2,463.5 463.8,463.5 472.5,463.5 472.5,463.5 481.2,463.5 481.2,463.5 489.9,463.5 489.9,463.5 498.6,463.5 
			498.6,463.5 507.3,463.5 507.3,463.5 515.9,463.5 524.6,463.5 524.6,463.5 533.3,463.5 542,463.5 550.7,463.5 559.4,463.5 
			568,463.5 576.7,463.5 585.4,463.5 594.1,463.5 602.8,463.5 602.8,463.5 611.5,463.5 620.1,463.5 628.8,463.5 637.5,463.5 
			637.5,127.5 		"/>
		<line class="st4" x1="21" y1="463.5" x2="637.5" y2="463.5"/>
	</g>
	<g class="st0">
		<text transform="matrix(1 0 0 1 5.2559 423.0996)" class="st5 st6 st7">10</text>
	</g>
	<g class="st0">
		<text transform="matrix(1 0 0 1 5.2559 381.0996)" class="st5 st6 st7">20</text>
	</g>
	<g class="st0">
		<text transform="matrix(1 0 0 1 5.2559 338.3496)" class="st5 st6 st7">30</text>
	</g>
	<g class="st0">
		<text transform="matrix(1 0 0 1 5.2559 295.5996)" class="st5 st6 st7">40</text>
	</g>
	<g class="st0">
		<text transform="matrix(1 0 0 1 5.2559 253.5996)" class="st5 st6 st7">50</text>
	</g>
	<g class="st0">
		<text transform="matrix(1 0 0 1 5.2559 210.8496)" class="st5 st6 st7">60</text>
	</g>
	<g class="st0">
		<text transform="matrix(1 0 0 1 5.2559 168.0996)" class="st5 st6 st7">70</text>
	</g>
	<g class="st0">
		<text transform="matrix(1 0 0 1 5.2559 125.3496)" class="st5 st6 st7">80</text>
	</g>
	<g class="st0">
		<text transform="matrix(1 0 0 1 5.2559 83.3496)" class="st5 st6 st7">90</text>
	</g>
	<g class="st0">
		<text transform="matrix(1 0 0 1 2.929688e-03 40.5996)" class="st5 st6 st7">100</text>
	</g>
</g>
<g>
	<text transform="matrix(1 0 0 1 112.3063 479.6372)" class="st8 st6 st7">3/22</text>
</g>
<g>
	<text transform="matrix(1 0 0 1 617.8285 479.6377)" class="st8 st6 st7">5/20</text>
</g>
</svg>
