<?xml version="1.0" encoding="utf-8"?>
<!-- Generator: Adobe Illustrator 23.0.1, SVG Export Plug-In . SVG Version: 6.00 Build 0)  -->
<svg version="1.1" id="Layer_1" xmlns="http://www.w3.org/2000/svg" xmlns:xlink="http://www.w3.org/1999/xlink" x="0px" y="0px"
	 viewBox="0 0 637.5 487.5" style="enable-background:new 0 0 637.5 487.5;" xml:space="preserve">
<style type="text/css">
	.st0{clip-path:url(#SVGID_2_);}
	.st1{clip-path:url(#SVGID_4_);fill:none;stroke:#E8E8E8;stroke-width:0.75;stroke-miterlimit:10;}
	.st2{clip-path:url(#SVGID_4_);fill:#C71E1D;}
	.st3{clip-path:url(#SVGID_4_);fill:#C71E1D;fill-opacity:0.6;stroke:#000000;stroke-width:0.5;stroke-miterlimit:10;}
	.st4{clip-path:url(#SVGID_4_);fill:none;stroke:#333333;stroke-width:0.75;stroke-miterlimit:10;}
	.st5{fill:#A6A6A6;}
	.st6{font-family:'Roboto-Regular';}
	.st7{font-size:9px;}
	.st8{fill:#333333;}
</style>
<g>
	<defs>
		<rect id="SVGID_1_" width="637.5" height="487.5"/>
	</defs>
	<clipPath id="SVGID_2_">
		<use xlink:href="#SVGID_1_"  style="overflow:visible;"/>
	</clipPath>
	<g class="st0">
		<defs>
			<rect id="SVGID_3_" width="637.5" height="483"/>
		</defs>
		<clipPath id="SVGID_4_">
			<use xlink:href="#SVGID_3_"  style="overflow:visible;"/>
		</clipPath>
		<line class="st1" x1="21" y1="38.2" x2="637.5" y2="38.2"/>
		<line class="st1" x1="21" y1="81" x2="637.5" y2="81"/>
		<line class="st1" x1="21" y1="123" x2="637.5" y2="123"/>
		<line class="st1" x1="21" y1="165.8" x2="637.5" y2="165.8"/>
		<line class="st1" x1="21" y1="208.5" x2="637.5" y2="208.5"/>
		<line class="st1" x1="21" y1="251.2" x2="637.5" y2="251.2"/>
		<line class="st1" x1="21" y1="293.2" x2="637.5" y2="293.2"/>
		<line class="st1" x1="21" y1="336" x2="637.5" y2="336"/>
		<line class="st1" x1="21" y1="378.8" x2="637.5" y2="378.8"/>
		<line class="st1" x1="21" y1="420.8" x2="637.5" y2="420.8"/>
		<path class="st2" d="M21,463.5h8.9H21z"/>
		<path class="st2" d="M29.9,463.5h8.9H29.9z"/>
		<path class="st2" d="M38.9,463.5h8.9H38.9z"/>
		<path class="st2" d="M47.8,463.5h8.9H47.8z"/>
		<path class="st2" d="M56.7,463.5h8.9H56.7z"/>
		<path class="st2" d="M65.7,463.5h8.9H65.7z"/>
		<path class="st2" d="M74.6,463.5h8.9H74.6z"/>
		<path class="st2" d="M83.5,463.5h8.9H83.5z"/>
		<path class="st2" d="M92.5,463.5h8.9H92.5z"/>
		<path class="st2" d="M101.4,463.5h8.9H101.4z"/>
		<path class="st2" d="M110.3,463.5h8.9H110.3z"/>
		<polygon class="st3" points="627.6,135.8 627.6,186.8 619,186.8 610.2,186.8 610,186.8 601.3,186.8 601.3,191.2 592.3,191.2 
			592.3,212.3 583.5,212.3 574.7,212.3 574.7,204.1 565.7,204.1 565.7,191.3 557,191.3 556.8,191.3 548.1,191.3 548.1,165.8 
			539.2,165.8 539.2,165.8 530.3,165.8 530.3,170.3 521.6,170.3 521.6,84.8 512.7,84.8 512.7,76.6 503.7,76.6 503.7,46.6 
			494.8,46.6 494.8,38.3 485.9,38.3 485.9,59.3 477.1,59.3 477,59.3 468.2,59.3 468.2,68.3 459.3,68.3 459.3,21.1 450.3,21.1 
			450.3,0.1 441.4,0.1 441.4,8.3 432.5,8.3 432.5,21.1 423.6,21.1 423.6,21.1 414.8,21.1 414.8,33.8 405.8,33.8 405.8,51.1 
			397,51.1 397,97.6 388.1,97.6 388.1,68.3 379.1,68.3 379.1,89.3 370.2,89.3 370.2,97.6 361.3,97.6 361.3,110.3 352.4,110.3 
			352.4,102.1 343.5,102.1 343.5,110.3 334.6,110.3 334.6,119.3 325.6,119.3 325.6,148.5 317.1,148.5 308.3,148.5 308.3,97.4 
			299.4,97.4 290.4,97.4 290.4,153.1 281.6,153.1 281.6,140.3 272.6,140.3 272.6,148.6 263.8,148.6 254.8,148.6 254.8,178.5 
			245.9,178.5 245.9,157.5 237,157.5 237,161.2 228.1,161.2 228.1,183 219.2,183 219.2,225 210.3,225 210.3,191.2 201.4,191.2 
			201.4,199.5 192.5,199.5 192.5,280.5 183.7,280.5 183.7,259.5 174.7,259.5 165.8,259.5 165.8,289.5 156.9,289.5 156.9,369.8 
			147.9,369.8 147.9,369.8 139,369.8 139,408 130.2,408 130.2,408 121.3,408 121.3,463.5 130.1,463.5 130.1,463.5 139,463.5 
			148,463.5 148,463.5 156.9,463.5 165.8,463.5 165.8,463.5 174.7,463.5 183.6,463.5 183.7,463.5 192.5,463.5 201.4,463.5 
			201.4,463.5 210.3,463.5 219.2,463.5 219.2,463.5 228.1,463.5 237,463.5 237.1,463.5 245.9,463.5 254.8,463.5 254.8,463.6 
			263.8,463.6 272.6,463.6 272.7,463.6 281.6,463.6 290.5,463.6 290.5,463.4 299.4,463.4 308.2,463.4 308.2,463.5 317.1,463.5 
			325.6,463.5 325.6,463.6 334.6,463.6 343.5,463.6 352.4,463.6 352.4,463.6 361.3,463.6 370.2,463.6 370.3,463.6 379.1,463.6 
			388,463.6 388.1,463.6 397,463.6 405.8,463.6 405.9,463.6 414.8,463.6 423.7,463.6 423.7,463.6 432.5,463.6 441.4,463.6 
			441.4,463.6 450.3,463.6 459.3,463.6 459.3,463.6 468.2,463.6 477,463.6 477.1,463.6 485.9,463.6 494.8,463.6 494.8,463.6 
			503.7,463.6 512.7,463.6 521.4,463.6 521.6,463.6 530.3,463.6 539.3,463.6 539.3,463.6 548.1,463.6 556.8,463.6 557,463.6 
			565.7,463.6 574.5,463.6 574.7,463.6 583.5,463.6 592.4,463.6 592.4,463.5 601.3,463.5 610,463.5 610.2,463.5 619,463.5 
			627.6,463.5 627.6,463.6 636.5,463.6 636.5,135.8 		"/>
		<line class="st4" x1="21" y1="463.5" x2="637.5" y2="463.5"/>
	</g>
	<g class="st0">
		<text transform="matrix(1 0 0 1 5.2559 423.0996)" class="st5 st6 st7">10</text>
	</g>
	<g class="st0">
		<text transform="matrix(1 0 0 1 5.2559 381.0996)" class="st5 st6 st7">20</text>
	</g>
	<g class="st0">
		<text transform="matrix(1 0 0 1 5.2559 338.3496)" class="st5 st6 st7">30</text>
	</g>
	<g class="st0">
		<text transform="matrix(1 0 0 1 5.2559 295.5996)" class="st5 st6 st7">40</text>
	</g>
	<g class="st0">
		<text transform="matrix(1 0 0 1 5.2559 253.5996)" class="st5 st6 st7">50</text>
	</g>
	<g class="st0">
		<text transform="matrix(1 0 0 1 5.2559 210.8496)" class="st5 st6 st7">60</text>
	</g>
	<g class="st0">
		<text transform="matrix(1 0 0 1 5.2559 168.0996)" class="st5 st6 st7">70</text>
	</g>
	<g class="st0">
		<text transform="matrix(1 0 0 1 5.2559 125.3496)" class="st5 st6 st7">80</text>
	</g>
	<g class="st0">
		<text transform="matrix(1 0 0 1 5.2559 83.3496)" class="st5 st6 st7">90</text>
	</g>
	<g class="st0">
		<text transform="matrix(1 0 0 1 2.929688e-03 40.5996)" class="st5 st6 st7">100</text>
	</g>
</g>
<g>
	<text transform="matrix(1 0 0 1 118.7051 479.5629)" class="st8 st6 st7">3/22</text>
</g>
<g>
	<text transform="matrix(1 0 0 1 616.5838 479.5624)" class="st8 st6 st7">5/18</text>
</g>
</svg>
