<?xml version="1.0" encoding="utf-8"?>
<!-- Generator: Adobe Illustrator 23.0.1, SVG Export Plug-In . SVG Version: 6.00 Build 0)  -->
<svg version="1.1" id="Layer_1" xmlns="http://www.w3.org/2000/svg" xmlns:xlink="http://www.w3.org/1999/xlink" x="0px" y="0px"
	 viewBox="0 0 637.5 487.5" style="enable-background:new 0 0 637.5 487.5;" xml:space="preserve">
<style type="text/css">
	.st0{clip-path:url(#SVGID_2_);}
	.st1{clip-path:url(#SVGID_4_);fill:none;stroke:#E8E8E8;stroke-width:0.75;stroke-miterlimit:10;}
	.st2{clip-path:url(#SVGID_4_);fill:#C71E1D;}
	.st3{clip-path:url(#SVGID_4_);fill:#C71E1D;fill-opacity:0.6;stroke:#000000;stroke-width:0.5;stroke-miterlimit:10;}
	.st4{clip-path:url(#SVGID_4_);fill:none;stroke:#333333;stroke-width:0.75;stroke-miterlimit:10;}
	.st5{fill:#A6A6A6;}
	.st6{font-family:'Roboto-Regular';}
	.st7{font-size:9px;}
	.st8{fill:#333333;}
</style>
<g>
	<defs>
		<rect id="SVGID_1_" width="637.5" height="487.5"/>
	</defs>
	<clipPath id="SVGID_2_">
		<use xlink:href="#SVGID_1_"  style="overflow:visible;"/>
	</clipPath>
	<g class="st0">
		<defs>
			<rect id="SVGID_3_" width="637.5" height="483"/>
		</defs>
		<clipPath id="SVGID_4_">
			<use xlink:href="#SVGID_3_"  style="overflow:visible;"/>
		</clipPath>
		<line class="st1" x1="21" y1="38.2" x2="637.5" y2="38.2"/>
		<line class="st1" x1="21" y1="81" x2="637.5" y2="81"/>
		<line class="st1" x1="21" y1="123" x2="637.5" y2="123"/>
		<line class="st1" x1="21" y1="165.8" x2="637.5" y2="165.8"/>
		<line class="st1" x1="21" y1="208.5" x2="637.5" y2="208.5"/>
		<line class="st1" x1="21" y1="251.2" x2="637.5" y2="251.2"/>
		<line class="st1" x1="21" y1="293.2" x2="637.5" y2="293.2"/>
		<line class="st1" x1="21" y1="336" x2="637.5" y2="336"/>
		<line class="st1" x1="21" y1="378.8" x2="637.5" y2="378.8"/>
		<line class="st1" x1="21" y1="420.8" x2="637.5" y2="420.8"/>
		<path class="st2" d="M21,463.5h8H21z"/>
		<path class="st2" d="M29,463.5h8H29z"/>
		<path class="st2" d="M37,463.5h8H37z"/>
		<path class="st2" d="M45,463.5h8H45z"/>
		<path class="st2" d="M53,463.5h8H53z"/>
		<path class="st2" d="M61,463.5h8H61z"/>
		<path class="st2" d="M69,463.5h8H69z"/>
		<path class="st2" d="M77,463.5h8H77z"/>
		<path class="st2" d="M85.1,463.5h8H85.1z"/>
		<path class="st2" d="M93.1,463.5h8H93.1z"/>
		<path class="st2" d="M101.1,463.5h8H101.1z"/>
		<polygon class="st3" points="626.7,8.4 626.7,42.8 618.8,42.8 618.8,72 610.8,72 610.8,97.5 603,97.5 603,119.2 595,119.2 
			595,97.5 586.9,97.5 586.9,127.5 579.1,127.5 579.1,132 571.1,132 571.1,135.8 563.1,135.8 563.1,186.8 555.1,186.8 547.3,186.8 
			547.1,186.8 539.3,186.8 539.3,191.2 531.3,191.2 531.3,212.2 523.6,212.2 523.3,212.2 515.5,212.2 515.5,204 507.5,204 
			507.5,191.2 499.7,191.2 499.5,191.2 491.7,191.2 491.7,165.8 483.7,165.8 483.7,165.8 475.7,165.8 475.7,170.2 467.7,170.2 
			467.7,84.8 459.8,84.8 459.8,76.5 451.8,76.5 451.8,46.5 443.8,46.5 443.8,38.2 435.8,38.2 435.8,59.2 428,59.2 420,59.2 
			420,68.2 412.1,68.2 412.1,21 404.1,21 404.1,0 396.1,0 396.1,8.2 388.1,8.2 388.1,20.9 380.2,20.9 380.2,20.9 372.2,20.9 
			372.2,33.7 364.2,33.7 364.2,50.9 356.2,50.9 356.2,97.5 348.3,97.5 348.3,68.2 340.3,68.2 340.3,89.2 332.3,89.2 332.3,97.5 
			324.3,97.5 324.3,110.2 316.4,110.2 316.4,102 308.4,102 308.4,110.2 300.4,110.2 300.4,119.2 292.5,119.2 292.5,148.5 
			284.4,148.5 276.5,148.5 276.5,97.5 268.5,97.5 260.5,97.5 260.5,153 252.5,153 252.5,140.2 244.5,140.2 244.5,148.5 236.6,148.5 
			236.5,148.5 228.6,148.5 228.6,178.5 220.6,178.5 220.6,157.5 212.6,157.5 212.6,161.2 204.6,161.2 204.6,183 196.6,183 
			196.6,224.9 188.7,224.9 188.7,191.2 180.7,191.2 180.7,199.4 172.7,199.4 172.7,280.5 164.7,280.5 164.7,259.5 156.8,259.5 
			156.7,259.5 148.8,259.5 148.8,289.5 140.8,289.5 140.8,369.8 132.9,369.8 132.8,369.8 124.9,369.8 124.9,408 117.1,408 
			116.9,408 109.1,408 109.1,463.5 116.9,463.5 117.1,463.5 124.9,463.5 132.8,463.5 132.9,463.5 140.8,463.5 148.8,463.5 
			156.7,463.5 156.8,463.5 164.7,463.5 172.8,463.5 172.8,463.4 180.7,463.4 188.7,463.4 196.6,463.4 196.6,463.5 204.6,463.5 
			212.6,463.5 220.6,463.5 220.6,463.5 228.6,463.5 236.5,463.5 236.6,463.5 244.5,463.5 252.5,463.5 260.5,463.5 268.5,463.5 
			276.4,463.5 276.5,463.5 284.4,463.5 292.5,463.5 300.4,463.5 300.5,463.5 308.4,463.5 316.3,463.5 316.4,463.5 324.3,463.5 
			332.3,463.5 340.3,463.5 340.3,463.5 348.3,463.5 356.3,463.5 356.3,463.4 364.2,463.4 372.2,463.4 380.1,463.4 380.1,463.4 
			388.1,463.4 396.1,463.4 396.1,463.5 404.1,463.5 412.1,463.5 420,463.5 420,463.5 428,463.5 435.8,463.5 436,463.5 443.8,463.5 
			451.8,463.5 459.7,463.5 459.8,463.5 467.7,463.5 475.7,463.5 483.7,463.5 483.7,463.5 491.7,463.5 499.5,463.5 499.7,463.5 
			507.5,463.5 515.5,463.5 523.3,463.5 523.6,463.5 531.3,463.5 539.3,463.5 547.1,463.5 547.3,463.5 555.1,463.5 563.1,463.5 
			571.1,463.5 571.1,463.5 579.1,463.5 586.9,463.5 587.1,463.5 595,463.5 603,463.5 610.8,463.5 611,463.5 618.8,463.5 
			626.7,463.5 626.7,463.6 634.7,463.6 634.7,8.4 		"/>
		<line class="st4" x1="21" y1="463.5" x2="637.5" y2="463.5"/>
	</g>
	<g class="st0">
		<text transform="matrix(1 0 0 1 5.2559 423.0996)" class="st5 st6 st7">10</text>
	</g>
	<g class="st0">
		<text transform="matrix(1 0 0 1 5.2559 381.0996)" class="st5 st6 st7">20</text>
	</g>
	<g class="st0">
		<text transform="matrix(1 0 0 1 5.2559 338.3496)" class="st5 st6 st7">30</text>
	</g>
	<g class="st0">
		<text transform="matrix(1 0 0 1 5.2559 295.5996)" class="st5 st6 st7">40</text>
	</g>
	<g class="st0">
		<text transform="matrix(1 0 0 1 5.2559 253.5996)" class="st5 st6 st7">50</text>
	</g>
	<g class="st0">
		<text transform="matrix(1 0 0 1 5.2559 210.8496)" class="st5 st6 st7">60</text>
	</g>
	<g class="st0">
		<text transform="matrix(1 0 0 1 5.2559 168.0996)" class="st5 st6 st7">70</text>
	</g>
	<g class="st0">
		<text transform="matrix(1 0 0 1 5.2559 125.3496)" class="st5 st6 st7">80</text>
	</g>
	<g class="st0">
		<text transform="matrix(1 0 0 1 5.2559 83.3496)" class="st5 st6 st7">90</text>
	</g>
	<g class="st0">
		<text transform="matrix(1 0 0 1 2.929688e-03 40.5996)" class="st5 st6 st7">100</text>
	</g>
</g>
<g>
	<text transform="matrix(1 0 0 1 616.7698 477.9866)" class="st8 st6 st7">5/26</text>
</g>
<g>
	<text transform="matrix(1 0 0 1 104.229 477.9866)" class="st8 st6 st7">3/22</text>
</g>
</svg>
