<?xml version="1.0" encoding="utf-8"?>
<!-- Generator: Adobe Illustrator 23.0.1, SVG Export Plug-In . SVG Version: 6.00 Build 0)  -->
<svg version="1.1" id="Layer_1" xmlns="http://www.w3.org/2000/svg" xmlns:xlink="http://www.w3.org/1999/xlink" x="0px" y="0px"
	 viewBox="0 0 637.5 487.5" style="enable-background:new 0 0 637.5 487.5;" xml:space="preserve">
<style type="text/css">
	.st0{clip-path:url(#SVGID_2_);}
	.st1{clip-path:url(#SVGID_4_);fill:none;stroke:#E8E8E8;stroke-width:0.75;stroke-miterlimit:10;}
	.st2{clip-path:url(#SVGID_4_);fill:#C71E1D;}
	.st3{clip-path:url(#SVGID_4_);fill:#C71E1D;fill-opacity:0.6;stroke:#000000;stroke-width:0.5;stroke-miterlimit:10;}
	.st4{clip-path:url(#SVGID_4_);fill:none;stroke:#333333;stroke-width:0.75;stroke-miterlimit:10;}
	.st5{fill:#A6A6A6;}
	.st6{font-family:'Roboto-Regular';}
	.st7{font-size:9px;}
	.st8{fill:#333333;}
</style>
<g>
	<defs>
		<rect id="SVGID_1_" width="637.5" height="487.5"/>
	</defs>
	<clipPath id="SVGID_2_">
		<use xlink:href="#SVGID_1_"  style="overflow:visible;"/>
	</clipPath>
	<g class="st0">
		<defs>
			<rect id="SVGID_3_" width="637.5" height="483"/>
		</defs>
		<clipPath id="SVGID_4_">
			<use xlink:href="#SVGID_3_"  style="overflow:visible;"/>
		</clipPath>
		<line class="st1" x1="21" y1="38.2" x2="637.5" y2="38.2"/>
		<line class="st1" x1="21" y1="81" x2="637.5" y2="81"/>
		<line class="st1" x1="21" y1="123" x2="637.5" y2="123"/>
		<line class="st1" x1="21" y1="165.8" x2="637.5" y2="165.8"/>
		<line class="st1" x1="21" y1="208.5" x2="637.5" y2="208.5"/>
		<line class="st1" x1="21" y1="251.2" x2="637.5" y2="251.2"/>
		<line class="st1" x1="21" y1="293.2" x2="637.5" y2="293.2"/>
		<line class="st1" x1="21" y1="336" x2="637.5" y2="336"/>
		<line class="st1" x1="21" y1="378.8" x2="637.5" y2="378.8"/>
		<line class="st1" x1="21" y1="420.8" x2="637.5" y2="420.8"/>
		<path class="st2" d="M21,463.5h7.8H21z"/>
		<path class="st2" d="M28.8,463.5h7.8H28.8z"/>
		<path class="st2" d="M36.6,463.5h7.8H36.6z"/>
		<path class="st2" d="M44.4,463.5h7.8H44.4z"/>
		<path class="st2" d="M52.2,463.5H60H52.2z"/>
		<path class="st2" d="M60,463.5h7.8H60z"/>
		<path class="st2" d="M67.8,463.5h7.8H67.8z"/>
		<path class="st2" d="M75.6,463.5h7.8H75.6z"/>
		<path class="st2" d="M83.4,463.5h7.8H83.4z"/>
		<path class="st2" d="M91.2,463.5H99H91.2z"/>
		<path class="st2" d="M99,463.5h7.8H99z"/>
		<polygon class="st3" points="629.7,21 629.7,4.5 621.9,4.5 621.9,8.2 614.1,8.2 614.1,42.8 606.3,42.8 606.3,72 598.5,72 
			598.5,97.5 590.7,97.5 590.7,119.2 582.9,119.2 582.9,97.5 575.1,97.5 575.1,127.5 567.3,127.5 567.3,132 559.5,132 559.5,135.8 
			551.7,135.8 551.7,186.8 543.9,186.8 543.9,186.8 536.1,186.8 528.2,186.8 528.2,191.2 520.4,191.2 520.4,212.2 512.6,212.2 
			512.6,212.2 504.8,212.2 504.8,204 497,204 497,191.2 489.2,191.2 489.2,191.2 481.4,191.2 481.4,165.8 473.6,165.8 473.6,165.8 
			465.8,165.8 465.8,170.2 458,170.2 458,84.8 450.2,84.8 450.2,76.5 442.4,76.5 442.4,46.5 434.6,46.5 434.6,38.2 426.8,38.2 
			426.8,59.2 419,59.2 411.2,59.2 411.2,68.2 403.4,68.2 403.4,21 395.6,21 395.6,0 387.8,0 387.8,8.2 380,8.2 380,21 372.2,21 
			372.2,21 364.4,21 364.4,33.8 356.6,33.8 356.6,51 348.8,51 348.8,97.5 341,97.5 341,68.2 333.2,68.2 333.2,89.2 325.3,89.2 
			325.3,97.5 317.5,97.5 317.5,110.2 309.7,110.2 309.7,102 301.9,102 301.9,110.2 294.1,110.2 294.1,119.2 286.3,119.2 
			286.3,148.5 278.5,148.5 278.5,148.5 270.7,148.5 270.7,97.5 262.9,97.5 262.9,97.5 255.1,97.5 255.1,153 247.3,153 247.3,140.2 
			239.5,140.2 239.5,148.5 231.7,148.5 231.7,148.5 223.9,148.5 223.9,178.5 216.1,178.5 216.1,157.5 208.3,157.5 208.3,161.2 
			200.5,161.2 200.5,183 192.7,183 192.7,225 184.9,225 184.9,191.2 177.1,191.2 177.1,199.5 169.3,199.5 169.3,280.5 161.5,280.5 
			161.5,259.5 153.7,259.5 153.7,259.5 145.9,259.5 145.9,289.5 138.1,289.5 138.1,369.8 130.3,369.8 122.4,369.8 122.4,408 
			114.6,408 114.6,408 106.8,408 106.8,463.5 114.6,463.5 114.6,463.5 122.4,463.5 122.4,463.5 130.3,463.5 138.1,463.5 
			138.1,463.5 145.9,463.5 153.7,463.5 153.7,463.5 161.5,463.5 169.3,463.5 177.1,463.5 177.1,463.5 184.9,463.5 192.7,463.5 
			192.7,463.5 200.5,463.5 208.3,463.5 216.1,463.5 223.9,463.5 231.7,463.5 231.7,463.5 239.5,463.5 247.3,463.5 247.3,463.5 
			255.1,463.5 262.9,463.5 262.9,463.5 270.7,463.5 278.5,463.5 278.5,463.5 286.3,463.5 286.3,463.5 294.1,463.5 301.9,463.5 
			301.9,463.5 309.7,463.5 317.5,463.5 317.5,463.5 325.3,463.5 333.2,463.5 333.2,463.5 341,463.5 341,463.5 348.8,463.5 
			356.6,463.5 356.6,463.5 364.4,463.5 372.2,463.5 372.2,463.5 380,463.5 380,463.5 387.8,463.5 395.6,463.5 395.6,463.5 
			403.4,463.5 411.2,463.5 411.2,463.5 419,463.5 426.8,463.5 426.8,463.5 434.6,463.5 434.6,463.5 442.4,463.5 450.2,463.5 
			450.2,463.5 458,463.5 465.8,463.5 465.8,463.5 473.6,463.5 473.6,463.5 481.4,463.5 489.2,463.5 489.2,463.5 497,463.5 
			504.8,463.5 504.8,463.5 512.6,463.5 512.6,463.5 520.4,463.5 528.2,463.5 528.2,463.5 536.1,463.5 543.9,463.5 543.9,463.5 
			551.7,463.5 551.7,463.5 559.5,463.5 567.3,463.5 567.3,463.5 575.1,463.5 582.9,463.5 582.9,463.5 590.7,463.5 590.7,463.5 
			598.5,463.5 606.3,463.5 606.3,463.5 614.1,463.5 621.9,463.5 621.9,463.5 629.7,463.5 637.5,463.5 637.5,21 		"/>
		<line class="st4" x1="21" y1="463.5" x2="637.5" y2="463.5"/>
	</g>
	<g class="st0">
		<text transform="matrix(1 0 0 1 5.2559 423.0996)" class="st5 st6 st7">10</text>
	</g>
	<g class="st0">
		<text transform="matrix(1 0 0 1 5.2559 381.0996)" class="st5 st6 st7">20</text>
	</g>
	<g class="st0">
		<text transform="matrix(1 0 0 1 5.2559 338.3496)" class="st5 st6 st7">30</text>
	</g>
	<g class="st0">
		<text transform="matrix(1 0 0 1 5.2559 295.5996)" class="st5 st6 st7">40</text>
	</g>
	<g class="st0">
		<text transform="matrix(1 0 0 1 5.2559 253.5996)" class="st5 st6 st7">50</text>
	</g>
	<g class="st0">
		<text transform="matrix(1 0 0 1 5.2559 210.8496)" class="st5 st6 st7">60</text>
	</g>
	<g class="st0">
		<text transform="matrix(1 0 0 1 5.2559 168.0996)" class="st5 st6 st7">70</text>
	</g>
	<g class="st0">
		<text transform="matrix(1 0 0 1 5.2559 125.3496)" class="st5 st6 st7">80</text>
	</g>
	<g class="st0">
		<text transform="matrix(1 0 0 1 5.2559 83.3496)" class="st5 st6 st7">90</text>
	</g>
	<g class="st0">
		<text transform="matrix(1 0 0 1 2.929688e-03 40.5996)" class="st5 st6 st7">100</text>
	</g>
</g>
<g>
	<text transform="matrix(1 0 0 1 618 479.5)" class="st8 st6 st7">5/28</text>
</g>
<g>
	<text transform="matrix(1 0 0 1 102.9998 479.5)" class="st8 st6 st7">3/22</text>
</g>
</svg>
