<?xml version="1.0" encoding="utf-8"?>
<!-- Generator: Adobe Illustrator 23.0.1, SVG Export Plug-In . SVG Version: 6.00 Build 0)  -->
<svg version="1.1" id="Layer_1" xmlns="http://www.w3.org/2000/svg" xmlns:xlink="http://www.w3.org/1999/xlink" x="0px" y="0px"
	 viewBox="0 0 637.5 487.5" style="enable-background:new 0 0 637.5 487.5;" xml:space="preserve">
<style type="text/css">
	.st0{clip-path:url(#SVGID_2_);}
	.st1{clip-path:url(#SVGID_4_);fill:none;stroke:#E8E8E8;stroke-width:0.75;stroke-miterlimit:10;}
	.st2{clip-path:url(#SVGID_4_);fill:#C71E1D;}
	.st3{clip-path:url(#SVGID_4_);fill:#C71E1D;fill-opacity:0.6;stroke:#000000;stroke-width:0.5;stroke-miterlimit:10;}
	.st4{clip-path:url(#SVGID_4_);fill:none;stroke:#333333;stroke-width:0.75;stroke-miterlimit:10;}
	.st5{fill:#A6A6A6;}
	.st6{font-family:'Roboto-Regular';}
	.st7{font-size:9px;}
	.st8{fill:#333333;}
</style>
<g>
	<defs>
		<rect id="SVGID_1_" width="637.5" height="487.5"/>
	</defs>
	<clipPath id="SVGID_2_">
		<use xlink:href="#SVGID_1_"  style="overflow:visible;"/>
	</clipPath>
	<g class="st0">
		<defs>
			<rect id="SVGID_3_" width="637.5" height="483"/>
		</defs>
		<clipPath id="SVGID_4_">
			<use xlink:href="#SVGID_3_"  style="overflow:visible;"/>
		</clipPath>
		<line class="st1" x1="21" y1="38.2" x2="637.5" y2="38.2"/>
		<line class="st1" x1="21" y1="81" x2="637.5" y2="81"/>
		<line class="st1" x1="21" y1="123" x2="637.5" y2="123"/>
		<line class="st1" x1="21" y1="165.8" x2="637.5" y2="165.8"/>
		<line class="st1" x1="21" y1="208.5" x2="637.5" y2="208.5"/>
		<line class="st1" x1="21" y1="251.2" x2="637.5" y2="251.2"/>
		<line class="st1" x1="21" y1="293.2" x2="637.5" y2="293.2"/>
		<line class="st1" x1="21" y1="336" x2="637.5" y2="336"/>
		<line class="st1" x1="21" y1="378.8" x2="637.5" y2="378.8"/>
		<line class="st1" x1="21" y1="420.8" x2="637.5" y2="420.8"/>
		<path class="st2" d="M21,463.5h7.9H21z"/>
		<path class="st2" d="M28.9,463.5h7.9H28.9z"/>
		<path class="st2" d="M36.8,463.5h7.9H36.8z"/>
		<path class="st2" d="M44.7,463.5h7.9H44.7z"/>
		<path class="st2" d="M52.6,463.5h7.9H52.6z"/>
		<path class="st2" d="M60.5,463.5h7.9H60.5z"/>
		<path class="st2" d="M68.4,463.5h7.9H68.4z"/>
		<path class="st2" d="M76.3,463.5h7.9H76.3z"/>
		<path class="st2" d="M84.2,463.5h7.9H84.2z"/>
		<path class="st2" d="M92.1,463.5h7.9H92.1z"/>
		<path class="st2" d="M100,463.5h7.9H100z"/>
		<polygon class="st3" points="629.6,4.5 629.6,8.2 621.7,8.2 621.7,42.8 613.8,42.8 613.8,72 605.9,72 605.9,97.5 598,97.5 
			598,119.2 590.1,119.2 590.1,97.5 582.2,97.5 582.2,127.5 574.3,127.5 574.3,132 566.4,132 566.4,135.8 558.5,135.8 558.5,186.8 
			550.6,186.8 550.6,186.8 542.7,186.8 534.8,186.8 534.8,191.2 526.8,191.2 526.8,212.2 518.9,212.2 511,212.2 511,204 503.1,204 
			503.1,191.2 495.2,191.2 495.2,191.2 487.3,191.2 487.3,165.8 479.4,165.8 471.5,165.8 471.5,170.2 463.6,170.2 463.6,84.8 
			455.7,84.8 455.7,76.5 447.8,76.5 447.8,46.5 439.9,46.5 439.9,38.2 432,38.2 432,59.2 424.1,59.2 416.2,59.2 416.2,68.2 
			408.3,68.2 408.3,21 400.4,21 400.4,0 392.5,0 392.5,8.2 384.6,8.2 384.6,21 376.7,21 368.8,21 368.8,33.8 360.9,33.8 360.9,51 
			353,51 353,97.5 345.1,97.5 345.1,68.2 337.2,68.2 337.2,89.2 329.2,89.2 329.2,97.5 321.3,97.5 321.3,110.2 313.4,110.2 
			313.4,102 305.5,102 305.5,110.2 297.6,110.2 297.6,119.2 289.7,119.2 289.7,148.5 281.8,148.5 273.9,148.5 273.9,97.5 266,97.5 
			266,97.5 258.1,97.5 258.1,153 250.2,153 250.2,140.2 242.3,140.2 242.3,148.5 234.4,148.5 226.5,148.5 226.5,178.5 218.6,178.5 
			218.6,157.5 210.7,157.5 210.7,161.2 202.8,161.2 202.8,183 194.9,183 194.9,225 187,225 187,191.2 179.1,191.2 179.1,199.5 
			171.2,199.5 171.2,280.5 163.3,280.5 163.3,259.5 155.4,259.5 147.5,259.5 147.5,289.5 139.6,289.5 139.6,369.8 131.7,369.8 
			123.8,369.8 123.8,408 115.8,408 115.8,408 107.9,408 107.9,463.5 115.8,463.5 115.8,463.5 123.8,463.5 123.8,463.5 131.7,463.5 
			139.6,463.5 139.6,463.5 147.5,463.5 155.4,463.5 163.3,463.5 163.3,463.5 171.2,463.5 179.1,463.5 179.1,463.5 187,463.5 
			194.9,463.5 202.8,463.5 202.8,463.5 210.7,463.5 218.6,463.5 226.5,463.5 226.5,463.5 234.4,463.5 242.3,463.5 242.3,463.5 
			250.2,463.5 258.1,463.5 266,463.5 266,463.5 273.9,463.5 281.8,463.5 289.7,463.5 289.7,463.5 297.6,463.5 305.5,463.5 
			305.5,463.5 313.4,463.5 321.3,463.5 329.2,463.5 329.3,463.5 337.2,463.5 345.1,463.5 345.1,463.5 353,463.5 360.9,463.5 
			368.8,463.5 368.8,463.5 376.7,463.5 384.6,463.5 392.5,463.5 392.5,463.5 400.4,463.5 408.3,463.5 408.3,463.5 416.2,463.5 
			424.1,463.5 432,463.5 432,463.5 439.9,463.5 447.8,463.5 447.8,463.5 455.7,463.5 463.6,463.5 471.5,463.5 471.5,463.5 
			479.4,463.5 487.3,463.5 495.2,463.5 495.2,463.5 503.1,463.5 511,463.5 511,463.5 518.9,463.5 526.8,463.5 526.8,463.5 
			534.8,463.5 542.7,463.5 550.6,463.5 550.6,463.5 558.5,463.5 566.4,463.5 566.4,463.5 574.3,463.5 582.2,463.5 590.1,463.5 
			590.1,463.5 598,463.5 605.9,463.5 613.8,463.5 613.8,463.5 621.7,463.5 629.6,463.5 629.6,463.5 637.5,463.5 637.5,4.5 		"/>
		<line class="st4" x1="21" y1="463.5" x2="637.5" y2="463.5"/>
	</g>
	<g class="st0">
		<text transform="matrix(1 0 0 1 5.2559 423.0996)" class="st5 st6 st7">10</text>
	</g>
	<g class="st0">
		<text transform="matrix(1 0 0 1 5.2559 381.0996)" class="st5 st6 st7">20</text>
	</g>
	<g class="st0">
		<text transform="matrix(1 0 0 1 5.2559 338.3496)" class="st5 st6 st7">30</text>
	</g>
	<g class="st0">
		<text transform="matrix(1 0 0 1 5.2559 295.5996)" class="st5 st6 st7">40</text>
	</g>
	<g class="st0">
		<text transform="matrix(1 0 0 1 5.2559 253.5996)" class="st5 st6 st7">50</text>
	</g>
	<g class="st0">
		<text transform="matrix(1 0 0 1 5.2559 210.8496)" class="st5 st6 st7">60</text>
	</g>
	<g class="st0">
		<text transform="matrix(1 0 0 1 5.2559 168.0996)" class="st5 st6 st7">70</text>
	</g>
	<g class="st0">
		<text transform="matrix(1 0 0 1 5.2559 125.3496)" class="st5 st6 st7">80</text>
	</g>
	<g class="st0">
		<text transform="matrix(1 0 0 1 5.2559 83.3496)" class="st5 st6 st7">90</text>
	</g>
	<g class="st0">
		<text transform="matrix(1 0 0 1 2.929688e-03 40.5996)" class="st5 st6 st7">100</text>
	</g>
</g>
<g>
	<text transform="matrix(1 0 0 1 618.017 477.0191)" class="st8 st6 st7">5/27</text>
</g>
<g>
	<text transform="matrix(1 0 0 1 104.2688 477.0191)" class="st8 st6 st7">3/22</text>
</g>
</svg>
