<?xml version="1.0" encoding="utf-8"?>
<!-- Generator: Adobe Illustrator 23.0.1, SVG Export Plug-In . SVG Version: 6.00 Build 0)  -->
<svg version="1.1" id="Layer_1" xmlns="http://www.w3.org/2000/svg" xmlns:xlink="http://www.w3.org/1999/xlink" x="0px" y="0px"
	 viewBox="0 0 637.5 487.5" style="enable-background:new 0 0 637.5 487.5;" xml:space="preserve">
<style type="text/css">
	.st0{clip-path:url(#SVGID_2_);}
	.st1{clip-path:url(#SVGID_4_);fill:none;stroke:#E8E8E8;stroke-width:0.75;stroke-miterlimit:10;}
	.st2{clip-path:url(#SVGID_4_);fill:#C71E1D;}
	.st3{clip-path:url(#SVGID_4_);fill:#C71E1D;fill-opacity:0.6;stroke:#000000;stroke-width:0.5;stroke-miterlimit:10;}
	.st4{clip-path:url(#SVGID_4_);fill:none;stroke:#333333;stroke-width:0.75;stroke-miterlimit:10;}
	.st5{fill:#A6A6A6;}
	.st6{font-family:'Roboto-Regular';}
	.st7{font-size:9px;}
	.st8{fill:#333333;}
</style>
<g>
	<defs>
		<rect id="SVGID_1_" width="637.5" height="487.5"/>
	</defs>
	<clipPath id="SVGID_2_">
		<use xlink:href="#SVGID_1_"  style="overflow:visible;"/>
	</clipPath>
	<g class="st0">
		<defs>
			<rect id="SVGID_3_" width="637.5" height="483"/>
		</defs>
		<clipPath id="SVGID_4_">
			<use xlink:href="#SVGID_3_"  style="overflow:visible;"/>
		</clipPath>
		<line class="st1" x1="21" y1="3.8" x2="637.5" y2="3.8"/>
		<line class="st1" x1="21" y1="80.2" x2="637.5" y2="80.2"/>
		<line class="st1" x1="21" y1="156.8" x2="637.5" y2="156.8"/>
		<line class="st1" x1="21" y1="234" x2="637.5" y2="234"/>
		<line class="st1" x1="21" y1="310.5" x2="637.5" y2="310.5"/>
		<line class="st1" x1="21" y1="387" x2="637.5" y2="387"/>
		<path class="st2" d="M21,463.5h7.4H21z"/>
		<path class="st2" d="M28.4,463.5h7.4H28.4z"/>
		<path class="st2" d="M35.9,463.5h7.4H35.9z"/>
		<path class="st2" d="M43.3,463.5h7.4H43.3z"/>
		<path class="st2" d="M50.7,463.5h7.4H50.7z"/>
		<path class="st2" d="M58.1,463.5h7.4H58.1z"/>
		<path class="st2" d="M65.6,463.5H73H65.6z"/>
		<path class="st2" d="M73,463.5h7.4H73z"/>
		<path class="st2" d="M80.4,463.5h7.4H80.4z"/>
		<path class="st2" d="M87.8,463.5h7.4H87.8z"/>
		<path class="st2" d="M95.3,463.5h7.4H95.3z"/>
		<polygon class="st3" points="627.7,0 627.7,23.2 620.2,23.2 620.2,65.2 612.8,65.2 612.8,30.8 605.4,30.8 605.4,65.2 597.9,65.2 
			597.9,49.5 590.5,49.5 590.5,54 583.1,54 583.1,84 575.7,84 575.7,111 568.2,111 568.2,134.2 560.8,134.2 560.8,153 553.4,153 
			553.4,134.2 545.9,134.2 545.9,161.2 538.5,161.2 538.5,165 531.1,165 531.1,168.8 523.7,168.8 523.7,214.5 516.2,214.5 
			508.8,214.5 501.4,214.5 501.4,218.2 494,218.2 494,237.8 487,237.8 479.6,237.8 479.6,229.5 472.2,229.5 472.2,218.2 
			464.8,218.2 457.7,218.2 457.7,195 450.3,195 442.8,195 442.8,199.5 435.4,199.5 435.4,122.2 428,122.2 428,114.8 420.6,114.8 
			420.6,87.8 413.1,87.8 413.1,80.2 405.7,80.2 405.7,99.8 398.6,99.8 398.3,99.8 391.1,99.8 391.1,107.2 383.7,107.2 383.7,65.2 
			376.3,65.2 376.3,45.8 368.9,45.8 368.9,54 361.4,54 361.4,65.2 354.3,65.2 346.9,65.2 346.9,76.5 339.4,76.5 339.4,92.2 
			332,92.2 332,134.2 324.6,134.2 324.6,107.2 317.2,107.2 317.2,126.8 309.7,126.8 309.7,134.2 302.3,134.2 302.3,145.5 295,145.5 
			295,138 287.6,138 287.6,145.5 280.2,145.5 280.2,153 272.7,153 272.7,180 265.6,180 265.3,180 258.1,180 258.1,134.2 
			250.7,134.2 243.3,134.2 243.3,183.8 236.2,183.8 236.2,172.5 228.8,172.5 228.8,180 221.3,180 213.9,180 213.9,207 206.5,207 
			206.5,187.5 199,187.5 199,191.2 191.6,191.2 191.6,210.8 184.2,210.8 184.2,249 176.8,249 176.8,218.2 169.3,218.2 169.3,225.8 
			161.9,225.8 161.9,298.5 154.5,298.5 154.5,279.8 147.3,279.8 147.1,279.8 139.8,279.8 139.8,306.8 132.4,306.8 132.4,379.5 
			125,379.5 117.6,379.5 117.6,414 110.1,414 102.7,414 102.7,463.5 110.1,463.5 117.6,463.5 125,463.5 132.4,463.5 139.8,463.5 
			147.1,463.5 147.3,463.5 154.5,463.5 161.9,463.5 169.3,463.5 176.8,463.5 184.2,463.5 191.6,463.5 199,463.5 206.5,463.5 
			213.9,463.5 221.3,463.5 228.8,463.5 236.2,463.5 243.3,463.5 243.6,463.5 250.7,463.5 258.1,463.5 265.3,463.5 265.6,463.5 
			272.7,463.5 280.2,463.5 287.6,463.5 295,463.5 302.3,463.5 302.5,463.5 309.7,463.5 317.2,463.5 324.6,463.5 332,463.5 
			339.4,463.5 346.9,463.5 354.3,463.5 361.4,463.5 361.7,463.5 368.9,463.5 376.3,463.5 383.7,463.5 391.1,463.5 398.3,463.5 
			398.6,463.5 405.7,463.5 413.1,463.5 420.6,463.5 428,463.5 435.4,463.5 442.8,463.5 450.3,463.5 457.3,463.5 457.7,463.5 
			464.8,463.5 472.2,463.5 479.6,463.5 487,463.5 494,463.5 494.5,463.5 501.4,463.5 508.8,463.5 516.2,463.5 523.7,463.5 
			531.1,463.5 531.1,463.5 538.5,463.5 545.9,463.5 553.4,463.5 553.4,463.5 560.8,463.5 568.2,463.5 568.2,463.5 575.7,463.5 
			583.1,463.5 590.5,463.5 590.5,463.5 597.9,463.5 605.4,463.5 612.8,463.5 612.8,463.5 620.2,463.5 627.7,463.5 627.7,463.5 
			635.1,463.5 635.1,0 		"/>
		<line class="st4" x1="21" y1="463.5" x2="637.5" y2="463.5"/>
	</g>
	<g class="st0">
		<text transform="matrix(1 0 0 1 5.2559 389.3496)" class="st5 st6 st7">20</text>
	</g>
	<g class="st0">
		<text transform="matrix(1 0 0 1 5.2559 312.8496)" class="st5 st6 st7">40</text>
	</g>
	<g class="st0">
		<text transform="matrix(1 0 0 1 5.2559 236.3496)" class="st5 st6 st7">60</text>
	</g>
	<g class="st0">
		<text transform="matrix(1 0 0 1 5.2559 159.0996)" class="st5 st6 st7">80</text>
	</g>
	<g class="st0">
		<text transform="matrix(1 0 0 1 2.929688e-03 82.5996)" class="st5 st6 st7">100</text>
	</g>
	<g class="st0">
		<text transform="matrix(1 0 0 1 2.929688e-03 6.0996)" class="st5 st6 st7">120</text>
	</g>
</g>
<g>
	<text transform="matrix(1 0 0 1 622.7737 478.8412)" class="st8 st6 st7">6/1</text>
</g>
<g>
	<text transform="matrix(1 0 0 1 98.567 478.8409)" class="st8 st6 st7">3/22</text>
</g>
</svg>
