<?xml version="1.0" encoding="utf-8"?>
<!-- Generator: Adobe Illustrator 23.0.1, SVG Export Plug-In . SVG Version: 6.00 Build 0)  -->
<svg version="1.1" id="Layer_1" xmlns="http://www.w3.org/2000/svg" xmlns:xlink="http://www.w3.org/1999/xlink" x="0px" y="0px"
	 viewBox="0 0 637.5 487.5" style="enable-background:new 0 0 637.5 487.5;" xml:space="preserve">
<style type="text/css">
	.st0{clip-path:url(#SVGID_2_);}
	.st1{clip-path:url(#SVGID_4_);fill:none;stroke:#E8E8E8;stroke-width:0.75;stroke-miterlimit:10;}
	.st2{clip-path:url(#SVGID_4_);fill:#C71E1D;}
	.st3{clip-path:url(#SVGID_4_);fill:#C71E1D;fill-opacity:0.6;stroke:#000000;stroke-width:0.5;stroke-miterlimit:10;}
	.st4{clip-path:url(#SVGID_4_);fill:none;stroke:#333333;stroke-width:0.75;stroke-miterlimit:10;}
	.st5{fill:#A6A6A6;}
	.st6{font-family:'Roboto-Regular';}
	.st7{font-size:9px;}
	.st8{fill:#333333;}
</style>
<g>
	<defs>
		<rect id="SVGID_1_" width="637.5" height="487.5"/>
	</defs>
	<clipPath id="SVGID_2_">
		<use xlink:href="#SVGID_1_"  style="overflow:visible;"/>
	</clipPath>
	<g class="st0">
		<defs>
			<rect id="SVGID_3_" width="637.5" height="483"/>
		</defs>
		<clipPath id="SVGID_4_">
			<use xlink:href="#SVGID_3_"  style="overflow:visible;"/>
		</clipPath>
		<line class="st1" x1="21" y1="60.8" x2="637.5" y2="60.8"/>
		<line class="st1" x1="21" y1="127.5" x2="637.5" y2="127.5"/>
		<line class="st1" x1="21" y1="195" x2="637.5" y2="195"/>
		<line class="st1" x1="21" y1="261.8" x2="637.5" y2="261.8"/>
		<line class="st1" x1="21" y1="329.2" x2="637.5" y2="329.2"/>
		<line class="st1" x1="21" y1="396" x2="637.5" y2="396"/>
		<path class="st2" d="M21,463.5h7.3H21z"/>
		<path class="st2" d="M28.3,463.5h7.3H28.3z"/>
		<path class="st2" d="M35.5,463.5h7.3H35.5z"/>
		<path class="st2" d="M42.8,463.5H50H42.8z"/>
		<path class="st2" d="M50,463.5h7.3H50z"/>
		<path class="st2" d="M57.3,463.5h7.3H57.3z"/>
		<path class="st2" d="M64.5,463.5h7.3H64.5z"/>
		<path class="st2" d="M71.8,463.5H79H71.8z"/>
		<path class="st2" d="M79,463.5h7.3H79z"/>
		<path class="st2" d="M86.3,463.5h7.3H86.3z"/>
		<path class="st2" d="M93.5,463.5h7.3H93.5z"/>
		<polygon class="st3" points="629.2,-0.1 629.2,20.2 622,20.2 622,56.9 614.8,56.9 614.8,77.2 607.5,77.2 607.5,113.9 600.3,113.9 
			600.3,83.9 593,83.9 593,113.9 585.8,113.9 585.8,100.4 578.5,100.4 578.5,104.2 571.4,104.2 571.4,131.2 564.1,131.2 
			564.1,154.4 556.9,154.4 556.9,174.7 549.6,174.7 549.6,191.2 542.5,191.2 542.5,174.7 535.2,174.7 535.2,197.9 528,197.9 
			528,201.7 520.7,201.7 520.7,204.7 513.5,204.7 513.5,245.2 506.2,245.2 499.1,245.2 499,245.2 491.8,245.2 491.8,248.2 
			484.6,248.2 484.6,265.4 477.3,265.4 470.1,265.4 470.1,258.7 462.8,258.7 462.8,248.2 455.7,248.2 455.6,248.2 448.5,248.2 
			448.5,228.7 441.2,228.7 433.9,228.7 433.9,231.7 426.7,231.7 426.7,164.2 419.5,164.2 419.5,157.4 412.2,157.4 412.2,134.2 
			405,134.2 405,127.4 397.7,127.4 397.7,144.7 390.5,144.7 383.2,144.7 383.2,151.4 376,151.4 376,113.9 368.8,113.9 368.8,97.4 
			361.5,97.4 361.5,104.1 354.3,104.1 354.3,113.9 347,113.9 339.8,113.9 339.8,124.5 332.6,124.5 332.6,138 325.4,138 325.4,174.8 
			318.1,174.8 318.1,151.5 310.9,151.5 310.9,168 303.6,168 303.6,174.7 296.5,174.7 296.5,184.4 289.2,184.4 289.2,177.7 
			282,177.7 282,184.4 274.7,184.4 274.7,191.2 267.5,191.2 267.5,215.2 260.3,215.2 253.1,215.2 253.1,174.8 245.8,174.8 
			238.6,174.8 238.6,218.2 231.3,218.2 231.3,208.5 224.1,208.5 224.1,215.2 216.8,215.2 209.6,215.2 209.6,238.5 202.3,238.5 
			202.3,222 195.1,222 195.1,225 187.8,225 187.8,241.5 180.6,241.5 180.6,275.2 173.3,275.2 173.3,248.2 166.1,248.2 166.1,255 
			158.8,255 158.8,318.8 151.6,318.8 151.6,302.2 144.3,302.2 137,302.2 137,325.5 129.8,325.5 129.8,389.2 122.5,389.2 
			115.3,389.2 115.3,420 108,420 100.8,420 100.8,463.5 108,463.5 115.3,463.5 122.5,463.5 129.8,463.5 137,463.5 144.3,463.5 
			151.6,463.5 158.8,463.5 166.1,463.5 173.3,463.5 180.6,463.5 187.8,463.5 187.8,463.5 195.1,463.5 202.3,463.5 209.6,463.5 
			216.8,463.5 224.1,463.5 231.3,463.5 238.6,463.5 245.8,463.5 253.1,463.5 260.3,463.5 267.6,463.5 267.6,463.4 274.7,463.4 
			282,463.4 289.2,463.4 296.5,463.4 303.6,463.4 303.6,463.5 310.9,463.5 318.1,463.5 325.4,463.5 332.6,463.5 339.9,463.5 
			339.9,463.4 347,463.4 354.3,463.4 361.5,463.4 368.8,463.4 376,463.4 383.2,463.4 383.2,463.4 390.5,463.4 397.7,463.4 
			405,463.4 412.2,463.4 419.4,463.4 419.5,463.4 426.7,463.4 433.9,463.4 441.2,463.4 448.5,463.4 455.6,463.4 455.7,463.4 
			462.8,463.4 470.1,463.4 477.3,463.4 484.6,463.4 491.8,463.4 499,463.4 499.1,463.4 506.2,463.4 513.5,463.4 520.7,463.4 
			528,463.4 535.2,463.4 542.4,463.4 542.5,463.4 549.6,463.4 556.9,463.4 564.1,463.4 571.4,463.4 578.5,463.4 578.6,463.4 
			585.8,463.4 593,463.4 600.3,463.4 607.5,463.4 614.8,463.4 622,463.4 622,463.4 629.2,463.4 636.5,463.4 636.5,-0.1 		"/>
		<line class="st4" x1="21" y1="463.5" x2="637.5" y2="463.5"/>
	</g>
	<g class="st0">
		<text transform="matrix(1 0 0 1 5.6426 399.0996)" class="st5 st6 st7">20</text>
	</g>
	<g class="st0">
		<text transform="matrix(1 0 0 1 5.6426 332.3496)" class="st5 st6 st7">40</text>
	</g>
	<g class="st0">
		<text transform="matrix(1 0 0 1 5.6426 264.8496)" class="st5 st6 st7">60</text>
	</g>
	<g class="st0">
		<text transform="matrix(1 0 0 1 5.6426 198.0996)" class="st5 st6 st7">80</text>
	</g>
	<g class="st0">
		<text transform="matrix(1 0 0 1 0.5889 130.5996)" class="st5 st6 st7">100</text>
	</g>
	<g class="st0">
		<text transform="matrix(1 0 0 1 0.5889 63.8496)" class="st5 st6 st7">120</text>
	</g>
</g>
<g>
	<text transform="matrix(1 0 0 1 623.5417 478.2269)" class="st8 st6 st7">6/3</text>
</g>
<g>
	<text transform="matrix(1 0 0 1 97.1255 478.2271)" class="st8 st6 st7">3/22</text>
</g>
</svg>
