<?xml version="1.0" encoding="utf-8"?>
<!-- Generator: Adobe Illustrator 23.0.1, SVG Export Plug-In . SVG Version: 6.00 Build 0)  -->
<svg version="1.1" id="Layer_1" xmlns="http://www.w3.org/2000/svg" xmlns:xlink="http://www.w3.org/1999/xlink" x="0px" y="0px"
	 viewBox="0 0 637.5 487.5" style="enable-background:new 0 0 637.5 487.5;" xml:space="preserve">
<style type="text/css">
	.st0{clip-path:url(#SVGID_2_);}
	.st1{clip-path:url(#SVGID_4_);fill:none;stroke:#E8E8E8;stroke-width:0.75;stroke-miterlimit:10;}
	.st2{clip-path:url(#SVGID_4_);fill:#C71E1D;}
	.st3{clip-path:url(#SVGID_4_);fill:#C71E1D;fill-opacity:0.6;stroke:#000000;stroke-width:0.5;stroke-miterlimit:10;}
	.st4{clip-path:url(#SVGID_4_);fill:none;stroke:#333333;stroke-width:0.75;stroke-miterlimit:10;}
	.st5{fill:#A6A6A6;}
	.st6{font-family:'Roboto-Regular';}
	.st7{font-size:9px;}
	.st8{fill:#333333;}
</style>
<g>
	<defs>
		<rect id="SVGID_1_" width="637.5" height="487.5"/>
	</defs>
	<clipPath id="SVGID_2_">
		<use xlink:href="#SVGID_1_"  style="overflow:visible;"/>
	</clipPath>
	<g class="st0">
		<defs>
			<rect id="SVGID_3_" width="637.5" height="483"/>
		</defs>
		<clipPath id="SVGID_4_">
			<use xlink:href="#SVGID_3_"  style="overflow:visible;"/>
		</clipPath>
		<line class="st1" x1="21" y1="60.8" x2="637.5" y2="60.8"/>
		<line class="st1" x1="21" y1="127.5" x2="637.5" y2="127.5"/>
		<line class="st1" x1="21" y1="195" x2="637.5" y2="195"/>
		<line class="st1" x1="21" y1="261.8" x2="637.5" y2="261.8"/>
		<line class="st1" x1="21" y1="329.2" x2="637.5" y2="329.2"/>
		<line class="st1" x1="21" y1="396" x2="637.5" y2="396"/>
		<path class="st2" d="M21,463.5h7.2H21z"/>
		<path class="st2" d="M28.2,463.5h7.2H28.2z"/>
		<path class="st2" d="M35.3,463.5h7.2H35.3z"/>
		<path class="st2" d="M42.5,463.5h7.2H42.5z"/>
		<path class="st2" d="M49.7,463.5h7.2H49.7z"/>
		<path class="st2" d="M56.8,463.5H64H56.8z"/>
		<path class="st2" d="M64,463.5h7.2H64z"/>
		<path class="st2" d="M71.2,463.5h7.2H71.2z"/>
		<path class="st2" d="M78.3,463.5h7.2H78.3z"/>
		<path class="st2" d="M85.5,463.5h7.2H85.5z"/>
		<path class="st2" d="M92.7,463.5h7.2H92.7z"/>
		<polygon class="st3" points="629.6,3 629.6,0 622.5,0 622.5,20.2 615.3,20.2 615.3,56.9 608.2,56.9 608.2,77.2 601,77.2 601,114 
			594,114 594,84 586.8,84 586.8,114 579.8,114 579.8,100.5 572.6,100.5 572.6,104.2 565.4,104.2 565.4,131.2 558.3,131.2 
			558.3,154.5 551.2,154.5 551.2,174.8 544,174.8 544,191.2 537,191.2 537,174.8 529.8,174.8 529.8,198 522.8,198 522.8,201.8 
			515.6,201.8 515.6,204.8 508.5,204.8 508.5,245.2 501.3,245.2 494.1,245.2 487,245.2 487,248.2 479.8,248.2 479.8,265.5 
			472.6,265.5 465.5,265.5 465.5,258.8 458.3,258.8 458.3,248.2 451.1,248.2 443.9,248.2 443.9,228.8 436.8,228.8 429.6,228.8 
			429.6,231.8 422.4,231.8 422.4,164.2 415.3,164.2 415.3,157.5 408.1,157.5 408.1,134.2 400.9,134.2 400.9,127.5 393.8,127.5 
			393.8,144.8 386.6,144.8 379.4,144.8 379.4,151.5 372.3,151.5 372.3,114 365.1,114 365.1,97.5 357.9,97.5 357.9,104.2 
			350.8,104.2 350.8,114 343.6,114 336.4,114 336.4,124.5 329.2,124.5 329.2,138 322.1,138 322.1,174.8 314.9,174.8 314.9,151.5 
			307.7,151.5 307.7,168 300.6,168 300.6,174.8 293.4,174.8 293.4,184.5 286.2,184.5 286.2,177.8 279.1,177.8 279.1,184.5 
			271.9,184.5 271.9,191.2 264.7,191.2 264.7,215.2 257.6,215.2 250.4,215.2 250.4,174.8 243.2,174.8 236.1,174.8 236.1,218.2 
			228.9,218.2 228.9,208.5 221.7,208.5 221.7,215.2 214.6,215.2 214.6,215.2 207.4,215.2 207.4,238.5 200.2,238.5 200.2,222 
			193,222 193,225 185.9,225 185.9,241.5 178.7,241.5 178.7,275.2 171.5,275.2 171.5,248.2 164.4,248.2 164.4,255 157.2,255 
			157.2,318.8 150,318.8 150,302.2 142.9,302.2 135.7,302.2 135.7,325.5 128.5,325.5 128.5,389.2 121.4,389.2 114.2,389.2 
			114.2,420 107,420 99.9,420 99.9,463.5 107,463.5 114.2,463.5 121.4,463.5 128.5,463.5 135.7,463.5 142.9,463.5 150,463.5 
			157.2,463.5 164.4,463.5 164.4,463.5 171.5,463.5 178.7,463.5 185.9,463.5 193,463.5 200.2,463.5 207.4,463.5 214.6,463.5 
			214.6,463.5 221.7,463.5 228.9,463.5 236.1,463.5 243.2,463.5 250.4,463.5 257.6,463.5 264.7,463.5 264.7,463.5 271.9,463.5 
			279.1,463.5 286.2,463.5 293.4,463.5 300.6,463.5 307.7,463.5 314.9,463.5 322.1,463.5 329.2,463.5 336.4,463.5 343.6,463.5 
			350.8,463.5 357.9,463.5 365.1,463.5 372.3,463.5 379.4,463.5 386.6,463.5 393.8,463.5 400.9,463.5 400.9,463.5 408.1,463.5 
			415.3,463.5 422.4,463.5 429.6,463.5 436.8,463.5 443.9,463.5 451.1,463.5 458.3,463.5 465.5,463.5 472.6,463.5 479.8,463.5 
			487,463.5 487,463.5 494.1,463.5 501.3,463.5 508.5,463.5 515.6,463.5 522.8,463.5 529.8,463.5 530,463.5 537,463.5 544,463.5 
			544.1,463.5 551.2,463.5 558.3,463.5 565.4,463.5 565.5,463.5 572.6,463.5 579.6,463.5 579.8,463.5 586.8,463.5 594,463.5 
			601.2,463.5 601.2,463.4 608.2,463.4 615.3,463.4 615.3,463.5 622.5,463.5 629.5,463.5 629.6,463.5 636.7,463.5 636.7,3 		"/>
		<line class="st4" x1="21" y1="463.5" x2="637.5" y2="463.5"/>
	</g>
	<g class="st0">
		<text transform="matrix(1 0 0 1 5.6426 399.0996)" class="st5 st6 st7">20</text>
	</g>
	<g class="st0">
		<text transform="matrix(1 0 0 1 5.6426 332.3496)" class="st5 st6 st7">40</text>
	</g>
	<g class="st0">
		<text transform="matrix(1 0 0 1 5.6426 264.8496)" class="st5 st6 st7">60</text>
	</g>
	<g class="st0">
		<text transform="matrix(1 0 0 1 5.6426 198.0996)" class="st5 st6 st7">80</text>
	</g>
	<g class="st0">
		<text transform="matrix(1 0 0 1 0.5889 130.5996)" class="st5 st6 st7">100</text>
	</g>
	<g class="st0">
		<text transform="matrix(1 0 0 1 0.5889 63.8496)" class="st5 st6 st7">120</text>
	</g>
</g>
<g>
	<text transform="matrix(1 0 0 1 620.9792 478.4606)" class="st8 st6 st7">6/4</text>
</g>
<g>
	<text transform="matrix(1 0 0 1 97.05 478.4608)" class="st8 st6 st7">3/22</text>
</g>
</svg>
