<?xml version="1.0" encoding="utf-8"?>
<!-- Generator: Adobe Illustrator 23.0.1, SVG Export Plug-In . SVG Version: 6.00 Build 0)  -->
<svg version="1.1" id="Layer_1" xmlns="http://www.w3.org/2000/svg" xmlns:xlink="http://www.w3.org/1999/xlink" x="0px" y="0px"
	 viewBox="0 0 637.5 487.5" style="enable-background:new 0 0 637.5 487.5;" xml:space="preserve">
<style type="text/css">
	.st0{clip-path:url(#SVGID_2_);}
	.st1{clip-path:url(#SVGID_4_);fill:none;stroke:#E8E8E8;stroke-width:0.75;stroke-miterlimit:10;}
	.st2{clip-path:url(#SVGID_4_);fill:#C71E1D;}
	.st3{clip-path:url(#SVGID_4_);}
	.st4{fill:#C71E1D;fill-opacity:0.6;stroke:#000000;stroke-width:0.5;stroke-miterlimit:10;}
	.st5{clip-path:url(#SVGID_4_);fill:none;stroke:#333333;stroke-width:0.75;stroke-miterlimit:10;}
	.st6{fill:#A6A6A6;}
	.st7{font-family:'Roboto-Regular';}
	.st8{font-size:9px;}
	.st9{fill:#FACE00;fill-opacity:0.85;stroke:#000000;stroke-width:0.5;stroke-miterlimit:10;}
	.st10{fill:#333333;}
</style>
<g>
	<defs>
		<rect id="SVGID_1_" width="637.5" height="487.5"/>
	</defs>
	<clipPath id="SVGID_2_">
		<use xlink:href="#SVGID_1_"  style="overflow:visible;"/>
	</clipPath>
	<g class="st0">
		<defs>
			<rect id="SVGID_3_" width="637.5" height="483"/>
		</defs>
		<clipPath id="SVGID_4_">
			<use xlink:href="#SVGID_3_"  style="overflow:visible;"/>
		</clipPath>
		<line class="st1" x1="21" y1="5.2" x2="637.5" y2="5.2"/>
		<line class="st1" x1="21" y1="56.2" x2="637.5" y2="56.2"/>
		<line class="st1" x1="21" y1="107.2" x2="637.5" y2="107.2"/>
		<line class="st1" x1="21" y1="158.2" x2="637.5" y2="158.2"/>
		<line class="st1" x1="21" y1="208.5" x2="637.5" y2="208.5"/>
		<line class="st1" x1="21" y1="259.5" x2="637.5" y2="259.5"/>
		<line class="st1" x1="21" y1="310.5" x2="637.5" y2="310.5"/>
		<line class="st1" x1="21" y1="361.5" x2="637.5" y2="361.5"/>
		<line class="st1" x1="21" y1="412.5" x2="637.5" y2="412.5"/>
		<path class="st2" d="M69.7,463.5h8.1H69.7z"/>
		<g class="st3">
			<polygon class="st4" points="61.6,459.8 53.4,459.8 53.4,460.5 45.3,460.5 37.2,460.5 37.2,458.2 29.1,458.2 29.1,462.8 
				21,462.8 21,463.5 29.1,463.5 29.1,463.5 37.2,463.5 45.3,463.5 53.4,463.5 61.6,463.5 69.7,463.5 69.7,457.5 61.6,457.5 			"/>
			<polygon class="st4" points="629.4,354.8 629.4,313.5 621.3,313.5 621.3,297.8 613.2,297.8 613.2,306.8 605.1,306.8 605.1,0 
				596.9,0 596.9,381.8 588.8,381.8 588.8,369.8 580.7,369.8 580.7,390 572.6,390 572.6,279 564.5,279 564.5,346.5 556.4,346.5 
				556.4,364.5 548.3,364.5 548.3,330.8 540.2,330.8 540.2,390 532,390 532,340.5 523.9,340.5 523.9,432 515.8,432 515.8,435 
				507.7,435 507.7,222 499.6,222 499.6,409.5 491.5,409.5 491.5,378.8 483.4,378.8 483.4,375.8 475.3,375.8 475.3,406.5 
				467.2,406.5 467.2,424.5 459,424.5 459,403.5 450.9,403.5 450.9,400.5 442.8,400.5 442.8,434.2 434.7,434.2 434.7,387.8 
				426.6,387.8 426.6,381.8 418.5,381.8 418.5,404.2 410.4,404.2 410.4,394.5 402.3,394.5 402.3,369.8 394.1,369.8 394.1,363 
				386,363 386,248.2 377.9,248.2 377.9,252.8 369.8,252.8 369.8,330.8 361.7,330.8 361.7,167.2 353.6,167.2 353.6,270 345.5,270 
				345.5,459.8 337.4,459.8 337.4,380.2 329.2,380.2 329.2,387 321.1,387 321.1,441.8 313,441.8 313,360.8 304.9,360.8 304.9,440.2 
				296.8,440.2 296.8,264.8 288.7,264.8 288.7,410.2 280.6,410.2 280.6,437.2 272.5,437.2 272.5,406.5 264.4,406.5 264.4,393 
				256.2,393 256.2,381.8 248.1,381.8 248.1,392.2 240,392.2 240,387.8 231.9,387.8 231.9,351.8 223.8,351.8 223.8,458.2 
				215.7,458.2 215.7,407.2 207.6,407.2 207.6,403.5 199.5,403.5 199.5,402.8 191.3,402.8 191.3,406.5 183.2,406.5 183.2,403.5 
				175.1,403.5 175.1,423 167,423 167,440.2 158.9,440.2 158.9,426 150.8,426 150.8,421.5 142.7,421.5 142.7,386.2 134.6,386.2 
				134.6,432 126.5,432 126.5,426.8 118.3,426.8 118.3,420 110.2,420 110.2,441 102.1,441 102.1,424.5 94,424.5 94,434.2 
				85.9,434.2 85.9,452.2 77.8,452.2 77.8,463.5 85.9,463.5 85.9,463.5 94,463.5 102.1,463.5 110.2,463.5 118.3,463.5 126.5,463.5 
				134.6,463.5 142.7,463.5 142.7,463.5 150.8,463.5 158.9,463.5 167,463.5 175.1,463.5 183.2,463.5 191.3,463.5 199.5,463.5 
				207.6,463.5 215.7,463.5 223.8,463.5 231.9,463.5 240,463.5 240,463.5 248.1,463.5 256.2,463.5 256.2,463.5 264.4,463.5 
				272.5,463.5 280.6,463.5 288.7,463.5 296.8,463.5 304.9,463.5 313,463.5 321.1,463.5 329.2,463.5 337.4,463.5 345.5,463.5 
				353.6,463.5 361.7,463.5 369.8,463.5 377.9,463.5 386,463.5 394.1,463.5 402.3,463.5 410.4,463.5 410.4,463.5 418.5,463.5 
				426.6,463.5 434.7,463.5 442.8,463.5 450.9,463.5 459,463.5 467.2,463.5 475.3,463.5 483.4,463.5 491.5,463.5 499.6,463.5 
				507.7,463.5 515.8,463.5 523.9,463.5 523.9,463.5 532,463.5 540.2,463.5 540.2,463.5 548.3,463.5 548.3,463.5 556.4,463.5 
				564.5,463.5 564.5,463.5 572.6,463.5 580.7,463.5 580.7,463.5 588.8,463.5 588.8,463.5 596.9,463.5 605.1,463.5 605.1,463.5 
				613.2,463.5 621.3,463.5 621.3,463.5 629.4,463.5 637.5,463.5 637.5,354.8 			"/>
		</g>
		<line class="st5" x1="21" y1="463.5" x2="637.5" y2="463.5"/>
	</g>
	<g class="st0">
		<text transform="matrix(1 0 0 1 5.2559 414.8496)" class="st6 st7 st8">50</text>
	</g>
	<g class="st0">
		<text transform="matrix(1 0 0 1 2.929688e-03 363.8496)" class="st6 st7 st8">100</text>
	</g>
	<g class="st0">
		<text transform="matrix(1 0 0 1 2.929688e-03 312.8496)" class="st6 st7 st8">150</text>
	</g>
	<g class="st0">
		<text transform="matrix(1 0 0 1 2.929688e-03 261.8496)" class="st6 st7 st8">200</text>
	</g>
	<g class="st0">
		<text transform="matrix(1 0 0 1 2.929688e-03 210.8496)" class="st6 st7 st8">250</text>
	</g>
	<g class="st0">
		<text transform="matrix(1 0 0 1 2.929688e-03 160.5996)" class="st6 st7 st8">300</text>
	</g>
	<g class="st0">
		<text transform="matrix(1 0 0 1 2.929688e-03 109.5996)" class="st6 st7 st8">350</text>
	</g>
	<g class="st0">
		<text transform="matrix(1 0 0 1 2.929688e-03 58.5996)" class="st6 st7 st8">400</text>
	</g>
	<g class="st0">
		<text transform="matrix(1 0 0 1 2.929688e-03 7.5996)" class="st6 st7 st8">450</text>
	</g>
</g>
<polygon class="st9" points="629.4,202.5 629.4,210 621.3,210 621.3,202.5 613.2,202.5 613.2,213.8 605.1,213.8 605.1,225.8 
	596.9,225.8 596.9,295.5 588.8,295.5 588.8,298.5 580.7,298.5 580.7,291 572.6,291 572.6,300 564.5,300 564.5,333.8 556.4,333.8 
	556.4,308.3 548.3,308.3 548.3,317.3 540.2,317.3 540.2,327.8 532,327.8 532,324.8 523.9,324.8 523.9,338.3 515.8,338.3 
	515.8,336.8 507.7,336.8 507.7,330.8 499.6,330.8 499.6,369 491.5,369 491.5,373.5 483.4,373.5 483.4,375 475.3,375 475.3,376.5 
	467.2,376.5 459,376.5 459,370.5 450.9,370.5 450.9,363 442.8,363 442.8,355.5 434.7,355.5 434.7,315.8 426.6,315.8 426.6,286.5 
	418.5,286.5 418.5,274.5 410.4,274.5 410.4,224.3 402.3,224.3 402.3,198 394.1,198 394.1,216.8 386,216.8 386,221.3 377.9,221.3 
	377.9,249.8 369.8,249.8 369.8,291 361.7,291 361.7,297 353.6,297 353.6,355.5 345.5,355.5 345.5,354 337.4,354 337.4,344.3 
	329.2,344.3 329.2,357 321.1,357 321.1,360 313,360 313,348.8 304.9,348.8 304.9,354 296.8,354 296.8,344.3 288.7,344.3 
	288.7,370.5 280.6,370.5 280.6,358.5 272.5,358.5 272.5,363 264.4,363 256.2,363 256.2,364.5 248.1,364.5 248.1,369 240,369 
	240,372 231.9,372 231.9,375 223.8,375 223.8,390 215.7,390 215.7,387 207.6,387 207.6,390 199.5,390 199.5,394.5 191.3,394.5 
	191.3,391.5 183.2,391.5 183.2,396.8 175.1,396.8 175.1,401.3 167,401.3 158.9,401.3 150.8,401.3 142.7,401.3 142.7,404.3 
	134.6,404.3 134.6,417.8 126.5,417.8 126.5,423.8 118.3,423.8 118.3,431.3 110.2,431.3 110.2,438.8 102.1,438.8 102.1,444 94,444 
	94,451.5 85.9,451.5 85.9,456 77.8,456 77.8,459 69.7,459 61.6,459 61.6,463.5 69.7,463.5 77.8,463.5 85.9,463.5 85.9,463.5 
	94,463.5 102.1,463.5 110.2,463.5 118.3,463.5 126.5,463.5 134.6,463.5 142.7,463.5 142.7,463.5 150.8,463.5 158.9,463.5 167,463.5 
	175.1,463.5 183.2,463.5 191.3,463.5 199.5,463.5 207.6,463.5 215.7,463.5 223.8,463.5 231.9,463.5 240,463.5 240,463.5 
	248.1,463.5 256.2,463.5 256.2,463.5 264.4,463.5 272.5,463.5 280.6,463.5 288.7,463.5 296.8,463.5 304.9,463.5 313,463.5 
	321.1,463.5 329.2,463.5 337.4,463.5 345.5,463.5 353.6,463.5 361.7,463.5 369.8,463.5 377.9,463.5 386,463.5 394.1,463.5 
	402.3,463.5 410.4,463.5 410.4,463.5 418.5,463.5 426.6,463.5 434.7,463.5 442.8,463.5 450.9,463.5 459,463.5 467.2,463.5 
	475.3,463.5 483.4,463.5 491.5,463.5 499.6,463.5 507.7,463.5 515.8,463.5 523.9,463.5 523.9,463.5 532,463.5 540.2,463.5 
	540.2,463.5 548.3,463.5 548.3,463.5 556.4,463.5 564.5,463.5 564.5,463.5 572.6,463.5 580.7,463.5 580.7,463.5 588.8,463.5 
	588.8,463.5 596.9,463.5 605.1,463.5 605.1,463.5 613.2,463.5 621.3,463.5 621.3,463.5 629.4,463.5 637.5,463.5 637.5,202.5 "/>
<text transform="matrix(1 0 0 1 522.6837 24.3783)" class="st10 st7 st8">New cases</text>
<rect x="507.3" y="16.3" class="st4" width="9.4" height="9.4"/>
<text transform="matrix(1 0 0 1 522.6837 40.9628)" class="st10 st7 st8">7-day average</text>
<rect x="507.3" y="32.9" class="st9" width="9.4" height="9.4"/>
<g>
	<text transform="matrix(1 0 0 1 617.5631 477.791)" class="st10 st7 st8">5/25</text>
</g>
<g>
	<text transform="matrix(1 0 0 1 15.6727 477.7907)" class="st10 st7 st8">3/11</text>
</g>
</svg>
