<?xml version="1.0" encoding="utf-8"?>
<!-- Generator: Adobe Illustrator 23.0.1, SVG Export Plug-In . SVG Version: 6.00 Build 0)  -->
<svg version="1.1" id="Layer_1" xmlns="http://www.w3.org/2000/svg" xmlns:xlink="http://www.w3.org/1999/xlink" x="0px" y="0px"
	 viewBox="0 0 637.5 487.5" style="enable-background:new 0 0 637.5 487.5;" xml:space="preserve">
<style type="text/css">
	.st0{clip-path:url(#SVGID_2_);enable-background:new    ;}
	.st1{clip-path:url(#SVGID_4_);fill:none;stroke:#E8E8E8;stroke-width:0.75;stroke-miterlimit:10;}
	.st2{clip-path:url(#SVGID_4_);fill:#C71E1D;fill-opacity:0.6;stroke:#000000;stroke-width:0.5;stroke-miterlimit:10;}
	.st3{clip-path:url(#SVGID_4_);fill:#C71E1D;}
	.st4{clip-path:url(#SVGID_4_);fill:none;stroke:#333333;stroke-width:0.75;stroke-miterlimit:10;}
	.st5{clip-path:url(#SVGID_4_);}
	.st6{fill:#A6A6A6;}
	.st7{font-family:'Roboto-Regular';}
	.st8{font-size:9px;}
	.st9{fill:#FACE00;fill-opacity:0.85;stroke:#000000;stroke-width:0.5;stroke-miterlimit:10;}
	.st10{fill:#333333;}
	.st11{font-size:11px;}
	.st12{fill:#C71E1D;fill-opacity:0.6;stroke:#000000;stroke-width:0.5;stroke-miterlimit:10;}
</style>
<g>
	<defs>
		<polyline id="SVGID_1_" points="0,487.5 0,0 637.5,0 637.5,487.5 		"/>
	</defs>
	<clipPath id="SVGID_2_">
		<use xlink:href="#SVGID_1_"  style="overflow:visible;"/>
	</clipPath>
	<g class="st0">
		<g>
			<defs>
				<polyline id="SVGID_3_" points="0,487.5 0,0 637.5,0 637.5,487.5 				"/>
			</defs>
			<clipPath id="SVGID_4_">
				<use xlink:href="#SVGID_3_"  style="overflow:visible;"/>
			</clipPath>
			<line class="st1" x1="21" y1="6" x2="637.5" y2="6"/>
			<line class="st1" x1="21" y1="82.5" x2="637.5" y2="82.5"/>
			<line class="st1" x1="21" y1="158.2" x2="637.5" y2="158.2"/>
			<line class="st1" x1="21" y1="234.8" x2="637.5" y2="234.8"/>
			<line class="st1" x1="21" y1="311.2" x2="637.5" y2="311.2"/>
			<line class="st1" x1="21" y1="387" x2="637.5" y2="387"/>
			<polygon class="st2" points="75.1,454.5 75.1,457.5 64.3,457.5 64.3,459 53.4,459 42.6,459 42.6,456 31.8,456 31.8,462 21,462 
				21,463.5 31.8,463.5 31.8,463.5 42.6,463.5 53.4,463.5 64.3,463.5 75.1,463.5 85.9,463.5 85.9,454.5 			"/>
			<path class="st3" d="M85.9,463.5h10.8H85.9z"/>
			<polygon class="st2" points="626.5,332.2 626.5,378 615.7,378 615.7,405.8 604.9,405.8 604.9,373.5 594.1,373.5 594.1,369 
				583.3,369 583.3,419.2 572.5,419.2 572.5,351 561.7,351 561.7,341.2 550.9,341.2 550.9,375 540.1,375 540.1,360 529.2,360 
				529.2,323.2 518.4,323.2 518.4,312.8 507.6,312.8 507.6,141.8 496.8,141.8 496.8,147.8 486,147.8 486,265.5 475.2,265.5 
				475.2,19.5 464.4,19.5 464.4,174 453.5,174 453.5,457.5 442.7,457.5 442.7,338.2 431.9,338.2 431.9,348.8 421.1,348.8 
				421.1,431.2 410.3,431.2 410.3,309.8 399.5,309.8 399.5,428.2 388.6,428.2 388.6,165.8 377.8,165.8 377.8,384 367,384 367,423.8 
				356.2,423.8 356.2,378 345.4,378 345.4,358.5 334.6,358.5 334.6,341.2 323.7,341.2 323.7,357 312.9,357 312.9,351 302.1,351 
				302.1,295.5 291.3,295.5 291.3,456 280.5,456 280.5,379.5 269.7,379.5 269.7,373.5 258.9,373.5 258.9,372 248,372 248,378 
				237.2,378 237.2,373.5 226.4,373.5 226.4,402.8 215.6,402.8 215.6,428.2 204.8,428.2 204.8,407.2 194,407.2 194,401.2 
				183.1,401.2 183.1,347.2 172.3,347.2 172.3,416.2 161.5,416.2 161.5,408.8 150.7,408.8 150.7,398.2 139.9,398.2 139.9,429.8 
				129.1,429.8 129.1,405.8 118.2,405.8 118.2,419.2 107.4,419.2 107.4,447 96.6,447 96.6,463.5 107.4,463.5 107.4,463.5 
				118.2,463.5 118.2,463.5 129.1,463.5 129.1,463.5 139.9,463.5 139.9,463.5 150.7,463.5 161.5,463.5 172.3,463.5 183.1,463.5 
				194,463.5 194,463.5 204.8,463.5 204.8,463.5 215.6,463.5 215.6,463.5 226.4,463.5 226.4,463.5 237.2,463.5 237.2,463.5 
				248,463.5 258.9,463.5 269.7,463.5 280.5,463.5 291.3,463.5 302.1,463.5 302.1,463.5 312.9,463.5 312.9,463.5 323.7,463.5 
				323.7,463.5 334.6,463.5 334.6,463.5 345.4,463.5 345.4,463.5 356.2,463.5 356.2,463.5 367,463.5 367,463.5 377.8,463.5 
				388.6,463.5 399.5,463.5 399.5,463.5 410.3,463.5 410.3,463.5 421.1,463.5 421.1,463.5 431.9,463.5 431.9,463.5 442.7,463.5 
				442.7,463.5 453.5,463.5 453.5,463.5 464.4,463.5 464.4,463.5 475.2,463.5 475.2,463.5 486,463.5 496.8,463.5 507.6,463.5 
				518.4,463.5 518.4,463.5 529.2,463.5 540.1,463.5 550.9,463.5 561.7,463.5 561.7,463.5 572.5,463.5 572.5,463.5 583.3,463.5 
				583.3,463.5 594.1,463.5 594.1,463.5 604.9,463.5 604.9,463.5 615.7,463.5 626.5,463.5 637.3,463.5 637.3,332.2 			"/>
			<line class="st4" x1="21" y1="463.5" x2="637.5" y2="463.5"/>
			<g class="st5">
				<text transform="matrix(1 0 0 1 5.6426 389.3496)" class="st6 st7 st8">50</text>
			</g>
			<g class="st5">
				<text transform="matrix(1 0 0 1 0.5889 313.5996)" class="st6 st7 st8">100</text>
			</g>
			<g class="st5">
				<text transform="matrix(1 0 0 1 0.5889 237.0996)" class="st6 st7 st8">150</text>
			</g>
			<g class="st5">
				<text transform="matrix(1 0 0 1 0.5889 160.5996)" class="st6 st7 st8">200</text>
			</g>
			<g class="st5">
				<text transform="matrix(1 0 0 1 0.5889 84.8496)" class="st6 st7 st8">250</text>
			</g>
			<g class="st5">
				<text transform="matrix(1 0 0 1 0.5889 8.3496)" class="st6 st7 st8">300</text>
			</g>
		</g>
	</g>
</g>
<polygon class="st9" points="626.4,374.8 626.4,376.3 615.6,376.3 604.8,376.3 604.8,370.3 594,370.3 594,362.8 583.2,362.8 
	583.2,355.3 572.5,355.3 572.5,315.5 561.6,315.5 561.6,286.3 550.8,286.3 550.8,274.3 540,274.3 540,224 529.2,224 529.2,197.8 
	518.4,197.8 518.4,216.5 507.6,216.5 507.6,221 496.8,221 496.8,249.5 485.9,249.5 485.9,290.8 475.1,290.8 475.1,296.8 
	464.3,296.8 464.3,355.3 453.5,355.3 453.5,353.8 442.7,353.8 442.7,344 431.9,344 431.9,356.8 421,356.8 421,359.8 410.2,359.8 
	410.2,348.5 399.4,348.5 399.4,353.8 388.6,353.8 388.6,344 377.8,344 377.8,370.3 367,370.3 367,358.3 356.1,358.3 356.1,362.8 
	345.3,362.8 345.3,362.8 334.5,362.8 334.5,364.3 323.7,364.3 323.7,368.8 312.9,368.8 312.9,371.8 302.1,371.8 302.1,374.8 
	291.3,374.8 291.3,389.8 280.4,389.8 280.4,386.8 269.6,386.8 269.6,389.8 258.8,389.8 258.8,394.3 248,394.3 248,391.3 
	237.2,391.3 237.2,396.5 226.4,396.5 226.4,401 215.5,401 215.5,401 204.7,401 204.7,401 193.9,401 193.9,401 183.1,401 183.1,404 
	172.3,404 172.3,417.5 161.5,417.5 161.5,423.5 150.6,423.5 150.6,431 139.8,431 139.8,438.5 129,438.5 129,443.8 118.2,443.8 
	118.2,451.3 107.4,451.3 107.4,455.8 96.6,455.8 96.6,458.8 85.8,458.8 85.8,458.8 74.9,458.8 74.9,463.3 85.8,463.3 85.8,463.3 
	96.6,463.3 96.6,463.3 107.4,463.3 107.4,463.3 118.2,463.3 118.2,463.3 129,463.3 129,463.3 139.8,463.3 139.8,463.3 150.6,463.3 
	161.5,463.3 172.3,463.3 183.1,463.3 193.9,463.3 193.9,463.3 204.7,463.3 204.7,463.3 215.5,463.3 215.5,463.3 226.4,463.3 
	226.4,463.3 237.2,463.3 237.2,463.3 248,463.3 258.8,463.3 269.6,463.3 280.4,463.3 291.3,463.3 302.1,463.3 302.1,463.3 
	312.9,463.3 312.9,463.3 323.7,463.3 323.7,463.3 334.5,463.3 334.5,463.3 345.3,463.3 345.3,463.3 356.1,463.3 356.1,463.3 
	367,463.3 367,463.3 377.8,463.3 388.6,463.3 399.4,463.3 399.4,463.3 410.2,463.3 410.2,463.3 421,463.3 421,463.3 431.9,463.3 
	431.9,463.3 442.7,463.3 442.7,463.3 453.5,463.3 453.5,463.3 464.3,463.3 464.3,463.3 475.1,463.3 475.1,463.3 485.9,463.3 
	496.8,463.3 507.6,463.3 518.4,463.3 518.4,463.3 529.2,463.3 540,463.3 550.8,463.3 561.6,463.3 561.6,463.3 572.4,463.3 
	572.5,463.3 583.2,463.3 583.2,463.3 594,463.3 594,463.3 604.8,463.3 604.8,463.3 615.6,463.3 626.4,463.3 637.2,463.3 
	637.2,374.8 "/>
<g>
	<text transform="matrix(1 0 0 1 558.207 33.8492)" class="st10 st7 st11">New cases</text>
</g>
<text transform="matrix(1 0 0 1 558.3735 55.4244)" class="st10 st7 st11">7-d</text>
<text transform="matrix(1 0 0 1 573.7735 55.4244)" class="st10 st7 st11">a</text>
<text transform="matrix(1 0 0 1 579.6735 55.4244)" class="st10 st7 st11">y </text>
<text transform="matrix(1 0 0 1 587.5735 55.4244)" class="st10 st7 st11">a</text>
<text transform="matrix(1 0 0 1 593.5735 55.4244)" class="st10 st7 st11">v</text>
<text transform="matrix(1 0 0 1 598.7735 55.4244)" class="st10 st7 st11">e</text>
<text transform="matrix(1 0 0 1 604.5735 55.4244)" class="st10 st7 st11">r</text>
<text transform="matrix(1 0 0 1 608.1735 55.4244)" class="st10 st7 st11">age</text>
<rect x="538.5" y="23.6" class="st12" width="11.6" height="11.6"/>
<rect x="538.5" y="45.4" class="st9" width="11.6" height="11.6"/>
<text transform="matrix(1 0 0 1 17.0544 477.2992)" class="st10 st7 st8">3/11</text>
<text transform="matrix(1 0 0 1 623.0144 477.2994)" class="st10 st7 st8">5/6</text>
</svg>
