<?xml version="1.0" encoding="utf-8"?>
<!-- Generator: Adobe Illustrator 23.0.1, SVG Export Plug-In . SVG Version: 6.00 Build 0)  -->
<svg version="1.1" id="Layer_1" xmlns="http://www.w3.org/2000/svg" xmlns:xlink="http://www.w3.org/1999/xlink" x="0px" y="0px"
	 viewBox="0 0 637.5 487.5" style="enable-background:new 0 0 637.5 487.5;" xml:space="preserve">
<style type="text/css">
	.st0{clip-path:url(#SVGID_2_);}
	.st1{clip-path:url(#SVGID_4_);fill:none;stroke:#E8E8E8;stroke-width:0.75;stroke-miterlimit:10;}
	.st2{clip-path:url(#SVGID_4_);fill:#C71E1D;}
	.st3{clip-path:url(#SVGID_4_);}
	.st4{fill:#C71E1D;fill-opacity:0.6;stroke:#000000;stroke-width:0.5;stroke-miterlimit:10;}
	.st5{clip-path:url(#SVGID_4_);fill:none;stroke:#333333;stroke-width:0.75;stroke-miterlimit:10;}
	.st6{fill:#A6A6A6;}
	.st7{font-family:'Roboto-Regular';}
	.st8{font-size:9px;}
	.st9{fill:#FACE00;fill-opacity:0.85;stroke:#000000;stroke-width:0.5;stroke-miterlimit:10;}
	.st10{fill:#333333;}
</style>
<g>
	<defs>
		<rect id="SVGID_1_" width="637.5" height="487.5"/>
	</defs>
	<clipPath id="SVGID_2_">
		<use xlink:href="#SVGID_1_"  style="overflow:visible;"/>
	</clipPath>
	<g class="st0">
		<defs>
			<rect id="SVGID_3_" width="637.5" height="483"/>
		</defs>
		<clipPath id="SVGID_4_">
			<use xlink:href="#SVGID_3_"  style="overflow:visible;"/>
		</clipPath>
		<line class="st1" x1="21" y1="5.2" x2="637.5" y2="5.2"/>
		<line class="st1" x1="21" y1="56.2" x2="637.5" y2="56.2"/>
		<line class="st1" x1="21" y1="107.2" x2="637.5" y2="107.2"/>
		<line class="st1" x1="21" y1="158.2" x2="637.5" y2="158.2"/>
		<line class="st1" x1="21" y1="208.5" x2="637.5" y2="208.5"/>
		<line class="st1" x1="21" y1="259.5" x2="637.5" y2="259.5"/>
		<line class="st1" x1="21" y1="310.5" x2="637.5" y2="310.5"/>
		<line class="st1" x1="21" y1="361.5" x2="637.5" y2="361.5"/>
		<line class="st1" x1="21" y1="412.5" x2="637.5" y2="412.5"/>
		<path class="st2" d="M70.3,463.5h8.2H70.3z"/>
		<g class="st3">
			<polygon class="st4" points="62.1,459.8 53.9,459.8 53.9,460.5 45.7,460.5 37.4,460.5 37.4,458.2 29.2,458.2 29.2,462.8 
				21,462.8 21,463.5 29.2,463.5 29.2,463.5 37.4,463.5 45.7,463.5 53.9,463.5 62.1,463.5 70.3,463.5 70.3,457.5 62.1,457.5 			"/>
			<polygon class="st4" points="628.8,313.6 628.8,297.8 620.5,297.8 620.5,306.8 612.5,306.8 612.5,0 604.3,0 604.3,381.8 
				596.1,381.8 596.1,369.8 587.9,369.8 587.9,390 579.8,390 579.8,279 571.5,279 571.5,346.5 563.3,346.5 563.3,364.4 555.2,364.4 
				555.2,330.7 546.9,330.7 546.9,390 538.8,390 538.8,340.5 530.6,340.5 530.6,432 522.4,432 522.4,435 514.2,435 514.2,222 
				506,222 506,409.5 497.8,409.5 497.8,378.8 489.5,378.8 489.5,375.8 481.3,375.8 481.3,406.5 473.1,406.5 473.1,424.5 
				464.9,424.5 464.9,403.5 456.7,403.5 456.7,400.5 448.4,400.5 448.4,434.2 440.2,434.2 440.2,387.8 432,387.8 432,381.8 
				423.8,381.8 423.8,404.2 415.6,404.2 415.6,394.5 407.3,394.5 407.3,369.8 399.1,369.8 399.1,363 390.9,363 390.9,248.2 
				382.7,248.2 382.7,252.8 374.5,252.8 374.5,330.8 366.2,330.8 366.2,167.2 358,167.2 358,270 349.8,270 349.8,459.8 341.6,459.8 
				341.6,380.2 333.4,380.2 333.4,387 325.1,387 325.1,441.8 316.9,441.8 316.9,360.8 308.7,360.8 308.7,440.2 300.5,440.2 
				300.5,264.8 292.3,264.8 292.3,410.2 284,410.2 284,437.2 275.8,437.2 275.8,406.5 267.6,406.5 267.6,393 259.4,393 259.4,381.8 
				251.2,381.8 251.2,392.2 242.9,392.2 242.9,387.8 234.7,387.8 234.7,351.8 226.5,351.8 226.5,458.2 218.3,458.2 218.3,407.2 
				210.1,407.2 210.1,403.5 201.8,403.5 201.8,402.8 193.6,402.8 193.6,406.5 185.4,406.5 185.4,403.5 177.2,403.5 177.2,423 
				169,423 169,440.2 160.7,440.2 160.7,426 152.5,426 152.5,421.5 144.3,421.5 144.3,386.2 136.1,386.2 136.1,432 127.9,432 
				127.9,426.8 119.6,426.8 119.6,420 111.4,420 111.4,441 103.2,441 103.2,424.5 95,424.5 95,434.2 86.8,434.2 86.8,452.2 
				78.5,452.2 78.5,463.5 86.8,463.5 95,463.5 103.2,463.5 111.4,463.5 119.6,463.5 127.9,463.5 136.1,463.5 144.3,463.5 
				152.5,463.5 160.7,463.5 169,463.5 177.2,463.5 185.4,463.5 193.6,463.5 201.8,463.5 210.1,463.5 218.3,463.5 226.5,463.5 
				234.7,463.5 242.9,463.5 251.2,463.5 259.4,463.5 267.6,463.5 275.8,463.5 284,463.5 292.3,463.5 300.5,463.5 308.7,463.5 
				316.9,463.5 325.1,463.5 333.4,463.5 333.4,463.5 341.6,463.5 349.8,463.5 358,463.5 366.2,463.5 374.5,463.5 382.7,463.5 
				390.9,463.5 399.1,463.5 407.3,463.5 415.6,463.5 423.8,463.5 432,463.5 440.2,463.5 448.4,463.5 456.7,463.5 464.9,463.5 
				473.1,463.5 481.3,463.5 489.5,463.5 497.8,463.5 506,463.5 514.2,463.5 522.4,463.5 530.6,463.5 530.6,463.5 538.8,463.5 
				547,463.5 547,463.4 555.2,463.4 563.3,463.4 563.3,463.5 571.5,463.5 579.7,463.5 579.8,463.5 587.9,463.5 596.1,463.5 
				596.1,463.5 604.3,463.5 612.3,463.5 612.5,463.5 620.5,463.5 628.7,463.5 628.7,463.6 636.9,463.6 636.9,313.6 			"/>
		</g>
		<line class="st5" x1="21" y1="463.5" x2="637.5" y2="463.5"/>
	</g>
	<g class="st0">
		<text transform="matrix(1 0 0 1 5.2559 414.8496)" class="st6 st7 st8">50</text>
	</g>
	<g class="st0">
		<text transform="matrix(1 0 0 1 2.929688e-03 363.8496)" class="st6 st7 st8">100</text>
	</g>
	<g class="st0">
		<text transform="matrix(1 0 0 1 2.929688e-03 312.8496)" class="st6 st7 st8">150</text>
	</g>
	<g class="st0">
		<text transform="matrix(1 0 0 1 2.929688e-03 261.8496)" class="st6 st7 st8">200</text>
	</g>
	<g class="st0">
		<text transform="matrix(1 0 0 1 2.929688e-03 210.8496)" class="st6 st7 st8">250</text>
	</g>
	<g class="st0">
		<text transform="matrix(1 0 0 1 2.929688e-03 160.5996)" class="st6 st7 st8">300</text>
	</g>
	<g class="st0">
		<text transform="matrix(1 0 0 1 2.929688e-03 109.5996)" class="st6 st7 st8">350</text>
	</g>
	<g class="st0">
		<text transform="matrix(1 0 0 1 2.929688e-03 58.5996)" class="st6 st7 st8">400</text>
	</g>
	<g class="st0">
		<text transform="matrix(1 0 0 1 2.929688e-03 7.5996)" class="st6 st7 st8">450</text>
	</g>
</g>
<polygon class="st9" points="628.8,210 628.8,202.5 620.5,202.5 620.5,213.7 612.3,213.7 612.3,225.7 604.1,225.7 604.1,295.4 
	595.9,295.4 595.9,298.5 587.8,298.5 587.8,291 579.6,291 579.6,300 571.5,300 571.5,333.7 563.3,333.7 563.3,308.2 555.1,308.2 
	555.1,317.2 546.9,317.2 546.9,327.7 538.8,327.7 538.8,324.7 530.6,324.7 530.6,338.2 522.4,338.2 522.4,336.7 514.2,336.7 
	514.2,330.7 506,330.7 506,369 497.8,369 497.8,373.5 489.6,373.5 489.6,375 481.3,375 481.3,376.5 473.1,376.5 464.9,376.5 
	464.9,370.5 456.7,370.5 456.7,363 448.5,363 448.5,355.5 440.2,355.5 440.2,315.7 432,315.7 432,286.5 423.8,286.5 423.8,274.5 
	415.6,274.5 415.6,224.2 407.4,224.2 407.4,198 399.1,198 399.1,216.7 390.9,216.7 390.9,221.2 382.7,221.2 382.7,249.7 
	374.5,249.7 374.5,291 366.3,291 366.3,297 358,297 358,355.5 349.8,355.5 349.8,354 341.6,354 341.6,344.2 333.4,344.2 333.4,357 
	325.2,357 325.2,360 316.9,360 316.9,348.7 308.7,348.7 308.7,354 300.5,354 300.5,344.2 292.3,344.2 292.3,370.5 284.1,370.5 
	284.1,358.5 275.8,358.5 275.8,363 267.6,363 259.4,363 259.4,364.5 251.2,364.5 251.2,369 243,369 243,372 234.7,372 234.7,375 
	226.5,375 226.5,390 218.3,390 218.3,387 210.1,387 210.1,390 201.9,390 201.9,394.5 193.6,394.5 193.6,391.5 185.4,391.5 
	185.4,396.7 177.2,396.7 177.2,401.2 169,401.2 160.8,401.2 152.5,401.2 144.3,401.2 144.3,404.2 136.1,404.2 136.1,417.7 
	127.9,417.7 127.9,423.7 119.7,423.7 119.7,431.2 111.4,431.2 111.4,438.7 103.2,438.7 103.2,444 95,444 95,451.5 86.8,451.5 
	86.8,456 78.6,456 78.6,459 70.3,459 62.1,459 62.1,463.5 70.3,463.5 78.6,463.5 86.8,463.5 95,463.5 103.2,463.5 111.4,463.5 
	119.7,463.5 127.9,463.5 136.1,463.5 144.3,463.5 152.5,463.5 160.8,463.5 169,463.5 177.2,463.5 185.4,463.5 193.6,463.5 
	201.9,463.5 210.1,463.5 218.3,463.5 226.5,463.5 234.7,463.5 243,463.5 251.2,463.5 259.4,463.5 267.6,463.5 275.8,463.5 
	284.1,463.5 292.3,463.5 300.5,463.5 308.7,463.5 316.9,463.5 325.2,463.5 333.4,463.5 333.4,463.5 341.6,463.5 349.8,463.5 
	358,463.5 366.3,463.5 374.5,463.5 382.7,463.5 390.9,463.5 399.1,463.5 407.4,463.5 415.6,463.5 423.8,463.5 432,463.5 
	440.2,463.5 448.5,463.5 456.7,463.5 464.9,463.5 473.1,463.5 481.3,463.5 489.6,463.5 497.8,463.5 506,463.5 514.2,463.5 
	522.4,463.5 530.6,463.5 530.7,463.5 538.8,463.5 546.9,463.5 547,463.5 555.1,463.5 563.3,463.5 563.3,463.5 571.5,463.5 
	579.6,463.5 579.7,463.5 587.8,463.5 596,463.5 596,463.4 604.1,463.4 612.3,463.4 612.3,463.5 620.5,463.5 628.7,463.5 
	628.8,463.5 637,463.5 637,210 "/>
<text transform="matrix(1 0 0 1 532.681 22.8921)" class="st10 st7 st8">New cases</text>
<rect x="517.3" y="14.8" class="st4" width="9.4" height="9.4"/>
<text transform="matrix(1 0 0 1 532.681 39.4766)" class="st10 st7 st8">7-day average</text>
<rect x="517.3" y="31.4" class="st9" width="9.4" height="9.4"/>
<g>
	<text transform="matrix(1 0 0 1 617.5628 478.631)" class="st10 st7 st8">5/24</text>
</g>
<g>
	<text transform="matrix(1 0 0 1 15.6725 478.6308)" class="st10 st7 st8">3/11</text>
</g>
</svg>
