<?xml version="1.0" encoding="utf-8"?>
<!-- Generator: Adobe Illustrator 23.0.1, SVG Export Plug-In . SVG Version: 6.00 Build 0)  -->
<svg version="1.1" id="Layer_1" xmlns="http://www.w3.org/2000/svg" xmlns:xlink="http://www.w3.org/1999/xlink" x="0px" y="0px"
	 viewBox="0 0 637.5 487.5" style="enable-background:new 0 0 637.5 487.5;" xml:space="preserve">
<style type="text/css">
	.st0{clip-path:url(#SVGID_2_);enable-background:new    ;}
	.st1{clip-path:url(#SVGID_4_);fill:none;stroke:#E8E8E8;stroke-width:0.75;stroke-miterlimit:10;}
	.st2{clip-path:url(#SVGID_4_);fill:#C71E1D;}
	.st3{clip-path:url(#SVGID_4_);}
	.st4{fill:#C71E1D;fill-opacity:0.6;stroke:#000000;stroke-width:0.5;stroke-miterlimit:10;}
	.st5{clip-path:url(#SVGID_4_);fill:none;stroke:#333333;stroke-width:0.75;stroke-miterlimit:10;}
	.st6{fill:#A6A6A6;}
	.st7{font-family:'Roboto-Regular';}
	.st8{font-size:9px;}
	.st9{fill:#FACE00;fill-opacity:0.85;stroke:#000000;stroke-width:0.5;stroke-miterlimit:10;}
	.st10{fill:#333333;}
	.st11{font-size:11px;}
</style>
<g>
	<defs>
		<rect id="SVGID_1_" width="637.5" height="487.5"/>
	</defs>
	<clipPath id="SVGID_2_">
		<use xlink:href="#SVGID_1_"  style="overflow:visible;"/>
	</clipPath>
	<g class="st0">
		<g>
			<defs>
				<rect id="SVGID_3_" width="637.5" height="487.5"/>
			</defs>
			<clipPath id="SVGID_4_">
				<use xlink:href="#SVGID_3_"  style="overflow:visible;"/>
			</clipPath>
			<line class="st1" x1="21" y1="6" x2="637.5" y2="6"/>
			<line class="st1" x1="21" y1="82.5" x2="637.5" y2="82.5"/>
			<line class="st1" x1="21" y1="158.2" x2="637.5" y2="158.2"/>
			<line class="st1" x1="21" y1="234.8" x2="637.5" y2="234.8"/>
			<line class="st1" x1="21" y1="311.2" x2="637.5" y2="311.2"/>
			<line class="st1" x1="21" y1="387" x2="637.5" y2="387"/>
			<path class="st2" d="M79.7,463.5h9.8H79.7z"/>
			<g class="st3">
				<polygon class="st4" points="69.9,457.5 60.1,457.5 60.1,459 50.4,459 40.6,459 40.6,456 30.8,456 30.8,462 21,462 21,463.5 
					30.8,463.5 40.6,463.5 50.4,463.5 60.1,463.5 60.1,463.5 69.9,463.5 79.7,463.5 79.7,454.5 69.9,454.5 				"/>
				<polygon class="st4" points="627,279 627,416.3 617.2,416.3 617.2,420.8 607.5,420.8 607.5,102 597.7,102 597.7,382.5 
					587.9,382.5 587.9,336.8 578.2,336.8 578.2,332.2 568.4,332.2 568.4,378 558.6,378 558.6,405.8 548.9,405.8 548.9,373.5 
					539.2,373.5 539.2,369 529.4,369 529.4,419.2 519.7,419.2 519.7,351 510,351 510,341.2 500.3,341.2 500.3,375 490.5,375 
					490.5,360 480.7,360 480.7,323.2 470.9,323.2 470.9,312.8 461.2,312.8 461.2,141.8 451.4,141.8 451.4,147.8 441.6,147.8 
					441.6,265.5 431.8,265.5 431.8,19.5 422,19.5 422,174 412.3,174 412.3,457.5 402.5,457.5 402.5,338.2 392.7,338.2 392.7,348.8 
					382.9,348.8 382.9,431.2 373.2,431.2 373.2,309.8 363.4,309.8 363.4,428.2 353.6,428.2 353.6,165.8 343.8,165.8 343.8,384 
					334,384 334,423.8 324.3,423.8 324.3,378 314.5,378 314.5,358.5 304.7,358.5 304.7,341.2 294.9,341.2 294.9,357 285.1,357 
					285.1,351 275.4,351 275.4,295.5 265.6,295.5 265.6,456 255.8,456 255.8,379.5 246,379.5 246,373.5 236.2,373.5 236.2,372 
					226.4,372 226.4,378 216.7,378 216.7,373.5 206.9,373.5 206.9,402.8 197.1,402.8 197.1,428.2 187.3,428.2 187.3,407.2 
					177.5,407.2 177.5,401.2 167.8,401.2 167.8,347.2 158,347.2 158,416.2 148.2,416.2 148.2,408.8 138.4,408.8 138.4,398.2 
					128.6,398.2 128.6,429.8 118.9,429.8 118.9,405.8 109.1,405.8 109.1,419.2 99.3,419.2 99.3,447 89.5,447 89.5,463.5 99.3,463.5 
					109.1,463.5 118.8,463.5 118.9,463.5 128.6,463.5 138.4,463.5 148.2,463.5 158,463.5 167.8,463.5 177.5,463.5 187.3,463.5 
					187.3,463.5 197.1,463.5 206.9,463.5 216.7,463.5 226.4,463.5 236.2,463.5 246,463.5 255.8,463.5 255.8,463.5 265.6,463.5 
					275.4,463.5 285.1,463.5 294.9,463.5 304.7,463.5 314.5,463.5 324.3,463.5 324.3,463.5 334,463.5 343.8,463.5 353.6,463.5 
					363.4,463.5 373.1,463.5 373.2,463.5 382.9,463.5 382.9,463.5 392.7,463.5 392.7,463.5 402.5,463.5 412.3,463.5 422,463.5 
					431.8,463.5 441.6,463.5 451.4,463.5 461.1,463.5 461.2,463.5 470.9,463.5 480.7,463.5 490.5,463.5 500.3,463.5 509.9,463.5 
					510,463.5 519.6,463.5 519.7,463.5 529.4,463.5 529.4,463.5 539.1,463.5 539.2,463.5 548.9,463.5 548.9,463.5 558.6,463.5 
					558.7,463.5 568.4,463.5 578.2,463.5 587.9,463.5 597.7,463.5 607.5,463.5 617.2,463.5 617.2,463.5 627,463.5 636.8,463.5 
					636.8,279 				"/>
			</g>
			<line class="st5" x1="21" y1="463.5" x2="637.5" y2="463.5"/>
			<g class="st3">
				<text transform="matrix(1 0 0 1 5.6426 389.3496)" class="st6 st7 st8">50</text>
			</g>
			<g class="st3">
				<text transform="matrix(1 0 0 1 0.5889 313.5996)" class="st6 st7 st8">100</text>
			</g>
			<g class="st3">
				<text transform="matrix(1 0 0 1 0.5889 237.0996)" class="st6 st7 st8">150</text>
			</g>
			<g class="st3">
				<text transform="matrix(1 0 0 1 0.5889 160.5996)" class="st6 st7 st8">200</text>
			</g>
			<g class="st3">
				<text transform="matrix(1 0 0 1 0.5889 84.8496)" class="st6 st7 st8">250</text>
			</g>
			<g class="st3">
				<text transform="matrix(1 0 0 1 0.5889 8.3496)" class="st6 st7 st8">300</text>
			</g>
		</g>
	</g>
</g>
<polygon class="st9" points="626.9,324.6 626.9,338.1 617.3,338.1 617.3,336.6 607.5,336.6 607.5,330.6 597.7,330.6 597.7,368.9 
	587.9,368.9 587.9,373.4 578.2,373.4 578.2,374.9 568.4,374.9 568.4,376.4 558.7,376.4 558.7,376.4 548.9,376.4 548.9,370.4 
	539.2,370.4 539.2,362.9 529.5,362.9 529.5,355.4 519.8,355.4 519.8,315.7 510.1,315.7 510.1,286.4 500.4,286.4 500.4,274.4 
	490.6,274.4 490.6,224.1 480.8,224.1 480.8,197.9 471,197.9 471,216.6 461.2,216.6 461.2,221.1 451.5,221.1 451.5,249.6 
	441.7,249.6 441.7,290.9 431.9,290.9 431.9,296.9 422.1,296.9 422.1,355.4 412.4,355.4 412.4,353.9 402.6,353.9 402.6,344.1 
	392.8,344.1 392.8,356.9 383.1,356.9 383.1,359.9 373.4,359.9 373.4,348.6 363.6,348.6 363.6,353.9 353.8,353.9 353.8,344.1 
	344,344.1 344,370.4 334.2,370.4 334.2,358.4 324.4,358.4 324.4,362.9 314.8,362.9 305,362.9 305,364.4 295.2,364.4 295.2,368.9 
	285.4,368.9 285.4,371.9 275.6,371.9 275.6,374.9 265.8,374.9 265.8,389.9 256.1,389.9 256.1,386.9 246.3,386.9 246.3,389.9 
	236.5,389.9 236.5,394.4 226.7,394.4 226.7,391.4 216.9,391.4 216.9,396.6 207.2,396.6 207.2,401.1 197.4,401.1 187.6,401.1 
	187.6,401.1 177.9,401.1 168.1,401.1 168.1,404.1 158.3,404.1 158.3,417.6 148.5,417.6 148.5,423.6 138.7,423.6 138.7,431.1 
	128.9,431.1 128.9,438.6 119.1,438.6 119.1,443.9 109.4,443.9 109.4,451.4 99.7,451.4 99.7,455.9 89.9,455.9 89.9,458.9 80.1,458.9 
	70.3,458.9 70.3,463.4 80.1,463.4 89.9,463.4 99.7,463.4 109.4,463.4 119.1,463.4 119.2,463.4 128.9,463.4 138.7,463.4 148.5,463.4 
	158.3,463.4 168.1,463.4 177.9,463.4 187.6,463.4 187.6,463.4 197.4,463.4 207.2,463.4 216.9,463.4 226.7,463.4 236.5,463.4 
	246.3,463.4 256.1,463.4 256.1,463.4 265.8,463.4 275.6,463.4 285.4,463.4 295.2,463.4 305,463.4 314.8,463.4 324.4,463.4 
	324.6,463.4 334.2,463.4 344,463.4 353.8,463.4 363.6,463.4 373.3,463.4 373.4,463.4 383.1,463.4 383.1,463.4 392.8,463.4 
	392.8,463.4 402.6,463.4 412.4,463.4 422.1,463.4 431.9,463.4 441.7,463.4 451.5,463.4 461.2,463.4 461.3,463.4 471,463.4 
	480.8,463.4 490.6,463.4 500.4,463.4 510,463.4 510,463.4 519.7,463.4 519.8,463.4 529.5,463.4 529.5,463.4 539.2,463.4 
	539.2,463.4 548.9,463.4 548.9,463.4 558.6,463.4 558.6,463.4 568.4,463.4 578.2,463.4 587.9,463.4 597.7,463.4 607.5,463.4 
	617.3,463.4 617.3,463.4 626.9,463.4 636.7,463.4 636.7,324.6 "/>
<g>
	<text transform="matrix(1 0 0 1 546.9469 34.3984)" class="st10 st7 st11">New cases</text>
</g>
<text transform="matrix(1 0 0 1 547.1135 55.9736)" class="st10 st7 st11">7-d</text>
<text transform="matrix(1 0 0 1 562.5134 55.9736)" class="st10 st7 st11">a</text>
<text transform="matrix(1 0 0 1 568.4135 55.9736)" class="st10 st7 st11">y </text>
<text transform="matrix(1 0 0 1 576.3134 55.9736)" class="st10 st7 st11">a</text>
<text transform="matrix(1 0 0 1 582.3134 55.9736)" class="st10 st7 st11">v</text>
<text transform="matrix(1 0 0 1 587.5134 55.9736)" class="st10 st7 st11">e</text>
<text transform="matrix(1 0 0 1 593.3134 55.9736)" class="st10 st7 st11">r</text>
<text transform="matrix(1 0 0 1 596.9135 55.9736)" class="st10 st7 st11">age</text>
<rect x="527.2" y="24.1" class="st4" width="11.6" height="11.6"/>
<rect x="527.2" y="45.9" class="st9" width="11.6" height="11.6"/>
<g>
	<text transform="matrix(1 0 0 1 618.652 477.4773)" class="st10 st7 st8">5/12</text>
</g>
<g>
	<text transform="matrix(1 0 0 1 16.3872 478.4736)" class="st10 st7 st8">3/11</text>
</g>
</svg>
