<?xml version="1.0" encoding="utf-8"?>
<!-- Generator: Adobe Illustrator 23.0.1, SVG Export Plug-In . SVG Version: 6.00 Build 0)  -->
<svg version="1.1" id="Layer_1" xmlns="http://www.w3.org/2000/svg" xmlns:xlink="http://www.w3.org/1999/xlink" x="0px" y="0px"
	 viewBox="0 0 637.5 487.5" style="enable-background:new 0 0 637.5 487.5;" xml:space="preserve">
<style type="text/css">
	.st0{clip-path:url(#SVGID_2_);enable-background:new    ;}
	.st1{clip-path:url(#SVGID_4_);fill:none;stroke:#E8E8E8;stroke-width:0.75;stroke-miterlimit:10;}
	.st2{clip-path:url(#SVGID_4_);fill:#C71E1D;}
	.st3{clip-path:url(#SVGID_4_);}
	.st4{fill:#C71E1D;fill-opacity:0.6;stroke:#000000;stroke-width:0.5;stroke-miterlimit:10;}
	.st5{clip-path:url(#SVGID_4_);fill:none;stroke:#333333;stroke-width:0.75;stroke-miterlimit:10;}
	.st6{fill:#A6A6A6;}
	.st7{font-family:'Roboto-Regular';}
	.st8{font-size:9px;}
	.st9{fill:#FACE00;fill-opacity:0.85;stroke:#000000;stroke-width:0.5;stroke-miterlimit:10;}
	.st10{fill:#333333;}
	.st11{font-size:11px;}
</style>
<g>
	<defs>
		<rect id="SVGID_1_" width="637.5" height="487.5"/>
	</defs>
	<clipPath id="SVGID_2_">
		<use xlink:href="#SVGID_1_"  style="overflow:visible;"/>
	</clipPath>
	<g class="st0">
		<g>
			<defs>
				<rect id="SVGID_3_" width="637.5" height="487.5"/>
			</defs>
			<clipPath id="SVGID_4_">
				<use xlink:href="#SVGID_3_"  style="overflow:visible;"/>
			</clipPath>
			<line class="st1" x1="21" y1="6" x2="637.5" y2="6"/>
			<line class="st1" x1="21" y1="82.5" x2="637.5" y2="82.5"/>
			<line class="st1" x1="21" y1="158.2" x2="637.5" y2="158.2"/>
			<line class="st1" x1="21" y1="234.8" x2="637.5" y2="234.8"/>
			<line class="st1" x1="21" y1="311.2" x2="637.5" y2="311.2"/>
			<line class="st1" x1="21" y1="387" x2="637.5" y2="387"/>
			<path class="st2" d="M77.9,463.5h9.5H77.9z"/>
			<g class="st3">
				<polygon class="st4" points="68.4,457.5 58.9,457.5 58.9,459 49.5,459 40,459 40,456 30.5,456 30.5,462 21,462 21,463.5 
					30.5,463.5 30.5,463.5 40,463.5 49.5,463.5 58.9,463.5 68.4,463.5 77.9,463.5 77.9,454.5 68.4,454.5 				"/>
				<polygon class="st4" points="627.8,265.5 627.8,354 618.3,354 618.3,279 608.8,279 608.8,416.2 599.3,416.2 599.3,420.8 
					589.9,420.8 589.9,102 580.4,102 580.4,382.5 571,382.5 571,336.8 561.5,336.8 561.5,332.2 552,332.2 552,378 542.7,378 
					542.7,405.8 533.2,405.8 533.2,373.5 523.7,373.5 523.7,369 514.2,369 514.2,419.2 504.7,419.2 504.7,351 495.2,351 
					495.2,341.2 485.7,341.2 485.7,375 476.3,375 476.3,360 466.8,360 466.8,323.2 457.3,323.2 457.3,312.8 447.8,312.8 
					447.8,141.8 438.3,141.8 438.3,147.8 428.8,147.8 428.8,265.5 419.4,265.5 419.4,19.5 409.9,19.5 409.9,174 400.4,174 
					400.4,457.5 390.9,457.5 390.9,338.2 381.4,338.2 381.4,348.8 371.9,348.8 371.9,431.2 362.4,431.2 362.4,309.8 353,309.8 
					353,428.2 343.5,428.2 343.5,165.8 334,165.8 334,384 324.5,384 324.5,423.8 315,423.8 315,378 305.5,378 305.5,358.5 
					296.1,358.5 296.1,341.2 286.6,341.2 286.6,357 277.1,357 277.1,351 267.6,351 267.6,295.5 258.1,295.5 258.1,456 248.6,456 
					248.6,379.5 239.1,379.5 239.1,373.5 229.7,373.5 229.7,372 220.2,372 220.2,378 210.7,378 210.7,373.5 201.2,373.5 
					201.2,402.8 191.7,402.8 191.7,428.2 182.2,428.2 182.2,407.2 172.8,407.2 172.8,401.2 163.3,401.2 163.3,347.2 153.8,347.2 
					153.8,416.2 144.3,416.2 144.3,408.8 134.8,408.8 134.8,398.2 125.3,398.2 125.3,429.8 115.8,429.8 115.8,405.8 106.4,405.8 
					106.4,419.2 96.9,419.2 96.9,447 87.4,447 87.4,463.5 96.9,463.5 106.4,463.5 115.8,463.5 115.8,463.5 125.3,463.5 125.3,463.5 
					134.8,463.5 134.8,463.5 144.3,463.5 144.3,463.5 153.8,463.5 153.8,463.5 163.3,463.5 163.3,463.5 172.8,463.5 172.8,463.5 
					182.2,463.5 182.2,463.5 191.7,463.5 191.7,463.5 201.2,463.5 201.2,463.5 210.7,463.5 220.2,463.5 229.7,463.5 239.1,463.5 
					248.6,463.5 258.1,463.5 267.6,463.5 277.1,463.5 286.6,463.5 296.1,463.5 296.1,463.5 305.5,463.5 305.5,463.5 315,463.5 
					315,463.5 324.5,463.5 324.5,463.5 334,463.5 334,463.5 343.5,463.5 343.5,463.5 353,463.5 353,463.5 362.4,463.5 362.4,463.5 
					371.9,463.5 371.9,463.5 381.4,463.5 390.9,463.5 400.4,463.5 409.9,463.5 419.4,463.5 428.8,463.5 428.8,463.5 438.3,463.5 
					447.8,463.5 447.8,463.5 457.3,463.5 466.8,463.5 466.8,463.5 476.3,463.5 485.7,463.5 485.7,463.5 495.2,463.5 495.2,463.5 
					504.7,463.5 504.7,463.5 514.2,463.5 514.2,463.5 523.7,463.5 523.7,463.5 533.2,463.5 533.2,463.5 542.7,463.5 542.7,463.5 
					552,463.5 552.1,463.5 561.5,463.5 561.5,463.5 570.9,463.5 571,463.5 580.4,463.5 580.4,463.5 589.9,463.5 599.3,463.5 
					599.4,463.5 608.8,463.5 608.8,463.5 618.3,463.5 627.8,463.5 637.2,463.5 637.2,265.5 				"/>
			</g>
			<line class="st5" x1="21" y1="463.5" x2="637.5" y2="463.5"/>
			<g class="st3">
				<text transform="matrix(1 0 0 1 5.6426 389.3496)" class="st6 st7 st8">50</text>
			</g>
			<g class="st3">
				<text transform="matrix(1 0 0 1 0.5889 313.5996)" class="st6 st7 st8">100</text>
			</g>
			<g class="st3">
				<text transform="matrix(1 0 0 1 0.5889 237.0996)" class="st6 st7 st8">150</text>
			</g>
			<g class="st3">
				<text transform="matrix(1 0 0 1 0.5889 160.5996)" class="st6 st7 st8">200</text>
			</g>
			<g class="st3">
				<text transform="matrix(1 0 0 1 0.5889 84.8496)" class="st6 st7 st8">250</text>
			</g>
			<g class="st3">
				<text transform="matrix(1 0 0 1 0.5889 8.3496)" class="st6 st7 st8">300</text>
			</g>
		</g>
	</g>
</g>
<polygon class="st9" points="627.7,317.2 627.7,327.7 618.2,327.7 618.2,324.7 608.8,324.7 608.8,338.2 599.3,338.2 599.3,336.7 
	589.9,336.7 589.9,330.7 580.4,330.7 580.4,368.9 570.9,368.9 570.9,373.4 561.5,373.4 561.5,374.9 552,374.9 552,376.4 
	542.6,376.4 542.6,376.4 533.1,376.4 533.1,370.4 523.6,370.4 523.6,362.9 514.1,362.9 514.1,355.4 504.6,355.4 504.6,315.7 
	495.1,315.7 495.1,286.4 485.7,286.4 485.7,274.4 476.2,274.4 476.2,224.2 466.7,224.2 466.7,197.9 457.2,197.9 457.2,216.7 
	447.7,216.7 447.7,221.2 438.2,221.2 438.2,249.7 428.8,249.7 428.8,290.9 419.3,290.9 419.3,296.9 409.8,296.9 409.8,355.4 
	400.3,355.4 400.3,353.9 390.8,353.9 390.8,344.2 381.3,344.2 381.3,356.9 371.8,356.9 371.8,359.9 362.4,359.9 362.4,348.7 
	352.9,348.7 352.9,353.9 343.4,353.9 343.4,344.2 333.9,344.2 333.9,370.4 324.4,370.4 324.4,358.4 314.9,358.4 314.9,362.9 
	305.5,362.9 305.5,362.9 296,362.9 296,364.4 286.5,364.4 286.5,368.9 277,368.9 277,371.9 267.5,371.9 267.5,374.9 258,374.9 
	258,389.9 248.5,389.9 248.5,386.9 239.1,386.9 239.1,389.9 229.6,389.9 229.6,394.4 220.1,394.4 220.1,391.4 210.6,391.4 
	210.6,396.7 201.1,396.7 201.1,401.2 191.6,401.2 191.6,401.2 182.2,401.2 182.2,401.2 172.7,401.2 172.7,401.2 163.2,401.2 
	163.2,404.2 153.7,404.2 153.7,417.7 144.2,417.7 144.2,423.7 134.7,423.7 134.7,431.2 125.2,431.2 125.2,438.7 115.8,438.7 
	115.8,443.9 106.3,443.9 106.3,451.4 96.8,451.4 96.8,455.9 87.3,455.9 87.3,458.9 77.8,458.9 68.3,458.9 68.3,463.4 77.8,463.4 
	87.3,463.4 96.8,463.4 106.3,463.4 115.8,463.4 115.8,463.4 125.2,463.4 125.2,463.4 134.7,463.4 134.7,463.4 144.2,463.4 
	144.2,463.4 153.7,463.4 153.7,463.4 163.2,463.4 163.2,463.4 172.7,463.4 172.7,463.4 182.2,463.4 182.2,463.4 191.6,463.4 
	191.6,463.4 201.1,463.4 201.1,463.4 210.6,463.4 220.1,463.4 229.6,463.4 239.1,463.4 248.5,463.4 258,463.4 267.5,463.4 
	277,463.4 286.5,463.4 296,463.4 296,463.4 305.5,463.4 305.5,463.4 314.9,463.4 314.9,463.4 324.4,463.4 324.4,463.4 333.9,463.4 
	333.9,463.4 343.4,463.4 343.4,463.4 352.9,463.4 352.9,463.4 362.4,463.4 362.4,463.4 371.8,463.4 371.8,463.4 381.3,463.4 
	390.8,463.4 400.3,463.4 409.8,463.4 419.3,463.4 428.8,463.4 428.8,463.4 438.2,463.4 447.7,463.4 447.7,463.4 457.2,463.4 
	466.7,463.4 466.7,463.4 476.2,463.4 485.7,463.4 485.7,463.4 495.1,463.4 495.1,463.4 504.6,463.4 504.6,463.4 514.1,463.4 
	514.1,463.4 523.6,463.4 523.6,463.4 533.1,463.4 533.1,463.4 542.6,463.4 542.6,463.4 552,463.4 552.1,463.4 561.5,463.4 
	561.5,463.4 570.9,463.4 570.9,463.4 580.4,463.4 580.4,463.4 589.9,463.4 599.3,463.4 599.3,463.4 608.8,463.4 608.8,463.4 
	618.2,463.4 627.7,463.4 637.2,463.4 637.2,317.2 "/>
<g>
	<text transform="matrix(1 0 0 1 553.4692 32.4828)" class="st10 st7 st11">New cases</text>
</g>
<text transform="matrix(1 0 0 1 553.6358 54.058)" class="st10 st7 st11">7-d</text>
<text transform="matrix(1 0 0 1 569.0357 54.058)" class="st10 st7 st11">a</text>
<text transform="matrix(1 0 0 1 574.9358 54.058)" class="st10 st7 st11">y </text>
<text transform="matrix(1 0 0 1 582.8357 54.058)" class="st10 st7 st11">a</text>
<text transform="matrix(1 0 0 1 588.8357 54.058)" class="st10 st7 st11">v</text>
<text transform="matrix(1 0 0 1 594.0357 54.058)" class="st10 st7 st11">e</text>
<text transform="matrix(1 0 0 1 599.8357 54.058)" class="st10 st7 st11">r</text>
<text transform="matrix(1 0 0 1 603.4358 54.058)" class="st10 st7 st11">age</text>
<rect x="533.7" y="22.2" class="st4" width="11.6" height="11.6"/>
<rect x="533.7" y="44" class="st9" width="11.6" height="11.6"/>
<g>
	<text transform="matrix(1 0 0 1 618.5229 477.3184)" class="st10 st7 st8">5/14</text>
</g>
<g>
	<text transform="matrix(1 0 0 1 16.8744 477.3185)" class="st10 st7 st8">3/11</text>
</g>
</svg>
