<?xml version="1.0" encoding="utf-8"?>
<!-- Generator: Adobe Illustrator 23.0.1, SVG Export Plug-In . SVG Version: 6.00 Build 0)  -->
<svg version="1.1" id="Layer_1" xmlns="http://www.w3.org/2000/svg" xmlns:xlink="http://www.w3.org/1999/xlink" x="0px" y="0px"
	 viewBox="0 0 637.5 487.5" style="enable-background:new 0 0 637.5 487.5;" xml:space="preserve">
<style type="text/css">
	.st0{clip-path:url(#SVGID_2_);}
	.st1{clip-path:url(#SVGID_4_);fill:none;stroke:#E8E8E8;stroke-width:0.75;stroke-miterlimit:10;}
	.st2{clip-path:url(#SVGID_4_);fill:#C71E1D;}
	.st3{clip-path:url(#SVGID_4_);}
	.st4{fill:#C71E1D;fill-opacity:0.6;stroke:#000000;stroke-width:0.5;stroke-miterlimit:10;}
	.st5{clip-path:url(#SVGID_4_);fill:none;stroke:#333333;stroke-width:0.75;stroke-miterlimit:10;}
	.st6{fill:#A6A6A6;}
	.st7{font-family:'Roboto-Regular';}
	.st8{font-size:9px;}
	.st9{fill:#FACE00;fill-opacity:0.85;stroke:#000000;stroke-width:0.5;stroke-miterlimit:10;}
	.st10{fill:#333333;}
</style>
<g>
	<defs>
		<rect id="SVGID_1_" width="637.5" height="487.5"/>
	</defs>
	<clipPath id="SVGID_2_">
		<use xlink:href="#SVGID_1_"  style="overflow:visible;"/>
	</clipPath>
	<g class="st0">
		<defs>
			<rect id="SVGID_3_" width="637.5" height="483"/>
		</defs>
		<clipPath id="SVGID_4_">
			<use xlink:href="#SVGID_3_"  style="overflow:visible;"/>
		</clipPath>
		<line class="st1" x1="21" y1="5.2" x2="637.5" y2="5.2"/>
		<line class="st1" x1="21" y1="56.2" x2="637.5" y2="56.2"/>
		<line class="st1" x1="21" y1="107.2" x2="637.5" y2="107.2"/>
		<line class="st1" x1="21" y1="158.2" x2="637.5" y2="158.2"/>
		<line class="st1" x1="21" y1="208.5" x2="637.5" y2="208.5"/>
		<line class="st1" x1="21" y1="259.5" x2="637.5" y2="259.5"/>
		<line class="st1" x1="21" y1="310.5" x2="637.5" y2="310.5"/>
		<line class="st1" x1="21" y1="361.5" x2="637.5" y2="361.5"/>
		<line class="st1" x1="21" y1="412.5" x2="637.5" y2="412.5"/>
		<path class="st2" d="M71,463.5h8.3H71z"/>
		<g class="st3">
			<polygon class="st4" points="62.7,459.8 54.3,459.8 54.3,460.5 46,460.5 37.7,460.5 37.7,458.2 29.3,458.2 29.3,462.8 21,462.8 
				21,463.5 29.3,463.5 37.7,463.5 46,463.5 54.3,463.5 62.7,463.5 71,463.5 71,457.5 62.7,457.5 			"/>
			<polygon class="st4" points="628.5,297.8 628.5,306.8 620.2,306.8 620.2,0 611.9,0 611.9,381.8 603.6,381.8 603.6,369.8 
				595.3,369.8 595.3,390 587,390 587,279 578.7,279 578.7,346.5 570.4,346.5 570.4,364.5 562.1,364.5 562.1,330.8 553.8,330.8 
				553.8,390 545.5,390 545.5,340.5 537.1,340.5 537.1,432 528.9,432 528.9,435 520.5,435 520.5,222 512.2,222 512.2,409.5 
				503.9,409.5 503.9,378.8 495.6,378.8 495.6,375.8 487.3,375.8 487.3,406.5 478.9,406.5 478.9,424.5 470.6,424.5 470.6,403.5 
				462.3,403.5 462.3,400.5 453.9,400.5 453.9,434.2 445.6,434.2 445.6,387.8 437.3,387.8 437.3,381.8 428.9,381.8 428.9,404.2 
				420.6,404.2 420.6,394.5 412.3,394.5 412.3,369.8 403.9,369.8 403.9,363 395.6,363 395.6,248.2 387.3,248.2 387.3,252.8 
				379,252.8 379,330.8 370.6,330.8 370.6,167.2 362.3,167.2 362.3,270 354,270 354,459.8 345.6,459.8 345.6,380.2 337.3,380.2 
				337.3,387 329,387 329,441.8 320.6,441.8 320.6,360.8 312.3,360.8 312.3,440.2 304,440.2 304,264.8 295.6,264.8 295.6,410.2 
				287.3,410.2 287.3,437.2 279,437.2 279,406.5 270.6,406.5 270.6,393 262.3,393 262.3,381.8 254,381.8 254,392.2 245.7,392.2 
				245.7,387.8 237.3,387.8 237.3,351.8 229,351.8 229,458.2 220.7,458.2 220.7,407.2 212.4,407.2 212.4,403.5 204.1,403.5 
				204.1,402.8 195.8,402.8 195.8,406.5 187.5,406.5 187.5,403.5 179.2,403.5 179.2,423 170.8,423 170.8,440.2 162.5,440.2 
				162.5,426 154.2,426 154.2,421.5 145.9,421.5 145.9,386.2 137.6,386.2 137.6,432 129.2,432 129.2,426.8 120.9,426.8 120.9,420 
				112.6,420 112.6,441 104.2,441 104.2,424.5 95.9,424.5 95.9,434.2 87.6,434.2 87.6,452.2 79.3,452.2 79.3,463.5 87.6,463.5 
				87.6,463.5 95.9,463.5 104.2,463.5 112.6,463.5 120.9,463.5 129.2,463.5 137.6,463.5 145.8,463.5 145.9,463.5 154.2,463.5 
				162.5,463.5 170.8,463.5 179.2,463.5 187.5,463.5 195.8,463.5 204.1,463.5 204.1,463.5 212.4,463.5 220.7,463.5 220.7,463.5 
				229,463.5 237.3,463.5 245.7,463.5 254,463.5 262.3,463.5 270.6,463.5 279,463.5 287.3,463.5 295.6,463.5 304,463.5 312.3,463.5 
				320.6,463.5 329,463.5 337.3,463.5 345.6,463.5 354,463.5 362.3,463.5 370.6,463.5 379,463.5 387.3,463.5 395.6,463.5 
				403.9,463.5 412.3,463.5 420.6,463.5 428.9,463.5 428.9,463.5 437.3,463.5 445.6,463.5 453.9,463.5 462.3,463.5 470.6,463.5 
				478.9,463.5 487.3,463.5 487.3,463.5 495.6,463.5 503.9,463.5 512.2,463.5 512.2,463.5 520.5,463.5 528.9,463.5 537.1,463.5 
				537.2,463.5 545.5,463.5 553.8,463.5 553.8,463.5 562.1,463.5 570.4,463.5 570.4,463.5 578.7,463.5 587,463.5 595.3,463.5 
				595.4,463.5 603.6,463.5 611.9,463.5 612,463.5 620.2,463.5 628.5,463.5 628.6,463.5 636.8,463.5 636.8,297.8 			"/>
		</g>
		<line class="st5" x1="21" y1="463.5" x2="637.5" y2="463.5"/>
	</g>
	<g class="st0">
		<text transform="matrix(1 0 0 1 5.2559 414.8496)" class="st6 st7 st8">50</text>
	</g>
	<g class="st0">
		<text transform="matrix(1 0 0 1 2.929688e-03 363.8496)" class="st6 st7 st8">100</text>
	</g>
	<g class="st0">
		<text transform="matrix(1 0 0 1 2.929688e-03 312.8496)" class="st6 st7 st8">150</text>
	</g>
	<g class="st0">
		<text transform="matrix(1 0 0 1 2.929688e-03 261.8496)" class="st6 st7 st8">200</text>
	</g>
	<g class="st0">
		<text transform="matrix(1 0 0 1 2.929688e-03 210.8496)" class="st6 st7 st8">250</text>
	</g>
	<g class="st0">
		<text transform="matrix(1 0 0 1 2.929688e-03 160.5996)" class="st6 st7 st8">300</text>
	</g>
	<g class="st0">
		<text transform="matrix(1 0 0 1 2.929688e-03 109.5996)" class="st6 st7 st8">350</text>
	</g>
	<g class="st0">
		<text transform="matrix(1 0 0 1 2.929688e-03 58.5996)" class="st6 st7 st8">400</text>
	</g>
	<g class="st0">
		<text transform="matrix(1 0 0 1 2.929688e-03 7.5996)" class="st6 st7 st8">450</text>
	</g>
</g>
<polygon class="st9" points="628.5,202.5 628.5,213.7 620.2,213.7 620.2,225.7 611.9,225.7 611.9,295.5 603.7,295.5 603.7,298.5 
	595.4,298.5 595.4,290.9 587.1,290.9 587.1,299.9 578.7,299.9 578.7,333.7 570.4,333.7 570.4,308.1 562.1,308.1 562.1,317.1 
	553.8,317.1 553.8,327.7 545.5,327.7 545.5,324.7 537.1,324.7 537.1,338.2 528.9,338.2 528.9,336.7 520.6,336.7 520.6,330.7 
	512.2,330.7 512.2,368.9 503.9,368.9 503.9,373.4 495.6,373.4 495.6,374.9 487.3,374.9 487.3,376.4 478.9,376.4 470.6,376.4 
	470.6,370.4 462.3,370.4 462.3,362.9 453.9,362.9 453.9,355.4 445.6,355.4 445.6,315.7 437.3,315.7 437.3,286.4 428.9,286.4 
	428.9,274.4 420.6,274.4 420.6,224.2 412.3,224.2 412.3,197.9 403.9,197.9 403.9,216.7 395.6,216.7 395.6,221.2 387.3,221.2 
	387.3,249.7 378.9,249.7 378.9,290.9 370.6,290.9 370.6,296.9 362.3,296.9 362.3,355.4 354,355.4 354,353.9 345.6,353.9 
	345.6,344.2 337.3,344.2 337.3,356.9 329,356.9 329,359.9 320.6,359.9 320.6,348.7 312.3,348.7 312.3,353.9 304,353.9 304,344.2 
	295.6,344.2 295.6,370.4 287.3,370.4 287.3,358.4 279,358.4 279,362.9 270.6,362.9 262.3,362.9 262.3,364.4 254,364.4 254,368.9 
	245.7,368.9 245.7,371.9 237.3,371.9 237.3,374.9 229,374.9 229,389.9 220.7,389.9 220.7,386.9 212.4,386.9 212.4,389.9 204,389.9 
	204,394.5 195.9,394.5 195.9,391.5 187.5,391.5 187.5,396.7 179.2,396.7 179.2,401.2 170.9,401.2 162.5,401.2 154.2,401.2 
	145.9,401.2 145.9,404.2 137.6,404.2 137.6,417.7 129.3,417.7 129.3,423.7 120.9,423.7 120.9,431.2 112.6,431.2 112.6,438.7 
	104.3,438.7 104.3,444 95.9,444 95.9,451.5 87.6,451.5 87.6,456 79.3,456 79.3,459 71,459 62.6,459 62.6,463.5 71,463.5 79.3,463.5 
	87.6,463.5 87.6,463.5 95.9,463.5 104.3,463.5 112.6,463.5 120.9,463.5 129.3,463.5 137.6,463.5 145.9,463.5 145.9,463.5 
	154.2,463.5 162.5,463.5 170.9,463.5 179.2,463.5 187.5,463.5 195.9,463.5 204.2,463.5 204.2,463.4 212.4,463.4 220.7,463.4 
	220.7,463.4 229,463.4 237.3,463.4 245.7,463.4 254,463.4 262.3,463.4 270.6,463.4 279,463.4 287.3,463.4 295.6,463.4 304,463.4 
	312.3,463.4 320.6,463.4 329,463.4 337.3,463.4 345.6,463.4 354,463.4 362.3,463.4 370.6,463.4 378.9,463.4 387.3,463.4 
	395.6,463.4 403.9,463.4 412.3,463.4 420.6,463.4 428.9,463.4 428.9,463.4 437.3,463.4 445.6,463.4 453.9,463.4 462.3,463.4 
	470.6,463.4 478.9,463.4 487.3,463.4 487.3,463.4 495.6,463.4 503.9,463.4 512.2,463.4 512.2,463.4 520.6,463.4 528.9,463.4 
	537.1,463.4 537.2,463.4 545.5,463.4 553.8,463.4 553.8,463.4 562.1,463.4 570.4,463.4 570.4,463.4 578.7,463.4 587.1,463.4 
	595.3,463.4 595.3,463.5 603.7,463.5 611.9,463.5 612,463.5 620.2,463.5 628.5,463.5 628.6,463.5 636.8,463.5 636.8,202.5 "/>
<text transform="matrix(1 0 0 1 545.5847 24.279)" class="st10 st7 st8">New cases</text>
<rect x="530.2" y="16.2" class="st4" width="9.4" height="9.4"/>
<text transform="matrix(1 0 0 1 545.5847 40.8635)" class="st10 st7 st8">7-day average</text>
<rect x="530.2" y="32.8" class="st9" width="9.4" height="9.4"/>
<g>
	<text transform="matrix(1 0 0 1 618.7365 476.1194)" class="st10 st7 st8">5/23</text>
</g>
<g>
	<text transform="matrix(1 0 0 1 16.4709 476.1192)" class="st10 st7 st8">3/11</text>
</g>
</svg>
