<?xml version="1.0" encoding="utf-8"?>
<!-- Generator: Adobe Illustrator 23.0.1, SVG Export Plug-In . SVG Version: 6.00 Build 0)  -->
<svg version="1.1" id="Layer_1" xmlns="http://www.w3.org/2000/svg" xmlns:xlink="http://www.w3.org/1999/xlink" x="0px" y="0px"
	 viewBox="0 0 637.5 487.5" style="enable-background:new 0 0 637.5 487.5;" xml:space="preserve">
<style type="text/css">
	.st0{clip-path:url(#SVGID_2_);}
	.st1{clip-path:url(#SVGID_4_);fill:none;stroke:#E8E8E8;stroke-width:0.75;stroke-miterlimit:10;}
	.st2{clip-path:url(#SVGID_4_);fill:#C71E1D;}
	.st3{clip-path:url(#SVGID_4_);}
	.st4{fill:#C71E1D;fill-opacity:0.5;stroke:#000000;stroke-width:0.25;stroke-miterlimit:10;}
	.st5{clip-path:url(#SVGID_4_);fill:none;stroke:#333333;stroke-width:0.75;stroke-miterlimit:10;}
	.st6{fill:#A6A6A6;}
	.st7{font-family:'Roboto-Regular';}
	.st8{font-size:9px;}
	.st9{fill:#333333;}
	.st10{fill:none;stroke:#A0001C;stroke-width:2;stroke-linecap:round;stroke-linejoin:round;stroke-miterlimit:10;}
	.st11{fill:#9A1D2B;}
	.st12{font-family:'ArialMT';}
	.st13{font-size:11px;}
	.st14{fill:none;stroke:#D31D2B;stroke-width:0.75;stroke-miterlimit:10;}
	.st15{fill:#D31D2B;stroke:#D31D2B;stroke-width:0.25;stroke-miterlimit:10;}
</style>
<g>
	<defs>
		<rect id="SVGID_1_" width="637.5" height="487.5"/>
	</defs>
	<clipPath id="SVGID_2_">
		<use xlink:href="#SVGID_1_"  style="overflow:visible;"/>
	</clipPath>
	<g class="st0">
		<defs>
			<rect id="SVGID_3_" width="637.5" height="483"/>
		</defs>
		<clipPath id="SVGID_4_">
			<use xlink:href="#SVGID_3_"  style="overflow:visible;"/>
		</clipPath>
		<line class="st1" x1="21" y1="5.2" x2="637.5" y2="5.2"/>
		<line class="st1" x1="21" y1="56.2" x2="637.5" y2="56.2"/>
		<line class="st1" x1="21" y1="107.2" x2="637.5" y2="107.2"/>
		<line class="st1" x1="21" y1="158.2" x2="637.5" y2="158.2"/>
		<line class="st1" x1="21" y1="208.5" x2="637.5" y2="208.5"/>
		<line class="st1" x1="21" y1="259.5" x2="637.5" y2="259.5"/>
		<line class="st1" x1="21" y1="310.5" x2="637.5" y2="310.5"/>
		<line class="st1" x1="21" y1="361.5" x2="637.5" y2="361.5"/>
		<line class="st1" x1="21" y1="412.5" x2="637.5" y2="412.5"/>
		<path class="st2" d="M65.6,463.5H73H65.6z"/>
		<g class="st3">
			<polygon class="st4" points="58.1,459.8 50.7,459.8 50.7,460.5 43.3,460.5 35.9,460.5 35.9,458.2 28.4,458.2 28.4,462.8 
				21,462.8 21,463.5 28.4,463.5 35.9,463.5 43.3,463.5 50.7,463.5 58.1,463.5 65.6,463.5 65.6,457.5 58.1,457.5 			"/>
			<polygon class="st4" points="628.8,270 628.8,219 621.4,219 621.4,222.8 613.9,222.8 613.9,219.8 606.5,219.8 606.5,197.2 
				599.1,197.2 599.1,364.5 591.6,364.5 591.6,309.8 584.2,309.8 584.2,354.8 576.8,354.8 576.8,313.5 569.4,313.5 569.4,297.8 
				561.9,297.8 561.9,306.8 554.5,306.8 554.5,0 547.1,0 547.1,381.8 539.7,381.8 539.7,369.8 532.2,369.8 532.2,390 524.8,390 
				524.8,279 517.4,279 517.4,346.5 509.9,346.5 509.9,364.5 502.5,364.5 502.5,330.8 495.1,330.8 495.1,390 487.8,390 487.8,340.5 
				480.3,340.5 480.3,432 472.9,432 472.9,435 465.5,435 465.5,222 458,222 458,409.5 450.7,409.5 450.7,378.8 443.3,378.8 
				443.3,375.8 435.8,375.8 435.8,406.5 428.4,406.5 428.4,424.5 421,424.5 421,403.5 413.6,403.5 413.6,400.5 406.1,400.5 
				406.1,434.2 398.8,434.2 398.8,387.8 391.4,387.8 391.4,381.8 383.9,381.8 383.9,404.2 376.5,404.2 376.5,394.5 369.1,394.5 
				369.1,369.8 361.8,369.8 361.8,363 354.3,363 354.3,248.2 346.9,248.2 346.9,252.8 339.5,252.8 339.5,330.8 332,330.8 332,167.2 
				324.6,167.2 324.6,270 317.2,270 317.2,459.8 309.8,459.8 309.8,380.2 302.3,380.2 302.3,387 295.1,387 295.1,441.8 287.7,441.8 
				287.7,360.8 280.2,360.8 280.2,440.2 272.8,440.2 272.8,264.8 265.4,264.8 265.4,410.2 258,410.2 258,437.2 250.6,437.2 
				250.6,406.5 243.4,406.5 243.4,393 235.9,393 235.9,381.8 228.5,381.8 228.5,392.2 221.1,392.2 221.1,387.8 213.7,387.8 
				213.7,351.8 206.2,351.8 206.2,458.2 198.8,458.2 198.8,407.2 191.4,407.2 191.4,403.5 183.9,403.5 183.9,402.8 176.5,402.8 
				176.5,406.5 169.1,406.5 169.1,403.5 161.7,403.5 161.7,423 154.2,423 154.2,440.2 147.2,440.2 147.2,426 139.8,426 139.8,421.5 
				132.3,421.5 132.3,386.2 124.9,386.2 124.9,432 117.5,432 117.5,426.8 110,426.8 110,420 102.6,420 102.6,441 95.2,441 
				95.2,424.5 87.8,424.5 87.8,434.2 80.4,434.2 80.4,452.2 73,452.2 73,463.5 80.4,463.5 87.8,463.5 87.8,463.5 95.2,463.5 
				102.6,463.5 110,463.5 117.5,463.5 124.9,463.5 132.3,463.5 139.8,463.5 146.8,463.5 147.2,463.5 154.2,463.5 161.7,463.5 
				169.1,463.5 176.5,463.5 183.9,463.5 191.4,463.5 198.8,463.5 206.2,463.5 213.7,463.5 221.1,463.5 228.5,463.5 235.9,463.5 
				243.2,463.5 243.4,463.5 250.6,463.5 258,463.5 265.4,463.5 265.5,463.5 272.8,463.5 280.2,463.5 287.7,463.5 295.1,463.5 
				302.3,463.5 302.5,463.5 309.8,463.5 317.2,463.5 324.6,463.5 332,463.5 339.5,463.5 346.9,463.5 354.3,463.5 361.7,463.5 
				361.8,463.5 369.1,463.5 376.5,463.5 383.9,463.5 391.4,463.5 398.7,463.5 398.8,463.5 406.1,463.5 413.6,463.5 421,463.5 
				428.4,463.5 435.8,463.5 443.3,463.5 450.7,463.5 458,463.5 458.1,463.5 465.5,463.5 472.9,463.5 480.3,463.5 487.8,463.5 
				495.1,463.5 495.2,463.5 502.5,463.5 509.9,463.5 517.4,463.5 524.8,463.5 532.2,463.5 532.2,463.5 539.7,463.5 547.1,463.5 
				554.5,463.5 554.5,463.5 561.9,463.5 569.4,463.5 569.4,463.5 576.8,463.5 584.2,463.5 591.6,463.5 591.6,463.5 599.1,463.5 
				606.5,463.5 613.9,463.5 613.9,463.5 621.4,463.5 628.8,463.5 628.8,463.5 636.2,463.5 636.2,270 			"/>
		</g>
		<line class="st5" x1="21" y1="463.5" x2="637.5" y2="463.5"/>
	</g>
	<g class="st0">
		<text transform="matrix(1 0 0 1 5.2559 414.8496)" class="st6 st7 st8">50</text>
	</g>
	<g class="st0">
		<text transform="matrix(1 0 0 1 2.929688e-03 363.8496)" class="st6 st7 st8">100</text>
	</g>
	<g class="st0">
		<text transform="matrix(1 0 0 1 2.929688e-03 312.8496)" class="st6 st7 st8">150</text>
	</g>
	<g class="st0">
		<text transform="matrix(1 0 0 1 2.929688e-03 261.8496)" class="st6 st7 st8">200</text>
	</g>
	<g class="st0">
		<text transform="matrix(1 0 0 1 2.929688e-03 210.8496)" class="st6 st7 st8">250</text>
	</g>
	<g class="st0">
		<text transform="matrix(1 0 0 1 2.929688e-03 160.5996)" class="st6 st7 st8">300</text>
	</g>
	<g class="st0">
		<text transform="matrix(1 0 0 1 2.929688e-03 109.5996)" class="st6 st7 st8">350</text>
	</g>
	<g class="st0">
		<text transform="matrix(1 0 0 1 2.929688e-03 58.5996)" class="st6 st7 st8">400</text>
	</g>
	<g class="st0">
		<text transform="matrix(1 0 0 1 2.929688e-03 7.5996)" class="st6 st7 st8">450</text>
	</g>
</g>
<g>
	<text transform="matrix(1 0 0 1 624.4268 476.6182)" class="st9 st7 st8">6/1</text>
</g>
<g>
	<text transform="matrix(1 0 0 1 14.1354 476.6187)" class="st9 st7 st8">3/11</text>
</g>
<polyline class="st10" points="61.6,461.4 69.1,461.4 76.5,459.4 83.9,456.4 91.3,451.3 98.7,448.3 106.1,443.3 113.5,438.2 
	121,434.2 128.4,425.1 135.8,423.1 143.2,423.1 150.6,423.1 158,423.1 165.4,420 172.8,417 180.3,419 187.7,416 195.1,414 
	202.5,416 209.9,405.9 217.3,403.9 224.7,401.9 232.2,398.9 239.6,397.9 247,397.9 254.4,394.8 261.8,402.9 269.2,385.8 
	276.6,391.8 284.1,388.8 291.5,395.8 298.9,393.8 306.3,385.8 313.7,391.8 321.1,392.8 328.5,354.5 336,350.4 343.4,323.2 
	350.8,304 358.2,301 365.6,288.9 373,306.1 380.4,339.3 387.9,347.4 395.3,366.6 402.7,392.8 410.1,397.9 417.5,402.9 424.9,406.9 
	432.3,406.9 439.8,405.9 447.2,404.9 454.6,401.9 462,376.7 469.4,380.7 476.8,381.7 484.2,372.6 491.7,374.7 499.1,367.6 
	506.5,361.5 513.9,378.7 521.3,356.5 528.7,350.4 536.1,355.5 543.6,353.5 551,307.1 558.4,299 565.8,291.9 573.2,297 580.6,291.9 
	588,282.9 595.5,280.8 602.9,309.1 610.3,297 617.7,285.9 625.1,272.8 632.5,260.7 "/>
<text transform="matrix(1 0 0 1 382.9138 286.5061)" class="st11 st12 st13">7-day average</text>
<g>
	<g>
		<path class="st14" d="M420.6,292.5c5.7,10.5,4.3,24.1-3.8,35.7c-5.9,8.3-13.5,13.3-18.6,15.9"/>
		<g>
			<polygon class="st15" points="398.9,340.7 399.1,343.8 401.3,345.7 394.2,346.1 			"/>
		</g>
	</g>
</g>
</svg>
