<?xml version="1.0" encoding="utf-8"?>
<!-- Generator: Adobe Illustrator 23.0.1, SVG Export Plug-In . SVG Version: 6.00 Build 0)  -->
<svg version="1.1" id="Layer_1" xmlns="http://www.w3.org/2000/svg" xmlns:xlink="http://www.w3.org/1999/xlink" x="0px" y="0px"
	 viewBox="0 0 637.5 487.5" style="enable-background:new 0 0 637.5 487.5;" xml:space="preserve">
<style type="text/css">
	.st0{clip-path:url(#SVGID_2_);}
	.st1{clip-path:url(#SVGID_4_);fill:none;stroke:#E8E8E8;stroke-width:0.75;stroke-miterlimit:10;}
	.st2{clip-path:url(#SVGID_4_);fill:#C71E1D;}
	.st3{clip-path:url(#SVGID_4_);}
	.st4{fill:#C71E1D;fill-opacity:0.5;stroke:#000000;stroke-width:0.25;stroke-miterlimit:10;}
	.st5{clip-path:url(#SVGID_4_);fill:none;stroke:#333333;stroke-width:0.75;stroke-miterlimit:10;}
	.st6{fill:#A6A6A6;}
	.st7{font-family:'Roboto-Regular';}
	.st8{font-size:9px;}
	.st9{fill:none;stroke:#A0001C;stroke-width:2;stroke-linecap:round;stroke-linejoin:round;stroke-miterlimit:10;}
	.st10{fill:#9A1D2B;}
	.st11{font-family:'ArialMT';}
	.st12{font-size:11px;}
	.st13{fill:none;stroke:#D31D2B;stroke-width:0.75;stroke-miterlimit:10;}
	.st14{fill:#D31D2B;stroke:#D31D2B;stroke-width:0.25;stroke-miterlimit:10;}
	.st15{fill:#333333;}
</style>
<g>
	<defs>
		<rect id="SVGID_1_" width="637.5" height="487.5"/>
	</defs>
	<clipPath id="SVGID_2_">
		<use xlink:href="#SVGID_1_"  style="overflow:visible;"/>
	</clipPath>
	<g class="st0">
		<defs>
			<rect id="SVGID_3_" width="637.5" height="483"/>
		</defs>
		<clipPath id="SVGID_4_">
			<use xlink:href="#SVGID_3_"  style="overflow:visible;"/>
		</clipPath>
		<line class="st1" x1="21" y1="5.2" x2="637.5" y2="5.2"/>
		<line class="st1" x1="21" y1="56.2" x2="637.5" y2="56.2"/>
		<line class="st1" x1="21" y1="107.2" x2="637.5" y2="107.2"/>
		<line class="st1" x1="21" y1="158.2" x2="637.5" y2="158.2"/>
		<line class="st1" x1="21" y1="208.5" x2="637.5" y2="208.5"/>
		<line class="st1" x1="21" y1="259.5" x2="637.5" y2="259.5"/>
		<line class="st1" x1="21" y1="310.5" x2="637.5" y2="310.5"/>
		<line class="st1" x1="21" y1="361.5" x2="637.5" y2="361.5"/>
		<line class="st1" x1="21" y1="412.5" x2="637.5" y2="412.5"/>
		<path class="st2" d="M61.2,463.5h6.7H61.2z"/>
		<g class="st3">
			<polygon class="st4" points="54.5,459.8 47.8,459.8 47.8,460.5 41.1,460.5 34.4,460.5 34.4,458.2 27.7,458.2 27.7,462.8 
				21,462.8 21,463.5 27.7,463.5 34.4,463.5 41.1,463.5 47.8,463.5 54.5,463.5 61.2,463.5 61.2,457.5 54.5,457.5 			"/>
			<polygon class="st4" points="630.4,170.2 630.4,117 623.7,117 623.7,144 617,144 617,132.8 610.3,132.8 610.3,5.2 603.6,5.2 
				603.6,233.2 596.9,233.2 596.9,99 590.2,99 590.2,210 583.5,210 583.5,81.8 576.8,81.8 576.8,270 570.1,270 570.1,219 563.4,219 
				563.4,222.8 556.7,222.8 556.7,219.8 550,219.8 550,197.2 543.3,197.2 543.3,364.5 536.6,364.5 536.6,309.8 529.9,309.8 
				529.9,354.8 523.2,354.8 523.2,313.5 516.5,313.5 516.5,297.8 509.8,297.8 509.8,306.8 503.1,306.8 503.1,0 496.4,0 496.4,381.8 
				489.7,381.8 489.7,369.8 483,369.8 483,390 476.3,390 476.3,279 469.6,279 469.6,346.5 462.9,346.5 462.9,364.5 456.2,364.5 
				456.2,330.8 449.5,330.8 449.5,390 442.8,390 442.8,340.5 436.1,340.5 436.1,432 429.4,432 429.4,435 422.7,435 422.7,222 
				416,222 416,409.5 409.4,409.5 409.4,378.8 402.7,378.8 402.7,375.8 396,375.8 396,406.6 389.3,406.6 389.3,424.6 382.6,424.6 
				382.6,403.6 376,403.6 376,400.5 369.3,400.5 369.3,434.2 362.6,434.2 362.6,387.8 355.9,387.8 355.9,381.8 349.2,381.8 
				349.2,404.2 342.5,404.2 342.5,394.5 335.8,394.5 335.8,369.8 329.1,369.8 329.1,363 322.4,363 322.4,248.2 315.7,248.2 
				315.7,252.8 309,252.8 309,330.8 302.3,330.8 302.3,167.2 295.6,167.2 295.6,270 288.9,270 288.9,459.8 282.2,459.8 282.2,380.2 
				275.5,380.2 275.5,387 268.8,387 268.8,441.8 262.1,441.8 262.1,360.8 255.4,360.8 255.4,440.2 248.7,440.2 248.7,264.8 
				242,264.8 242,410.2 235.3,410.2 235.3,437.2 228.6,437.2 228.6,406.5 221.9,406.5 221.9,393 215.2,393 215.2,381.8 208.5,381.8 
				208.5,392.2 201.9,392.2 201.9,387.8 195.2,387.8 195.2,351.8 188.4,351.8 188.4,458.2 181.7,458.2 181.7,407.2 175,407.2 
				175,403.5 168.4,403.5 168.4,402.8 161.7,402.8 161.7,406.5 155,406.5 155,403.5 148.3,403.5 148.3,423 141.6,423 141.6,440.2 
				134.9,440.2 134.9,426 128.2,426 128.2,421.5 121.5,421.5 121.5,386.2 114.8,386.2 114.8,432 108.1,432 108.1,426.8 101.4,426.8 
				101.4,420 94.7,420 94.7,441 88,441 88,424.5 81.3,424.5 81.3,434.2 74.6,434.2 74.6,452.2 67.9,452.2 67.9,463.5 74.6,463.5 
				81.3,463.5 88,463.5 94.7,463.5 101.4,463.5 108.1,463.5 114.8,463.5 121.5,463.5 128.2,463.5 134.9,463.5 141.6,463.5 
				148.3,463.5 155,463.5 161.7,463.5 168.3,463.5 168.4,463.5 175,463.5 181.7,463.5 188.4,463.5 195.2,463.5 201.8,463.5 
				201.9,463.5 208.5,463.5 215.2,463.5 221.9,463.5 228.6,463.5 235.3,463.5 242,463.5 248.7,463.5 255.4,463.5 262.1,463.5 
				268.8,463.5 275.5,463.5 282.2,463.5 288.9,463.5 288.9,463.5 295.6,463.5 302.3,463.5 309,463.5 315.7,463.5 322.4,463.5 
				329.1,463.5 335.8,463.5 342.5,463.5 349.2,463.5 355.9,463.5 362.6,463.5 369.3,463.5 375.9,463.5 375.9,463.6 382.6,463.6 
				389.3,463.6 396,463.6 402.7,463.6 409.4,463.6 409.4,463.5 416,463.5 422.7,463.5 429.4,463.5 436.1,463.5 442.8,463.5 
				442.8,463.5 449.5,463.5 456.2,463.5 462.9,463.5 469.6,463.5 476.3,463.5 483,463.5 489.7,463.5 496.4,463.5 503.1,463.5 
				509.8,463.5 516.5,463.5 523.2,463.5 529.9,463.5 529.9,463.5 536.6,463.5 543.3,463.5 543.3,463.5 550,463.5 556.7,463.5 
				563.4,463.5 563.4,463.5 570.1,463.5 576.8,463.5 583.5,463.5 583.5,463.5 590.2,463.5 596.9,463.5 596.9,463.5 603.6,463.5 
				610.3,463.5 617,463.5 617,463.5 623.7,463.5 630.4,463.5 630.4,463.5 637.1,463.5 637.1,170.2 			"/>
		</g>
		<line class="st5" x1="21" y1="463.5" x2="637.5" y2="463.5"/>
	</g>
	<g class="st0">
		<text transform="matrix(1 0 0 1 5.6426 415.5996)" class="st6 st7 st8">50</text>
	</g>
	<g class="st0">
		<text transform="matrix(1 0 0 1 0.5889 364.5996)" class="st6 st7 st8">100</text>
	</g>
	<g class="st0">
		<text transform="matrix(1 0 0 1 0.5889 313.5996)" class="st6 st7 st8">150</text>
	</g>
	<g class="st0">
		<text transform="matrix(1 0 0 1 0.5889 262.5996)" class="st6 st7 st8">200</text>
	</g>
	<g class="st0">
		<text transform="matrix(1 0 0 1 0.5889 211.5996)" class="st6 st7 st8">250</text>
	</g>
	<g class="st0">
		<text transform="matrix(1 0 0 1 0.5889 161.3496)" class="st6 st7 st8">300</text>
	</g>
	<g class="st0">
		<text transform="matrix(1 0 0 1 0.5889 110.3496)" class="st6 st7 st8">350</text>
	</g>
	<g class="st0">
		<text transform="matrix(1 0 0 1 0.5889 59.3496)" class="st6 st7 st8">400</text>
	</g>
	<g class="st0">
		<text transform="matrix(1 0 0 1 0.5889 8.3496)" class="st6 st7 st8">450</text>
	</g>
</g>
<polyline class="st9" points="58.1,460.3 64.8,460.3 71.5,458.3 78.2,455.3 84.9,450.2 91.6,447.2 98.3,442.1 105,437.1 111.7,433 
	118.4,423.9 125,421.9 131.7,421.9 138.4,421.9 145.1,421.9 151.8,418.8 158.5,415.8 165.2,417.8 171.9,414.8 178.6,412.8 
	185.2,414.8 191.9,404.7 198.6,402.7 205.3,400.6 212,397.6 218.7,396.6 225.4,396.6 232.1,393.5 238.8,401.6 245.5,384.4 
	252.1,390.5 258.8,387.5 265.5,394.6 272.2,392.5 278.9,384.4 285.6,390.5 292.3,391.5 299,353.1 305.7,349 312.3,321.7 319,302.5 
	325.7,299.4 332.4,287.3 339.1,304.5 345.8,337.9 352.5,346 359.2,365.2 365.9,391.5 372.6,396.6 379.2,401.6 385.9,405.7 
	392.6,405.7 399.3,404.7 406,403.7 412.7,400.6 419.4,375.3 426.1,379.4 432.8,380.4 439.4,371.3 446.1,373.3 452.8,366.2 
	459.5,360.1 466.2,377.4 472.9,355.1 479.6,349 486.3,354.1 493,352 499.7,305.5 506.3,297.4 513,290.3 519.7,295.4 526.4,290.3 
	533.1,281.2 539.8,279.2 546.5,307.5 553.2,295.4 559.9,284.2 566.6,271.1 573.2,258.9 579.9,226.6 586.6,204.3 593.3,190.1 
	600,192.1 606.7,161.8 613.4,149.6 620.1,131.4 626.8,136.5 633.4,130.4 "/>
<text transform="matrix(1 0 0 1 337.5278 276.3944)" class="st10 st11 st12">7-day average</text>
<g>
	<g>
		<path class="st13" d="M375.2,282.4c5.7,10.5,4.3,24.1-3.8,35.7c-5.9,8.3-13.5,13.3-18.6,15.9"/>
		<g>
			<polygon class="st14" points="353.5,330.6 353.7,333.7 355.9,335.6 348.8,336 			"/>
		</g>
	</g>
</g>
<g>
	<text transform="matrix(1 0 0 1 617.9233 478.3623)" class="st15 st7 st8">6/10</text>
</g>
<g>
	<text transform="matrix(1 0 0 1 16.0414 478.3625)" class="st15 st7 st8">3/11</text>
</g>
</svg>
