<?xml version="1.0" encoding="utf-8"?>
<!-- Generator: Adobe Illustrator 23.0.1, SVG Export Plug-In . SVG Version: 6.00 Build 0)  -->
<svg version="1.1" id="Layer_1" xmlns="http://www.w3.org/2000/svg" xmlns:xlink="http://www.w3.org/1999/xlink" x="0px" y="0px"
	 viewBox="0 0 637.5 487.5" style="enable-background:new 0 0 637.5 487.5;" xml:space="preserve">
<style type="text/css">
	.st0{clip-path:url(#SVGID_2_);}
	.st1{clip-path:url(#SVGID_4_);fill:none;stroke:#E8E8E8;stroke-width:0.75;stroke-miterlimit:10;}
	.st2{clip-path:url(#SVGID_4_);fill:#C71E1D;}
	.st3{clip-path:url(#SVGID_4_);}
	.st4{fill:#C71E1D;fill-opacity:0.6;stroke:#000000;stroke-width:0.5;stroke-miterlimit:10;}
	.st5{clip-path:url(#SVGID_4_);fill:none;stroke:#333333;stroke-width:0.75;stroke-miterlimit:10;}
	.st6{fill:#A6A6A6;}
	.st7{font-family:'Roboto-Regular';}
	.st8{font-size:9px;}
	.st9{fill:#333333;}
	.st10{fill:#FACE00;fill-opacity:0.85;stroke:#000000;stroke-width:0.5;stroke-miterlimit:10;}
</style>
<g>
	<defs>
		<rect id="SVGID_1_" width="637.5" height="487.5"/>
	</defs>
	<clipPath id="SVGID_2_">
		<use xlink:href="#SVGID_1_"  style="overflow:visible;"/>
	</clipPath>
	<g class="st0">
		<defs>
			<rect id="SVGID_3_" width="637.5" height="483"/>
		</defs>
		<clipPath id="SVGID_4_">
			<use xlink:href="#SVGID_3_"  style="overflow:visible;"/>
		</clipPath>
		<line class="st1" x1="21" y1="6" x2="637.5" y2="6"/>
		<line class="st1" x1="21" y1="82.5" x2="637.5" y2="82.5"/>
		<line class="st1" x1="21" y1="158.2" x2="637.5" y2="158.2"/>
		<line class="st1" x1="21" y1="234.8" x2="637.5" y2="234.8"/>
		<line class="st1" x1="21" y1="311.2" x2="637.5" y2="311.2"/>
		<line class="st1" x1="21" y1="387" x2="637.5" y2="387"/>
		<path class="st2" d="M75.4,463.5h9.1H75.4z"/>
		<g class="st3">
			<polygon class="st4" points="66.2,457.5 57.1,457.5 57.1,459 48.1,459 48,459 39.1,459 39.1,456 30.1,456 30.1,462 21,462 
				21,463.5 30.1,463.5 39,463.5 39.1,463.5 48,463.5 48.1,463.5 57.1,463.5 66.2,463.5 75.2,463.5 77.2,454.5 66.2,454.5 			"/>
			<polygon class="st4" points="626.9,187.5 626.9,288 617.9,288 617.9,315.8 608.9,315.8 608.9,265.5 599.8,265.5 599.8,354 
				590.8,354 590.8,279 581.7,279 581.7,416.2 572.7,416.2 572.7,420.8 563.7,420.8 563.7,102 554.6,102 554.6,382.5 545.6,382.5 
				545.6,336.7 536.5,336.7 536.5,332.2 527.5,332.2 527.5,377.9 518.4,377.9 518.4,405.8 509.4,405.8 509.4,373.5 500.4,373.5 
				500.4,369 491.3,369 491.3,419.2 482.3,419.2 482.3,351 473.2,351 473.2,341.2 464.1,341.2 464.1,375 455.2,375 455.2,360 
				446.1,360 446.1,323.2 437,323.2 437,312.8 428,312.8 428,141.8 418.9,141.8 418.9,147.8 409.9,147.8 409.9,265.5 400.8,265.5 
				400.8,19.5 391.7,19.5 391.7,174 382.7,174 382.7,457.5 373.7,457.5 373.7,338.2 364.6,338.2 364.6,348.8 355.6,348.8 
				355.6,431.2 346.6,431.2 346.6,309.8 337.5,309.8 337.5,428.2 328.4,428.2 328.4,165.8 319.4,165.8 319.4,384 310.3,384 
				310.3,423.8 301.3,423.8 301.3,378 292.2,378 292.2,358.5 283.2,358.5 283.2,341.2 274.1,341.2 274.1,357 265.1,357 265.1,351 
				256.1,351 256.1,295.5 247,295.5 247,456 238,456 238,379.5 229,379.5 229,373.5 219.9,373.5 219.9,372 210.9,372 210.9,378 
				201.9,378 201.9,373.5 192.8,373.5 192.8,402.8 183.8,402.8 183.8,428.2 174.8,428.2 174.8,407.2 165.7,407.2 165.7,401.2 
				156.7,401.2 156.7,347.2 147.7,347.2 147.7,416.2 138.6,416.2 138.6,408.8 129.5,408.8 129.5,398.2 120.5,398.2 120.5,429.8 
				111.5,429.8 111.5,405.8 102.4,405.8 102.4,419.3 93.3,419.3 95.3,447 86.5,447 84.5,463.5 93.3,463.5 93.3,463.6 102.4,463.6 
				111.5,463.6 120.5,463.6 120.5,463.5 129.5,463.5 138.6,463.5 147.7,463.5 156.7,463.5 156.7,463.5 165.7,463.5 165.7,463.5 
				174.8,463.5 183.8,463.5 192.8,463.5 192.9,463.5 201.8,463.5 201.9,463.5 210.9,463.5 219.9,463.5 229,463.5 229,463.5 
				237.9,463.5 238,463.5 247,463.5 256.1,463.5 265,463.5 265.1,463.5 274.1,463.5 283.2,463.5 292.2,463.5 301.2,463.5 
				301.3,463.5 310.3,463.5 319.4,463.5 328.4,463.5 337.5,463.5 346.5,463.5 346.6,463.5 355.6,463.5 364.6,463.5 373.7,463.5 
				382.7,463.5 382.8,463.5 391.7,463.5 400.8,463.5 409.9,463.5 418.9,463.5 418.9,463.5 428,463.5 437,463.5 446.1,463.5 
				455.1,463.5 455.2,463.5 464.1,463.5 473.2,463.5 482.3,463.5 491.3,463.5 500.4,463.5 500.4,463.5 509.4,463.5 518.5,463.5 
				518.5,463.4 527.5,463.4 536.5,463.4 545.5,463.4 545.5,463.5 554.6,463.5 563.7,463.5 572.7,463.5 581.7,463.5 581.8,463.5 
				590.8,463.5 599.8,463.5 608.9,463.5 617.9,463.5 618,463.5 626.9,463.5 636,463.5 636,187.5 			"/>
		</g>
		<line class="st5" x1="21" y1="463.5" x2="637.5" y2="463.5"/>
	</g>
	<g class="st0">
		<text transform="matrix(1 0 0 1 5.2559 389.3496)" class="st6 st7 st8">50</text>
	</g>
	<g class="st0">
		<text transform="matrix(1 0 0 1 2.929688e-03 313.5996)" class="st6 st7 st8">100</text>
	</g>
	<g class="st0">
		<text transform="matrix(1 0 0 1 2.929688e-03 237.0996)" class="st6 st7 st8">150</text>
	</g>
	<g class="st0">
		<text transform="matrix(1 0 0 1 2.929688e-03 160.5996)" class="st6 st7 st8">200</text>
	</g>
	<g class="st0">
		<text transform="matrix(1 0 0 1 2.929688e-03 84.8496)" class="st6 st7 st8">250</text>
	</g>
	<g class="st0">
		<text transform="matrix(1 0 0 1 2.929688e-03 8.3496)" class="st6 st7 st8">300</text>
	</g>
	<g class="st0">
		<text transform="matrix(1 0 0 1 569.4154 35.3277)" class="st9 st7 st8">New cases</text>
	</g>
</g>
<polygon class="st10" points="627,300 627,333.7 618,333.7 618,308.2 608.9,308.2 608.9,317.2 599.8,317.2 599.8,327.7 590.8,327.7 
	590.8,324.7 581.7,324.7 581.7,338.2 572.8,338.2 572.8,336.7 563.7,336.7 563.7,330.7 554.6,330.7 554.6,369 545.6,369 
	545.6,373.5 536.5,373.5 536.5,375 527.5,375 527.5,376.5 518.5,376.5 518.5,376.5 509.4,376.5 509.4,370.5 500.4,370.5 500.4,363 
	491.4,363 491.4,355.5 482.3,355.5 482.3,315.7 473.2,315.7 473.2,286.5 464.2,286.5 464.2,274.5 455.2,274.5 455.2,224.3 
	446.1,224.3 446.1,198 437,198 437,216.8 428,216.8 428,221.3 418.9,221.3 418.9,249.7 409.9,249.7 409.9,291 400.8,291 400.8,297 
	391.8,297 391.8,355.5 382.7,355.5 382.7,354 373.7,354 373.7,344.2 364.6,344.2 364.6,357 355.5,357 355.5,360 346.5,360 
	346.5,348.8 337.4,348.8 337.4,354 328.4,354 328.4,344.3 319.3,344.3 319.3,370.5 310.2,370.5 310.2,358.5 301.2,358.5 301.2,363 
	292.1,363 283.1,363 283.1,364.5 274,364.5 274,369 264.9,369 264.9,372 255.9,372 255.9,375 246.8,375 246.8,390 237.8,390 
	237.8,387 228.7,387 228.7,390 219.7,390 219.7,394.5 210.6,394.5 210.6,391.5 201.6,391.5 201.6,396.7 192.5,396.7 192.5,401.2 
	183.5,401.2 174.4,401.2 165.4,401.2 165.4,401.2 156.3,401.2 156.3,404.2 147.3,404.2 147.3,417.7 138.2,417.7 138.2,423.7 
	129.1,423.7 129.1,431.2 120.1,431.2 120.1,438.7 111.1,438.7 111.1,444 102,444 102,451.5 94.9,451.5 94.9,456 85.9,456 83.9,459 
	74.9,459 65.9,459 65.9,463.5 74.9,463.5 83.9,463.5 84,463.5 92.9,463.5 93,463.5 102,463.5 111.1,463.5 120.1,463.5 120.1,463.5 
	129.1,463.5 138.2,463.5 147.3,463.5 156.3,463.5 156.3,463.5 165.4,463.5 165.4,463.5 174.4,463.5 183.5,463.5 192.5,463.5 
	192.6,463.5 201.6,463.5 201.6,463.5 210.6,463.5 219.7,463.5 228.7,463.5 228.7,463.5 237.8,463.5 237.8,463.5 246.8,463.5 
	255.9,463.5 264.9,463.5 265,463.5 274,463.5 283.1,463.5 292.1,463.5 301.2,463.5 301.2,463.5 310.2,463.5 319.3,463.5 
	328.4,463.5 337.4,463.5 346.5,463.5 346.5,463.5 355.5,463.5 364.6,463.5 373.7,463.5 382.7,463.5 382.7,463.5 391.8,463.5 
	400.8,463.5 409.9,463.5 418.9,463.5 418.9,463.5 428,463.5 437,463.5 446.1,463.5 455.2,463.5 455.2,463.5 464.2,463.5 
	473.2,463.5 482.3,463.5 491.4,463.5 500.3,463.5 500.4,463.5 509.4,463.5 518.4,463.5 518.4,463.5 527.5,463.5 536.5,463.5 
	545.6,463.5 545.6,463.5 554.6,463.5 563.7,463.5 572.8,463.5 581.7,463.5 581.8,463.5 590.8,463.5 599.8,463.5 608.9,463.5 
	617.9,463.5 618,463.5 627,463.5 636,463.5 636,300 "/>
<rect x="554" y="27.3" class="st4" width="9.4" height="9.4"/>
<text transform="matrix(1 0 0 1 569.4154 51.9122)" class="st9 st7 st8">7-day average</text>
<rect x="554" y="43.8" class="st10" width="9.4" height="9.4"/>
<g>
	<text transform="matrix(1 0 0 1 617.8831 477.3168)" class="st9 st7 st8">5/17</text>
</g>
<g>
	<text transform="matrix(1 0 0 1 16.8361 477.3165)" class="st9 st7 st8">3/11</text>
</g>
</svg>
