<?xml version="1.0" encoding="utf-8"?>
<!-- Generator: Adobe Illustrator 23.0.1, SVG Export Plug-In . SVG Version: 6.00 Build 0)  -->
<svg version="1.1" id="Layer_1" xmlns="http://www.w3.org/2000/svg" xmlns:xlink="http://www.w3.org/1999/xlink" x="0px" y="0px"
	 viewBox="0 0 637.5 487.5" style="enable-background:new 0 0 637.5 487.5;" xml:space="preserve">
<style type="text/css">
	.st0{clip-path:url(#SVGID_2_);}
	.st1{clip-path:url(#SVGID_4_);fill:none;stroke:#E8E8E8;stroke-width:0.75;stroke-miterlimit:10;}
	.st2{clip-path:url(#SVGID_4_);fill:#C71E1D;}
	.st3{clip-path:url(#SVGID_4_);}
	.st4{fill:#C71E1D;fill-opacity:0.6;stroke:#000000;stroke-width:0.5;stroke-miterlimit:10;}
	.st5{clip-path:url(#SVGID_4_);fill:none;stroke:#333333;stroke-width:0.75;stroke-miterlimit:10;}
	.st6{fill:#A6A6A6;}
	.st7{font-family:'Roboto-Regular';}
	.st8{font-size:9px;}
	.st9{fill:#FACE00;fill-opacity:0.85;stroke:#000000;stroke-width:0.5;stroke-miterlimit:10;}
	.st10{fill:#333333;}
</style>
<g>
	<defs>
		<rect id="SVGID_1_" width="637.5" height="487.5"/>
	</defs>
	<clipPath id="SVGID_2_">
		<use xlink:href="#SVGID_1_"  style="overflow:visible;"/>
	</clipPath>
	<g class="st0">
		<defs>
			<rect id="SVGID_3_" width="637.5" height="483"/>
		</defs>
		<clipPath id="SVGID_4_">
			<use xlink:href="#SVGID_3_"  style="overflow:visible;"/>
		</clipPath>
		<line class="st1" x1="21" y1="5.2" x2="637.5" y2="5.2"/>
		<line class="st1" x1="21" y1="56.2" x2="637.5" y2="56.2"/>
		<line class="st1" x1="21" y1="107.2" x2="637.5" y2="107.2"/>
		<line class="st1" x1="21" y1="158.2" x2="637.5" y2="158.2"/>
		<line class="st1" x1="21" y1="208.5" x2="637.5" y2="208.5"/>
		<line class="st1" x1="21" y1="259.5" x2="637.5" y2="259.5"/>
		<line class="st1" x1="21" y1="310.5" x2="637.5" y2="310.5"/>
		<line class="st1" x1="21" y1="361.5" x2="637.5" y2="361.5"/>
		<line class="st1" x1="21" y1="412.5" x2="637.5" y2="412.5"/>
		<path class="st2" d="M72.4,463.5h8.6H72.4z"/>
		<g class="st3">
			<polygon class="st4" points="63.8,459.8 55.2,459.8 55.2,460.5 46.7,460.5 38.1,460.5 38.1,458.2 29.6,458.2 29.6,462.8 
				21,462.8 21,463.5 29.6,463.5 38.1,463.5 46.7,463.5 55.2,463.5 63.8,463.5 72.4,463.5 72.4,457.5 63.8,457.5 			"/>
			<polygon class="st4" points="628.9,0 628.9,381.8 620.4,381.8 620.4,369.8 611.8,369.8 611.8,390 603.2,390 603.2,279 594.7,279 
				594.7,346.5 586.1,346.5 586.1,364.5 577.6,364.5 577.6,330.8 569,330.8 569,390 560.4,390 560.4,340.5 551.9,340.5 551.9,432 
				543.3,432 543.3,435 534.8,435 534.8,222 526.2,222 526.2,409.5 517.6,409.5 517.6,378.8 509.1,378.8 509.1,375.8 500.5,375.8 
				500.5,406.5 491.9,406.5 491.9,424.5 483.4,424.5 483.4,403.5 474.8,403.5 474.8,400.5 466.2,400.5 466.2,434.2 457.7,434.2 
				457.7,387.8 449.1,387.8 449.1,381.8 440.6,381.8 440.6,404.2 432,404.2 432,394.5 423.4,394.5 423.4,369.8 414.9,369.8 
				414.9,363 406.3,363 406.3,248.2 397.8,248.2 397.8,252.8 389.2,252.8 389.2,330.8 380.6,330.8 380.6,167.2 372.1,167.2 
				372.1,270 363.5,270 363.5,459.8 354.9,459.8 354.9,380.2 346.4,380.2 346.4,387 337.8,387 337.8,441.8 329.3,441.8 329.3,360.8 
				320.7,360.8 320.7,440.2 312.1,440.2 312.1,264.8 303.6,264.8 303.6,410.2 295,410.2 295,437.2 286.4,437.2 286.4,406.5 
				277.9,406.5 277.9,393 269.3,393 269.3,381.8 260.8,381.8 260.8,392.2 252.2,392.2 252.2,387.8 243.6,387.8 243.6,351.8 
				235.1,351.8 235.1,458.2 226.5,458.2 226.5,407.2 217.9,407.2 217.9,403.5 209.4,403.5 209.4,402.8 200.8,402.8 200.8,406.5 
				192.3,406.5 192.3,403.5 183.7,403.5 183.7,423 175.1,423 175.1,440.2 166.6,440.2 166.6,426 158,426 158,421.5 149.4,421.5 
				149.4,386.2 140.9,386.2 140.9,432 132.3,432 132.3,426.8 123.8,426.8 123.8,420 115.2,420 115.2,441 106.6,441 106.6,424.5 
				98.1,424.5 98.1,434.2 89.5,434.2 89.5,452.2 80.9,452.2 80.9,463.5 89.5,463.5 98.1,463.5 106.6,463.5 115.2,463.5 123.8,463.5 
				132.3,463.5 132.3,463.5 140.9,463.5 140.9,463.5 149.4,463.5 149.4,463.5 158,463.5 158,463.5 166.6,463.5 166.6,463.5 
				175.1,463.5 175.1,463.5 183.7,463.5 183.7,463.5 192.2,463.5 192.3,463.5 200.8,463.5 200.8,463.5 209.4,463.5 209.4,463.5 
				217.9,463.5 217.9,463.5 226.5,463.5 226.5,463.5 235.1,463.5 235.1,463.5 243.6,463.5 243.6,463.5 252.2,463.5 252.2,463.5 
				260.8,463.5 260.8,463.5 269.3,463.5 269.3,463.5 277.9,463.5 277.9,463.5 286.4,463.5 286.4,463.5 295,463.5 295,463.5 
				303.6,463.5 303.6,463.5 312.1,463.5 312.1,463.5 320.7,463.5 320.7,463.5 329.2,463.5 329.3,463.5 337.8,463.5 337.8,463.5 
				346.4,463.5 346.4,463.5 354.9,463.5 354.9,463.5 363.5,463.5 363.5,463.5 372.1,463.5 372.1,463.5 380.6,463.5 380.6,463.5 
				389.2,463.5 389.2,463.5 397.8,463.5 397.8,463.5 406.3,463.5 406.3,463.5 414.9,463.5 414.9,463.5 423.4,463.5 423.4,463.5 
				432,463.5 432,463.5 440.6,463.5 440.6,463.5 449.1,463.5 449.1,463.5 457.7,463.5 457.7,463.5 466.2,463.5 466.3,463.5 
				474.8,463.5 474.8,463.5 483.4,463.5 483.4,463.5 491.9,463.5 491.9,463.5 500.5,463.5 500.5,463.5 509.1,463.5 509.1,463.5 
				517.6,463.5 526.2,463.5 534.8,463.5 543.3,463.5 551.9,463.5 560.4,463.5 569,463.5 577.6,463.5 586.1,463.5 594.7,463.5 
				603.2,463.5 611.8,463.5 620.4,463.5 628.9,463.5 637.5,463.5 637.5,0 			"/>
		</g>
		<line class="st5" x1="21" y1="463.5" x2="637.5" y2="463.5"/>
	</g>
	<g class="st0">
		<text transform="matrix(1 0 0 1 5.2559 414.8496)" class="st6 st7 st8">50</text>
	</g>
	<g class="st0">
		<text transform="matrix(1 0 0 1 2.929688e-03 363.8496)" class="st6 st7 st8">100</text>
	</g>
	<g class="st0">
		<text transform="matrix(1 0 0 1 2.929688e-03 312.8496)" class="st6 st7 st8">150</text>
	</g>
	<g class="st0">
		<text transform="matrix(1 0 0 1 2.929688e-03 261.8496)" class="st6 st7 st8">200</text>
	</g>
	<g class="st0">
		<text transform="matrix(1 0 0 1 2.929688e-03 210.8496)" class="st6 st7 st8">250</text>
	</g>
	<g class="st0">
		<text transform="matrix(1 0 0 1 2.929688e-03 160.5996)" class="st6 st7 st8">300</text>
	</g>
	<g class="st0">
		<text transform="matrix(1 0 0 1 2.929688e-03 109.5996)" class="st6 st7 st8">350</text>
	</g>
	<g class="st0">
		<text transform="matrix(1 0 0 1 2.929688e-03 58.5996)" class="st6 st7 st8">400</text>
	</g>
	<g class="st0">
		<text transform="matrix(1 0 0 1 2.929688e-03 7.5996)" class="st6 st7 st8">450</text>
	</g>
</g>
<polygon class="st9" points="628.9,225.8 628.9,295.5 620.4,295.5 620.4,298.5 611.8,298.5 611.8,291 603.2,291 603.2,300 
	594.7,300 594.7,333.8 586.1,333.8 586.1,308.3 577.6,308.3 577.6,317.3 569,317.3 569,327.8 560.4,327.8 560.4,324.8 551.9,324.8 
	551.9,338.3 543.3,338.3 543.3,336.8 534.8,336.8 534.8,330.8 526.2,330.8 526.2,369 517.6,369 517.6,373.5 509.1,373.5 509.1,375 
	500.5,375 500.5,376.5 491.9,376.5 491.9,376.5 483.4,376.5 483.4,370.5 474.8,370.5 474.8,363 466.3,363 466.3,355.5 457.7,355.5 
	457.7,315.8 449.1,315.8 449.1,286.5 440.6,286.5 440.6,274.5 432,274.5 432,224.3 423.4,224.3 423.4,198 414.9,198 414.9,216.8 
	406.3,216.8 406.3,221.3 397.8,221.3 397.8,249.8 389.2,249.8 389.2,291 380.6,291 380.6,297 372.1,297 372.1,355.5 363.5,355.5 
	363.5,354 354.9,354 354.9,344.3 346.4,344.3 346.4,357 337.8,357 337.8,360 329.3,360 329.3,348.8 320.7,348.8 320.7,354 
	312.1,354 312.1,344.3 303.6,344.3 303.6,370.5 295,370.5 295,358.5 286.4,358.5 286.4,363 277.9,363 277.9,363 269.3,363 
	269.3,364.5 260.8,364.5 260.8,369 252.2,369 252.2,372 243.6,372 243.6,375 235.1,375 235.1,390 226.5,390 226.5,387 217.9,387 
	217.9,390 209.4,390 209.4,394.5 200.8,394.5 200.8,391.5 192.2,391.5 192.2,396.8 183.7,396.8 183.7,401.3 175.1,401.3 
	175.1,401.3 166.6,401.3 166.6,401.3 158,401.3 158,401.3 149.4,401.3 149.4,404.3 140.9,404.3 140.9,417.8 132.3,417.8 
	132.3,423.8 123.8,423.8 123.8,431.3 115.2,431.3 115.2,438.8 106.6,438.8 106.6,444 98.1,444 98.1,451.5 89.5,451.5 89.5,456 
	80.9,456 80.9,459 72.4,459 63.8,459 63.8,463.5 72.4,463.5 80.9,463.5 89.5,463.5 98.1,463.5 106.6,463.5 115.2,463.5 123.8,463.5 
	132.3,463.5 132.3,463.5 140.9,463.5 140.9,463.5 149.4,463.5 149.4,463.5 158,463.5 158,463.5 166.6,463.5 166.6,463.5 
	175.1,463.5 175.1,463.5 183.7,463.5 183.7,463.5 192.2,463.5 192.3,463.5 200.8,463.5 200.8,463.5 209.4,463.5 209.4,463.5 
	217.9,463.5 217.9,463.5 226.5,463.5 226.5,463.5 235.1,463.5 235.1,463.5 243.6,463.5 243.6,463.5 252.2,463.5 252.2,463.5 
	260.8,463.5 260.8,463.5 269.3,463.5 269.3,463.5 277.9,463.5 277.9,463.5 286.4,463.5 286.4,463.5 295,463.5 295,463.5 
	303.6,463.5 303.6,463.5 312.1,463.5 312.1,463.5 320.7,463.5 320.7,463.5 329.2,463.5 329.3,463.5 337.8,463.5 337.8,463.5 
	346.4,463.5 346.4,463.5 354.9,463.5 354.9,463.5 363.5,463.5 363.5,463.5 372.1,463.5 372.1,463.5 380.6,463.5 380.6,463.5 
	389.2,463.5 389.2,463.5 397.8,463.5 397.8,463.5 406.3,463.5 406.3,463.5 414.9,463.5 414.9,463.5 423.4,463.5 423.4,463.5 
	432,463.5 432,463.5 440.6,463.5 440.6,463.5 449.1,463.5 449.1,463.5 457.7,463.5 457.7,463.5 466.2,463.5 466.3,463.5 
	474.8,463.5 474.8,463.5 483.4,463.5 483.4,463.5 491.9,463.5 491.9,463.5 500.5,463.5 500.5,463.5 509.1,463.5 509.1,463.5 
	517.6,463.5 526.2,463.5 534.8,463.5 543.3,463.5 551.9,463.5 560.4,463.5 569,463.5 577.6,463.5 586.1,463.5 594.7,463.5 
	603.2,463.5 611.8,463.5 620.4,463.5 628.9,463.5 637.5,463.5 637.5,225.8 "/>
<text transform="matrix(1 0 0 1 555.6905 23.1687)" class="st10 st7 st8">New cases</text>
<rect x="540.3" y="15.1" class="st4" width="9.4" height="9.4"/>
<text transform="matrix(1 0 0 1 555.6905 39.7532)" class="st10 st7 st8">7-day average</text>
<rect x="540.3" y="31.7" class="st9" width="9.4" height="9.4"/>
<g>
	<text transform="matrix(1 0 0 1 617.8932 477.1576)" class="st10 st7 st8">5/21</text>
</g>
<g>
	<text transform="matrix(1 0 0 1 15.6274 477.1575)" class="st10 st7 st8">3/11</text>
</g>
</svg>
