<?xml version="1.0" encoding="utf-8"?>
<!-- Generator: Adobe Illustrator 23.0.1, SVG Export Plug-In . SVG Version: 6.00 Build 0)  -->
<svg version="1.1" id="Layer_1" xmlns="http://www.w3.org/2000/svg" xmlns:xlink="http://www.w3.org/1999/xlink" x="0px" y="0px"
	 viewBox="0 0 637.5 487.5" style="enable-background:new 0 0 637.5 487.5;" xml:space="preserve">
<style type="text/css">
	.st0{clip-path:url(#SVGID_2_);}
	.st1{clip-path:url(#SVGID_4_);fill:none;stroke:#E8E8E8;stroke-width:0.75;stroke-miterlimit:10;}
	.st2{clip-path:url(#SVGID_4_);fill:#C71E1D;}
	.st3{clip-path:url(#SVGID_4_);}
	.st4{fill:#C71E1D;fill-opacity:0.6;stroke:#000000;stroke-width:0.5;stroke-miterlimit:10;}
	.st5{clip-path:url(#SVGID_4_);fill:none;stroke:#333333;stroke-width:0.75;stroke-miterlimit:10;}
	.st6{fill:#A6A6A6;}
	.st7{font-family:'Roboto-Regular';}
	.st8{font-size:9px;}
	.st9{fill:#FACE00;fill-opacity:0.85;stroke:#000000;stroke-width:0.5;stroke-miterlimit:10;}
	.st10{fill:#333333;}
</style>
<g>
	<defs>
		<rect id="SVGID_1_" width="637.5" height="487.5"/>
	</defs>
	<clipPath id="SVGID_2_">
		<use xlink:href="#SVGID_1_"  style="overflow:visible;"/>
	</clipPath>
	<g class="st0">
		<defs>
			<polyline id="SVGID_3_" points="0,483 0,0 637.5,0 637.5,483 			"/>
		</defs>
		<clipPath id="SVGID_4_">
			<use xlink:href="#SVGID_3_"  style="overflow:visible;"/>
		</clipPath>
		<line class="st1" x1="21" y1="6" x2="637.5" y2="6"/>
		<line class="st1" x1="21" y1="82.5" x2="637.5" y2="82.5"/>
		<line class="st1" x1="21" y1="158.2" x2="637.5" y2="158.2"/>
		<line class="st1" x1="21" y1="234.8" x2="637.5" y2="234.8"/>
		<line class="st1" x1="21" y1="311.2" x2="637.5" y2="311.2"/>
		<line class="st1" x1="21" y1="387" x2="637.5" y2="387"/>
		<path class="st2" d="M73.8,463.5h8.8H73.8z"/>
		<g class="st3">
			<polygon class="st4" points="65,457.5 56.2,457.5 56.2,459 47.4,459 38.6,459 38.6,456 29.8,456 29.8,462 21,462 21,463.5 
				29.8,463.5 29.8,463.5 38.6,463.5 38.6,463.5 47.4,463.5 56.2,463.5 65,463.5 65,463.5 73.8,463.5 73.8,454.5 65,454.5 			"/>
			<polygon class="st4" points="628.7,323.2 628.7,354 619.9,354 619.9,187.5 611.1,187.5 611.1,288 602.3,288 602.3,315.8 
				593.5,315.8 593.5,265.5 584.7,265.5 584.7,354 575.9,354 575.9,279 567,279 567,416.2 558.2,416.2 558.2,420.8 549.4,420.8 
				549.4,102 540.6,102 540.6,382.5 531.8,382.5 531.8,336.8 523,336.8 523,332.2 514.2,332.2 514.2,378 505.4,378 505.4,405.8 
				496.6,405.8 496.6,373.5 487.8,373.5 487.8,369 479,369 479,419.2 470.2,419.2 470.2,351 461.4,351 461.4,341.2 452.5,341.2 
				452.5,375 443.7,375 443.7,360 434.9,360 434.9,323.2 426.1,323.2 426.1,312.8 417.3,312.8 417.3,141.8 408.5,141.8 408.5,147.8 
				399.7,147.8 399.7,265.5 390.9,265.5 390.9,19.5 382.1,19.5 382.1,174 373.3,174 373.3,457.5 364.5,457.5 364.5,338.2 
				355.7,338.2 355.7,348.8 346.9,348.8 346.9,431.2 338.1,431.2 338.1,309.8 329.2,309.8 329.2,428.2 320.4,428.2 320.4,165.8 
				311.6,165.8 311.6,384 302.8,384 302.8,423.8 294,423.8 294,378 285.2,378 285.2,358.5 276.4,358.5 276.4,341.2 267.6,341.2 
				267.6,357 258.8,357 258.8,351 250,351 250,295.5 241.2,295.5 241.2,456 232.4,456 232.4,379.5 223.6,379.5 223.6,373.5 
				214.8,373.5 214.8,372 206,372 206,378 197.1,378 197.1,373.5 188.3,373.5 188.3,402.8 179.5,402.8 179.5,428.2 170.7,428.2 
				170.7,407.2 161.9,407.2 161.9,401.2 153.1,401.2 153.1,347.2 144.3,347.2 144.3,416.2 135.5,416.2 135.5,408.8 126.7,408.8 
				126.7,398.2 117.9,398.2 117.9,429.8 109.1,429.8 109.1,405.8 100.3,405.8 100.3,419.2 91.5,419.2 91.5,447 82.7,447 82.7,463.5 
				91.5,463.5 100.3,463.5 100.3,463.5 109.1,463.5 109.1,463.5 117.9,463.5 126.7,463.5 135.5,463.5 135.5,463.5 144.3,463.5 
				144.3,463.5 153.1,463.5 161.9,463.5 170.7,463.5 170.7,463.5 179.5,463.5 179.5,463.5 188.3,463.5 188.3,463.5 197.1,463.5 
				206,463.5 214.8,463.5 214.8,463.5 223.6,463.5 223.6,463.5 232.4,463.5 241.2,463.5 250,463.5 250,463.5 258.8,463.5 
				258.8,463.5 267.6,463.5 276.4,463.5 285.2,463.5 294,463.5 294,463.5 302.8,463.5 311.6,463.5 320.4,463.5 329.2,463.5 
				329.3,463.5 338.1,463.5 338.1,463.5 346.9,463.5 355.7,463.5 364.5,463.5 373.3,463.5 373.3,463.5 382.1,463.5 390.9,463.5 
				399.7,463.5 408.5,463.5 408.5,463.5 417.3,463.5 426.1,463.5 434.9,463.5 443.7,463.5 452.5,463.5 452.6,463.5 461.4,463.5 
				470.2,463.5 479,463.5 487.8,463.5 487.8,463.5 496.6,463.5 505.4,463.5 514.2,463.5 523,463.5 523,463.5 531.8,463.5 
				531.8,463.5 540.6,463.5 540.6,463.5 549.4,463.5 558.2,463.5 558.2,463.5 567,463.5 567,463.5 575.8,463.5 575.9,463.5 
				584.7,463.5 593.5,463.5 593.5,463.5 602.3,463.5 602.3,463.5 611.1,463.5 611.1,463.5 619.9,463.5 628.7,463.5 628.7,463.5 
				637.5,463.5 637.5,323.2 			"/>
		</g>
		<line class="st5" x1="21" y1="463.5" x2="637.5" y2="463.5"/>
	</g>
	<g class="st0">
		<text transform="matrix(1 0 0 1 5.2559 389.3496)" class="st6 st7 st8">50</text>
	</g>
	<g class="st0">
		<text transform="matrix(1 0 0 1 2.929688e-03 313.5996)" class="st6 st7 st8">100</text>
	</g>
	<g class="st0">
		<text transform="matrix(1 0 0 1 2.929688e-03 237.0996)" class="st6 st7 st8">150</text>
	</g>
	<g class="st0">
		<text transform="matrix(1 0 0 1 2.929688e-03 160.5996)" class="st6 st7 st8">200</text>
	</g>
	<g class="st0">
		<text transform="matrix(1 0 0 1 2.929688e-03 84.8496)" class="st6 st7 st8">250</text>
	</g>
	<g class="st0">
		<text transform="matrix(1 0 0 1 2.929688e-03 8.3496)" class="st6 st7 st8">300</text>
	</g>
</g>
<polygon class="st9" points="628.7,298.6 628.7,291.1 619.9,291.1 619.9,300.1 611.1,300.1 611.1,333.9 602.3,333.9 602.3,308.4 
	593.5,308.4 593.5,317.4 584.7,317.4 584.7,327.9 575.8,327.9 575.8,324.9 567,324.9 567,338.4 558.2,338.4 558.2,336.9 
	549.4,336.9 549.4,330.9 540.6,330.9 540.6,369.1 531.8,369.1 531.8,373.6 523,373.6 523,375.1 514.2,375.1 514.2,376.6 
	505.4,376.6 496.6,376.6 496.6,370.6 487.8,370.6 487.8,363.1 479,363.1 479,355.6 470.2,355.6 470.2,315.9 461.4,315.9 
	461.4,286.6 452.5,286.6 452.5,274.6 443.7,274.6 443.7,224.4 434.9,224.4 434.9,198.1 426.1,198.1 426.1,216.9 417.3,216.9 
	417.3,221.4 408.5,221.4 408.5,249.9 399.7,249.9 399.7,291.1 390.9,291.1 390.9,297.1 382.1,297.1 382.1,355.6 373.3,355.6 
	373.3,354.1 364.5,354.1 364.5,344.4 355.7,344.4 355.7,357.1 346.9,357.1 346.9,360.1 338.1,360.1 338.1,348.9 329.2,348.9 
	329.2,354.1 320.4,354.1 320.4,344.4 311.6,344.4 311.6,370.6 302.8,370.6 302.8,358.6 294,358.6 294,363.1 285.2,363.1 
	276.4,363.1 276.4,364.6 267.6,364.6 267.6,369.1 258.8,369.1 258.8,372.1 250,372.1 250,375.1 241.2,375.1 241.2,390.1 
	232.4,390.1 232.4,387.1 223.6,387.1 223.6,390.1 214.8,390.1 214.8,394.6 205.9,394.6 205.9,391.6 197.1,391.6 197.1,396.9 
	188.3,396.9 188.3,401.4 179.5,401.4 179.5,401.4 170.7,401.4 170.7,401.4 161.9,401.4 153.1,401.4 153.1,404.4 144.3,404.4 
	144.3,417.9 135.5,417.9 135.5,423.9 126.7,423.9 126.7,431.4 117.9,431.4 117.9,438.9 109.1,438.9 109.1,444.1 100.3,444.1 
	100.3,451.6 91.5,451.6 91.5,456.1 82.6,456.1 82.6,459.1 73.8,459.1 73.8,459.1 65,459.1 65,463.6 73.8,463.6 73.8,463.6 
	82.6,463.6 91.5,463.6 100.3,463.6 100.3,463.6 109.1,463.6 109.1,463.6 117.9,463.6 126.7,463.6 135.5,463.6 135.5,463.6 
	144.3,463.6 144.3,463.6 153.1,463.6 161.9,463.6 170.7,463.6 170.7,463.6 179.5,463.6 179.5,463.6 188.3,463.6 188.3,463.6 
	197.1,463.6 205.9,463.6 214.8,463.6 214.8,463.6 223.6,463.6 223.6,463.6 232.4,463.6 241.2,463.6 250,463.6 250,463.6 
	258.8,463.6 258.8,463.6 267.6,463.6 276.4,463.6 285.2,463.6 294,463.6 294,463.6 302.8,463.6 311.6,463.6 320.4,463.6 
	329.2,463.6 329.2,463.6 338.1,463.6 338.1,463.6 346.9,463.6 355.7,463.6 364.5,463.6 373.3,463.6 373.3,463.6 382.1,463.6 
	390.9,463.6 399.7,463.6 408.5,463.6 408.5,463.6 417.3,463.6 426.1,463.6 434.9,463.6 443.7,463.6 452.5,463.6 452.5,463.6 
	461.4,463.6 470.2,463.6 479,463.6 487.8,463.6 487.8,463.6 496.6,463.6 505.4,463.6 514.2,463.6 523,463.6 523,463.6 531.8,463.6 
	531.8,463.6 540.6,463.6 540.6,463.6 549.4,463.6 558.2,463.6 558.2,463.6 567,463.6 567,463.6 575.8,463.6 575.8,463.6 
	584.7,463.6 593.5,463.6 593.5,463.6 602.3,463.6 602.3,463.6 611.1,463.6 611.1,463.6 619.9,463.6 628.7,463.6 628.7,463.6 
	637.5,463.6 637.5,298.6 "/>
<text transform="matrix(1 0 0 1 562.3542 37.8717)" class="st10 st7 st8">New cases</text>
<rect x="547" y="29.8" class="st4" width="9.4" height="9.4"/>
<text transform="matrix(1 0 0 1 562.3542 54.4562)" class="st10 st7 st8">7-day average</text>
<rect x="547" y="46.4" class="st9" width="9.4" height="9.4"/>
<g>
	<text transform="matrix(1 0 0 1 617.9963 477.8742)" class="st10 st7 st8">5/19</text>
</g>
<g>
	<text transform="matrix(1 0 0 1 17.0591 477.8741)" class="st10 st7 st8">3/11</text>
</g>
</svg>
