<?xml version="1.0" encoding="utf-8"?>
<!-- Generator: Adobe Illustrator 23.0.1, SVG Export Plug-In . SVG Version: 6.00 Build 0)  -->
<svg version="1.1" id="Layer_1" xmlns="http://www.w3.org/2000/svg" xmlns:xlink="http://www.w3.org/1999/xlink" x="0px" y="0px"
	 viewBox="0 0 637.5 487.5" style="enable-background:new 0 0 637.5 487.5;" xml:space="preserve">
<style type="text/css">
	.st0{clip-path:url(#SVGID_2_);}
	.st1{clip-path:url(#SVGID_4_);fill:none;stroke:#E8E8E8;stroke-width:0.75;stroke-miterlimit:10;}
	.st2{clip-path:url(#SVGID_4_);fill:#C71E1D;}
	.st3{clip-path:url(#SVGID_4_);}
	.st4{fill:#C71E1D;fill-opacity:0.6;stroke:#000000;stroke-width:0.5;stroke-miterlimit:10;}
	.st5{clip-path:url(#SVGID_4_);fill:none;stroke:#333333;stroke-width:0.75;stroke-miterlimit:10;}
	.st6{fill:#A6A6A6;}
	.st7{font-family:'Roboto-Regular';}
	.st8{font-size:9px;}
	.st9{fill:#FACE00;fill-opacity:0.85;stroke:#000000;stroke-width:0.5;stroke-miterlimit:10;}
	.st10{fill:#333333;}
</style>
<g>
	<defs>
		<rect id="SVGID_1_" width="637.5" height="487.5"/>
	</defs>
	<clipPath id="SVGID_2_">
		<use xlink:href="#SVGID_1_"  style="overflow:visible;"/>
	</clipPath>
	<g class="st0">
		<defs>
			<polyline id="SVGID_3_" points="0,483 0,0 637.5,0 637.5,483 			"/>
		</defs>
		<clipPath id="SVGID_4_">
			<use xlink:href="#SVGID_3_"  style="overflow:visible;"/>
		</clipPath>
		<line class="st1" x1="21" y1="6" x2="637.5" y2="6"/>
		<line class="st1" x1="21" y1="82.5" x2="637.5" y2="82.5"/>
		<line class="st1" x1="21" y1="158.2" x2="637.5" y2="158.2"/>
		<line class="st1" x1="21" y1="234.8" x2="637.5" y2="234.8"/>
		<line class="st1" x1="21" y1="311.2" x2="637.5" y2="311.2"/>
		<line class="st1" x1="21" y1="387" x2="637.5" y2="387"/>
		<path class="st2" d="M73.1,463.5h8.7H73.1z"/>
		<g class="st3">
			<polygon class="st4" points="64.4,457.5 55.7,457.5 55.7,459 47,459 38.4,459 38.4,456 29.7,456 29.7,462 21,462 21,463.5 
				29.7,463.5 38.4,463.5 47,463.5 55.7,463.5 64.4,463.5 64.4,463.5 73.1,463.5 73.1,454.5 64.4,454.5 			"/>
			<polygon class="st4" points="628.8,341.2 628.8,323.2 620.1,323.2 620.1,354 611.5,354 611.5,187.5 602.8,187.5 602.8,288 
				594.1,288 594.1,315.8 585.4,315.8 585.4,265.5 576.7,265.5 576.7,354 568,354 568,279 559.4,279 559.4,416.2 550.7,416.2 
				550.7,420.8 542,420.8 542,102 533.3,102 533.3,382.5 524.6,382.5 524.6,336.8 515.9,336.8 515.9,332.2 507.3,332.2 507.3,378 
				498.6,378 498.6,405.8 489.9,405.8 489.9,373.5 481.2,373.5 481.2,369 472.5,369 472.5,419.2 463.8,419.2 463.8,351 455.2,351 
				455.2,341.2 446.5,341.2 446.5,375 437.8,375 437.8,360 429.1,360 429.1,323.2 420.4,323.2 420.4,312.8 411.7,312.8 411.7,141.8 
				403.1,141.8 403.1,147.8 394.4,147.8 394.4,265.5 385.7,265.5 385.7,19.5 377,19.5 377,174 368.3,174 368.3,457.5 359.6,457.5 
				359.6,338.2 351,338.2 351,348.8 342.3,348.8 342.3,431.2 333.6,431.2 333.6,309.8 324.9,309.8 324.9,428.2 316.2,428.2 
				316.2,165.8 307.5,165.8 307.5,384 298.9,384 298.9,423.8 290.2,423.8 290.2,378 281.5,378 281.5,358.5 272.8,358.5 272.8,341.2 
				264.1,341.2 264.1,357 255.4,357 255.4,351 246.8,351 246.8,295.5 238.1,295.5 238.1,456 229.4,456 229.4,379.5 220.7,379.5 
				220.7,373.5 212,373.5 212,372 203.3,372 203.3,378 194.7,378 194.7,373.5 186,373.5 186,402.8 177.3,402.8 177.3,428.2 
				168.6,428.2 168.6,407.2 159.9,407.2 159.9,401.2 151.2,401.2 151.2,347.2 142.6,347.2 142.6,416.2 133.9,416.2 133.9,408.8 
				125.2,408.8 125.2,398.2 116.5,398.2 116.5,429.8 107.8,429.8 107.8,405.8 99.1,405.8 99.1,419.2 90.5,419.2 90.5,447 81.8,447 
				81.8,463.5 90.5,463.5 90.5,463.5 99.1,463.5 99.1,463.5 107.8,463.5 116.5,463.5 125.2,463.5 133.9,463.5 142.6,463.5 
				151.2,463.5 151.2,463.5 159.9,463.5 159.9,463.5 168.6,463.5 168.6,463.5 177.3,463.5 186,463.5 194.7,463.5 203.3,463.5 
				212,463.5 220.7,463.5 229.4,463.5 229.4,463.5 238.1,463.5 238.1,463.5 246.8,463.5 246.8,463.5 255.4,463.5 264.1,463.5 
				264.1,463.5 272.8,463.5 272.8,463.5 281.5,463.5 290.2,463.5 298.9,463.5 307.5,463.5 316.2,463.5 316.2,463.5 324.9,463.5 
				324.9,463.5 333.6,463.5 333.6,463.5 342.3,463.5 342.3,463.5 351,463.5 351,463.5 359.6,463.5 368.3,463.5 377,463.5 
				385.7,463.5 394.4,463.5 394.4,463.5 403.1,463.5 403.1,463.5 411.7,463.5 411.7,463.5 420.4,463.5 420.4,463.5 429.1,463.5 
				429.1,463.5 437.8,463.5 446.5,463.5 455.2,463.5 463.8,463.5 472.5,463.5 472.5,463.5 481.2,463.5 481.2,463.5 489.9,463.5 
				489.9,463.5 498.6,463.5 498.6,463.5 507.3,463.5 507.3,463.5 515.9,463.5 524.6,463.5 524.6,463.5 533.3,463.5 542,463.5 
				550.7,463.5 559.4,463.5 568,463.5 576.7,463.5 585.4,463.5 594.1,463.5 602.8,463.5 602.8,463.5 611.5,463.5 620.1,463.5 
				628.8,463.5 637.5,463.5 637.5,341.2 			"/>
		</g>
		<line class="st5" x1="21" y1="463.5" x2="637.5" y2="463.5"/>
	</g>
	<g class="st0">
		<text transform="matrix(1 0 0 1 5.2559 389.3496)" class="st6 st7 st8">50</text>
	</g>
	<g class="st0">
		<text transform="matrix(1 0 0 1 2.929688e-03 313.5996)" class="st6 st7 st8">100</text>
	</g>
	<g class="st0">
		<text transform="matrix(1 0 0 1 2.929688e-03 237.0996)" class="st6 st7 st8">150</text>
	</g>
	<g class="st0">
		<text transform="matrix(1 0 0 1 2.929688e-03 160.5996)" class="st6 st7 st8">200</text>
	</g>
	<g class="st0">
		<text transform="matrix(1 0 0 1 2.929688e-03 84.8496)" class="st6 st7 st8">250</text>
	</g>
	<g class="st0">
		<text transform="matrix(1 0 0 1 2.929688e-03 8.3496)" class="st6 st7 st8">300</text>
	</g>
</g>
<polygon class="st9" points="628.8,295.5 628.8,298.5 620.1,298.5 620.1,291 611.5,291 611.5,300 602.8,300 602.8,333.7 
	594.1,333.7 594.1,308.2 585.4,308.2 585.4,317.2 576.7,317.2 576.7,327.7 568,327.7 568,324.7 559.4,324.7 559.4,338.2 
	550.7,338.2 550.7,336.7 542,336.7 542,330.7 533.3,330.7 533.3,369 524.6,369 524.6,373.5 515.9,373.5 515.9,375 507.3,375 
	507.3,376.5 498.6,376.5 498.6,376.5 489.9,376.5 489.9,370.5 481.2,370.5 481.2,363 472.5,363 472.5,355.5 463.8,355.5 
	463.8,315.7 455.2,315.7 455.2,286.5 446.5,286.5 446.5,274.5 437.8,274.5 437.8,224.2 429.1,224.2 429.1,198 420.4,198 
	420.4,216.7 411.7,216.7 411.7,221.2 403.1,221.2 403.1,249.7 394.4,249.7 394.4,291 385.7,291 385.7,297 377,297 377,355.5 
	368.3,355.5 368.3,354 359.6,354 359.6,344.2 351,344.2 351,357 342.3,357 342.3,360 333.6,360 333.6,348.7 324.9,348.7 324.9,354 
	316.2,354 316.2,344.2 307.5,344.2 307.5,370.5 298.9,370.5 298.9,358.5 290.2,358.5 290.2,363 281.5,363 272.8,363 272.8,364.5 
	264.1,364.5 264.1,369 255.4,369 255.4,372 246.8,372 246.8,375 238.1,375 238.1,390 229.4,390 229.4,387 220.7,387 220.7,390 
	212,390 212,394.5 203.3,394.5 203.3,391.5 194.7,391.5 194.7,396.7 186,396.7 186,401.2 177.3,401.2 168.6,401.2 168.6,401.2 
	159.9,401.2 159.9,401.2 151.2,401.2 151.2,404.2 142.6,404.2 142.6,417.7 133.9,417.7 133.9,423.7 125.2,423.7 125.2,431.2 
	116.5,431.2 116.5,438.7 107.8,438.7 107.8,444 99.1,444 99.1,451.5 90.5,451.5 90.5,456 81.8,456 81.8,459 73.1,459 73.1,459 
	64.4,459 64.4,463.5 73.1,463.5 73.1,463.5 81.8,463.5 81.8,463.5 90.5,463.5 90.5,463.5 99.1,463.5 99.1,463.5 107.8,463.5 
	116.5,463.5 125.2,463.5 133.9,463.5 142.6,463.5 151.2,463.5 151.2,463.5 159.9,463.5 159.9,463.5 168.6,463.5 168.6,463.5 
	177.3,463.5 186,463.5 194.7,463.5 203.3,463.5 212,463.5 220.7,463.5 229.4,463.5 229.4,463.5 238.1,463.5 238.1,463.5 
	246.8,463.5 246.8,463.5 255.4,463.5 264.1,463.5 264.1,463.5 272.8,463.5 272.8,463.5 281.5,463.5 290.2,463.5 298.9,463.5 
	307.5,463.5 316.2,463.5 316.2,463.5 324.9,463.5 324.9,463.5 333.6,463.5 333.6,463.5 342.3,463.5 342.3,463.5 351,463.5 
	351,463.5 359.6,463.5 368.3,463.5 377,463.5 385.7,463.5 394.4,463.5 394.4,463.5 403.1,463.5 403.1,463.5 411.7,463.5 
	411.7,463.5 420.4,463.5 420.4,463.5 429.1,463.5 429.1,463.5 437.8,463.5 446.5,463.5 455.2,463.5 463.8,463.5 472.5,463.5 
	472.5,463.5 481.2,463.5 481.2,463.5 489.9,463.5 489.9,463.5 498.6,463.5 498.6,463.5 507.3,463.5 507.3,463.5 515.9,463.5 
	524.6,463.5 524.6,463.5 533.3,463.5 542,463.5 550.7,463.5 559.4,463.5 568,463.5 576.7,463.5 585.4,463.5 594.1,463.5 
	602.8,463.5 602.8,463.5 611.5,463.5 620.1,463.5 628.8,463.5 637.5,463.5 637.5,295.5 "/>
<text transform="matrix(1 0 0 1 556.3259 39.5142)" class="st10 st7 st8">New cases</text>
<rect x="541" y="31.4" class="st4" width="9.4" height="9.4"/>
<text transform="matrix(1 0 0 1 556.3259 56.0987)" class="st10 st7 st8">7-day average</text>
<rect x="541" y="48" class="st9" width="9.4" height="9.4"/>
<g>
	<text transform="matrix(1 0 0 1 618.4434 476.234)" class="st10 st7 st8">5/20</text>
</g>
<g>
	<text transform="matrix(1 0 0 1 17.0665 476.2344)" class="st10 st7 st8">3/11</text>
</g>
</svg>
