<?xml version="1.0" encoding="utf-8"?>
<!-- Generator: Adobe Illustrator 23.0.1, SVG Export Plug-In . SVG Version: 6.00 Build 0)  -->
<svg version="1.1" id="Layer_1" xmlns="http://www.w3.org/2000/svg" xmlns:xlink="http://www.w3.org/1999/xlink" x="0px" y="0px"
	 viewBox="0 0 637.5 487.5" style="enable-background:new 0 0 637.5 487.5;" xml:space="preserve">
<style type="text/css">
	.st0{clip-path:url(#SVGID_2_);}
	.st1{clip-path:url(#SVGID_4_);fill:none;stroke:#E8E8E8;stroke-width:0.75;stroke-miterlimit:10;}
	.st2{clip-path:url(#SVGID_4_);fill:#C71E1D;}
	.st3{clip-path:url(#SVGID_4_);}
	.st4{fill:#C71E1D;fill-opacity:0.6;stroke:#000000;stroke-width:0.5;stroke-miterlimit:10;}
	.st5{clip-path:url(#SVGID_4_);fill:none;stroke:#333333;stroke-width:0.75;stroke-miterlimit:10;}
	.st6{fill:#A6A6A6;}
	.st7{font-family:'Roboto-Regular';}
	.st8{font-size:9px;}
	.st9{fill:#FACE00;fill-opacity:0.85;stroke:#000000;stroke-width:0.5;stroke-miterlimit:10;}
	.st10{fill:#333333;}
</style>
<g>
	<defs>
		<rect id="SVGID_1_" width="637.5" height="487.5"/>
	</defs>
	<clipPath id="SVGID_2_">
		<use xlink:href="#SVGID_1_"  style="overflow:visible;"/>
	</clipPath>
	<g class="st0">
		<defs>
			<rect id="SVGID_3_" width="637.5" height="483"/>
		</defs>
		<clipPath id="SVGID_4_">
			<use xlink:href="#SVGID_3_"  style="overflow:visible;"/>
		</clipPath>
		<line class="st1" x1="21" y1="5.2" x2="637.5" y2="5.2"/>
		<line class="st1" x1="21" y1="56.2" x2="637.5" y2="56.2"/>
		<line class="st1" x1="21" y1="107.2" x2="637.5" y2="107.2"/>
		<line class="st1" x1="21" y1="158.2" x2="637.5" y2="158.2"/>
		<line class="st1" x1="21" y1="208.5" x2="637.5" y2="208.5"/>
		<line class="st1" x1="21" y1="259.5" x2="637.5" y2="259.5"/>
		<line class="st1" x1="21" y1="310.5" x2="637.5" y2="310.5"/>
		<line class="st1" x1="21" y1="361.5" x2="637.5" y2="361.5"/>
		<line class="st1" x1="21" y1="412.5" x2="637.5" y2="412.5"/>
		<path class="st2" d="M71.7,463.5h8.4H71.7z"/>
		<g class="st3">
			<polygon class="st4" points="63.2,459.8 54.8,459.8 54.8,460.5 46.3,460.5 37.9,460.5 37.9,458.2 29.4,458.2 29.4,462.8 
				21,462.8 21,463.5 29.4,463.5 29.4,463.5 37.9,463.5 46.3,463.5 54.8,463.5 63.2,463.5 63.2,463.5 71.7,463.5 71.7,457.5 
				63.2,457.5 			"/>
			<polygon class="st4" points="629.1,306.8 629.1,0 620.6,0 620.6,381.8 612.2,381.8 612.2,369.8 603.7,369.8 603.7,390 595.3,390 
				595.3,279 586.8,279 586.8,346.5 578.4,346.5 578.4,364.5 569.9,364.5 569.9,330.8 561.5,330.8 561.5,390 553,390 553,340.5 
				544.6,340.5 544.6,432 536.2,432 536.2,435 527.7,435 527.7,222 519.3,222 519.3,409.5 510.8,409.5 510.8,378.8 502.4,378.8 
				502.4,375.8 493.9,375.8 493.9,406.5 485.5,406.5 485.5,424.5 477,424.5 477,403.5 468.6,403.5 468.6,400.5 460.2,400.5 
				460.2,434.2 451.7,434.2 451.7,387.8 443.3,387.8 443.3,381.8 434.8,381.8 434.8,404.2 426.4,404.2 426.4,394.5 417.9,394.5 
				417.9,369.8 409.5,369.8 409.5,363 401,363 401,248.2 392.6,248.2 392.6,252.8 384.1,252.8 384.1,330.8 375.7,330.8 375.7,167.2 
				367.3,167.2 367.3,270 358.8,270 358.8,459.8 350.4,459.8 350.4,380.2 341.9,380.2 341.9,387 333.5,387 333.5,441.8 325,441.8 
				325,360.8 316.6,360.8 316.6,440.2 308.1,440.2 308.1,264.8 299.7,264.8 299.7,410.2 291.2,410.2 291.2,437.2 282.8,437.2 
				282.8,406.5 274.4,406.5 274.4,393 265.9,393 265.9,381.8 257.5,381.8 257.5,392.2 249,392.2 249,387.8 240.6,387.8 240.6,351.8 
				232.1,351.8 232.1,458.2 223.7,458.2 223.7,407.2 215.2,407.2 215.2,403.5 206.8,403.5 206.8,402.8 198.3,402.8 198.3,406.5 
				189.9,406.5 189.9,403.5 181.5,403.5 181.5,423 173,423 173,440.2 164.6,440.2 164.6,426 156.1,426 156.1,421.5 147.7,421.5 
				147.7,386.2 139.2,386.2 139.2,432 130.8,432 130.8,426.8 122.3,426.8 122.3,420 113.9,420 113.9,441 105.5,441 105.5,424.5 
				97,424.5 97,434.2 88.6,434.2 88.6,452.2 80.1,452.2 80.1,463.5 88.6,463.5 97,463.5 97,463.5 105.5,463.5 113.9,463.5 
				122.3,463.5 130.8,463.5 130.8,463.5 139.2,463.5 147.7,463.5 156.1,463.5 164.6,463.5 164.6,463.5 173,463.5 181.5,463.5 
				189.9,463.5 198.3,463.5 198.3,463.5 206.8,463.5 215.2,463.5 223.7,463.5 232.1,463.5 232.1,463.5 240.6,463.5 249,463.5 
				257.5,463.5 257.5,463.5 265.9,463.5 265.9,463.5 274.4,463.5 282.8,463.5 291.2,463.5 299.7,463.5 299.7,463.5 308.1,463.5 
				316.6,463.5 325,463.5 333.5,463.5 333.5,463.5 341.9,463.5 350.4,463.5 358.8,463.5 367.3,463.5 367.3,463.5 375.7,463.5 
				384.1,463.5 392.6,463.5 401,463.5 401,463.5 409.5,463.5 417.9,463.5 426.4,463.5 434.8,463.5 434.8,463.5 443.3,463.5 
				451.7,463.5 460.2,463.5 468.6,463.5 468.6,463.5 477,463.5 485.5,463.5 493.9,463.5 502.4,463.5 502.4,463.5 510.8,463.5 
				519.3,463.5 527.7,463.5 527.7,463.5 536.2,463.5 536.2,463.5 544.6,463.5 544.6,463.5 553,463.5 561.5,463.5 561.5,463.5 
				569.9,463.5 569.9,463.5 578.4,463.5 578.4,463.5 586.8,463.5 595.3,463.5 595.3,463.5 603.7,463.5 603.7,463.5 612.2,463.5 
				612.2,463.5 620.6,463.5 629.1,463.5 629.1,463.5 637.5,463.5 637.5,306.8 			"/>
		</g>
		<line class="st5" x1="21" y1="463.5" x2="637.5" y2="463.5"/>
	</g>
	<g class="st0">
		<text transform="matrix(1 0 0 1 5.2559 414.8496)" class="st6 st7 st8">50</text>
	</g>
	<g class="st0">
		<text transform="matrix(1 0 0 1 2.929688e-03 363.8496)" class="st6 st7 st8">100</text>
	</g>
	<g class="st0">
		<text transform="matrix(1 0 0 1 2.929688e-03 312.8496)" class="st6 st7 st8">150</text>
	</g>
	<g class="st0">
		<text transform="matrix(1 0 0 1 2.929688e-03 261.8496)" class="st6 st7 st8">200</text>
	</g>
	<g class="st0">
		<text transform="matrix(1 0 0 1 2.929688e-03 210.8496)" class="st6 st7 st8">250</text>
	</g>
	<g class="st0">
		<text transform="matrix(1 0 0 1 2.929688e-03 160.5996)" class="st6 st7 st8">300</text>
	</g>
	<g class="st0">
		<text transform="matrix(1 0 0 1 2.929688e-03 109.5996)" class="st6 st7 st8">350</text>
	</g>
	<g class="st0">
		<text transform="matrix(1 0 0 1 2.929688e-03 58.5996)" class="st6 st7 st8">400</text>
	</g>
	<g class="st0">
		<text transform="matrix(1 0 0 1 2.929688e-03 7.5996)" class="st6 st7 st8">450</text>
	</g>
</g>
<polygon class="st9" points="629.1,213.7 629.1,225.7 620.6,225.7 620.6,295.5 612.2,295.5 612.2,298.5 603.7,298.5 603.7,291 
	595.3,291 595.3,300 586.8,300 586.8,333.7 578.4,333.7 578.4,308.2 569.9,308.2 569.9,317.2 561.5,317.2 561.5,327.7 553,327.7 
	553,324.7 544.6,324.7 544.6,338.2 536.2,338.2 536.2,336.7 527.7,336.7 527.7,330.7 519.3,330.7 519.3,369 510.8,369 510.8,373.5 
	502.4,373.5 502.4,375 493.9,375 493.9,376.5 485.5,376.5 477,376.5 477,370.5 468.6,370.5 468.6,363 460.2,363 460.2,355.5 
	451.7,355.5 451.7,315.7 443.3,315.7 443.3,286.5 434.8,286.5 434.8,274.5 426.4,274.5 426.4,224.2 417.9,224.2 417.9,198 
	409.5,198 409.5,216.7 401,216.7 401,221.2 392.6,221.2 392.6,249.7 384.1,249.7 384.1,291 375.7,291 375.7,297 367.3,297 
	367.3,355.5 358.8,355.5 358.8,354 350.4,354 350.4,344.2 341.9,344.2 341.9,357 333.5,357 333.5,360 325,360 325,348.7 
	316.6,348.7 316.6,354 308.1,354 308.1,344.2 299.7,344.2 299.7,370.5 291.2,370.5 291.2,358.5 282.8,358.5 282.8,363 274.4,363 
	265.9,363 265.9,364.5 257.5,364.5 257.5,369 249,369 249,372 240.6,372 240.6,375 232.1,375 232.1,390 223.7,390 223.7,387 
	215.2,387 215.2,390 206.8,390 206.8,394.5 198.3,394.5 198.3,391.5 189.9,391.5 189.9,396.7 181.5,396.7 181.5,401.2 173,401.2 
	164.6,401.2 164.6,401.2 156.1,401.2 147.7,401.2 147.7,404.2 139.2,404.2 139.2,417.7 130.8,417.7 130.8,423.7 122.3,423.7 
	122.3,431.2 113.9,431.2 113.9,438.7 105.5,438.7 105.5,444 97,444 97,451.5 88.6,451.5 88.6,456 80.1,456 80.1,459 71.7,459 
	63.2,459 63.2,463.5 71.7,463.5 80.1,463.5 88.6,463.5 97,463.5 97,463.5 105.5,463.5 113.9,463.5 122.3,463.5 130.8,463.5 
	130.8,463.5 139.2,463.5 147.7,463.5 156.1,463.5 164.6,463.5 164.6,463.5 173,463.5 181.5,463.5 189.9,463.5 198.3,463.5 
	198.3,463.5 206.8,463.5 215.2,463.5 223.7,463.5 232.1,463.5 232.1,463.5 240.6,463.5 249,463.5 257.5,463.5 257.5,463.5 
	265.9,463.5 265.9,463.5 274.4,463.5 282.8,463.5 291.2,463.5 299.7,463.5 299.7,463.5 308.1,463.5 316.6,463.5 325,463.5 
	333.5,463.5 333.5,463.5 341.9,463.5 350.4,463.5 358.8,463.5 367.3,463.5 367.3,463.5 375.7,463.5 384.1,463.5 392.6,463.5 
	401,463.5 401,463.5 409.5,463.5 417.9,463.5 426.4,463.5 434.8,463.5 434.8,463.5 443.3,463.5 451.7,463.5 460.2,463.5 
	468.6,463.5 468.6,463.5 477,463.5 485.5,463.5 493.9,463.5 502.4,463.5 502.4,463.5 510.8,463.5 519.3,463.5 527.7,463.5 
	527.7,463.5 536.2,463.5 536.2,463.5 544.6,463.5 544.6,463.5 553,463.5 561.5,463.5 561.5,463.5 569.9,463.5 569.9,463.5 
	578.4,463.5 578.4,463.5 586.8,463.5 595.3,463.5 595.3,463.5 603.7,463.5 603.7,463.5 612.2,463.5 612.2,463.5 620.6,463.5 
	629.1,463.5 629.1,463.5 637.5,463.5 637.5,213.7 "/>
<text transform="matrix(1 0 0 1 548.0192 24.7291)" class="st10 st7 st8">New cases</text>
<rect x="532.6" y="16.7" class="st4" width="9.4" height="9.4"/>
<text transform="matrix(1 0 0 1 548.0192 41.3136)" class="st10 st7 st8">7-day average</text>
<rect x="532.6" y="33.2" class="st9" width="9.4" height="9.4"/>
<g>
	<text transform="matrix(1 0 0 1 617.8929 477.7933)" class="st10 st7 st8">5/22</text>
</g>
<g>
	<text transform="matrix(1 0 0 1 16.6274 477.7934)" class="st10 st7 st8">3/11</text>
</g>
</svg>
