<?xml version="1.0" encoding="utf-8"?>
<!-- Generator: Adobe Illustrator 23.0.1, SVG Export Plug-In . SVG Version: 6.00 Build 0)  -->
<svg version="1.1" id="Layer_1" xmlns="http://www.w3.org/2000/svg" xmlns:xlink="http://www.w3.org/1999/xlink" x="0px" y="0px"
	 viewBox="0 0 637.5 487.5" style="enable-background:new 0 0 637.5 487.5;" xml:space="preserve">
<style type="text/css">
	.st0{clip-path:url(#SVGID_2_);enable-background:new    ;}
	.st1{clip-path:url(#SVGID_4_);fill:none;stroke:#E8E8E8;stroke-width:0.75;stroke-miterlimit:10;}
	.st2{clip-path:url(#SVGID_4_);fill:#C71E1D;}
	.st3{clip-path:url(#SVGID_4_);}
	.st4{fill:#C71E1D;fill-opacity:0.6;stroke:#000000;stroke-width:0.5;stroke-miterlimit:10;}
	.st5{clip-path:url(#SVGID_4_);fill:none;stroke:#333333;stroke-width:0.75;stroke-miterlimit:10;}
	.st6{fill:#A6A6A6;}
	.st7{font-family:'Roboto-Regular';}
	.st8{font-size:9px;}
	.st9{fill:#FACE00;fill-opacity:0.85;stroke:#000000;stroke-width:0.5;stroke-miterlimit:10;}
	.st10{fill:#333333;}
	.st11{font-size:11px;}
</style>
<g>
	<defs>
		<rect id="SVGID_1_" width="637.5" height="487.5"/>
	</defs>
	<clipPath id="SVGID_2_">
		<use xlink:href="#SVGID_1_"  style="overflow:visible;"/>
	</clipPath>
	<g class="st0">
		<g>
			<defs>
				<rect id="SVGID_3_" width="637.5" height="487.5"/>
			</defs>
			<clipPath id="SVGID_4_">
				<use xlink:href="#SVGID_3_"  style="overflow:visible;"/>
			</clipPath>
			<line class="st1" x1="21" y1="6" x2="637.5" y2="6"/>
			<line class="st1" x1="21" y1="82.5" x2="637.5" y2="82.5"/>
			<line class="st1" x1="21" y1="158.2" x2="637.5" y2="158.2"/>
			<line class="st1" x1="21" y1="234.8" x2="637.5" y2="234.8"/>
			<line class="st1" x1="21" y1="311.2" x2="637.5" y2="311.2"/>
			<line class="st1" x1="21" y1="387" x2="637.5" y2="387"/>
			<path class="st2" d="M84.8,463.5h10.6H84.8z"/>
			<g class="st3">
				<polygon class="st4" points="74.1,457.5 63.4,457.5 63.4,459 52.8,459 42.2,459 42.2,456 31.6,456 31.6,462 21,462 21,463.5 
					31.6,463.5 31.6,463.5 42.2,463.5 52.8,463.5 63.4,463.5 74.1,463.5 84.7,463.5 84.7,454.5 74.1,454.5 				"/>
				<polygon class="st4" points="626.6,336.8 626.6,332.2 616,332.2 616,378 605.5,378 605.5,405.8 594.9,405.8 594.9,373.5 
					584.3,373.5 584.3,369 573.7,369 573.7,419.2 563.1,419.2 563.1,351 552.4,351 552.4,341.2 541.8,341.2 541.8,375 531.2,375 
					531.2,360 520.6,360 520.6,323.3 510,323.3 510,312.8 499.4,312.8 499.4,141.8 488.7,141.8 488.7,147.8 478.1,147.8 
					478.1,265.5 467.5,265.5 467.5,19.5 456.9,19.5 456.9,174 446.3,174 446.3,457.5 435.6,457.5 435.6,338.2 425,338.2 425,348.8 
					414.4,348.8 414.4,431.2 403.8,431.2 403.8,309.8 393.1,309.8 393.1,428.2 382.5,428.2 382.5,165.8 371.9,165.8 371.9,384 
					361.2,384 361.2,423.8 350.6,423.8 350.6,378 340,378 340,358.5 329.4,358.5 329.4,341.2 318.7,341.2 318.7,357 308.1,357 
					308.1,351 297.5,351 297.5,295.5 286.8,295.5 286.8,456 276.2,456 276.2,379.5 265.6,379.5 265.6,373.5 254.9,373.5 254.9,372 
					244.3,372 244.3,378 233.7,378 233.7,373.5 223.1,373.5 223.1,402.8 212.4,402.8 212.4,428.2 201.8,428.2 201.8,407.2 
					191.2,407.2 191.2,401.2 180.6,401.2 180.6,347.2 169.9,347.2 169.9,416.2 159.3,416.2 159.3,408.8 148.7,408.8 148.7,398.2 
					138.1,398.2 138.1,429.8 127.4,429.8 127.4,405.8 116.8,405.8 116.8,419.2 106.2,419.2 106.2,447 95.6,447 95.6,463.5 
					106.2,463.5 116.8,463.5 116.8,463.5 127.4,463.5 138.1,463.5 148.7,463.5 148.7,463.5 159.3,463.5 169.9,463.5 180.6,463.5 
					191.2,463.5 201.8,463.5 212.4,463.5 223.1,463.5 233.7,463.5 233.7,463.5 244.3,463.5 254.9,463.5 265.6,463.5 276.2,463.5 
					286.8,463.5 297.5,463.5 308.1,463.5 318.7,463.5 329.4,463.5 340,463.5 350.6,463.5 361.2,463.5 371.9,463.5 382.5,463.5 
					393.1,463.5 403.8,463.5 414.4,463.5 425,463.5 435.6,463.5 446.3,463.5 456.9,463.5 456.9,463.5 467.5,463.5 467.5,463.5 
					478.1,463.5 488.7,463.5 488.7,463.5 499.4,463.5 510,463.5 510,463.5 520.6,463.5 531.2,463.5 531.2,463.5 541.8,463.5 
					541.9,463.5 552.4,463.5 563.1,463.5 573.7,463.5 573.7,463.5 584.2,463.5 584.3,463.5 594.8,463.5 594.9,463.5 605.5,463.5 
					616,463.5 616.1,463.5 626.6,463.5 637.3,463.5 637.3,336.8 				"/>
			</g>
			<line class="st5" x1="21" y1="463.5" x2="637.5" y2="463.5"/>
			<g class="st3">
				<text transform="matrix(1 0 0 1 5.6426 389.3496)" class="st6 st7 st8">50</text>
			</g>
			<g class="st3">
				<text transform="matrix(1 0 0 1 0.5889 313.5996)" class="st6 st7 st8">100</text>
			</g>
			<g class="st3">
				<text transform="matrix(1 0 0 1 0.5889 237.0996)" class="st6 st7 st8">150</text>
			</g>
			<g class="st3">
				<text transform="matrix(1 0 0 1 0.5889 160.5996)" class="st6 st7 st8">200</text>
			</g>
			<g class="st3">
				<text transform="matrix(1 0 0 1 0.5889 84.8496)" class="st6 st7 st8">250</text>
			</g>
			<g class="st3">
				<text transform="matrix(1 0 0 1 0.5889 8.3496)" class="st6 st7 st8">300</text>
			</g>
		</g>
	</g>
</g>
<polygon class="st9" points="626.6,373.5 626.6,375 616,375 616,376.5 605.4,376.5 594.9,376.5 594.9,370.5 584.3,370.5 584.3,363 
	573.8,363 573.8,355.6 563.1,355.6 563.1,315.8 552.5,315.8 552.5,286.6 541.9,286.6 541.9,274.5 531.4,274.5 531.4,224.2 
	520.7,224.2 520.7,198 510,198 510,216.7 499.5,216.7 499.5,221.2 488.8,221.2 488.8,249.7 478.2,249.7 478.2,291 467.5,291 
	467.5,297 457,297 457,355.5 446.4,355.5 446.4,354 435.8,354 435.8,344.2 425.1,344.2 425.1,357 414.5,357 414.5,360 403.8,360 
	403.8,348.7 393.2,348.7 393.2,354 382.5,354 382.5,344.2 371.9,344.2 371.9,370.5 361.2,370.5 361.2,358.5 350.6,358.5 350.6,363 
	339.9,363 329.3,363 329.3,364.5 318.6,364.5 318.6,369 308,369 308,372 297.3,372 297.3,375 286.7,375 286.7,390 276,390 276,387 
	265.3,387 265.3,390 254.7,390 254.7,394.5 244,394.5 244,391.5 233.4,391.5 233.4,396.7 223,396.7 223,401.2 212.3,401.2 
	201.6,401.2 191,401.2 180.3,401.2 180.3,404.2 169.7,404.2 169.7,417.7 159,417.7 159,423.7 148.4,423.7 148.4,431.2 138,431.2 
	138,438.7 127.3,438.7 127.3,444 116.6,444 116.6,451.5 106.1,451.5 106.1,456 95.5,456 95.5,459 84.8,459 74.2,459 74.2,463.5 
	84.8,463.5 95.5,463.5 106.1,463.5 116.6,463.5 116.8,463.5 127.3,463.5 138,463.5 148.4,463.5 148.6,463.5 159,463.5 169.7,463.5 
	180.3,463.5 191,463.5 201.6,463.5 212.3,463.5 223,463.5 233.4,463.5 233.6,463.5 244,463.5 254.7,463.5 265.3,463.5 276,463.5 
	286.7,463.5 297.3,463.5 308,463.5 318.6,463.5 329.3,463.5 339.9,463.5 350.6,463.5 361.2,463.5 371.9,463.5 382.5,463.5 
	393.2,463.5 403.8,463.5 414.5,463.5 425.1,463.5 435.8,463.5 446.4,463.5 457,463.5 457.1,463.5 467.5,463.5 467.7,463.5 
	478.2,463.5 488.8,463.5 488.8,463.5 499.5,463.5 510,463.5 510.2,463.5 520.7,463.5 531.3,463.5 531.4,463.5 541.8,463.5 
	541.8,463.6 552.5,463.6 563.1,463.6 573.8,463.6 573.8,463.5 584.2,463.5 584.3,463.5 594.8,463.5 594.9,463.5 605.4,463.5 
	616,463.5 616.1,463.5 626.6,463.5 637.3,463.5 637.3,373.5 "/>
<g>
	<text transform="matrix(1 0 0 1 548.7476 35.6931)" class="st10 st7 st11">New cases</text>
</g>
<text transform="matrix(1 0 0 1 548.9141 57.2683)" class="st10 st7 st11">7-d</text>
<text transform="matrix(1 0 0 1 564.3141 57.2683)" class="st10 st7 st11">a</text>
<text transform="matrix(1 0 0 1 570.2142 57.2683)" class="st10 st7 st11">y </text>
<text transform="matrix(1 0 0 1 578.1141 57.2683)" class="st10 st7 st11">a</text>
<text transform="matrix(1 0 0 1 584.1141 57.2683)" class="st10 st7 st11">v</text>
<text transform="matrix(1 0 0 1 589.3141 57.2683)" class="st10 st7 st11">e</text>
<text transform="matrix(1 0 0 1 595.1141 57.2683)" class="st10 st7 st11">r</text>
<text transform="matrix(1 0 0 1 598.7142 57.2683)" class="st10 st7 st11">age</text>
<rect x="529" y="25.4" class="st4" width="11.6" height="11.6"/>
<rect x="529" y="47.2" class="st9" width="11.6" height="11.6"/>
<text transform="matrix(1 0 0 1 16.77 477.5112)" class="st10 st7 st8">3/11</text>
<text transform="matrix(1 0 0 1 622.73 477.5114)" class="st10 st7 st8">5/7</text>
</svg>
