<?xml version="1.0" encoding="utf-8"?>
<!-- Generator: Adobe Illustrator 23.0.1, SVG Export Plug-In . SVG Version: 6.00 Build 0)  -->
<svg version="1.1" id="Layer_1" xmlns="http://www.w3.org/2000/svg" xmlns:xlink="http://www.w3.org/1999/xlink" x="0px" y="0px"
	 viewBox="0 0 637.5 487.5" style="enable-background:new 0 0 637.5 487.5;" xml:space="preserve">
<style type="text/css">
	.st0{clip-path:url(#SVGID_2_);}
	.st1{clip-path:url(#SVGID_4_);fill:none;stroke:#E8E8E8;stroke-width:0.75;stroke-miterlimit:10;}
	.st2{clip-path:url(#SVGID_4_);fill:#C71E1D;}
	.st3{clip-path:url(#SVGID_4_);}
	.st4{fill:#C71E1D;fill-opacity:0.6;stroke:#000000;stroke-width:0.25;stroke-miterlimit:10;}
	.st5{clip-path:url(#SVGID_4_);fill:none;stroke:#333333;stroke-width:0.75;stroke-miterlimit:10;}
	.st6{fill:#A6A6A6;}
	.st7{font-family:'Roboto-Regular';}
	.st8{font-size:9px;}
	.st9{fill:none;stroke:#A0001C;stroke-width:2;stroke-linecap:round;stroke-linejoin:round;stroke-miterlimit:10;}
	.st10{fill:#9A1D2B;}
	.st11{font-family:'ArialMT';}
	.st12{font-size:11px;}
	.st13{fill:none;stroke:#D31D2B;stroke-width:0.75;stroke-miterlimit:10;}
	.st14{fill:#D31D2B;stroke:#D31D2B;stroke-width:0.25;stroke-miterlimit:10;}
	.st15{fill:#333333;}
</style>
<g>
	<defs>
		<rect id="SVGID_1_" width="637.5" height="487.5"/>
	</defs>
	<clipPath id="SVGID_2_">
		<use xlink:href="#SVGID_1_"  style="overflow:visible;"/>
	</clipPath>
	<g class="st0">
		<defs>
			<rect id="SVGID_3_" width="637.5" height="483"/>
		</defs>
		<clipPath id="SVGID_4_">
			<use xlink:href="#SVGID_3_"  style="overflow:visible;"/>
		</clipPath>
		<line class="st1" x1="21" y1="5.2" x2="637.5" y2="5.2"/>
		<line class="st1" x1="21" y1="56.2" x2="637.5" y2="56.2"/>
		<line class="st1" x1="21" y1="107.2" x2="637.5" y2="107.2"/>
		<line class="st1" x1="21" y1="158.2" x2="637.5" y2="158.2"/>
		<line class="st1" x1="21" y1="208.5" x2="637.5" y2="208.5"/>
		<line class="st1" x1="21" y1="259.5" x2="637.5" y2="259.5"/>
		<line class="st1" x1="21" y1="310.5" x2="637.5" y2="310.5"/>
		<line class="st1" x1="21" y1="361.5" x2="637.5" y2="361.5"/>
		<line class="st1" x1="21" y1="412.5" x2="637.5" y2="412.5"/>
		<path class="st2" d="M62.1,463.5h6.8H62.1z"/>
		<g class="st3">
			<polygon class="st4" points="55.2,459.8 48.4,459.8 48.4,460.5 41.5,460.5 34.7,460.5 34.7,458.2 27.8,458.2 27.8,462.8 
				21,462.8 21,463.5 27.8,463.5 34.7,463.5 41.5,463.5 48.4,463.5 55.2,463.5 62.1,463.5 62.1,457.5 55.2,457.5 			"/>
			<polygon class="st4" points="628.9,144 628.9,132.6 622.1,132.6 622.1,5.1 615.2,5.1 615.2,233.2 608.6,233.2 608.6,99 601.7,99 
				601.7,210 595.1,210 595.1,81.8 588.2,81.8 588.2,270 581.6,270 581.6,218.9 574.7,218.9 574.7,222.6 567.9,222.6 567.9,219.6 
				561.2,219.6 561.2,197.2 554.4,197.2 554.4,364.5 547.7,364.5 547.7,309.8 540.9,309.8 540.9,354.8 534,354.8 534,313.5 
				527.3,313.5 527.3,297.8 520.5,297.8 520.5,306.8 513.6,306.8 513.6,0 506.8,0 506.8,381.8 499.9,381.8 499.9,369.8 493.1,369.8 
				493.1,390 486.2,390 486.2,279 479.4,279 479.4,346.5 472.5,346.5 472.5,364.5 465.7,364.5 465.7,330.8 458.8,330.8 458.8,390 
				452,390 452,340.5 445.1,340.5 445.1,432 438.3,432 438.3,435 431.4,435 431.4,222 424.6,222 424.6,409.5 417.7,409.5 
				417.7,378.8 410.9,378.8 410.9,375.8 404,375.8 404,406.5 397.2,406.5 397.2,424.5 390.3,424.5 390.3,403.5 383.5,403.5 
				383.5,400.5 376.6,400.5 376.6,434.2 369.8,434.2 369.8,387.8 362.9,387.8 362.9,381.8 356.1,381.8 356.1,404.2 349.2,404.2 
				349.2,394.5 342.4,394.5 342.4,369.8 335.5,369.8 335.5,363 328.7,363 328.7,248.2 321.8,248.2 321.8,252.8 315,252.8 315,330.8 
				308.1,330.8 308.1,167.2 301.3,167.2 301.3,270 294.4,270 294.4,459.8 287.6,459.8 287.6,380.2 280.7,380.2 280.7,387 273.9,387 
				273.9,441.8 267,441.8 267,360.8 260.2,360.8 260.2,440.2 253.3,440.2 253.3,264.8 246.5,264.8 246.5,410.2 239.6,410.2 
				239.6,437.2 232.9,437.2 232.9,406.5 226.1,406.5 226.1,393 219.2,393 219.2,381.8 212.4,381.8 212.4,392.2 205.5,392.2 
				205.5,387.8 198.8,387.8 198.8,351.8 191.9,351.8 191.9,458.2 185.1,458.2 185.1,407.2 178.2,407.2 178.2,403.5 171.4,403.5 
				171.4,402.8 164.5,402.8 164.5,406.5 157.8,406.5 157.8,403.5 151,403.5 151,423 144.1,423 144.1,440.2 137.3,440.2 137.3,426 
				130.6,426 130.6,421.5 123.8,421.5 123.8,386.2 116.9,386.2 116.9,432 110,432 110,426.8 103.2,426.8 103.2,420 96.3,420 
				96.3,441 89.5,441 89.5,424.5 82.7,424.5 82.7,434.2 75.8,434.2 75.8,452.2 69,452.2 69,463.5 75.8,463.5 82.7,463.5 89.5,463.5 
				96.3,463.5 103.2,463.5 110,463.5 116.9,463.5 123.8,463.5 130.4,463.5 130.6,463.5 137.3,463.5 144.1,463.5 151,463.5 
				157.8,463.5 164.5,463.5 164.7,463.5 171.4,463.5 178.2,463.5 185.1,463.5 191.9,463.5 198.7,463.5 198.8,463.5 205.5,463.5 
				212.4,463.5 219.2,463.5 226.1,463.5 232.8,463.5 232.9,463.5 239.6,463.5 246.5,463.5 253.3,463.5 260.2,463.5 267,463.5 
				273.9,463.5 280.7,463.5 280.7,463.5 287.6,463.5 294.4,463.5 301.3,463.5 308.1,463.5 315,463.5 315,463.5 321.8,463.5 
				328.7,463.5 335.5,463.5 342.4,463.5 349.2,463.5 349.2,463.5 356.1,463.5 362.9,463.5 369.8,463.5 376.6,463.5 383.5,463.5 
				383.5,463.5 390.3,463.5 397.2,463.5 404,463.5 410.9,463.5 417.7,463.5 417.7,463.5 424.6,463.5 431.4,463.5 438.3,463.5 
				445.1,463.5 452,463.5 452,463.5 458.8,463.5 465.7,463.5 472.5,463.5 479.4,463.5 486.2,463.5 486.2,463.5 493.1,463.5 
				499.9,463.5 506.8,463.5 513.6,463.5 520.5,463.5 527.2,463.5 527.3,463.5 534,463.5 540.9,463.5 547.5,463.5 547.7,463.5 
				554.4,463.5 561.2,463.5 561.2,463.4 567.9,463.4 574.7,463.4 581.4,463.4 581.4,463.5 588.2,463.5 594.9,463.5 595.1,463.5 
				601.7,463.5 608.6,463.5 615.4,463.5 615.4,463.4 622.1,463.4 628.7,463.4 628.7,463.5 635.6,463.5 635.6,144 			"/>
		</g>
		<line class="st5" x1="21" y1="463.5" x2="637.5" y2="463.5"/>
	</g>
	<g class="st0">
		<text transform="matrix(1 0 0 1 5.6426 415.5996)" class="st6 st7 st8">50</text>
	</g>
	<g class="st0">
		<text transform="matrix(1 0 0 1 0.5889 364.5996)" class="st6 st7 st8">100</text>
	</g>
	<g class="st0">
		<text transform="matrix(1 0 0 1 0.5889 313.5996)" class="st6 st7 st8">150</text>
	</g>
	<g class="st0">
		<text transform="matrix(1 0 0 1 0.5889 262.5996)" class="st6 st7 st8">200</text>
	</g>
	<g class="st0">
		<text transform="matrix(1 0 0 1 0.5889 211.5996)" class="st6 st7 st8">250</text>
	</g>
	<g class="st0">
		<text transform="matrix(1 0 0 1 0.5889 161.3496)" class="st6 st7 st8">300</text>
	</g>
	<g class="st0">
		<text transform="matrix(1 0 0 1 0.5889 110.3496)" class="st6 st7 st8">350</text>
	</g>
	<g class="st0">
		<text transform="matrix(1 0 0 1 0.5889 59.3496)" class="st6 st7 st8">400</text>
	</g>
	<g class="st0">
		<text transform="matrix(1 0 0 1 0.5889 8.3496)" class="st6 st7 st8">450</text>
	</g>
</g>
<polyline class="st9" points="59.4,460.8 66.2,460.8 73,458.8 79.9,455.8 86.7,450.7 93.5,447.7 100.3,442.6 107.1,437.6 
	113.9,433.5 120.8,424.4 127.6,422.4 134.4,422.4 141.2,422.4 148,422.4 154.9,419.3 161.7,416.3 168.5,418.3 175.3,415.3 
	182.1,413.3 188.9,415.3 195.8,405.2 202.6,403.1 209.4,401.1 216.2,398.1 223,397.1 229.8,397.1 236.7,394 243.5,402.1 
	250.3,384.9 257.1,391 263.9,388 270.8,395 277.6,393 284.4,384.9 291.2,391 298,392 304.8,353.5 311.7,349.5 318.5,322.2 
	325.3,302.9 332.1,299.9 338.9,287.8 345.7,305 352.6,338.4 359.4,346.5 366.2,365.7 373,392 379.8,397.1 386.6,402.1 393.5,406.2 
	400.3,406.2 407.1,405.2 413.9,404.2 420.7,401.1 427.6,375.8 434.4,379.9 441.2,380.9 448,371.8 454.8,373.8 461.6,366.7 
	468.5,360.6 475.3,377.8 482.1,355.6 488.9,349.5 495.7,354.6 502.5,352.5 509.4,306 516.2,297.9 523,290.8 529.8,295.9 
	536.6,290.8 543.4,281.7 550.3,279.7 557.1,308 563.9,295.9 570.7,284.7 577.5,271.6 584.4,259.4 591.2,227 598,204.8 604.8,190.6 
	611.6,192.6 618.4,162.3 625.3,150.1 632.1,131.9 "/>
<text transform="matrix(1 0 0 1 348.5883 278.1016)" class="st10 st11 st12">7-day average</text>
<g>
	<g>
		<path class="st13" d="M386.3,284.1c5.7,10.5,4.3,24.1-3.8,35.7c-5.9,8.3-13.5,13.3-18.6,15.9"/>
		<g>
			<polygon class="st14" points="364.6,332.3 364.7,335.4 367,337.3 359.9,337.7 			"/>
		</g>
	</g>
</g>
<g>
	<text transform="matrix(1 0 0 1 622.9724 477.7161)" class="st15 st7 st8">6/8</text>
</g>
<g>
	<text transform="matrix(1 0 0 1 15.1514 477.7162)" class="st15 st7 st8">3/11</text>
</g>
</svg>
