<?xml version="1.0" encoding="utf-8"?>
<!-- Generator: Adobe Illustrator 23.0.1, SVG Export Plug-In . SVG Version: 6.00 Build 0)  -->
<svg version="1.1" id="Layer_1" xmlns="http://www.w3.org/2000/svg" xmlns:xlink="http://www.w3.org/1999/xlink" x="0px" y="0px"
	 viewBox="0 0 637.5 487.5" style="enable-background:new 0 0 637.5 487.5;" xml:space="preserve">
<style type="text/css">
	.st0{clip-path:url(#SVGID_2_);}
	.st1{clip-path:url(#SVGID_4_);fill:none;stroke:#E8E8E8;stroke-width:0.75;stroke-miterlimit:10;}
	.st2{clip-path:url(#SVGID_4_);fill:#C71E1D;}
	.st3{clip-path:url(#SVGID_4_);}
	.st4{fill:#C71E1D;fill-opacity:0.6;stroke:#000000;stroke-width:0.5;stroke-miterlimit:10;}
	.st5{clip-path:url(#SVGID_4_);fill:none;stroke:#333333;stroke-width:0.75;stroke-miterlimit:10;}
	.st6{fill:#A6A6A6;}
	.st7{font-family:'Roboto-Regular';}
	.st8{font-size:9px;}
	.st9{fill:#FACE00;fill-opacity:0.85;stroke:#000000;stroke-width:0.5;stroke-miterlimit:10;}
	.st10{fill:#333333;}
</style>
<g>
	<defs>
		<rect id="SVGID_1_" width="637.5" height="487.5"/>
	</defs>
	<clipPath id="SVGID_2_">
		<use xlink:href="#SVGID_1_"  style="overflow:visible;"/>
	</clipPath>
	<g class="st0">
		<defs>
			<rect id="SVGID_3_" width="637.5" height="483"/>
		</defs>
		<clipPath id="SVGID_4_">
			<use xlink:href="#SVGID_3_"  style="overflow:visible;"/>
		</clipPath>
		<line class="st1" x1="21" y1="6" x2="637.5" y2="6"/>
		<line class="st1" x1="21" y1="82.5" x2="637.5" y2="82.5"/>
		<line class="st1" x1="21" y1="158.2" x2="637.5" y2="158.2"/>
		<line class="st1" x1="21" y1="234.8" x2="637.5" y2="234.8"/>
		<line class="st1" x1="21" y1="311.2" x2="637.5" y2="311.2"/>
		<line class="st1" x1="21" y1="387" x2="637.5" y2="387"/>
		<path class="st2" d="M74.6,463.5h8.9H74.6z"/>
		<g class="st3">
			<polygon class="st4" points="65.5,457.5 56.5,457.5 56.5,459 47.6,459 38.8,459 38.8,456 29.9,456 29.9,462 21,462 21,463.5 
				29.9,463.5 29.9,463.5 38.7,463.5 38.8,463.5 47.6,463.5 56.5,463.5 56.6,463.5 65.5,463.5 74.4,463.5 74.4,454.5 65.5,454.5 			
				"/>
			<polygon class="st4" points="626,354 626,187.5 617.1,187.5 617.1,288 608.2,288 608.2,315.8 599.4,315.8 599.4,265.5 
				590.4,265.5 590.4,353.9 581.7,353.9 581.7,278.9 572.7,278.9 572.7,416.2 563.9,416.2 563.9,420.8 555.1,420.8 555.1,102 
				546.2,102 546.2,382.5 537.4,382.5 537.4,336.8 528.5,336.8 528.5,332.2 519.5,332.2 519.5,378 510.8,378 510.8,405.8 
				501.8,405.8 501.8,373.5 493,373.5 493,369 484.1,369 484.1,419.2 475.3,419.2 475.3,351 466.4,351 466.4,341.2 457.4,341.2 
				457.4,375 448.6,375 448.6,360 439.8,360 439.8,323.2 430.9,323.2 430.9,312.7 422,312.7 422,141.8 413.1,141.8 413.1,147.8 
				404.2,147.8 404.2,265.5 395.3,265.5 395.3,19.5 386.4,19.5 386.4,174 377.5,174 377.5,457.5 368.7,457.5 368.7,338.2 
				359.7,338.2 359.7,348.8 350.8,348.8 350.8,431.2 341.9,431.2 341.9,309.8 333,309.8 333,428.2 324.1,428.2 324.1,165.8 
				315.2,165.8 315.2,384 306.2,384 306.2,423.8 297.3,423.8 297.3,378 288.4,378 288.4,358.5 279.5,358.5 279.5,341.2 270.6,341.2 
				270.6,357 261.7,357 261.7,351 252.9,351 252.9,295.5 244,295.5 244,456 235.1,456 235.1,379.5 226.1,379.5 226.1,373.5 
				217.3,373.5 217.3,372 208.3,372 208.3,378 199.4,378 199.4,373.5 190.5,373.5 190.5,402.8 181.6,402.8 181.6,428.2 172.7,428.2 
				172.7,407.2 163.8,407.2 163.8,401.2 154.8,401.2 154.8,347.2 145.9,347.2 145.9,416.2 137,416.2 137,408.8 128.1,408.8 
				128.1,398.2 119.2,398.2 119.2,429.8 110.3,429.8 110.3,405.8 101.4,405.8 101.4,419.2 92.4,419.2 92.4,447 83.5,447 83.5,463.5 
				92.4,463.5 92.5,463.5 101.4,463.5 110.3,463.5 110.3,463.5 119.2,463.5 128.1,463.5 128.1,463.5 137,463.5 145.9,463.5 
				145.9,463.5 154.8,463.5 163.7,463.5 163.8,463.5 172.7,463.5 181.6,463.5 181.6,463.5 190.5,463.5 199.4,463.5 199.4,463.5 
				208.3,463.5 217.2,463.5 217.2,463.5 226.1,463.5 235.1,463.5 235.1,463.5 244,463.5 252.7,463.5 252.9,463.5 261.7,463.5 
				270.6,463.5 270.6,463.5 279.5,463.5 288.4,463.5 288.4,463.5 297.3,463.5 306.2,463.5 306.2,463.5 315.2,463.5 324.1,463.5 
				324.1,463.5 333,463.5 341.9,463.5 350.8,463.5 350.9,463.5 359.7,463.5 368.6,463.5 368.7,463.5 377.5,463.5 386.4,463.5 
				386.4,463.5 395.3,463.5 404.2,463.5 404.3,463.5 413.1,463.5 422,463.5 422,463.5 430.9,463.5 439.7,463.5 439.7,463.5 
				448.6,463.5 457.4,463.5 457.6,463.5 466.4,463.5 475.2,463.5 475.3,463.5 484.1,463.5 492.9,463.5 493,463.5 501.8,463.5 
				510.8,463.5 519.5,463.5 519.7,463.5 528.5,463.5 537.3,463.5 537.4,463.5 546.2,463.5 555,463.5 555.1,463.5 563.9,463.5 
				572.9,463.5 572.9,463.4 581.7,463.4 590.4,463.4 590.4,463.5 599.4,463.5 608.2,463.5 608.3,463.5 617.1,463.5 626,463.5 
				626,463.5 634.9,463.5 634.9,354 			"/>
		</g>
		<line class="st5" x1="21" y1="463.5" x2="637.5" y2="463.5"/>
	</g>
	<g class="st0">
		<text transform="matrix(1 0 0 1 5.2559 389.3496)" class="st6 st7 st8">50</text>
	</g>
	<g class="st0">
		<text transform="matrix(1 0 0 1 2.929688e-03 313.5996)" class="st6 st7 st8">100</text>
	</g>
	<g class="st0">
		<text transform="matrix(1 0 0 1 2.929688e-03 237.0996)" class="st6 st7 st8">150</text>
	</g>
	<g class="st0">
		<text transform="matrix(1 0 0 1 2.929688e-03 160.5996)" class="st6 st7 st8">200</text>
	</g>
	<g class="st0">
		<text transform="matrix(1 0 0 1 2.929688e-03 84.8496)" class="st6 st7 st8">250</text>
	</g>
	<g class="st0">
		<text transform="matrix(1 0 0 1 2.929688e-03 8.3496)" class="st6 st7 st8">300</text>
	</g>
</g>
<polygon class="st9" points="626.1,290.9 626.1,299.9 617.3,299.9 617.3,333.7 608.4,333.7 608.4,308.2 599.5,308.2 599.5,317.2 
	590.6,317.2 590.6,327.7 581.8,327.7 581.8,324.7 572.9,324.7 572.9,338.2 564,338.2 564,336.7 555.2,336.7 555.2,330.7 
	546.3,330.7 546.3,369 537.3,369 537.3,373.4 528.5,373.4 528.5,374.9 519.6,374.9 519.6,376.4 510.8,376.4 501.8,376.4 
	501.8,370.4 493,370.4 493,362.9 484.1,362.9 484.1,355.4 475.3,355.4 475.3,315.7 466.4,315.7 466.4,286.4 457.5,286.4 
	457.5,274.4 448.6,274.4 448.6,224.2 439.7,224.2 439.7,197.9 430.8,197.9 430.8,216.7 421.9,216.7 421.9,221.2 413,221.2 
	413,249.7 404.1,249.7 404.1,290.9 395.3,290.9 395.3,296.9 386.4,296.9 386.4,355.4 377.5,355.4 377.5,353.9 368.6,353.9 
	368.6,344.2 359.7,344.2 359.7,356.9 350.8,356.9 350.8,359.9 341.9,359.9 341.9,348.7 333,348.7 333,353.9 324.1,353.9 
	324.1,344.2 315.2,344.2 315.2,370.4 306.3,370.4 306.3,358.4 297.4,358.4 297.4,362.9 288.6,362.9 288.5,362.9 279.7,362.9 
	279.7,364.4 270.8,364.4 270.8,368.9 261.9,368.9 261.9,371.9 253,371.9 253,374.9 244.1,374.9 244.1,389.9 235.2,389.9 
	235.2,386.9 226.3,386.9 226.3,389.9 217.4,389.9 217.4,394.4 208.5,394.4 208.5,391.4 199.6,391.4 199.6,396.7 190.7,396.7 
	190.7,401.2 181.9,401.2 181.8,401.2 173,401.2 164.1,401.2 164.1,401.2 155.2,401.2 155.2,404.2 146.3,404.2 146.3,417.7 
	137.4,417.7 137.4,423.7 128.5,423.7 128.5,431.2 119.6,431.2 119.6,438.7 110.7,438.7 110.7,443.9 101.8,443.9 101.8,451.4 
	92.9,451.4 92.9,455.9 84,455.9 84,458.9 75.2,458.9 75.1,458.9 66.3,458.9 66.3,463.4 75.1,463.4 75.2,463.4 84,463.4 92.9,463.4 
	92.9,463.4 101.8,463.4 110.7,463.4 110.7,463.4 119.6,463.4 128.5,463.4 128.5,463.4 137.4,463.4 146.3,463.4 146.3,463.4 
	155.2,463.4 164.1,463.4 164.1,463.4 173,463.4 181.8,463.4 181.9,463.4 190.7,463.4 199.6,463.4 199.6,463.4 208.5,463.4 
	217.4,463.4 217.4,463.4 226.3,463.4 235.2,463.4 235.2,463.4 244.1,463.4 253,463.4 253,463.4 261.9,463.4 270.8,463.4 
	270.8,463.4 279.7,463.4 288.5,463.4 288.6,463.4 297.4,463.4 306.3,463.4 306.3,463.4 315.2,463.4 324.1,463.4 324.1,463.4 
	333,463.4 341.9,463.4 350.8,463.4 350.8,463.4 359.7,463.4 368.6,463.4 368.6,463.4 377.5,463.4 386.4,463.4 386.4,463.4 
	395.3,463.4 404.1,463.4 404.2,463.4 413,463.4 421.9,463.4 421.9,463.4 430.8,463.4 439.7,463.4 439.7,463.4 448.6,463.4 
	457.5,463.4 457.5,463.4 466.4,463.4 475.2,463.4 475.3,463.4 484.1,463.4 492.9,463.4 493,463.4 501.8,463.4 510.8,463.4 
	519.6,463.4 519.7,463.4 528.5,463.4 537.3,463.4 537.3,463.5 546.3,463.5 555.2,463.5 555.2,463.4 564,463.4 572.9,463.4 
	572.9,463.4 581.8,463.4 590.6,463.4 590.7,463.4 599.5,463.4 608.4,463.4 608.4,463.4 617.3,463.4 626.1,463.4 626.2,463.4 
	635,463.4 635,290.9 "/>
<text transform="matrix(1 0 0 1 559.1191 36.303)" class="st10 st7 st8">New cases</text>
<rect x="543.7" y="28.2" class="st4" width="9.4" height="9.4"/>
<text transform="matrix(1 0 0 1 559.1191 52.8875)" class="st10 st7 st8">7-day average</text>
<rect x="543.7" y="44.8" class="st9" width="9.4" height="9.4"/>
<g>
	<text transform="matrix(1 0 0 1 618.1053 478.5021)" class="st10 st7 st8">5/18</text>
</g>
<g>
	<text transform="matrix(1 0 0 1 17.4904 478.5017)" class="st10 st7 st8">3/11</text>
</g>
</svg>
