<?xml version="1.0" encoding="utf-8"?>
<!-- Generator: Adobe Illustrator 23.0.1, SVG Export Plug-In . SVG Version: 6.00 Build 0)  -->
<svg version="1.1" id="Layer_1" xmlns="http://www.w3.org/2000/svg" xmlns:xlink="http://www.w3.org/1999/xlink" x="0px" y="0px"
	 viewBox="0 0 637.5 487.5" style="enable-background:new 0 0 637.5 487.5;" xml:space="preserve">
<style type="text/css">
	.st0{clip-path:url(#SVGID_2_);}
	.st1{clip-path:url(#SVGID_4_);fill:none;stroke:#E8E8E8;stroke-width:0.75;stroke-miterlimit:10;}
	.st2{clip-path:url(#SVGID_4_);fill:#C71E1D;}
	.st3{clip-path:url(#SVGID_4_);}
	.st4{fill:#C71E1D;fill-opacity:0.5;stroke:#000000;stroke-width:0.25;stroke-miterlimit:10;}
	.st5{clip-path:url(#SVGID_4_);fill:none;stroke:#333333;stroke-width:0.75;stroke-miterlimit:10;}
	.st6{fill:#A6A6A6;}
	.st7{font-family:'Roboto-Regular';}
	.st8{font-size:9px;}
	.st9{fill:none;stroke:#A0001C;stroke-width:2;stroke-linecap:round;stroke-linejoin:round;stroke-miterlimit:10;}
	.st10{fill:#9A1D2B;}
	.st11{font-family:'ArialMT';}
	.st12{font-size:11px;}
	.st13{fill:none;stroke:#D31D2B;stroke-width:0.75;stroke-miterlimit:10;}
	.st14{fill:#D31D2B;stroke:#D31D2B;stroke-width:0.25;stroke-miterlimit:10;}
	.st15{fill:#333333;}
</style>
<g>
	<defs>
		<rect id="SVGID_1_" width="637.5" height="487.5"/>
	</defs>
	<clipPath id="SVGID_2_">
		<use xlink:href="#SVGID_1_"  style="overflow:visible;"/>
	</clipPath>
	<g class="st0">
		<defs>
			<rect id="SVGID_3_" width="637.5" height="483"/>
		</defs>
		<clipPath id="SVGID_4_">
			<use xlink:href="#SVGID_3_"  style="overflow:visible;"/>
		</clipPath>
		<line class="st1" x1="21" y1="5.2" x2="637.5" y2="5.2"/>
		<line class="st1" x1="21" y1="56.2" x2="637.5" y2="56.2"/>
		<line class="st1" x1="21" y1="107.2" x2="637.5" y2="107.2"/>
		<line class="st1" x1="21" y1="158.2" x2="637.5" y2="158.2"/>
		<line class="st1" x1="21" y1="208.5" x2="637.5" y2="208.5"/>
		<line class="st1" x1="21" y1="259.5" x2="637.5" y2="259.5"/>
		<line class="st1" x1="21" y1="310.5" x2="637.5" y2="310.5"/>
		<line class="st1" x1="21" y1="361.5" x2="637.5" y2="361.5"/>
		<line class="st1" x1="21" y1="412.5" x2="637.5" y2="412.5"/>
		<path class="st2" d="M61.6,463.5h6.8H61.6z"/>
		<g class="st3">
			<polygon class="st4" points="54.9,459.8 48.1,459.8 48.1,460.5 41.3,460.5 34.5,460.5 34.5,458.2 27.8,458.2 27.8,462.8 
				21,462.8 21,463.5 27.8,463.5 34.5,463.5 41.3,463.5 48.1,463.5 54.9,463.5 61.6,463.5 61.6,457.5 54.9,457.5 			"/>
			<polygon class="st4" points="630.3,117 630.3,144 623.5,144 623.5,132.8 616.7,132.8 616.7,5.2 609.9,5.2 609.9,233.2 
				603.3,233.2 603.3,98.9 596.6,98.9 596.6,209.9 589.8,209.9 589.8,81.7 583,81.7 583,269.9 576.2,269.9 576.2,218.9 569.5,218.9 
				569.5,222.7 562.7,222.7 562.7,219.7 555.9,219.7 555.9,197.2 549.1,197.2 549.1,364.4 542.4,364.4 542.4,309.7 535.6,309.7 
				535.6,354.8 528.9,354.8 528.9,313.5 522.1,313.5 522.1,297.8 515.3,297.8 515.3,306.8 508.6,306.8 508.6,0 501.8,0 501.8,381.8 
				495,381.8 495,369.8 488.2,369.8 488.2,390 481.5,390 481.5,279 474.7,279 474.7,346.5 467.9,346.5 467.9,364.5 461.1,364.5 
				461.1,330.8 454.4,330.8 454.4,390 447.7,390 447.7,340.5 440.9,340.5 440.9,432 434.1,432 434.1,435 427.3,435 427.3,222 
				420.6,222 420.6,409.5 413.8,409.5 413.8,378.8 407,378.8 407,375.8 400.2,375.8 400.2,406.5 393.5,406.5 393.5,424.5 
				386.7,424.5 386.7,403.5 380,403.5 380,400.5 373.2,400.5 373.2,434.2 366.4,434.2 366.4,387.8 359.6,387.8 359.6,381.8 
				352.9,381.8 352.9,404.2 346.1,404.2 346.1,394.5 339.3,394.5 339.3,369.8 332.5,369.8 332.5,363 325.8,363 325.8,248.2 
				319,248.2 319,252.8 312.2,252.8 312.2,330.8 305.5,330.8 305.5,167.2 298.8,167.2 298.8,270 292,270 292,459.8 285.2,459.8 
				285.2,380.2 278.4,380.2 278.4,387 271.7,387 271.7,441.8 264.9,441.8 264.9,360.8 258.1,360.8 258.1,440.2 251.3,440.2 
				251.3,264.8 244.6,264.8 244.6,410.2 237.8,410.2 237.8,437.2 231,437.2 231,406.5 224.2,406.5 224.2,393 217.5,393 217.5,381.8 
				210.7,381.8 210.7,392.2 203.9,392.2 203.9,387.8 197.1,387.8 197.1,351.8 190.4,351.8 190.4,458.2 183.6,458.2 183.6,407.2 
				176.8,407.2 176.8,403.5 170,403.5 170,402.8 163.3,402.8 163.3,406.5 156.5,406.5 156.5,403.5 149.7,403.5 149.7,423 142.9,423 
				142.9,440.2 136.2,440.2 136.2,426 129.4,426 129.4,421.5 122.6,421.5 122.6,386.2 115.8,386.2 115.8,432 109.1,432 109.1,426.8 
				102.3,426.8 102.3,420 95.5,420 95.5,441 88.7,441 88.7,424.5 82,424.5 82,434.2 75.2,434.2 75.2,452.2 68.4,452.2 68.4,463.5 
				75.2,463.5 82,463.5 88.7,463.5 95.5,463.5 102.3,463.5 109.1,463.5 115.8,463.5 122.6,463.5 129.4,463.5 136.2,463.5 
				142.9,463.5 149.7,463.5 156.5,463.5 163.3,463.5 170,463.5 176.8,463.5 176.8,463.5 183.6,463.5 190.4,463.5 197.1,463.5 
				203.9,463.5 210.7,463.5 217.5,463.5 224.2,463.5 231,463.5 237.8,463.5 244.6,463.5 244.6,463.5 251.3,463.5 251.3,463.5 
				258.1,463.5 264.9,463.5 271.7,463.5 278.4,463.5 285.2,463.5 292,463.5 298.8,463.5 305.5,463.5 312.2,463.5 312.3,463.5 
				319,463.5 325.8,463.5 332.5,463.5 339.3,463.5 346.1,463.5 352.9,463.5 359.6,463.5 366.4,463.5 373.2,463.5 380,463.5 
				386.7,463.5 386.7,463.5 393.5,463.5 400.2,463.5 407,463.5 413.8,463.5 420.6,463.5 427.3,463.5 434.1,463.5 440.9,463.5 
				447.7,463.5 454.4,463.5 454.4,463.5 461.1,463.5 467.9,463.5 474.7,463.5 481.5,463.5 488.2,463.5 495,463.5 501.8,463.5 
				508.6,463.5 515.3,463.5 522.1,463.5 528.9,463.5 535.7,463.5 535.7,463.4 542.4,463.4 549.1,463.4 555.9,463.4 562.7,463.4 
				569.5,463.4 576.2,463.4 583,463.4 589.8,463.4 596.6,463.4 603.2,463.4 603.2,463.5 609.9,463.5 616.7,463.5 623.5,463.5 
				630.3,463.5 637,463.5 637,117 			"/>
		</g>
		<line class="st5" x1="21" y1="463.5" x2="637.5" y2="463.5"/>
	</g>
	<g class="st0">
		<text transform="matrix(1 0 0 1 5.6426 415.5996)" class="st6 st7 st8">50</text>
	</g>
	<g class="st0">
		<text transform="matrix(1 0 0 1 0.5889 364.5996)" class="st6 st7 st8">100</text>
	</g>
	<g class="st0">
		<text transform="matrix(1 0 0 1 0.5889 313.5996)" class="st6 st7 st8">150</text>
	</g>
	<g class="st0">
		<text transform="matrix(1 0 0 1 0.5889 262.5996)" class="st6 st7 st8">200</text>
	</g>
	<g class="st0">
		<text transform="matrix(1 0 0 1 0.5889 211.5996)" class="st6 st7 st8">250</text>
	</g>
	<g class="st0">
		<text transform="matrix(1 0 0 1 0.5889 161.3496)" class="st6 st7 st8">300</text>
	</g>
	<g class="st0">
		<text transform="matrix(1 0 0 1 0.5889 110.3496)" class="st6 st7 st8">350</text>
	</g>
	<g class="st0">
		<text transform="matrix(1 0 0 1 0.5889 59.3496)" class="st6 st7 st8">400</text>
	</g>
	<g class="st0">
		<text transform="matrix(1 0 0 1 0.5889 8.3496)" class="st6 st7 st8">450</text>
	</g>
</g>
<polyline class="st9" points="59,460.4 65.8,460.4 72.6,458.4 79.3,455.4 86.1,450.3 92.9,447.3 99.6,442.2 106.4,437.2 
	113.1,433.1 119.9,424 126.7,422 133.4,422 140.2,422 147,422 153.7,418.9 160.5,415.9 167.2,417.9 174,414.9 180.8,412.9 
	187.5,414.9 194.3,404.8 201.1,402.8 207.8,400.7 214.6,397.7 221.3,396.7 228.1,396.7 234.9,393.6 241.6,401.7 248.4,384.5 
	255.2,390.6 261.9,387.6 268.7,394.7 275.4,392.6 282.2,384.5 289,390.6 295.7,391.6 302.5,353.2 309.3,349.1 316,321.8 
	322.8,302.6 329.5,299.5 336.3,287.4 343.1,304.6 349.8,338 356.6,346.1 363.4,365.3 370.1,391.6 376.9,396.7 383.6,401.7 
	390.4,405.8 397.2,405.8 403.9,404.8 410.7,403.8 417.5,400.7 424.2,375.4 431,379.5 437.7,380.5 444.5,371.4 451.3,373.4 
	458,366.3 464.8,360.2 471.6,377.4 478.3,355.2 485.1,349.1 491.8,354.2 498.6,352.1 505.4,305.6 512.1,297.5 518.9,290.4 
	525.7,295.5 532.4,290.4 539.2,281.3 545.9,279.3 552.7,307.6 559.5,295.5 566.2,284.3 573,271.2 579.8,259 586.5,226.6 
	593.3,204.4 600,190.2 606.8,192.2 613.6,161.9 620.3,149.7 627.1,131.5 633.9,136.6 "/>
<text transform="matrix(1 0 0 1 343.6599 278.7393)" class="st10 st11 st12">7-day average</text>
<g>
	<g>
		<path class="st13" d="M381.4,284.7c5.7,10.5,4.3,24.1-3.8,35.7c-5.9,8.3-13.5,13.3-18.6,15.9"/>
		<g>
			<polygon class="st14" points="359.7,333 359.8,336 362,338 355,338.4 			"/>
		</g>
	</g>
</g>
<g>
	<text transform="matrix(1 0 0 1 623.6282 476.865)" class="st15 st7 st8">6/9</text>
</g>
<g>
	<text transform="matrix(1 0 0 1 15.6834 476.8647)" class="st15 st7 st8">3/11</text>
</g>
</svg>
