<?xml version="1.0" encoding="utf-8"?>
<!-- Generator: Adobe Illustrator 23.0.1, SVG Export Plug-In . SVG Version: 6.00 Build 0)  -->
<svg version="1.1" id="Layer_1" xmlns="http://www.w3.org/2000/svg" xmlns:xlink="http://www.w3.org/1999/xlink" x="0px" y="0px"
	 viewBox="0 0 637.5 487.5" style="enable-background:new 0 0 637.5 487.5;" xml:space="preserve">
<style type="text/css">
	.st0{clip-path:url(#SVGID_2_);}
	.st1{clip-path:url(#SVGID_4_);fill:none;stroke:#E8E8E8;stroke-width:0.75;stroke-miterlimit:10;}
	.st2{clip-path:url(#SVGID_4_);fill:#C71E1D;}
	.st3{clip-path:url(#SVGID_4_);}
	.st4{fill:#C71E1D;fill-opacity:0.6;stroke:#000000;stroke-width:0.5;stroke-miterlimit:10;}
	.st5{clip-path:url(#SVGID_4_);fill:none;stroke:#333333;stroke-width:0.75;stroke-miterlimit:10;}
	.st6{fill:#A6A6A6;}
	.st7{font-family:'Roboto-Regular';}
	.st8{font-size:9px;}
	.st9{opacity:0.85;fill:#FACE00;stroke:#000000;stroke-width:0.5;stroke-miterlimit:10;}
	.st10{fill:#333333;}
	.st11{fill:#FACE00;fill-opacity:0.85;stroke:#000000;stroke-width:0.5;stroke-miterlimit:10;}
</style>
<g>
	<defs>
		<rect id="SVGID_1_" width="637.5" height="487.5"/>
	</defs>
	<clipPath id="SVGID_2_">
		<use xlink:href="#SVGID_1_"  style="overflow:visible;"/>
	</clipPath>
	<g class="st0">
		<defs>
			<rect id="SVGID_3_" width="637.5" height="483"/>
		</defs>
		<clipPath id="SVGID_4_">
			<use xlink:href="#SVGID_3_"  style="overflow:visible;"/>
		</clipPath>
		<line class="st1" x1="21" y1="5.2" x2="637.5" y2="5.2"/>
		<line class="st1" x1="21" y1="56.2" x2="637.5" y2="56.2"/>
		<line class="st1" x1="21" y1="107.2" x2="637.5" y2="107.2"/>
		<line class="st1" x1="21" y1="158.2" x2="637.5" y2="158.2"/>
		<line class="st1" x1="21" y1="208.5" x2="637.5" y2="208.5"/>
		<line class="st1" x1="21" y1="259.5" x2="637.5" y2="259.5"/>
		<line class="st1" x1="21" y1="310.5" x2="637.5" y2="310.5"/>
		<line class="st1" x1="21" y1="361.5" x2="637.5" y2="361.5"/>
		<line class="st1" x1="21" y1="412.5" x2="637.5" y2="412.5"/>
		<path class="st2" d="M68.4,463.5h7.9H68.4z"/>
		<g class="st3">
			<polygon class="st4" points="60.5,459.8 52.6,459.8 52.6,460.5 44.7,460.5 36.8,460.5 36.8,458.2 28.9,458.2 28.9,462.8 
				21,462.8 21,463.5 28.9,463.5 36.8,463.5 36.8,463.5 44.7,463.5 52.6,463.5 52.6,463.5 60.5,463.5 60.5,463.5 68.4,463.5 
				68.4,457.5 60.5,457.5 			"/>
			<polygon class="st4" points="629.6,364.5 629.6,309.8 621.7,309.8 621.7,354.8 613.8,354.8 613.8,313.5 605.9,313.5 605.9,297.8 
				598,297.8 598,306.8 590.1,306.8 590.1,0 582.2,0 582.2,381.8 574.3,381.8 574.3,369.8 566.4,369.8 566.4,390 558.5,390 
				558.5,279 550.6,279 550.6,346.5 542.7,346.5 542.7,364.5 534.8,364.5 534.8,330.8 526.8,330.8 526.8,390 518.9,390 518.9,340.5 
				511,340.5 511,432 503.1,432 503.1,435 495.2,435 495.2,222 487.3,222 487.3,409.5 479.4,409.5 479.4,378.8 471.5,378.8 
				471.5,375.8 463.6,375.8 463.6,406.5 455.7,406.5 455.7,424.5 447.8,424.5 447.8,403.5 439.9,403.5 439.9,400.5 432,400.5 
				432,434.2 424.1,434.2 424.1,387.8 416.2,387.8 416.2,381.8 408.3,381.8 408.3,404.2 400.4,404.2 400.4,394.5 392.5,394.5 
				392.5,369.8 384.6,369.8 384.6,363 376.7,363 376.7,248.2 368.8,248.2 368.8,252.8 360.9,252.8 360.9,330.8 353,330.8 353,167.2 
				345.1,167.2 345.1,270 337.2,270 337.2,459.8 329.3,459.8 329.3,380.2 321.3,380.2 321.3,387 313.4,387 313.4,441.8 305.5,441.8 
				305.5,360.8 297.6,360.8 297.6,440.2 289.7,440.2 289.7,264.8 281.8,264.8 281.8,410.2 273.9,410.2 273.9,437.2 266,437.2 
				266,406.5 258.1,406.5 258.1,393 250.2,393 250.2,381.8 242.3,381.8 242.3,392.2 234.4,392.2 234.4,387.8 226.5,387.8 
				226.5,351.8 218.6,351.8 218.6,458.2 210.7,458.2 210.7,407.2 202.8,407.2 202.8,403.5 194.9,403.5 194.9,402.8 187,402.8 
				187,406.5 179.1,406.5 179.1,403.5 171.2,403.5 171.2,423 163.3,423 163.3,440.2 155.4,440.2 155.4,426 147.5,426 147.5,421.5 
				139.6,421.5 139.6,386.2 131.7,386.2 131.7,432 123.8,432 123.8,426.8 115.8,426.8 115.8,420 107.9,420 107.9,441 100,441 
				100,424.5 92.1,424.5 92.1,434.2 84.2,434.2 84.2,452.2 76.3,452.2 76.3,463.5 84.2,463.5 92.1,463.5 100,463.5 100,463.5 
				107.9,463.5 115.8,463.5 115.8,463.5 123.8,463.5 123.8,463.5 131.7,463.5 139.6,463.5 139.6,463.5 147.5,463.5 155.4,463.5 
				163.3,463.5 163.3,463.5 171.2,463.5 179.1,463.5 179.1,463.5 187,463.5 194.9,463.5 202.8,463.5 202.8,463.5 210.7,463.5 
				218.6,463.5 226.5,463.5 226.5,463.5 234.4,463.5 242.3,463.5 242.3,463.5 250.2,463.5 258.1,463.5 266,463.5 266,463.5 
				273.9,463.5 281.8,463.5 289.7,463.5 289.7,463.5 297.6,463.5 305.5,463.5 305.5,463.5 313.4,463.5 321.3,463.5 329.2,463.5 
				329.3,463.5 337.2,463.5 345.1,463.5 345.1,463.5 353,463.5 360.9,463.5 368.8,463.5 368.8,463.5 376.7,463.5 384.6,463.5 
				392.5,463.5 392.5,463.5 400.4,463.5 408.3,463.5 408.3,463.5 416.2,463.5 424.1,463.5 432,463.5 432,463.5 439.9,463.5 
				447.8,463.5 447.8,463.5 455.7,463.5 463.6,463.5 471.5,463.5 471.5,463.5 479.4,463.5 487.3,463.5 495.2,463.5 495.2,463.5 
				503.1,463.5 511,463.5 511,463.5 518.9,463.5 526.8,463.5 526.8,463.5 534.8,463.5 542.7,463.5 550.6,463.5 550.6,463.5 
				558.5,463.5 566.4,463.5 566.4,463.5 574.3,463.5 582.2,463.5 590.1,463.5 590.1,463.5 598,463.5 605.9,463.5 613.8,463.5 
				613.8,463.5 621.7,463.5 629.6,463.5 629.6,463.5 637.5,463.5 637.5,364.5 			"/>
		</g>
		<line class="st5" x1="21" y1="463.5" x2="637.5" y2="463.5"/>
	</g>
	<g class="st0">
		<text transform="matrix(1 0 0 1 5.2559 414.8496)" class="st6 st7 st8">50</text>
	</g>
	<g class="st0">
		<text transform="matrix(1 0 0 1 2.929688e-03 363.8496)" class="st6 st7 st8">100</text>
	</g>
	<g class="st0">
		<text transform="matrix(1 0 0 1 2.929688e-03 312.8496)" class="st6 st7 st8">150</text>
	</g>
	<g class="st0">
		<text transform="matrix(1 0 0 1 2.929688e-03 261.8496)" class="st6 st7 st8">200</text>
	</g>
	<g class="st0">
		<text transform="matrix(1 0 0 1 2.929688e-03 210.8496)" class="st6 st7 st8">250</text>
	</g>
	<g class="st0">
		<text transform="matrix(1 0 0 1 2.929688e-03 160.5996)" class="st6 st7 st8">300</text>
	</g>
	<g class="st0">
		<text transform="matrix(1 0 0 1 2.929688e-03 109.5996)" class="st6 st7 st8">350</text>
	</g>
	<g class="st0">
		<text transform="matrix(1 0 0 1 2.929688e-03 58.5996)" class="st6 st7 st8">400</text>
	</g>
	<g class="st0">
		<text transform="matrix(1 0 0 1 2.929688e-03 7.5996)" class="st6 st7 st8">450</text>
	</g>
</g>
<polygon class="st9" points="629.6,278.3 629.6,280.5 621.7,280.5 621.7,289.5 613.8,289.5 613.8,294.8 605.9,294.8 605.9,289.5 
	598,289.5 598,296.3 590.1,296.3 590.1,304.5 582.2,304.5 582.2,351.8 574.3,351.8 574.3,353.3 566.4,353.3 566.4,348.8 
	558.5,348.8 558.5,354.8 550.6,354.8 550.6,377.3 542.7,377.3 542.7,359.3 534.8,359.3 534.8,366 526.8,366 526.8,372.8 
	518.9,372.8 518.9,370.5 511,370.5 511,380.3 503.1,380.3 503.1,378.8 495.2,378.8 495.2,375 487.3,375 487.3,400.5 479.4,400.5 
	479.4,403.5 471.5,403.5 471.5,404.3 463.6,404.3 463.6,405.8 455.7,405.8 447.8,405.8 447.8,401.3 439.9,401.3 439.9,396 432,396 
	432,391.5 424.1,391.5 424.1,364.5 416.2,364.5 416.2,345 408.3,345 408.3,337.5 400.4,337.5 400.4,303.8 392.5,303.8 392.5,286.5 
	384.6,286.5 384.6,298.5 376.7,298.5 376.7,301.5 368.8,301.5 368.8,321 360.9,321 360.9,348.8 353,348.8 353,352.5 345.1,352.5 
	345.1,391.5 337.2,391.5 337.2,390 329.3,390 329.3,384 321.3,384 321.3,392.3 313.4,392.3 313.4,394.5 305.5,394.5 305.5,387 
	297.6,387 297.6,390 289.7,390 289.7,384 281.8,384 281.8,401.3 273.9,401.3 273.9,393 266,393 266,396 258.1,396 250.2,396 
	250.2,397.5 242.3,397.5 242.3,400.5 234.4,400.5 234.4,402.8 226.5,402.8 226.5,404.3 218.6,404.3 218.6,414.8 210.7,414.8 
	210.7,412.5 202.8,412.5 202.8,414.8 194.9,414.8 194.9,417.8 187,417.8 187,415.5 179.1,415.5 179.1,418.5 171.2,418.5 
	171.2,421.5 163.3,421.5 163.3,421.5 155.4,421.5 147.5,421.5 139.6,421.5 139.6,423.8 131.7,423.8 131.7,432.8 123.8,432.8 
	123.8,437.3 115.8,437.3 115.8,441.8 107.9,441.8 107.9,447 100,447 100,450 92.1,450 92.1,455.3 84.2,455.3 84.2,458.3 76.3,458.3 
	76.3,460.5 68.4,460.5 60.5,460.5 60.5,463.5 68.4,463.5 76.3,463.5 76.3,463.5 84.2,463.5 92.1,463.5 100,463.5 100,463.5 
	107.9,463.5 115.8,463.5 115.8,463.5 123.8,463.5 123.8,463.5 131.7,463.5 139.6,463.5 139.6,463.5 147.5,463.5 155.4,463.5 
	163.3,463.5 163.3,463.5 171.2,463.5 179.1,463.5 179.1,463.5 187,463.5 194.9,463.5 202.8,463.5 202.8,463.5 210.7,463.5 
	218.6,463.5 226.5,463.5 226.5,463.5 234.4,463.5 242.3,463.5 242.3,463.5 250.2,463.5 258.1,463.5 266,463.5 266,463.5 
	273.9,463.5 281.8,463.5 289.7,463.5 289.7,463.5 297.6,463.5 305.5,463.5 305.5,463.5 313.4,463.5 321.3,463.5 329.2,463.5 
	329.3,463.5 337.2,463.5 345.1,463.5 345.1,463.5 353,463.5 360.9,463.5 368.8,463.5 368.8,463.5 376.7,463.5 384.6,463.5 
	392.5,463.5 392.5,463.5 400.4,463.5 408.3,463.5 408.3,463.5 416.2,463.5 424.1,463.5 432,463.5 432,463.5 439.9,463.5 
	447.8,463.5 447.8,463.5 455.7,463.5 463.6,463.5 471.5,463.5 471.5,463.5 479.4,463.5 487.3,463.5 495.2,463.5 495.2,463.5 
	503.1,463.5 511,463.5 511,463.5 518.9,463.5 526.8,463.5 526.8,463.5 534.8,463.5 542.7,463.5 550.6,463.5 550.6,463.5 
	558.5,463.5 566.4,463.5 566.4,463.5 574.3,463.5 582.2,463.5 590.1,463.5 590.1,463.5 598,463.5 605.9,463.5 613.8,463.5 
	613.8,463.5 621.7,463.5 629.6,463.5 629.6,463.5 637.5,463.5 637.5,278.3 "/>
<text transform="matrix(1 0 0 1 517.623 24.2136)" class="st10 st7 st8">New cases</text>
<rect x="502.2" y="16.1" class="st4" width="9.4" height="9.4"/>
<text transform="matrix(1 0 0 1 517.623 40.7981)" class="st10 st7 st8">7-day average</text>
<rect x="502.2" y="32.7" class="st11" width="9.4" height="9.4"/>
<g>
	<text transform="matrix(1 0 0 1 618.3661 477.6204)" class="st10 st7 st8">5/27</text>
</g>
<g>
	<text transform="matrix(1 0 0 1 15.1429 477.6207)" class="st10 st7 st8">3/11</text>
</g>
</svg>
