<?xml version="1.0" encoding="utf-8"?>
<!-- Generator: Adobe Illustrator 23.0.1, SVG Export Plug-In . SVG Version: 6.00 Build 0)  -->
<svg version="1.1" id="Layer_1" xmlns="http://www.w3.org/2000/svg" xmlns:xlink="http://www.w3.org/1999/xlink" x="0px" y="0px"
	 viewBox="0 0 637.5 487.5" style="enable-background:new 0 0 637.5 487.5;" xml:space="preserve">
<style type="text/css">
	.st0{clip-path:url(#SVGID_2_);}
	.st1{clip-path:url(#SVGID_4_);fill:none;stroke:#E8E8E8;stroke-width:0.75;stroke-miterlimit:10;}
	.st2{clip-path:url(#SVGID_4_);fill:#C71E1D;}
	.st3{clip-path:url(#SVGID_4_);}
	.st4{fill:#C71E1D;fill-opacity:0.6;stroke:#000000;stroke-width:0.25;stroke-miterlimit:10;}
	.st5{clip-path:url(#SVGID_4_);fill:none;stroke:#333333;stroke-width:0.75;stroke-miterlimit:10;}
	.st6{fill:#A6A6A6;}
	.st7{font-family:'Roboto-Regular';}
	.st8{font-size:9px;}
	.st9{fill:none;stroke:#A0001C;stroke-width:2;stroke-linecap:round;stroke-linejoin:round;stroke-miterlimit:10;}
	.st10{fill:#9A1D2B;}
	.st11{font-family:'ArialMT';}
	.st12{font-size:11px;}
	.st13{fill:none;stroke:#D31D2B;stroke-width:0.75;stroke-miterlimit:10;}
	.st14{fill:#D31D2B;stroke:#D31D2B;stroke-width:0.25;stroke-miterlimit:10;}
	.st15{fill:#333333;}
</style>
<g>
	<defs>
		<rect id="SVGID_1_" width="637.5" height="487.5"/>
	</defs>
	<clipPath id="SVGID_2_">
		<use xlink:href="#SVGID_1_"  style="overflow:visible;"/>
	</clipPath>
	<g class="st0">
		<defs>
			<rect id="SVGID_3_" width="637.5" height="483"/>
		</defs>
		<clipPath id="SVGID_4_">
			<use xlink:href="#SVGID_3_"  style="overflow:visible;"/>
		</clipPath>
		<line class="st1" x1="21" y1="5.2" x2="637.5" y2="5.2"/>
		<line class="st1" x1="21" y1="56.2" x2="637.5" y2="56.2"/>
		<line class="st1" x1="21" y1="107.2" x2="637.5" y2="107.2"/>
		<line class="st1" x1="21" y1="158.2" x2="637.5" y2="158.2"/>
		<line class="st1" x1="21" y1="208.5" x2="637.5" y2="208.5"/>
		<line class="st1" x1="21" y1="259.5" x2="637.5" y2="259.5"/>
		<line class="st1" x1="21" y1="310.5" x2="637.5" y2="310.5"/>
		<line class="st1" x1="21" y1="361.5" x2="637.5" y2="361.5"/>
		<line class="st1" x1="21" y1="412.5" x2="637.5" y2="412.5"/>
		<path class="st2" d="M64,463.5h7.2H64z"/>
		<g class="st3">
			<polygon class="st4" points="56.8,459.8 49.7,459.8 49.7,460.5 42.5,460.5 35.3,460.5 35.3,458.2 28.2,458.2 28.2,462.8 
				21,462.8 21,463.5 28.2,463.5 35.3,463.5 42.5,463.5 49.7,463.5 56.8,463.5 64,463.5 64,457.5 56.8,457.5 			"/>
			<polygon class="st4" points="629.2,98.8 629.2,209.8 622.2,209.8 622.2,81.6 615,81.6 615,270 608,270 608,219 600.8,219 
				600.8,222.8 593.9,222.8 593.9,219.8 586.7,219.8 586.7,197.2 579.6,197.2 579.6,364.5 572.5,364.5 572.5,309.8 565.4,309.8 
				565.4,354.8 558.4,354.8 558.4,313.5 551.2,313.5 551.2,297.8 544,297.8 544,306.7 537,306.7 537,-0.1 529.9,-0.1 529.9,381.8 
				522.8,381.8 522.8,369.8 515.6,369.8 515.6,390 508.5,390 508.5,279 501.3,279 501.3,346.5 494.1,346.5 494.1,364.5 487,364.5 
				487,330.8 479.8,330.8 479.8,390 472.6,390 472.6,340.5 465.5,340.5 465.5,432 458.3,432 458.3,435 451.1,435 451.1,222 
				443.9,222 443.9,409.5 436.8,409.5 436.8,378.8 429.6,378.8 429.6,375.8 422.4,375.8 422.4,406.5 415.3,406.5 415.3,424.5 
				408.1,424.5 408.1,403.5 400.9,403.5 400.9,400.5 393.8,400.5 393.8,434.2 386.6,434.2 386.6,387.8 379.4,387.8 379.4,381.8 
				372.3,381.8 372.3,404.2 365.1,404.2 365.1,394.5 357.9,394.5 357.9,369.8 350.8,369.8 350.8,363 343.6,363 343.6,248.2 
				336.4,248.2 336.4,252.8 329.2,252.8 329.2,330.8 322.1,330.8 322.1,167.2 314.9,167.2 314.9,270 307.7,270 307.7,459.8 
				300.6,459.8 300.6,380.2 293.4,380.2 293.4,387 286.2,387 286.2,441.8 279.1,441.8 279.1,360.8 271.9,360.8 271.9,440.2 
				264.7,440.2 264.7,264.8 257.6,264.8 257.6,410.2 250.4,410.2 250.4,437.2 243.2,437.2 243.2,406.5 236.1,406.5 236.1,393 
				228.9,393 228.9,381.8 221.7,381.8 221.7,392.2 214.6,392.2 214.6,387.8 207.4,387.8 207.4,351.8 200.2,351.8 200.2,458.2 
				193,458.2 193,407.2 185.9,407.2 185.9,403.5 178.7,403.5 178.7,402.8 171.5,402.8 171.5,406.5 164.4,406.5 164.4,403.5 
				157.2,403.5 157.2,423 150,423 150,440.2 142.9,440.2 142.9,426 135.7,426 135.7,421.5 128.5,421.5 128.5,386.2 121.4,386.2 
				121.4,432 114.2,432 114.2,426.8 107,426.8 107,420 99.9,420 99.9,441 92.7,441 92.7,424.5 85.5,424.5 85.5,434.2 78.3,434.2 
				78.3,452.2 71.2,452.2 71.2,463.5 78.3,463.5 85.5,463.5 92.7,463.5 99.9,463.5 107,463.5 114.2,463.5 121.4,463.5 128.5,463.5 
				135.7,463.5 142.9,463.5 150,463.5 157.2,463.5 164.4,463.5 164.4,463.5 171.5,463.5 178.7,463.5 185.9,463.5 193,463.5 
				200.2,463.5 207.4,463.5 214.6,463.5 214.6,463.5 221.7,463.5 228.9,463.5 236.1,463.5 243.2,463.5 250.4,463.5 257.6,463.5 
				264.7,463.5 264.7,463.5 271.9,463.5 279.1,463.5 286.2,463.5 293.4,463.5 300.6,463.5 307.7,463.5 314.9,463.5 322.1,463.5 
				329.2,463.5 336.4,463.5 343.6,463.5 350.8,463.5 357.9,463.5 365.1,463.5 372.3,463.5 379.4,463.5 386.6,463.5 393.8,463.5 
				400.9,463.5 400.9,463.5 408.1,463.5 415.3,463.5 422.4,463.5 429.6,463.5 436.8,463.5 443.9,463.5 451.1,463.5 458.3,463.5 
				465.5,463.5 472.6,463.5 479.8,463.5 487,463.5 487,463.5 494.1,463.5 501.3,463.5 508.5,463.5 515.6,463.5 522.8,463.5 
				530,463.5 530,463.4 537,463.4 544,463.4 544,463.5 551.2,463.5 558.4,463.5 565.4,463.5 565.5,463.5 572.5,463.5 579.6,463.5 
				579.7,463.5 586.7,463.5 593.9,463.5 600.8,463.5 601.1,463.5 608,463.5 615.2,463.5 615.2,463.3 622.2,463.3 629.2,463.3 
				629.3,463.3 636.3,463.3 636.3,98.8 			"/>
		</g>
		<line class="st5" x1="21" y1="463.5" x2="637.5" y2="463.5"/>
	</g>
	<g class="st0">
		<text transform="matrix(1 0 0 1 5.6426 415.5996)" class="st6 st7 st8">50</text>
	</g>
	<g class="st0">
		<text transform="matrix(1 0 0 1 0.5889 364.5996)" class="st6 st7 st8">100</text>
	</g>
	<g class="st0">
		<text transform="matrix(1 0 0 1 0.5889 313.5996)" class="st6 st7 st8">150</text>
	</g>
	<g class="st0">
		<text transform="matrix(1 0 0 1 0.5889 262.5996)" class="st6 st7 st8">200</text>
	</g>
	<g class="st0">
		<text transform="matrix(1 0 0 1 0.5889 211.5996)" class="st6 st7 st8">250</text>
	</g>
	<g class="st0">
		<text transform="matrix(1 0 0 1 0.5889 161.3496)" class="st6 st7 st8">300</text>
	</g>
	<g class="st0">
		<text transform="matrix(1 0 0 1 0.5889 110.3496)" class="st6 st7 st8">350</text>
	</g>
	<g class="st0">
		<text transform="matrix(1 0 0 1 0.5889 59.3496)" class="st6 st7 st8">400</text>
	</g>
	<g class="st0">
		<text transform="matrix(1 0 0 1 0.5889 8.3496)" class="st6 st7 st8">450</text>
	</g>
</g>
<polyline class="st9" points="60.7,461 67.9,461 75,459 82.2,456 89.3,450.9 96.5,447.9 103.6,442.8 110.8,437.7 117.9,433.7 
	125.1,424.6 132.2,422.6 139.4,422.6 146.5,422.6 153.7,422.6 160.9,419.5 168,416.5 175.2,418.5 182.3,415.5 189.5,413.4 
	196.6,415.5 203.8,405.4 210.9,403.3 218.1,401.3 225.2,398.3 232.4,397.3 239.5,397.3 246.7,394.2 253.8,402.3 261,385.1 
	268.1,391.2 275.3,388.1 282.4,395.2 289.6,393.2 296.7,385.1 303.9,391.2 311,392.2 318.2,353.7 325.3,349.7 332.5,322.4 
	339.6,303.1 346.8,300.1 353.9,287.9 361.1,305.2 368.2,338.6 375.4,346.7 382.5,365.9 389.7,392.2 396.9,397.3 404,402.3 
	411.2,406.4 418.3,406.4 425.5,405.4 432.6,404.3 439.8,401.3 446.9,376 454.1,380 461.2,381.1 468.4,372 475.5,374 482.7,366.9 
	489.8,360.8 497,378 504.1,355.8 511.3,349.7 518.4,354.7 525.6,352.7 532.7,306.2 539.9,298.1 547,291 554.2,296 561.3,291 
	568.5,281.9 575.6,279.9 582.8,308.2 589.9,296 597.1,284.9 604.2,271.8 611.4,259.6 618.5,227.2 625.7,205 632.9,190.8 "/>
<text transform="matrix(1 0 0 1 363.5967 277.1933)" class="st10 st11 st12">7-day average</text>
<g>
	<g>
		<path class="st13" d="M401.3,283.2c5.7,10.5,4.3,24.1-3.8,35.7c-5.9,8.3-13.5,13.3-18.6,15.9"/>
		<g>
			<polygon class="st14" points="379.6,331.4 379.8,334.5 382,336.4 374.9,336.8 			"/>
		</g>
	</g>
</g>
<g>
	<text transform="matrix(1 0 0 1 623.1044 476.9526)" class="st15 st7 st8">6/4</text>
</g>
<g>
	<text transform="matrix(1 0 0 1 15.871 476.9529)" class="st15 st7 st8">3/11</text>
</g>
</svg>
