<?xml version="1.0" encoding="utf-8"?>
<!-- Generator: Adobe Illustrator 23.0.1, SVG Export Plug-In . SVG Version: 6.00 Build 0)  -->
<svg version="1.1" id="Layer_1" xmlns="http://www.w3.org/2000/svg" xmlns:xlink="http://www.w3.org/1999/xlink" x="0px" y="0px"
	 viewBox="0 0 637.5 487.5" style="enable-background:new 0 0 637.5 487.5;" xml:space="preserve">
<style type="text/css">
	.st0{clip-path:url(#SVGID_2_);}
	.st1{clip-path:url(#SVGID_4_);fill:none;stroke:#E8E8E8;stroke-width:0.75;stroke-miterlimit:10;}
	.st2{clip-path:url(#SVGID_4_);fill:#C71E1D;}
	.st3{clip-path:url(#SVGID_4_);}
	.st4{fill:#C71E1D;fill-opacity:0.5;stroke:#000000;stroke-width:0.25;stroke-miterlimit:10;}
	.st5{clip-path:url(#SVGID_4_);fill:none;stroke:#333333;stroke-width:0.75;stroke-miterlimit:10;}
	.st6{fill:#A6A6A6;}
	.st7{font-family:'Roboto-Regular';}
	.st8{font-size:9px;}
	.st9{fill:#333333;}
	.st10{fill:none;stroke:#A0001C;stroke-width:2;stroke-linecap:round;stroke-linejoin:round;stroke-miterlimit:10;}
	.st11{fill:#9A1D2B;}
	.st12{font-family:'ArialMT';}
	.st13{font-size:11px;}
	.st14{fill:none;stroke:#D31D2B;stroke-width:0.75;stroke-miterlimit:10;}
	.st15{fill:#D31D2B;stroke:#D31D2B;stroke-width:0.25;stroke-miterlimit:10;}
</style>
<g>
	<defs>
		<rect id="SVGID_1_" width="637.5" height="487.5"/>
	</defs>
	<clipPath id="SVGID_2_">
		<use xlink:href="#SVGID_1_"  style="overflow:visible;"/>
	</clipPath>
	<g class="st0">
		<defs>
			<rect id="SVGID_3_" width="637.5" height="483"/>
		</defs>
		<clipPath id="SVGID_4_">
			<use xlink:href="#SVGID_3_"  style="overflow:visible;"/>
		</clipPath>
		<line class="st1" x1="21" y1="5.2" x2="637.5" y2="5.2"/>
		<line class="st1" x1="21" y1="56.2" x2="637.5" y2="56.2"/>
		<line class="st1" x1="21" y1="107.2" x2="637.5" y2="107.2"/>
		<line class="st1" x1="21" y1="158.2" x2="637.5" y2="158.2"/>
		<line class="st1" x1="21" y1="208.5" x2="637.5" y2="208.5"/>
		<line class="st1" x1="21" y1="259.5" x2="637.5" y2="259.5"/>
		<line class="st1" x1="21" y1="310.5" x2="637.5" y2="310.5"/>
		<line class="st1" x1="21" y1="361.5" x2="637.5" y2="361.5"/>
		<line class="st1" x1="21" y1="412.5" x2="637.5" y2="412.5"/>
		<path class="st2" d="M60.8,463.5h6.6H60.8z"/>
		<g class="st3">
			<polygon class="st4" points="54.1,459.8 47.5,459.8 47.5,460.5 40.9,460.5 34.3,460.5 34.3,458.2 27.6,458.2 27.6,462.8 
				21,462.8 21,463.5 27.6,463.5 34.3,463.5 40.9,463.5 47.5,463.5 54.1,463.5 60.8,463.5 60.8,457.5 54.1,457.5 			"/>
			<polygon class="st4" points="630.5,7.5 630.5,170.2 623.8,170.2 623.8,117 617.2,117 617.2,144 610.6,144 610.6,132.8 
				603.9,132.8 603.9,5.2 597.3,5.2 597.3,233.2 590.8,233.2 590.8,99 584.2,99 584.2,210 577.5,210 577.5,81.8 570.9,81.8 
				570.9,270 564.3,270 564.3,219 557.6,219 557.6,222.8 551,222.8 551,219.8 544.4,219.8 544.4,197.2 537.8,197.2 537.8,364.5 
				531.1,364.5 531.1,309.8 524.5,309.8 524.5,354.8 517.9,354.8 517.9,313.5 511.2,313.5 511.2,297.8 504.6,297.8 504.6,306.8 
				498,306.8 498,0 491.4,0 491.4,381.8 484.7,381.8 484.7,369.8 478.1,369.8 478.1,390 471.5,390 471.5,279 464.8,279 464.8,346.5 
				458.2,346.5 458.2,364.5 451.7,364.5 451.7,330.8 445.1,330.8 445.1,390 438.4,390 438.4,340.5 431.8,340.5 431.8,432 425.2,432 
				425.2,435 418.6,435 418.6,222 411.9,222 411.9,409.5 405.3,409.5 405.3,378.8 398.7,378.8 398.7,375.8 392,375.8 392,406.5 
				385.4,406.5 385.4,424.5 378.8,424.5 378.8,403.5 372.2,403.5 372.2,400.5 365.5,400.5 365.5,434.2 359,434.2 359,387.8 
				352.4,387.8 352.4,381.8 345.7,381.8 345.7,404.2 339.1,404.2 339.1,394.5 332.5,394.5 332.5,369.8 325.8,369.8 325.8,363 
				319.2,363 319.2,248.2 312.6,248.2 312.6,252.8 306,252.8 306,330.8 299.3,330.8 299.3,167.2 292.7,167.2 292.7,270 286.1,270 
				286.1,459.8 279.4,459.8 279.4,380.2 272.8,380.2 272.8,387 266.2,387 266.2,441.8 259.5,441.8 259.5,360.8 252.9,360.8 
				252.9,440.2 246.3,440.2 246.3,264.8 239.7,264.8 239.7,410.2 233,410.2 233,437.2 226.4,437.2 226.4,406.5 219.8,406.5 
				219.8,393 213.1,393 213.1,381.8 206.5,381.8 206.5,392.2 199.9,392.2 199.9,387.8 193.3,387.8 193.3,351.8 186.6,351.8 
				186.6,458.2 180,458.2 180,407.2 173.4,407.2 173.4,403.5 166.8,403.5 166.8,402.8 160.2,402.8 160.2,406.5 153.6,406.5 
				153.6,403.5 147,403.5 147,423 140.3,423 140.3,440.2 133.7,440.2 133.7,426 127.1,426 127.1,421.5 120.4,421.5 120.4,386.2 
				113.8,386.2 113.8,432 107.2,432 107.2,426.8 100.5,426.8 100.5,420 93.9,420 93.9,441 87.3,441 87.3,424.5 80.7,424.5 
				80.7,434.2 74,434.2 74,452.2 67.4,452.2 67.4,463.5 74,463.5 80.7,463.5 87.3,463.5 93.9,463.5 100.5,463.5 107.2,463.5 
				113.8,463.5 120.4,463.5 127.1,463.5 133.7,463.5 140.3,463.5 147,463.5 153.6,463.5 160.2,463.5 166.7,463.5 166.8,463.5 
				173.4,463.5 180,463.5 186.6,463.5 193.3,463.5 199.9,463.5 206.5,463.5 213.1,463.5 219.8,463.5 226.4,463.5 233,463.5 
				239.7,463.5 246.3,463.5 252.9,463.5 259.5,463.5 266.2,463.5 272.8,463.5 279.4,463.5 286.1,463.5 292.7,463.5 299.3,463.5 
				306,463.5 312.6,463.5 319.2,463.5 325.8,463.5 332.5,463.5 339.1,463.5 345.7,463.5 352.4,463.5 358.9,463.5 359,463.5 
				365.5,463.5 372.2,463.5 378.8,463.5 385.4,463.5 392,463.5 398.7,463.5 405.3,463.5 411.9,463.5 418.6,463.5 425.2,463.5 
				431.8,463.5 438.4,463.5 445.1,463.5 451.7,463.5 458.2,463.5 458.3,463.5 464.8,463.5 471.5,463.5 478.1,463.5 484.7,463.5 
				491.4,463.5 498,463.5 504.6,463.5 511.2,463.5 517.9,463.5 524.5,463.5 531.1,463.5 537.8,463.5 544.4,463.5 551,463.5 
				557.6,463.5 564.3,463.5 570.9,463.5 577.5,463.5 584.2,463.5 590.7,463.5 590.8,463.5 597.3,463.5 603.9,463.5 610.6,463.5 
				617.2,463.5 623.8,463.5 630.5,463.5 637.1,463.5 637.1,7.5 			"/>
		</g>
		<line class="st5" x1="21" y1="463.5" x2="637.5" y2="463.5"/>
	</g>
	<g class="st0">
		<text transform="matrix(1 0 0 1 5.6426 415.5996)" class="st6 st7 st8">50</text>
	</g>
	<g class="st0">
		<text transform="matrix(1 0 0 1 0.5889 364.5996)" class="st6 st7 st8">100</text>
	</g>
	<g class="st0">
		<text transform="matrix(1 0 0 1 0.5889 313.5996)" class="st6 st7 st8">150</text>
	</g>
	<g class="st0">
		<text transform="matrix(1 0 0 1 0.5889 262.5996)" class="st6 st7 st8">200</text>
	</g>
	<g class="st0">
		<text transform="matrix(1 0 0 1 0.5889 211.5996)" class="st6 st7 st8">250</text>
	</g>
	<g class="st0">
		<text transform="matrix(1 0 0 1 0.5889 161.3496)" class="st6 st7 st8">300</text>
	</g>
	<g class="st0">
		<text transform="matrix(1 0 0 1 0.5889 110.3496)" class="st6 st7 st8">350</text>
	</g>
	<g class="st0">
		<text transform="matrix(1 0 0 1 0.5889 59.3496)" class="st6 st7 st8">400</text>
	</g>
	<g class="st0">
		<text transform="matrix(1 0 0 1 0.5889 8.3496)" class="st6 st7 st8">450</text>
	</g>
</g>
<g>
	<text transform="matrix(1 0 0 1 619.041 477.7167)" class="st9 st7 st8">6/11</text>
</g>
<g>
	<text transform="matrix(1 0 0 1 15.0732 477.7167)" class="st9 st7 st8">3/11</text>
</g>
<polyline class="st10" points="57.5,460.9 64.1,460.9 70.7,458.9 77.4,455.9 84,450.8 90.6,447.8 97.2,442.7 103.9,437.7 
	110.5,433.6 117.1,424.5 123.7,422.5 130.4,422.5 137,422.5 143.6,422.5 150.3,419.5 156.9,416.4 163.5,418.4 170.1,415.4 
	176.8,413.4 183.4,415.4 190,405.3 196.6,403.3 203.3,401.2 209.9,398.2 216.5,397.2 223.2,397.2 229.8,394.2 236.4,402.2 243,385 
	249.7,391.1 256.3,388.1 262.9,395.2 269.5,393.1 276.2,385 282.8,391.1 289.4,392.1 296.1,353.7 302.7,349.6 309.3,322.3 
	315.9,303.1 322.6,300 329.2,287.9 335.8,305.1 342.4,338.5 349.1,346.6 355.7,365.8 362.3,392.1 369,397.2 375.6,402.2 
	382.2,406.3 388.8,406.3 395.5,405.3 402.1,404.3 408.7,401.2 415.3,375.9 422,380 428.6,381 435.2,371.9 441.9,373.9 448.5,366.8 
	455.1,360.8 461.7,378 468.4,355.7 475,349.6 481.6,354.7 488.2,352.7 494.9,306.1 501.5,298 508.1,290.9 514.7,296 521.4,290.9 
	528,281.8 534.6,279.8 541.3,308.1 547.9,296 554.5,284.8 561.1,271.7 567.8,259.5 574.4,227.2 581,204.9 587.6,190.7 594.3,192.7 
	600.9,162.4 607.5,150.2 614.2,132 620.8,137.1 627.4,131 634,117.9 "/>
<text transform="matrix(1 0 0 1 337.1541 279.015)" class="st11 st12 st13">7-day average</text>
<g>
	<g>
		<path class="st14" d="M374.9,285c5.7,10.5,4.3,24.1-3.8,35.7c-5.9,8.3-13.5,13.3-18.6,15.9"/>
		<g>
			<polygon class="st15" points="353.2,333.3 353.3,336.3 355.5,338.2 348.5,338.7 			"/>
		</g>
	</g>
</g>
</svg>
