<?xml version="1.0" encoding="utf-8"?>
<!-- Generator: Adobe Illustrator 23.0.1, SVG Export Plug-In . SVG Version: 6.00 Build 0)  -->
<svg version="1.1" id="Layer_1" xmlns="http://www.w3.org/2000/svg" xmlns:xlink="http://www.w3.org/1999/xlink" x="0px" y="0px"
	 viewBox="0 0 637.5 487.5" style="enable-background:new 0 0 637.5 487.5;" xml:space="preserve">
<style type="text/css">
	.st0{clip-path:url(#SVGID_2_);enable-background:new    ;}
	.st1{clip-path:url(#SVGID_4_);fill:none;stroke:#E8E8E8;stroke-width:0.75;stroke-miterlimit:10;}
	.st2{clip-path:url(#SVGID_4_);fill:#C71E1D;}
	.st3{clip-path:url(#SVGID_4_);}
	.st4{fill:#C71E1D;fill-opacity:0.6;stroke:#000000;stroke-width:0.5;stroke-miterlimit:10;}
	.st5{clip-path:url(#SVGID_4_);fill:none;stroke:#333333;stroke-width:0.75;stroke-miterlimit:10;}
	.st6{fill:#A6A6A6;}
	.st7{font-family:'Roboto-Regular';}
	.st8{font-size:9px;}
	.st9{fill:#333333;}
	.st10{font-size:11px;}
	.st11{fill:#FACE00;fill-opacity:0.85;stroke:#000000;stroke-width:0.5;stroke-miterlimit:10;}
</style>
<g>
	<defs>
		<rect id="SVGID_1_" width="637.5" height="487.5"/>
	</defs>
	<clipPath id="SVGID_2_">
		<use xlink:href="#SVGID_1_"  style="overflow:visible;"/>
	</clipPath>
	<g class="st0">
		<g>
			<defs>
				<rect id="SVGID_3_" width="637.5" height="487.5"/>
			</defs>
			<clipPath id="SVGID_4_">
				<use xlink:href="#SVGID_3_"  style="overflow:visible;"/>
			</clipPath>
			<line class="st1" x1="21" y1="6" x2="637.5" y2="6"/>
			<line class="st1" x1="21" y1="82.5" x2="637.5" y2="82.5"/>
			<line class="st1" x1="21" y1="158.2" x2="637.5" y2="158.2"/>
			<line class="st1" x1="21" y1="234.8" x2="637.5" y2="234.8"/>
			<line class="st1" x1="21" y1="311.2" x2="637.5" y2="311.2"/>
			<line class="st1" x1="21" y1="387" x2="637.5" y2="387"/>
			<path class="st2" d="M83.7,463.5h10.4H83.7z"/>
			<g class="st3">
				<polygon class="st4" points="73.2,457.5 62.8,457.5 62.8,459 52.3,459 41.9,459 41.9,456 31.4,456 31.4,462 21,462 21,463.5 
					31.4,463.5 41.9,463.5 52.3,463.5 62.8,463.5 73.2,463.5 83.7,463.5 83.7,454.5 73.2,454.5 				"/>
				<polygon class="st4" points="626.9,382.5 626.9,336.8 616.5,336.8 616.5,332.2 606,332.2 606,378 595.6,378 595.6,405.8 
					585.1,405.8 585.1,373.5 574.7,373.5 574.7,369 564.3,369 564.3,419.2 553.8,419.2 553.8,351 543.4,351 543.4,341.2 
					532.9,341.2 532.9,375 522.5,375 522.5,360 512,360 512,323.2 501.6,323.2 501.6,312.8 491.1,312.8 491.1,141.8 480.7,141.8 
					480.7,147.8 470.3,147.8 470.3,265.5 459.9,265.5 459.9,19.5 449.4,19.5 449.4,174 439,174 439,457.5 428.5,457.5 428.5,338.3 
					418.1,338.3 418.1,348.8 407.6,348.8 407.6,431.3 397.2,431.3 397.2,309.8 386.7,309.8 386.7,428.3 376.3,428.3 376.3,165.8 
					365.8,165.8 365.8,384 355.4,384 355.4,423.8 344.9,423.8 344.9,378 334.5,378 334.5,358.5 324,358.5 324,341.2 313.6,341.2 
					313.6,357 303.1,357 303.1,351 292.7,351 292.7,295.5 282.2,295.5 282.2,456 271.8,456 271.8,379.5 261.3,379.5 261.3,373.5 
					250.9,373.5 250.9,372 240.4,372 240.4,378 230,378 230,373.5 219.5,373.5 219.5,402.8 209.1,402.8 209.1,428.2 198.6,428.2 
					198.6,407.2 188.2,407.2 188.2,401.2 177.7,401.2 177.7,347.2 167.3,347.2 167.3,416.2 156.8,416.2 156.8,408.8 146.4,408.8 
					146.4,398.2 135.9,398.2 135.9,429.8 125.5,429.8 125.5,405.8 115,405.8 115,419.2 104.6,419.2 104.6,447 94.1,447 94.1,463.5 
					104.6,463.5 115,463.5 125.5,463.5 135.9,463.5 146.4,463.5 156.8,463.5 167.3,463.5 177.7,463.5 188.2,463.5 198.6,463.5 
					209.1,463.5 219.5,463.5 219.5,463.5 230,463.5 240.4,463.5 250.9,463.5 261.3,463.5 271.8,463.5 282.2,463.5 292.7,463.5 
					303.1,463.5 313.6,463.5 324,463.5 334.5,463.5 344.9,463.5 355.4,463.5 355.4,463.5 365.8,463.5 365.8,463.5 376.3,463.5 
					376.3,463.5 386.7,463.5 397.2,463.5 407.6,463.5 418.1,463.5 428.5,463.5 439,463.5 449.4,463.5 459.9,463.5 459.9,463.5 
					470.3,463.5 480.8,463.5 480.8,463.5 491.1,463.5 491.1,463.5 501.6,463.5 512,463.5 522.5,463.5 532.9,463.5 543.4,463.5 
					553.8,463.5 564.3,463.5 564.3,463.5 574.7,463.5 574.7,463.5 585.1,463.5 595.6,463.5 595.6,463.5 606,463.5 616.5,463.5 
					626.9,463.5 637.4,463.5 637.4,382.5 				"/>
			</g>
			<line class="st5" x1="21" y1="463.5" x2="637.5" y2="463.5"/>
			<g class="st3">
				<text transform="matrix(1 0 0 1 5.6426 389.3496)" class="st6 st7 st8">50</text>
			</g>
			<g class="st3">
				<text transform="matrix(1 0 0 1 0.5889 313.5996)" class="st6 st7 st8">100</text>
			</g>
			<g class="st3">
				<text transform="matrix(1 0 0 1 0.5889 237.0996)" class="st6 st7 st8">150</text>
			</g>
			<g class="st3">
				<text transform="matrix(1 0 0 1 0.5889 160.5996)" class="st6 st7 st8">200</text>
			</g>
			<g class="st3">
				<text transform="matrix(1 0 0 1 0.5889 84.8496)" class="st6 st7 st8">250</text>
			</g>
			<g class="st3">
				<text transform="matrix(1 0 0 1 0.5889 8.3496)" class="st6 st7 st8">300</text>
			</g>
		</g>
	</g>
</g>
<g>
	<text transform="matrix(1 0 0 1 551.537 36.9458)" class="st9 st7 st10">New cases</text>
</g>
<text transform="matrix(1 0 0 1 551.7036 58.521)" class="st9 st7 st10">7-d</text>
<text transform="matrix(1 0 0 1 567.1035 58.521)" class="st9 st7 st10">a</text>
<text transform="matrix(1 0 0 1 573.0036 58.521)" class="st9 st7 st10">y </text>
<text transform="matrix(1 0 0 1 580.9035 58.521)" class="st9 st7 st10">a</text>
<text transform="matrix(1 0 0 1 586.9035 58.521)" class="st9 st7 st10">v</text>
<text transform="matrix(1 0 0 1 592.1035 58.521)" class="st9 st7 st10">e</text>
<text transform="matrix(1 0 0 1 597.9035 58.521)" class="st9 st7 st10">r</text>
<text transform="matrix(1 0 0 1 601.5036 58.521)" class="st9 st7 st10">age</text>
<rect x="531.8" y="26.7" class="st4" width="11.6" height="11.6"/>
<rect x="531.8" y="48.5" class="st11" width="11.6" height="11.6"/>
<polygon class="st11" points="626.9,368.9 626.9,373.4 616.5,373.4 616.5,374.9 606,374.9 606,376.4 595.6,376.4 595.6,376.4 
	585.1,376.4 585.1,370.4 574.7,370.4 574.7,362.9 564.3,362.9 564.3,355.4 553.9,355.4 553.9,315.6 543.4,315.6 543.4,286.4 
	533,286.4 533,274.4 522.5,274.4 522.5,224.1 512.1,224.1 512.1,197.9 501.6,197.9 501.6,216.6 491.2,216.6 491.2,221.1 
	480.7,221.1 480.7,249.6 470.3,249.6 470.3,290.9 459.8,290.9 459.8,296.9 449.4,296.9 449.4,355.4 439,355.4 439,353.9 
	428.5,353.9 428.5,344.1 418.1,344.1 418.1,356.9 407.6,356.9 407.6,359.9 397.2,359.9 397.2,348.6 386.7,348.6 386.7,353.9 
	376.3,353.9 376.3,344.1 365.8,344.1 365.8,370.3 355.4,370.3 355.4,358.3 345,358.3 345,362.8 334.5,362.8 324.1,362.8 
	324.1,364.3 313.6,364.3 313.6,368.8 303.2,368.8 303.2,371.8 292.7,371.8 292.7,374.8 282.3,374.8 282.3,389.8 271.8,389.8 
	271.8,386.8 261.4,386.8 261.4,389.8 250.9,389.8 250.9,394.3 240.5,394.3 240.5,391.3 230,391.3 230,396.6 219.6,396.6 
	219.6,401.1 209.2,401.1 198.7,401.1 188.3,401.1 177.8,401.1 177.8,404.1 167.4,404.1 167.4,417.6 156.9,417.6 156.9,423.6 
	146.5,423.6 146.5,431.1 136,431.1 136,438.6 125.6,438.6 125.6,443.8 115.1,443.8 115.1,451.3 104.7,451.3 104.7,455.8 94.2,455.8 
	94.2,458.8 83.8,458.8 73.3,458.8 73.3,463.3 83.8,463.3 94.2,463.3 104.7,463.3 115.1,463.3 125.6,463.3 136,463.3 146.5,463.3 
	156.9,463.3 167.4,463.3 177.8,463.3 188.3,463.3 198.7,463.3 209.2,463.3 219.6,463.3 219.6,463.3 230,463.3 240.5,463.3 
	250.9,463.3 261.4,463.3 271.8,463.3 282.3,463.3 292.7,463.3 303.2,463.3 313.6,463.3 324.1,463.3 334.5,463.3 345,463.3 
	355.4,463.3 355.4,463.3 365.8,463.3 365.8,463.4 376.3,463.4 376.3,463.4 386.7,463.4 397.2,463.4 407.6,463.4 418.1,463.4 
	428.5,463.4 439,463.4 449.4,463.4 459.8,463.4 459.8,463.4 470.3,463.4 480.7,463.4 480.7,463.4 491.2,463.4 491.2,463.4 
	501.6,463.4 512.1,463.4 522.5,463.4 533,463.4 543.4,463.4 553.9,463.4 564.3,463.4 564.3,463.4 574.7,463.4 574.7,463.4 
	585.1,463.4 595.6,463.4 595.6,463.4 606,463.4 616.5,463.4 626.9,463.4 637.4,463.4 637.4,368.9 "/>
<g>
	<text transform="matrix(1 0 0 1 623.1862 478.2169)" class="st9 st7 st8">5/8</text>
</g>
<g>
	<text transform="matrix(1 0 0 1 16.7263 478.2167)" class="st9 st7 st8">3/11</text>
</g>
</svg>
