<?xml version="1.0" encoding="utf-8"?>
<!-- Generator: Adobe Illustrator 23.0.1, SVG Export Plug-In . SVG Version: 6.00 Build 0)  -->
<svg version="1.1" id="Layer_1" xmlns="http://www.w3.org/2000/svg" xmlns:xlink="http://www.w3.org/1999/xlink" x="0px" y="0px"
	 viewBox="0 0 637.5 487.5" style="enable-background:new 0 0 637.5 487.5;" xml:space="preserve">
<style type="text/css">
	.st0{clip-path:url(#SVGID_2_);}
	.st1{clip-path:url(#SVGID_4_);fill:none;stroke:#E8E8E8;stroke-width:0.75;stroke-miterlimit:10;}
	.st2{clip-path:url(#SVGID_4_);fill:#C71E1D;}
	.st3{clip-path:url(#SVGID_4_);}
	.st4{fill:#C71E1D;fill-opacity:0.6;stroke:#000000;stroke-width:0.5;stroke-miterlimit:10;}
	.st5{clip-path:url(#SVGID_4_);fill:none;stroke:#333333;stroke-width:0.75;stroke-miterlimit:10;}
	.st6{fill:#A6A6A6;}
	.st7{font-family:'Roboto-Regular';}
	.st8{font-size:9px;}
	.st9{fill:#FACE00;fill-opacity:0.85;stroke:#000000;stroke-width:0.5;stroke-miterlimit:10;}
	.st10{fill:#333333;}
	.st11{font-size:11px;}
</style>
<g>
	<defs>
		<rect id="SVGID_1_" width="637.5" height="487.5"/>
	</defs>
	<clipPath id="SVGID_2_">
		<use xlink:href="#SVGID_1_"  style="overflow:visible;"/>
	</clipPath>
	<g class="st0">
		<defs>
			<rect id="SVGID_3_" width="637.5" height="483"/>
		</defs>
		<clipPath id="SVGID_4_">
			<use xlink:href="#SVGID_3_"  style="overflow:visible;"/>
		</clipPath>
		<line class="st1" x1="21" y1="6" x2="637.5" y2="6"/>
		<line class="st1" x1="21" y1="82.5" x2="637.5" y2="82.5"/>
		<line class="st1" x1="21" y1="158.2" x2="637.5" y2="158.2"/>
		<line class="st1" x1="21" y1="234.8" x2="637.5" y2="234.8"/>
		<line class="st1" x1="21" y1="311.2" x2="637.5" y2="311.2"/>
		<line class="st1" x1="21" y1="387" x2="637.5" y2="387"/>
		<path class="st2" d="M77,463.5h9.3H77z"/>
		<g class="st3">
			<polygon class="st4" points="67.6,457.5 58.3,457.5 58.3,459 49,459 39.7,459 39.7,456 30.3,456 30.3,462 21,462 21,463.5 
				30.3,463.5 39.6,463.5 39.7,463.5 49,463.5 58.3,463.5 58.3,463.5 67.6,463.5 77,463.5 77,454.5 67.6,454.5 			"/>
			<polygon class="st4" points="627.9,315.9 627.9,265.5 618.6,265.5 618.6,354 609.3,354 609.3,279 600,279 600,416.2 590.7,416.2 
				590.7,420.8 581.4,420.8 581.4,102 572,102 572,382.5 562.8,382.5 562.8,336.8 553.5,336.8 553.5,332.2 544.2,332.2 544.2,378 
				534.9,378 534.9,405.8 525.6,405.8 525.6,373.5 516.4,373.5 516.4,369 507.1,369 507.1,419.2 497.8,419.2 497.8,351 488.5,351 
				488.5,341.2 479.2,341.2 479.2,375 470,375 470,360 460.8,360 460.8,323.2 451.4,323.2 451.4,312.8 442.2,312.8 442.2,141.8 
				432.9,141.8 432.9,147.8 423.5,147.8 423.5,265.5 414.4,265.5 414.4,19.5 405,19.5 405,174 395.7,174 395.7,457.5 386.4,457.5 
				386.4,338.2 377,338.2 377,348.8 367.8,348.8 367.8,431.2 358.5,431.2 358.5,309.8 349.2,309.8 349.2,428.2 339.9,428.2 
				339.9,165.8 330.6,165.8 330.6,384 321.2,384 321.2,423.8 312,423.8 312,378 302.7,378 302.7,358.5 293.3,358.5 293.3,341.2 
				284,341.2 284,357 274.7,357 274.7,351 265.4,351 265.4,295.5 256,295.5 256,456 246.7,456 246.7,379.5 237.4,379.5 237.4,373.5 
				228.1,373.5 228.1,372 218.7,372 218.7,378 209.5,378 209.5,373.5 200.1,373.5 200.1,402.8 190.8,402.8 190.8,428.2 181.5,428.2 
				181.5,407.2 172.2,407.2 172.2,401.2 162.9,401.2 162.9,347.2 153.5,347.2 153.5,416.2 144.2,416.2 144.2,408.8 134.9,408.8 
				134.9,398.2 125.6,398.2 125.6,429.8 116.3,429.8 116.3,405.8 107,405.8 107,419.2 97.6,419.2 97.6,447 88.3,447 88.3,463.5 
				97.6,463.5 97.7,463.5 107,463.5 116.3,463.5 116.3,463.5 125.6,463.5 125.6,463.5 134.9,463.5 134.9,463.5 144.2,463.5 
				153.5,463.5 162.8,463.5 162.9,463.5 172.2,463.5 181.5,463.5 181.5,463.5 190.8,463.5 200.1,463.5 200.2,463.5 209.5,463.5 
				218.7,463.5 218.8,463.5 228.1,463.5 237.3,463.5 237.4,463.5 246.7,463.5 256,463.5 265.3,463.5 265.4,463.5 274.6,463.5 
				274.7,463.5 284,463.5 293.3,463.5 302.6,463.5 302.7,463.5 312,463.5 321.2,463.5 321.3,463.5 330.6,463.5 339.8,463.5 
				339.9,463.5 349.2,463.5 358.4,463.5 358.5,463.5 367.8,463.5 377,463.5 377.1,463.5 386.4,463.5 395.7,463.5 405,463.5 
				405,463.5 414.4,463.5 423.5,463.5 423.7,463.5 432.9,463.5 442.1,463.5 442.2,463.5 451.4,463.5 460.6,463.5 460.8,463.5 
				470,463.5 479.2,463.5 479.3,463.5 488.5,463.5 497.8,463.5 507.1,463.5 507.2,463.5 516.3,463.5 516.4,463.5 525.5,463.5 
				525.6,463.5 534.9,463.5 544.2,463.5 553.4,463.5 553.5,463.5 562.8,463.5 572,463.5 572.1,463.5 581.4,463.5 590.7,463.5 
				590.7,463.5 600,463.5 609.2,463.5 609.3,463.5 618.6,463.5 627.8,463.5 627.8,463.6 637.2,463.6 637.2,315.9 			"/>
		</g>
		<line class="st5" x1="21" y1="463.5" x2="637.5" y2="463.5"/>
	</g>
	<g class="st0">
		<text transform="matrix(1 0 0 1 5.2559 389.3496)" class="st6 st7 st8">50</text>
	</g>
	<g class="st0">
		<text transform="matrix(1 0 0 1 2.929688e-03 313.5996)" class="st6 st7 st8">100</text>
	</g>
	<g class="st0">
		<text transform="matrix(1 0 0 1 2.929688e-03 237.0996)" class="st6 st7 st8">150</text>
	</g>
	<g class="st0">
		<text transform="matrix(1 0 0 1 2.929688e-03 160.5996)" class="st6 st7 st8">200</text>
	</g>
	<g class="st0">
		<text transform="matrix(1 0 0 1 2.929688e-03 84.8496)" class="st6 st7 st8">250</text>
	</g>
	<g class="st0">
		<text transform="matrix(1 0 0 1 2.929688e-03 8.3496)" class="st6 st7 st8">300</text>
	</g>
</g>
<polygon class="st9" points="627.9,308.2 627.9,317.2 618.6,317.2 618.6,327.7 609.3,327.7 609.3,324.7 600,324.7 600,338.2 
	590.7,338.2 590.7,336.7 581.4,336.7 581.4,330.7 572,330.7 572,369 562.7,369 562.7,373.5 553.4,373.5 553.4,375 544.1,375 
	544.1,376.5 534.8,376.5 525.6,376.5 525.6,370.5 516.3,370.5 516.3,363 507.1,363 507.1,355.5 497.7,355.5 497.7,315.7 
	488.4,315.7 488.4,286.5 479.1,286.5 479.1,274.5 469.8,274.5 469.8,224.2 460.5,224.2 460.5,198 451.2,198 451.2,216.7 
	441.8,216.7 441.8,221.2 432.6,221.2 432.6,249.7 423.3,249.7 423.3,291 414,291 414,297 404.7,297 404.7,355.5 395.4,355.5 
	395.4,354 386.1,354 386.1,344.2 376.8,344.2 376.8,357 367.5,357 367.5,360 358.2,360 358.2,348.7 348.8,348.7 348.8,353.9 
	339.5,353.9 339.5,344.2 330.2,344.2 330.2,370.5 320.9,370.5 320.9,358.4 311.6,358.4 311.6,362.9 302.3,362.9 302.2,362.9 
	292.9,362.9 292.9,364.4 283.6,364.4 283.6,368.9 274.3,368.9 274.3,371.9 264.9,371.9 264.9,374.9 255.6,374.9 255.6,389.9 
	246.3,389.9 246.3,386.9 236.9,386.9 236.9,390 227.6,390 227.6,394.5 218.3,394.5 218.3,391.5 209,391.5 209,396.7 199.6,396.7 
	199.6,401.2 190.3,401.2 181,401.2 181,401.2 171.7,401.2 162.4,401.2 162.4,404.2 153,404.2 153,417.7 143.7,417.7 143.7,423.7 
	134.4,423.7 134.4,431.2 125,431.2 125,438.7 115.7,438.7 115.7,444 106.4,444 106.4,451.5 97,451.5 97,456 87.7,456 87.7,459 
	78.4,459 78.4,459 69.1,459 69.1,463.5 78.4,463.5 78.4,463.5 87.7,463.5 97,463.5 97.1,463.5 106.4,463.5 115.7,463.5 115.7,463.5 
	125,463.5 125,463.5 134.4,463.5 134.4,463.4 143.7,463.4 153,463.4 162.4,463.4 162.4,463.5 171.7,463.5 181,463.5 181,463.5 
	190.3,463.5 199.6,463.5 199.7,463.5 209,463.5 218.3,463.5 218.3,463.5 227.6,463.5 237,463.5 237,463.4 246.3,463.4 255.6,463.4 
	264.9,463.4 265,463.4 274.3,463.4 274.3,463.4 283.6,463.4 292.9,463.4 302.2,463.4 302.3,463.4 311.6,463.4 320.9,463.4 
	320.9,463.5 330.2,463.5 339.5,463.5 339.5,463.4 348.8,463.4 358.1,463.4 358.1,463.5 367.5,463.5 376.8,463.5 376.8,463.5 
	386.1,463.5 395.4,463.5 404.7,463.5 404.8,463.5 414,463.5 423.3,463.5 423.4,463.5 432.6,463.5 441.8,463.5 442,463.5 
	451.2,463.5 460.4,463.5 460.5,463.5 469.8,463.5 479,463.5 479.1,463.5 488.4,463.5 497.7,463.5 507,463.5 507.1,463.5 
	516.2,463.5 516.3,463.5 525.4,463.5 525.6,463.5 534.8,463.5 544.1,463.5 553.4,463.5 553.4,463.5 562.7,463.5 572,463.5 
	572.1,463.5 581.4,463.5 590.6,463.5 590.7,463.5 600,463.5 609.2,463.5 609.3,463.5 618.6,463.5 627.9,463.5 627.9,463.5 
	637.2,463.5 637.2,308.2 "/>
<g>
	<text transform="matrix(1 0 0 1 550.6744 33.1478)" class="st10 st7 st11">New cases</text>
</g>
<text transform="matrix(1 0 0 1 550.8411 54.723)" class="st10 st7 st11">7-d</text>
<text transform="matrix(1 0 0 1 566.241 54.723)" class="st10 st7 st11">a</text>
<text transform="matrix(1 0 0 1 572.1411 54.723)" class="st10 st7 st11">y </text>
<text transform="matrix(1 0 0 1 580.041 54.723)" class="st10 st7 st11">a</text>
<text transform="matrix(1 0 0 1 586.041 54.723)" class="st10 st7 st11">v</text>
<text transform="matrix(1 0 0 1 591.241 54.723)" class="st10 st7 st11">e</text>
<text transform="matrix(1 0 0 1 597.041 54.723)" class="st10 st7 st11">r</text>
<text transform="matrix(1 0 0 1 600.6411 54.723)" class="st10 st7 st11">age</text>
<rect x="530.9" y="22.9" class="st4" width="11.6" height="11.6"/>
<rect x="530.9" y="44.7" class="st9" width="11.6" height="11.6"/>
<g>
	<text transform="matrix(1 0 0 1 617.574 477.8212)" class="st10 st7 st8">5/15</text>
</g>
<g>
	<text transform="matrix(1 0 0 1 15.9254 477.8215)" class="st10 st7 st8">3/11</text>
</g>
</svg>
