<?xml version="1.0" encoding="utf-8"?>
<!-- Generator: Adobe Illustrator 23.0.1, SVG Export Plug-In . SVG Version: 6.00 Build 0)  -->
<svg version="1.1" id="Layer_1" xmlns="http://www.w3.org/2000/svg" xmlns:xlink="http://www.w3.org/1999/xlink" x="0px" y="0px"
	 viewBox="0 0 637.5 487.5" style="enable-background:new 0 0 637.5 487.5;" xml:space="preserve">
<style type="text/css">
	.st0{clip-path:url(#SVGID_2_);}
	.st1{clip-path:url(#SVGID_4_);fill:none;stroke:#E8E8E8;stroke-width:0.75;stroke-miterlimit:10;}
	.st2{clip-path:url(#SVGID_4_);fill:#C71E1D;}
	.st3{clip-path:url(#SVGID_4_);}
	.st4{fill:#C71E1D;fill-opacity:0.5;stroke:#000000;stroke-width:0.25;stroke-miterlimit:10;}
	.st5{clip-path:url(#SVGID_4_);fill:none;stroke:#333333;stroke-width:0.75;stroke-miterlimit:10;}
	.st6{fill:#A6A6A6;}
	.st7{font-family:'Roboto-Regular';}
	.st8{font-size:9px;}
	.st9{fill:none;stroke:#A0001C;stroke-width:2;stroke-linecap:round;stroke-linejoin:round;stroke-miterlimit:10;}
	.st10{fill:#9A1D2B;}
	.st11{font-family:'ArialMT';}
	.st12{font-size:11px;}
	.st13{fill:none;stroke:#D31D2B;stroke-width:0.75;stroke-miterlimit:10;}
	.st14{fill:#D31D2B;stroke:#D31D2B;stroke-width:0.25;stroke-miterlimit:10;}
	.st15{fill:#333333;}
</style>
<g>
	<defs>
		<rect id="SVGID_1_" width="637.5" height="487.5"/>
	</defs>
	<clipPath id="SVGID_2_">
		<use xlink:href="#SVGID_1_"  style="overflow:visible;"/>
	</clipPath>
	<g class="st0">
		<defs>
			<rect id="SVGID_3_" width="637.5" height="483"/>
		</defs>
		<clipPath id="SVGID_4_">
			<use xlink:href="#SVGID_3_"  style="overflow:visible;"/>
		</clipPath>
		<line class="st1" x1="21" y1="30.8" x2="637.5" y2="30.8"/>
		<line class="st1" x1="21" y1="93" x2="637.5" y2="93"/>
		<line class="st1" x1="21" y1="154.5" x2="637.5" y2="154.5"/>
		<line class="st1" x1="21" y1="216" x2="637.5" y2="216"/>
		<line class="st1" x1="21" y1="278.2" x2="637.5" y2="278.2"/>
		<line class="st1" x1="21" y1="339.8" x2="637.5" y2="339.8"/>
		<line class="st1" x1="21" y1="402" x2="637.5" y2="402"/>
		<path class="st2" d="M59.1,463.5h6.4H59.1z"/>
		<g class="st3">
			<polygon class="st4" points="52.7,459.8 52.7,461.2 46.3,461.2 46.3,462 40,462 40,462 33.7,462 33.7,460.5 27.4,460.5 
				27.4,462.8 21,462.8 21,463.5 27.4,463.5 33.7,463.5 33.7,463.5 40,463.5 40,463.5 46.3,463.5 46.3,463.5 52.7,463.5 59,463.5 
				59,459.8 			"/>
			<polygon class="st4" points="630.7,206.2 630.7,212.2 624.4,212.2 624.4,124.5 618,124.5 618,12 611.7,12 611.7,186.8 
				605.4,186.8 605.4,285.8 599,285.8 599,253.5 592.7,253.5 592.7,269.2 586.4,269.2 586.4,262.5 580,262.5 580,185.2 573.7,185.2 
				573.7,324 567.4,324 567.4,242.2 561,242.2 561,309.8 554.7,309.8 554.7,231.8 548.3,231.8 548.3,345.8 542,345.8 542,315 
				535.7,315 535.7,318 529.3,318 529.3,315.8 523,315.8 523,302.2 516.7,302.2 516.7,403.5 510.3,403.5 510.3,370.5 504,370.5 
				504,397.5 497.6,397.5 497.6,372.8 491.2,372.8 491.2,363 484.9,363 484.9,368.2 478.5,368.2 478.5,182.2 472.2,182.2 472.2,414 
				465.8,414 465.8,406.5 459.5,406.5 459.5,419.2 453.1,419.2 453.1,351.8 446.8,351.8 446.8,392.2 440.4,392.2 440.4,403.5 
				434,403.5 434,383.2 427.7,383.2 427.7,419.2 421.3,419.2 421.3,388.5 415,388.5 415,444 408.6,444 408.6,446.2 402.3,446.2 
				402.3,317.2 395.9,317.2 395.9,430.5 389.6,430.5 389.6,412.5 383.2,412.5 383.2,410.2 376.8,410.2 376.8,429 370.5,429 
				370.5,440.2 364.1,440.2 364.1,426.8 357.8,426.8 357.8,425.2 351.4,425.2 351.4,445.5 345.1,445.5 345.1,417.8 338.7,417.8 
				338.7,414 332.4,414 332.4,427.5 326,427.5 326,421.5 319.6,421.5 319.6,406.5 313.3,406.5 313.3,402 306.9,402 306.9,333 
				300.6,333 300.6,335.2 294.2,335.2 294.2,383.2 287.9,383.2 287.9,283.5 281.5,283.5 281.5,345.8 275.1,345.8 275.1,461.2 
				268.8,461.2 268.8,412.5 262.4,412.5 262.4,417 256.1,417 256.1,450.8 249.7,450.8 249.7,401.2 243.4,401.2 243.4,449.2 
				237,449.2 237,342.8 230.7,342.8 230.7,431.2 224.3,431.2 224.3,447.8 217.9,447.8 217.9,429 211.6,429 211.6,420.8 205.2,420.8 
				205.2,414 198.9,414 198.9,420 192.5,420 192.5,417.8 186.2,417.8 186.2,395.2 179.8,395.2 179.8,460.5 173.5,460.5 173.5,429.8 
				167.1,429.8 167.1,426.8 160.7,426.8 154.4,426.8 154.4,429 148,429 148,426.8 141.7,426.8 141.7,438.8 135.3,438.8 135.3,449.2 
				129,449.2 129,441 122.7,441 122.7,438 116.3,438 116.3,416.2 110,416.2 110,444 103.6,444 103.6,441 97.3,441 97.3,437.2 
				90.9,437.2 90.9,450 84.6,450 84.6,440.2 78.2,440.2 78.2,445.5 71.8,445.5 71.8,456.8 65.5,456.8 65.5,463.5 71.8,463.5 
				71.8,463.5 78.2,463.5 84.6,463.5 90.9,463.5 97.3,463.5 103.6,463.5 110,463.5 116.3,463.5 122.7,463.5 129,463.5 135.3,463.5 
				135.4,463.5 141.7,463.5 148,463.5 154.4,463.5 160.7,463.5 167.1,463.5 173.5,463.5 179.8,463.5 186.2,463.5 192.5,463.5 
				198.9,463.5 205.2,463.5 211.6,463.5 217.9,463.5 224.3,463.5 230.7,463.5 237,463.5 243.4,463.5 249.7,463.5 256.1,463.5 
				262.4,463.5 268.8,463.5 275.1,463.5 281.5,463.5 287.9,463.5 294.2,463.5 300.6,463.5 300.6,463.5 306.9,463.5 313.3,463.5 
				319.6,463.5 319.6,463.5 326,463.5 332.4,463.5 338.7,463.5 345.1,463.5 345.1,463.5 351.4,463.5 357.8,463.5 364.1,463.5 
				364.1,463.5 370.5,463.5 376.8,463.5 383.2,463.5 389.6,463.5 395.9,463.5 402.3,463.5 408.6,463.5 408.6,463.5 415,463.5 
				421.3,463.5 427.7,463.5 427.7,463.5 434,463.5 440.4,463.5 446.8,463.5 453.1,463.5 459.5,463.5 465.8,463.5 472.2,463.5 
				472.2,463.5 478.5,463.5 484.9,463.5 491.2,463.5 491.2,463.5 497.6,463.5 504,463.5 510.3,463.5 516.7,463.5 523,463.5 
				523,463.5 529.3,463.5 535.7,463.5 542,463.5 542,463.5 548.3,463.5 554.7,463.5 561,463.5 567.3,463.5 567.4,463.5 573.7,463.5 
				580,463.5 586.3,463.5 586.4,463.5 592.7,463.5 599,463.5 605.4,463.5 611.7,463.5 611.7,463.5 618,463.5 624.4,463.5 
				630.7,463.5 630.8,463.5 637.1,463.5 637.1,206.2 			"/>
		</g>
		<line class="st5" x1="21" y1="463.5" x2="637.5" y2="463.5"/>
	</g>
	<g class="st0">
		<text transform="matrix(1 0 0 1 0.5889 405.0996)" class="st6 st7 st8">100</text>
	</g>
	<g class="st0">
		<text transform="matrix(1 0 0 1 0.5889 342.8496)" class="st6 st7 st8">200</text>
	</g>
	<g class="st0">
		<text transform="matrix(1 0 0 1 0.5889 281.3496)" class="st6 st7 st8">300</text>
	</g>
	<g class="st0">
		<text transform="matrix(1 0 0 1 0.5889 219.0996)" class="st6 st7 st8">400</text>
	</g>
	<g class="st0">
		<text transform="matrix(1 0 0 1 0.5889 157.5996)" class="st6 st7 st8">500</text>
	</g>
	<g class="st0">
		<text transform="matrix(1 0 0 1 0.5889 96.0996)" class="st6 st7 st8">600</text>
	</g>
	<g class="st0">
		<text transform="matrix(1 0 0 1 0.5889 33.8496)" class="st6 st7 st8">700</text>
	</g>
</g>
<polyline class="st9" points="56.4,461.5 62.8,461.5 69.2,460.3 75.6,458.4 82.1,455.4 88.5,453.5 94.9,450.4 101.3,447.4 
	107.7,444.9 114.2,439.4 120.6,438.2 127,438.2 133.4,438.2 139.8,438.2 146.3,436.3 152.7,434.5 159.1,435.7 165.5,433.9 
	171.9,432.6 178.3,433.9 184.8,427.7 191.2,426.5 197.6,425.3 204,423.4 210.4,422.8 216.9,422.8 223.3,421 229.7,425.9 
	236.1,415.5 242.5,419.1 249,417.3 255.4,421.6 261.8,420.4 268.2,415.5 274.6,419.1 281.1,419.7 287.5,396.4 293.9,394 
	300.3,377.4 306.7,365.7 313.2,363.9 319.6,356.5 326,366.9 332.4,387.2 338.8,392.1 345.3,403.8 351.7,419.7 358.1,422.8 
	364.5,425.9 370.9,428.3 377.4,428.3 383.8,427.7 390.2,427.1 396.6,425.3 403,409.9 409.5,412.4 415.9,413 422.3,407.5 
	428.7,408.7 435.1,404.4 441.6,400.7 448,411.2 454.4,397.6 460.8,394 467.2,397 473.6,395.8 480.1,367.6 486.5,362.6 492.9,358.3 
	499.3,361.4 505.7,358.3 512.2,352.8 518.6,351.6 525,368.8 531.4,361.4 537.8,354.7 544.3,346.7 550.7,339.3 557.1,319.7 
	563.5,306.2 569.9,297.6 576.4,298.8 582.8,280.4 589.2,273 595.6,262 602,265 608.5,261.3 614.9,253.4 621.3,209.1 627.7,200.6 
	634.1,193.8 "/>
<text transform="matrix(1 0 0 1 323.19 320.3136)" class="st10 st11 st12">7-day average</text>
<g>
	<g>
		<path class="st13" d="M360.9,326.3c5.7,10.5,4.3,24.1-3.8,35.7c-5.9,8.3-13.5,13.3-18.6,15.9"/>
		<g>
			<polygon class="st14" points="339.2,374.6 339.4,377.6 341.6,379.5 334.5,379.9 			"/>
		</g>
	</g>
</g>
<g>
	<text transform="matrix(1 0 0 1 618.4177 476.4627)" class="st15 st7 st8">6/15</text>
</g>
<g>
	<text transform="matrix(1 0 0 1 15.8925 476.4628)" class="st15 st7 st8">3/11</text>
</g>
</svg>
