<?xml version="1.0" encoding="utf-8"?>
<!-- Generator: Adobe Illustrator 23.0.1, SVG Export Plug-In . SVG Version: 6.00 Build 0)  -->
<svg version="1.1" id="Layer_1" xmlns="http://www.w3.org/2000/svg" xmlns:xlink="http://www.w3.org/1999/xlink" x="0px" y="0px"
	 viewBox="0 0 637.5 487.5" style="enable-background:new 0 0 637.5 487.5;" xml:space="preserve">
<style type="text/css">
	.st0{clip-path:url(#SVGID_2_);enable-background:new    ;}
	.st1{clip-path:url(#SVGID_4_);fill:none;stroke:#E8E8E8;stroke-width:0.75;stroke-miterlimit:10;}
	.st2{clip-path:url(#SVGID_4_);fill:#C71E1D;}
	.st3{clip-path:url(#SVGID_4_);}
	.st4{fill:#C71E1D;fill-opacity:0.6;stroke:#000000;stroke-width:0.5;stroke-miterlimit:10;}
	.st5{clip-path:url(#SVGID_4_);fill:none;stroke:#333333;stroke-width:0.75;stroke-miterlimit:10;}
	.st6{fill:#A6A6A6;}
	.st7{font-family:'Roboto-Regular';}
	.st8{font-size:9px;}
	.st9{fill:#FACE00;fill-opacity:0.85;stroke:#000000;stroke-width:0.5;stroke-miterlimit:10;}
	.st10{fill:#333333;}
	.st11{font-size:11px;}
</style>
<g>
	<defs>
		<rect id="SVGID_1_" width="637.5" height="487.5"/>
	</defs>
	<clipPath id="SVGID_2_">
		<use xlink:href="#SVGID_1_"  style="overflow:visible;"/>
	</clipPath>
	<g class="st0">
		<g>
			<defs>
				<rect id="SVGID_3_" width="637.5" height="487.5"/>
			</defs>
			<clipPath id="SVGID_4_">
				<use xlink:href="#SVGID_3_"  style="overflow:visible;"/>
			</clipPath>
			<line class="st1" x1="21" y1="6" x2="637.5" y2="6"/>
			<line class="st1" x1="21" y1="82.5" x2="637.5" y2="82.5"/>
			<line class="st1" x1="21" y1="158.2" x2="637.5" y2="158.2"/>
			<line class="st1" x1="21" y1="234.8" x2="637.5" y2="234.8"/>
			<line class="st1" x1="21" y1="311.2" x2="637.5" y2="311.2"/>
			<line class="st1" x1="21" y1="387" x2="637.5" y2="387"/>
			<path class="st2" d="M78.8,463.5h9.6H78.8z"/>
			<g class="st3">
				<polygon class="st4" points="69.2,457.5 59.5,457.5 59.5,459 49.9,459 49.9,459 40.3,459 40.3,456 30.6,456 30.6,462 21,462 
					21,463.5 30.6,463.5 30.6,463.5 40.3,463.5 40.3,463.5 49.9,463.5 49.9,463.5 59.5,463.5 59.5,463.5 69.2,463.5 69.2,463.5 
					78.8,463.5 78.8,454.5 69.2,454.5 				"/>
				<polygon class="st4" points="627.9,354 627.9,279 618.2,279 618.2,416.2 608.6,416.2 608.6,420.8 599,420.8 599,102 589.3,102 
					589.3,382.5 579.7,382.5 579.7,336.8 570.1,336.8 570.1,332.2 560.4,332.2 560.4,378 550.8,378 550.8,405.8 541.2,405.8 
					541.2,373.5 531.5,373.5 531.5,369 521.9,369 521.9,419.2 512.3,419.2 512.3,351 502.6,351 502.6,341.2 493,341.2 493,375 
					483.4,375 483.4,360 473.7,360 473.7,323.2 464.1,323.2 464.1,312.8 454.5,312.8 454.5,141.8 444.8,141.8 444.8,147.8 
					435.2,147.8 435.2,265.5 425.6,265.5 425.6,19.5 415.9,19.5 415.9,174 406.3,174 406.3,457.5 396.7,457.5 396.7,338.2 
					387,338.2 387,348.8 377.4,348.8 377.4,431.2 367.8,431.2 367.8,309.8 358.1,309.8 358.1,428.2 348.5,428.2 348.5,165.8 
					338.9,165.8 338.9,384 329.2,384 329.2,423.8 319.6,423.8 319.6,378 310,378 310,358.5 300.4,358.5 300.4,341.2 290.7,341.2 
					290.7,357 281.1,357 281.1,351 271.5,351 271.5,295.5 261.8,295.5 261.8,456 252.2,456 252.2,379.5 242.6,379.5 242.6,373.5 
					232.9,373.5 232.9,372 223.3,372 223.3,378 213.7,378 213.7,373.5 204,373.5 204,402.8 194.4,402.8 194.4,428.2 184.8,428.2 
					184.8,407.2 175.1,407.2 175.1,401.2 165.5,401.2 165.5,347.2 155.9,347.2 155.9,416.2 146.2,416.2 146.2,408.8 136.6,408.8 
					136.6,398.2 127,398.2 127,429.8 117.3,429.8 117.3,405.8 107.7,405.8 107.7,419.2 98.1,419.2 98.1,447 88.4,447 88.4,463.5 
					98.1,463.5 98.1,463.5 107.7,463.5 107.7,463.5 117.3,463.5 117.3,463.5 127,463.5 127,463.5 136.6,463.5 136.6,463.5 
					146.2,463.5 146.2,463.5 155.9,463.5 155.9,463.5 165.5,463.5 165.5,463.5 175.1,463.5 175.1,463.5 184.8,463.5 184.8,463.5 
					194.4,463.5 194.4,463.5 204,463.5 204,463.5 213.7,463.5 213.7,463.5 223.3,463.5 223.3,463.5 232.9,463.5 232.9,463.5 
					242.6,463.5 242.6,463.5 252.2,463.5 252.2,463.5 261.8,463.5 261.8,463.5 271.5,463.5 271.5,463.5 281.1,463.5 281.1,463.5 
					290.7,463.5 290.7,463.5 300.4,463.5 300.4,463.5 310,463.5 310,463.5 319.6,463.5 319.6,463.5 329.2,463.5 329.3,463.5 
					338.9,463.5 338.9,463.5 348.5,463.5 348.5,463.5 358.1,463.5 358.1,463.5 367.8,463.5 367.8,463.5 377.4,463.5 377.4,463.5 
					387,463.5 387,463.5 396.7,463.5 396.7,463.5 406.3,463.5 406.3,463.5 415.9,463.5 415.9,463.5 425.6,463.5 425.6,463.5 
					435.2,463.5 435.2,463.5 444.8,463.5 444.8,463.5 454.5,463.5 454.5,463.5 464.1,463.5 464.1,463.5 473.7,463.5 473.7,463.5 
					483.4,463.5 483.4,463.5 493,463.5 493,463.5 502.6,463.5 502.6,463.5 512.3,463.5 512.3,463.5 521.9,463.5 521.9,463.5 
					531.5,463.5 531.5,463.5 541.2,463.5 541.2,463.5 550.8,463.5 550.8,463.5 560.4,463.5 560.4,463.5 570.1,463.5 570.1,463.5 
					579.7,463.5 579.7,463.5 589.3,463.5 589.3,463.5 599,463.5 599,463.5 608.6,463.5 608.6,463.5 618.2,463.5 618.2,463.5 
					627.9,463.5 627.9,463.5 637.5,463.5 637.5,354 				"/>
			</g>
			<line class="st5" x1="21" y1="463.5" x2="637.5" y2="463.5"/>
			<g class="st3">
				<text transform="matrix(1 0 0 1 5.6426 389.3496)" class="st6 st7 st8">50</text>
			</g>
			<g class="st3">
				<text transform="matrix(1 0 0 1 0.5889 313.5996)" class="st6 st7 st8">100</text>
			</g>
			<g class="st3">
				<text transform="matrix(1 0 0 1 0.5889 237.0996)" class="st6 st7 st8">150</text>
			</g>
			<g class="st3">
				<text transform="matrix(1 0 0 1 0.5889 160.5996)" class="st6 st7 st8">200</text>
			</g>
			<g class="st3">
				<text transform="matrix(1 0 0 1 0.5889 84.8496)" class="st6 st7 st8">250</text>
			</g>
			<g class="st3">
				<text transform="matrix(1 0 0 1 0.5889 8.3496)" class="st6 st7 st8">300</text>
			</g>
		</g>
	</g>
</g>
<polygon class="st9" points="627.9,327.8 627.9,324.8 618.2,324.8 618.2,338.3 608.6,338.3 608.6,336.8 599,336.8 599,330.8 
	589.3,330.8 589.3,369 579.7,369 579.7,373.5 570.1,373.5 570.1,375 560.4,375 560.4,376.5 550.8,376.5 550.8,376.5 541.2,376.5 
	541.2,370.5 531.5,370.5 531.5,363 521.9,363 521.9,355.5 512.3,355.5 512.3,315.8 502.6,315.8 502.6,286.5 493,286.5 493,274.5 
	483.4,274.5 483.4,224.3 473.7,224.3 473.7,198 464.1,198 464.1,216.8 454.5,216.8 454.5,221.3 444.8,221.3 444.8,249.8 
	435.2,249.8 435.2,291 425.6,291 425.6,297 415.9,297 415.9,355.5 406.3,355.5 406.3,354 396.7,354 396.7,344.3 387,344.3 387,357 
	377.4,357 377.4,360 367.8,360 367.8,348.8 358.1,348.8 358.1,354 348.5,354 348.5,344.3 338.9,344.3 338.9,370.5 329.2,370.5 
	329.2,358.5 319.6,358.5 319.6,363 310,363 310,363 300.4,363 300.4,364.5 290.7,364.5 290.7,369 281.1,369 281.1,372 271.5,372 
	271.5,375 261.8,375 261.8,390 252.2,390 252.2,387 242.6,387 242.6,390 232.9,390 232.9,394.5 223.3,394.5 223.3,391.5 
	213.7,391.5 213.7,396.8 204,396.8 204,401.3 194.4,401.3 194.4,401.3 184.8,401.3 184.8,401.3 175.1,401.3 175.1,401.3 
	165.5,401.3 165.5,404.3 155.9,404.3 155.9,417.8 146.2,417.8 146.2,423.8 136.6,423.8 136.6,431.3 127,431.3 127,438.8 
	117.3,438.8 117.3,444 107.7,444 107.7,451.5 98.1,451.5 98.1,456 88.4,456 88.4,459 78.8,459 78.8,459 69.2,459 69.2,463.5 
	78.8,463.5 78.8,463.5 88.4,463.5 88.4,463.5 98.1,463.5 98.1,463.5 107.7,463.5 107.7,463.5 117.3,463.5 117.3,463.5 127,463.5 
	127,463.5 136.6,463.5 136.6,463.5 146.2,463.5 146.2,463.5 155.9,463.5 155.9,463.5 165.5,463.5 165.5,463.5 175.1,463.5 
	175.1,463.5 184.8,463.5 184.8,463.5 194.4,463.5 194.4,463.5 204,463.5 204,463.5 213.7,463.5 213.7,463.5 223.3,463.5 
	223.3,463.5 232.9,463.5 232.9,463.5 242.6,463.5 242.6,463.5 252.2,463.5 252.2,463.5 261.8,463.5 261.8,463.5 271.5,463.5 
	271.5,463.5 281.1,463.5 281.1,463.5 290.7,463.5 290.7,463.5 300.4,463.5 300.4,463.5 310,463.5 310,463.5 319.6,463.5 
	319.6,463.5 329.2,463.5 329.2,463.5 338.9,463.5 338.9,463.5 348.5,463.5 348.5,463.5 358.1,463.5 358.1,463.5 367.8,463.5 
	367.8,463.5 377.4,463.5 377.4,463.5 387,463.5 387,463.5 396.7,463.5 396.7,463.5 406.3,463.5 406.3,463.5 415.9,463.5 
	415.9,463.5 425.6,463.5 425.6,463.5 435.2,463.5 435.2,463.5 444.8,463.5 444.8,463.5 454.5,463.5 454.5,463.5 464.1,463.5 
	464.1,463.5 473.7,463.5 473.7,463.5 483.4,463.5 483.4,463.5 493,463.5 493,463.5 502.6,463.5 502.6,463.5 512.3,463.5 
	512.3,463.5 521.9,463.5 521.9,463.5 531.5,463.5 531.5,463.5 541.2,463.5 541.2,463.5 550.8,463.5 550.8,463.5 560.4,463.5 
	560.4,463.5 570.1,463.5 570.1,463.5 579.7,463.5 579.7,463.5 589.3,463.5 589.3,463.5 599,463.5 599,463.5 608.6,463.5 
	608.6,463.5 618.2,463.5 618.2,463.5 627.9,463.5 627.9,463.5 637.5,463.5 637.5,327.8 "/>
<g>
	<text transform="matrix(1 0 0 1 551.8667 35.2852)" class="st10 st7 st11">New cases</text>
</g>
<text transform="matrix(1 0 0 1 552.0333 56.8604)" class="st10 st7 st11">7-d</text>
<text transform="matrix(1 0 0 1 567.4332 56.8604)" class="st10 st7 st11">a</text>
<text transform="matrix(1 0 0 1 573.3333 56.8604)" class="st10 st7 st11">y </text>
<text transform="matrix(1 0 0 1 581.2332 56.8604)" class="st10 st7 st11">a</text>
<text transform="matrix(1 0 0 1 587.2332 56.8604)" class="st10 st7 st11">v</text>
<text transform="matrix(1 0 0 1 592.4332 56.8604)" class="st10 st7 st11">e</text>
<text transform="matrix(1 0 0 1 598.2332 56.8604)" class="st10 st7 st11">r</text>
<text transform="matrix(1 0 0 1 601.8333 56.8604)" class="st10 st7 st11">age</text>
<rect x="532.1" y="25" class="st4" width="11.6" height="11.6"/>
<rect x="532.1" y="46.8" class="st9" width="11.6" height="11.6"/>
<g>
	<text transform="matrix(1 0 0 1 618.1982 478.0409)" class="st10 st7 st8">5/13</text>
</g>
<g>
	<text transform="matrix(1 0 0 1 14.3872 478.0407)" class="st10 st7 st8">3/11</text>
</g>
</svg>
