<?xml version="1.0" encoding="utf-8"?>
<!-- Generator: Adobe Illustrator 23.0.1, SVG Export Plug-In . SVG Version: 6.00 Build 0)  -->
<svg version="1.1" id="Layer_1" xmlns="http://www.w3.org/2000/svg" xmlns:xlink="http://www.w3.org/1999/xlink" x="0px" y="0px"
	 viewBox="0 0 637.5 487.5" style="enable-background:new 0 0 637.5 487.5;" xml:space="preserve">
<style type="text/css">
	.st0{clip-path:url(#SVGID_2_);enable-background:new    ;}
	.st1{clip-path:url(#SVGID_4_);fill:none;stroke:#E8E8E8;stroke-width:0.75;stroke-miterlimit:10;}
	.st2{clip-path:url(#SVGID_4_);fill:#C71E1D;}
	.st3{clip-path:url(#SVGID_4_);}
	.st4{fill:#C71E1D;fill-opacity:0.6;stroke:#000000;stroke-width:0.5;stroke-miterlimit:10;}
	.st5{clip-path:url(#SVGID_4_);fill:none;stroke:#333333;stroke-width:0.75;stroke-miterlimit:10;}
	.st6{fill:#A6A6A6;}
	.st7{font-family:'Roboto-Regular';}
	.st8{font-size:9px;}
	.st9{fill:#333333;}
	.st10{fill:#FACE00;fill-opacity:0.85;stroke:#000000;stroke-width:0.5;stroke-miterlimit:10;}
	.st11{font-size:11px;}
</style>
<g>
	<defs>
		<rect id="SVGID_1_" width="637.5" height="487.5"/>
	</defs>
	<clipPath id="SVGID_2_">
		<use xlink:href="#SVGID_1_"  style="overflow:visible;"/>
	</clipPath>
	<g class="st0">
		<g>
			<defs>
				<rect id="SVGID_3_" width="637.5" height="487.5"/>
			</defs>
			<clipPath id="SVGID_4_">
				<use xlink:href="#SVGID_3_"  style="overflow:visible;"/>
			</clipPath>
			<line class="st1" x1="21" y1="6" x2="637.5" y2="6"/>
			<line class="st1" x1="21" y1="82.5" x2="637.5" y2="82.5"/>
			<line class="st1" x1="21" y1="158.2" x2="637.5" y2="158.2"/>
			<line class="st1" x1="21" y1="234.8" x2="637.5" y2="234.8"/>
			<line class="st1" x1="21" y1="311.2" x2="637.5" y2="311.2"/>
			<line class="st1" x1="21" y1="387" x2="637.5" y2="387"/>
			<path class="st2" d="M81.6,463.5h10.1H81.6z"/>
			<g class="st3">
				<polygon class="st4" points="71.5,457.5 61.3,457.5 61.3,459 51.3,459 51.2,459 41.2,459 41.2,456 31.1,456 31.1,462 21,462 
					21,463.5 31.1,463.5 41.2,463.5 51.2,463.5 51.3,463.5 61.3,463.5 71.5,463.5 81.6,463.5 81.6,454.5 71.5,454.5 				"/>
				<polygon class="st4" points="627.2,420.7 627.2,102 617.1,102 617.1,382.5 607,382.5 607,336.7 596.9,336.7 596.9,332.2 
					586.8,332.2 586.8,378 576.7,378 576.7,405.7 566.6,405.7 566.6,373.5 556.4,373.5 556.4,369 546.3,369 546.3,419.2 
					536.2,419.2 536.2,351 526.1,351 526.1,341.2 516,341.2 516,375 506,375 506,360 495.9,360 495.9,323.2 485.9,323.2 
					485.9,312.7 475.9,312.7 475.9,141.7 465.8,141.7 465.8,147.7 455.7,147.7 455.7,265.5 445.6,265.5 445.6,19.5 435.5,19.5 
					435.5,174 425.4,174 425.4,457.5 415.4,457.5 415.4,338.2 405.3,338.2 405.3,348.7 395.2,348.7 395.2,431.2 385.1,431.2 
					385.1,309.7 375,309.7 375,428.2 364.9,428.2 364.9,165.7 354.8,165.7 354.8,384 344.7,384 344.7,423.7 334.6,423.7 334.6,378 
					324.5,378 324.5,358.5 314.5,358.5 314.5,341.2 304.4,341.2 304.4,357 294.3,357 294.3,351 284.2,351 284.2,295.5 274.1,295.5 
					274.1,456 264,456 264,379.5 253.9,379.5 253.9,373.5 243.8,373.5 243.8,372 233.7,372 233.7,378 223.5,378 223.5,373.5 
					213.4,373.5 213.4,402.7 203.3,402.7 203.3,428.2 193.2,428.2 193.2,407.2 183.1,407.2 183.1,401.2 173.1,401.2 173.1,347.2 
					163,347.2 163,416.2 152.9,416.2 152.9,408.7 142.8,408.7 142.8,398.2 132.7,398.2 132.7,429.7 122.6,429.7 122.6,405.7 
					112.4,405.7 112.4,419.2 102.3,419.2 102.3,447 92.2,447 92.2,463.5 102.3,463.5 112.4,463.5 122.6,463.5 132.7,463.5 
					142.8,463.5 152.9,463.5 163,463.5 173,463.5 173.1,463.5 183.1,463.5 193.2,463.5 203.3,463.5 213.4,463.5 223.5,463.5 
					233.7,463.5 243.8,463.5 253.9,463.5 264,463.5 274.1,463.5 284.2,463.5 294.3,463.5 304.4,463.5 304.4,463.5 314.4,463.5 
					314.5,463.5 324.5,463.5 334.6,463.5 344.7,463.5 354.8,463.5 354.8,463.5 364.9,463.5 364.9,463.5 375,463.5 385.1,463.5 
					395.2,463.5 405.3,463.5 415.4,463.5 415.4,463.5 425.4,463.5 425.5,463.5 435.5,463.5 445.6,463.5 455.7,463.5 465.8,463.5 
					475.8,463.5 475.9,463.5 485.8,463.5 485.9,463.5 495.9,463.5 505.9,463.5 506,463.5 516,463.5 526.1,463.5 536.2,463.5 
					546.3,463.5 546.3,463.5 556.4,463.5 566.6,463.5 576.7,463.5 586.8,463.5 596.9,463.5 607,463.5 617.1,463.5 627.2,463.5 
					627.2,463.5 637.3,463.5 637.3,420.7 				"/>
			</g>
			<line class="st5" x1="21" y1="463.5" x2="637.5" y2="463.5"/>
			<g class="st3">
				<text transform="matrix(1 0 0 1 5.6426 389.3496)" class="st6 st7 st8">50</text>
			</g>
			<g class="st3">
				<text transform="matrix(1 0 0 1 0.5889 313.5996)" class="st6 st7 st8">100</text>
			</g>
			<g class="st3">
				<text transform="matrix(1 0 0 1 0.5889 237.0996)" class="st6 st7 st8">150</text>
			</g>
			<g class="st3">
				<text transform="matrix(1 0 0 1 0.5889 160.5996)" class="st6 st7 st8">200</text>
			</g>
			<g class="st3">
				<text transform="matrix(1 0 0 1 0.5889 84.8496)" class="st6 st7 st8">250</text>
			</g>
			<g class="st3">
				<text transform="matrix(1 0 0 1 0.5889 8.3496)" class="st6 st7 st8">300</text>
			</g>
			<g class="st3">
				<text transform="matrix(1 0 0 1 307.5337 479.3496)" class="st9 st7 st8">New cases</text>
			</g>
		</g>
	</g>
</g>
<polygon class="st10" points="627.2,336.7 627.2,330.7 617,330.7 617,369 606.9,369 606.9,373.5 596.8,373.5 596.8,375 586.7,375 
	586.7,376.5 576.6,376.5 566.5,376.5 566.5,370.5 556.4,370.5 556.4,363 546.3,363 546.3,355.5 536.2,355.5 536.2,315.7 
	526.1,315.7 526.1,286.5 516,286.5 516,274.5 506,274.5 506,224.2 495.9,224.2 495.9,198 485.8,198 485.8,216.7 475.9,216.7 
	475.9,221.2 465.8,221.2 465.8,249.7 455.7,249.7 455.7,291 445.6,291 445.6,297 435.5,297 435.5,355.5 425.5,355.5 425.5,354 
	415.5,354 415.5,344.2 405.4,344.2 405.4,357 395.2,357 395.2,360 385.1,360 385.1,348.7 375,348.7 375,354 365,354 365,344.2 
	354.9,344.2 354.9,370.5 344.9,370.5 344.9,358.5 334.8,358.5 334.8,363 324.7,363 314.6,363 314.6,364.5 304.6,364.5 304.6,369 
	294.5,369 294.5,372 284.4,372 284.4,375 274.3,375 274.3,390 264.2,390 264.2,387 254.1,387 254.1,390 244,390 244,394.5 
	233.9,394.5 233.9,391.5 223.8,391.5 223.8,396.7 213.7,396.7 213.7,401.2 203.5,401.2 193.4,401.2 183.3,401.2 173.2,401.2 
	173.2,404.2 163.2,404.2 163.2,417.7 153.1,417.7 153.1,423.7 143,423.7 143,431.2 132.9,431.2 132.9,438.7 122.7,438.7 122.7,444 
	112.6,444 112.6,451.5 102.5,451.5 102.5,456 92.4,456 92.4,459 82.3,459 72.2,459 72.2,463.5 82.3,463.5 92.4,463.5 102.5,463.5 
	112.6,463.5 122.7,463.5 132.9,463.5 143,463.5 153.1,463.5 163.2,463.5 173.2,463.5 173.3,463.5 183.3,463.5 193.4,463.5 
	203.5,463.5 213.7,463.5 223.8,463.5 233.9,463.5 244,463.5 254.1,463.5 264.2,463.5 274.3,463.5 284.4,463.5 294.5,463.5 
	304.6,463.5 304.6,463.5 314.7,463.5 314.7,463.5 324.7,463.5 334.8,463.5 344.9,463.5 354.9,463.5 355,463.5 364.9,463.5 
	365,463.5 375,463.5 385.1,463.5 395.2,463.5 405.4,463.5 415.4,463.5 415.5,463.5 425.4,463.5 425.5,463.5 435.5,463.5 
	445.6,463.5 455.7,463.5 465.8,463.5 475.9,463.5 475.9,463.5 485.8,463.5 486,463.5 495.9,463.5 505.9,463.5 506,463.5 516,463.5 
	526.1,463.5 536.2,463.5 546.3,463.5 546.3,463.5 556.4,463.5 566.5,463.5 576.6,463.5 586.7,463.5 596.8,463.5 606.9,463.5 
	617,463.5 627.2,463.5 627.2,463.5 637.3,463.5 637.3,336.7 "/>
<g>
	<text transform="matrix(1 0 0 1 544.2387 37.1826)" class="st9 st7 st11">New cases</text>
</g>
<text transform="matrix(1 0 0 1 544.4053 58.7578)" class="st9 st7 st11">7-d</text>
<text transform="matrix(1 0 0 1 559.8052 58.7578)" class="st9 st7 st11">a</text>
<text transform="matrix(1 0 0 1 565.7053 58.7578)" class="st9 st7 st11">y </text>
<text transform="matrix(1 0 0 1 573.6052 58.7578)" class="st9 st7 st11">a</text>
<text transform="matrix(1 0 0 1 579.6052 58.7578)" class="st9 st7 st11">v</text>
<text transform="matrix(1 0 0 1 584.8052 58.7578)" class="st9 st7 st11">e</text>
<text transform="matrix(1 0 0 1 590.6052 58.7578)" class="st9 st7 st11">r</text>
<text transform="matrix(1 0 0 1 594.2053 58.7578)" class="st9 st7 st11">age</text>
<rect x="524.5" y="26.9" class="st4" width="11.6" height="11.6"/>
<rect x="524.5" y="48.7" class="st10" width="11.6" height="11.6"/>
<g>
	<text transform="matrix(1 0 0 1 617.9803 477.4446)" class="st9 st7 st8">5/10</text>
</g>
<g>
	<text transform="matrix(1 0 0 1 15.52 477.4447)" class="st9 st7 st8">3/11</text>
</g>
</svg>
