<?xml version="1.0" encoding="utf-8"?>
<!-- Generator: Adobe Illustrator 23.0.1, SVG Export Plug-In . SVG Version: 6.00 Build 0)  -->
<svg version="1.1" id="Layer_1" xmlns="http://www.w3.org/2000/svg" xmlns:xlink="http://www.w3.org/1999/xlink" x="0px" y="0px"
	 viewBox="0 0 637.5 487.5" style="enable-background:new 0 0 637.5 487.5;" xml:space="preserve">
<style type="text/css">
	.st0{clip-path:url(#SVGID_2_);}
	.st1{clip-path:url(#SVGID_4_);fill:none;stroke:#E8E8E8;stroke-width:0.75;stroke-miterlimit:10;}
	.st2{clip-path:url(#SVGID_4_);fill:#C71E1D;}
	.st3{clip-path:url(#SVGID_4_);}
	.st4{fill:#C71E1D;fill-opacity:0.5;stroke:#000000;stroke-width:0.25;stroke-miterlimit:10;}
	.st5{clip-path:url(#SVGID_4_);fill:none;stroke:#333333;stroke-width:0.75;stroke-miterlimit:10;}
	.st6{fill:#A6A6A6;}
	.st7{font-family:'Roboto-Regular';}
	.st8{font-size:9px;}
	.st9{fill:none;stroke:#A0001C;stroke-width:2;stroke-linecap:round;stroke-linejoin:round;stroke-miterlimit:10;}
	.st10{fill:#9A1D2B;}
	.st11{font-family:'ArialMT';}
	.st12{font-size:11px;}
	.st13{fill:none;stroke:#D31D2B;stroke-width:0.75;stroke-miterlimit:10;}
	.st14{fill:#D31D2B;stroke:#D31D2B;stroke-width:0.25;stroke-miterlimit:10;}
	.st15{fill:#333333;}
</style>
<g>
	<defs>
		<rect id="SVGID_1_" width="637.5" height="487.5"/>
	</defs>
	<clipPath id="SVGID_2_">
		<use xlink:href="#SVGID_1_"  style="overflow:visible;"/>
	</clipPath>
	<g class="st0">
		<defs>
			<rect id="SVGID_3_" width="637.5" height="483"/>
		</defs>
		<clipPath id="SVGID_4_">
			<use xlink:href="#SVGID_3_"  style="overflow:visible;"/>
		</clipPath>
		<line class="st1" x1="21" y1="5.2" x2="637.5" y2="5.2"/>
		<line class="st1" x1="21" y1="56.2" x2="637.5" y2="56.2"/>
		<line class="st1" x1="21" y1="107.2" x2="637.5" y2="107.2"/>
		<line class="st1" x1="21" y1="158.2" x2="637.5" y2="158.2"/>
		<line class="st1" x1="21" y1="208.5" x2="637.5" y2="208.5"/>
		<line class="st1" x1="21" y1="259.5" x2="637.5" y2="259.5"/>
		<line class="st1" x1="21" y1="310.5" x2="637.5" y2="310.5"/>
		<line class="st1" x1="21" y1="361.5" x2="637.5" y2="361.5"/>
		<line class="st1" x1="21" y1="412.5" x2="637.5" y2="412.5"/>
		<path class="st2" d="M66.1,463.5h7.5H66.1z"/>
		<g class="st3">
			<polygon class="st4" points="58.6,459.8 51.1,459.8 51.1,460.5 43.6,460.5 36,460.5 36,458.2 28.5,458.2 28.5,462.8 21,462.8 
				21,463.5 28.5,463.5 36,463.5 36,463.5 43.6,463.5 51.1,463.5 58.6,463.5 66.1,463.5 66.1,457.5 58.6,457.5 			"/>
			<polygon class="st4" points="630,219 630,222.8 622.5,222.8 622.5,219.8 614.9,219.8 614.9,197.2 607.4,197.2 607.4,364.5 
				599.9,364.5 599.9,309.8 592.4,309.8 592.4,354.8 584.9,354.8 584.9,313.5 577.4,313.5 577.4,297.8 569.8,297.8 569.8,306.8 
				562.3,306.8 562.3,0 554.8,0 554.8,381.8 547.3,381.8 547.3,369.8 539.8,369.8 539.8,390 532.2,390 532.2,279 524.7,279 
				524.7,346.5 517.2,346.5 517.2,364.5 509.7,364.5 509.7,330.8 502.2,330.8 502.2,390 494.7,390 494.7,340.5 487.1,340.5 
				487.1,432 479.6,432 479.6,435 472.1,435 472.1,222 464.6,222 464.6,409.5 457.1,409.5 457.1,378.8 449.5,378.8 449.5,375.8 
				442,375.8 442,406.5 434.5,406.5 434.5,424.5 427,424.5 427,403.5 419.5,403.5 419.5,400.5 412,400.5 412,434.2 404.4,434.2 
				404.4,387.8 396.9,387.8 396.9,381.8 389.4,381.8 389.4,404.2 381.9,404.2 381.9,394.5 374.4,394.5 374.4,369.8 366.8,369.8 
				366.8,363 359.3,363 359.3,248.2 351.8,248.2 351.8,252.8 344.3,252.8 344.3,330.8 336.8,330.8 336.8,167.2 329.2,167.2 
				329.2,270 321.7,270 321.7,459.8 314.2,459.8 314.2,380.2 306.7,380.2 306.7,387 299.2,387 299.2,441.8 291.7,441.8 291.7,360.8 
				284.1,360.8 284.1,440.2 276.6,440.2 276.6,264.8 269.1,264.8 269.1,410.2 261.6,410.2 261.6,437.2 254.1,437.2 254.1,406.5 
				246.5,406.5 246.5,393 239,393 239,381.8 231.5,381.8 231.5,392.2 224,392.2 224,387.8 216.5,387.8 216.5,351.8 209,351.8 
				209,458.2 201.4,458.2 201.4,407.2 193.9,407.2 193.9,403.5 186.4,403.5 186.4,402.8 178.9,402.8 178.9,406.5 171.4,406.5 
				171.4,403.5 163.8,403.5 163.8,423 156.3,423 156.3,440.2 148.8,440.2 148.8,426 141.3,426 141.3,421.5 133.8,421.5 133.8,386.2 
				126.3,386.2 126.3,432 118.7,432 118.7,426.8 111.2,426.8 111.2,420 103.7,420 103.7,441 96.2,441 96.2,424.5 88.7,424.5 
				88.7,434.2 81.1,434.2 81.1,452.2 73.6,452.2 73.6,463.5 81.1,463.5 88.7,463.5 88.7,463.5 96.2,463.5 103.7,463.5 111.2,463.5 
				118.7,463.5 126.3,463.5 133.8,463.5 141.3,463.5 148.8,463.5 156.3,463.5 163.8,463.5 171.4,463.5 178.9,463.5 186.4,463.5 
				193.9,463.5 201.4,463.5 209,463.5 216.5,463.5 224,463.5 231.5,463.5 239,463.5 246.5,463.5 254.1,463.5 261.6,463.5 
				269.1,463.5 276.6,463.5 276.6,463.5 284.1,463.5 291.7,463.5 299.2,463.5 299.2,463.5 306.7,463.5 314.2,463.5 321.7,463.5 
				329.2,463.5 329.3,463.5 336.8,463.5 344.3,463.5 351.8,463.5 351.8,463.5 359.3,463.5 366.8,463.5 374.4,463.5 374.4,463.5 
				381.9,463.5 389.4,463.5 396.9,463.5 404.4,463.5 404.4,463.5 412,463.5 419.5,463.5 427,463.5 427,463.5 434.5,463.5 442,463.5 
				449.5,463.5 457.1,463.5 457.1,463.5 464.6,463.5 472.1,463.5 479.6,463.5 479.6,463.5 487.1,463.5 494.7,463.5 502.2,463.5 
				509.7,463.5 509.7,463.5 517.2,463.5 524.7,463.5 524.7,463.5 532.2,463.5 539.8,463.5 547.3,463.5 554.8,463.5 554.8,463.5 
				562.3,463.5 569.8,463.5 577.4,463.5 577.4,463.5 584.9,463.5 592.4,463.5 599.9,463.5 599.9,463.5 607.4,463.5 614.9,463.5 
				622.5,463.5 630,463.5 630,463.5 637.5,463.5 637.5,219 			"/>
		</g>
		<line class="st5" x1="21" y1="463.5" x2="637.5" y2="463.5"/>
	</g>
	<g class="st0">
		<text transform="matrix(1 0 0 1 5.2559 414.8496)" class="st6 st7 st8">50</text>
	</g>
	<g class="st0">
		<text transform="matrix(1 0 0 1 2.929688e-03 363.8496)" class="st6 st7 st8">100</text>
	</g>
	<g class="st0">
		<text transform="matrix(1 0 0 1 2.929688e-03 312.8496)" class="st6 st7 st8">150</text>
	</g>
	<g class="st0">
		<text transform="matrix(1 0 0 1 2.929688e-03 261.8496)" class="st6 st7 st8">200</text>
	</g>
	<g class="st0">
		<text transform="matrix(1 0 0 1 2.929688e-03 210.8496)" class="st6 st7 st8">250</text>
	</g>
	<g class="st0">
		<text transform="matrix(1 0 0 1 2.929688e-03 160.5996)" class="st6 st7 st8">300</text>
	</g>
	<g class="st0">
		<text transform="matrix(1 0 0 1 2.929688e-03 109.5996)" class="st6 st7 st8">350</text>
	</g>
	<g class="st0">
		<text transform="matrix(1 0 0 1 2.929688e-03 58.5996)" class="st6 st7 st8">400</text>
	</g>
	<g class="st0">
		<text transform="matrix(1 0 0 1 2.929688e-03 7.5996)" class="st6 st7 st8">450</text>
	</g>
</g>
<polyline class="st9" points="62.7,460.4 70.2,460.4 77.7,458.4 85.3,455.4 92.8,450.4 100.3,447.3 107.8,442.3 115.3,437.2 
	122.9,433.2 130.4,424.1 137.9,422.1 145.4,422.1 152.9,422.1 160.5,422.1 168,419.1 175.5,416.1 183,418.1 190.5,415.1 198.1,413 
	205.6,415.1 213.1,405 220.6,402.9 228.1,400.9 235.7,397.9 243.2,396.9 250.7,396.9 258.2,393.9 265.8,401.9 273.3,384.8 
	280.8,390.8 288.3,387.8 295.8,394.9 303.4,392.9 310.9,384.8 318.4,390.8 325.9,391.8 333.4,353.5 341,349.5 348.5,322.2 
	356,303.1 363.5,300 371,287.9 378.6,305.1 386.1,338.4 393.6,346.5 401.1,365.6 408.7,391.8 416.2,396.9 423.7,401.9 431.2,406 
	438.7,406 446.3,405 453.8,404 461.3,400.9 468.8,375.7 476.3,379.7 483.9,380.8 491.4,371.7 498.9,373.7 506.4,366.6 513.9,360.6 
	521.5,377.7 529,355.5 536.5,349.5 544,354.5 551.5,352.5 559.1,306.1 566.6,298 574.1,291 581.6,296 589.2,291 596.7,281.9 
	604.2,279.9 611.7,308.1 619.2,296 626.8,284.9 634.3,271.8 "/>
<text transform="matrix(1 0 0 1 390.3624 294.5123)" class="st10 st11 st12">7-day average</text>
<g>
	<g>
		<path class="st13" d="M428.1,300.5c5.7,10.5,4.3,24.1-3.8,35.7c-5.9,8.3-13.5,13.3-18.6,15.9"/>
		<g>
			<polygon class="st14" points="406.4,348.8 406.5,351.8 408.7,353.7 401.7,354.1 			"/>
		</g>
	</g>
</g>
<g>
	<text transform="matrix(1 0 0 1 619.8594 477.107)" class="st15 st7 st8">5/31</text>
</g>
<g>
	<text transform="matrix(1 0 0 1 15.956 477.1068)" class="st15 st7 st8">3/11</text>
</g>
</svg>
