<?xml version="1.0" encoding="utf-8"?>
<!-- Generator: Adobe Illustrator 23.0.1, SVG Export Plug-In . SVG Version: 6.00 Build 0)  -->
<svg version="1.1" id="Layer_1" xmlns="http://www.w3.org/2000/svg" xmlns:xlink="http://www.w3.org/1999/xlink" x="0px" y="0px"
	 viewBox="0 0 637.5 487.5" style="enable-background:new 0 0 637.5 487.5;" xml:space="preserve">
<style type="text/css">
	.st0{clip-path:url(#SVGID_2_);}
	.st1{clip-path:url(#SVGID_4_);fill:none;stroke:#E8E8E8;stroke-width:0.75;stroke-miterlimit:10;}
	.st2{clip-path:url(#SVGID_4_);fill:#C71E1D;}
	.st3{clip-path:url(#SVGID_4_);}
	.st4{fill:#C71E1D;fill-opacity:0.5;stroke:#000000;stroke-width:0.25;stroke-miterlimit:10;}
	.st5{clip-path:url(#SVGID_4_);fill:none;stroke:#333333;stroke-width:0.75;stroke-miterlimit:10;}
	.st6{fill:#A6A6A6;}
	.st7{font-family:'Roboto-Regular';}
	.st8{font-size:9px;}
	.st9{fill:none;stroke:#A0001C;stroke-width:2;stroke-linecap:round;stroke-linejoin:round;stroke-miterlimit:10;}
	.st10{fill:#9A1D2B;}
	.st11{font-family:'ArialMT';}
	.st12{font-size:11px;}
	.st13{fill:none;stroke:#D31D2B;stroke-width:0.75;stroke-miterlimit:10;}
	.st14{fill:#D31D2B;stroke:#D31D2B;stroke-width:0.25;stroke-miterlimit:10;}
	.st15{fill:#333333;}
</style>
<g>
	<defs>
		<rect id="SVGID_1_" width="637.5" height="487.5"/>
	</defs>
	<clipPath id="SVGID_2_">
		<use xlink:href="#SVGID_1_"  style="overflow:visible;"/>
	</clipPath>
	<g class="st0">
		<defs>
			<rect id="SVGID_3_" width="637.5" height="483"/>
		</defs>
		<clipPath id="SVGID_4_">
			<use xlink:href="#SVGID_3_"  style="overflow:visible;"/>
		</clipPath>
		<line class="st1" x1="21" y1="5.2" x2="637.5" y2="5.2"/>
		<line class="st1" x1="21" y1="56.2" x2="637.5" y2="56.2"/>
		<line class="st1" x1="21" y1="107.2" x2="637.5" y2="107.2"/>
		<line class="st1" x1="21" y1="158.2" x2="637.5" y2="158.2"/>
		<line class="st1" x1="21" y1="208.5" x2="637.5" y2="208.5"/>
		<line class="st1" x1="21" y1="259.5" x2="637.5" y2="259.5"/>
		<line class="st1" x1="21" y1="310.5" x2="637.5" y2="310.5"/>
		<line class="st1" x1="21" y1="361.5" x2="637.5" y2="361.5"/>
		<line class="st1" x1="21" y1="412.5" x2="637.5" y2="412.5"/>
		<path class="st2" d="M65,463.5h7.3H65z"/>
		<g class="st3">
			<polygon class="st4" points="57.7,459.8 50.4,459.8 50.4,460.5 43,460.5 35.7,460.5 35.7,458.2 28.3,458.2 28.3,462.8 21,462.8 
				21,463.5 28.3,463.5 35.7,463.5 43,463.5 50.4,463.5 57.7,463.5 65,463.5 65,457.5 57.7,457.5 			"/>
			<polygon class="st4" points="629.7,81.8 629.7,270 622.4,270 622.4,219 615,219 615,222.8 607.7,222.8 607.7,219.8 600.4,219.8 
				600.4,197.2 593,197.2 593,364.5 585.7,364.5 585.7,309.8 578.3,309.8 578.3,354.8 571,354.8 571,313.5 563.7,313.5 563.7,297.8 
				556.3,297.8 556.3,306.8 549,306.8 549,0 541.6,0 541.6,381.8 534.3,381.8 534.3,369.8 527,369.8 527,390 519.6,390 519.6,279 
				512.3,279 512.3,346.5 504.9,346.5 504.9,364.5 497.6,364.5 497.6,330.8 490.3,330.8 490.3,390 482.9,390 482.9,340.5 
				475.6,340.5 475.6,432 468.3,432 468.3,435 460.9,435 460.9,222 453.6,222 453.6,409.5 446.2,409.5 446.2,378.8 438.9,378.8 
				438.9,375.8 431.6,375.8 431.6,406.5 424.2,406.5 424.2,424.5 416.9,424.5 416.9,403.5 409.5,403.5 409.5,400.5 402.2,400.5 
				402.2,434.2 394.9,434.2 394.9,387.8 387.5,387.8 387.5,381.8 380.2,381.8 380.2,404.2 372.8,404.2 372.8,394.5 365.5,394.5 
				365.5,369.8 358.2,369.8 358.2,363 350.8,363 350.8,248.2 343.5,248.2 343.5,252.8 336.1,252.8 336.1,330.8 328.8,330.8 
				328.8,167.2 321.5,167.2 321.5,270 314.1,270 314.1,459.8 306.8,459.8 306.8,380.2 299.4,380.2 299.4,387 292.1,387 292.1,441.8 
				284.8,441.8 284.8,360.8 277.4,360.8 277.4,440.2 270.1,440.2 270.1,264.8 262.8,264.8 262.8,410.2 255.4,410.2 255.4,437.1 
				248.2,437.1 248.2,406.4 240.8,406.4 240.8,392.9 233.5,392.9 233.5,381.6 226.2,381.6 226.2,392.1 218.8,392.1 218.8,387.6 
				211.5,387.6 211.5,351.6 204.1,351.6 204.1,458.2 197,458.2 197,407.2 189.6,407.2 189.6,403.5 182.3,403.5 182.3,402.8 
				174.9,402.8 174.9,406.5 167.6,406.5 167.6,403.5 160.3,403.5 160.3,423 152.9,423 152.9,440.2 145.8,440.2 145.8,426 138.4,426 
				138.4,421.5 131.1,421.5 131.1,386.2 123.8,386.2 123.8,432 116.4,432 116.4,426.8 109.1,426.8 109.1,420 101.7,420 101.7,441 
				94.4,441 94.4,424.5 87.1,424.5 87.1,434.2 79.7,434.2 79.7,452.2 72.4,452.2 72.4,463.5 79.7,463.5 87.1,463.5 94.4,463.5 
				101.7,463.5 109.1,463.5 116.4,463.5 123.8,463.5 131.1,463.5 138.4,463.5 145.8,463.5 152.9,463.5 153.1,463.5 160.3,463.5 
				167.6,463.5 174.9,463.5 182.3,463.5 189.6,463.5 197,463.5 204.3,463.5 204.3,463.4 211.5,463.4 218.8,463.4 226.2,463.4 
				233.5,463.4 240.8,463.4 248.2,463.4 255.4,463.4 255.4,463.5 262.8,463.5 270.1,463.5 270.1,463.5 277.4,463.5 284.8,463.5 
				292.1,463.5 299.4,463.5 306.8,463.5 314.1,463.5 321.5,463.5 321.5,463.5 328.8,463.5 336.1,463.5 343.5,463.5 350.8,463.5 
				358.2,463.5 365.5,463.5 372.8,463.5 372.8,463.5 380.2,463.5 387.5,463.5 394.9,463.5 402.2,463.5 409.5,463.5 416.9,463.5 
				424.2,463.5 424.2,463.5 431.6,463.5 438.9,463.5 446.2,463.5 453.6,463.5 460.9,463.5 468.3,463.5 475.6,463.5 475.6,463.5 
				482.9,463.5 490.3,463.5 497.6,463.5 504.9,463.5 512.3,463.5 519.6,463.5 527,463.5 534.3,463.5 541.6,463.5 549,463.5 
				556.3,463.5 563.7,463.5 563.7,463.5 571,463.5 578.3,463.5 585.7,463.5 593,463.5 600.4,463.5 607.7,463.5 615,463.5 615,463.5 
				622.4,463.5 629.7,463.5 637.1,463.5 637.1,81.8 			"/>
		</g>
		<line class="st5" x1="21" y1="463.5" x2="637.5" y2="463.5"/>
	</g>
	<g class="st0">
		<text transform="matrix(1 0 0 1 5.2559 414.8496)" class="st6 st7 st8">50</text>
	</g>
	<g class="st0">
		<text transform="matrix(1 0 0 1 2.929688e-03 363.8496)" class="st6 st7 st8">100</text>
	</g>
	<g class="st0">
		<text transform="matrix(1 0 0 1 2.929688e-03 312.8496)" class="st6 st7 st8">150</text>
	</g>
	<g class="st0">
		<text transform="matrix(1 0 0 1 2.929688e-03 261.8496)" class="st6 st7 st8">200</text>
	</g>
	<g class="st0">
		<text transform="matrix(1 0 0 1 2.929688e-03 210.8496)" class="st6 st7 st8">250</text>
	</g>
	<g class="st0">
		<text transform="matrix(1 0 0 1 2.929688e-03 160.5996)" class="st6 st7 st8">300</text>
	</g>
	<g class="st0">
		<text transform="matrix(1 0 0 1 2.929688e-03 109.5996)" class="st6 st7 st8">350</text>
	</g>
	<g class="st0">
		<text transform="matrix(1 0 0 1 2.929688e-03 58.5996)" class="st6 st7 st8">400</text>
	</g>
	<g class="st0">
		<text transform="matrix(1 0 0 1 2.929688e-03 7.5996)" class="st6 st7 st8">450</text>
	</g>
</g>
<polyline class="st9" points="61.2,460.7 68.6,460.7 75.9,458.7 83.2,455.7 90.6,450.6 97.9,447.6 105.3,442.6 112.6,437.5 
	120,433.5 127.3,424.4 134.6,422.4 142,422.4 149.3,422.4 156.7,422.4 164,419.4 171.3,416.3 178.7,418.3 186,415.3 193.4,413.3 
	200.7,415.3 208.1,405.2 215.4,403.2 222.7,401.2 230.1,398.2 237.4,397.2 244.8,397.2 252.1,394.1 259.5,402.2 266.8,385.1 
	274.1,391.1 281.5,388.1 288.8,395.1 296.2,393.1 303.5,385.1 310.9,391.1 318.2,392.1 325.5,353.8 332.9,349.7 340.2,322.5 
	347.6,303.3 354.9,300.3 362.3,288.2 369.6,305.4 376.9,338.6 384.3,346.7 391.6,365.9 399,392.1 406.3,397.2 413.7,402.2 
	421,406.2 428.3,406.2 435.7,405.2 443,404.2 450.4,401.2 457.7,376 465,380 472.4,381 479.7,371.9 487.1,374 494.4,366.9 
	501.8,360.8 509.1,378 516.4,355.8 523.8,349.7 531.1,354.8 538.5,352.8 545.8,306.4 553.2,298.3 560.5,291.2 567.8,296.3 
	575.2,291.2 582.5,282.2 589.9,280.1 597.2,308.4 604.6,296.3 611.9,285.2 619.2,272.1 626.6,260 633.9,227.7 "/>
<text transform="matrix(1 0 0 1 376.9859 288.8984)" class="st10 st11 st12">7-day average</text>
<g>
	<g>
		<path class="st13" d="M414.7,294.9c5.7,10.5,4.3,24.1-3.8,35.7c-5.9,8.3-13.5,13.3-18.6,15.9"/>
		<g>
			<polygon class="st14" points="393,343.1 393.1,346.2 395.4,348.1 388.3,348.5 			"/>
		</g>
	</g>
</g>
<g>
	<text transform="matrix(1 0 0 1 622.6109 477.6241)" class="st15 st7 st8">6/2</text>
</g>
<g>
	<text transform="matrix(1 0 0 1 15.6738 477.6241)" class="st15 st7 st8">3/11</text>
</g>
</svg>
