<?xml version="1.0" encoding="utf-8"?>
<!-- Generator: Adobe Illustrator 23.0.1, SVG Export Plug-In . SVG Version: 6.00 Build 0)  -->
<svg version="1.1" id="Layer_1" xmlns="http://www.w3.org/2000/svg" xmlns:xlink="http://www.w3.org/1999/xlink" x="0px" y="0px"
	 viewBox="0 0 637.5 487.5" style="enable-background:new 0 0 637.5 487.5;" xml:space="preserve">
<style type="text/css">
	.st0{clip-path:url(#SVGID_2_);}
	.st1{clip-path:url(#SVGID_4_);fill:none;stroke:#E8E8E8;stroke-width:0.75;stroke-miterlimit:10;}
	.st2{clip-path:url(#SVGID_4_);fill:#C71E1D;}
	.st3{clip-path:url(#SVGID_4_);}
	.st4{fill:#C71E1D;fill-opacity:0.5;stroke:#000000;stroke-width:0.25;stroke-miterlimit:10;}
	.st5{clip-path:url(#SVGID_4_);fill:none;stroke:#333333;stroke-width:0.75;stroke-miterlimit:10;}
	.st6{fill:#A6A6A6;}
	.st7{font-family:'Roboto-Regular';}
	.st8{font-size:9px;}
	.st9{fill:none;stroke:#A0001C;stroke-width:2;stroke-linecap:round;stroke-linejoin:round;stroke-miterlimit:10;}
	.st10{fill:#9A1D2B;}
	.st11{font-family:'ArialMT';}
	.st12{font-size:11px;}
	.st13{fill:none;stroke:#D31D2B;stroke-width:0.75;stroke-miterlimit:10;}
	.st14{fill:#D31D2B;stroke:#D31D2B;stroke-width:0.25;stroke-miterlimit:10;}
	.st15{fill:#333333;}
</style>
<g>
	<defs>
		<rect id="SVGID_1_" width="637.5" height="487.5"/>
	</defs>
	<clipPath id="SVGID_2_">
		<use xlink:href="#SVGID_1_"  style="overflow:visible;"/>
	</clipPath>
	<g class="st0">
		<defs>
			<rect id="SVGID_3_" width="637.5" height="483"/>
		</defs>
		<clipPath id="SVGID_4_">
			<use xlink:href="#SVGID_3_"  style="overflow:visible;"/>
		</clipPath>
		<line class="st1" x1="21" y1="30.8" x2="637.5" y2="30.8"/>
		<line class="st1" x1="21" y1="93" x2="637.5" y2="93"/>
		<line class="st1" x1="21" y1="154.5" x2="637.5" y2="154.5"/>
		<line class="st1" x1="21" y1="216" x2="637.5" y2="216"/>
		<line class="st1" x1="21" y1="278.2" x2="637.5" y2="278.2"/>
		<line class="st1" x1="21" y1="339.8" x2="637.5" y2="339.8"/>
		<line class="st1" x1="21" y1="402" x2="637.5" y2="402"/>
		<path class="st2" d="M58.7,463.5H65H58.7z"/>
		<g class="st3">
			<polygon class="st4" points="52.5,461.2 46.2,461.2 46.2,462 39.9,462 33.6,462 33.6,460.5 27.3,460.5 27.3,462.8 21,462.8 
				21,463.5 27.3,463.5 33.6,463.5 39.9,463.5 46.2,463.5 52.5,463.5 58.7,463.5 58.7,459.8 52.5,459.8 			"/>
			<polygon class="st4" points="631.2,294 631.2,206.2 624.9,206.2 624.9,212.2 618.6,212.2 618.6,124.5 612.3,124.5 612.3,12 
				606,12 606,186.8 599.8,186.8 599.8,285.8 593.5,285.8 593.5,253.5 587.2,253.5 587.2,269.2 580.9,269.2 580.9,262.5 
				574.6,262.5 574.6,185.2 568.3,185.2 568.3,324 562,324 562,242.2 555.7,242.2 555.7,309.8 549.4,309.8 549.4,231.8 543.1,231.8 
				543.1,345.8 536.8,345.8 536.8,315 530.6,315 530.6,318 524.3,318 524.3,315.8 518,315.8 518,302.2 511.7,302.2 511.7,403.5 
				505.4,403.5 505.4,370.5 499.1,370.5 499.1,397.5 492.8,397.5 492.8,372.8 486.5,372.8 486.5,363 480.2,363 480.2,368.2 
				473.9,368.2 473.9,182.2 467.6,182.2 467.6,414 461.4,414 461.4,406.5 455.1,406.5 455.1,419.2 448.8,419.2 448.8,351.8 
				442.5,351.8 442.5,392.2 436.2,392.2 436.2,403.5 429.9,403.5 429.9,383.2 423.6,383.2 423.6,419.2 417.3,419.2 417.3,388.5 
				411,388.5 411,444 404.7,444 404.7,446.2 398.4,446.2 398.4,317.2 392.2,317.2 392.2,430.5 385.9,430.5 385.9,412.5 379.6,412.5 
				379.6,410.2 373.3,410.2 373.3,429 367,429 367,440.2 360.7,440.2 360.7,426.8 354.4,426.8 354.4,425.2 348.1,425.2 348.1,445.5 
				341.8,445.5 341.8,417.8 335.5,417.8 335.5,414 329.2,414 329.2,427.5 323,427.5 323,421.5 316.7,421.5 316.7,406.5 310.4,406.5 
				310.4,402 304.1,402 304.1,333 297.8,333 297.8,335.2 291.5,335.2 291.5,383.2 285.2,383.2 285.2,283.5 278.9,283.5 278.9,345.8 
				272.6,345.8 272.6,461.2 266.3,461.2 266.3,412.5 260.1,412.5 260.1,417 253.8,417 253.8,450.8 247.5,450.8 247.5,401.2 
				241.2,401.2 241.2,449.2 234.9,449.2 234.9,342.8 228.6,342.8 228.6,431.2 222.3,431.2 222.3,447.8 216,447.8 216,429 209.7,429 
				209.7,420.8 203.4,420.8 203.4,414 197.1,414 197.1,420 190.9,420 190.9,417.8 184.6,417.8 184.6,395.2 178.3,395.2 178.3,460.5 
				172,460.5 172,429.8 165.7,429.8 165.7,426.8 159.4,426.8 153.1,426.8 153.1,429 146.8,429 146.8,426.8 140.5,426.8 140.5,438.8 
				134.2,438.8 134.2,449.2 127.9,449.2 127.9,441 121.7,441 121.7,438 115.4,438 115.4,416.2 109.1,416.2 109.1,444 102.8,444 
				102.8,441 96.5,441 96.5,437.2 90.2,437.2 90.2,450 83.9,450 83.9,440.2 77.6,440.2 77.6,445.5 71.3,445.5 71.3,456.8 65,456.8 
				65,463.5 71.3,463.5 77.6,463.5 83.9,463.5 90.2,463.5 96.5,463.5 102.8,463.5 109.1,463.5 115.4,463.5 121.7,463.5 127.9,463.5 
				134.2,463.5 140.5,463.5 146.8,463.5 153.1,463.5 159.4,463.5 165.7,463.5 172,463.5 178.3,463.5 178.3,463.5 184.6,463.5 
				190.9,463.5 197.1,463.5 203.4,463.5 209.7,463.5 216,463.5 222.3,463.5 228.6,463.5 234.9,463.5 241.2,463.5 247.5,463.5 
				253.8,463.5 260.1,463.5 266.3,463.5 272.6,463.5 278.9,463.5 278.9,463.5 285.2,463.5 291.5,463.5 297.8,463.5 304.1,463.5 
				304.1,463.5 310.4,463.5 316.7,463.5 323,463.5 329.2,463.5 329.3,463.5 335.5,463.5 341.8,463.5 348.1,463.5 348.1,463.5 
				354.4,463.5 360.7,463.5 367,463.5 373.3,463.5 373.3,463.5 379.6,463.5 385.9,463.5 392.2,463.5 398.4,463.5 398.4,463.5 
				404.7,463.5 411,463.5 417.3,463.5 423.6,463.5 423.6,463.5 429.9,463.5 436.2,463.5 442.5,463.5 442.5,463.5 448.8,463.5 
				455.1,463.5 461.4,463.5 467.6,463.5 467.6,463.5 473.9,463.5 480.2,463.5 486.5,463.5 492.8,463.5 492.8,463.5 499.1,463.5 
				505.4,463.5 511.7,463.5 518,463.5 524.3,463.5 530.6,463.5 536.8,463.5 536.8,463.5 543.1,463.5 549.4,463.5 555.7,463.5 
				555.7,463.5 562,463.5 568.3,463.5 574.6,463.5 580.9,463.5 580.9,463.5 587.2,463.5 593.5,463.5 599.8,463.5 606,463.5 
				606,463.5 612.3,463.5 618.6,463.5 624.9,463.5 631.2,463.5 631.2,463.5 637.5,463.5 637.5,294 			"/>
		</g>
		<line class="st5" x1="21" y1="463.5" x2="637.5" y2="463.5"/>
	</g>
	<g class="st0">
		<text transform="matrix(1 0 0 1 0.5889 405.0996)" class="st6 st7 st8">100</text>
	</g>
	<g class="st0">
		<text transform="matrix(1 0 0 1 0.5889 342.8496)" class="st6 st7 st8">200</text>
	</g>
	<g class="st0">
		<text transform="matrix(1 0 0 1 0.5889 281.3496)" class="st6 st7 st8">300</text>
	</g>
	<g class="st0">
		<text transform="matrix(1 0 0 1 0.5889 219.0996)" class="st6 st7 st8">400</text>
	</g>
	<g class="st0">
		<text transform="matrix(1 0 0 1 0.5889 157.5996)" class="st6 st7 st8">500</text>
	</g>
	<g class="st0">
		<text transform="matrix(1 0 0 1 0.5889 96.0996)" class="st6 st7 st8">600</text>
	</g>
	<g class="st0">
		<text transform="matrix(1 0 0 1 0.5889 33.8496)" class="st6 st7 st8">700</text>
	</g>
</g>
<polyline class="st9" points="55.7,461.5 62,461.5 68.2,460.2 74.5,458.4 80.8,455.3 87.1,453.5 93.4,450.4 99.7,447.3 106,444.9 
	112.3,439.4 118.6,438.1 124.9,438.1 131.2,438.1 137.4,438.1 143.7,436.3 150,434.4 156.3,435.7 162.6,433.8 168.9,432.6 
	175.2,433.8 181.5,427.7 187.8,426.5 194.1,425.2 200.4,423.4 206.7,422.8 212.9,422.8 219.2,420.9 225.5,425.8 231.8,415.4 
	238.1,419.1 244.4,417.3 250.7,421.5 257,420.3 263.3,415.4 269.6,419.1 275.9,419.7 282.2,396.4 288.4,393.9 294.7,377.3 
	301,365.7 307.3,363.8 313.6,356.5 319.9,366.9 326.2,387.2 332.5,392.1 338.8,403.7 345.1,419.7 351.4,422.8 357.6,425.8 
	363.9,428.3 370.2,428.3 376.5,427.7 382.8,427.1 389.1,425.2 395.4,409.9 401.7,412.3 408,413 414.3,407.4 420.6,408.7 
	426.9,404.4 433.1,400.7 439.4,411.1 445.7,397.6 452,393.9 458.3,397 464.6,395.8 470.9,367.5 477.2,362.6 483.5,358.3 
	489.8,361.4 496.1,358.3 502.3,352.8 508.6,351.6 514.9,368.7 521.2,361.4 527.5,354.6 533.8,346.6 540.1,339.3 546.4,319.6 
	552.7,306.1 559,297.5 565.3,298.7 571.6,280.3 577.8,273 584.1,261.9 590.4,265 596.7,261.3 603,253.3 609.3,209.1 615.6,200.5 
	621.9,193.8 628.2,184.5 634.5,190.7 "/>
<text transform="matrix(1 0 0 1 319.5108 328.2766)" class="st10 st11 st12">7-day average</text>
<g>
	<g>
		<path class="st13" d="M357.2,334.3c5.7,10.5,4.3,24.1-3.8,35.7c-5.9,8.3-13.5,13.3-18.6,15.9"/>
		<g>
			<polygon class="st14" points="335.5,382.5 335.7,385.5 337.9,387.5 330.8,387.9 			"/>
		</g>
	</g>
</g>
<g>
	<text transform="matrix(1 0 0 1 617.8662 477.2581)" class="st15 st7 st8">6/16</text>
</g>
<g>
	<text transform="matrix(1 0 0 1 15.8747 477.2583)" class="st15 st7 st8">3/11</text>
</g>
</svg>
