<?xml version="1.0" encoding="utf-8"?>
<!-- Generator: Adobe Illustrator 23.0.1, SVG Export Plug-In . SVG Version: 6.00 Build 0)  -->
<svg version="1.1" id="Layer_1" xmlns="http://www.w3.org/2000/svg" xmlns:xlink="http://www.w3.org/1999/xlink" x="0px" y="0px"
	 viewBox="0 0 637.5 487.5" style="enable-background:new 0 0 637.5 487.5;" xml:space="preserve">
<style type="text/css">
	.st0{clip-path:url(#SVGID_2_);}
	.st1{clip-path:url(#SVGID_4_);fill:none;stroke:#E8E8E8;stroke-width:0.75;stroke-miterlimit:10;}
	.st2{clip-path:url(#SVGID_4_);fill:#C71E1D;}
	.st3{clip-path:url(#SVGID_4_);}
	.st4{fill:#C71E1D;fill-opacity:0.6;stroke:#000000;stroke-width:0.5;stroke-miterlimit:10;}
	.st5{clip-path:url(#SVGID_4_);fill:none;stroke:#333333;stroke-width:0.75;stroke-miterlimit:10;}
	.st6{fill:#A6A6A6;}
	.st7{font-family:'Roboto-Regular';}
	.st8{font-size:9px;}
	.st9{fill:#333333;}
	.st10{fill:#FACE00;fill-opacity:0.85;stroke:#000000;stroke-width:0.5;stroke-miterlimit:10;}
</style>
<g>
	<defs>
		<rect id="SVGID_1_" width="637.5" height="487.5"/>
	</defs>
	<clipPath id="SVGID_2_">
		<use xlink:href="#SVGID_1_"  style="overflow:visible;"/>
	</clipPath>
	<g class="st0">
		<defs>
			<rect id="SVGID_3_" width="637.5" height="483"/>
		</defs>
		<clipPath id="SVGID_4_">
			<use xlink:href="#SVGID_3_"  style="overflow:visible;"/>
		</clipPath>
		<line class="st1" x1="21" y1="5.2" x2="637.5" y2="5.2"/>
		<line class="st1" x1="21" y1="56.2" x2="637.5" y2="56.2"/>
		<line class="st1" x1="21" y1="107.2" x2="637.5" y2="107.2"/>
		<line class="st1" x1="21" y1="158.2" x2="637.5" y2="158.2"/>
		<line class="st1" x1="21" y1="208.5" x2="637.5" y2="208.5"/>
		<line class="st1" x1="21" y1="259.5" x2="637.5" y2="259.5"/>
		<line class="st1" x1="21" y1="310.5" x2="637.5" y2="310.5"/>
		<line class="st1" x1="21" y1="361.5" x2="637.5" y2="361.5"/>
		<line class="st1" x1="21" y1="412.5" x2="637.5" y2="412.5"/>
		<path class="st2" d="M69.7,463.5h8.1H69.7z"/>
		<g class="st3">
			<polygon class="st4" points="61.6,459.8 53.4,459.8 53.4,460.5 45.3,460.5 37.2,460.5 37.2,458.2 29.1,458.2 29.1,462.8 
				21,462.8 21,463.5 29.1,463.5 29.1,463.5 37.2,463.5 45.3,463.5 53.4,463.5 61.6,463.5 69.7,463.5 69.7,457.5 61.6,457.5 			"/>
			<polygon class="st4" points="629.4,354.8 629.4,313.5 621.3,313.5 621.3,297.8 613.2,297.8 613.2,306.8 605.1,306.8 605.1,0 
				596.9,0 596.9,381.8 588.8,381.8 588.8,369.8 580.7,369.8 580.7,390 572.6,390 572.6,279 564.5,279 564.5,346.5 556.4,346.5 
				556.4,364.5 548.3,364.5 548.3,330.8 540.2,330.8 540.2,390 532,390 532,340.5 523.9,340.5 523.9,432 515.8,432 515.8,435 
				507.7,435 507.7,222 499.6,222 499.6,409.5 491.5,409.5 491.5,378.8 483.4,378.8 483.4,375.8 475.3,375.8 475.3,406.5 
				467.2,406.5 467.2,424.5 459,424.5 459,403.5 450.9,403.5 450.9,400.5 442.8,400.5 442.8,434.2 434.7,434.2 434.7,387.8 
				426.6,387.8 426.6,381.8 418.5,381.8 418.5,404.2 410.4,404.2 410.4,394.5 402.3,394.5 402.3,369.8 394.1,369.8 394.1,363 
				386,363 386,248.2 377.9,248.2 377.9,252.8 369.8,252.8 369.8,330.8 361.7,330.8 361.7,167.2 353.6,167.2 353.6,270 345.5,270 
				345.5,459.8 337.4,459.8 337.4,380.2 329.2,380.2 329.2,387 321.1,387 321.1,441.8 313,441.8 313,360.8 304.9,360.8 304.9,440.2 
				296.8,440.2 296.8,264.8 288.7,264.8 288.7,410.2 280.6,410.2 280.6,437.2 272.5,437.2 272.5,406.5 264.4,406.5 264.4,393 
				256.2,393 256.2,381.8 248.1,381.8 248.1,392.2 240,392.2 240,387.8 231.9,387.8 231.9,351.8 223.8,351.8 223.8,458.2 
				215.7,458.2 215.7,407.2 207.6,407.2 207.6,403.5 199.5,403.5 199.5,402.8 191.3,402.8 191.3,406.5 183.2,406.5 183.2,403.5 
				175.1,403.5 175.1,423 167,423 167,440.2 158.9,440.2 158.9,426 150.8,426 150.8,421.5 142.7,421.5 142.7,386.2 134.6,386.2 
				134.6,432 126.5,432 126.5,426.8 118.3,426.8 118.3,420 110.2,420 110.2,441 102.1,441 102.1,424.5 94,424.5 94,434.2 
				85.9,434.2 85.9,452.2 77.8,452.2 77.8,463.5 85.9,463.5 85.9,463.5 94,463.5 102.1,463.5 110.2,463.5 118.3,463.5 126.5,463.5 
				134.6,463.5 142.7,463.5 142.7,463.5 150.8,463.5 158.9,463.5 167,463.5 175.1,463.5 183.2,463.5 191.3,463.5 199.5,463.5 
				207.6,463.5 215.7,463.5 223.8,463.5 231.9,463.5 240,463.5 240,463.5 248.1,463.5 256.2,463.5 256.2,463.5 264.4,463.5 
				272.5,463.5 280.6,463.5 288.7,463.5 296.8,463.5 304.9,463.5 313,463.5 321.1,463.5 329.2,463.5 337.4,463.5 345.5,463.5 
				353.6,463.5 361.7,463.5 369.8,463.5 377.9,463.5 386,463.5 394.1,463.5 402.3,463.5 410.4,463.5 410.4,463.5 418.5,463.5 
				426.6,463.5 434.7,463.5 442.8,463.5 450.9,463.5 459,463.5 467.2,463.5 475.3,463.5 483.4,463.5 491.5,463.5 499.6,463.5 
				507.7,463.5 515.8,463.5 523.9,463.5 523.9,463.5 532,463.5 540.2,463.5 540.2,463.5 548.3,463.5 548.3,463.5 556.4,463.5 
				564.5,463.5 564.5,463.5 572.6,463.5 580.7,463.5 580.7,463.5 588.8,463.5 588.8,463.5 596.9,463.5 605.1,463.5 605.1,463.5 
				613.2,463.5 621.3,463.5 621.3,463.5 629.4,463.5 637.5,463.5 637.5,354.8 			"/>
		</g>
		<line class="st5" x1="21" y1="463.5" x2="637.5" y2="463.5"/>
	</g>
	<g class="st0">
		<text transform="matrix(1 0 0 1 5.2559 414.8496)" class="st6 st7 st8">50</text>
	</g>
	<g class="st0">
		<text transform="matrix(1 0 0 1 2.929688e-03 363.8496)" class="st6 st7 st8">100</text>
	</g>
	<g class="st0">
		<text transform="matrix(1 0 0 1 2.929688e-03 312.8496)" class="st6 st7 st8">150</text>
	</g>
	<g class="st0">
		<text transform="matrix(1 0 0 1 2.929688e-03 261.8496)" class="st6 st7 st8">200</text>
	</g>
	<g class="st0">
		<text transform="matrix(1 0 0 1 2.929688e-03 210.8496)" class="st6 st7 st8">250</text>
	</g>
	<g class="st0">
		<text transform="matrix(1 0 0 1 2.929688e-03 160.5996)" class="st6 st7 st8">300</text>
	</g>
	<g class="st0">
		<text transform="matrix(1 0 0 1 2.929688e-03 109.5996)" class="st6 st7 st8">350</text>
	</g>
	<g class="st0">
		<text transform="matrix(1 0 0 1 2.929688e-03 58.5996)" class="st6 st7 st8">400</text>
	</g>
	<g class="st0">
		<text transform="matrix(1 0 0 1 2.929688e-03 7.5996)" class="st6 st7 st8">450</text>
	</g>
</g>
<text transform="matrix(1 0 0 1 522.6837 24.3783)" class="st9 st7 st8">New cases</text>
<rect x="507.3" y="16.3" class="st4" width="9.4" height="9.4"/>
<text transform="matrix(1 0 0 1 522.6837 40.9628)" class="st9 st7 st8">7-day average</text>
<rect x="507.3" y="32.9" class="st10" width="9.4" height="9.4"/>
<g>
	<text transform="matrix(1 0 0 1 617.5631 477.791)" class="st9 st7 st8">5/25</text>
</g>
<g>
	<text transform="matrix(1 0 0 1 15.6727 477.7907)" class="st9 st7 st8">3/11</text>
</g>
<polygon class="st10" points="629.4,289.5 629.4,294.8 621.3,294.8 621.3,289.5 613.2,289.5 613.2,297 605.1,297 605.1,305.3 
	596.9,305.3 596.9,351.8 588.8,351.8 588.8,354 580.7,354 580.7,348.8 572.6,348.8 572.6,354.8 564.5,354.8 564.5,377.3 
	556.4,377.3 556.4,360 548.3,360 548.3,366 540.2,366 540.2,372.8 532,372.8 532,371.3 523.9,371.3 523.9,380.3 515.8,380.3 
	515.8,378.8 507.7,378.8 507.7,375 499.6,375 499.6,400.5 491.5,400.5 491.5,403.5 483.4,403.5 483.4,404.3 475.3,404.3 
	475.3,405.8 467.2,405.8 459,405.8 459,401.3 450.9,401.3 450.9,396.8 442.8,396.8 442.8,391.5 434.7,391.5 434.7,365.3 
	426.6,365.3 426.6,345.8 418.5,345.8 418.5,337.5 410.4,337.5 410.4,303.8 402.3,303.8 402.3,286.5 394.1,286.5 394.1,298.5 
	386,298.5 386,301.5 377.9,301.5 377.9,321 369.8,321 369.8,348.8 361.7,348.8 361.7,352.5 353.6,352.5 353.6,391.5 345.5,391.5 
	345.5,390 337.4,390 337.4,384 329.2,384 329.2,392.3 321.1,392.3 321.1,394.5 313,394.5 313,387 304.9,387 304.9,390 296.8,390 
	296.8,384 288.7,384 288.7,401.3 280.6,401.3 280.6,393 272.5,393 272.5,396.8 264.4,396.8 256.2,396.8 256.2,397.5 248.1,397.5 
	248.1,400.5 240,400.5 240,402.8 231.9,402.8 231.9,404.3 223.8,404.3 223.8,414.8 215.7,414.8 215.7,412.5 207.6,412.5 
	207.6,414.8 199.5,414.8 199.5,417.8 191.3,417.8 191.3,415.5 183.2,415.5 183.2,418.5 175.1,418.5 175.1,421.5 167,421.5 
	158.9,421.5 150.8,421.5 142.7,421.5 142.7,423.8 134.6,423.8 134.6,432.8 126.5,432.8 126.5,437.3 118.3,437.3 118.3,442.5 
	110.2,442.5 110.2,447 102.1,447 102.1,450 94,450 94,455.3 85.9,455.3 85.9,458.3 77.8,458.3 77.8,460.5 69.7,460.5 61.6,460.5 
	61.6,463.5 69.7,463.5 77.8,463.5 85.9,463.5 85.9,463.5 94,463.5 102.1,463.5 110.2,463.5 118.3,463.5 126.5,463.5 134.6,463.5 
	142.7,463.5 142.7,463.5 150.8,463.5 158.9,463.5 167,463.5 175.1,463.5 183.2,463.5 191.3,463.5 199.5,463.5 207.6,463.5 
	215.7,463.5 223.8,463.5 231.9,463.5 240,463.5 240,463.5 248.1,463.5 256.2,463.5 256.2,463.5 264.4,463.5 272.5,463.5 
	280.6,463.5 288.7,463.5 296.8,463.5 304.9,463.5 313,463.5 321.1,463.5 329.2,463.5 337.4,463.5 345.5,463.5 353.6,463.5 
	361.7,463.5 369.8,463.5 377.9,463.5 386,463.5 394.1,463.5 402.3,463.5 410.4,463.5 410.4,463.5 418.5,463.5 426.6,463.5 
	434.7,463.5 442.8,463.5 450.9,463.5 459,463.5 467.2,463.5 475.3,463.5 483.4,463.5 491.5,463.5 499.6,463.5 507.7,463.5 
	515.8,463.5 523.9,463.5 523.9,463.5 532,463.5 540.2,463.5 540.2,463.5 548.3,463.5 548.3,463.5 556.4,463.5 564.5,463.5 
	564.5,463.5 572.6,463.5 580.7,463.5 580.7,463.5 588.8,463.5 588.8,463.5 596.9,463.5 605.1,463.5 605.1,463.5 613.2,463.5 
	621.3,463.5 621.3,463.5 629.4,463.5 637.5,463.5 637.5,289.5 "/>
</svg>
