<?xml version="1.0" encoding="utf-8"?>
<!-- Generator: Adobe Illustrator 23.0.1, SVG Export Plug-In . SVG Version: 6.00 Build 0)  -->
<svg version="1.1" id="Layer_1" xmlns="http://www.w3.org/2000/svg" xmlns:xlink="http://www.w3.org/1999/xlink" x="0px" y="0px"
	 viewBox="0 0 637.5 487.5" style="enable-background:new 0 0 637.5 487.5;" xml:space="preserve">
<style type="text/css">
	.st0{clip-path:url(#SVGID_2_);}
	.st1{clip-path:url(#SVGID_4_);fill:none;stroke:#E8E8E8;stroke-width:0.75;stroke-miterlimit:10;}
	.st2{clip-path:url(#SVGID_4_);fill:#C71E1D;}
	.st3{clip-path:url(#SVGID_4_);}
	.st4{fill:#C71E1D;fill-opacity:0.5;stroke:#000000;stroke-width:0.25;stroke-miterlimit:10;}
	.st5{clip-path:url(#SVGID_4_);fill:none;stroke:#333333;stroke-width:0.75;stroke-miterlimit:10;}
	.st6{fill:#A6A6A6;}
	.st7{font-family:'Roboto-Regular';}
	.st8{font-size:9px;}
	.st9{fill:none;stroke:#A0001C;stroke-width:2;stroke-linecap:round;stroke-linejoin:round;stroke-miterlimit:10;}
	.st10{fill:#9A1D2B;}
	.st11{font-family:'ArialMT';}
	.st12{font-size:11px;}
	.st13{fill:none;stroke:#D31D2B;stroke-width:0.75;stroke-miterlimit:10;}
	.st14{fill:#D31D2B;stroke:#D31D2B;stroke-width:0.25;stroke-miterlimit:10;}
	.st15{fill:#333333;}
</style>
<g>
	<defs>
		<rect id="SVGID_1_" width="637.5" height="487.5"/>
	</defs>
	<clipPath id="SVGID_2_">
		<use xlink:href="#SVGID_1_"  style="overflow:visible;"/>
	</clipPath>
	<g class="st0">
		<defs>
			<rect id="SVGID_3_" width="637.5" height="483"/>
		</defs>
		<clipPath id="SVGID_4_">
			<use xlink:href="#SVGID_3_"  style="overflow:visible;"/>
		</clipPath>
		<line class="st1" x1="21" y1="5.2" x2="637.5" y2="5.2"/>
		<line class="st1" x1="21" y1="56.2" x2="637.5" y2="56.2"/>
		<line class="st1" x1="21" y1="107.2" x2="637.5" y2="107.2"/>
		<line class="st1" x1="21" y1="158.2" x2="637.5" y2="158.2"/>
		<line class="st1" x1="21" y1="208.5" x2="637.5" y2="208.5"/>
		<line class="st1" x1="21" y1="259.5" x2="637.5" y2="259.5"/>
		<line class="st1" x1="21" y1="310.5" x2="637.5" y2="310.5"/>
		<line class="st1" x1="21" y1="361.5" x2="637.5" y2="361.5"/>
		<line class="st1" x1="21" y1="412.5" x2="637.5" y2="412.5"/>
		<path class="st2" d="M64.5,463.5h7.3H64.5z"/>
		<g class="st3">
			<polygon class="st4" points="57.3,459.8 50,459.8 50,460.5 42.8,460.5 35.5,460.5 35.5,458.2 28.3,458.2 28.3,462.8 21,462.8 
				21,463.5 28.3,463.5 35.5,463.5 42.8,463.5 50,463.5 57.3,463.5 64.5,463.5 64.5,457.5 57.3,457.5 			"/>
			<polygon class="st4" points="629.1,209.9 629.1,81.6 621.9,81.6 621.9,270 614.7,270 614.7,219 607.5,219 607.5,222.8 
				600.2,222.8 600.2,219.8 593,219.8 593,197.2 585.7,197.2 585.7,364.5 578.6,364.5 578.6,309.8 571.3,309.8 571.3,354.8 
				564.1,354.8 564.1,313.5 556.8,313.5 556.8,297.8 549.6,297.8 549.6,306.8 542.4,306.8 542.4,0 535.2,0 535.2,381.8 527.9,381.8 
				527.9,369.8 520.7,369.8 520.7,390 513.4,390 513.4,279 506.2,279 506.2,346.5 498.9,346.5 498.9,364.5 491.8,364.5 491.8,330.8 
				484.5,330.8 484.5,390 477.3,390 477.3,340.5 470,340.5 470,432 462.8,432 462.8,435 455.6,435 455.6,222 448.4,222 448.4,409.5 
				441.1,409.5 441.1,378.8 433.9,378.8 433.9,375.8 426.6,375.8 426.6,406.5 419.4,406.5 419.4,424.5 412.2,424.5 412.2,403.5 
				405,403.5 405,400.5 397.7,400.5 397.7,434.2 390.5,434.2 390.5,387.8 383.3,387.8 383.3,381.8 376.1,381.8 376.1,404.2 
				368.8,404.2 368.8,394.5 361.6,394.5 361.6,369.8 354.3,369.8 354.3,363 347,363 347,248.2 339.8,248.2 339.8,252.8 332.7,252.8 
				332.7,330.8 325.4,330.8 325.4,167.2 318.1,167.2 318.1,270 310.9,270 310.9,459.8 303.8,459.8 303.8,380.2 296.5,380.2 
				296.5,387 289.2,387 289.2,441.8 282,441.8 282,360.8 274.7,360.8 274.7,440.2 267.6,440.2 267.6,264.8 260.3,264.8 260.3,410.2 
				253.1,410.2 253.1,437.2 245.8,437.2 245.8,406.5 238.6,406.5 238.6,393 231.3,393 231.3,381.8 224.1,381.8 224.1,392.2 
				216.8,392.2 216.8,387.8 209.6,387.8 209.6,351.8 202.3,351.8 202.3,458.2 195.1,458.2 195.1,407.2 187.8,407.2 187.8,403.5 
				180.6,403.5 180.6,402.8 173.3,402.8 173.3,406.5 166.1,406.5 166.1,403.5 158.8,403.5 158.8,423 151.6,423 151.6,440.2 
				144.3,440.2 144.3,426 137,426 137,421.5 129.8,421.5 129.8,386.2 122.5,386.2 122.5,432 115.3,432 115.3,426.8 108,426.8 
				108,420 100.8,420 100.8,441 93.5,441 93.5,424.5 86.3,424.5 86.3,434.2 79,434.2 79,452.2 71.8,452.2 71.8,463.5 79,463.5 
				86.3,463.5 93.5,463.5 100.8,463.5 108,463.5 115.3,463.5 122.5,463.5 129.8,463.5 137,463.5 144.3,463.5 151.6,463.5 
				158.8,463.5 166.1,463.5 173.3,463.5 180.6,463.5 187.8,463.5 187.8,463.5 195.1,463.5 202.3,463.5 209.6,463.5 216.8,463.5 
				224.1,463.5 231.3,463.5 238.6,463.5 245.8,463.5 253.1,463.5 260.3,463.5 267.5,463.5 267.6,463.5 274.7,463.5 282,463.5 
				289.2,463.5 296.5,463.5 303.6,463.5 303.8,463.5 310.9,463.5 318.1,463.5 325.4,463.5 332.7,463.5 339.8,463.5 339.9,463.5 
				347,463.5 354.3,463.5 361.6,463.5 368.8,463.5 376.1,463.5 383.2,463.5 383.3,463.5 390.5,463.5 397.7,463.5 405,463.5 
				412.2,463.5 419.4,463.5 419.5,463.5 426.6,463.5 433.9,463.5 441.1,463.5 448.4,463.5 455.5,463.5 455.6,463.5 462.8,463.5 
				470,463.5 477.3,463.5 484.5,463.5 491.8,463.5 498.9,463.5 499,463.5 506.2,463.5 513.4,463.5 520.7,463.5 527.9,463.5 
				535.2,463.5 542.3,463.5 542.4,463.5 549.6,463.5 556.8,463.5 564.1,463.5 571.3,463.5 578.5,463.5 578.6,463.5 585.7,463.5 
				593,463.5 600.2,463.5 607.5,463.5 614.7,463.5 622,463.5 622,463.4 629.1,463.4 636.4,463.4 636.4,209.9 			"/>
		</g>
		<line class="st5" x1="21" y1="463.5" x2="637.5" y2="463.5"/>
	</g>
	<g class="st0">
		<text transform="matrix(1 0 0 1 5.6426 415.5996)" class="st6 st7 st8">50</text>
	</g>
	<g class="st0">
		<text transform="matrix(1 0 0 1 0.5889 364.5996)" class="st6 st7 st8">100</text>
	</g>
	<g class="st0">
		<text transform="matrix(1 0 0 1 0.5889 313.5996)" class="st6 st7 st8">150</text>
	</g>
	<g class="st0">
		<text transform="matrix(1 0 0 1 0.5889 262.5996)" class="st6 st7 st8">200</text>
	</g>
	<g class="st0">
		<text transform="matrix(1 0 0 1 0.5889 211.5996)" class="st6 st7 st8">250</text>
	</g>
	<g class="st0">
		<text transform="matrix(1 0 0 1 0.5889 161.3496)" class="st6 st7 st8">300</text>
	</g>
	<g class="st0">
		<text transform="matrix(1 0 0 1 0.5889 110.3496)" class="st6 st7 st8">350</text>
	</g>
	<g class="st0">
		<text transform="matrix(1 0 0 1 0.5889 59.3496)" class="st6 st7 st8">400</text>
	</g>
	<g class="st0">
		<text transform="matrix(1 0 0 1 0.5889 8.3496)" class="st6 st7 st8">450</text>
	</g>
</g>
<polyline class="st9" points="61.1,461.2 68.3,461.2 75.6,459.2 82.8,456.1 90,451.1 97.3,448 104.5,443 111.8,437.9 119,433.9 
	126.2,424.7 133.5,422.7 140.7,422.7 147.9,422.7 155.2,422.7 162.4,419.7 169.6,416.7 176.9,418.7 184.1,415.6 191.3,413.6 
	198.6,415.6 205.8,405.5 213.1,403.5 220.3,401.5 227.5,398.4 234.8,397.4 242,397.4 249.2,394.4 256.5,402.5 263.7,385.3 
	270.9,391.4 278.2,388.3 285.4,395.4 292.7,393.4 299.9,385.3 307.1,391.4 314.4,392.4 321.6,353.9 328.8,349.9 336.1,322.5 
	343.3,303.3 350.5,300.3 357.8,288.1 365,305.3 372.3,338.7 379.5,346.8 386.7,366 394,392.4 401.2,397.4 408.4,402.5 415.7,406.5 
	422.9,406.5 430.1,405.5 437.4,404.5 444.6,401.5 451.9,376.2 459.1,380.2 466.3,381.2 473.6,372.1 480.8,374.1 488,367.1 
	495.3,361 502.5,378.2 509.7,355.9 517,349.9 524.2,354.9 531.4,352.9 538.7,306.3 545.9,298.2 553.2,291.2 560.4,296.2 
	567.6,291.2 574.9,282 582.1,280 589.3,308.4 596.6,296.2 603.8,285.1 611,271.9 618.3,259.8 625.5,227.4 632.8,205.1 "/>
<text transform="matrix(1 0 0 1 371.6461 283.1993)" class="st10 st11 st12">7-day average</text>
<g>
	<g>
		<path class="st13" d="M409.4,289.2c5.7,10.5,4.3,24.1-3.8,35.7c-5.9,8.3-13.5,13.3-18.6,15.9"/>
		<g>
			<polygon class="st14" points="387.7,337.4 387.8,340.5 390,342.4 383,342.8 			"/>
		</g>
	</g>
</g>
<g>
	<text transform="matrix(1 0 0 1 622.8846 477.0496)" class="st15 st7 st8">6/3</text>
</g>
<g>
	<text transform="matrix(1 0 0 1 14.9944 477.0495)" class="st15 st7 st8">3/11</text>
</g>
</svg>
