<?xml version="1.0" encoding="utf-8"?>
<!-- Generator: Adobe Illustrator 23.0.1, SVG Export Plug-In . SVG Version: 6.00 Build 0)  -->
<svg version="1.1" id="Layer_1" xmlns="http://www.w3.org/2000/svg" xmlns:xlink="http://www.w3.org/1999/xlink" x="0px" y="0px"
	 viewBox="0 0 637.5 487.5" style="enable-background:new 0 0 637.5 487.5;" xml:space="preserve">
<style type="text/css">
	.st0{clip-path:url(#SVGID_2_);}
	.st1{clip-path:url(#SVGID_4_);fill:none;stroke:#E8E8E8;stroke-width:0.75;stroke-miterlimit:10;}
	.st2{clip-path:url(#SVGID_4_);fill:#C71E1D;}
	.st3{clip-path:url(#SVGID_4_);}
	.st4{fill:#C71E1D;fill-opacity:0.5;stroke:#000000;stroke-width:0.25;stroke-miterlimit:10;}
	.st5{clip-path:url(#SVGID_4_);fill:none;stroke:#333333;stroke-width:0.75;stroke-miterlimit:10;}
	.st6{fill:#A6A6A6;}
	.st7{font-family:'Roboto-Regular';}
	.st8{font-size:9px;}
	.st9{fill:#9A1D2B;}
	.st10{font-family:'ArialMT';}
	.st11{font-size:11px;}
	.st12{fill:#333333;}
	.st13{fill:none;stroke:#E8E8E8;stroke-width:2;stroke-miterlimit:10;}
	.st14{fill:none;stroke:#A0001C;stroke-width:2;stroke-linecap:round;stroke-linejoin:round;stroke-miterlimit:10;}
	.st15{fill:none;stroke:#D31D2B;stroke-width:0.75;stroke-miterlimit:10;}
	.st16{fill:#D31D2B;stroke:#D31D2B;stroke-width:0.25;stroke-miterlimit:10;}
</style>
<g>
	<defs>
		<rect id="SVGID_1_" width="637.5" height="487.5"/>
	</defs>
	<clipPath id="SVGID_2_">
		<use xlink:href="#SVGID_1_"  style="overflow:visible;"/>
	</clipPath>
	<g class="st0">
		<defs>
			<rect id="SVGID_3_" width="637.5" height="483"/>
		</defs>
		<clipPath id="SVGID_4_">
			<use xlink:href="#SVGID_3_"  style="overflow:visible;"/>
		</clipPath>
		<line class="st1" x1="21" y1="5.2" x2="637.5" y2="5.2"/>
		<line class="st1" x1="21" y1="56.2" x2="637.5" y2="56.2"/>
		<line class="st1" x1="21" y1="107.2" x2="637.5" y2="107.2"/>
		<line class="st1" x1="21" y1="158.2" x2="637.5" y2="158.2"/>
		<line class="st1" x1="21" y1="208.5" x2="637.5" y2="208.5"/>
		<line class="st1" x1="21" y1="259.5" x2="637.5" y2="259.5"/>
		<line class="st1" x1="21" y1="310.5" x2="637.5" y2="310.5"/>
		<line class="st1" x1="21" y1="361.5" x2="637.5" y2="361.5"/>
		<line class="st1" x1="21" y1="412.5" x2="637.5" y2="412.5"/>
		<path class="st2" d="M68.4,463.5h7.9H68.4z"/>
		<g class="st3">
			<polygon class="st4" points="60.5,459.8 52.6,459.8 52.6,460.5 44.7,460.5 36.8,460.5 36.8,458.2 28.9,458.2 28.9,462.8 
				21,462.8 21,463.5 28.9,463.5 36.8,463.5 36.8,463.5 44.7,463.5 52.6,463.5 52.6,463.5 60.5,463.5 60.5,463.5 68.4,463.5 
				68.4,457.5 60.5,457.5 			"/>
			<polygon class="st4" points="629.6,364.5 629.6,309.8 621.7,309.8 621.7,354.8 613.8,354.8 613.8,313.5 605.9,313.5 605.9,297.8 
				598,297.8 598,306.8 590.1,306.8 590.1,0 582.2,0 582.2,381.8 574.3,381.8 574.3,369.8 566.4,369.8 566.4,390 558.5,390 
				558.5,279 550.6,279 550.6,346.5 542.7,346.5 542.7,364.5 534.8,364.5 534.8,330.8 526.8,330.8 526.8,390 518.9,390 518.9,340.5 
				511,340.5 511,432 503.1,432 503.1,435 495.2,435 495.2,222 487.3,222 487.3,409.5 479.4,409.5 479.4,378.8 471.5,378.8 
				471.5,375.8 463.6,375.8 463.6,406.5 455.7,406.5 455.7,424.5 447.8,424.5 447.8,403.5 439.9,403.5 439.9,400.5 432,400.5 
				432,434.2 424.1,434.2 424.1,387.8 416.2,387.8 416.2,381.8 408.3,381.8 408.3,404.2 400.4,404.2 400.4,394.5 392.5,394.5 
				392.5,369.8 384.6,369.8 384.6,363 376.7,363 376.7,248.2 368.8,248.2 368.8,252.8 360.9,252.8 360.9,330.8 353,330.8 353,167.2 
				345.1,167.2 345.1,270 337.2,270 337.2,459.8 329.3,459.8 329.3,380.2 321.3,380.2 321.3,387 313.4,387 313.4,441.8 305.5,441.8 
				305.5,360.8 297.6,360.8 297.6,440.2 289.7,440.2 289.7,264.8 281.8,264.8 281.8,410.2 273.9,410.2 273.9,437.2 266,437.2 
				266,406.5 258.1,406.5 258.1,393 250.2,393 250.2,381.8 242.3,381.8 242.3,392.2 234.4,392.2 234.4,387.8 226.5,387.8 
				226.5,351.8 218.6,351.8 218.6,458.2 210.7,458.2 210.7,407.2 202.8,407.2 202.8,403.5 194.9,403.5 194.9,402.8 187,402.8 
				187,406.5 179.1,406.5 179.1,403.5 171.2,403.5 171.2,423 163.3,423 163.3,440.2 155.4,440.2 155.4,426 147.5,426 147.5,421.5 
				139.6,421.5 139.6,386.2 131.7,386.2 131.7,432 123.8,432 123.8,426.8 115.8,426.8 115.8,420 107.9,420 107.9,441 100,441 
				100,424.5 92.1,424.5 92.1,434.2 84.2,434.2 84.2,452.2 76.3,452.2 76.3,463.5 84.2,463.5 92.1,463.5 100,463.5 100,463.5 
				107.9,463.5 115.8,463.5 115.8,463.5 123.8,463.5 123.8,463.5 131.7,463.5 139.6,463.5 139.6,463.5 147.5,463.5 155.4,463.5 
				163.3,463.5 163.3,463.5 171.2,463.5 179.1,463.5 179.1,463.5 187,463.5 194.9,463.5 202.8,463.5 202.8,463.5 210.7,463.5 
				218.6,463.5 226.5,463.5 226.5,463.5 234.4,463.5 242.3,463.5 242.3,463.5 250.2,463.5 258.1,463.5 266,463.5 266,463.5 
				273.9,463.5 281.8,463.5 289.7,463.5 289.7,463.5 297.6,463.5 305.5,463.5 305.5,463.5 313.4,463.5 321.3,463.5 329.2,463.5 
				329.3,463.5 337.2,463.5 345.1,463.5 345.1,463.5 353,463.5 360.9,463.5 368.8,463.5 368.8,463.5 376.7,463.5 384.6,463.5 
				392.5,463.5 392.5,463.5 400.4,463.5 408.3,463.5 408.3,463.5 416.2,463.5 424.1,463.5 432,463.5 432,463.5 439.9,463.5 
				447.8,463.5 447.8,463.5 455.7,463.5 463.6,463.5 471.5,463.5 471.5,463.5 479.4,463.5 487.3,463.5 495.2,463.5 495.2,463.5 
				503.1,463.5 511,463.5 511,463.5 518.9,463.5 526.8,463.5 526.8,463.5 534.8,463.5 542.7,463.5 550.6,463.5 550.6,463.5 
				558.5,463.5 566.4,463.5 566.4,463.5 574.3,463.5 582.2,463.5 590.1,463.5 590.1,463.5 598,463.5 605.9,463.5 613.8,463.5 
				613.8,463.5 621.7,463.5 629.6,463.5 629.6,463.5 637.5,463.5 637.5,364.5 			"/>
		</g>
		<line class="st5" x1="21" y1="463.5" x2="637.5" y2="463.5"/>
	</g>
	<g class="st0">
		<text transform="matrix(1 0 0 1 5.2559 414.8496)" class="st6 st7 st8">50</text>
	</g>
	<g class="st0">
		<text transform="matrix(1 0 0 1 2.929688e-03 363.8496)" class="st6 st7 st8">100</text>
	</g>
	<g class="st0">
		<text transform="matrix(1 0 0 1 2.929688e-03 312.8496)" class="st6 st7 st8">150</text>
	</g>
	<g class="st0">
		<text transform="matrix(1 0 0 1 2.929688e-03 261.8496)" class="st6 st7 st8">200</text>
	</g>
	<g class="st0">
		<text transform="matrix(1 0 0 1 2.929688e-03 210.8496)" class="st6 st7 st8">250</text>
	</g>
	<g class="st0">
		<text transform="matrix(1 0 0 1 2.929688e-03 160.5996)" class="st6 st7 st8">300</text>
	</g>
	<g class="st0">
		<text transform="matrix(1 0 0 1 2.929688e-03 109.5996)" class="st6 st7 st8">350</text>
	</g>
	<g class="st0">
		<text transform="matrix(1 0 0 1 2.929688e-03 58.5996)" class="st6 st7 st8">400</text>
	</g>
	<g class="st0">
		<text transform="matrix(1 0 0 1 2.929688e-03 7.5996)" class="st6 st7 st8">450</text>
	</g>
</g>
<text transform="matrix(1 0 0 1 405.9098 280.2532)" class="st9 st10 st11">7-day average</text>
<g>
	<text transform="matrix(1 0 0 1 618.3661 477.6204)" class="st12 st7 st8">5/28</text>
</g>
<g>
	<text transform="matrix(1 0 0 1 15.1429 477.6207)" class="st12 st7 st8">3/11</text>
</g>
<path class="st13" d="M627.2,312.3"/>
<path class="st13" d="M10.8,312.3"/>
<polyline class="st14" points="64.6,460.8 72.5,460.8 80.4,458.8 88.3,455.7 96.2,450.6 104.1,447.6 112,442.5 119.9,437.4 
	127.8,433.3 135.7,424.1 143.6,422.1 151.5,422.1 159.4,422.1 167.3,422.1 175.2,419 183.1,415.9 191,418 198.9,414.9 206.8,412.9 
	214.7,414.9 222.6,404.7 230.5,402.7 238.4,400.6 246.3,397.6 254.2,396.6 262.1,396.6 270,393.5 277.9,401.7 285.8,384.3 
	293.7,390.4 301.6,387.4 309.5,394.5 317.4,392.5 325.3,384.3 333.2,390.4 341.1,391.5 349,352.7 356.9,348.6 364.8,321.1 
	372.7,301.7 380.6,298.7 388.5,286.4 396.4,303.8 404.3,337.4 412.2,345.6 420.1,364.9 428,391.5 435.9,396.6 443.8,401.7 
	451.7,405.7 459.6,405.7 467.5,404.7 475.4,403.7 483.3,400.6 491.2,375.1 499.1,379.2 507,380.2 514.9,371.1 522.8,373.1 
	530.7,366 538.6,359.8 546.5,377.2 554.4,354.8 562.2,348.6 570.1,353.7 578,351.7 585.9,304.8 593.8,296.6 601.7,289.5 
	609.6,294.6 617.5,289.5 625.4,280.3 633.3,278.3 "/>
<g>
	<g>
		<path class="st15" d="M443.6,286.2c5.7,10.5,4.3,24.1-3.8,35.7c-5.9,8.3-13.5,13.3-18.6,15.9"/>
		<g>
			<polygon class="st16" points="421.9,334.5 422.1,337.5 424.3,339.5 417.2,339.9 			"/>
		</g>
	</g>
</g>
</svg>
