<?xml version="1.0" encoding="utf-8"?>
<!-- Generator: Adobe Illustrator 23.0.1, SVG Export Plug-In . SVG Version: 6.00 Build 0)  -->
<svg version="1.1" id="Layer_1" xmlns="http://www.w3.org/2000/svg" xmlns:xlink="http://www.w3.org/1999/xlink" x="0px" y="0px"
	 viewBox="0 0 637.5 487.5" style="enable-background:new 0 0 637.5 487.5;" xml:space="preserve">
<style type="text/css">
	.st0{clip-path:url(#SVGID_2_);}
	.st1{clip-path:url(#SVGID_4_);fill:none;stroke:#E8E8E8;stroke-width:0.75;stroke-miterlimit:10;}
	.st2{clip-path:url(#SVGID_4_);fill:#C71E1D;}
	.st3{clip-path:url(#SVGID_4_);}
	.st4{fill:#C71E1D;fill-opacity:0.5;stroke:#000000;stroke-width:0.25;stroke-miterlimit:10;}
	.st5{clip-path:url(#SVGID_4_);fill:none;stroke:#333333;stroke-width:0.75;stroke-miterlimit:10;}
	.st6{fill:#A6A6A6;}
	.st7{font-family:'Roboto-Regular';}
	.st8{font-size:9px;}
	.st9{fill:none;stroke:#A0001C;stroke-width:2;stroke-linecap:round;stroke-linejoin:round;stroke-miterlimit:10;}
	.st10{fill:#9A1D2B;}
	.st11{font-family:'ArialMT';}
	.st12{font-size:11px;}
	.st13{fill:none;stroke:#D31D2B;stroke-width:0.75;stroke-miterlimit:10;}
	.st14{fill:#D31D2B;stroke:#D31D2B;stroke-width:0.25;stroke-miterlimit:10;}
	.st15{fill:#333333;}
</style>
<g>
	<defs>
		<rect id="SVGID_1_" width="637.5" height="487.5"/>
	</defs>
	<clipPath id="SVGID_2_">
		<use xlink:href="#SVGID_1_"  style="overflow:visible;"/>
	</clipPath>
	<g class="st0">
		<defs>
			<rect id="SVGID_3_" width="637.5" height="483"/>
		</defs>
		<clipPath id="SVGID_4_">
			<use xlink:href="#SVGID_3_"  style="overflow:visible;"/>
		</clipPath>
		<line class="st1" x1="21" y1="5.2" x2="637.5" y2="5.2"/>
		<line class="st1" x1="21" y1="56.2" x2="637.5" y2="56.2"/>
		<line class="st1" x1="21" y1="107.2" x2="637.5" y2="107.2"/>
		<line class="st1" x1="21" y1="158.2" x2="637.5" y2="158.2"/>
		<line class="st1" x1="21" y1="208.5" x2="637.5" y2="208.5"/>
		<line class="st1" x1="21" y1="259.5" x2="637.5" y2="259.5"/>
		<line class="st1" x1="21" y1="310.5" x2="637.5" y2="310.5"/>
		<line class="st1" x1="21" y1="361.5" x2="637.5" y2="361.5"/>
		<line class="st1" x1="21" y1="412.5" x2="637.5" y2="412.5"/>
		<path class="st2" d="M67.2,463.5h7.7H67.2z"/>
		<g class="st3">
			<polygon class="st4" points="59.5,459.8 51.8,459.8 51.8,460.5 44.1,460.5 36.4,460.5 36.4,458.2 28.7,458.2 28.7,462.8 
				21,462.8 21,463.5 28.7,463.5 36.4,463.5 44.1,463.5 51.8,463.5 59.5,463.5 67.2,463.5 67.2,457.5 59.5,457.5 			"/>
			<polygon class="st4" points="627.5,219.8 627.5,197.2 619.8,197.2 619.8,364.5 612.3,364.5 612.3,309.8 604.6,309.8 604.6,354.8 
				596.9,354.8 596.9,313.5 589.2,313.5 589.2,297.8 581.5,297.8 581.5,306.8 574.2,306.8 574.2,0 566.4,0 566.4,381.8 558.7,381.8 
				558.7,369.8 551,369.8 551,390 543.5,390 543.5,279 535.8,279 535.8,346.5 528.1,346.5 528.1,364.5 520.4,364.5 520.4,330.8 
				512.7,330.8 512.7,390 505,390 505,340.5 497.3,340.5 497.3,432 489.8,432 489.8,435 482.1,435 482.1,222 474.3,222 474.3,409.5 
				466.6,409.5 466.6,378.8 459.1,378.8 459.1,375.8 451.4,375.8 451.4,406.5 443.7,406.5 443.7,424.5 436,424.5 436,403.5 
				428.3,403.5 428.3,400.5 420.6,400.5 420.6,434.2 413.1,434.2 413.1,387.8 405.4,387.8 405.4,381.8 397.7,381.8 397.7,404.2 
				390,404.2 390,394.5 382.6,394.5 382.6,369.8 374.9,369.8 374.9,363 367.2,363 367.2,248.2 359.5,248.2 359.5,252.8 351.8,252.8 
				351.8,330.8 344.3,330.8 344.3,167.2 336.6,167.2 336.6,270 328.9,270 328.9,459.8 321.2,459.8 321.2,380.2 313.5,380.2 
				313.5,387 305.8,387 305.8,441.8 298.2,441.8 298.2,360.8 290.5,360.8 290.5,440.2 282.8,440.2 282.8,264.8 275.1,264.8 
				275.1,410.2 267.4,410.2 267.4,437.2 259.9,437.2 259.9,406.5 252.2,406.5 252.2,393 244.5,393 244.5,381.8 236.8,381.8 
				236.8,392.2 229.1,392.2 229.1,387.8 221.4,387.8 221.4,351.8 213.7,351.8 213.7,458.2 206,458.2 206,407.2 198.2,407.2 
				198.2,403.5 190.5,403.5 190.5,402.8 182.8,402.8 182.8,406.5 175.1,406.5 175.1,403.5 167.4,403.5 167.4,423 159.7,423 
				159.7,440.2 152,440.2 152,426 144.3,426 144.3,421.5 136.6,421.5 136.6,386.2 128.9,386.2 128.9,432 121.2,432 121.2,426.8 
				113.5,426.8 113.5,420 105.8,420 105.8,441 98.1,441 98.1,424.5 90.4,424.5 90.4,434.2 82.7,434.2 82.7,452.2 74.9,452.2 
				74.9,463.5 82.7,463.5 90.4,463.5 98.1,463.5 105.8,463.5 113.5,463.5 113.5,463.5 121.2,463.5 128.9,463.5 136.6,463.5 
				144.3,463.5 152,463.5 159.7,463.5 167.4,463.5 175.1,463.5 182.8,463.5 190.5,463.5 198.2,463.5 206,463.5 213.7,463.5 
				221.4,463.5 229.1,463.5 236.8,463.5 244.5,463.5 252.2,463.5 259.9,463.5 267.4,463.5 267.6,463.5 275.1,463.5 282.8,463.5 
				290.5,463.5 298.2,463.5 305.8,463.5 305.9,463.5 313.5,463.5 321.2,463.5 328.9,463.5 336.6,463.5 344.1,463.5 344.3,463.5 
				351.8,463.5 359.5,463.5 367.2,463.5 374.9,463.5 382.3,463.5 382.6,463.5 390,463.5 397.7,463.5 405.4,463.5 413.1,463.5 
				420.6,463.5 420.8,463.5 428.3,463.5 436,463.5 443.7,463.5 451.4,463.5 458.9,463.5 459.1,463.5 466.6,463.5 474.3,463.5 
				482.1,463.5 489.8,463.5 497.3,463.5 497.5,463.5 505,463.5 512.7,463.5 520.4,463.5 528.1,463.5 535.8,463.5 543.3,463.5 
				543.5,463.5 551,463.5 558.7,463.5 566.4,463.5 574.2,463.5 581.5,463.5 581.9,463.5 589.2,463.5 596.9,463.5 604.6,463.5 
				612.3,463.5 619.8,463.5 620,463.5 627.5,463.5 635.2,463.5 635.2,219.8 			"/>
		</g>
		<line class="st5" x1="21" y1="463.5" x2="637.5" y2="463.5"/>
	</g>
	<g class="st0">
		<text transform="matrix(1 0 0 1 5.2559 414.8496)" class="st6 st7 st8">50</text>
	</g>
	<g class="st0">
		<text transform="matrix(1 0 0 1 2.929688e-03 363.8496)" class="st6 st7 st8">100</text>
	</g>
	<g class="st0">
		<text transform="matrix(1 0 0 1 2.929688e-03 312.8496)" class="st6 st7 st8">150</text>
	</g>
	<g class="st0">
		<text transform="matrix(1 0 0 1 2.929688e-03 261.8496)" class="st6 st7 st8">200</text>
	</g>
	<g class="st0">
		<text transform="matrix(1 0 0 1 2.929688e-03 210.8496)" class="st6 st7 st8">250</text>
	</g>
	<g class="st0">
		<text transform="matrix(1 0 0 1 2.929688e-03 160.5996)" class="st6 st7 st8">300</text>
	</g>
	<g class="st0">
		<text transform="matrix(1 0 0 1 2.929688e-03 109.5996)" class="st6 st7 st8">350</text>
	</g>
	<g class="st0">
		<text transform="matrix(1 0 0 1 2.929688e-03 58.5996)" class="st6 st7 st8">400</text>
	</g>
	<g class="st0">
		<text transform="matrix(1 0 0 1 2.929688e-03 7.5996)" class="st6 st7 st8">450</text>
	</g>
</g>
<polyline class="st9" points="63.2,461.2 70.8,461.2 78.5,459.2 86.2,456.2 93.9,451.1 101.6,448.1 109.3,443.1 117,438 124.7,434 
	132.3,424.9 140,422.9 147.7,422.9 155.4,422.9 163.1,422.9 170.8,419.9 178.5,416.8 186.1,418.8 193.8,415.8 201.5,413.8 
	209.2,415.8 216.9,405.7 224.6,403.7 232.3,401.7 239.9,398.7 247.6,397.7 255.3,397.7 263,394.6 270.7,402.7 278.4,385.6 
	286.1,391.6 293.7,388.6 301.4,395.6 309.1,393.6 316.8,385.6 324.5,391.6 332.2,392.6 339.9,354.3 347.5,350.2 355.2,323 
	362.9,303.8 370.6,300.8 378.3,288.7 386,305.9 393.7,339.1 401.3,347.2 409,366.4 416.7,392.6 424.4,397.7 432.1,402.7 
	439.8,406.7 447.5,406.7 455.1,405.7 462.8,404.7 470.5,401.7 478.2,376.5 485.9,380.5 493.6,381.5 501.3,372.4 508.9,374.5 
	516.6,367.4 524.3,361.3 532,378.5 539.7,356.3 547.4,350.2 555.1,355.3 562.7,353.3 570.4,306.9 578.1,298.8 585.8,291.7 
	593.5,296.8 601.2,291.7 608.9,282.7 616.5,280.6 624.2,308.9 631.9,296.8 "/>
<text transform="matrix(1 0 0 1 389.8631 280.6395)" class="st10 st11 st12">7-day average</text>
<g>
	<g>
		<path class="st13" d="M427.6,286.6c5.7,10.5,4.3,24.1-3.8,35.7c-5.9,8.3-13.5,13.3-18.6,15.9"/>
		<g>
			<polygon class="st14" points="405.9,334.9 406,337.9 408.2,339.9 401.2,340.3 			"/>
		</g>
	</g>
</g>
<g>
	<text transform="matrix(1 0 0 1 618.2526 476.1859)" class="st15 st7 st8">5/29</text>
</g>
<g>
	<text transform="matrix(1 0 0 1 15.9951 476.1856)" class="st15 st7 st8">3/11</text>
</g>
</svg>
