<?xml version="1.0" encoding="utf-8"?>
<!-- Generator: Adobe Illustrator 23.0.1, SVG Export Plug-In . SVG Version: 6.00 Build 0)  -->
<svg version="1.1" id="Layer_1" xmlns="http://www.w3.org/2000/svg" xmlns:xlink="http://www.w3.org/1999/xlink" x="0px" y="0px"
	 viewBox="0 0 637.5 487.5" style="enable-background:new 0 0 637.5 487.5;" xml:space="preserve">
<style type="text/css">
	.st0{clip-path:url(#SVGID_2_);enable-background:new    ;}
	.st1{clip-path:url(#SVGID_4_);fill:none;stroke:#E8E8E8;stroke-width:0.75;stroke-miterlimit:10;}
	.st2{clip-path:url(#SVGID_4_);fill:#C71E1D;}
	.st3{clip-path:url(#SVGID_4_);}
	.st4{fill:#C71E1D;fill-opacity:0.6;stroke:#000000;stroke-width:0.5;stroke-miterlimit:10;}
	.st5{clip-path:url(#SVGID_4_);fill:none;stroke:#333333;stroke-width:0.75;stroke-miterlimit:10;}
	.st6{fill:#A6A6A6;}
	.st7{font-family:'Roboto-Regular';}
	.st8{font-size:9px;}
	.st9{fill:#FACE00;fill-opacity:0.85;stroke:#000000;stroke-width:0.5;stroke-miterlimit:10;}
	.st10{fill:#333333;}
	.st11{font-size:11px;}
</style>
<g>
	<defs>
		<rect id="SVGID_1_" width="637.5" height="487.5"/>
	</defs>
	<clipPath id="SVGID_2_">
		<use xlink:href="#SVGID_1_"  style="overflow:visible;"/>
	</clipPath>
	<g class="st0">
		<g>
			<defs>
				<rect id="SVGID_3_" width="637.5" height="487.5"/>
			</defs>
			<clipPath id="SVGID_4_">
				<use xlink:href="#SVGID_3_"  style="overflow:visible;"/>
			</clipPath>
			<line class="st1" x1="21" y1="6" x2="637.5" y2="6"/>
			<line class="st1" x1="21" y1="82.5" x2="637.5" y2="82.5"/>
			<line class="st1" x1="21" y1="158.2" x2="637.5" y2="158.2"/>
			<line class="st1" x1="21" y1="234.8" x2="637.5" y2="234.8"/>
			<line class="st1" x1="21" y1="311.2" x2="637.5" y2="311.2"/>
			<line class="st1" x1="21" y1="387" x2="637.5" y2="387"/>
			<path class="st2" d="M80.7,463.5h9.9H80.7z"/>
			<g class="st3">
				<polygon class="st4" points="70.7,457.5 60.8,457.5 60.8,459 50.8,459 50.8,459 40.9,459 40.9,456 30.9,456 30.9,462 21,462 
					21,463.5 30.9,463.5 30.9,463.5 40.9,463.5 40.9,463.5 50.8,463.5 50.8,463.5 60.8,463.5 60.8,463.5 70.7,463.5 80.7,463.5 
					80.7,454.5 70.7,454.5 				"/>
				<polygon class="st4" points="627.4,416.4 627.4,420.9 617.4,420.9 617.4,102.1 607.5,102.1 607.5,382.6 597.5,382.6 
					597.5,336.9 587.6,336.9 587.6,332.4 577.6,332.4 577.6,378.1 567.7,378.1 567.7,405.9 557.8,405.9 557.8,373.6 547.8,373.6 
					547.8,369.1 537.9,369.1 537.9,419.4 527.9,419.4 527.9,351.1 518,351.1 518,341.4 508,341.4 508,375.1 498.1,375.1 
					498.1,360.1 488.2,360.1 488.2,323.4 478.2,323.4 478.2,312.9 468.3,312.9 468.3,141.9 458.3,141.9 458.3,147.9 448.4,147.9 
					448.4,265.5 438.6,265.5 438.6,19.5 428.7,19.5 428.7,174 418.7,174 418.7,457.5 408.8,457.5 408.8,338.2 398.9,338.2 
					398.9,348.8 388.9,348.8 388.9,431.2 379,431.2 379,309.8 369,309.8 369,428.2 359.1,428.2 359.1,165.8 349.1,165.8 349.1,384 
					339.2,384 339.2,423.8 329.3,423.8 329.3,378 319.3,378 319.3,358.5 309.4,358.5 309.4,341.2 299.4,341.2 299.4,357 289.5,357 
					289.5,351 279.5,351 279.5,295.5 269.6,295.5 269.6,456 259.6,456 259.6,379.5 249.7,379.5 249.7,373.5 239.8,373.5 239.8,372 
					229.8,372 229.8,378 219.9,378 219.9,373.5 209.9,373.5 209.9,402.8 200,402.8 200,428.2 190,428.2 190,407.2 180.1,407.2 
					180.1,401.2 170.2,401.2 170.2,347.2 160.2,347.2 160.2,416.2 150.3,416.2 150.3,408.8 140.3,408.8 140.3,398.2 130.4,398.2 
					130.4,429.8 120.4,429.8 120.4,405.8 110.5,405.8 110.5,419.2 100.5,419.2 100.5,447 90.6,447 90.6,463.5 100.5,463.5 
					110.5,463.5 120.4,463.5 120.4,463.5 130.4,463.5 130.4,463.5 140.3,463.5 140.3,463.5 150.3,463.5 150.3,463.5 160.2,463.5 
					160.2,463.5 170.2,463.5 180.1,463.5 190,463.5 200,463.5 209.9,463.5 219.9,463.5 219.9,463.5 229.8,463.5 239.8,463.5 
					239.8,463.5 249.7,463.5 249.7,463.5 259.6,463.5 269.6,463.5 269.6,463.5 279.5,463.5 289.5,463.5 299.4,463.5 309.4,463.5 
					319.3,463.5 329.2,463.5 329.3,463.5 339.2,463.5 339.2,463.5 349.1,463.5 359.1,463.5 369,463.5 379,463.5 388.9,463.5 
					398.9,463.5 398.9,463.5 408.8,463.5 418.7,463.5 418.7,463.5 428.7,463.5 438.6,463.5 438.6,463.5 448.4,463.5 448.4,463.6 
					458.3,463.6 468.3,463.6 478.2,463.6 488.2,463.6 498.1,463.6 508,463.6 518,463.6 527.9,463.6 527.9,463.6 537.9,463.6 
					537.9,463.6 547.8,463.6 547.8,463.6 557.8,463.6 557.8,463.6 567.7,463.6 567.7,463.6 577.6,463.6 577.6,463.6 587.6,463.6 
					587.6,463.6 597.5,463.6 597.5,463.6 607.5,463.6 617.4,463.6 617.4,463.6 627.4,463.6 627.4,463.6 637.3,463.6 637.3,416.4 
									"/>
			</g>
			<line class="st5" x1="21" y1="463.5" x2="637.5" y2="463.5"/>
			<g class="st3">
				<text transform="matrix(1 0 0 1 5.6426 389.3496)" class="st6 st7 st8">50</text>
			</g>
			<g class="st3">
				<text transform="matrix(1 0 0 1 0.5889 313.5996)" class="st6 st7 st8">100</text>
			</g>
			<g class="st3">
				<text transform="matrix(1 0 0 1 0.5889 237.0996)" class="st6 st7 st8">150</text>
			</g>
			<g class="st3">
				<text transform="matrix(1 0 0 1 0.5889 160.5996)" class="st6 st7 st8">200</text>
			</g>
			<g class="st3">
				<text transform="matrix(1 0 0 1 0.5889 84.8496)" class="st6 st7 st8">250</text>
			</g>
			<g class="st3">
				<text transform="matrix(1 0 0 1 0.5889 8.3496)" class="st6 st7 st8">300</text>
			</g>
		</g>
	</g>
</g>
<polygon class="st9" points="627.4,338.2 627.4,336.7 617.4,336.7 617.4,330.7 607.5,330.7 607.5,368.9 597.5,368.9 597.5,373.4 
	587.6,373.4 587.6,374.9 577.6,374.9 577.6,376.4 567.7,376.4 567.7,376.4 557.8,376.4 557.8,370.4 547.8,370.4 547.8,362.9 
	537.9,362.9 537.9,355.4 527.9,355.4 527.9,315.7 518,315.7 518,286.4 508,286.4 508,274.4 498.1,274.4 498.1,224.2 488.1,224.2 
	488.1,197.9 478.2,197.9 478.2,216.7 468.3,216.7 468.3,221.2 458.3,221.2 458.3,249.7 448.4,249.7 448.4,290.9 438.5,290.9 
	438.5,296.9 428.6,296.9 428.6,355.4 418.6,355.4 418.6,353.9 408.7,353.9 408.7,344.2 398.8,344.2 398.8,356.9 388.8,356.9 
	388.8,359.9 378.9,359.9 378.9,348.7 368.9,348.7 368.9,353.9 359,353.9 359,344.2 349,344.2 349,370.4 339.1,370.4 339.1,358.4 
	329.2,358.4 329.2,362.9 319.2,362.9 309.3,362.9 309.3,364.4 299.3,364.4 299.3,368.9 289.4,368.9 289.4,371.9 279.4,371.9 
	279.4,374.9 269.5,374.9 269.5,389.9 259.5,389.9 259.5,386.9 249.6,386.9 249.6,389.9 239.7,389.9 239.7,394.4 229.7,394.4 
	229.7,391.4 219.8,391.4 219.8,396.7 209.8,396.7 209.8,401.2 199.9,401.2 189.9,401.2 180,401.2 170.1,401.2 170.1,404.2 
	160.1,404.2 160.1,417.7 150.2,417.7 150.2,423.7 140.2,423.7 140.2,431.2 130.3,431.2 130.3,438.7 120.3,438.7 120.3,443.9 
	110.4,443.9 110.4,451.4 100.4,451.4 100.4,455.9 90.5,455.9 90.5,458.9 80.6,458.9 70.6,458.9 70.6,463.4 80.6,463.4 90.5,463.4 
	100.4,463.4 110.4,463.4 120.3,463.4 120.3,463.4 130.3,463.4 130.3,463.4 140.2,463.4 140.2,463.4 150.2,463.4 150.2,463.4 
	160.1,463.4 160.1,463.4 170.1,463.4 180,463.4 189.9,463.4 199.9,463.4 209.8,463.4 219.8,463.4 219.8,463.4 229.7,463.4 
	239.7,463.4 239.7,463.4 249.6,463.4 249.6,463.4 259.5,463.4 269.5,463.4 269.5,463.4 279.4,463.4 289.4,463.4 299.3,463.4 
	309.3,463.4 319.2,463.4 329.2,463.4 329.2,463.4 339.1,463.4 339.1,463.4 349,463.4 359,463.4 368.9,463.4 378.9,463.4 
	388.8,463.4 398.8,463.4 398.8,463.4 408.7,463.4 418.6,463.4 418.6,463.4 428.6,463.4 438.5,463.4 438.5,463.4 448.4,463.4 
	448.5,463.4 458.3,463.4 468.3,463.4 478.2,463.4 488.1,463.4 498.1,463.4 508,463.4 518,463.4 527.9,463.4 527.9,463.4 
	537.9,463.4 537.9,463.4 547.8,463.4 547.8,463.4 557.8,463.4 557.8,463.4 567.7,463.4 567.7,463.4 577.6,463.4 577.6,463.4 
	587.6,463.4 587.6,463.4 597.5,463.4 597.5,463.4 607.5,463.4 617.4,463.4 617.4,463.4 627.4,463.4 627.4,463.4 637.3,463.4 
	637.3,338.2 "/>
<g>
	<text transform="matrix(1 0 0 1 548.5932 35.5692)" class="st10 st7 st11">New cases</text>
</g>
<text transform="matrix(1 0 0 1 548.7598 57.1444)" class="st10 st7 st11">7-d</text>
<text transform="matrix(1 0 0 1 564.1597 57.1444)" class="st10 st7 st11">a</text>
<text transform="matrix(1 0 0 1 570.0598 57.1444)" class="st10 st7 st11">y </text>
<text transform="matrix(1 0 0 1 577.9597 57.1444)" class="st10 st7 st11">a</text>
<text transform="matrix(1 0 0 1 583.9597 57.1444)" class="st10 st7 st11">v</text>
<text transform="matrix(1 0 0 1 589.1597 57.1444)" class="st10 st7 st11">e</text>
<text transform="matrix(1 0 0 1 594.9597 57.1444)" class="st10 st7 st11">r</text>
<text transform="matrix(1 0 0 1 598.5598 57.1444)" class="st10 st7 st11">age</text>
<rect x="528.9" y="25.3" class="st4" width="11.6" height="11.6"/>
<rect x="528.9" y="47.1" class="st9" width="11.6" height="11.6"/>
<g>
	<text transform="matrix(1 0 0 1 618.9184 477.7543)" class="st10 st7 st8">5/11</text>
</g>
<g>
	<text transform="matrix(1 0 0 1 17.1815 477.7544)" class="st10 st7 st8">3/11</text>
</g>
</svg>
