<?xml version="1.0" encoding="utf-8"?>
<!-- Generator: Adobe Illustrator 23.0.1, SVG Export Plug-In . SVG Version: 6.00 Build 0)  -->
<svg version="1.1" id="Layer_1" xmlns="http://www.w3.org/2000/svg" xmlns:xlink="http://www.w3.org/1999/xlink" x="0px" y="0px"
	 viewBox="0 0 637.5 487.5" style="enable-background:new 0 0 637.5 487.5;" xml:space="preserve">
<style type="text/css">
	.st0{clip-path:url(#SVGID_2_);}
	.st1{clip-path:url(#SVGID_4_);fill:none;stroke:#E8E8E8;stroke-width:0.75;stroke-miterlimit:10;}
	.st2{clip-path:url(#SVGID_4_);fill:#C71E1D;}
	.st3{clip-path:url(#SVGID_4_);}
	.st4{opacity:0.5;fill:#C71E1D;}
	.st5{fill:none;stroke:#000000;stroke-width:0.25;stroke-miterlimit:10;}
	.st6{clip-path:url(#SVGID_4_);fill:none;stroke:#333333;stroke-width:0.75;stroke-miterlimit:10;}
	.st7{fill:#A6A6A6;}
	.st8{font-family:'Roboto-Regular';}
	.st9{font-size:9px;}
	.st10{fill:none;stroke:#A0001C;stroke-width:2;stroke-linecap:round;stroke-linejoin:round;stroke-miterlimit:10;}
	.st11{fill:#9A1D2B;}
	.st12{font-family:'ArialMT';}
	.st13{font-size:11px;}
	.st14{fill:none;stroke:#D31D2B;stroke-width:0.75;stroke-miterlimit:10;}
	.st15{fill:#D31D2B;stroke:#D31D2B;stroke-width:0.25;stroke-miterlimit:10;}
	.st16{fill:#333333;}
</style>
<g>
	<defs>
		<rect id="SVGID_1_" width="637.5" height="487.5"/>
	</defs>
	<clipPath id="SVGID_2_">
		<use xlink:href="#SVGID_1_"  style="overflow:visible;"/>
	</clipPath>
	<g class="st0">
		<defs>
			<rect id="SVGID_3_" width="637.5" height="483"/>
		</defs>
		<clipPath id="SVGID_4_">
			<use xlink:href="#SVGID_3_"  style="overflow:visible;"/>
		</clipPath>
		<line class="st1" x1="21" y1="5.2" x2="637.5" y2="5.2"/>
		<line class="st1" x1="21" y1="56.2" x2="637.5" y2="56.2"/>
		<line class="st1" x1="21" y1="107.2" x2="637.5" y2="107.2"/>
		<line class="st1" x1="21" y1="158.2" x2="637.5" y2="158.2"/>
		<line class="st1" x1="21" y1="208.5" x2="637.5" y2="208.5"/>
		<line class="st1" x1="21" y1="259.5" x2="637.5" y2="259.5"/>
		<line class="st1" x1="21" y1="310.5" x2="637.5" y2="310.5"/>
		<line class="st1" x1="21" y1="361.5" x2="637.5" y2="361.5"/>
		<line class="st1" x1="21" y1="412.5" x2="637.5" y2="412.5"/>
		<path class="st2" d="M63.5,463.5h7.1H63.5z"/>
		<g class="st3">
			<g>
				<g>
					<polygon class="st4" points="56.4,459.8 49.3,459.8 49.3,460.5 42.3,460.5 35.2,460.5 35.2,458.2 28.1,458.2 28.1,462.8 
						21,462.8 21,463.5 28.1,463.5 35.2,463.5 42.3,463.5 49.3,463.5 56.4,463.5 63.5,463.5 63.5,457.5 56.4,457.5 					"/>
					<polygon class="st5" points="56.4,459.8 49.3,459.8 49.3,460.5 42.3,460.5 35.2,460.5 35.2,458.2 28.1,458.2 28.1,462.8 
						21,462.8 21,463.5 28.1,463.5 35.2,463.5 42.3,463.5 49.3,463.5 56.4,463.5 63.5,463.5 63.5,457.5 56.4,457.5 					"/>
				</g>
				<g>
					<polygon class="st4" points="629.7,233.2 629.7,99 622.6,99 622.6,210 615.6,210 615.6,81.8 608.5,81.8 608.5,270 601.4,270 
						601.4,219 594.3,219 594.3,222.8 587.4,222.8 587.4,219.8 580.4,219.8 580.4,197.2 573.4,197.2 573.4,364.5 566.4,364.5 
						566.4,309.8 559.3,309.8 559.3,354.8 552.2,354.8 552.2,313.5 545.2,313.5 545.2,297.8 538.1,297.8 538.1,306.8 531.2,306.8 
						531.2,0 524.1,0 524.1,381.8 517,381.8 517,369.8 509.9,369.8 509.9,390 502.9,390 502.9,279 495.8,279 495.8,346.5 
						488.7,346.5 488.7,364.5 481.6,364.5 481.6,330.8 474.5,330.8 474.5,390 467.4,390 467.4,340.5 460.3,340.5 460.3,432 
						453.3,432 453.3,435 446.2,435 446.2,222 439.1,222 439.1,409.5 432,409.5 432,378.8 424.9,378.8 424.9,375.8 417.8,375.8 
						417.8,406.5 410.7,406.5 410.7,424.5 403.7,424.5 403.7,403.5 396.6,403.5 396.6,400.5 389.5,400.5 389.5,434.2 382.4,434.2 
						382.4,387.8 375.3,387.8 375.3,381.8 368.2,381.8 368.2,404.2 361.1,404.2 361.1,394.5 354.1,394.5 354.1,369.8 347,369.8 
						347,363 339.9,363 339.9,248.2 332.8,248.2 332.8,252.8 325.7,252.8 325.7,330.8 318.6,330.8 318.6,167.2 311.5,167.2 
						311.5,270 304.4,270 304.4,459.8 297.4,459.8 297.4,380.2 290.3,380.2 290.3,387 283.2,387 283.2,441.8 276.1,441.8 
						276.1,360.8 269,360.8 269,440.2 261.9,440.2 261.9,264.8 254.8,264.8 254.8,410.2 247.8,410.2 247.8,437.2 240.7,437.2 
						240.7,406.5 233.6,406.5 233.6,393 226.5,393 226.5,381.8 219.4,381.8 219.4,392.2 212.3,392.2 212.3,387.8 205.2,387.8 
						205.2,351.8 198.2,351.8 198.2,458.2 191.1,458.2 191.1,407.2 184,407.2 184,403.5 176.9,403.5 176.9,402.8 169.8,402.8 
						169.8,406.5 162.7,406.5 162.7,403.5 155.6,403.5 155.6,423 148.6,423 148.6,440.2 141.5,440.2 141.5,426 134.4,426 
						134.4,421.5 127.3,421.5 127.3,386.2 120.2,386.2 120.2,432 113.1,432 113.1,426.8 106,426.8 106,420 98.9,420 98.9,441 
						91.9,441 91.9,424.5 84.8,424.5 84.8,434.2 77.7,434.2 77.7,452.2 70.6,452.2 70.6,463.5 77.7,463.5 84.8,463.5 91.9,463.5 
						98.9,463.5 106,463.5 113.1,463.5 113.1,463.5 120.2,463.5 127.3,463.5 134.4,463.5 141.5,463.5 148.6,463.5 155.6,463.5 
						162.7,463.5 169.8,463.5 176.9,463.5 184,463.5 191.1,463.5 198.2,463.5 198.2,463.5 205.2,463.5 212.3,463.5 219.4,463.5 
						226.5,463.5 233.6,463.5 240.7,463.5 247.8,463.5 254.8,463.5 261.9,463.5 269,463.5 276.1,463.5 283.2,463.5 290.3,463.5 
						297.4,463.5 304.4,463.5 311.5,463.5 318.6,463.5 325.7,463.5 332.8,463.5 332.8,463.5 339.9,463.5 347,463.5 354.1,463.5 
						361.1,463.5 368.2,463.5 375.3,463.5 382.4,463.5 389.5,463.5 396.6,463.5 403.7,463.5 410.7,463.5 417.8,463.5 417.8,463.5 
						424.9,463.5 432,463.5 439.1,463.5 446.2,463.5 453.3,463.5 453.3,463.5 460.3,463.5 467.4,463.5 474.5,463.5 481.6,463.5 
						488.7,463.5 495.8,463.5 502.9,463.5 509.9,463.5 517,463.5 524.1,463.5 531,463.5 531.2,463.5 538.1,463.5 545.1,463.5 
						545.2,463.5 552.2,463.5 559.3,463.5 566.3,463.5 566.4,463.5 573.4,463.5 580.3,463.5 580.4,463.5 587.4,463.5 594.3,463.5 
						594.5,463.5 601.4,463.5 608.5,463.5 615.5,463.5 615.6,463.5 622.6,463.5 629.5,463.5 629.7,463.5 636.6,463.5 636.6,233.2 
											"/>
					<polygon class="st5" points="629.7,233.2 629.7,99 622.6,99 622.6,210 615.6,210 615.6,81.8 608.5,81.8 608.5,270 601.4,270 
						601.4,219 594.3,219 594.3,222.8 587.4,222.8 587.4,219.8 580.4,219.8 580.4,197.2 573.4,197.2 573.4,364.5 566.4,364.5 
						566.4,309.8 559.3,309.8 559.3,354.8 552.2,354.8 552.2,313.5 545.2,313.5 545.2,297.8 538.1,297.8 538.1,306.8 531.2,306.8 
						531.2,0 524.1,0 524.1,381.8 517,381.8 517,369.8 509.9,369.8 509.9,390 502.9,390 502.9,279 495.8,279 495.8,346.5 
						488.7,346.5 488.7,364.5 481.6,364.5 481.6,330.8 474.5,330.8 474.5,390 467.4,390 467.4,340.5 460.3,340.5 460.3,432 
						453.3,432 453.3,435 446.2,435 446.2,222 439.1,222 439.1,409.5 432,409.5 432,378.8 424.9,378.8 424.9,375.8 417.8,375.8 
						417.8,406.5 410.7,406.5 410.7,424.5 403.7,424.5 403.7,403.5 396.6,403.5 396.6,400.5 389.5,400.5 389.5,434.2 382.4,434.2 
						382.4,387.8 375.3,387.8 375.3,381.8 368.2,381.8 368.2,404.2 361.1,404.2 361.1,394.5 354.1,394.5 354.1,369.8 347,369.8 
						347,363 339.9,363 339.9,248.2 332.8,248.2 332.8,252.8 325.7,252.8 325.7,330.8 318.6,330.8 318.6,167.2 311.5,167.2 
						311.5,270 304.4,270 304.4,459.8 297.4,459.8 297.4,380.2 290.3,380.2 290.3,387 283.2,387 283.2,441.8 276.1,441.8 
						276.1,360.8 269,360.8 269,440.2 261.9,440.2 261.9,264.8 254.8,264.8 254.8,410.2 247.8,410.2 247.8,437.2 240.7,437.2 
						240.7,406.5 233.6,406.5 233.6,393 226.5,393 226.5,381.8 219.4,381.8 219.4,392.2 212.3,392.2 212.3,387.8 205.2,387.8 
						205.2,351.8 198.2,351.8 198.2,458.2 191.1,458.2 191.1,407.2 184,407.2 184,403.5 176.9,403.5 176.9,402.8 169.8,402.8 
						169.8,406.5 162.7,406.5 162.7,403.5 155.6,403.5 155.6,423 148.6,423 148.6,440.2 141.5,440.2 141.5,426 134.4,426 
						134.4,421.5 127.3,421.5 127.3,386.2 120.2,386.2 120.2,432 113.1,432 113.1,426.8 106,426.8 106,420 98.9,420 98.9,441 
						91.9,441 91.9,424.5 84.8,424.5 84.8,434.2 77.7,434.2 77.7,452.2 70.6,452.2 70.6,463.5 77.7,463.5 84.8,463.5 91.9,463.5 
						98.9,463.5 106,463.5 113.1,463.5 113.1,463.5 120.2,463.5 127.3,463.5 134.4,463.5 141.5,463.5 148.6,463.5 155.6,463.5 
						162.7,463.5 169.8,463.5 176.9,463.5 184,463.5 191.1,463.5 198.2,463.5 198.2,463.5 205.2,463.5 212.3,463.5 219.4,463.5 
						226.5,463.5 233.6,463.5 240.7,463.5 247.8,463.5 254.8,463.5 261.9,463.5 269,463.5 276.1,463.5 283.2,463.5 290.3,463.5 
						297.4,463.5 304.4,463.5 311.5,463.5 318.6,463.5 325.7,463.5 332.8,463.5 332.8,463.5 339.9,463.5 347,463.5 354.1,463.5 
						361.1,463.5 368.2,463.5 375.3,463.5 382.4,463.5 389.5,463.5 396.6,463.5 403.7,463.5 410.7,463.5 417.8,463.5 417.8,463.5 
						424.9,463.5 432,463.5 439.1,463.5 446.2,463.5 453.3,463.5 453.3,463.5 460.3,463.5 467.4,463.5 474.5,463.5 481.6,463.5 
						488.7,463.5 495.8,463.5 502.9,463.5 509.9,463.5 517,463.5 524.1,463.5 531,463.5 531.2,463.5 538.1,463.5 545.1,463.5 
						545.2,463.5 552.2,463.5 559.3,463.5 566.3,463.5 566.4,463.5 573.4,463.5 580.3,463.5 580.4,463.5 587.4,463.5 594.3,463.5 
						594.5,463.5 601.4,463.5 608.5,463.5 615.5,463.5 615.6,463.5 622.6,463.5 629.5,463.5 629.7,463.5 636.6,463.5 636.6,233.2 
											"/>
				</g>
			</g>
		</g>
		<line class="st6" x1="21" y1="463.5" x2="637.5" y2="463.5"/>
	</g>
	<g class="st0">
		<text transform="matrix(1 0 0 1 5.6426 415.5996)" class="st7 st8 st9">50</text>
	</g>
	<g class="st0">
		<text transform="matrix(1 0 0 1 0.5889 364.5996)" class="st7 st8 st9">100</text>
	</g>
	<g class="st0">
		<text transform="matrix(1 0 0 1 0.5889 313.5996)" class="st7 st8 st9">150</text>
	</g>
	<g class="st0">
		<text transform="matrix(1 0 0 1 0.5889 262.5996)" class="st7 st8 st9">200</text>
	</g>
	<g class="st0">
		<text transform="matrix(1 0 0 1 0.5889 211.5996)" class="st7 st8 st9">250</text>
	</g>
	<g class="st0">
		<text transform="matrix(1 0 0 1 0.5889 161.3496)" class="st7 st8 st9">300</text>
	</g>
	<g class="st0">
		<text transform="matrix(1 0 0 1 0.5889 110.3496)" class="st7 st8 st9">350</text>
	</g>
	<g class="st0">
		<text transform="matrix(1 0 0 1 0.5889 59.3496)" class="st7 st8 st9">400</text>
	</g>
	<g class="st0">
		<text transform="matrix(1 0 0 1 0.5889 8.3496)" class="st7 st8 st9">450</text>
	</g>
</g>
<polyline class="st10" points="59.9,460.5 67,460.5 74.1,458.5 81.1,455.4 88.2,450.4 95.3,447.3 102.4,442.3 109.4,437.2 
	116.5,433.2 123.6,424.1 130.7,422 137.7,422 144.8,422 151.9,422 159,419 166,416 173.1,418 180.2,414.9 187.3,412.9 194.3,414.9 
	201.4,404.8 208.5,402.8 215.6,400.8 222.6,397.7 229.7,396.7 236.8,396.7 243.9,393.7 250.9,401.8 258,384.6 265.1,390.7 
	272.2,387.6 279.2,394.7 286.3,392.7 293.4,384.6 300.5,390.7 307.5,391.7 314.6,353.2 321.7,349.2 328.7,321.8 335.8,302.6 
	342.9,299.6 350,287.4 357,304.6 364.1,338 371.2,346.1 378.3,365.4 385.3,391.7 392.4,396.7 399.5,401.8 406.6,405.8 413.6,405.8 
	420.7,404.8 427.8,403.8 434.9,400.8 441.9,375.5 449,379.5 456.1,380.5 463.2,371.4 470.2,373.4 477.3,366.4 484.4,360.3 
	491.5,377.5 498.5,355.2 505.6,349.2 512.7,354.2 519.8,352.2 526.8,305.6 533.9,297.5 541,290.5 548.1,295.5 555.1,290.5 
	562.2,281.3 569.3,279.3 576.4,307.7 583.4,295.5 590.5,284.4 597.6,271.2 604.7,259.1 611.7,226.7 618.8,204.4 625.9,190.3 
	633,192.3 "/>
<text transform="matrix(1 0 0 1 361.153 282.1932)" class="st11 st12 st13">7-day average</text>
<g>
	<g>
		<path class="st14" d="M398.9,288.2c5.7,10.5,4.3,24.1-3.8,35.7c-5.9,8.3-13.5,13.3-18.6,15.9"/>
		<g>
			<polygon class="st15" points="377.2,336.4 377.3,339.5 379.5,341.4 372.5,341.8 			"/>
		</g>
	</g>
</g>
<g>
	<text transform="matrix(1 0 0 1 622.65 478.4598)" class="st16 st8 st9">6/5</text>
</g>
<g>
	<text transform="matrix(1 0 0 1 14.1042 478.4603)" class="st16 st8 st9">3/11</text>
</g>
</svg>
