<?xml version="1.0" encoding="utf-8"?>
<!-- Generator: Adobe Illustrator 23.0.1, SVG Export Plug-In . SVG Version: 6.00 Build 0)  -->
<svg version="1.1" id="Layer_1" xmlns="http://www.w3.org/2000/svg" xmlns:xlink="http://www.w3.org/1999/xlink" x="0px" y="0px"
	 viewBox="0 0 637.5 487.5" style="enable-background:new 0 0 637.5 487.5;" xml:space="preserve">
<style type="text/css">
	.st0{clip-path:url(#SVGID_2_);}
	.st1{clip-path:url(#SVGID_4_);fill:none;stroke:#E8E8E8;stroke-width:0.75;stroke-miterlimit:10;}
	.st2{clip-path:url(#SVGID_4_);fill:#C71E1D;}
	.st3{clip-path:url(#SVGID_4_);}
	.st4{fill:#C71E1D;fill-opacity:0.6;stroke:#000000;stroke-width:0.5;stroke-miterlimit:10;}
	.st5{clip-path:url(#SVGID_4_);fill:none;stroke:#333333;stroke-width:0.75;stroke-miterlimit:10;}
	.st6{fill:#A6A6A6;}
	.st7{font-family:'Roboto-Regular';}
	.st8{font-size:9px;}
	.st9{fill:#FACE00;fill-opacity:0.85;stroke:#000000;stroke-width:0.5;stroke-miterlimit:10;}
	.st10{fill:#333333;}
</style>
<g>
	<defs>
		<rect id="SVGID_1_" width="637.5" height="487.5"/>
	</defs>
	<clipPath id="SVGID_2_">
		<use xlink:href="#SVGID_1_"  style="overflow:visible;"/>
	</clipPath>
	<g class="st0">
		<defs>
			<rect id="SVGID_3_" width="637.5" height="483"/>
		</defs>
		<clipPath id="SVGID_4_">
			<use xlink:href="#SVGID_3_"  style="overflow:visible;"/>
		</clipPath>
		<line class="st1" x1="21" y1="6" x2="637.5" y2="6"/>
		<line class="st1" x1="21" y1="82.5" x2="637.5" y2="82.5"/>
		<line class="st1" x1="21" y1="158.2" x2="637.5" y2="158.2"/>
		<line class="st1" x1="21" y1="234.8" x2="637.5" y2="234.8"/>
		<line class="st1" x1="21" y1="311.2" x2="637.5" y2="311.2"/>
		<line class="st1" x1="21" y1="387" x2="637.5" y2="387"/>
		<path class="st2" d="M76.2,463.5h9.2H76.2z"/>
		<g class="st3">
			<polygon class="st4" points="67,457.5 57.8,457.5 57.8,459 48.6,459 39.4,459 39.4,456 30.2,456 30.2,462 21,462 21,463.5 
				30.2,463.5 30.2,463.5 39.4,463.5 48.6,463.5 57.8,463.5 57.8,463.5 67,463.5 67,463.5 76.2,463.5 76.2,454.5 67,454.5 			"/>
			<polygon class="st4" points="628.3,288 628.3,315.8 619.1,315.8 619.1,265.5 609.9,265.5 609.9,354 600.7,354 600.7,279 
				591.5,279 591.5,416.2 582.3,416.2 582.3,420.8 573.1,420.8 573.1,102 563.9,102 563.9,382.5 554.7,382.5 554.7,336.8 
				545.5,336.8 545.5,332.2 536.3,332.2 536.3,378 527.1,378 527.1,405.8 517.9,405.8 517.9,373.5 508.7,373.5 508.7,369 499.5,369 
				499.5,419.2 490.3,419.2 490.3,351 481.1,351 481.1,341.2 471.9,341.2 471.9,375 462.7,375 462.7,360 453.5,360 453.5,323.2 
				444.3,323.2 444.3,312.8 435.1,312.8 435.1,141.8 425.9,141.8 425.9,147.8 416.7,147.8 416.7,265.5 407.5,265.5 407.5,19.5 
				398.3,19.5 398.3,174 389.1,174 389.1,457.5 379.9,457.5 379.9,338.2 370.7,338.2 370.7,348.8 361.5,348.8 361.5,431.2 
				352.3,431.2 352.3,309.8 343.1,309.8 343.1,428.2 333.9,428.2 333.9,165.8 324.6,165.8 324.6,384 315.4,384 315.4,423.8 
				306.2,423.8 306.2,378 297,378 297,358.5 287.8,358.5 287.8,341.2 278.6,341.2 278.6,357 269.4,357 269.4,351 260.2,351 
				260.2,295.5 251,295.5 251,456 241.8,456 241.8,379.5 232.6,379.5 232.6,373.5 223.4,373.5 223.4,372 214.2,372 214.2,378 
				205,378 205,373.5 195.8,373.5 195.8,402.8 186.6,402.8 186.6,428.2 177.4,428.2 177.4,407.2 168.2,407.2 168.2,401.2 159,401.2 
				159,347.2 149.8,347.2 149.8,416.2 140.6,416.2 140.6,408.8 131.4,408.8 131.4,398.2 122.2,398.2 122.2,429.8 113,429.8 
				113,405.8 103.8,405.8 103.8,419.2 94.6,419.2 94.6,447 85.4,447 85.4,463.5 94.6,463.5 94.6,463.5 103.8,463.5 103.8,463.5 
				113,463.5 122.2,463.5 131.4,463.5 131.4,463.5 140.6,463.5 140.6,463.5 149.8,463.5 159,463.5 168.2,463.5 168.2,463.5 
				177.4,463.5 177.4,463.5 186.6,463.5 195.8,463.5 205,463.5 205,463.5 214.2,463.5 214.2,463.5 223.4,463.5 232.6,463.5 
				241.8,463.5 241.8,463.5 251,463.5 251,463.5 260.2,463.5 269.4,463.5 269.4,463.5 278.6,463.5 278.6,463.5 287.8,463.5 
				297,463.5 297,463.5 306.2,463.5 306.2,463.5 315.4,463.5 315.4,463.5 324.6,463.5 333.9,463.5 333.9,463.5 343.1,463.5 
				343.1,463.5 352.3,463.5 352.3,463.5 361.5,463.5 370.7,463.5 370.7,463.5 379.9,463.5 379.9,463.5 389.1,463.5 389.1,463.5 
				398.3,463.5 407.5,463.5 407.5,463.5 416.7,463.5 416.7,463.5 425.9,463.5 425.9,463.5 435.1,463.5 444.3,463.5 444.3,463.5 
				453.5,463.5 453.5,463.5 462.7,463.5 462.7,463.5 471.9,463.5 481.1,463.5 481.1,463.5 490.3,463.5 490.3,463.5 499.5,463.5 
				499.5,463.5 508.7,463.5 517.9,463.5 527.1,463.5 527.1,463.5 536.3,463.5 536.3,463.5 545.5,463.5 545.5,463.5 554.7,463.5 
				563.9,463.5 563.9,463.5 573.1,463.5 573.1,463.5 582.3,463.5 582.3,463.5 591.5,463.5 600.7,463.5 600.7,463.5 609.9,463.5 
				609.9,463.5 619.1,463.5 619.1,463.5 628.3,463.5 637.5,463.5 637.5,288 			"/>
		</g>
		<line class="st5" x1="21" y1="463.5" x2="637.5" y2="463.5"/>
	</g>
	<g class="st0">
		<text transform="matrix(1 0 0 1 5.2559 389.3496)" class="st6 st7 st8">50</text>
	</g>
	<g class="st0">
		<text transform="matrix(1 0 0 1 2.929688e-03 313.5996)" class="st6 st7 st8">100</text>
	</g>
	<g class="st0">
		<text transform="matrix(1 0 0 1 2.929688e-03 237.0996)" class="st6 st7 st8">150</text>
	</g>
	<g class="st0">
		<text transform="matrix(1 0 0 1 2.929688e-03 160.5996)" class="st6 st7 st8">200</text>
	</g>
	<g class="st0">
		<text transform="matrix(1 0 0 1 2.929688e-03 84.8496)" class="st6 st7 st8">250</text>
	</g>
	<g class="st0">
		<text transform="matrix(1 0 0 1 2.929688e-03 8.3496)" class="st6 st7 st8">300</text>
	</g>
</g>
<polygon class="st9" points="628.3,333.7 628.3,308.2 619.1,308.2 619.1,317.2 609.9,317.2 609.9,327.7 600.7,327.7 600.7,324.7 
	591.5,324.7 591.5,338.2 582.3,338.2 582.3,336.7 573.1,336.7 573.1,330.7 563.9,330.7 563.9,369 554.7,369 554.7,373.5 
	545.5,373.5 545.5,375 536.3,375 536.3,376.5 527.1,376.5 527.1,376.5 517.9,376.5 517.9,370.5 508.7,370.5 508.7,363 499.5,363 
	499.5,355.5 490.3,355.5 490.3,315.7 481.1,315.7 481.1,286.5 471.9,286.5 471.9,274.5 462.7,274.5 462.7,224.2 453.5,224.2 
	453.5,198 444.3,198 444.3,216.7 435.1,216.7 435.1,221.2 425.9,221.2 425.9,249.7 416.7,249.7 416.7,291 407.5,291 407.5,297 
	398.3,297 398.3,355.5 389.1,355.5 389.1,354 379.9,354 379.9,344.2 370.7,344.2 370.7,357 361.5,357 361.5,360 352.3,360 
	352.3,348.7 343.1,348.7 343.1,354 333.8,354 333.8,344.2 324.6,344.2 324.6,370.5 315.4,370.5 315.4,358.5 306.2,358.5 306.2,363 
	297,363 297,363 287.8,363 287.8,364.5 278.6,364.5 278.6,369 269.4,369 269.4,372 260.2,372 260.2,375 251,375 251,390 241.8,390 
	241.8,387 232.6,387 232.6,390 223.4,390 223.4,394.5 214.2,394.5 214.2,391.5 205,391.5 205,396.7 195.8,396.7 195.8,401.2 
	186.6,401.2 177.4,401.2 177.4,401.2 168.2,401.2 168.2,401.2 159,401.2 159,404.2 149.8,404.2 149.8,417.7 140.6,417.7 
	140.6,423.7 131.4,423.7 131.4,431.2 122.2,431.2 122.2,438.7 113,438.7 113,444 103.8,444 103.8,451.5 94.6,451.5 94.6,456 
	85.4,456 85.4,459 76.2,459 67,459 67,463.5 76.2,463.5 85.4,463.5 94.6,463.5 94.6,463.5 103.8,463.5 103.8,463.5 113,463.5 
	122.2,463.5 131.4,463.5 131.4,463.5 140.6,463.5 140.6,463.5 149.8,463.5 159,463.5 168.2,463.5 168.2,463.5 177.4,463.5 
	177.4,463.5 186.6,463.5 195.8,463.5 205,463.5 205,463.5 214.2,463.5 214.2,463.5 223.4,463.5 232.6,463.5 241.8,463.5 
	241.8,463.5 251,463.5 251,463.5 260.2,463.5 269.4,463.5 269.4,463.5 278.6,463.5 278.6,463.5 287.8,463.5 297,463.5 297,463.5 
	306.2,463.5 306.2,463.5 315.4,463.5 315.4,463.5 324.6,463.5 333.8,463.5 333.8,463.5 343.1,463.5 343.1,463.5 352.3,463.5 
	352.3,463.5 361.5,463.5 370.7,463.5 370.7,463.5 379.9,463.5 379.9,463.5 389.1,463.5 389.1,463.5 398.3,463.5 407.5,463.5 
	407.5,463.5 416.7,463.5 416.7,463.5 425.9,463.5 425.9,463.5 435.1,463.5 444.3,463.5 444.3,463.5 453.5,463.5 453.5,463.5 
	462.7,463.5 462.7,463.5 471.9,463.5 481.1,463.5 481.1,463.5 490.3,463.5 490.3,463.5 499.5,463.5 499.5,463.5 508.7,463.5 
	517.9,463.5 527.1,463.5 527.1,463.5 536.3,463.5 536.3,463.5 545.5,463.5 545.5,463.5 554.7,463.5 563.9,463.5 563.9,463.5 
	573.1,463.5 573.1,463.5 582.3,463.5 582.3,463.5 591.5,463.5 600.7,463.5 600.7,463.5 609.9,463.5 609.9,463.5 619.1,463.5 
	619.1,463.5 628.3,463.5 637.5,463.5 637.5,333.7 "/>
<g>
	<text transform="matrix(1 0 0 1 618.8737 477.7512)" class="st10 st7 st8">5/16</text>
</g>
<g>
	<text transform="matrix(1 0 0 1 16.4939 477.7512)" class="st10 st7 st8">3/11</text>
</g>
</svg>
