<svg id="e517bd5c-6f87-4360-b636-b6951ae0f993" data-name="Layer 1" xmlns="http://www.w3.org/2000/svg" xmlns:xlink="http://www.w3.org/1999/xlink" viewBox="0 0 599.41 428.91">
  <defs>
    <style>
      .aff7bb11-6f2d-4762-85f8-da0f9b552067, .bb5980a1-3229-4633-8413-976af45d9991, .f7b311fc-d7d3-4219-926c-6e064ec181ad {
        fill: none;
      }

      .acf023e8-6cc6-4b4a-96a2-2e5910a6c435 {
        clip-path: url(#bb7eb87f-0b43-4552-b14d-9a9109c00d4c);
      }

      .e45169c5-4fac-4274-81c4-2dcbc04cdf39 {
        isolation: isolate;
      }

      .aff7bb11-6f2d-4762-85f8-da0f9b552067 {
        stroke: #e8e8e8;
      }

      .a50ac780-096b-4635-8949-aa4c755f4d4d, .aff7bb11-6f2d-4762-85f8-da0f9b552067, .f7b311fc-d7d3-4219-926c-6e064ec181ad {
        stroke-miterlimit: 10;
        stroke-width: 0.75px;
      }

      .a50ac780-096b-4635-8949-aa4c755f4d4d, .e6c276b9-9590-4975-b6e8-8f6dc4878ce2 {
        fill: #c71e1d;
      }

      .a50ac780-096b-4635-8949-aa4c755f4d4d {
        fill-opacity: 0.6;
        stroke: #000;
      }

      .f7b311fc-d7d3-4219-926c-6e064ec181ad {
        stroke: #333;
      }

      .ac3936c8-384d-4d86-9316-8fc168006296, .bcf8960b-9b61-41b5-beb2-ee537f1b4008 {
        font-size: 9px;
        font-family: Roboto-Regular, Roboto;
      }

      .bcf8960b-9b61-41b5-beb2-ee537f1b4008 {
        fill: #a6a6a6;
      }

      .ac3936c8-384d-4d86-9316-8fc168006296 {
        fill: #333;
      }

      .ea72193b-d0b5-45e7-bcb6-9b4fc817b2ea {
        letter-spacing: -0.01em;
      }

      .f7592cdf-36a3-474a-bda5-06394a63757b {
        letter-spacing: -0.01em;
      }

      .a0b83e8f-9221-4306-92bc-868954a890ba {
        letter-spacing: -0.01em;
      }

      .ad674176-822e-4fe7-96b5-95a5ca432af0 {
        letter-spacing: 0em;
      }

      .aba67511-dcb8-4fe3-b7e5-70b2fa1ff822 {
        letter-spacing: -0.02em;
      }
    </style>
    <clipPath id="bb7eb87f-0b43-4552-b14d-9a9109c00d4c" transform="translate(-0.59 -15.38)">
      <rect class="bb5980a1-3229-4633-8413-976af45d9991" width="600" height="450"/>
    </clipPath>
  </defs>
  <title>new cases</title>
  <g class="acf023e8-6cc6-4b4a-96a2-2e5910a6c435">
    <g class="e45169c5-4fac-4274-81c4-2dcbc04cdf39">
      <g class="acf023e8-6cc6-4b4a-96a2-2e5910a6c435">
        <line class="aff7bb11-6f2d-4762-85f8-da0f9b552067" x1="20.41" y1="58.13" x2="599.41" y2="58.13"/>
        <line class="aff7bb11-6f2d-4762-85f8-da0f9b552067" x1="20.41" y1="128.63" x2="599.41" y2="128.63"/>
        <line class="aff7bb11-6f2d-4762-85f8-da0f9b552067" x1="20.41" y1="199.13" x2="599.41" y2="199.13"/>
        <line class="aff7bb11-6f2d-4762-85f8-da0f9b552067" x1="20.41" y1="269.63" x2="599.41" y2="269.63"/>
        <line class="aff7bb11-6f2d-4762-85f8-da0f9b552067" x1="20.41" y1="340.13" x2="599.41" y2="340.13"/>
        <path class="e6c276b9-9590-4975-b6e8-8f6dc4878ce2" d="M52.58,426h0Z" transform="translate(-0.59 -15.38)"/>
        <path class="e6c276b9-9590-4975-b6e8-8f6dc4878ce2" d="M310.5,426h0Z" transform="translate(-0.59 -15.38)"/>
        <path class="e6c276b9-9590-4975-b6e8-8f6dc4878ce2" d="M315.76,426h0Z" transform="translate(-0.59 -15.38)"/>
        <path class="e6c276b9-9590-4975-b6e8-8f6dc4878ce2" d="M321,426h0Z" transform="translate(-0.59 -15.38)"/>
        <path class="e6c276b9-9590-4975-b6e8-8f6dc4878ce2" d="M326.29,426h0Z" transform="translate(-0.59 -15.38)"/>
        <path class="e6c276b9-9590-4975-b6e8-8f6dc4878ce2" d="M331.55,426h0Z" transform="translate(-0.59 -15.38)"/>
        <g>
          <polygon class="a50ac780-096b-4635-8949-aa4c755f4d4d" points="46.68 402.38 46.68 404.63 41.42 404.63 41.42 406.13 36.16 406.13 30.89 406.13 30.89 403.88 25.63 403.88 25.63 409.13 20.41 409.13 20.41 410.63 25.63 410.63 25.68 410.63 30.89 410.63 36.16 410.63 41.42 410.63 46.68 410.63 51.95 410.63 51.95 402.38 46.68 402.38"/>
          <polygon class="a50ac780-096b-4635-8949-aa4c755f4d4d" points="304.62 372.38 304.62 327.38 299.36 327.38 299.36 322.88 294.09 322.88 294.09 369.38 288.83 369.38 288.83 306.38 283.56 306.38 283.56 298.13 278.3 298.13 278.3 328.88 273.04 328.88 273.04 314.63 267.77 314.63 267.77 280.88 262.52 280.88 262.52 271.13 257.26 271.13 257.26 112.88 252 112.88 252 118.88 246.73 118.88 246.73 227.63 241.47 227.63 241.47 0.38 236.21 0.38 236.21 142.88 230.94 142.88 230.94 404.63 225.68 404.63 225.68 295.13 220.42 295.13 220.42 304.88 215.15 304.88 215.15 381.38 209.89 381.38 209.89 268.13 204.63 268.13 204.63 378.38 199.36 378.38 199.36 135.38 194.1 135.38 194.1 337.13 188.83 337.13 188.83 373.88 183.57 373.88 183.57 331.88 178.31 331.88 178.31 313.13 173.04 313.13 173.04 298.13 167.78 298.13 167.78 311.63 162.52 311.63 162.52 306.38 157.25 306.38 157.25 255.38 151.99 255.38 151.99 403.88 146.72 403.88 146.72 333.38 141.46 333.38 141.46 327.38 136.2 327.38 136.2 325.88 130.93 325.88 130.93 331.88 125.67 331.88 125.67 327.38 120.41 327.38 120.41 354.38 115.14 354.38 115.14 378.38 109.88 378.38 109.88 358.13 104.62 358.13 104.62 352.88 99.35 352.88 99.35 303.38 94.09 303.38 94.09 367.13 88.84 367.13 88.84 359.63 83.58 359.63 83.58 349.88 78.31 349.88 78.31 379.88 73.05 379.88 73.05 357.38 67.78 357.38 67.78 369.38 62.52 369.38 62.52 394.88 57.26 394.88 57.26 410.63 62.52 410.63 67.78 410.63 73.05 410.63 78.31 410.63 83.58 410.63 88.83 410.63 88.84 410.63 94.09 410.63 99.35 410.63 104.62 410.63 109.88 410.63 115.14 410.63 120.41 410.63 125.67 410.63 130.93 410.63 136.2 410.63 141.46 410.63 146.72 410.63 151.99 410.63 157.25 410.63 162.52 410.63 162.52 410.63 167.78 410.63 173.04 410.63 178.31 410.63 183.57 410.63 188.83 410.63 188.83 410.63 194.1 410.63 199.36 410.63 204.63 410.63 209.89 410.63 215.15 410.63 220.42 410.63 225.68 410.63 225.68 410.63 230.94 410.63 236.21 410.63 241.47 410.63 246.73 410.63 252 410.63 252 410.63 257.26 410.63 262.51 410.63 262.52 410.63 267.77 410.63 273.04 410.63 273.04 410.63 278.3 410.63 283.56 410.63 288.83 410.63 294.09 410.63 299.36 410.63 299.36 410.63 304.62 410.63 309.88 410.63 309.88 372.38 304.62 372.38"/>
          <polygon class="a50ac780-096b-4635-8949-aa4c755f4d4d" points="593.87 331.9 593.87 324.4 588.61 324.4 588.61 317.65 583.41 317.65 583.41 310.9 578.15 310.9 578.15 274.15 572.88 274.15 572.88 247.15 567.64 247.15 567.64 235.88 562.38 235.88 562.38 189.38 557.18 189.38 557.18 165.38 551.92 165.38 551.92 181.88 546.65 181.88 546.65 186.38 541.45 186.38 541.45 213.38 536.19 213.38 536.19 251.63 530.95 251.63 530.95 256.88 525.68 256.88 525.68 310.88 520.47 310.88 520.47 309.38 515.34 309.38 515.34 300.38 510.07 300.38 510.07 311.63 504.81 311.63 504.81 314.63 499.55 314.63 499.55 304.88 494.28 304.88 494.28 309.38 489.02 309.38 489.02 300.38 483.76 300.38 483.76 324.38 478.49 324.38 478.49 313.13 473.23 313.13 473.23 317.63 468.04 317.63 462.77 317.63 462.77 319.13 457.51 319.13 457.51 322.88 452.25 322.88 452.25 325.88 446.98 325.88 446.98 328.88 441.72 328.88 441.72 343.13 436.5 343.13 436.5 340.13 431.23 340.13 431.23 343.13 425.97 343.13 425.97 346.88 420.71 346.88 420.71 344.63 415.44 344.63 415.44 348.38 410.18 348.38 410.18 352.88 404.92 352.88 399.65 352.88 394.39 352.88 389.12 352.88 389.12 355.88 383.86 355.88 383.86 368.63 378.6 368.63 378.6 373.88 373.33 373.88 373.33 381.38 368.07 381.38 368.07 388.13 362.81 388.13 362.81 392.63 357.57 392.63 357.57 399.38 352.31 399.38 352.31 403.88 347.04 403.88 347.04 406.13 341.78 406.13 336.51 406.13 336.51 410.63 341.78 410.63 347.04 410.63 352.31 410.63 352.31 410.63 357.57 410.63 362.81 410.63 362.83 410.63 368.07 410.63 373.33 410.63 378.6 410.63 383.86 410.63 389.12 410.63 394.39 410.63 399.65 410.63 404.92 410.63 410.18 410.63 415.44 410.63 420.71 410.63 425.97 410.63 431.23 410.63 436.5 410.63 441.72 410.63 441.76 410.63 446.98 410.63 452.25 410.63 452.25 410.63 457.51 410.63 462.77 410.63 462.77 410.63 468.04 410.63 473.23 410.63 473.3 410.63 478.49 410.63 483.76 410.63 489.02 410.63 494.28 410.63 499.55 410.63 504.81 410.63 510.07 410.63 515.2 410.63 515.34 410.63 520.47 410.63 525.68 410.63 525.73 410.63 530.95 410.63 530.95 410.63 536.19 410.63 536.21 410.63 541.45 410.63 546.65 410.63 546.72 410.63 551.92 410.63 557.12 410.63 557.18 410.63 562.38 410.63 567.62 410.63 567.62 410.65 572.88 410.65 578.15 410.65 583.35 410.65 583.41 410.65 588.61 410.65 593.75 410.65 593.87 410.65 599.01 410.65 599.01 331.9 593.87 331.9"/>
        </g>
        <line class="f7b311fc-d7d3-4219-926c-6e064ec181ad" x1="20.41" y1="410.63" x2="599.41" y2="410.63"/>
        <text class="bcf8960b-9b61-41b5-beb2-ee537f1b4008" transform="translate(5.05 342.47)">50</text>
        <text class="bcf8960b-9b61-41b5-beb2-ee537f1b4008" transform="translate(0 271.97)">100</text>
        <text class="bcf8960b-9b61-41b5-beb2-ee537f1b4008" transform="translate(0 201.47)">150</text>
        <text class="bcf8960b-9b61-41b5-beb2-ee537f1b4008" transform="translate(0 130.97)">200</text>
        <text class="bcf8960b-9b61-41b5-beb2-ee537f1b4008" transform="translate(0 60.47)">250</text>
        <text class="ac3936c8-384d-4d86-9316-8fc168006296" transform="translate(143.44 426.47)">New cases</text>
        <text class="ac3936c8-384d-4d86-9316-8fc168006296" transform="translate(399.58 426.47)">7-d<tspan class="ea72193b-d0b5-45e7-bcb6-9b4fc817b2ea" x="12.61" y="0">a</tspan><tspan x="17.44" y="0">y </tspan><tspan class="f7592cdf-36a3-474a-bda5-06394a63757b" x="23.93" y="0">a</tspan><tspan class="a0b83e8f-9221-4306-92bc-868954a890ba" x="28.76" y="0">v</tspan><tspan class="ad674176-822e-4fe7-96b5-95a5ca432af0" x="33.07" y="0">e</tspan><tspan class="aba67511-dcb8-4fe3-b7e5-70b2fa1ff822" x="37.84" y="0">r</tspan><tspan x="40.71" y="0">age of new cases</tspan></text>
      </g>
    </g>
  </g>
  <text class="ac3936c8-384d-4d86-9316-8fc168006296" transform="translate(14.24 421.87)">3/11</text>
</svg>
