<?xml version="1.0" encoding="utf-8"?>
<!-- Generator: Adobe Illustrator 23.0.1, SVG Export Plug-In . SVG Version: 6.00 Build 0)  -->
<svg version="1.1" id="Layer_1" xmlns="http://www.w3.org/2000/svg" xmlns:xlink="http://www.w3.org/1999/xlink" x="0px" y="0px"
	 viewBox="0 0 637.5 487.5" style="enable-background:new 0 0 637.5 487.5;" xml:space="preserve">
<style type="text/css">
	.st0{clip-path:url(#SVGID_2_);}
	.st1{clip-path:url(#SVGID_4_);fill:none;stroke:#E8E8E8;stroke-width:0.75;stroke-miterlimit:10;}
	.st2{clip-path:url(#SVGID_4_);fill:#C71E1D;}
	.st3{clip-path:url(#SVGID_4_);}
	.st4{opacity:0.6;fill:#C71E1D;}
	.st5{fill:none;stroke:#000000;stroke-width:0.5;stroke-miterlimit:10;}
	.st6{clip-path:url(#SVGID_4_);fill:none;stroke:#333333;stroke-width:0.75;stroke-miterlimit:10;}
	.st7{fill:#A6A6A6;}
	.st8{font-family:'Roboto-Regular';}
	.st9{font-size:9px;}
	.st10{opacity:0.85;fill:#FACE00;stroke:#000000;stroke-width:0.5;stroke-miterlimit:10;}
	.st11{fill:#333333;}
	.st12{fill:#C71E1D;fill-opacity:0.6;stroke:#000000;stroke-width:0.5;stroke-miterlimit:10;}
	.st13{fill:#FACE00;fill-opacity:0.85;stroke:#000000;stroke-width:0.5;stroke-miterlimit:10;}
</style>
<g>
	<defs>
		<rect id="SVGID_1_" width="637.5" height="487.5"/>
	</defs>
	<clipPath id="SVGID_2_">
		<use xlink:href="#SVGID_1_"  style="overflow:visible;"/>
	</clipPath>
	<g class="st0">
		<defs>
			<rect id="SVGID_3_" width="637.5" height="483"/>
		</defs>
		<clipPath id="SVGID_4_">
			<use xlink:href="#SVGID_3_"  style="overflow:visible;"/>
		</clipPath>
		<line class="st1" x1="21" y1="5.2" x2="637.5" y2="5.2"/>
		<line class="st1" x1="21" y1="56.2" x2="637.5" y2="56.2"/>
		<line class="st1" x1="21" y1="107.2" x2="637.5" y2="107.2"/>
		<line class="st1" x1="21" y1="158.2" x2="637.5" y2="158.2"/>
		<line class="st1" x1="21" y1="208.5" x2="637.5" y2="208.5"/>
		<line class="st1" x1="21" y1="259.5" x2="637.5" y2="259.5"/>
		<line class="st1" x1="21" y1="310.5" x2="637.5" y2="310.5"/>
		<line class="st1" x1="21" y1="361.5" x2="637.5" y2="361.5"/>
		<line class="st1" x1="21" y1="412.5" x2="637.5" y2="412.5"/>
		<path class="st2" d="M69,463.5h8H69z"/>
		<g class="st3">
			<g>
				<g>
					<polygon class="st4" points="60.9,459.8 52.9,459.8 52.9,460.5 45,460.5 37,460.5 37,458.2 29,458.2 29,462.8 21,462.8 
						21,463.5 29,463.5 37,463.5 45,463.5 52.9,463.5 53,463.5 60.9,463.5 69,463.5 69,457.5 60.9,457.5 					"/>
					<polygon class="st5" points="60.9,459.8 52.9,459.8 52.9,460.5 45,460.5 37,460.5 37,458.2 29,458.2 29,462.8 21,462.8 
						21,463.5 29,463.5 37,463.5 45,463.5 52.9,463.5 53,463.5 60.9,463.5 69,463.5 69,457.5 60.9,457.5 					"/>
				</g>
				<g>
					<polygon class="st4" points="626.3,309.8 626.3,354.8 618.5,354.8 618.5,313.5 610.8,313.5 610.8,297.8 602.8,297.8 
						602.8,306.8 594.8,306.8 594.8,0 586.8,0 586.8,381.6 578.8,381.6 578.8,369.6 570.8,369.6 570.8,390 562.9,390 562.9,279 
						554.9,279 554.9,346.5 546.9,346.5 546.9,364.5 539.1,364.5 539.1,330.8 531.1,330.8 531.1,390 523.2,390 523.2,340.5 
						515.2,340.5 515.2,432 507.2,432 507.2,435 499.4,435 499.4,222 491.4,222 491.4,409.5 483.4,409.5 483.4,378.8 475.4,378.8 
						475.4,375.8 467.4,375.8 467.4,406.5 459.4,406.5 459.4,424.5 451.5,424.5 451.5,403.5 443.5,403.5 443.5,400.5 435.5,400.5 
						435.5,434.2 427.6,434.2 427.6,387.8 419.7,387.8 419.7,381.8 411.7,381.8 411.7,404.2 403.7,404.2 403.7,394.5 395.9,394.5 
						395.9,369.8 387.9,369.8 387.9,363 380,363 380,248.2 372,248.2 372,252.8 364,252.8 364,330.8 356.1,330.8 356.1,167.2 
						348.1,167.2 348.1,269.9 340.1,269.9 340.1,459.8 332.2,459.8 332.2,380.2 324.1,380.2 324.1,387 316.1,387 316.1,441.8 
						308.2,441.8 308.2,360.8 300.2,360.8 300.2,440.2 292.3,440.2 292.3,264.8 284.3,264.8 284.3,410.2 276.3,410.2 276.3,437.2 
						268.3,437.2 268.3,406.5 260.3,406.5 260.3,393 252.3,393 252.3,381.8 244.3,381.8 244.3,392.2 236.4,392.2 236.4,387.8 
						228.4,387.8 228.4,351.8 220.4,351.8 220.4,458.2 212.5,458.2 212.5,407.2 204.5,407.2 204.5,403.5 196.5,403.5 196.5,402.8 
						188.5,402.8 188.5,406.5 180.5,406.5 180.5,403.5 172.5,403.5 172.5,423 164.8,423 164.8,440.2 156.8,440.2 156.8,426 
						148.8,426 148.8,421.5 140.8,421.5 140.8,386.2 132.8,386.2 132.8,432 125,432 125,426.8 117,426.8 117,420 109,420 109,441 
						101,441 101,424.5 93,424.5 93,434.2 85.1,434.2 85.1,452.2 77,452.2 77,463.5 85.1,463.5 93,463.5 93.1,463.5 101,463.5 
						109,463.5 116.9,463.5 117,463.5 125,463.5 132.8,463.5 133,463.5 140.8,463.5 148.8,463.5 156.8,463.5 156.8,463.5 
						164.8,463.5 172.5,463.5 172.8,463.5 180.5,463.5 188.5,463.5 196.5,463.5 196.5,463.5 204.5,463.5 212.5,463.5 220.4,463.5 
						220.5,463.5 228.4,463.5 236.3,463.5 236.4,463.5 244.3,463.5 252.3,463.5 260.3,463.5 268.3,463.5 276.3,463.5 276.4,463.5 
						284.3,463.5 292.3,463.5 300.2,463.5 300.2,463.6 308.2,463.6 316.2,463.6 316.2,463.5 324.1,463.5 332.2,463.5 340.2,463.5 
						340.2,463.4 348.1,463.4 356,463.4 356,463.5 364,463.5 372,463.5 379.9,463.5 380,463.5 387.9,463.5 395.7,463.5 395.9,463.5 
						403.7,463.5 411.7,463.5 419.6,463.5 419.7,463.5 427.6,463.5 435.5,463.5 435.6,463.5 443.5,463.5 451.5,463.5 459.4,463.5 
						459.5,463.5 467.4,463.5 475.4,463.5 483.4,463.5 483.4,463.5 491.4,463.5 499.2,463.5 499.4,463.5 507.2,463.5 515.2,463.5 
						523.1,463.5 523.2,463.5 531.1,463.5 539.1,463.5 546.9,463.5 547.1,463.5 554.9,463.5 562.9,463.5 570.9,463.5 570.9,463.4 
						578.8,463.4 586.8,463.4 586.8,463.5 594.8,463.5 602.8,463.5 610.5,463.5 610.8,463.5 618.5,463.5 626.3,463.5 626.5,463.5 
						634.3,463.5 634.3,309.8 					"/>
					<polygon class="st5" points="626.3,309.8 626.3,354.8 618.5,354.8 618.5,313.5 610.8,313.5 610.8,297.8 602.8,297.8 
						602.8,306.8 594.8,306.8 594.8,0 586.8,0 586.8,381.6 578.8,381.6 578.8,369.6 570.8,369.6 570.8,390 562.9,390 562.9,279 
						554.9,279 554.9,346.5 546.9,346.5 546.9,364.5 539.1,364.5 539.1,330.8 531.1,330.8 531.1,390 523.2,390 523.2,340.5 
						515.2,340.5 515.2,432 507.2,432 507.2,435 499.4,435 499.4,222 491.4,222 491.4,409.5 483.4,409.5 483.4,378.8 475.4,378.8 
						475.4,375.8 467.4,375.8 467.4,406.5 459.4,406.5 459.4,424.5 451.5,424.5 451.5,403.5 443.5,403.5 443.5,400.5 435.5,400.5 
						435.5,434.2 427.6,434.2 427.6,387.8 419.7,387.8 419.7,381.8 411.7,381.8 411.7,404.2 403.7,404.2 403.7,394.5 395.9,394.5 
						395.9,369.8 387.9,369.8 387.9,363 380,363 380,248.2 372,248.2 372,252.8 364,252.8 364,330.8 356.1,330.8 356.1,167.2 
						348.1,167.2 348.1,269.9 340.1,269.9 340.1,459.8 332.2,459.8 332.2,380.2 324.1,380.2 324.1,387 316.1,387 316.1,441.8 
						308.2,441.8 308.2,360.8 300.2,360.8 300.2,440.2 292.3,440.2 292.3,264.8 284.3,264.8 284.3,410.2 276.3,410.2 276.3,437.2 
						268.3,437.2 268.3,406.5 260.3,406.5 260.3,393 252.3,393 252.3,381.8 244.3,381.8 244.3,392.2 236.4,392.2 236.4,387.8 
						228.4,387.8 228.4,351.8 220.4,351.8 220.4,458.2 212.5,458.2 212.5,407.2 204.5,407.2 204.5,403.5 196.5,403.5 196.5,402.8 
						188.5,402.8 188.5,406.5 180.5,406.5 180.5,403.5 172.5,403.5 172.5,423 164.8,423 164.8,440.2 156.8,440.2 156.8,426 
						148.8,426 148.8,421.5 140.8,421.5 140.8,386.2 132.8,386.2 132.8,432 125,432 125,426.8 117,426.8 117,420 109,420 109,441 
						101,441 101,424.5 93,424.5 93,434.2 85.1,434.2 85.1,452.2 77,452.2 77,463.5 85.1,463.5 93,463.5 93.1,463.5 101,463.5 
						109,463.5 116.9,463.5 117,463.5 125,463.5 132.8,463.5 133,463.5 140.8,463.5 148.8,463.5 156.8,463.5 156.8,463.5 
						164.8,463.5 172.5,463.5 172.8,463.5 180.5,463.5 188.5,463.5 196.5,463.5 196.5,463.5 204.5,463.5 212.5,463.5 220.4,463.5 
						220.5,463.5 228.4,463.5 236.3,463.5 236.4,463.5 244.3,463.5 252.3,463.5 260.3,463.5 268.3,463.5 276.3,463.5 276.4,463.5 
						284.3,463.5 292.3,463.5 300.2,463.5 300.2,463.6 308.2,463.6 316.2,463.6 316.2,463.5 324.1,463.5 332.2,463.5 340.2,463.5 
						340.2,463.4 348.1,463.4 356,463.4 356,463.5 364,463.5 372,463.5 379.9,463.5 380,463.5 387.9,463.5 395.7,463.5 395.9,463.5 
						403.7,463.5 411.7,463.5 419.6,463.5 419.7,463.5 427.6,463.5 435.5,463.5 435.6,463.5 443.5,463.5 451.5,463.5 459.4,463.5 
						459.5,463.5 467.4,463.5 475.4,463.5 483.4,463.5 483.4,463.5 491.4,463.5 499.2,463.5 499.4,463.5 507.2,463.5 515.2,463.5 
						523.1,463.5 523.2,463.5 531.1,463.5 539.1,463.5 546.9,463.5 547.1,463.5 554.9,463.5 562.9,463.5 570.9,463.5 570.9,463.4 
						578.8,463.4 586.8,463.4 586.8,463.5 594.8,463.5 602.8,463.5 610.5,463.5 610.8,463.5 618.5,463.5 626.3,463.5 626.5,463.5 
						634.3,463.5 634.3,309.8 					"/>
				</g>
			</g>
		</g>
		<line class="st6" x1="21" y1="463.5" x2="637.5" y2="463.5"/>
	</g>
	<g class="st0">
		<text transform="matrix(1 0 0 1 5.2559 414.8496)" class="st7 st8 st9">50</text>
	</g>
	<g class="st0">
		<text transform="matrix(1 0 0 1 2.929688e-03 363.8496)" class="st7 st8 st9">100</text>
	</g>
	<g class="st0">
		<text transform="matrix(1 0 0 1 2.929688e-03 312.8496)" class="st7 st8 st9">150</text>
	</g>
	<g class="st0">
		<text transform="matrix(1 0 0 1 2.929688e-03 261.8496)" class="st7 st8 st9">200</text>
	</g>
	<g class="st0">
		<text transform="matrix(1 0 0 1 2.929688e-03 210.8496)" class="st7 st8 st9">250</text>
	</g>
	<g class="st0">
		<text transform="matrix(1 0 0 1 2.929688e-03 160.5996)" class="st7 st8 st9">300</text>
	</g>
	<g class="st0">
		<text transform="matrix(1 0 0 1 2.929688e-03 109.5996)" class="st7 st8 st9">350</text>
	</g>
	<g class="st0">
		<text transform="matrix(1 0 0 1 2.929688e-03 58.5996)" class="st7 st8 st9">400</text>
	</g>
	<g class="st0">
		<text transform="matrix(1 0 0 1 2.929688e-03 7.5996)" class="st7 st8 st9">450</text>
	</g>
</g>
<polygon class="st10" points="626.4,280.5 626.4,289.5 618.5,289.5 618.5,294.7 610.7,294.7 610.7,289.5 602.7,289.5 602.7,296.2 
	594.7,296.2 594.7,304.5 586.7,304.5 586.7,351.7 578.8,351.7 578.8,353.2 570.9,353.2 570.9,348.7 563,348.7 563,354.7 555,354.7 
	555,377.2 547.1,377.2 547.1,359.2 539.1,359.2 539.1,366 531.1,366 531.1,372.7 523.2,372.7 523.2,370.5 515.2,370.5 515.2,380.2 
	507.2,380.2 507.2,378.7 499.3,378.7 499.3,375 491.3,375 491.3,400.5 483.3,400.5 483.3,403.5 475.3,403.5 475.3,404.2 
	467.3,404.2 467.3,405.7 459.4,405.7 459.3,405.7 451.4,405.7 451.4,401.2 443.4,401.2 443.4,396 435.5,396 435.5,391.5 
	427.5,391.5 427.5,364.5 419.5,364.5 419.5,345 411.5,345 411.5,337.5 403.5,337.5 403.5,303.7 395.6,303.7 395.6,286.5 
	387.6,286.5 387.6,298.5 379.6,298.5 379.6,301.5 371.7,301.5 371.7,321 363.7,321 363.7,348.7 355.7,348.7 355.7,352.5 
	347.7,352.5 347.7,391.5 339.9,391.5 339.9,390 331.9,390 331.9,384 323.9,384 323.9,392.2 315.9,392.2 315.9,394.5 308,394.5 
	308,387 300,387 300,390 292,390 292,384 284.1,384 284.1,401.2 276.1,401.2 276.1,393 268.1,393 268.1,396 260.1,396 252.2,396 
	252.2,397.5 244.2,397.5 244.2,400.5 236.2,400.5 236.2,402.7 228.2,402.7 228.2,404.2 220.2,404.2 220.2,414.7 212.3,414.7 
	212.3,412.5 204.3,412.5 204.3,414.7 196.3,414.7 196.3,417.7 188.4,417.7 188.4,415.5 180.4,415.5 180.4,418.5 172.4,418.5 
	172.4,421.5 164.4,421.5 156.5,421.5 156.4,421.5 148.5,421.5 140.5,421.5 140.5,423.7 132.5,423.7 132.5,432.7 124.6,432.7 
	124.6,437.2 116.6,437.2 116.6,441.7 108.8,441.7 108.8,447 100.8,447 100.8,450 92.8,450 92.8,455.2 84.9,455.2 84.9,458.2 
	76.9,458.2 76.9,460.5 68.9,460.5 60.9,460.5 60.9,463.5 68.9,463.5 76.9,463.5 84.9,463.5 92.8,463.5 92.9,463.5 100.8,463.5 
	108.8,463.5 116.6,463.5 116.8,463.5 124.6,463.5 132.5,463.5 132.6,463.5 140.5,463.5 148.5,463.5 156.4,463.5 156.5,463.5 
	164.4,463.5 172.4,463.5 172.4,463.5 180.4,463.5 188.4,463.5 196.3,463.5 196.4,463.5 204.3,463.5 212.3,463.5 220.2,463.5 
	220.3,463.5 228.2,463.5 236.2,463.5 236.2,463.5 244.2,463.5 252.2,463.5 260.1,463.5 268.1,463.5 276.1,463.5 276.1,463.5 
	284.1,463.5 292,463.5 300,463.5 300,463.5 308,463.5 315.9,463.5 315.9,463.5 323.9,463.5 331.9,463.5 339.7,463.5 339.9,463.5 
	347.7,463.5 355.7,463.5 355.7,463.5 363.7,463.5 371.7,463.5 379.6,463.5 379.7,463.5 387.6,463.5 395.5,463.5 395.6,463.5 
	403.5,463.5 411.5,463.5 419.5,463.5 419.5,463.5 427.5,463.5 435.4,463.5 435.5,463.5 443.4,463.5 451.4,463.5 459.3,463.5 
	459.4,463.5 467.3,463.5 475.3,463.5 483.3,463.5 483.3,463.5 491.3,463.5 499.2,463.5 499.3,463.5 507.2,463.5 515.2,463.5 
	523.1,463.5 523.2,463.5 531.1,463.5 539.1,463.5 547,463.5 547.1,463.5 555,463.5 563,463.5 570.8,463.5 570.9,463.5 578.8,463.5 
	586.7,463.5 586.8,463.5 594.7,463.5 602.7,463.5 610.5,463.5 610.7,463.5 618.5,463.5 626.4,463.5 626.4,463.5 634.4,463.5 
	634.4,280.5 "/>
<text transform="matrix(1 0 0 1 509.5961 24.6075)" class="st11 st8 st9">New cases</text>
<rect x="494.2" y="16.5" class="st12" width="9.4" height="9.4"/>
<text transform="matrix(1 0 0 1 509.5961 41.192)" class="st11 st8 st9">7-day average</text>
<rect x="494.2" y="33.1" class="st13" width="9.4" height="9.4"/>
<g>
	<text transform="matrix(1 0 0 1 618.9144 477.0526)" class="st11 st8 st9">5/26</text>
</g>
<g>
	<text transform="matrix(1 0 0 1 16.4182 477.0526)" class="st11 st8 st9">3/11</text>
</g>
</svg>
