<?xml version="1.0" encoding="utf-8"?>
<!-- Generator: Adobe Illustrator 23.0.1, SVG Export Plug-In . SVG Version: 6.00 Build 0)  -->
<svg version="1.1" id="Layer_1" xmlns="http://www.w3.org/2000/svg" xmlns:xlink="http://www.w3.org/1999/xlink" x="0px" y="0px"
	 viewBox="0 0 637.5 487.5" style="enable-background:new 0 0 637.5 487.5;" xml:space="preserve">
<style type="text/css">
	.st0{clip-path:url(#SVGID_2_);}
	.st1{clip-path:url(#SVGID_4_);fill:none;stroke:#E8E8E8;stroke-width:0.75;stroke-miterlimit:10;}
	.st2{clip-path:url(#SVGID_4_);fill:#C71E1D;}
	.st3{clip-path:url(#SVGID_4_);}
	.st4{fill:#C71E1D;fill-opacity:0.5;stroke:#000000;stroke-width:0.25;stroke-miterlimit:10;}
	.st5{clip-path:url(#SVGID_4_);fill:none;stroke:#333333;stroke-width:0.75;stroke-miterlimit:10;}
	.st6{fill:#A6A6A6;}
	.st7{font-family:'Roboto-Regular';}
	.st8{font-size:9px;}
	.st9{fill:none;stroke:#A0001C;stroke-width:2;stroke-linecap:round;stroke-linejoin:round;stroke-miterlimit:10;}
	.st10{fill:#9A1D2B;}
	.st11{font-family:'ArialMT';}
	.st12{font-size:11px;}
	.st13{fill:none;stroke:#D31D2B;stroke-width:0.75;stroke-miterlimit:10;}
	.st14{fill:#D31D2B;stroke:#D31D2B;stroke-width:0.25;stroke-miterlimit:10;}
	.st15{fill:#333333;}
</style>
<g>
	<defs>
		<rect id="SVGID_1_" width="637.5" height="487.5"/>
	</defs>
	<clipPath id="SVGID_2_">
		<use xlink:href="#SVGID_1_"  style="overflow:visible;"/>
	</clipPath>
	<g class="st0">
		<defs>
			<rect id="SVGID_3_" width="637.5" height="483"/>
		</defs>
		<clipPath id="SVGID_4_">
			<use xlink:href="#SVGID_3_"  style="overflow:visible;"/>
		</clipPath>
		<line class="st1" x1="21" y1="30.8" x2="637.5" y2="30.8"/>
		<line class="st1" x1="21" y1="93" x2="637.5" y2="93"/>
		<line class="st1" x1="21" y1="154.5" x2="637.5" y2="154.5"/>
		<line class="st1" x1="21" y1="216" x2="637.5" y2="216"/>
		<line class="st1" x1="21" y1="278.2" x2="637.5" y2="278.2"/>
		<line class="st1" x1="21" y1="339.8" x2="637.5" y2="339.8"/>
		<line class="st1" x1="21" y1="402" x2="637.5" y2="402"/>
		<path class="st2" d="M59.9,463.5h6.5H59.9z"/>
		<g class="st3">
			<polygon class="st4" points="53.4,461.2 47,461.2 47,462 40.5,462 34,462 34,460.5 27.5,460.5 27.5,462.8 21,462.8 21,463.5 
				27.5,463.5 34,463.5 40.5,463.5 47,463.5 53.4,463.5 59.9,463.5 59.9,459.8 53.4,459.8 			"/>
			<polygon class="st4" points="630.8,124.5 630.8,12 624.4,12 624.4,186.8 617.9,186.8 617.9,285.8 611.4,285.8 611.4,253.5 
				604.9,253.5 604.9,269.2 598.4,269.2 598.4,262.5 591.9,262.5 591.9,185.2 585.4,185.2 585.4,324 578.9,324 578.9,242.2 
				572.4,242.2 572.4,309.8 566,309.8 566,231.8 559.5,231.8 559.5,345.8 553,345.8 553,315 546.5,315 546.5,318 540,318 540,315.8 
				533.5,315.8 533.5,302.2 527,302.2 527,403.5 520.5,403.5 520.5,370.5 514,370.5 514,397.5 507.6,397.5 507.6,372.8 501.2,372.8 
				501.2,363 494.7,363 494.7,368.2 488.2,368.2 488.2,182.2 481.7,182.2 481.7,414 475.2,414 475.2,406.5 468.7,406.5 468.7,419.2 
				462.2,419.2 462.2,351.8 455.7,351.8 455.7,392.2 449.2,392.2 449.2,403.5 442.7,403.5 442.7,383.2 436.3,383.2 436.3,419.2 
				429.8,419.2 429.8,388.5 423.3,388.5 423.3,444 416.8,444 416.8,446.2 410.3,446.2 410.3,317.2 403.8,317.2 403.8,430.5 
				397.3,430.5 397.3,412.5 390.8,412.5 390.8,410.2 384.3,410.2 384.3,429 377.9,429 377.9,440.2 371.4,440.2 371.4,426.8 
				364.9,426.8 364.9,425.2 358.4,425.2 358.4,445.5 351.9,445.5 351.9,417.8 345.4,417.8 345.4,414 338.9,414 338.9,427.5 
				332.4,427.5 332.4,421.5 325.9,421.5 325.9,406.5 319.4,406.5 319.4,402 313,402 313,333 306.5,333 306.5,335.2 300,335.2 
				300,383.2 293.5,383.2 293.5,283.5 287,283.5 287,345.8 280.5,345.8 280.5,461.2 274,461.2 274,412.5 267.5,412.5 267.5,417 
				261,417 261,450.8 254.6,450.8 254.6,401.2 248.1,401.2 248.1,449.2 241.6,449.2 241.6,342.8 235.1,342.8 235.1,431.2 
				228.6,431.2 228.6,447.8 222.1,447.8 222.1,429 215.6,429 215.6,420.8 209.1,420.8 209.1,414 202.6,414 202.6,420 196.1,420 
				196.1,417.8 189.7,417.8 189.7,395.2 183.2,395.2 183.2,460.5 176.7,460.5 176.7,429.8 170.2,429.8 170.2,426.8 163.7,426.8 
				157.2,426.8 157.2,429 150.7,429 150.7,426.8 144.2,426.8 144.2,438.8 137.7,438.8 137.7,449.2 131.3,449.2 131.3,441 124.8,441 
				124.8,438 118.3,438 118.3,416.2 111.8,416.2 111.8,444 105.3,444 105.3,441 98.9,441 98.9,437.2 92.4,437.2 92.4,450 85.9,450 
				85.9,440.2 79.4,440.2 79.4,445.5 72.9,445.5 72.9,456.8 66.4,456.8 66.4,463.5 72.9,463.5 79.4,463.5 85.9,463.5 92.4,463.5 
				98.8,463.5 98.9,463.5 105.3,463.5 111.8,463.5 118.3,463.5 124.8,463.5 131.3,463.5 137.7,463.5 144.2,463.5 150.7,463.5 
				157.2,463.5 163.7,463.5 170.2,463.5 176.7,463.5 183.2,463.5 189.7,463.5 196.1,463.5 202.6,463.5 209.1,463.5 215.6,463.5 
				222.1,463.5 228.6,463.5 235.1,463.5 241.6,463.5 248.1,463.5 254.6,463.5 261,463.5 267.5,463.5 274,463.5 280.5,463.5 
				287,463.5 293.5,463.5 300,463.5 306.5,463.5 313,463.5 319.4,463.5 325.9,463.5 332.4,463.5 338.9,463.5 345.4,463.5 
				351.9,463.5 358.4,463.5 364.9,463.5 371.4,463.5 377.9,463.5 384.3,463.5 390.8,463.5 397.3,463.5 403.8,463.5 410.3,463.5 
				416.8,463.5 423.3,463.5 429.8,463.5 436.3,463.5 442.7,463.5 449.2,463.5 455.7,463.5 462.2,463.5 468.7,463.5 475.2,463.5 
				481.7,463.5 488.2,463.5 494.7,463.5 501.2,463.5 507.5,463.5 507.6,463.5 514,463.5 520.5,463.5 520.5,463.5 527,463.5 
				533.5,463.5 533.5,463.5 540,463.5 546.5,463.5 546.5,463.5 553,463.5 559.5,463.5 566,463.5 566,463.5 572.4,463.5 578.9,463.5 
				578.9,463.5 585.4,463.5 591.9,463.5 591.9,463.5 598.4,463.5 604.9,463.5 604.9,463.5 611.4,463.5 617.9,463.5 617.9,463.5 
				624.4,463.5 630.8,463.5 630.8,463.5 637.3,463.5 637.3,124.5 			"/>
		</g>
		<line class="st5" x1="21" y1="463.5" x2="637.5" y2="463.5"/>
	</g>
	<g class="st0">
		<text transform="matrix(1 0 0 1 0.5889 405.0996)" class="st6 st7 st8">100</text>
	</g>
	<g class="st0">
		<text transform="matrix(1 0 0 1 0.5889 342.8496)" class="st6 st7 st8">200</text>
	</g>
	<g class="st0">
		<text transform="matrix(1 0 0 1 0.5889 281.3496)" class="st6 st7 st8">300</text>
	</g>
	<g class="st0">
		<text transform="matrix(1 0 0 1 0.5889 219.0996)" class="st6 st7 st8">400</text>
	</g>
	<g class="st0">
		<text transform="matrix(1 0 0 1 0.5889 157.5996)" class="st6 st7 st8">500</text>
	</g>
	<g class="st0">
		<text transform="matrix(1 0 0 1 0.5889 96.0996)" class="st6 st7 st8">600</text>
	</g>
	<g class="st0">
		<text transform="matrix(1 0 0 1 0.5889 33.8496)" class="st6 st7 st8">700</text>
	</g>
</g>
<polyline class="st9" points="56.8,461.7 63.3,461.7 69.8,460.5 76.3,458.6 82.7,455.6 89.2,453.7 95.7,450.7 102.2,447.6 
	108.7,445.1 115.2,439.6 121.7,438.4 128.2,438.4 134.6,438.4 141.1,438.4 147.6,436.5 154.1,434.7 160.6,435.9 167.1,434.1 
	173.6,432.9 180.1,434.1 186.5,427.9 193,426.7 199.5,425.5 206,423.7 212.5,423 219,423 225.5,421.2 232,426.1 238.4,415.7 
	244.9,419.4 251.4,417.5 257.9,421.8 264.4,420.6 270.9,415.7 277.4,419.4 283.9,420 290.3,396.6 296.8,394.2 303.3,377.6 
	309.8,365.9 316.3,364.1 322.8,356.7 329.3,367.2 335.8,387.4 342.2,392.3 348.7,404 355.2,420 361.7,423 368.2,426.1 374.7,428.6 
	381.2,428.6 387.7,427.9 394.1,427.3 400.6,425.5 407.1,410.1 413.6,412.6 420.1,413.2 426.6,407.7 433.1,408.9 439.6,404.6 
	446,400.9 452.5,411.4 459,397.9 465.5,394.2 472,397.2 478.5,396 485,367.8 491.5,362.9 497.9,358.6 504.4,361.6 510.9,358.6 
	517.4,353 523.9,351.8 530.4,369 536.9,361.6 543.4,354.9 549.8,346.9 556.3,339.5 562.8,319.9 569.3,306.4 575.8,297.8 582.3,299 
	588.8,280.6 595.3,273.2 601.7,262.2 608.2,265.2 614.7,261.6 621.2,253.6 627.7,209.4 634.2,200.8 "/>
<text transform="matrix(1 0 0 1 330.7169 327.2445)" class="st10 st11 st12">7-day average</text>
<g>
	<g>
		<path class="st13" d="M368.4,333.2c5.7,10.5,4.3,24.1-3.8,35.7c-5.9,8.3-13.5,13.3-18.6,15.9"/>
		<g>
			<polygon class="st14" points="346.7,381.5 346.9,384.5 349.1,386.5 342,386.9 			"/>
		</g>
	</g>
</g>
<g>
	<text transform="matrix(1 0 0 1 618.1951 477.3218)" class="st15 st7 st8">6/13</text>
</g>
<g>
	<text transform="matrix(1 0 0 1 15.6709 477.3219)" class="st15 st7 st8">3/11</text>
</g>
</svg>
