<?xml version="1.0" encoding="utf-8"?>
<!-- Generator: Adobe Illustrator 23.0.1, SVG Export Plug-In . SVG Version: 6.00 Build 0)  -->
<svg version="1.1" id="Layer_1" xmlns="http://www.w3.org/2000/svg" xmlns:xlink="http://www.w3.org/1999/xlink" x="0px" y="0px"
	 viewBox="0 0 637.5 487.5" style="enable-background:new 0 0 637.5 487.5;" xml:space="preserve">
<style type="text/css">
	.st0{clip-path:url(#SVGID_2_);}
	.st1{clip-path:url(#SVGID_4_);fill:none;stroke:#E8E8E8;stroke-width:0.75;stroke-miterlimit:10;}
	.st2{clip-path:url(#SVGID_4_);fill:#C71E1D;}
	.st3{clip-path:url(#SVGID_4_);}
	.st4{fill:#C71E1D;fill-opacity:0.5;stroke:#000000;stroke-width:0.25;stroke-miterlimit:10;}
	.st5{clip-path:url(#SVGID_4_);fill:none;stroke:#333333;stroke-width:0.75;stroke-miterlimit:10;}
	.st6{fill:#A6A6A6;}
	.st7{font-family:'Roboto-Regular';}
	.st8{font-size:9px;}
	.st9{fill:none;stroke:#A0001C;stroke-width:2;stroke-linecap:round;stroke-linejoin:round;stroke-miterlimit:10;}
	.st10{fill:#9A1D2B;}
	.st11{font-family:'ArialMT';}
	.st12{font-size:11px;}
	.st13{fill:none;stroke:#D31D2B;stroke-width:0.75;stroke-miterlimit:10;}
	.st14{fill:#D31D2B;stroke:#D31D2B;stroke-width:0.25;stroke-miterlimit:10;}
	.st15{fill:#333333;}
</style>
<g>
	<defs>
		<rect id="SVGID_1_" width="637.5" height="487.5"/>
	</defs>
	<clipPath id="SVGID_2_">
		<use xlink:href="#SVGID_1_"  style="overflow:visible;"/>
	</clipPath>
	<g class="st0">
		<defs>
			<rect id="SVGID_3_" width="637.5" height="483"/>
		</defs>
		<clipPath id="SVGID_4_">
			<use xlink:href="#SVGID_3_"  style="overflow:visible;"/>
		</clipPath>
		<line class="st1" x1="21" y1="5.2" x2="637.5" y2="5.2"/>
		<line class="st1" x1="21" y1="56.2" x2="637.5" y2="56.2"/>
		<line class="st1" x1="21" y1="107.2" x2="637.5" y2="107.2"/>
		<line class="st1" x1="21" y1="158.2" x2="637.5" y2="158.2"/>
		<line class="st1" x1="21" y1="208.5" x2="637.5" y2="208.5"/>
		<line class="st1" x1="21" y1="259.5" x2="637.5" y2="259.5"/>
		<line class="st1" x1="21" y1="310.5" x2="637.5" y2="310.5"/>
		<line class="st1" x1="21" y1="361.5" x2="637.5" y2="361.5"/>
		<line class="st1" x1="21" y1="412.5" x2="637.5" y2="412.5"/>
		<path class="st2" d="M62.6,463.5h6.9H62.6z"/>
		<g class="st3">
			<polygon class="st4" points="55.6,459.8 48.7,459.8 48.7,460.5 41.8,460.5 34.9,460.5 34.9,458.2 27.9,458.2 27.9,462.8 
				21,462.8 21,463.5 27.9,463.5 34.9,463.5 41.8,463.5 48.7,463.5 55.6,463.5 62.6,463.5 62.6,457.5 55.6,457.5 			"/>
			<polygon class="st4" points="629.7,132.8 629.7,5.2 622.8,5.2 622.8,233.2 615.9,233.2 615.9,99 609,99 609,210 602.1,210 
				602.1,81.8 595.2,81.8 595.2,270 588.3,270 588.3,219 581.4,219 581.4,222.8 574.6,222.8 574.6,219.8 567.8,219.8 567.8,197.2 
				560.9,197.2 560.9,364.5 553.9,364.5 553.9,309.8 547,309.8 547,354.8 540.2,354.8 540.2,313.5 533.4,313.5 533.4,297.8 
				526.4,297.8 526.4,306.8 519.5,306.8 519.5,0 512.6,0 512.6,381.8 505.9,381.8 505.9,369.8 499,369.8 499,390 492,390 492,279 
				485.1,279 485.1,346.5 478.2,346.5 478.2,364.5 471.3,364.5 471.3,330.8 464.3,330.8 464.3,390 457.4,390 457.4,340.5 
				450.5,340.5 450.5,432 443.5,432 443.5,435 436.6,435 436.6,222 429.7,222 429.7,409.5 422.8,409.5 422.8,378.8 415.8,378.8 
				415.8,375.8 408.9,375.8 408.9,406.5 402,406.5 402,424.5 395.1,424.5 395.1,403.5 388.1,403.5 388.1,400.5 381.2,400.5 
				381.2,434.2 374.3,434.2 374.3,387.8 367.3,387.8 367.3,381.8 360.4,381.8 360.4,404.2 353.5,404.2 353.5,394.5 346.6,394.5 
				346.6,369.8 339.6,369.8 339.6,363 332.7,363 332.7,248.2 325.8,248.2 325.8,252.8 318.9,252.8 318.9,330.8 311.9,330.8 
				311.9,167.2 305,167.2 305,270 298.1,270 298.1,459.8 291.2,459.8 291.2,380.2 284.2,380.2 284.2,387 277.3,387 277.3,441.8 
				270.4,441.8 270.4,360.8 263.4,360.8 263.4,440.2 256.5,440.2 256.5,264.8 249.6,264.8 249.6,410.2 242.7,410.2 242.7,437.2 
				235.7,437.2 235.7,406.5 228.8,406.5 228.8,393 221.9,393 221.9,381.8 215,381.8 215,392.2 208,392.2 208,387.8 201.1,387.8 
				201.1,351.8 194.2,351.8 194.2,458.2 187.2,458.2 187.2,407.2 180.3,407.2 180.3,403.5 173.4,403.5 173.4,402.8 166.5,402.8 
				166.5,406.5 159.5,406.5 159.5,403.5 152.6,403.5 152.6,423 145.7,423 145.7,440.2 138.8,440.2 138.8,426 131.8,426 131.8,421.5 
				124.9,421.5 124.9,386.2 118,386.2 118,432 111.1,432 111.1,426.8 104.1,426.8 104.1,420 97.2,420 97.2,441 90.3,441 90.3,424.5 
				83.3,424.5 83.3,434.2 76.4,434.2 76.4,452.2 69.5,452.2 69.5,463.5 76.4,463.5 83.3,463.5 90.3,463.5 97.2,463.5 104.1,463.5 
				111.1,463.5 111.1,463.5 118,463.5 124.9,463.5 131.8,463.5 138.8,463.5 145.7,463.5 152.6,463.5 159.5,463.5 159.5,463.5 
				166.5,463.5 173.4,463.5 180.3,463.5 187.2,463.5 194.2,463.5 201.1,463.5 208,463.5 215,463.5 221.9,463.5 228.8,463.5 
				235.7,463.5 242.7,463.5 242.7,463.5 249.6,463.5 256.5,463.5 263.4,463.5 270.4,463.5 277.3,463.5 284.2,463.5 291.2,463.5 
				291.2,463.5 298.1,463.5 305,463.5 311.9,463.5 318.9,463.5 325.8,463.5 332.7,463.5 339.6,463.5 346.6,463.5 353.5,463.5 
				360.4,463.5 367.3,463.5 374.3,463.5 374.3,463.5 381.2,463.5 388.1,463.5 395.1,463.5 402,463.5 408.9,463.5 415.8,463.5 
				422.8,463.5 429.7,463.5 436.6,463.5 443.5,463.5 450.5,463.5 457.4,463.5 457.4,463.5 464.3,463.5 471.3,463.5 478.2,463.5 
				485.1,463.5 492,463.5 499,463.5 505.9,463.5 512.6,463.5 512.8,463.5 519.5,463.5 526.4,463.5 533.3,463.5 533.4,463.5 
				540.2,463.5 547,463.5 547.1,463.5 553.9,463.5 560.9,463.5 567.7,463.5 567.8,463.5 574.6,463.5 581.4,463.5 581.5,463.5 
				588.3,463.5 595.2,463.5 595.3,463.5 602.1,463.5 609,463.5 615.8,463.5 615.9,463.5 622.8,463.5 629.6,463.5 629.7,463.5 
				636.5,463.5 636.5,132.8 			"/>
		</g>
		<line class="st5" x1="21" y1="463.5" x2="637.5" y2="463.5"/>
	</g>
	<g class="st0">
		<text transform="matrix(1 0 0 1 5.6426 415.5996)" class="st6 st7 st8">50</text>
	</g>
	<g class="st0">
		<text transform="matrix(1 0 0 1 0.5889 364.5996)" class="st6 st7 st8">100</text>
	</g>
	<g class="st0">
		<text transform="matrix(1 0 0 1 0.5889 313.5996)" class="st6 st7 st8">150</text>
	</g>
	<g class="st0">
		<text transform="matrix(1 0 0 1 0.5889 262.5996)" class="st6 st7 st8">200</text>
	</g>
	<g class="st0">
		<text transform="matrix(1 0 0 1 0.5889 211.5996)" class="st6 st7 st8">250</text>
	</g>
	<g class="st0">
		<text transform="matrix(1 0 0 1 0.5889 161.3496)" class="st6 st7 st8">300</text>
	</g>
	<g class="st0">
		<text transform="matrix(1 0 0 1 0.5889 110.3496)" class="st6 st7 st8">350</text>
	</g>
	<g class="st0">
		<text transform="matrix(1 0 0 1 0.5889 59.3496)" class="st6 st7 st8">400</text>
	</g>
	<g class="st0">
		<text transform="matrix(1 0 0 1 0.5889 8.3496)" class="st6 st7 st8">450</text>
	</g>
</g>
<polyline class="st9" points="59.4,460.9 66.3,460.9 73.2,458.9 80.1,455.9 87.1,450.8 94,447.8 100.9,442.7 107.8,437.7 
	114.7,433.6 121.6,424.5 128.5,422.5 135.5,422.5 142.4,422.5 149.3,422.5 156.2,419.5 163.1,416.4 170,418.4 176.9,415.4 
	183.8,413.4 190.8,415.4 197.7,405.3 204.6,403.3 211.5,401.2 218.4,398.2 225.3,397.2 232.2,397.2 239.2,394.2 246.1,402.2 
	253,385 259.9,391.1 266.8,388.1 273.7,395.2 280.6,393.1 287.5,385 294.5,391.1 301.4,392.1 308.3,353.7 315.2,349.6 322.1,322.3 
	329,303.1 335.9,300 342.9,287.9 349.8,305.1 356.7,338.5 363.6,346.6 370.5,365.8 377.4,392.1 384.3,397.2 391.2,402.2 
	398.2,406.3 405.1,406.3 412,405.3 418.9,404.3 425.8,401.2 432.7,375.9 439.6,380 446.6,381 453.5,371.9 460.4,373.9 467.3,366.8 
	474.2,360.8 481.1,378 488,355.7 494.9,349.6 501.9,354.7 508.8,352.7 515.7,306.1 522.6,298 529.5,290.9 536.4,296 543.3,290.9 
	550.3,281.8 557.2,279.8 564.1,308.1 571,296 577.9,284.8 584.8,271.7 591.7,259.5 598.6,227.2 605.6,204.9 612.5,190.7 
	619.4,192.7 626.3,162.4 633.2,150.2 "/>
<text transform="matrix(1 0 0 1 353.5648 283.9642)" class="st10 st11 st12">7-day average</text>
<g>
	<g>
		<path class="st13" d="M391.3,290c5.7,10.5,4.3,24.1-3.8,35.7c-5.9,8.3-13.5,13.3-18.6,15.9"/>
		<g>
			<polygon class="st14" points="369.6,338.2 369.7,341.2 371.9,343.2 364.9,343.6 			"/>
		</g>
	</g>
</g>
<g>
	<text transform="matrix(1 0 0 1 623.1989 477.1996)" class="st15 st7 st8">6/7</text>
</g>
<g>
	<text transform="matrix(1 0 0 1 15.5258 477.1995)" class="st15 st7 st8">3/11</text>
</g>
</svg>
