<?xml version="1.0" encoding="utf-8"?>
<!-- Generator: Adobe Illustrator 23.0.1, SVG Export Plug-In . SVG Version: 6.00 Build 0)  -->
<svg version="1.1" id="Layer_1" xmlns="http://www.w3.org/2000/svg" xmlns:xlink="http://www.w3.org/1999/xlink" x="0px" y="0px"
	 viewBox="0 0 637.5 487.5" style="enable-background:new 0 0 637.5 487.5;" xml:space="preserve">
<style type="text/css">
	.st0{clip-path:url(#SVGID_2_);}
	.st1{clip-path:url(#SVGID_4_);fill:none;stroke:#E8E8E8;stroke-width:0.75;stroke-miterlimit:10;}
	.st2{clip-path:url(#SVGID_4_);fill:#C71E1D;}
	.st3{clip-path:url(#SVGID_4_);}
	.st4{fill:#C71E1D;fill-opacity:0.5;stroke:#000000;stroke-width:0.25;stroke-miterlimit:10;}
	.st5{clip-path:url(#SVGID_4_);fill:none;stroke:#333333;stroke-width:0.75;stroke-miterlimit:10;}
	.st6{fill:#A6A6A6;}
	.st7{font-family:'Roboto-Regular';}
	.st8{font-size:9px;}
	.st9{fill:none;stroke:#A0001C;stroke-width:2;stroke-linecap:round;stroke-linejoin:round;stroke-miterlimit:10;}
	.st10{fill:#9A1D2B;}
	.st11{font-family:'ArialMT';}
	.st12{font-size:11px;}
	.st13{fill:none;stroke:#D31D2B;stroke-width:0.75;stroke-miterlimit:10;}
	.st14{fill:#D31D2B;stroke:#D31D2B;stroke-width:0.25;stroke-miterlimit:10;}
	.st15{fill:#333333;}
</style>
<g>
	<defs>
		<rect id="SVGID_1_" width="637.5" height="487.5"/>
	</defs>
	<clipPath id="SVGID_2_">
		<use xlink:href="#SVGID_1_"  style="overflow:visible;"/>
	</clipPath>
	<g class="st0">
		<defs>
			<rect id="SVGID_3_" width="637.5" height="483"/>
		</defs>
		<clipPath id="SVGID_4_">
			<use xlink:href="#SVGID_3_"  style="overflow:visible;"/>
		</clipPath>
		<line class="st1" x1="21" y1="30.8" x2="637.5" y2="30.8"/>
		<line class="st1" x1="21" y1="93" x2="637.5" y2="93"/>
		<line class="st1" x1="21" y1="154.5" x2="637.5" y2="154.5"/>
		<line class="st1" x1="21" y1="216" x2="637.5" y2="216"/>
		<line class="st1" x1="21" y1="278.2" x2="637.5" y2="278.2"/>
		<line class="st1" x1="21" y1="339.8" x2="637.5" y2="339.8"/>
		<line class="st1" x1="21" y1="402" x2="637.5" y2="402"/>
		<path class="st2" d="M58,463.5h6.2H58z"/>
		<g class="st3">
			<polygon class="st4" points="51.8,461.2 45.7,461.2 45.7,462 39.5,462 33.3,462 33.3,460.5 27.2,460.5 27.2,462.8 21,462.8 
				21,463.5 27.2,463.5 33.3,463.5 39.5,463.5 45.7,463.5 51.8,463.5 58,463.5 58,459.8 51.8,459.8 			"/>
			<polygon class="st4" points="630.7,264.8 630.7,207 624.6,207 624.6,294 618.4,294 618.4,206.2 612.2,206.2 612.2,212.2 
				606.1,212.2 606.1,124.5 600.1,124.5 600.1,12 593.9,12 593.9,186.8 587.7,186.8 587.7,285.8 581.7,285.8 581.7,253.5 
				575.5,253.5 575.5,269.2 569.3,269.2 569.3,262.5 563.3,262.5 563.3,185.2 557.1,185.2 557.1,324 550.9,324 550.9,242.2 
				544.8,242.2 544.8,309.8 538.7,309.8 538.7,231.8 532.5,231.8 532.5,345.8 526.4,345.8 526.4,315 520.2,315 520.2,318 514,318 
				514,315.8 507.9,315.8 507.9,302.2 501.7,302.2 501.7,403.5 495.5,403.5 495.5,370.5 489.4,370.5 489.4,397.5 483.2,397.5 
				483.2,372.8 477,372.8 477,363 470.9,363 470.9,368.2 464.7,368.2 464.7,182.2 458.5,182.2 458.5,414 452.4,414 452.4,406.5 
				446.2,406.5 446.2,419.2 440,419.2 440,351.8 433.9,351.8 433.9,392.2 427.7,392.2 427.7,403.5 421.6,403.5 421.6,383.2 
				415.4,383.2 415.4,419.2 409.2,419.2 409.2,388.5 403.1,388.5 403.1,444 396.9,444 396.9,446.2 390.7,446.2 390.7,317.2 
				384.6,317.2 384.6,430.5 378.4,430.5 378.4,412.5 372.2,412.5 372.2,410.2 366.1,410.2 366.1,429 359.9,429 359.9,440.2 
				353.7,440.2 353.7,426.8 347.6,426.8 347.6,425.2 341.4,425.2 341.4,445.5 335.2,445.5 335.2,417.8 329.1,417.8 329.1,414 
				322.9,414 322.9,427.5 316.7,427.5 316.7,421.5 310.6,421.5 310.6,406.5 304.4,406.5 304.4,402 298.3,402 298.3,333 292.1,333 
				292.1,335.2 285.9,335.2 285.9,383.2 279.8,383.2 279.8,283.5 273.6,283.5 273.6,345.8 267.4,345.8 267.4,461.2 261.4,461.2 
				261.4,412.5 255.2,412.5 255.2,417 249,417 249,450.8 242.9,450.8 242.9,401.2 236.7,401.2 236.7,449.2 230.5,449.2 230.5,342.8 
				224.4,342.8 224.4,431.2 218.2,431.2 218.2,447.8 212,447.8 212,429 205.9,429 205.9,420.8 199.8,420.8 199.8,414 193.6,414 
				193.6,420 187.5,420 187.5,417.8 181.3,417.8 181.3,395.2 175.1,395.2 175.1,460.5 169,460.5 169,429.8 162.8,429.8 162.8,426.8 
				156.6,426.8 150.5,426.8 150.5,429 144.3,429 144.3,426.8 138.1,426.8 138.1,438.8 132,438.8 132,449.2 125.8,449.2 125.8,441 
				119.6,441 119.6,438 113.5,438 113.5,416.2 107.3,416.2 107.3,444 101.1,444 101.1,441 95,441 95,437.2 88.8,437.2 88.8,450 
				82.7,450 82.7,440.2 76.5,440.2 76.5,445.5 70.3,445.5 70.3,456.8 64.2,456.8 64.2,463.5 70.3,463.5 76.5,463.5 82.7,463.5 
				88.8,463.5 95,463.5 101.1,463.5 107.3,463.5 113.5,463.5 119.6,463.5 125.8,463.5 132,463.5 138.1,463.5 144.3,463.5 
				150.5,463.5 156.6,463.5 162.8,463.5 169,463.5 175.1,463.5 181.3,463.5 187.5,463.5 193.6,463.5 199.7,463.5 199.8,463.5 
				205.9,463.5 212,463.5 218.2,463.5 224.4,463.5 230.5,463.5 236.7,463.5 242.9,463.5 249,463.5 255.2,463.5 261.3,463.5 
				261.4,463.5 267.4,463.5 267.5,463.5 273.6,463.5 279.8,463.5 279.8,463.5 285.9,463.5 292.1,463.5 298.3,463.5 298.3,463.5 
				304.4,463.5 310.6,463.5 316.7,463.5 322.9,463.5 329.1,463.5 335.2,463.5 341.4,463.5 347.6,463.5 353.7,463.5 359.9,463.5 
				366.1,463.5 366.1,463.5 372.2,463.5 378.4,463.5 384.6,463.5 384.6,463.5 390.7,463.5 396.9,463.5 403.1,463.5 409.2,463.5 
				415.4,463.5 421.6,463.5 427.7,463.5 433.9,463.5 433.9,463.5 440,463.5 446.2,463.5 452.4,463.5 452.4,463.5 458.5,463.5 
				464.7,463.5 470.9,463.5 477,463.5 483.2,463.5 489.4,463.5 495.5,463.5 501.7,463.5 507.9,463.5 514,463.5 520.2,463.5 
				526.3,463.5 526.4,463.5 532.5,463.5 538.7,463.5 544.8,463.5 544.8,463.5 550.9,463.5 557.1,463.5 563.2,463.5 563.2,463.5 
				569.3,463.5 575.5,463.5 581.6,463.5 581.7,463.5 587.7,463.5 593.9,463.5 600,463.5 600.1,463.5 606.1,463.5 612.2,463.5 
				612.3,463.5 618.4,463.5 624.6,463.5 630.7,463.5 630.7,463.5 636.8,463.5 636.8,264.8 			"/>
		</g>
		<line class="st5" x1="21" y1="463.5" x2="637.5" y2="463.5"/>
	</g>
	<g class="st0">
		<text transform="matrix(1 0 0 1 0.5889 405.0996)" class="st6 st7 st8">100</text>
	</g>
	<g class="st0">
		<text transform="matrix(1 0 0 1 0.5889 342.8496)" class="st6 st7 st8">200</text>
	</g>
	<g class="st0">
		<text transform="matrix(1 0 0 1 0.5889 281.3496)" class="st6 st7 st8">300</text>
	</g>
	<g class="st0">
		<text transform="matrix(1 0 0 1 0.5889 219.0996)" class="st6 st7 st8">400</text>
	</g>
	<g class="st0">
		<text transform="matrix(1 0 0 1 0.5889 157.5996)" class="st6 st7 st8">500</text>
	</g>
	<g class="st0">
		<text transform="matrix(1 0 0 1 0.5889 96.0996)" class="st6 st7 st8">600</text>
	</g>
	<g class="st0">
		<text transform="matrix(1 0 0 1 0.5889 33.8496)" class="st6 st7 st8">700</text>
	</g>
</g>
<polyline class="st9" points="55.3,461.6 61.5,461.6 67.6,460.3 73.8,458.5 79.9,455.4 86.1,453.6 92.2,450.5 98.4,447.4 104.5,445 
	110.7,439.5 116.8,438.2 123,438.2 129.1,438.2 135.3,438.2 141.4,436.4 147.6,434.5 153.8,435.8 159.9,433.9 166.1,432.7 
	172.2,433.9 178.4,427.8 184.5,426.6 190.7,425.3 196.8,423.5 203,422.9 209.1,422.9 215.3,421 221.4,425.9 227.6,415.5 
	233.7,419.2 239.9,417.3 246,421.6 252.2,420.4 258.3,415.5 264.5,419.2 270.6,419.8 276.8,396.5 282.9,394 289.1,377.4 
	295.2,365.8 301.4,363.9 307.6,356.6 313.7,367 319.9,387.3 326,392.2 332.2,403.8 338.3,419.8 344.5,422.9 350.6,425.9 
	356.8,428.4 362.9,428.4 369.1,427.8 375.2,427.2 381.4,425.3 387.5,410 393.7,412.4 399.8,413 406,407.5 412.1,408.8 418.3,404.5 
	424.4,400.8 430.6,411.2 436.7,397.7 442.9,394 449,397.1 455.2,395.9 461.4,367.6 467.5,362.7 473.7,358.4 479.8,361.5 486,358.4 
	492.1,352.9 498.3,351.6 504.4,368.8 510.6,361.5 516.7,354.7 522.9,346.7 529,339.4 535.2,319.7 541.3,306.2 547.5,297.6 
	553.6,298.8 559.8,280.4 565.9,273.1 572.1,262 578.2,265.1 584.4,261.4 590.5,253.4 596.7,209.2 602.8,200.6 609,193.9 
	615.2,184.6 621.3,190.8 627.5,179.1 633.6,190.2 "/>
<text transform="matrix(1 0 0 1 308.916 317.1082)" class="st10 st11 st12">7-day average</text>
<g>
	<g>
		<path class="st13" d="M346.6,323.1c5.7,10.5,4.3,24.1-3.8,35.7c-5.9,8.3-13.5,13.3-18.6,15.9"/>
		<g>
			<polygon class="st14" points="324.9,371.3 325.1,374.4 327.3,376.3 320.2,376.7 			"/>
		</g>
	</g>
</g>
<g>
	<text transform="matrix(1 0 0 1 618.621 477.1302)" class="st15 st7 st8">6/18</text>
</g>
<g>
	<text transform="matrix(1 0 0 1 14.7257 477.1302)" class="st15 st7 st8">3/11</text>
</g>
</svg>
