<?xml version="1.0" encoding="utf-8"?>
<!-- Generator: Adobe Illustrator 23.0.1, SVG Export Plug-In . SVG Version: 6.00 Build 0)  -->
<svg version="1.1" id="Layer_1" xmlns="http://www.w3.org/2000/svg" xmlns:xlink="http://www.w3.org/1999/xlink" x="0px" y="0px"
	 viewBox="0 0 637.5 487.5" style="enable-background:new 0 0 637.5 487.5;" xml:space="preserve">
<style type="text/css">
	.st0{clip-path:url(#SVGID_2_);}
	.st1{clip-path:url(#SVGID_4_);fill:none;stroke:#E8E8E8;stroke-width:0.75;stroke-miterlimit:10;}
	.st2{clip-path:url(#SVGID_4_);fill:#C71E1D;}
	.st3{clip-path:url(#SVGID_4_);}
	.st4{fill:#C71E1D;fill-opacity:0.5;stroke:#000000;stroke-width:0.25;stroke-miterlimit:10;}
	.st5{clip-path:url(#SVGID_4_);fill:none;stroke:#333333;stroke-width:0.75;stroke-miterlimit:10;}
	.st6{fill:#A6A6A6;}
	.st7{font-family:'Roboto-Regular';}
	.st8{font-size:9px;}
	.st9{fill:none;stroke:#A0001C;stroke-width:2;stroke-linecap:round;stroke-linejoin:round;stroke-miterlimit:10;}
	.st10{fill:#9A1D2B;}
	.st11{font-family:'ArialMT';}
	.st12{font-size:11px;}
	.st13{fill:none;stroke:#D31D2B;stroke-width:0.75;stroke-miterlimit:10;}
	.st14{fill:#D31D2B;stroke:#D31D2B;stroke-width:0.25;stroke-miterlimit:10;}
	.st15{fill:#333333;}
</style>
<g>
	<defs>
		<rect id="SVGID_1_" width="637.5" height="487.5"/>
	</defs>
	<clipPath id="SVGID_2_">
		<use xlink:href="#SVGID_1_"  style="overflow:visible;"/>
	</clipPath>
	<g class="st0">
		<defs>
			<rect id="SVGID_3_" width="637.5" height="483"/>
		</defs>
		<clipPath id="SVGID_4_">
			<use xlink:href="#SVGID_3_"  style="overflow:visible;"/>
		</clipPath>
		<line class="st1" x1="21" y1="30.8" x2="637.5" y2="30.8"/>
		<line class="st1" x1="21" y1="93" x2="637.5" y2="93"/>
		<line class="st1" x1="21" y1="154.5" x2="637.5" y2="154.5"/>
		<line class="st1" x1="21" y1="216" x2="637.5" y2="216"/>
		<line class="st1" x1="21" y1="278.2" x2="637.5" y2="278.2"/>
		<line class="st1" x1="21" y1="339.8" x2="637.5" y2="339.8"/>
		<line class="st1" x1="21" y1="402" x2="637.5" y2="402"/>
		<path class="st2" d="M58.4,463.5h6.2H58.4z"/>
		<rect x="263.9" y="461.2" class="st2" width="6.2" height="2.2"/>
		<g class="st3">
			<polygon class="st4" points="52.1,461.2 45.9,461.2 45.9,462 39.7,462 33.5,462 33.5,460.5 27.2,460.5 27.2,462.8 21,462.8 
				21,463.5 27.2,463.5 33.5,463.5 39.7,463.5 45.9,463.5 52.1,463.5 58.4,463.5 58.4,459.8 52.1,459.8 			"/>
			<polygon class="st4" points="257.6,417 251.4,417 251.4,450.8 245.2,450.8 245.2,401.2 239,401.2 239,449.2 232.7,449.2 
				232.7,342.8 226.5,342.8 226.5,431.2 220.3,431.2 220.3,447.8 214,447.8 214,429 207.8,429 207.8,420.8 201.6,420.8 201.6,414 
				195.4,414 195.4,420 189.1,420 189.1,417.8 182.9,417.8 182.9,395.2 176.7,395.2 176.7,460.5 170.5,460.5 170.5,429.8 
				164.2,429.8 164.2,426.8 158,426.8 151.8,426.8 151.8,429 145.5,429 145.5,426.8 139.3,426.8 139.3,438.8 133.1,438.8 
				133.1,449.2 126.9,449.2 126.9,441 120.6,441 120.6,438 114.4,438 114.4,416.2 108.2,416.2 108.2,444 102,444 102,441 95.7,441 
				95.7,437.2 89.5,437.2 89.5,450 83.3,450 83.3,440.2 77,440.2 77,445.5 70.8,445.5 70.8,456.8 64.6,456.8 64.6,463.5 70.8,463.5 
				77,463.5 83.3,463.5 89.5,463.5 95.7,463.5 102,463.5 108.2,463.5 114.4,463.5 120.6,463.5 126.9,463.5 133.1,463.5 139.3,463.5 
				145.5,463.5 151.8,463.5 151.8,463.5 158,463.5 164.2,463.5 170.5,463.5 170.5,463.5 176.7,463.5 182.9,463.5 189.1,463.5 
				195.4,463.5 201.6,463.5 207.8,463.5 214,463.5 220.3,463.5 220.3,463.5 226.5,463.5 232.7,463.5 239,463.5 239,463.5 
				245.2,463.5 251.4,463.5 257.6,463.5 263.9,463.5 263.9,412.5 257.6,412.5 			"/>
			<polygon class="st4" points="630.9,207 630.9,294 624.6,294 624.6,206.2 618.4,206.2 618.4,212.2 612.2,212.2 612.2,124.5 
				606,124.5 606,12 599.7,12 599.7,186.8 593.5,186.8 593.5,285.8 587.3,285.8 587.3,253.5 581,253.5 581,269.2 574.8,269.2 
				574.8,262.5 568.6,262.5 568.6,185.2 562.4,185.2 562.4,324 556.1,324 556.1,242.2 549.9,242.2 549.9,309.8 543.7,309.8 
				543.7,231.8 537.5,231.8 537.5,345.8 531.2,345.8 531.2,315 525,315 525,318 518.8,318 518.8,315.8 512.5,315.8 512.5,302.2 
				506.3,302.2 506.3,403.5 500.1,403.5 500.1,370.5 493.9,370.5 493.9,397.5 487.7,397.5 487.7,372.8 481.5,372.8 481.5,363 
				475.2,363 475.2,368.2 469,368.2 469,182.2 462.8,182.2 462.8,414 456.6,414 456.6,406.5 450.3,406.5 450.3,419.2 444.2,419.2 
				444.2,351.8 437.9,351.8 437.9,392.2 431.7,392.2 431.7,403.5 425.6,403.5 425.6,383.2 419.3,383.2 419.3,419.2 413.1,419.2 
				413.1,388.5 406.9,388.5 406.9,444 400.6,444 400.6,446.2 394.4,446.2 394.4,317.2 388.2,317.2 388.2,430.5 382,430.5 382,412.5 
				375.8,412.5 375.8,410.2 369.6,410.2 369.6,429 363.3,429 363.3,440.2 357.1,440.2 357.1,426.8 350.9,426.8 350.9,425.2 
				344.7,425.2 344.7,445.5 338.5,445.5 338.5,417.8 332.2,417.8 332.2,414 326,414 326,427.5 319.8,427.5 319.8,421.5 313.6,421.5 
				313.6,406.5 307.4,406.5 307.4,402.1 301.1,402.1 301.1,333.1 294.9,333.1 294.9,335.3 288.7,335.3 288.7,383.2 282.5,383.2 
				282.5,283.5 276.3,283.5 276.3,345.8 270.1,345.8 270.1,463.5 276.3,463.5 282.5,463.5 288.7,463.5 288.7,463.6 294.9,463.6 
				301.1,463.6 307.4,463.6 307.4,463.5 313.6,463.5 319.8,463.5 326,463.5 332.2,463.5 338.5,463.5 344.7,463.5 350.9,463.5 
				357.1,463.5 357.1,463.5 363.3,463.5 369.6,463.5 375.7,463.5 375.8,463.5 382,463.5 388.2,463.5 394.4,463.5 400.6,463.5 
				406.9,463.5 413.1,463.5 419.3,463.5 425.5,463.5 425.6,463.5 431.7,463.5 437.9,463.5 444.1,463.5 444.2,463.5 450.3,463.5 
				456.6,463.5 462.8,463.5 469,463.5 475.2,463.5 481.5,463.5 487.7,463.5 493.9,463.5 493.9,463.5 500.1,463.5 506.3,463.5 
				512.5,463.5 518.8,463.5 525,463.5 531.2,463.5 531.2,463.5 537.5,463.5 543.7,463.5 543.7,463.5 549.9,463.5 556.1,463.5 
				562.4,463.5 562.4,463.5 568.6,463.5 574.8,463.5 581,463.5 581,463.5 587.3,463.5 593.5,463.5 599.7,463.5 599.7,463.5 
				606,463.5 612.2,463.5 612.2,463.5 618.4,463.5 624.6,463.5 630.9,463.5 630.9,463.5 637.1,463.5 637.1,207 			"/>
		</g>
		<line class="st5" x1="21" y1="463.5" x2="637.5" y2="463.5"/>
	</g>
	<g class="st0">
		<text transform="matrix(1 0 0 1 0.5889 405.0996)" class="st6 st7 st8">100</text>
	</g>
	<g class="st0">
		<text transform="matrix(1 0 0 1 0.5889 342.8496)" class="st6 st7 st8">200</text>
	</g>
	<g class="st0">
		<text transform="matrix(1 0 0 1 0.5889 281.3496)" class="st6 st7 st8">300</text>
	</g>
	<g class="st0">
		<text transform="matrix(1 0 0 1 0.5889 219.0996)" class="st6 st7 st8">400</text>
	</g>
	<g class="st0">
		<text transform="matrix(1 0 0 1 0.5889 157.5996)" class="st6 st7 st8">500</text>
	</g>
	<g class="st0">
		<text transform="matrix(1 0 0 1 0.5889 96.0996)" class="st6 st7 st8">600</text>
	</g>
	<g class="st0">
		<text transform="matrix(1 0 0 1 0.5889 33.8496)" class="st6 st7 st8">700</text>
	</g>
</g>
<polyline class="st9" points="55.3,461.7 61.5,461.7 67.8,460.5 74,458.6 80.2,455.6 86.4,453.7 92.7,450.6 98.9,447.6 105.1,445.1 
	111.3,439.6 117.6,438.4 123.8,438.4 130,438.4 136.2,438.4 142.5,436.5 148.7,434.7 154.9,435.9 161.1,434.1 167.4,432.8 
	173.6,434.1 179.8,427.9 186,426.7 192.3,425.5 198.5,423.6 204.7,423 210.9,423 217.2,421.2 223.4,426.1 229.6,415.6 235.8,419.3 
	242.1,417.5 248.3,421.8 254.5,420.6 260.7,415.6 267,419.3 273.2,419.9 279.4,396.6 285.6,394.2 291.9,377.6 298.1,365.9 
	304.3,364.1 310.6,356.7 316.8,367.1 323,387.4 329.2,392.3 335.5,404 341.7,419.9 347.9,423 354.1,426.1 360.4,428.5 366.6,428.5 
	372.8,427.9 379,427.3 385.3,425.5 391.5,410.1 397.7,412.6 403.9,413.2 410.2,407.7 416.4,408.9 422.6,404.6 428.8,400.9 
	435.1,411.3 441.3,397.8 447.5,394.2 453.7,397.2 460,396 466.2,367.8 472.4,362.8 478.6,358.5 484.9,361.6 491.1,358.5 497.3,353 
	503.5,351.8 509.8,369 516,361.6 522.2,354.9 528.4,346.9 534.7,339.5 540.9,319.9 547.1,306.4 553.3,297.8 559.6,299 565.8,280.6 
	572,273.2 578.2,262.1 584.5,265.2 590.7,261.5 596.9,253.5 603.1,209.3 609.4,200.7 615.6,194 621.8,184.8 628,190.9 634.3,179.3 
	"/>
<text transform="matrix(1 0 0 1 312.7864 320.4724)" class="st10 st11 st12">7-day average</text>
<g>
	<g>
		<path class="st13" d="M350.5,326.5c5.7,10.5,4.3,24.1-3.8,35.7c-5.9,8.3-13.5,13.3-18.6,15.9"/>
		<g>
			<polygon class="st14" points="328.8,374.7 328.9,377.7 331.2,379.7 324.1,380.1 			"/>
		</g>
	</g>
</g>
<g>
	<text transform="matrix(1 0 0 1 618.4174 478.8526)" class="st15 st7 st8">6/17</text>
</g>
<g>
	<text transform="matrix(1 0 0 1 16.8925 478.8528)" class="st15 st7 st8">3/11</text>
</g>
</svg>
